  0
SECTION
  2
HEADER
  9
$ANGBASE
  50
0.0
  9
$ANGDIR
  70
1
  9
$MEASUREMENT
  70
0
  0
ENDSEC
  0
SECTION
  2
TABLES
  0
TABLE
  2
LTYPE
  70
4
  0
LTYPE
  5
40F
  2
CONTINUOUS
  70
0
  3
Solid line
  72
65
  73
0
  40
0.0
  0
LTYPE
  5
410
  2
DASHDOT
 70
0
  3
Dash Dot ____ _ ____ _
 72
65
 73
4
 40
2.0
 49
1.25
 49
-0.25
 49
0.25
 49
-0.25
  0
LTYPE
  5
411
  2
DASHED
 70
0
  3
Dashed __ __ __ __ __
 72
65
 73
2
 40
0.75
 49
0.5
 49
-0.25
  0
LTYPE
  5
43B
  2
DOTTED
 70
0
  3
Dotted .  .  .  .
 72
65
 73
2
 40
0.2
 49
0.0
 49
-0.2
  0
ENDTAB
  0
TABLE
  2
STYLE
  70
4
  0
STYLE
  2
KICAD
  70
0
  40
0
  41
1
  42
1
  50
0
  71
0
  3
isocp.shx
  0
STYLE
  2
KICADB
  70
0
  40
0
  41
1
  42
1
  50
0
  71
0
  3
isocp.shx
  0
STYLE
  2
KICADI
  70
0
  40
0
  41
1
  42
1
  50
15
  71
0
  3
isocp.shx
  0
STYLE
  2
KICADBI
  70
0
  40
0
  41
1
  42
1
  50
15
  71
0
  3
isocp.shx
  0
ENDTAB
  0
TABLE
  2
LAYER
  70
1
  0
LAYER
  2
BLACK
  70
0
  62
7
  6
CONTINUOUS
  0
ENDTAB
  0
ENDSEC
  0
SECTION
  2
ENTITIES
0
LINE
8
BLACK
6
CONTINUOUS
10
0.2301445275590551
20
-0.2893318897637795
11
0.2333376771653543
21
-0.2914654724409449
0
LINE
8
BLACK
6
CONTINUOUS
10
0.2333376771653543
20
-0.2914654724409449
11
0.2354712598425197
21
-0.2946586220472441
0
LINE
8
BLACK
6
CONTINUOUS
10
0.2354712598425197
20
-0.2946586220472441
11
0.2362204724409449
21
-0.2984251968503937
0
LINE
8
BLACK
6
CONTINUOUS
10
0.2362204724409449
20
-0.2984251968503937
11
0.2362204724409449
21
-0.3338582677165354
0
LINE
8
BLACK
6
CONTINUOUS
10
0.2362204724409449
20
-0.3338582677165354
11
0.2354712598425197
21
-0.3376248425196851
0
LINE
8
BLACK
6
CONTINUOUS
10
0.2354712598425197
20
-0.3376248425196851
11
0.2333376771653543
21
-0.3408179921259842
0
LINE
8
BLACK
6
CONTINUOUS
10
0.2333376771653543
20
-0.3408179921259842
11
0.2301445275590551
21
-0.3429515748031496
0
LINE
8
BLACK
6
CONTINUOUS
10
0.2301445275590551
20
-0.3429515748031496
11
0.2263779527559055
21
-0.3437007874015748
0
LINE
8
BLACK
6
CONTINUOUS
10
0.2263779527559055
20
-0.3437007874015748
11
0.2057086614173228
21
-0.3437007874015748
0
LINE
8
BLACK
6
CONTINUOUS
10
0.2057086614173228
20
-0.3437007874015748
11
0.2019420866141732
21
-0.3429515748031496
0
LINE
8
BLACK
6
CONTINUOUS
10
0.2019420866141732
20
-0.3429515748031496
11
0.198748937007874
21
-0.3408179921259842
0
LINE
8
BLACK
6
CONTINUOUS
10
0.198748937007874
20
-0.3408179921259842
11
0.1966153543307086
21
-0.3376248425196851
0
LINE
8
BLACK
6
CONTINUOUS
10
0.1966153543307086
20
-0.3376248425196851
11
0.1958661417322834
21
-0.3338582677165354
0
LINE
8
BLACK
6
CONTINUOUS
10
0.1958661417322834
20
-0.3338582677165354
11
0.1958661417322834
21
-0.2984251968503937
0
LINE
8
BLACK
6
CONTINUOUS
10
0.1958661417322834
20
-0.2984251968503937
11
0.1966153543307086
21
-0.2946586220472441
0
LINE
8
BLACK
6
CONTINUOUS
10
0.1966153543307086
20
-0.2946586220472441
11
0.198748937007874
21
-0.2914654724409449
0
LINE
8
BLACK
6
CONTINUOUS
10
0.198748937007874
20
-0.2914654724409449
11
0.2019420866141732
21
-0.2893318897637795
0
LINE
8
BLACK
6
CONTINUOUS
10
0.2019420866141732
20
-0.2893318897637795
11
0.2057086614173228
21
-0.2885826771653544
0
LINE
8
BLACK
6
CONTINUOUS
10
0.2057086614173228
20
-0.2885826771653544
11
0.2263779527559055
21
-0.2885826771653544
0
LINE
8
BLACK
6
CONTINUOUS
10
0.2263779527559055
20
-0.2885826771653544
11
0.2301445275590551
21
-0.2893318897637795
0
LINE
8
BLACK
6
CONTINUOUS
10
0.3019949212598425
20
-0.2893318897637795
11
0.3051880708661417
21
-0.2914654724409449
0
LINE
8
BLACK
6
CONTINUOUS
10
0.3051880708661417
20
-0.2914654724409449
11
0.3073216535433071
21
-0.2946586220472441
0
LINE
8
BLACK
6
CONTINUOUS
10
0.3073216535433071
20
-0.2946586220472441
11
0.3080708661417323
21
-0.2984251968503937
0
LINE
8
BLACK
6
CONTINUOUS
10
0.3080708661417323
20
-0.2984251968503937
11
0.3080708661417323
21
-0.3338582677165354
0
LINE
8
BLACK
6
CONTINUOUS
10
0.3080708661417323
20
-0.3338582677165354
11
0.3073216535433071
21
-0.3376248425196851
0
LINE
8
BLACK
6
CONTINUOUS
10
0.3073216535433071
20
-0.3376248425196851
11
0.3051880708661417
21
-0.3408179921259842
0
LINE
8
BLACK
6
CONTINUOUS
10
0.3051880708661417
20
-0.3408179921259842
11
0.3019949212598425
21
-0.3429515748031496
0
LINE
8
BLACK
6
CONTINUOUS
10
0.3019949212598425
20
-0.3429515748031496
11
0.2982283464566929
21
-0.3437007874015748
0
LINE
8
BLACK
6
CONTINUOUS
10
0.2982283464566929
20
-0.3437007874015748
11
0.2775590551181102
21
-0.3437007874015748
0
LINE
8
BLACK
6
CONTINUOUS
10
0.2775590551181102
20
-0.3437007874015748
11
0.2737924803149606
21
-0.3429515748031496
0
LINE
8
BLACK
6
CONTINUOUS
10
0.2737924803149606
20
-0.3429515748031496
11
0.2705993307086614
21
-0.3408179921259842
0
LINE
8
BLACK
6
CONTINUOUS
10
0.2705993307086614
20
-0.3408179921259842
11
0.268465748031496
21
-0.3376248425196851
0
LINE
8
BLACK
6
CONTINUOUS
10
0.268465748031496
20
-0.3376248425196851
11
0.2677165354330708
21
-0.3338582677165354
0
LINE
8
BLACK
6
CONTINUOUS
10
0.2677165354330708
20
-0.3338582677165354
11
0.2677165354330708
21
-0.2984251968503937
0
LINE
8
BLACK
6
CONTINUOUS
10
0.2677165354330708
20
-0.2984251968503937
11
0.268465748031496
21
-0.2946586220472441
0
LINE
8
BLACK
6
CONTINUOUS
10
0.268465748031496
20
-0.2946586220472441
11
0.2705993307086614
21
-0.2914654724409449
0
LINE
8
BLACK
6
CONTINUOUS
10
0.2705993307086614
20
-0.2914654724409449
11
0.2737924803149606
21
-0.2893318897637795
0
LINE
8
BLACK
6
CONTINUOUS
10
0.2737924803149606
20
-0.2893318897637795
11
0.2775590551181102
21
-0.2885826771653544
0
LINE
8
BLACK
6
CONTINUOUS
10
0.2775590551181102
20
-0.2885826771653544
11
0.2982283464566929
21
-0.2885826771653544
0
LINE
8
BLACK
6
CONTINUOUS
10
0.2982283464566929
20
-0.2885826771653544
11
0.3019949212598425
21
-0.2893318897637795
0
LINE
8
BLACK
6
CONTINUOUS
10
-0.0705444488188976
20
-0.1483870078740157
11
-0.0673512992125984
21
-0.1505205905511811
0
LINE
8
BLACK
6
CONTINUOUS
10
-0.0673512992125984
20
-0.1505205905511811
11
-0.0652177165354331
21
-0.1537137401574803
0
LINE
8
BLACK
6
CONTINUOUS
10
-0.0652177165354331
20
-0.1537137401574803
11
-0.0644685039370079
21
-0.1574803149606299
0
LINE
8
BLACK
6
CONTINUOUS
10
-0.0644685039370079
20
-0.1574803149606299
11
-0.0644685039370079
21
-0.1811023622047244
0
LINE
8
BLACK
6
CONTINUOUS
10
-0.0644685039370079
20
-0.1811023622047244
11
-0.0652177165354331
21
-0.184868937007874
0
LINE
8
BLACK
6
CONTINUOUS
10
-0.0652177165354331
20
-0.184868937007874
11
-0.0673512992125984
21
-0.1880620866141732
0
LINE
8
BLACK
6
CONTINUOUS
10
-0.0673512992125984
20
-0.1880620866141732
11
-0.0705444488188976
21
-0.1901956692913386
0
LINE
8
BLACK
6
CONTINUOUS
10
-0.0705444488188976
20
-0.1901956692913386
11
-0.0743110236220472
21
-0.1909448818897638
0
LINE
8
BLACK
6
CONTINUOUS
10
-0.0743110236220472
20
-0.1909448818897638
11
-0.0979330708661417
21
-0.1909448818897638
0
LINE
8
BLACK
6
CONTINUOUS
10
-0.0979330708661417
20
-0.1909448818897638
11
-0.1016996456692913
21
-0.1901956692913386
0
LINE
8
BLACK
6
CONTINUOUS
10
-0.1016996456692913
20
-0.1901956692913386
11
-0.1048927952755905
21
-0.1880620866141732
0
LINE
8
BLACK
6
CONTINUOUS
10
-0.1048927952755905
20
-0.1880620866141732
11
-0.1070263779527559
21
-0.184868937007874
0
LINE
8
BLACK
6
CONTINUOUS
10
-0.1070263779527559
20
-0.184868937007874
11
-0.1077755905511811
21
-0.1811023622047244
0
LINE
8
BLACK
6
CONTINUOUS
10
-0.1077755905511811
20
-0.1811023622047244
11
-0.1077755905511811
21
-0.1574803149606299
0
LINE
8
BLACK
6
CONTINUOUS
10
-0.1077755905511811
20
-0.1574803149606299
11
-0.1070263779527559
21
-0.1537137401574803
0
LINE
8
BLACK
6
CONTINUOUS
10
-0.1070263779527559
20
-0.1537137401574803
11
-0.1048927952755905
21
-0.1505205905511811
0
LINE
8
BLACK
6
CONTINUOUS
10
-0.1048927952755905
20
-0.1505205905511811
11
-0.1016996456692913
21
-0.1483870078740157
0
LINE
8
BLACK
6
CONTINUOUS
10
-0.1016996456692913
20
-0.1483870078740157
11
-0.0979330708661417
21
-0.1476377952755905
0
LINE
8
BLACK
6
CONTINUOUS
10
-0.0979330708661417
20
-0.1476377952755905
11
-0.0743110236220472
21
-0.1476377952755905
0
LINE
8
BLACK
6
CONTINUOUS
10
-0.0743110236220472
20
-0.1476377952755905
11
-0.0705444488188976
21
-0.1483870078740157
0
LINE
8
BLACK
6
CONTINUOUS
10
0.0396917716535433
20
-0.1483870078740157
11
0.0428849212598425
21
-0.1505205905511811
0
LINE
8
BLACK
6
CONTINUOUS
10
0.0428849212598425
20
-0.1505205905511811
11
0.0450185039370079
21
-0.1537137401574803
0
LINE
8
BLACK
6
CONTINUOUS
10
0.0450185039370079
20
-0.1537137401574803
11
0.0457677165354331
21
-0.1574803149606299
0
LINE
8
BLACK
6
CONTINUOUS
10
0.0457677165354331
20
-0.1574803149606299
11
0.0457677165354331
21
-0.1811023622047244
0
LINE
8
BLACK
6
CONTINUOUS
10
0.0457677165354331
20
-0.1811023622047244
11
0.0450185039370079
21
-0.184868937007874
0
LINE
8
BLACK
6
CONTINUOUS
10
0.0450185039370079
20
-0.184868937007874
11
0.0428849212598425
21
-0.1880620866141732
0
LINE
8
BLACK
6
CONTINUOUS
10
0.0428849212598425
20
-0.1880620866141732
11
0.0396917716535433
21
-0.1901956692913386
0
LINE
8
BLACK
6
CONTINUOUS
10
0.0396917716535433
20
-0.1901956692913386
11
0.0359251968503937
21
-0.1909448818897638
0
LINE
8
BLACK
6
CONTINUOUS
10
0.0359251968503937
20
-0.1909448818897638
11
0.0123031496062992
21
-0.1909448818897638
0
LINE
8
BLACK
6
CONTINUOUS
10
0.0123031496062992
20
-0.1909448818897638
11
0.0085365748031496
21
-0.1901956692913386
0
LINE
8
BLACK
6
CONTINUOUS
10
0.0085365748031496
20
-0.1901956692913386
11
0.0053434251968504
21
-0.1880620866141732
0
LINE
8
BLACK
6
CONTINUOUS
10
0.0053434251968504
20
-0.1880620866141732
11
0.003209842519685
21
-0.184868937007874
0
LINE
8
BLACK
6
CONTINUOUS
10
0.003209842519685
20
-0.184868937007874
11
0.0024606299212598
21
-0.1811023622047244
0
LINE
8
BLACK
6
CONTINUOUS
10
0.0024606299212598
20
-0.1811023622047244
11
0.0024606299212598
21
-0.1574803149606299
0
LINE
8
BLACK
6
CONTINUOUS
10
0.0024606299212598
20
-0.1574803149606299
11
0.003209842519685
21
-0.1537137401574803
0
LINE
8
BLACK
6
CONTINUOUS
10
0.003209842519685
20
-0.1537137401574803
11
0.0053434251968504
21
-0.1505205905511811
0
LINE
8
BLACK
6
CONTINUOUS
10
0.0053434251968504
20
-0.1505205905511811
11
0.0085365748031496
21
-0.1483870078740157
0
LINE
8
BLACK
6
CONTINUOUS
10
0.0085365748031496
20
-0.1483870078740157
11
0.0123031496062992
21
-0.1476377952755905
0
LINE
8
BLACK
6
CONTINUOUS
10
0.0123031496062992
20
-0.1476377952755905
11
0.0359251968503937
21
-0.1476377952755905
0
LINE
8
BLACK
6
CONTINUOUS
10
0.0359251968503937
20
-0.1476377952755905
11
0.0396917716535433
21
-0.1483870078740157
0
LINE
8
BLACK
6
CONTINUOUS
10
0.3124279921259843
20
0.0862586614173228
11
0.3156211417322835
21
0.0841250787401575
0
LINE
8
BLACK
6
CONTINUOUS
10
0.3156211417322835
20
0.0841250787401575
11
0.3177547244094488
21
0.0809319291338583
0
LINE
8
BLACK
6
CONTINUOUS
10
0.3177547244094488
20
0.0809319291338583
11
0.318503937007874
21
0.0771653543307087
0
LINE
8
BLACK
6
CONTINUOUS
10
0.318503937007874
20
0.0771653543307087
11
0.318503937007874
21
0.056496062992126
0
LINE
8
BLACK
6
CONTINUOUS
10
0.318503937007874
20
0.056496062992126
11
0.3177547244094488
21
0.0527294881889764
0
LINE
8
BLACK
6
CONTINUOUS
10
0.3177547244094488
20
0.0527294881889764
11
0.3156211417322835
21
0.0495363385826772
0
LINE
8
BLACK
6
CONTINUOUS
10
0.3156211417322835
20
0.0495363385826772
11
0.3124279921259843
21
0.0474027559055118
0
LINE
8
BLACK
6
CONTINUOUS
10
0.3124279921259843
20
0.0474027559055118
11
0.3086614173228346
21
0.0466535433070866
0
LINE
8
BLACK
6
CONTINUOUS
10
0.3086614173228346
20
0.0466535433070866
11
0.2732283464566929
21
0.0466535433070866
0
LINE
8
BLACK
6
CONTINUOUS
10
0.2732283464566929
20
0.0466535433070866
11
0.2694617716535433
21
0.0474027559055118
0
LINE
8
BLACK
6
CONTINUOUS
10
0.2694617716535433
20
0.0474027559055118
11
0.2662686220472441
21
0.0495363385826772
0
LINE
8
BLACK
6
CONTINUOUS
10
0.2662686220472441
20
0.0495363385826772
11
0.2641350393700788
21
0.0527294881889764
0
LINE
8
BLACK
6
CONTINUOUS
10
0.2641350393700788
20
0.0527294881889764
11
0.2633858267716536
21
0.056496062992126
0
LINE
8
BLACK
6
CONTINUOUS
10
0.2633858267716536
20
0.056496062992126
11
0.2633858267716536
21
0.0771653543307087
0
LINE
8
BLACK
6
CONTINUOUS
10
0.2633858267716536
20
0.0771653543307087
11
0.2641350393700788
21
0.0809319291338583
0
LINE
8
BLACK
6
CONTINUOUS
10
0.2641350393700788
20
0.0809319291338583
11
0.2662686220472441
21
0.0841250787401575
0
LINE
8
BLACK
6
CONTINUOUS
10
0.2662686220472441
20
0.0841250787401575
11
0.2694617716535433
21
0.0862586614173228
0
LINE
8
BLACK
6
CONTINUOUS
10
0.2694617716535433
20
0.0862586614173228
11
0.2732283464566929
21
0.087007874015748
0
LINE
8
BLACK
6
CONTINUOUS
10
0.2732283464566929
20
0.087007874015748
11
0.3086614173228346
21
0.087007874015748
0
LINE
8
BLACK
6
CONTINUOUS
10
0.3086614173228346
20
0.087007874015748
11
0.3124279921259843
21
0.0862586614173228
0
LINE
8
BLACK
6
CONTINUOUS
10
0.3124279921259843
20
0.1581090551181102
11
0.3156211417322835
21
0.1559754724409449
0
LINE
8
BLACK
6
CONTINUOUS
10
0.3156211417322835
20
0.1559754724409449
11
0.3177547244094488
21
0.1527823228346457
0
LINE
8
BLACK
6
CONTINUOUS
10
0.3177547244094488
20
0.1527823228346457
11
0.318503937007874
21
0.1490157480314961
0
LINE
8
BLACK
6
CONTINUOUS
10
0.318503937007874
20
0.1490157480314961
11
0.318503937007874
21
0.1283464566929134
0
LINE
8
BLACK
6
CONTINUOUS
10
0.318503937007874
20
0.1283464566929134
11
0.3177547244094488
21
0.1245798818897638
0
LINE
8
BLACK
6
CONTINUOUS
10
0.3177547244094488
20
0.1245798818897638
11
0.3156211417322835
21
0.1213867322834646
0
LINE
8
BLACK
6
CONTINUOUS
10
0.3156211417322835
20
0.1213867322834646
11
0.3124279921259843
21
0.1192531496062992
0
LINE
8
BLACK
6
CONTINUOUS
10
0.3124279921259843
20
0.1192531496062992
11
0.3086614173228346
21
0.118503937007874
0
LINE
8
BLACK
6
CONTINUOUS
10
0.3086614173228346
20
0.118503937007874
11
0.2732283464566929
21
0.118503937007874
0
LINE
8
BLACK
6
CONTINUOUS
10
0.2732283464566929
20
0.118503937007874
11
0.2694617716535433
21
0.1192531496062992
0
LINE
8
BLACK
6
CONTINUOUS
10
0.2694617716535433
20
0.1192531496062992
11
0.2662686220472441
21
0.1213867322834646
0
LINE
8
BLACK
6
CONTINUOUS
10
0.2662686220472441
20
0.1213867322834646
11
0.2641350393700788
21
0.1245798818897638
0
LINE
8
BLACK
6
CONTINUOUS
10
0.2641350393700788
20
0.1245798818897638
11
0.2633858267716536
21
0.1283464566929134
0
LINE
8
BLACK
6
CONTINUOUS
10
0.2633858267716536
20
0.1283464566929134
11
0.2633858267716536
21
0.1490157480314961
0
LINE
8
BLACK
6
CONTINUOUS
10
0.2633858267716536
20
0.1490157480314961
11
0.2641350393700788
21
0.1527823228346457
0
LINE
8
BLACK
6
CONTINUOUS
10
0.2641350393700788
20
0.1527823228346457
11
0.2662686220472441
21
0.1559754724409449
0
LINE
8
BLACK
6
CONTINUOUS
10
0.2662686220472441
20
0.1559754724409449
11
0.2694617716535433
21
0.1581090551181102
0
LINE
8
BLACK
6
CONTINUOUS
10
0.2694617716535433
20
0.1581090551181102
11
0.2732283464566929
21
0.1588582677165354
0
LINE
8
BLACK
6
CONTINUOUS
10
0.2732283464566929
20
0.1588582677165354
11
0.3086614173228346
21
0.1588582677165354
0
LINE
8
BLACK
6
CONTINUOUS
10
0.3086614173228346
20
0.1588582677165354
11
0.3124279921259843
21
0.1581090551181102
0
LINE
8
BLACK
6
CONTINUOUS
10
-0.0517452362204724
20
0.2059437007874016
11
-0.0485520866141732
21
0.2038101181102362
0
LINE
8
BLACK
6
CONTINUOUS
10
-0.0485520866141732
20
0.2038101181102362
11
-0.0464185039370079
21
0.200616968503937
0
LINE
8
BLACK
6
CONTINUOUS
10
-0.0464185039370079
20
0.200616968503937
11
-0.0456692913385827
21
0.1968503937007874
0
LINE
8
BLACK
6
CONTINUOUS
10
-0.0456692913385827
20
0.1968503937007874
11
-0.0456692913385827
21
0.1614173228346457
0
LINE
8
BLACK
6
CONTINUOUS
10
-0.0456692913385827
20
0.1614173228346457
11
-0.0464185039370079
21
0.1576507480314961
0
LINE
8
BLACK
6
CONTINUOUS
10
-0.0464185039370079
20
0.1576507480314961
11
-0.0485520866141732
21
0.1544575984251969
0
LINE
8
BLACK
6
CONTINUOUS
10
-0.0485520866141732
20
0.1544575984251969
11
-0.0517452362204724
21
0.1523240157480315
0
LINE
8
BLACK
6
CONTINUOUS
10
-0.0517452362204724
20
0.1523240157480315
11
-0.055511811023622
21
0.1515748031496063
0
LINE
8
BLACK
6
CONTINUOUS
10
-0.055511811023622
20
0.1515748031496063
11
-0.0761811023622047
21
0.1515748031496063
0
LINE
8
BLACK
6
CONTINUOUS
10
-0.0761811023622047
20
0.1515748031496063
11
-0.0799476771653543
21
0.1523240157480315
0
LINE
8
BLACK
6
CONTINUOUS
10
-0.0799476771653543
20
0.1523240157480315
11
-0.0831408267716535
21
0.1544575984251969
0
LINE
8
BLACK
6
CONTINUOUS
10
-0.0831408267716535
20
0.1544575984251969
11
-0.0852744094488189
21
0.1576507480314961
0
LINE
8
BLACK
6
CONTINUOUS
10
-0.0852744094488189
20
0.1576507480314961
11
-0.0860236220472441
21
0.1614173228346457
0
LINE
8
BLACK
6
CONTINUOUS
10
-0.0860236220472441
20
0.1614173228346457
11
-0.0860236220472441
21
0.1968503937007874
0
LINE
8
BLACK
6
CONTINUOUS
10
-0.0860236220472441
20
0.1968503937007874
11
-0.0852744094488189
21
0.200616968503937
0
LINE
8
BLACK
6
CONTINUOUS
10
-0.0852744094488189
20
0.200616968503937
11
-0.0831408267716535
21
0.2038101181102362
0
LINE
8
BLACK
6
CONTINUOUS
10
-0.0831408267716535
20
0.2038101181102362
11
-0.0799476771653543
21
0.2059437007874016
0
LINE
8
BLACK
6
CONTINUOUS
10
-0.0799476771653543
20
0.2059437007874016
11
-0.0761811023622047
21
0.2066929133858268
0
LINE
8
BLACK
6
CONTINUOUS
10
-0.0761811023622047
20
0.2066929133858268
11
-0.055511811023622
21
0.2066929133858268
0
LINE
8
BLACK
6
CONTINUOUS
10
-0.055511811023622
20
0.2066929133858268
11
-0.0517452362204724
21
0.2059437007874016
0
LINE
8
BLACK
6
CONTINUOUS
10
0.020105157480315
20
0.2059437007874016
11
0.0232983070866142
21
0.2038101181102362
0
LINE
8
BLACK
6
CONTINUOUS
10
0.0232983070866142
20
0.2038101181102362
11
0.0254318897637795
21
0.200616968503937
0
LINE
8
BLACK
6
CONTINUOUS
10
0.0254318897637795
20
0.200616968503937
11
0.0261811023622047
21
0.1968503937007874
0
LINE
8
BLACK
6
CONTINUOUS
10
0.0261811023622047
20
0.1968503937007874
11
0.0261811023622047
21
0.1614173228346457
0
LINE
8
BLACK
6
CONTINUOUS
10
0.0261811023622047
20
0.1614173228346457
11
0.0254318897637795
21
0.1576507480314961
0
LINE
8
BLACK
6
CONTINUOUS
10
0.0254318897637795
20
0.1576507480314961
11
0.0232983070866142
21
0.1544575984251969
0
LINE
8
BLACK
6
CONTINUOUS
10
0.0232983070866142
20
0.1544575984251969
11
0.020105157480315
21
0.1523240157480315
0
LINE
8
BLACK
6
CONTINUOUS
10
0.020105157480315
20
0.1523240157480315
11
0.0163385826771654
21
0.1515748031496063
0
LINE
8
BLACK
6
CONTINUOUS
10
0.0163385826771654
20
0.1515748031496063
11
-0.0043307086614173
21
0.1515748031496063
0
LINE
8
BLACK
6
CONTINUOUS
10
-0.0043307086614173
20
0.1515748031496063
11
-0.0080972834645669
21
0.1523240157480315
0
LINE
8
BLACK
6
CONTINUOUS
10
-0.0080972834645669
20
0.1523240157480315
11
-0.0112904330708661
21
0.1544575984251969
0
LINE
8
BLACK
6
CONTINUOUS
10
-0.0112904330708661
20
0.1544575984251969
11
-0.0134240157480315
21
0.1576507480314961
0
LINE
8
BLACK
6
CONTINUOUS
10
-0.0134240157480315
20
0.1576507480314961
11
-0.0141732283464567
21
0.1614173228346457
0
LINE
8
BLACK
6
CONTINUOUS
10
-0.0141732283464567
20
0.1614173228346457
11
-0.0141732283464567
21
0.1968503937007874
0
LINE
8
BLACK
6
CONTINUOUS
10
-0.0141732283464567
20
0.1968503937007874
11
-0.0134240157480315
21
0.200616968503937
0
LINE
8
BLACK
6
CONTINUOUS
10
-0.0134240157480315
20
0.200616968503937
11
-0.0112904330708661
21
0.2038101181102362
0
LINE
8
BLACK
6
CONTINUOUS
10
-0.0112904330708661
20
0.2038101181102362
11
-0.0080972834645669
21
0.2059437007874016
0
LINE
8
BLACK
6
CONTINUOUS
10
-0.0080972834645669
20
0.2059437007874016
11
-0.0043307086614173
21
0.2066929133858268
0
LINE
8
BLACK
6
CONTINUOUS
10
-0.0043307086614173
20
0.2066929133858268
11
0.0163385826771654
21
0.2066929133858268
0
LINE
8
BLACK
6
CONTINUOUS
10
0.0163385826771654
20
0.2066929133858268
11
0.020105157480315
21
0.2059437007874016
0
LINE
8
BLACK
6
CONTINUOUS
10
-0.3995798818897638
20
0.2232665354330709
11
-0.3963867322834645
21
0.2211329527559055
0
LINE
8
BLACK
6
CONTINUOUS
10
-0.3963867322834645
20
0.2211329527559055
11
-0.3942531496062992
21
0.2179398031496063
0
LINE
8
BLACK
6
CONTINUOUS
10
-0.3942531496062992
20
0.2179398031496063
11
-0.393503937007874
21
0.2141732283464567
0
LINE
8
BLACK
6
CONTINUOUS
10
-0.393503937007874
20
0.2141732283464567
11
-0.393503937007874
21
0.194488188976378
0
LINE
8
BLACK
6
CONTINUOUS
10
-0.393503937007874
20
0.194488188976378
11
-0.3942531496062992
21
0.1907216141732283
0
LINE
8
BLACK
6
CONTINUOUS
10
-0.3942531496062992
20
0.1907216141732283
11
-0.3963867322834645
21
0.1875284645669291
0
LINE
8
BLACK
6
CONTINUOUS
10
-0.3963867322834645
20
0.1875284645669291
11
-0.3995798818897638
21
0.1853948818897638
0
LINE
8
BLACK
6
CONTINUOUS
10
-0.3995798818897638
20
0.1853948818897638
11
-0.4033464566929134
21
0.1846456692913386
0
LINE
8
BLACK
6
CONTINUOUS
10
-0.4033464566929134
20
0.1846456692913386
11
-0.440748031496063
21
0.1846456692913386
0
LINE
8
BLACK
6
CONTINUOUS
10
-0.440748031496063
20
0.1846456692913386
11
-0.4445146062992126
21
0.1853948818897638
0
LINE
8
BLACK
6
CONTINUOUS
10
-0.4445146062992126
20
0.1853948818897638
11
-0.4477077559055118
21
0.1875284645669291
0
LINE
8
BLACK
6
CONTINUOUS
10
-0.4477077559055118
20
0.1875284645669291
11
-0.4498413385826772
21
0.1907216141732283
0
LINE
8
BLACK
6
CONTINUOUS
10
-0.4498413385826772
20
0.1907216141732283
11
-0.4505905511811024
21
0.194488188976378
0
LINE
8
BLACK
6
CONTINUOUS
10
-0.4505905511811024
20
0.194488188976378
11
-0.4505905511811024
21
0.2141732283464567
0
LINE
8
BLACK
6
CONTINUOUS
10
-0.4505905511811024
20
0.2141732283464567
11
-0.4498413385826772
21
0.2179398031496063
0
LINE
8
BLACK
6
CONTINUOUS
10
-0.4498413385826772
20
0.2179398031496063
11
-0.4477077559055118
21
0.2211329527559055
0
LINE
8
BLACK
6
CONTINUOUS
10
-0.4477077559055118
20
0.2211329527559055
11
-0.4445146062992126
21
0.2232665354330709
0
LINE
8
BLACK
6
CONTINUOUS
10
-0.4445146062992126
20
0.2232665354330709
11
-0.440748031496063
21
0.2240157480314961
0
LINE
8
BLACK
6
CONTINUOUS
10
-0.440748031496063
20
0.2240157480314961
11
-0.4033464566929134
21
0.2240157480314961
0
LINE
8
BLACK
6
CONTINUOUS
10
-0.4033464566929134
20
0.2240157480314961
11
-0.3995798818897638
21
0.2232665354330709
0
LINE
8
BLACK
6
CONTINUOUS
10
-0.321627125984252
20
0.2232665354330709
11
-0.3184339763779527
21
0.2211329527559055
0
LINE
8
BLACK
6
CONTINUOUS
10
-0.3184339763779527
20
0.2211329527559055
11
-0.3163003937007874
21
0.2179398031496063
0
LINE
8
BLACK
6
CONTINUOUS
10
-0.3163003937007874
20
0.2179398031496063
11
-0.3155511811023622
21
0.2141732283464567
0
LINE
8
BLACK
6
CONTINUOUS
10
-0.3155511811023622
20
0.2141732283464567
11
-0.3155511811023622
21
0.194488188976378
0
LINE
8
BLACK
6
CONTINUOUS
10
-0.3155511811023622
20
0.194488188976378
11
-0.3163003937007874
21
0.1907216141732283
0
LINE
8
BLACK
6
CONTINUOUS
10
-0.3163003937007874
20
0.1907216141732283
11
-0.3184339763779527
21
0.1875284645669291
0
LINE
8
BLACK
6
CONTINUOUS
10
-0.3184339763779527
20
0.1875284645669291
11
-0.321627125984252
21
0.1853948818897638
0
LINE
8
BLACK
6
CONTINUOUS
10
-0.321627125984252
20
0.1853948818897638
11
-0.3253937007874015
21
0.1846456692913386
0
LINE
8
BLACK
6
CONTINUOUS
10
-0.3253937007874015
20
0.1846456692913386
11
-0.3627952755905512
21
0.1846456692913386
0
LINE
8
BLACK
6
CONTINUOUS
10
-0.3627952755905512
20
0.1846456692913386
11
-0.3665618503937008
21
0.1853948818897638
0
LINE
8
BLACK
6
CONTINUOUS
10
-0.3665618503937008
20
0.1853948818897638
11
-0.369755
21
0.1875284645669291
0
LINE
8
BLACK
6
CONTINUOUS
10
-0.369755
20
0.1875284645669291
11
-0.3718885826771653
21
0.1907216141732283
0
LINE
8
BLACK
6
CONTINUOUS
10
-0.3718885826771653
20
0.1907216141732283
11
-0.3726377952755905
21
0.194488188976378
0
LINE
8
BLACK
6
CONTINUOUS
10
-0.3726377952755905
20
0.194488188976378
11
-0.3726377952755905
21
0.2141732283464567
0
LINE
8
BLACK
6
CONTINUOUS
10
-0.3726377952755905
20
0.2141732283464567
11
-0.3718885826771653
21
0.2179398031496063
0
LINE
8
BLACK
6
CONTINUOUS
10
-0.3718885826771653
20
0.2179398031496063
11
-0.369755
21
0.2211329527559055
0
LINE
8
BLACK
6
CONTINUOUS
10
-0.369755
20
0.2211329527559055
11
-0.3665618503937008
21
0.2232665354330709
0
LINE
8
BLACK
6
CONTINUOUS
10
-0.3665618503937008
20
0.2232665354330709
11
-0.3627952755905512
21
0.2240157480314961
0
LINE
8
BLACK
6
CONTINUOUS
10
-0.3627952755905512
20
0.2240157480314961
11
-0.3253937007874015
21
0.2240157480314961
0
LINE
8
BLACK
6
CONTINUOUS
10
-0.3253937007874015
20
0.2240157480314961
11
-0.321627125984252
21
0.2232665354330709
0
LINE
8
BLACK
6
CONTINUOUS
10
0.1464831102362205
20
0.2232665354330709
11
0.1496762598425197
21
0.2211329527559055
0
LINE
8
BLACK
6
CONTINUOUS
10
0.1496762598425197
20
0.2211329527559055
11
0.151809842519685
21
0.2179398031496063
0
LINE
8
BLACK
6
CONTINUOUS
10
0.151809842519685
20
0.2179398031496063
11
0.1525590551181102
21
0.2141732283464567
0
LINE
8
BLACK
6
CONTINUOUS
10
0.1525590551181102
20
0.2141732283464567
11
0.1525590551181102
21
0.194488188976378
0
LINE
8
BLACK
6
CONTINUOUS
10
0.1525590551181102
20
0.194488188976378
11
0.151809842519685
21
0.1907216141732283
0
LINE
8
BLACK
6
CONTINUOUS
10
0.151809842519685
20
0.1907216141732283
11
0.1496762598425197
21
0.1875284645669291
0
LINE
8
BLACK
6
CONTINUOUS
10
0.1496762598425197
20
0.1875284645669291
11
0.1464831102362205
21
0.1853948818897638
0
LINE
8
BLACK
6
CONTINUOUS
10
0.1464831102362205
20
0.1853948818897638
11
0.1427165354330709
21
0.1846456692913386
0
LINE
8
BLACK
6
CONTINUOUS
10
0.1427165354330709
20
0.1846456692913386
11
0.1053149606299213
21
0.1846456692913386
0
LINE
8
BLACK
6
CONTINUOUS
10
0.1053149606299213
20
0.1846456692913386
11
0.1015483858267717
21
0.1853948818897638
0
LINE
8
BLACK
6
CONTINUOUS
10
0.1015483858267717
20
0.1853948818897638
11
0.0983552362204724
21
0.1875284645669291
0
LINE
8
BLACK
6
CONTINUOUS
10
0.0983552362204724
20
0.1875284645669291
11
0.0962216535433071
21
0.1907216141732283
0
LINE
8
BLACK
6
CONTINUOUS
10
0.0962216535433071
20
0.1907216141732283
11
0.0954724409448819
21
0.194488188976378
0
LINE
8
BLACK
6
CONTINUOUS
10
0.0954724409448819
20
0.194488188976378
11
0.0954724409448819
21
0.2141732283464567
0
LINE
8
BLACK
6
CONTINUOUS
10
0.0954724409448819
20
0.2141732283464567
11
0.0962216535433071
21
0.2179398031496063
0
LINE
8
BLACK
6
CONTINUOUS
10
0.0962216535433071
20
0.2179398031496063
11
0.0983552362204724
21
0.2211329527559055
0
LINE
8
BLACK
6
CONTINUOUS
10
0.0983552362204724
20
0.2211329527559055
11
0.1015483858267717
21
0.2232665354330709
0
LINE
8
BLACK
6
CONTINUOUS
10
0.1015483858267717
20
0.2232665354330709
11
0.1053149606299213
21
0.2240157480314961
0
LINE
8
BLACK
6
CONTINUOUS
10
0.1053149606299213
20
0.2240157480314961
11
0.1427165354330709
21
0.2240157480314961
0
LINE
8
BLACK
6
CONTINUOUS
10
0.1427165354330709
20
0.2240157480314961
11
0.1464831102362205
21
0.2232665354330709
0
LINE
8
BLACK
6
CONTINUOUS
10
0.2267980708661417
20
0.2232665354330709
11
0.2299912204724409
21
0.2211329527559055
0
LINE
8
BLACK
6
CONTINUOUS
10
0.2299912204724409
20
0.2211329527559055
11
0.2321248031496063
21
0.2179398031496063
0
LINE
8
BLACK
6
CONTINUOUS
10
0.2321248031496063
20
0.2179398031496063
11
0.2328740157480315
21
0.2141732283464567
0
LINE
8
BLACK
6
CONTINUOUS
10
0.2328740157480315
20
0.2141732283464567
11
0.2328740157480315
21
0.194488188976378
0
LINE
8
BLACK
6
CONTINUOUS
10
0.2328740157480315
20
0.194488188976378
11
0.2321248031496063
21
0.1907216141732283
0
LINE
8
BLACK
6
CONTINUOUS
10
0.2321248031496063
20
0.1907216141732283
11
0.2299912204724409
21
0.1875284645669291
0
LINE
8
BLACK
6
CONTINUOUS
10
0.2299912204724409
20
0.1875284645669291
11
0.2267980708661417
21
0.1853948818897638
0
LINE
8
BLACK
6
CONTINUOUS
10
0.2267980708661417
20
0.1853948818897638
11
0.2230314960629921
21
0.1846456692913386
0
LINE
8
BLACK
6
CONTINUOUS
10
0.2230314960629921
20
0.1846456692913386
11
0.1856299212598425
21
0.1846456692913386
0
LINE
8
BLACK
6
CONTINUOUS
10
0.1856299212598425
20
0.1846456692913386
11
0.1818633464566929
21
0.1853948818897638
0
LINE
8
BLACK
6
CONTINUOUS
10
0.1818633464566929
20
0.1853948818897638
11
0.1786701968503937
21
0.1875284645669291
0
LINE
8
BLACK
6
CONTINUOUS
10
0.1786701968503937
20
0.1875284645669291
11
0.1765366141732283
21
0.1907216141732283
0
LINE
8
BLACK
6
CONTINUOUS
10
0.1765366141732283
20
0.1907216141732283
11
0.1757874015748032
21
0.194488188976378
0
LINE
8
BLACK
6
CONTINUOUS
10
0.1757874015748032
20
0.194488188976378
11
0.1757874015748032
21
0.2141732283464567
0
LINE
8
BLACK
6
CONTINUOUS
10
0.1757874015748032
20
0.2141732283464567
11
0.1765366141732283
21
0.2179398031496063
0
LINE
8
BLACK
6
CONTINUOUS
10
0.1765366141732283
20
0.2179398031496063
11
0.1786701968503937
21
0.2211329527559055
0
LINE
8
BLACK
6
CONTINUOUS
10
0.1786701968503937
20
0.2211329527559055
11
0.1818633464566929
21
0.2232665354330709
0
LINE
8
BLACK
6
CONTINUOUS
10
0.1818633464566929
20
0.2232665354330709
11
0.1856299212598425
21
0.2240157480314961
0
LINE
8
BLACK
6
CONTINUOUS
10
0.1856299212598425
20
0.2240157480314961
11
0.2230314960629921
21
0.2240157480314961
0
LINE
8
BLACK
6
CONTINUOUS
10
0.2230314960629921
20
0.2240157480314961
11
0.2267980708661417
21
0.2232665354330709
0
LINE
8
BLACK
6
CONTINUOUS
10
0.3138059448818897
20
0.2232665354330709
11
0.316999094488189
21
0.2211329527559055
0
LINE
8
BLACK
6
CONTINUOUS
10
0.316999094488189
20
0.2211329527559055
11
0.3191326771653543
21
0.2179398031496063
0
LINE
8
BLACK
6
CONTINUOUS
10
0.3191326771653543
20
0.2179398031496063
11
0.3198818897637795
21
0.2141732283464567
0
LINE
8
BLACK
6
CONTINUOUS
10
0.3198818897637795
20
0.2141732283464567
11
0.3198818897637795
21
0.194488188976378
0
LINE
8
BLACK
6
CONTINUOUS
10
0.3198818897637795
20
0.194488188976378
11
0.3191326771653543
21
0.1907216141732283
0
LINE
8
BLACK
6
CONTINUOUS
10
0.3191326771653543
20
0.1907216141732283
11
0.316999094488189
21
0.1875284645669291
0
LINE
8
BLACK
6
CONTINUOUS
10
0.316999094488189
20
0.1875284645669291
11
0.3138059448818897
21
0.1853948818897638
0
LINE
8
BLACK
6
CONTINUOUS
10
0.3138059448818897
20
0.1853948818897638
11
0.3100393700787402
21
0.1846456692913386
0
LINE
8
BLACK
6
CONTINUOUS
10
0.3100393700787402
20
0.1846456692913386
11
0.2726377952755906
21
0.1846456692913386
0
LINE
8
BLACK
6
CONTINUOUS
10
0.2726377952755906
20
0.1846456692913386
11
0.2688712204724409
21
0.1853948818897638
0
LINE
8
BLACK
6
CONTINUOUS
10
0.2688712204724409
20
0.1853948818897638
11
0.2656780708661417
21
0.1875284645669291
0
LINE
8
BLACK
6
CONTINUOUS
10
0.2656780708661417
20
0.1875284645669291
11
0.2635444881889764
21
0.1907216141732283
0
LINE
8
BLACK
6
CONTINUOUS
10
0.2635444881889764
20
0.1907216141732283
11
0.2627952755905512
21
0.194488188976378
0
LINE
8
BLACK
6
CONTINUOUS
10
0.2627952755905512
20
0.194488188976378
11
0.2627952755905512
21
0.2141732283464567
0
LINE
8
BLACK
6
CONTINUOUS
10
0.2627952755905512
20
0.2141732283464567
11
0.2635444881889764
21
0.2179398031496063
0
LINE
8
BLACK
6
CONTINUOUS
10
0.2635444881889764
20
0.2179398031496063
11
0.2656780708661417
21
0.2211329527559055
0
LINE
8
BLACK
6
CONTINUOUS
10
0.2656780708661417
20
0.2211329527559055
11
0.2688712204724409
21
0.2232665354330709
0
LINE
8
BLACK
6
CONTINUOUS
10
0.2688712204724409
20
0.2232665354330709
11
0.2726377952755906
21
0.2240157480314961
0
LINE
8
BLACK
6
CONTINUOUS
10
0.2726377952755906
20
0.2240157480314961
11
0.3100393700787402
21
0.2240157480314961
0
LINE
8
BLACK
6
CONTINUOUS
10
0.3100393700787402
20
0.2240157480314961
11
0.3138059448818897
21
0.2232665354330709
0
LINE
8
BLACK
6
CONTINUOUS
10
0.391365
20
0.2232665354330709
11
0.3945581496062992
21
0.2211329527559055
0
LINE
8
BLACK
6
CONTINUOUS
10
0.3945581496062992
20
0.2211329527559055
11
0.3966917322834645
21
0.2179398031496063
0
LINE
8
BLACK
6
CONTINUOUS
10
0.3966917322834645
20
0.2179398031496063
11
0.3974409448818897
21
0.2141732283464567
0
LINE
8
BLACK
6
CONTINUOUS
10
0.3974409448818897
20
0.2141732283464567
11
0.3974409448818897
21
0.194488188976378
0
LINE
8
BLACK
6
CONTINUOUS
10
0.3974409448818897
20
0.194488188976378
11
0.3966917322834645
21
0.1907216141732283
0
LINE
8
BLACK
6
CONTINUOUS
10
0.3966917322834645
20
0.1907216141732283
11
0.3945581496062992
21
0.1875284645669291
0
LINE
8
BLACK
6
CONTINUOUS
10
0.3945581496062992
20
0.1875284645669291
11
0.391365
21
0.1853948818897638
0
LINE
8
BLACK
6
CONTINUOUS
10
0.391365
20
0.1853948818897638
11
0.3875984251968504
21
0.1846456692913386
0
LINE
8
BLACK
6
CONTINUOUS
10
0.3875984251968504
20
0.1846456692913386
11
0.3501968503937008
21
0.1846456692913386
0
LINE
8
BLACK
6
CONTINUOUS
10
0.3501968503937008
20
0.1846456692913386
11
0.3464302755905512
21
0.1853948818897638
0
LINE
8
BLACK
6
CONTINUOUS
10
0.3464302755905512
20
0.1853948818897638
11
0.3432371259842519
21
0.1875284645669291
0
LINE
8
BLACK
6
CONTINUOUS
10
0.3432371259842519
20
0.1875284645669291
11
0.3411035433070866
21
0.1907216141732283
0
LINE
8
BLACK
6
CONTINUOUS
10
0.3411035433070866
20
0.1907216141732283
11
0.3403543307086614
21
0.194488188976378
0
LINE
8
BLACK
6
CONTINUOUS
10
0.3403543307086614
20
0.194488188976378
11
0.3403543307086614
21
0.2141732283464567
0
LINE
8
BLACK
6
CONTINUOUS
10
0.3403543307086614
20
0.2141732283464567
11
0.3411035433070866
21
0.2179398031496063
0
LINE
8
BLACK
6
CONTINUOUS
10
0.3411035433070866
20
0.2179398031496063
11
0.3432371259842519
21
0.2211329527559055
0
LINE
8
BLACK
6
CONTINUOUS
10
0.3432371259842519
20
0.2211329527559055
11
0.3464302755905512
21
0.2232665354330709
0
LINE
8
BLACK
6
CONTINUOUS
10
0.3464302755905512
20
0.2232665354330709
11
0.3501968503937008
21
0.2240157480314961
0
LINE
8
BLACK
6
CONTINUOUS
10
0.3501968503937008
20
0.2240157480314961
11
0.3875984251968504
21
0.2240157480314961
0
LINE
8
BLACK
6
CONTINUOUS
10
0.3875984251968504
20
0.2240157480314961
11
0.391365
21
0.2232665354330709
0
LINE
8
BLACK
6
CONTINUOUS
10
0.4854594881889764
20
0.2232665354330709
11
0.4886526377952756
21
0.2211329527559055
0
LINE
8
BLACK
6
CONTINUOUS
10
0.4886526377952756
20
0.2211329527559055
11
0.4907862204724409
21
0.2179398031496063
0
LINE
8
BLACK
6
CONTINUOUS
10
0.4907862204724409
20
0.2179398031496063
11
0.4915354330708661
21
0.2141732283464567
0
LINE
8
BLACK
6
CONTINUOUS
10
0.4915354330708661
20
0.2141732283464567
11
0.4915354330708661
21
0.194488188976378
0
LINE
8
BLACK
6
CONTINUOUS
10
0.4915354330708661
20
0.194488188976378
11
0.4907862204724409
21
0.1907216141732283
0
LINE
8
BLACK
6
CONTINUOUS
10
0.4907862204724409
20
0.1907216141732283
11
0.4886526377952756
21
0.1875284645669291
0
LINE
8
BLACK
6
CONTINUOUS
10
0.4886526377952756
20
0.1875284645669291
11
0.4854594881889764
21
0.1853948818897638
0
LINE
8
BLACK
6
CONTINUOUS
10
0.4854594881889764
20
0.1853948818897638
11
0.4816929133858268
21
0.1846456692913386
0
LINE
8
BLACK
6
CONTINUOUS
10
0.4816929133858268
20
0.1846456692913386
11
0.4442913385826772
21
0.1846456692913386
0
LINE
8
BLACK
6
CONTINUOUS
10
0.4442913385826772
20
0.1846456692913386
11
0.4405247637795275
21
0.1853948818897638
0
LINE
8
BLACK
6
CONTINUOUS
10
0.4405247637795275
20
0.1853948818897638
11
0.4373316141732284
21
0.1875284645669291
0
LINE
8
BLACK
6
CONTINUOUS
10
0.4373316141732284
20
0.1875284645669291
11
0.435198031496063
21
0.1907216141732283
0
LINE
8
BLACK
6
CONTINUOUS
10
0.435198031496063
20
0.1907216141732283
11
0.4344488188976378
21
0.194488188976378
0
LINE
8
BLACK
6
CONTINUOUS
10
0.4344488188976378
20
0.194488188976378
11
0.4344488188976378
21
0.2141732283464567
0
LINE
8
BLACK
6
CONTINUOUS
10
0.4344488188976378
20
0.2141732283464567
11
0.435198031496063
21
0.2179398031496063
0
LINE
8
BLACK
6
CONTINUOUS
10
0.435198031496063
20
0.2179398031496063
11
0.4373316141732284
21
0.2211329527559055
0
LINE
8
BLACK
6
CONTINUOUS
10
0.4373316141732284
20
0.2211329527559055
11
0.4405247637795275
21
0.2232665354330709
0
LINE
8
BLACK
6
CONTINUOUS
10
0.4405247637795275
20
0.2232665354330709
11
0.4442913385826772
21
0.2240157480314961
0
LINE
8
BLACK
6
CONTINUOUS
10
0.4442913385826772
20
0.2240157480314961
11
0.4816929133858268
21
0.2240157480314961
0
LINE
8
BLACK
6
CONTINUOUS
10
0.4816929133858268
20
0.2240157480314961
11
0.4854594881889764
21
0.2232665354330709
0
LINE
8
BLACK
6
CONTINUOUS
10
0.5639043700787402
20
0.2252350393700787
11
0.5670975196850394
21
0.2231014566929134
0
LINE
8
BLACK
6
CONTINUOUS
10
0.5670975196850394
20
0.2231014566929134
11
0.5692311023622048
21
0.2199083070866142
0
LINE
8
BLACK
6
CONTINUOUS
10
0.5692311023622048
20
0.2199083070866142
11
0.56998031496063
21
0.2161417322834646
0
LINE
8
BLACK
6
CONTINUOUS
10
0.56998031496063
20
0.2161417322834646
11
0.56998031496063
21
0.1954724409448819
0
LINE
8
BLACK
6
CONTINUOUS
10
0.56998031496063
20
0.1954724409448819
11
0.5692311023622048
21
0.1917058661417323
0
LINE
8
BLACK
6
CONTINUOUS
10
0.5692311023622048
20
0.1917058661417323
11
0.5670975196850394
21
0.1885127165354331
0
LINE
8
BLACK
6
CONTINUOUS
10
0.5670975196850394
20
0.1885127165354331
11
0.5639043700787402
21
0.1863791338582677
0
LINE
8
BLACK
6
CONTINUOUS
10
0.5639043700787402
20
0.1863791338582677
11
0.5601377952755905
21
0.1856299212598425
0
LINE
8
BLACK
6
CONTINUOUS
10
0.5601377952755905
20
0.1856299212598425
11
0.5247047244094488
21
0.1856299212598425
0
LINE
8
BLACK
6
CONTINUOUS
10
0.5247047244094488
20
0.1856299212598425
11
0.5209381496062993
21
0.1863791338582677
0
LINE
8
BLACK
6
CONTINUOUS
10
0.5209381496062993
20
0.1863791338582677
11
0.517745
21
0.1885127165354331
0
LINE
8
BLACK
6
CONTINUOUS
10
0.517745
20
0.1885127165354331
11
0.5156114173228347
21
0.1917058661417323
0
LINE
8
BLACK
6
CONTINUOUS
10
0.5156114173228347
20
0.1917058661417323
11
0.5148622047244095
21
0.1954724409448819
0
LINE
8
BLACK
6
CONTINUOUS
10
0.5148622047244095
20
0.1954724409448819
11
0.5148622047244095
21
0.2161417322834646
0
LINE
8
BLACK
6
CONTINUOUS
10
0.5148622047244095
20
0.2161417322834646
11
0.5156114173228347
21
0.2199083070866142
0
LINE
8
BLACK
6
CONTINUOUS
10
0.5156114173228347
20
0.2199083070866142
11
0.517745
21
0.2231014566929134
0
LINE
8
BLACK
6
CONTINUOUS
10
0.517745
20
0.2231014566929134
11
0.5209381496062993
21
0.2252350393700787
0
LINE
8
BLACK
6
CONTINUOUS
10
0.5209381496062993
20
0.2252350393700787
11
0.5247047244094488
21
0.2259842519685039
0
LINE
8
BLACK
6
CONTINUOUS
10
0.5247047244094488
20
0.2259842519685039
11
0.5601377952755905
21
0.2259842519685039
0
LINE
8
BLACK
6
CONTINUOUS
10
0.5601377952755905
20
0.2259842519685039
11
0.5639043700787402
21
0.2252350393700787
0
LINE
8
BLACK
6
CONTINUOUS
10
-0.2462334251968504
20
0.2256287401574803
11
-0.2430402755905512
21
0.223495157480315
0
LINE
8
BLACK
6
CONTINUOUS
10
-0.2430402755905512
20
0.223495157480315
11
-0.2409066929133858
21
0.2203020078740157
0
LINE
8
BLACK
6
CONTINUOUS
10
-0.2409066929133858
20
0.2203020078740157
11
-0.2401574803149606
21
0.2165354330708661
0
LINE
8
BLACK
6
CONTINUOUS
10
-0.2401574803149606
20
0.2165354330708661
11
-0.2401574803149606
21
0.1958661417322834
0
LINE
8
BLACK
6
CONTINUOUS
10
-0.2401574803149606
20
0.1958661417322834
11
-0.2409066929133858
21
0.1920995669291339
0
LINE
8
BLACK
6
CONTINUOUS
10
-0.2409066929133858
20
0.1920995669291339
11
-0.2430402755905512
21
0.1889064173228346
0
LINE
8
BLACK
6
CONTINUOUS
10
-0.2430402755905512
20
0.1889064173228346
11
-0.2462334251968504
21
0.1867728346456693
0
LINE
8
BLACK
6
CONTINUOUS
10
-0.2462334251968504
20
0.1867728346456693
11
-0.25
21
0.1860236220472441
0
LINE
8
BLACK
6
CONTINUOUS
10
-0.25
20
0.1860236220472441
11
-0.2854330708661417
21
0.1860236220472441
0
LINE
8
BLACK
6
CONTINUOUS
10
-0.2854330708661417
20
0.1860236220472441
11
-0.2891996456692913
21
0.1867728346456693
0
LINE
8
BLACK
6
CONTINUOUS
10
-0.2891996456692913
20
0.1867728346456693
11
-0.2923927952755905
21
0.1889064173228346
0
LINE
8
BLACK
6
CONTINUOUS
10
-0.2923927952755905
20
0.1889064173228346
11
-0.2945263779527559
21
0.1920995669291339
0
LINE
8
BLACK
6
CONTINUOUS
10
-0.2945263779527559
20
0.1920995669291339
11
-0.2952755905511811
21
0.1958661417322834
0
LINE
8
BLACK
6
CONTINUOUS
10
-0.2952755905511811
20
0.1958661417322834
11
-0.2952755905511811
21
0.2165354330708661
0
LINE
8
BLACK
6
CONTINUOUS
10
-0.2952755905511811
20
0.2165354330708661
11
-0.2945263779527559
21
0.2203020078740157
0
LINE
8
BLACK
6
CONTINUOUS
10
-0.2945263779527559
20
0.2203020078740157
11
-0.2923927952755905
21
0.223495157480315
0
LINE
8
BLACK
6
CONTINUOUS
10
-0.2923927952755905
20
0.223495157480315
11
-0.2891996456692913
21
0.2256287401574803
0
LINE
8
BLACK
6
CONTINUOUS
10
-0.2891996456692913
20
0.2256287401574803
11
-0.2854330708661417
21
0.2263779527559055
0
LINE
8
BLACK
6
CONTINUOUS
10
-0.2854330708661417
20
0.2263779527559055
11
-0.25
21
0.2263779527559055
0
LINE
8
BLACK
6
CONTINUOUS
10
-0.25
20
0.2263779527559055
11
-0.2462334251968504
21
0.2256287401574803
0
LINE
8
BLACK
6
CONTINUOUS
10
0.6440759448818898
20
0.2240726771653543
11
0.647189251968504
21
0.2219924015748032
0
LINE
8
BLACK
6
CONTINUOUS
10
0.647189251968504
20
0.2219924015748032
11
0.6492695275590551
21
0.218879094488189
0
LINE
8
BLACK
6
CONTINUOUS
10
0.6492695275590551
20
0.218879094488189
11
0.65
21
0.2152066929133858
0
LINE
8
BLACK
6
CONTINUOUS
10
0.65
20
0.2152066929133858
11
0.65
21
0.1960137795275591
0
LINE
8
BLACK
6
CONTINUOUS
10
0.65
20
0.1960137795275591
11
0.6492695275590551
21
0.1923413779527559
0
LINE
8
BLACK
6
CONTINUOUS
10
0.6492695275590551
20
0.1923413779527559
11
0.647189251968504
21
0.1892280708661417
0
LINE
8
BLACK
6
CONTINUOUS
10
0.647189251968504
20
0.1892280708661417
11
0.6440759448818898
21
0.1871477952755906
0
LINE
8
BLACK
6
CONTINUOUS
10
0.6440759448818898
20
0.1871477952755906
11
0.6404035433070866
21
0.1864173228346457
0
LINE
8
BLACK
6
CONTINUOUS
10
0.6404035433070866
20
0.1864173228346457
11
0.6044783464566928
21
0.1864173228346457
0
LINE
8
BLACK
6
CONTINUOUS
10
0.6044783464566928
20
0.1864173228346457
11
0.6008059448818898
21
0.1871477952755906
0
LINE
8
BLACK
6
CONTINUOUS
10
0.6008059448818898
20
0.1871477952755906
11
0.5976926377952756
21
0.1892280708661417
0
LINE
8
BLACK
6
CONTINUOUS
10
0.5976926377952756
20
0.1892280708661417
11
0.5956123622047244
21
0.1923413779527559
0
LINE
8
BLACK
6
CONTINUOUS
10
0.5956123622047244
20
0.1923413779527559
11
0.5948818897637795
21
0.1960137795275591
0
LINE
8
BLACK
6
CONTINUOUS
10
0.5948818897637795
20
0.1960137795275591
11
0.5948818897637795
21
0.2152066929133858
0
LINE
8
BLACK
6
CONTINUOUS
10
0.5948818897637795
20
0.2152066929133858
11
0.5956123622047244
21
0.218879094488189
0
LINE
8
BLACK
6
CONTINUOUS
10
0.5956123622047244
20
0.218879094488189
11
0.5976926377952756
21
0.2219924015748032
0
LINE
8
BLACK
6
CONTINUOUS
10
0.5976926377952756
20
0.2219924015748032
11
0.6008059448818898
21
0.2240726771653543
0
LINE
8
BLACK
6
CONTINUOUS
10
0.6008059448818898
20
0.2240726771653543
11
0.6044783464566928
21
0.2248031496062992
0
LINE
8
BLACK
6
CONTINUOUS
10
0.6044783464566928
20
0.2248031496062992
11
0.6404035433070866
21
0.2248031496062992
0
LINE
8
BLACK
6
CONTINUOUS
10
0.6404035433070866
20
0.2248031496062992
11
0.6440759448818898
21
0.2240726771653543
0
LINE
8
BLACK
6
CONTINUOUS
10
-0.0513515354330709
20
0.2866523622047244
11
-0.0481583858267716
21
0.2845187795275591
0
LINE
8
BLACK
6
CONTINUOUS
10
-0.0481583858267716
20
0.2845187795275591
11
-0.0460248031496063
21
0.2813256299212598
0
LINE
8
BLACK
6
CONTINUOUS
10
-0.0460248031496063
20
0.2813256299212598
11
-0.0452755905511811
21
0.2775590551181102
0
LINE
8
BLACK
6
CONTINUOUS
10
-0.0452755905511811
20
0.2775590551181102
11
-0.0452755905511811
21
0.2421259842519685
0
LINE
8
BLACK
6
CONTINUOUS
10
-0.0452755905511811
20
0.2421259842519685
11
-0.0460248031496063
21
0.2383594094488189
0
LINE
8
BLACK
6
CONTINUOUS
10
-0.0460248031496063
20
0.2383594094488189
11
-0.0481583858267716
21
0.2351662598425197
0
LINE
8
BLACK
6
CONTINUOUS
10
-0.0481583858267716
20
0.2351662598425197
11
-0.0513515354330709
21
0.2330326771653543
0
LINE
8
BLACK
6
CONTINUOUS
10
-0.0513515354330709
20
0.2330326771653543
11
-0.0551181102362205
21
0.2322834645669291
0
LINE
8
BLACK
6
CONTINUOUS
10
-0.0551181102362205
20
0.2322834645669291
11
-0.0757874015748032
21
0.2322834645669291
0
LINE
8
BLACK
6
CONTINUOUS
10
-0.0757874015748032
20
0.2322834645669291
11
-0.0795539763779528
21
0.2330326771653543
0
LINE
8
BLACK
6
CONTINUOUS
10
-0.0795539763779528
20
0.2330326771653543
11
-0.082747125984252
21
0.2351662598425197
0
LINE
8
BLACK
6
CONTINUOUS
10
-0.082747125984252
20
0.2351662598425197
11
-0.0848807086614173
21
0.2383594094488189
0
LINE
8
BLACK
6
CONTINUOUS
10
-0.0848807086614173
20
0.2383594094488189
11
-0.0856299212598425
21
0.2421259842519685
0
LINE
8
BLACK
6
CONTINUOUS
10
-0.0856299212598425
20
0.2421259842519685
11
-0.0856299212598425
21
0.2775590551181102
0
LINE
8
BLACK
6
CONTINUOUS
10
-0.0856299212598425
20
0.2775590551181102
11
-0.0848807086614173
21
0.2813256299212598
0
LINE
8
BLACK
6
CONTINUOUS
10
-0.0848807086614173
20
0.2813256299212598
11
-0.082747125984252
21
0.2845187795275591
0
LINE
8
BLACK
6
CONTINUOUS
10
-0.082747125984252
20
0.2845187795275591
11
-0.0795539763779528
21
0.2866523622047244
0
LINE
8
BLACK
6
CONTINUOUS
10
-0.0795539763779528
20
0.2866523622047244
11
-0.0757874015748032
21
0.2874015748031496
0
LINE
8
BLACK
6
CONTINUOUS
10
-0.0757874015748032
20
0.2874015748031496
11
-0.0551181102362205
21
0.2874015748031496
0
LINE
8
BLACK
6
CONTINUOUS
10
-0.0551181102362205
20
0.2874015748031496
11
-0.0513515354330709
21
0.2866523622047244
0
LINE
8
BLACK
6
CONTINUOUS
10
0.0204988582677165
20
0.2866523622047244
11
0.0236920078740157
21
0.2845187795275591
0
LINE
8
BLACK
6
CONTINUOUS
10
0.0236920078740157
20
0.2845187795275591
11
0.0258255905511811
21
0.2813256299212598
0
LINE
8
BLACK
6
CONTINUOUS
10
0.0258255905511811
20
0.2813256299212598
11
0.0265748031496063
21
0.2775590551181102
0
LINE
8
BLACK
6
CONTINUOUS
10
0.0265748031496063
20
0.2775590551181102
11
0.0265748031496063
21
0.2421259842519685
0
LINE
8
BLACK
6
CONTINUOUS
10
0.0265748031496063
20
0.2421259842519685
11
0.0258255905511811
21
0.2383594094488189
0
LINE
8
BLACK
6
CONTINUOUS
10
0.0258255905511811
20
0.2383594094488189
11
0.0236920078740157
21
0.2351662598425197
0
LINE
8
BLACK
6
CONTINUOUS
10
0.0236920078740157
20
0.2351662598425197
11
0.0204988582677165
21
0.2330326771653543
0
LINE
8
BLACK
6
CONTINUOUS
10
0.0204988582677165
20
0.2330326771653543
11
0.0167322834645669
21
0.2322834645669291
0
LINE
8
BLACK
6
CONTINUOUS
10
0.0167322834645669
20
0.2322834645669291
11
-0.0039370078740157
21
0.2322834645669291
0
LINE
8
BLACK
6
CONTINUOUS
10
-0.0039370078740157
20
0.2322834645669291
11
-0.0077035826771654
21
0.2330326771653543
0
LINE
8
BLACK
6
CONTINUOUS
10
-0.0077035826771654
20
0.2330326771653543
11
-0.0108967322834646
21
0.2351662598425197
0
LINE
8
BLACK
6
CONTINUOUS
10
-0.0108967322834646
20
0.2351662598425197
11
-0.0130303149606299
21
0.2383594094488189
0
LINE
8
BLACK
6
CONTINUOUS
10
-0.0130303149606299
20
0.2383594094488189
11
-0.0137795275590551
21
0.2421259842519685
0
LINE
8
BLACK
6
CONTINUOUS
10
-0.0137795275590551
20
0.2421259842519685
11
-0.0137795275590551
21
0.2775590551181102
0
LINE
8
BLACK
6
CONTINUOUS
10
-0.0137795275590551
20
0.2775590551181102
11
-0.0130303149606299
21
0.2813256299212598
0
LINE
8
BLACK
6
CONTINUOUS
10
-0.0130303149606299
20
0.2813256299212598
11
-0.0108967322834646
21
0.2845187795275591
0
LINE
8
BLACK
6
CONTINUOUS
10
-0.0108967322834646
20
0.2845187795275591
11
-0.0077035826771654
21
0.2866523622047244
0
LINE
8
BLACK
6
CONTINUOUS
10
-0.0077035826771654
20
0.2866523622047244
11
-0.0039370078740157
21
0.2874015748031496
0
LINE
8
BLACK
6
CONTINUOUS
10
-0.0039370078740157
20
0.2874015748031496
11
0.0167322834645669
21
0.2874015748031496
0
LINE
8
BLACK
6
CONTINUOUS
10
0.0167322834645669
20
0.2874015748031496
11
0.0204988582677165
21
0.2866523622047244
0
LINE
8
BLACK
6
CONTINUOUS
10
0.5639043700787402
20
0.2970854330708662
11
0.5670975196850394
21
0.2949518503937008
0
LINE
8
BLACK
6
CONTINUOUS
10
0.5670975196850394
20
0.2949518503937008
11
0.5692311023622048
21
0.2917587007874016
0
LINE
8
BLACK
6
CONTINUOUS
10
0.5692311023622048
20
0.2917587007874016
11
0.56998031496063
21
0.2879921259842519
0
LINE
8
BLACK
6
CONTINUOUS
10
0.56998031496063
20
0.2879921259842519
11
0.56998031496063
21
0.2673228346456693
0
LINE
8
BLACK
6
CONTINUOUS
10
0.56998031496063
20
0.2673228346456693
11
0.5692311023622048
21
0.2635562598425197
0
LINE
8
BLACK
6
CONTINUOUS
10
0.5692311023622048
20
0.2635562598425197
11
0.5670975196850394
21
0.2603631102362204
0
LINE
8
BLACK
6
CONTINUOUS
10
0.5670975196850394
20
0.2603631102362204
11
0.5639043700787402
21
0.2582295275590551
0
LINE
8
BLACK
6
CONTINUOUS
10
0.5639043700787402
20
0.2582295275590551
11
0.5601377952755905
21
0.2574803149606299
0
LINE
8
BLACK
6
CONTINUOUS
10
0.5601377952755905
20
0.2574803149606299
11
0.5247047244094488
21
0.2574803149606299
0
LINE
8
BLACK
6
CONTINUOUS
10
0.5247047244094488
20
0.2574803149606299
11
0.5209381496062993
21
0.2582295275590551
0
LINE
8
BLACK
6
CONTINUOUS
10
0.5209381496062993
20
0.2582295275590551
11
0.517745
21
0.2603631102362204
0
LINE
8
BLACK
6
CONTINUOUS
10
0.517745
20
0.2603631102362204
11
0.5156114173228347
21
0.2635562598425197
0
LINE
8
BLACK
6
CONTINUOUS
10
0.5156114173228347
20
0.2635562598425197
11
0.5148622047244095
21
0.2673228346456693
0
LINE
8
BLACK
6
CONTINUOUS
10
0.5148622047244095
20
0.2673228346456693
11
0.5148622047244095
21
0.2879921259842519
0
LINE
8
BLACK
6
CONTINUOUS
10
0.5148622047244095
20
0.2879921259842519
11
0.5156114173228347
21
0.2917587007874016
0
LINE
8
BLACK
6
CONTINUOUS
10
0.5156114173228347
20
0.2917587007874016
11
0.517745
21
0.2949518503937008
0
LINE
8
BLACK
6
CONTINUOUS
10
0.517745
20
0.2949518503937008
11
0.5209381496062993
21
0.2970854330708662
0
LINE
8
BLACK
6
CONTINUOUS
10
0.5209381496062993
20
0.2970854330708662
11
0.5247047244094488
21
0.2978346456692914
0
LINE
8
BLACK
6
CONTINUOUS
10
0.5247047244094488
20
0.2978346456692914
11
0.5601377952755905
21
0.2978346456692914
0
LINE
8
BLACK
6
CONTINUOUS
10
0.5601377952755905
20
0.2978346456692914
11
0.5639043700787402
21
0.2970854330708662
0
LINE
8
BLACK
6
CONTINUOUS
10
-0.2462334251968504
20
0.2974791338582677
11
-0.2430402755905512
21
0.2953455511811023
0
LINE
8
BLACK
6
CONTINUOUS
10
-0.2430402755905512
20
0.2953455511811023
11
-0.2409066929133858
21
0.2921524015748032
0
LINE
8
BLACK
6
CONTINUOUS
10
-0.2409066929133858
20
0.2921524015748032
11
-0.2401574803149606
21
0.2883858267716535
0
LINE
8
BLACK
6
CONTINUOUS
10
-0.2401574803149606
20
0.2883858267716535
11
-0.2401574803149606
21
0.2677165354330708
0
LINE
8
BLACK
6
CONTINUOUS
10
-0.2401574803149606
20
0.2677165354330708
11
-0.2409066929133858
21
0.2639499606299213
0
LINE
8
BLACK
6
CONTINUOUS
10
-0.2409066929133858
20
0.2639499606299213
11
-0.2430402755905512
21
0.260756811023622
0
LINE
8
BLACK
6
CONTINUOUS
10
-0.2430402755905512
20
0.260756811023622
11
-0.2462334251968504
21
0.2586232283464567
0
LINE
8
BLACK
6
CONTINUOUS
10
-0.2462334251968504
20
0.2586232283464567
11
-0.25
21
0.2578740157480315
0
LINE
8
BLACK
6
CONTINUOUS
10
-0.25
20
0.2578740157480315
11
-0.2854330708661417
21
0.2578740157480315
0
LINE
8
BLACK
6
CONTINUOUS
10
-0.2854330708661417
20
0.2578740157480315
11
-0.2891996456692913
21
0.2586232283464567
0
LINE
8
BLACK
6
CONTINUOUS
10
-0.2891996456692913
20
0.2586232283464567
11
-0.2923927952755905
21
0.260756811023622
0
LINE
8
BLACK
6
CONTINUOUS
10
-0.2923927952755905
20
0.260756811023622
11
-0.2945263779527559
21
0.2639499606299213
0
LINE
8
BLACK
6
CONTINUOUS
10
-0.2945263779527559
20
0.2639499606299213
11
-0.2952755905511811
21
0.2677165354330708
0
LINE
8
BLACK
6
CONTINUOUS
10
-0.2952755905511811
20
0.2677165354330708
11
-0.2952755905511811
21
0.2883858267716535
0
LINE
8
BLACK
6
CONTINUOUS
10
-0.2952755905511811
20
0.2883858267716535
11
-0.2945263779527559
21
0.2921524015748032
0
LINE
8
BLACK
6
CONTINUOUS
10
-0.2945263779527559
20
0.2921524015748032
11
-0.2923927952755905
21
0.2953455511811023
0
LINE
8
BLACK
6
CONTINUOUS
10
-0.2923927952755905
20
0.2953455511811023
11
-0.2891996456692913
21
0.2974791338582677
0
LINE
8
BLACK
6
CONTINUOUS
10
-0.2891996456692913
20
0.2974791338582677
11
-0.2854330708661417
21
0.2982283464566929
0
LINE
8
BLACK
6
CONTINUOUS
10
-0.2854330708661417
20
0.2982283464566929
11
-0.25
21
0.2982283464566929
0
LINE
8
BLACK
6
CONTINUOUS
10
-0.25
20
0.2982283464566929
11
-0.2462334251968504
21
0.2974791338582677
0
LINE
8
BLACK
6
CONTINUOUS
10
-0.3995798818897638
20
0.2980696850393701
11
-0.3963867322834645
21
0.2959361023622047
0
LINE
8
BLACK
6
CONTINUOUS
10
-0.3963867322834645
20
0.2959361023622047
11
-0.3942531496062992
21
0.2927429527559055
0
LINE
8
BLACK
6
CONTINUOUS
10
-0.3942531496062992
20
0.2927429527559055
11
-0.393503937007874
21
0.2889763779527559
0
LINE
8
BLACK
6
CONTINUOUS
10
-0.393503937007874
20
0.2889763779527559
11
-0.393503937007874
21
0.2692913385826772
0
LINE
8
BLACK
6
CONTINUOUS
10
-0.393503937007874
20
0.2692913385826772
11
-0.3942531496062992
21
0.2655247637795276
0
LINE
8
BLACK
6
CONTINUOUS
10
-0.3942531496062992
20
0.2655247637795276
11
-0.3963867322834645
21
0.2623316141732284
0
LINE
8
BLACK
6
CONTINUOUS
10
-0.3963867322834645
20
0.2623316141732284
11
-0.3995798818897638
21
0.260198031496063
0
LINE
8
BLACK
6
CONTINUOUS
10
-0.3995798818897638
20
0.260198031496063
11
-0.4033464566929134
21
0.2594488188976378
0
LINE
8
BLACK
6
CONTINUOUS
10
-0.4033464566929134
20
0.2594488188976378
11
-0.440748031496063
21
0.2594488188976378
0
LINE
8
BLACK
6
CONTINUOUS
10
-0.440748031496063
20
0.2594488188976378
11
-0.4445146062992126
21
0.260198031496063
0
LINE
8
BLACK
6
CONTINUOUS
10
-0.4445146062992126
20
0.260198031496063
11
-0.4477077559055118
21
0.2623316141732284
0
LINE
8
BLACK
6
CONTINUOUS
10
-0.4477077559055118
20
0.2623316141732284
11
-0.4498413385826772
21
0.2655247637795276
0
LINE
8
BLACK
6
CONTINUOUS
10
-0.4498413385826772
20
0.2655247637795276
11
-0.4505905511811024
21
0.2692913385826772
0
LINE
8
BLACK
6
CONTINUOUS
10
-0.4505905511811024
20
0.2692913385826772
11
-0.4505905511811024
21
0.2889763779527559
0
LINE
8
BLACK
6
CONTINUOUS
10
-0.4505905511811024
20
0.2889763779527559
11
-0.4498413385826772
21
0.2927429527559055
0
LINE
8
BLACK
6
CONTINUOUS
10
-0.4498413385826772
20
0.2927429527559055
11
-0.4477077559055118
21
0.2959361023622047
0
LINE
8
BLACK
6
CONTINUOUS
10
-0.4477077559055118
20
0.2959361023622047
11
-0.4445146062992126
21
0.2980696850393701
0
LINE
8
BLACK
6
CONTINUOUS
10
-0.4445146062992126
20
0.2980696850393701
11
-0.440748031496063
21
0.2988188976377953
0
LINE
8
BLACK
6
CONTINUOUS
10
-0.440748031496063
20
0.2988188976377953
11
-0.4033464566929134
21
0.2988188976377953
0
LINE
8
BLACK
6
CONTINUOUS
10
-0.4033464566929134
20
0.2988188976377953
11
-0.3995798818897638
21
0.2980696850393701
0
LINE
8
BLACK
6
CONTINUOUS
10
-0.321627125984252
20
0.2980696850393701
11
-0.3184339763779527
21
0.2959361023622047
0
LINE
8
BLACK
6
CONTINUOUS
10
-0.3184339763779527
20
0.2959361023622047
11
-0.3163003937007874
21
0.2927429527559055
0
LINE
8
BLACK
6
CONTINUOUS
10
-0.3163003937007874
20
0.2927429527559055
11
-0.3155511811023622
21
0.2889763779527559
0
LINE
8
BLACK
6
CONTINUOUS
10
-0.3155511811023622
20
0.2889763779527559
11
-0.3155511811023622
21
0.2692913385826772
0
LINE
8
BLACK
6
CONTINUOUS
10
-0.3155511811023622
20
0.2692913385826772
11
-0.3163003937007874
21
0.2655247637795276
0
LINE
8
BLACK
6
CONTINUOUS
10
-0.3163003937007874
20
0.2655247637795276
11
-0.3184339763779527
21
0.2623316141732284
0
LINE
8
BLACK
6
CONTINUOUS
10
-0.3184339763779527
20
0.2623316141732284
11
-0.321627125984252
21
0.260198031496063
0
LINE
8
BLACK
6
CONTINUOUS
10
-0.321627125984252
20
0.260198031496063
11
-0.3253937007874015
21
0.2594488188976378
0
LINE
8
BLACK
6
CONTINUOUS
10
-0.3253937007874015
20
0.2594488188976378
11
-0.3627952755905512
21
0.2594488188976378
0
LINE
8
BLACK
6
CONTINUOUS
10
-0.3627952755905512
20
0.2594488188976378
11
-0.3665618503937008
21
0.260198031496063
0
LINE
8
BLACK
6
CONTINUOUS
10
-0.3665618503937008
20
0.260198031496063
11
-0.369755
21
0.2623316141732284
0
LINE
8
BLACK
6
CONTINUOUS
10
-0.369755
20
0.2623316141732284
11
-0.3718885826771653
21
0.2655247637795276
0
LINE
8
BLACK
6
CONTINUOUS
10
-0.3718885826771653
20
0.2655247637795276
11
-0.3726377952755905
21
0.2692913385826772
0
LINE
8
BLACK
6
CONTINUOUS
10
-0.3726377952755905
20
0.2692913385826772
11
-0.3726377952755905
21
0.2889763779527559
0
LINE
8
BLACK
6
CONTINUOUS
10
-0.3726377952755905
20
0.2889763779527559
11
-0.3718885826771653
21
0.2927429527559055
0
LINE
8
BLACK
6
CONTINUOUS
10
-0.3718885826771653
20
0.2927429527559055
11
-0.369755
21
0.2959361023622047
0
LINE
8
BLACK
6
CONTINUOUS
10
-0.369755
20
0.2959361023622047
11
-0.3665618503937008
21
0.2980696850393701
0
LINE
8
BLACK
6
CONTINUOUS
10
-0.3665618503937008
20
0.2980696850393701
11
-0.3627952755905512
21
0.2988188976377953
0
LINE
8
BLACK
6
CONTINUOUS
10
-0.3627952755905512
20
0.2988188976377953
11
-0.3253937007874015
21
0.2988188976377953
0
LINE
8
BLACK
6
CONTINUOUS
10
-0.3253937007874015
20
0.2988188976377953
11
-0.321627125984252
21
0.2980696850393701
0
LINE
8
BLACK
6
CONTINUOUS
10
0.1464831102362205
20
0.2980696850393701
11
0.1496762598425197
21
0.2959361023622047
0
LINE
8
BLACK
6
CONTINUOUS
10
0.1496762598425197
20
0.2959361023622047
11
0.151809842519685
21
0.2927429527559055
0
LINE
8
BLACK
6
CONTINUOUS
10
0.151809842519685
20
0.2927429527559055
11
0.1525590551181102
21
0.2889763779527559
0
LINE
8
BLACK
6
CONTINUOUS
10
0.1525590551181102
20
0.2889763779527559
11
0.1525590551181102
21
0.2692913385826772
0
LINE
8
BLACK
6
CONTINUOUS
10
0.1525590551181102
20
0.2692913385826772
11
0.151809842519685
21
0.2655247637795276
0
LINE
8
BLACK
6
CONTINUOUS
10
0.151809842519685
20
0.2655247637795276
11
0.1496762598425197
21
0.2623316141732284
0
LINE
8
BLACK
6
CONTINUOUS
10
0.1496762598425197
20
0.2623316141732284
11
0.1464831102362205
21
0.260198031496063
0
LINE
8
BLACK
6
CONTINUOUS
10
0.1464831102362205
20
0.260198031496063
11
0.1427165354330709
21
0.2594488188976378
0
LINE
8
BLACK
6
CONTINUOUS
10
0.1427165354330709
20
0.2594488188976378
11
0.1053149606299213
21
0.2594488188976378
0
LINE
8
BLACK
6
CONTINUOUS
10
0.1053149606299213
20
0.2594488188976378
11
0.1015483858267717
21
0.260198031496063
0
LINE
8
BLACK
6
CONTINUOUS
10
0.1015483858267717
20
0.260198031496063
11
0.0983552362204724
21
0.2623316141732284
0
LINE
8
BLACK
6
CONTINUOUS
10
0.0983552362204724
20
0.2623316141732284
11
0.0962216535433071
21
0.2655247637795276
0
LINE
8
BLACK
6
CONTINUOUS
10
0.0962216535433071
20
0.2655247637795276
11
0.0954724409448819
21
0.2692913385826772
0
LINE
8
BLACK
6
CONTINUOUS
10
0.0954724409448819
20
0.2692913385826772
11
0.0954724409448819
21
0.2889763779527559
0
LINE
8
BLACK
6
CONTINUOUS
10
0.0954724409448819
20
0.2889763779527559
11
0.0962216535433071
21
0.2927429527559055
0
LINE
8
BLACK
6
CONTINUOUS
10
0.0962216535433071
20
0.2927429527559055
11
0.0983552362204724
21
0.2959361023622047
0
LINE
8
BLACK
6
CONTINUOUS
10
0.0983552362204724
20
0.2959361023622047
11
0.1015483858267717
21
0.2980696850393701
0
LINE
8
BLACK
6
CONTINUOUS
10
0.1015483858267717
20
0.2980696850393701
11
0.1053149606299213
21
0.2988188976377953
0
LINE
8
BLACK
6
CONTINUOUS
10
0.1053149606299213
20
0.2988188976377953
11
0.1427165354330709
21
0.2988188976377953
0
LINE
8
BLACK
6
CONTINUOUS
10
0.1427165354330709
20
0.2988188976377953
11
0.1464831102362205
21
0.2980696850393701
0
LINE
8
BLACK
6
CONTINUOUS
10
0.2267980708661417
20
0.2980696850393701
11
0.2299912204724409
21
0.2959361023622047
0
LINE
8
BLACK
6
CONTINUOUS
10
0.2299912204724409
20
0.2959361023622047
11
0.2321248031496063
21
0.2927429527559055
0
LINE
8
BLACK
6
CONTINUOUS
10
0.2321248031496063
20
0.2927429527559055
11
0.2328740157480315
21
0.2889763779527559
0
LINE
8
BLACK
6
CONTINUOUS
10
0.2328740157480315
20
0.2889763779527559
11
0.2328740157480315
21
0.2692913385826772
0
LINE
8
BLACK
6
CONTINUOUS
10
0.2328740157480315
20
0.2692913385826772
11
0.2321248031496063
21
0.2655247637795276
0
LINE
8
BLACK
6
CONTINUOUS
10
0.2321248031496063
20
0.2655247637795276
11
0.2299912204724409
21
0.2623316141732284
0
LINE
8
BLACK
6
CONTINUOUS
10
0.2299912204724409
20
0.2623316141732284
11
0.2267980708661417
21
0.260198031496063
0
LINE
8
BLACK
6
CONTINUOUS
10
0.2267980708661417
20
0.260198031496063
11
0.2230314960629921
21
0.2594488188976378
0
LINE
8
BLACK
6
CONTINUOUS
10
0.2230314960629921
20
0.2594488188976378
11
0.1856299212598425
21
0.2594488188976378
0
LINE
8
BLACK
6
CONTINUOUS
10
0.1856299212598425
20
0.2594488188976378
11
0.1818633464566929
21
0.260198031496063
0
LINE
8
BLACK
6
CONTINUOUS
10
0.1818633464566929
20
0.260198031496063
11
0.1786701968503937
21
0.2623316141732284
0
LINE
8
BLACK
6
CONTINUOUS
10
0.1786701968503937
20
0.2623316141732284
11
0.1765366141732283
21
0.2655247637795276
0
LINE
8
BLACK
6
CONTINUOUS
10
0.1765366141732283
20
0.2655247637795276
11
0.1757874015748032
21
0.2692913385826772
0
LINE
8
BLACK
6
CONTINUOUS
10
0.1757874015748032
20
0.2692913385826772
11
0.1757874015748032
21
0.2889763779527559
0
LINE
8
BLACK
6
CONTINUOUS
10
0.1757874015748032
20
0.2889763779527559
11
0.1765366141732283
21
0.2927429527559055
0
LINE
8
BLACK
6
CONTINUOUS
10
0.1765366141732283
20
0.2927429527559055
11
0.1786701968503937
21
0.2959361023622047
0
LINE
8
BLACK
6
CONTINUOUS
10
0.1786701968503937
20
0.2959361023622047
11
0.1818633464566929
21
0.2980696850393701
0
LINE
8
BLACK
6
CONTINUOUS
10
0.1818633464566929
20
0.2980696850393701
11
0.1856299212598425
21
0.2988188976377953
0
LINE
8
BLACK
6
CONTINUOUS
10
0.1856299212598425
20
0.2988188976377953
11
0.2230314960629921
21
0.2988188976377953
0
LINE
8
BLACK
6
CONTINUOUS
10
0.2230314960629921
20
0.2988188976377953
11
0.2267980708661417
21
0.2980696850393701
0
LINE
8
BLACK
6
CONTINUOUS
10
0.3138059448818897
20
0.2980696850393701
11
0.316999094488189
21
0.2959361023622047
0
LINE
8
BLACK
6
CONTINUOUS
10
0.316999094488189
20
0.2959361023622047
11
0.3191326771653543
21
0.2927429527559055
0
LINE
8
BLACK
6
CONTINUOUS
10
0.3191326771653543
20
0.2927429527559055
11
0.3198818897637795
21
0.2889763779527559
0
LINE
8
BLACK
6
CONTINUOUS
10
0.3198818897637795
20
0.2889763779527559
11
0.3198818897637795
21
0.2692913385826772
0
LINE
8
BLACK
6
CONTINUOUS
10
0.3198818897637795
20
0.2692913385826772
11
0.3191326771653543
21
0.2655247637795276
0
LINE
8
BLACK
6
CONTINUOUS
10
0.3191326771653543
20
0.2655247637795276
11
0.316999094488189
21
0.2623316141732284
0
LINE
8
BLACK
6
CONTINUOUS
10
0.316999094488189
20
0.2623316141732284
11
0.3138059448818897
21
0.260198031496063
0
LINE
8
BLACK
6
CONTINUOUS
10
0.3138059448818897
20
0.260198031496063
11
0.3100393700787402
21
0.2594488188976378
0
LINE
8
BLACK
6
CONTINUOUS
10
0.3100393700787402
20
0.2594488188976378
11
0.2726377952755906
21
0.2594488188976378
0
LINE
8
BLACK
6
CONTINUOUS
10
0.2726377952755906
20
0.2594488188976378
11
0.2688712204724409
21
0.260198031496063
0
LINE
8
BLACK
6
CONTINUOUS
10
0.2688712204724409
20
0.260198031496063
11
0.2656780708661417
21
0.2623316141732284
0
LINE
8
BLACK
6
CONTINUOUS
10
0.2656780708661417
20
0.2623316141732284
11
0.2635444881889764
21
0.2655247637795276
0
LINE
8
BLACK
6
CONTINUOUS
10
0.2635444881889764
20
0.2655247637795276
11
0.2627952755905512
21
0.2692913385826772
0
LINE
8
BLACK
6
CONTINUOUS
10
0.2627952755905512
20
0.2692913385826772
11
0.2627952755905512
21
0.2889763779527559
0
LINE
8
BLACK
6
CONTINUOUS
10
0.2627952755905512
20
0.2889763779527559
11
0.2635444881889764
21
0.2927429527559055
0
LINE
8
BLACK
6
CONTINUOUS
10
0.2635444881889764
20
0.2927429527559055
11
0.2656780708661417
21
0.2959361023622047
0
LINE
8
BLACK
6
CONTINUOUS
10
0.2656780708661417
20
0.2959361023622047
11
0.2688712204724409
21
0.2980696850393701
0
LINE
8
BLACK
6
CONTINUOUS
10
0.2688712204724409
20
0.2980696850393701
11
0.2726377952755906
21
0.2988188976377953
0
LINE
8
BLACK
6
CONTINUOUS
10
0.2726377952755906
20
0.2988188976377953
11
0.3100393700787402
21
0.2988188976377953
0
LINE
8
BLACK
6
CONTINUOUS
10
0.3100393700787402
20
0.2988188976377953
11
0.3138059448818897
21
0.2980696850393701
0
LINE
8
BLACK
6
CONTINUOUS
10
0.391365
20
0.2980696850393701
11
0.3945581496062992
21
0.2959361023622047
0
LINE
8
BLACK
6
CONTINUOUS
10
0.3945581496062992
20
0.2959361023622047
11
0.3966917322834645
21
0.2927429527559055
0
LINE
8
BLACK
6
CONTINUOUS
10
0.3966917322834645
20
0.2927429527559055
11
0.3974409448818897
21
0.2889763779527559
0
LINE
8
BLACK
6
CONTINUOUS
10
0.3974409448818897
20
0.2889763779527559
11
0.3974409448818897
21
0.2692913385826772
0
LINE
8
BLACK
6
CONTINUOUS
10
0.3974409448818897
20
0.2692913385826772
11
0.3966917322834645
21
0.2655247637795276
0
LINE
8
BLACK
6
CONTINUOUS
10
0.3966917322834645
20
0.2655247637795276
11
0.3945581496062992
21
0.2623316141732284
0
LINE
8
BLACK
6
CONTINUOUS
10
0.3945581496062992
20
0.2623316141732284
11
0.391365
21
0.260198031496063
0
LINE
8
BLACK
6
CONTINUOUS
10
0.391365
20
0.260198031496063
11
0.3875984251968504
21
0.2594488188976378
0
LINE
8
BLACK
6
CONTINUOUS
10
0.3875984251968504
20
0.2594488188976378
11
0.3501968503937008
21
0.2594488188976378
0
LINE
8
BLACK
6
CONTINUOUS
10
0.3501968503937008
20
0.2594488188976378
11
0.3464302755905512
21
0.260198031496063
0
LINE
8
BLACK
6
CONTINUOUS
10
0.3464302755905512
20
0.260198031496063
11
0.3432371259842519
21
0.2623316141732284
0
LINE
8
BLACK
6
CONTINUOUS
10
0.3432371259842519
20
0.2623316141732284
11
0.3411035433070866
21
0.2655247637795276
0
LINE
8
BLACK
6
CONTINUOUS
10
0.3411035433070866
20
0.2655247637795276
11
0.3403543307086614
21
0.2692913385826772
0
LINE
8
BLACK
6
CONTINUOUS
10
0.3403543307086614
20
0.2692913385826772
11
0.3403543307086614
21
0.2889763779527559
0
LINE
8
BLACK
6
CONTINUOUS
10
0.3403543307086614
20
0.2889763779527559
11
0.3411035433070866
21
0.2927429527559055
0
LINE
8
BLACK
6
CONTINUOUS
10
0.3411035433070866
20
0.2927429527559055
11
0.3432371259842519
21
0.2959361023622047
0
LINE
8
BLACK
6
CONTINUOUS
10
0.3432371259842519
20
0.2959361023622047
11
0.3464302755905512
21
0.2980696850393701
0
LINE
8
BLACK
6
CONTINUOUS
10
0.3464302755905512
20
0.2980696850393701
11
0.3501968503937008
21
0.2988188976377953
0
LINE
8
BLACK
6
CONTINUOUS
10
0.3501968503937008
20
0.2988188976377953
11
0.3875984251968504
21
0.2988188976377953
0
LINE
8
BLACK
6
CONTINUOUS
10
0.3875984251968504
20
0.2988188976377953
11
0.391365
21
0.2980696850393701
0
LINE
8
BLACK
6
CONTINUOUS
10
0.4854594881889764
20
0.2980696850393701
11
0.4886526377952756
21
0.2959361023622047
0
LINE
8
BLACK
6
CONTINUOUS
10
0.4886526377952756
20
0.2959361023622047
11
0.4907862204724409
21
0.2927429527559055
0
LINE
8
BLACK
6
CONTINUOUS
10
0.4907862204724409
20
0.2927429527559055
11
0.4915354330708661
21
0.2889763779527559
0
LINE
8
BLACK
6
CONTINUOUS
10
0.4915354330708661
20
0.2889763779527559
11
0.4915354330708661
21
0.2692913385826772
0
LINE
8
BLACK
6
CONTINUOUS
10
0.4915354330708661
20
0.2692913385826772
11
0.4907862204724409
21
0.2655247637795276
0
LINE
8
BLACK
6
CONTINUOUS
10
0.4907862204724409
20
0.2655247637795276
11
0.4886526377952756
21
0.2623316141732284
0
LINE
8
BLACK
6
CONTINUOUS
10
0.4886526377952756
20
0.2623316141732284
11
0.4854594881889764
21
0.260198031496063
0
LINE
8
BLACK
6
CONTINUOUS
10
0.4854594881889764
20
0.260198031496063
11
0.4816929133858268
21
0.2594488188976378
0
LINE
8
BLACK
6
CONTINUOUS
10
0.4816929133858268
20
0.2594488188976378
11
0.4442913385826772
21
0.2594488188976378
0
LINE
8
BLACK
6
CONTINUOUS
10
0.4442913385826772
20
0.2594488188976378
11
0.4405247637795275
21
0.260198031496063
0
LINE
8
BLACK
6
CONTINUOUS
10
0.4405247637795275
20
0.260198031496063
11
0.4373316141732284
21
0.2623316141732284
0
LINE
8
BLACK
6
CONTINUOUS
10
0.4373316141732284
20
0.2623316141732284
11
0.435198031496063
21
0.2655247637795276
0
LINE
8
BLACK
6
CONTINUOUS
10
0.435198031496063
20
0.2655247637795276
11
0.4344488188976378
21
0.2692913385826772
0
LINE
8
BLACK
6
CONTINUOUS
10
0.4344488188976378
20
0.2692913385826772
11
0.4344488188976378
21
0.2889763779527559
0
LINE
8
BLACK
6
CONTINUOUS
10
0.4344488188976378
20
0.2889763779527559
11
0.435198031496063
21
0.2927429527559055
0
LINE
8
BLACK
6
CONTINUOUS
10
0.435198031496063
20
0.2927429527559055
11
0.4373316141732284
21
0.2959361023622047
0
LINE
8
BLACK
6
CONTINUOUS
10
0.4373316141732284
20
0.2959361023622047
11
0.4405247637795275
21
0.2980696850393701
0
LINE
8
BLACK
6
CONTINUOUS
10
0.4405247637795275
20
0.2980696850393701
11
0.4442913385826772
21
0.2988188976377953
0
LINE
8
BLACK
6
CONTINUOUS
10
0.4442913385826772
20
0.2988188976377953
11
0.4816929133858268
21
0.2988188976377953
0
LINE
8
BLACK
6
CONTINUOUS
10
0.4816929133858268
20
0.2988188976377953
11
0.4854594881889764
21
0.2980696850393701
0
LINE
8
BLACK
6
CONTINUOUS
10
0.6440759448818898
20
0.2978915748031496
11
0.647189251968504
21
0.2958112992125984
0
LINE
8
BLACK
6
CONTINUOUS
10
0.647189251968504
20
0.2958112992125984
11
0.6492695275590551
21
0.2926979921259842
0
LINE
8
BLACK
6
CONTINUOUS
10
0.6492695275590551
20
0.2926979921259842
11
0.65
21
0.2890255905511811
0
LINE
8
BLACK
6
CONTINUOUS
10
0.65
20
0.2890255905511811
11
0.65
21
0.2698326771653543
0
LINE
8
BLACK
6
CONTINUOUS
10
0.65
20
0.2698326771653543
11
0.6492695275590551
21
0.2661602755905512
0
LINE
8
BLACK
6
CONTINUOUS
10
0.6492695275590551
20
0.2661602755905512
11
0.647189251968504
21
0.263046968503937
0
LINE
8
BLACK
6
CONTINUOUS
10
0.647189251968504
20
0.263046968503937
11
0.6440759448818898
21
0.2609666929133858
0
LINE
8
BLACK
6
CONTINUOUS
10
0.6440759448818898
20
0.2609666929133858
11
0.6404035433070866
21
0.2602362204724409
0
LINE
8
BLACK
6
CONTINUOUS
10
0.6404035433070866
20
0.2602362204724409
11
0.6044783464566928
21
0.2602362204724409
0
LINE
8
BLACK
6
CONTINUOUS
10
0.6044783464566928
20
0.2602362204724409
11
0.6008059448818898
21
0.2609666929133858
0
LINE
8
BLACK
6
CONTINUOUS
10
0.6008059448818898
20
0.2609666929133858
11
0.5976926377952756
21
0.263046968503937
0
LINE
8
BLACK
6
CONTINUOUS
10
0.5976926377952756
20
0.263046968503937
11
0.5956123622047244
21
0.2661602755905512
0
LINE
8
BLACK
6
CONTINUOUS
10
0.5956123622047244
20
0.2661602755905512
11
0.5948818897637795
21
0.2698326771653543
0
LINE
8
BLACK
6
CONTINUOUS
10
0.5948818897637795
20
0.2698326771653543
11
0.5948818897637795
21
0.2890255905511811
0
LINE
8
BLACK
6
CONTINUOUS
10
0.5948818897637795
20
0.2890255905511811
11
0.5956123622047244
21
0.2926979921259842
0
LINE
8
BLACK
6
CONTINUOUS
10
0.5956123622047244
20
0.2926979921259842
11
0.5976926377952756
21
0.2958112992125984
0
LINE
8
BLACK
6
CONTINUOUS
10
0.5976926377952756
20
0.2958112992125984
11
0.6008059448818898
21
0.2978915748031496
0
LINE
8
BLACK
6
CONTINUOUS
10
0.6008059448818898
20
0.2978915748031496
11
0.6044783464566928
21
0.2986220472440945
0
LINE
8
BLACK
6
CONTINUOUS
10
0.6044783464566928
20
0.2986220472440945
11
0.6404035433070866
21
0.2986220472440945
0
LINE
8
BLACK
6
CONTINUOUS
10
0.6404035433070866
20
0.2986220472440945
11
0.6440759448818898
21
0.2978915748031496
0
LINE
8
BLACK
6
CONTINUOUS
10
-0.3937007874015748
20
0.3852362204724409
11
-0.4094488188976378
21
0.3852362204724409
0
LINE
8
BLACK
6
CONTINUOUS
10
-0.4094488188976378
20
0.3852362204724409
11
-0.4094488188976378
21
0.4639763779527559
0
LINE
8
BLACK
6
CONTINUOUS
10
-0.4094488188976378
20
0.4639763779527559
11
-0.3937007874015748
21
0.4639763779527559
0
LINE
8
BLACK
6
CONTINUOUS
10
-0.3937007874015748
20
0.4639763779527559
11
-0.3937007874015748
21
0.3852362204724409
0
LINE
8
BLACK
6
CONTINUOUS
10
-0.3661417322834646
20
0.3852362204724409
11
-0.3818897637795275
21
0.3852362204724409
0
LINE
8
BLACK
6
CONTINUOUS
10
-0.3818897637795275
20
0.3852362204724409
11
-0.3818897637795275
21
0.4639763779527559
0
LINE
8
BLACK
6
CONTINUOUS
10
-0.3818897637795275
20
0.4639763779527559
11
-0.3661417322834646
21
0.4639763779527559
0
LINE
8
BLACK
6
CONTINUOUS
10
-0.3661417322834646
20
0.4639763779527559
11
-0.3661417322834646
21
0.3852362204724409
0
LINE
8
BLACK
6
CONTINUOUS
10
-0.3385826771653543
20
0.3852362204724409
11
-0.3543307086614173
21
0.3852362204724409
0
LINE
8
BLACK
6
CONTINUOUS
10
-0.3543307086614173
20
0.3852362204724409
11
-0.3543307086614173
21
0.4639763779527559
0
LINE
8
BLACK
6
CONTINUOUS
10
-0.3543307086614173
20
0.4639763779527559
11
-0.3385826771653543
21
0.4639763779527559
0
LINE
8
BLACK
6
CONTINUOUS
10
-0.3385826771653543
20
0.4639763779527559
11
-0.3385826771653543
21
0.3852362204724409
0
LINE
8
BLACK
6
CONTINUOUS
10
-0.3110236220472441
20
0.3852362204724409
11
-0.3267716535433071
21
0.3852362204724409
0
LINE
8
BLACK
6
CONTINUOUS
10
-0.3267716535433071
20
0.3852362204724409
11
-0.3267716535433071
21
0.4639763779527559
0
LINE
8
BLACK
6
CONTINUOUS
10
-0.3267716535433071
20
0.4639763779527559
11
-0.3110236220472441
21
0.4639763779527559
0
LINE
8
BLACK
6
CONTINUOUS
10
-0.3110236220472441
20
0.4639763779527559
11
-0.3110236220472441
21
0.3852362204724409
0
LINE
8
BLACK
6
CONTINUOUS
10
-0.2834645669291339
20
0.3852362204724409
11
-0.2992125984251968
21
0.3852362204724409
0
LINE
8
BLACK
6
CONTINUOUS
10
-0.2992125984251968
20
0.3852362204724409
11
-0.2992125984251968
21
0.4639763779527559
0
LINE
8
BLACK
6
CONTINUOUS
10
-0.2992125984251968
20
0.4639763779527559
11
-0.2834645669291339
21
0.4639763779527559
0
LINE
8
BLACK
6
CONTINUOUS
10
-0.2834645669291339
20
0.4639763779527559
11
-0.2834645669291339
21
0.3852362204724409
0
LINE
8
BLACK
6
CONTINUOUS
10
-0.2559055118110236
20
0.3852362204724409
11
-0.2716535433070866
21
0.3852362204724409
0
LINE
8
BLACK
6
CONTINUOUS
10
-0.2716535433070866
20
0.3852362204724409
11
-0.2716535433070866
21
0.4639763779527559
0
LINE
8
BLACK
6
CONTINUOUS
10
-0.2716535433070866
20
0.4639763779527559
11
-0.2559055118110236
21
0.4639763779527559
0
LINE
8
BLACK
6
CONTINUOUS
10
-0.2559055118110236
20
0.4639763779527559
11
-0.2559055118110236
21
0.3852362204724409
0
LINE
8
BLACK
6
CONTINUOUS
10
-0.2283464566929134
20
0.3852362204724409
11
-0.2440944881889764
21
0.3852362204724409
0
LINE
8
BLACK
6
CONTINUOUS
10
-0.2440944881889764
20
0.3852362204724409
11
-0.2440944881889764
21
0.4639763779527559
0
LINE
8
BLACK
6
CONTINUOUS
10
-0.2440944881889764
20
0.4639763779527559
11
-0.2283464566929134
21
0.4639763779527559
0
LINE
8
BLACK
6
CONTINUOUS
10
-0.2283464566929134
20
0.4639763779527559
11
-0.2283464566929134
21
0.3852362204724409
0
LINE
8
BLACK
6
CONTINUOUS
10
-0.2007874015748032
20
0.3852362204724409
11
-0.2165354330708661
21
0.3852362204724409
0
LINE
8
BLACK
6
CONTINUOUS
10
-0.2165354330708661
20
0.3852362204724409
11
-0.2165354330708661
21
0.4639763779527559
0
LINE
8
BLACK
6
CONTINUOUS
10
-0.2165354330708661
20
0.4639763779527559
11
-0.2007874015748032
21
0.4639763779527559
0
LINE
8
BLACK
6
CONTINUOUS
10
-0.2007874015748032
20
0.4639763779527559
11
-0.2007874015748032
21
0.3852362204724409
0
LINE
8
BLACK
6
CONTINUOUS
10
-0.1732283464566929
20
0.3852362204724409
11
-0.1889763779527559
21
0.3852362204724409
0
LINE
8
BLACK
6
CONTINUOUS
10
-0.1889763779527559
20
0.3852362204724409
11
-0.1889763779527559
21
0.4639763779527559
0
LINE
8
BLACK
6
CONTINUOUS
10
-0.1889763779527559
20
0.4639763779527559
11
-0.1732283464566929
21
0.4639763779527559
0
LINE
8
BLACK
6
CONTINUOUS
10
-0.1732283464566929
20
0.4639763779527559
11
-0.1732283464566929
21
0.3852362204724409
0
LINE
8
BLACK
6
CONTINUOUS
10
-0.1456692913385827
20
0.3852362204724409
11
-0.1614173228346457
21
0.3852362204724409
0
LINE
8
BLACK
6
CONTINUOUS
10
-0.1614173228346457
20
0.3852362204724409
11
-0.1614173228346457
21
0.4639763779527559
0
LINE
8
BLACK
6
CONTINUOUS
10
-0.1614173228346457
20
0.4639763779527559
11
-0.1456692913385827
21
0.4639763779527559
0
LINE
8
BLACK
6
CONTINUOUS
10
-0.1456692913385827
20
0.4639763779527559
11
-0.1456692913385827
21
0.3852362204724409
0
LINE
8
BLACK
6
CONTINUOUS
10
-0.1181102362204724
20
0.3852362204724409
11
-0.1338582677165354
21
0.3852362204724409
0
LINE
8
BLACK
6
CONTINUOUS
10
-0.1338582677165354
20
0.3852362204724409
11
-0.1338582677165354
21
0.4639763779527559
0
LINE
8
BLACK
6
CONTINUOUS
10
-0.1338582677165354
20
0.4639763779527559
11
-0.1181102362204724
21
0.4639763779527559
0
LINE
8
BLACK
6
CONTINUOUS
10
-0.1181102362204724
20
0.4639763779527559
11
-0.1181102362204724
21
0.3852362204724409
0
LINE
8
BLACK
6
CONTINUOUS
10
-0.0905511811023622
20
0.3852362204724409
11
-0.1062992125984252
21
0.3852362204724409
0
LINE
8
BLACK
6
CONTINUOUS
10
-0.1062992125984252
20
0.3852362204724409
11
-0.1062992125984252
21
0.4639763779527559
0
LINE
8
BLACK
6
CONTINUOUS
10
-0.1062992125984252
20
0.4639763779527559
11
-0.0905511811023622
21
0.4639763779527559
0
LINE
8
BLACK
6
CONTINUOUS
10
-0.0905511811023622
20
0.4639763779527559
11
-0.0905511811023622
21
0.3852362204724409
0
LINE
8
BLACK
6
CONTINUOUS
10
-0.062992125984252
20
0.3852362204724409
11
-0.078740157480315
21
0.3852362204724409
0
LINE
8
BLACK
6
CONTINUOUS
10
-0.078740157480315
20
0.3852362204724409
11
-0.078740157480315
21
0.4639763779527559
0
LINE
8
BLACK
6
CONTINUOUS
10
-0.078740157480315
20
0.4639763779527559
11
-0.062992125984252
21
0.4639763779527559
0
LINE
8
BLACK
6
CONTINUOUS
10
-0.062992125984252
20
0.4639763779527559
11
-0.062992125984252
21
0.3852362204724409
0
LINE
8
BLACK
6
CONTINUOUS
10
-0.0354330708661417
20
0.3852362204724409
11
-0.0511811023622047
21
0.3852362204724409
0
LINE
8
BLACK
6
CONTINUOUS
10
-0.0511811023622047
20
0.3852362204724409
11
-0.0511811023622047
21
0.4639763779527559
0
LINE
8
BLACK
6
CONTINUOUS
10
-0.0511811023622047
20
0.4639763779527559
11
-0.0354330708661417
21
0.4639763779527559
0
LINE
8
BLACK
6
CONTINUOUS
10
-0.0354330708661417
20
0.4639763779527559
11
-0.0354330708661417
21
0.3852362204724409
0
LINE
8
BLACK
6
CONTINUOUS
10
-0.0078740157480315
20
0.3852362204724409
11
-0.0236220472440945
21
0.3852362204724409
0
LINE
8
BLACK
6
CONTINUOUS
10
-0.0236220472440945
20
0.3852362204724409
11
-0.0236220472440945
21
0.4639763779527559
0
LINE
8
BLACK
6
CONTINUOUS
10
-0.0236220472440945
20
0.4639763779527559
11
-0.0078740157480315
21
0.4639763779527559
0
LINE
8
BLACK
6
CONTINUOUS
10
-0.0078740157480315
20
0.4639763779527559
11
-0.0078740157480315
21
0.3852362204724409
0
LINE
8
BLACK
6
CONTINUOUS
10
0.0196850393700787
20
0.3852362204724409
11
0.0039370078740157
21
0.3852362204724409
0
LINE
8
BLACK
6
CONTINUOUS
10
0.0039370078740157
20
0.3852362204724409
11
0.0039370078740157
21
0.4639763779527559
0
LINE
8
BLACK
6
CONTINUOUS
10
0.0039370078740157
20
0.4639763779527559
11
0.0196850393700787
21
0.4639763779527559
0
LINE
8
BLACK
6
CONTINUOUS
10
0.0196850393700787
20
0.4639763779527559
11
0.0196850393700787
21
0.3852362204724409
0
LINE
8
BLACK
6
CONTINUOUS
10
0.047244094488189
20
0.3852362204724409
11
0.031496062992126
21
0.3852362204724409
0
LINE
8
BLACK
6
CONTINUOUS
10
0.031496062992126
20
0.3852362204724409
11
0.031496062992126
21
0.4639763779527559
0
LINE
8
BLACK
6
CONTINUOUS
10
0.031496062992126
20
0.4639763779527559
11
0.047244094488189
21
0.4639763779527559
0
LINE
8
BLACK
6
CONTINUOUS
10
0.047244094488189
20
0.4639763779527559
11
0.047244094488189
21
0.3852362204724409
0
LINE
8
BLACK
6
CONTINUOUS
10
0.0748031496062992
20
0.3852362204724409
11
0.0590551181102362
21
0.3852362204724409
0
LINE
8
BLACK
6
CONTINUOUS
10
0.0590551181102362
20
0.3852362204724409
11
0.0590551181102362
21
0.4639763779527559
0
LINE
8
BLACK
6
CONTINUOUS
10
0.0590551181102362
20
0.4639763779527559
11
0.0748031496062992
21
0.4639763779527559
0
LINE
8
BLACK
6
CONTINUOUS
10
0.0748031496062992
20
0.4639763779527559
11
0.0748031496062992
21
0.3852362204724409
0
LINE
8
BLACK
6
CONTINUOUS
10
0.1023622047244094
20
0.3852362204724409
11
0.0866141732283465
21
0.3852362204724409
0
LINE
8
BLACK
6
CONTINUOUS
10
0.0866141732283465
20
0.3852362204724409
11
0.0866141732283465
21
0.4639763779527559
0
LINE
8
BLACK
6
CONTINUOUS
10
0.0866141732283465
20
0.4639763779527559
11
0.1023622047244094
21
0.4639763779527559
0
LINE
8
BLACK
6
CONTINUOUS
10
0.1023622047244094
20
0.4639763779527559
11
0.1023622047244094
21
0.3852362204724409
0
LINE
8
BLACK
6
CONTINUOUS
10
0.1299212598425197
20
0.3852362204724409
11
0.1141732283464567
21
0.3852362204724409
0
LINE
8
BLACK
6
CONTINUOUS
10
0.1141732283464567
20
0.3852362204724409
11
0.1141732283464567
21
0.4639763779527559
0
LINE
8
BLACK
6
CONTINUOUS
10
0.1141732283464567
20
0.4639763779527559
11
0.1299212598425197
21
0.4639763779527559
0
LINE
8
BLACK
6
CONTINUOUS
10
0.1299212598425197
20
0.4639763779527559
11
0.1299212598425197
21
0.3852362204724409
0
LINE
8
BLACK
6
CONTINUOUS
10
0.1574803149606299
20
0.3852362204724409
11
0.1417322834645669
21
0.3852362204724409
0
LINE
8
BLACK
6
CONTINUOUS
10
0.1417322834645669
20
0.3852362204724409
11
0.1417322834645669
21
0.4639763779527559
0
LINE
8
BLACK
6
CONTINUOUS
10
0.1417322834645669
20
0.4639763779527559
11
0.1574803149606299
21
0.4639763779527559
0
LINE
8
BLACK
6
CONTINUOUS
10
0.1574803149606299
20
0.4639763779527559
11
0.1574803149606299
21
0.3852362204724409
0
LINE
8
BLACK
6
CONTINUOUS
10
0.1850393700787402
20
0.3852362204724409
11
0.1692913385826772
21
0.3852362204724409
0
LINE
8
BLACK
6
CONTINUOUS
10
0.1692913385826772
20
0.3852362204724409
11
0.1692913385826772
21
0.4639763779527559
0
LINE
8
BLACK
6
CONTINUOUS
10
0.1692913385826772
20
0.4639763779527559
11
0.1850393700787402
21
0.4639763779527559
0
LINE
8
BLACK
6
CONTINUOUS
10
0.1850393700787402
20
0.4639763779527559
11
0.1850393700787402
21
0.3852362204724409
0
LINE
8
BLACK
6
CONTINUOUS
10
0.2125984251968504
20
0.3852362204724409
11
0.1968503937007874
21
0.3852362204724409
0
LINE
8
BLACK
6
CONTINUOUS
10
0.1968503937007874
20
0.3852362204724409
11
0.1968503937007874
21
0.4639763779527559
0
LINE
8
BLACK
6
CONTINUOUS
10
0.1968503937007874
20
0.4639763779527559
11
0.2125984251968504
21
0.4639763779527559
0
LINE
8
BLACK
6
CONTINUOUS
10
0.2125984251968504
20
0.4639763779527559
11
0.2125984251968504
21
0.3852362204724409
0
LINE
8
BLACK
6
CONTINUOUS
10
0.2401574803149606
20
0.3852362204724409
11
0.2244094488188976
21
0.3852362204724409
0
LINE
8
BLACK
6
CONTINUOUS
10
0.2244094488188976
20
0.3852362204724409
11
0.2244094488188976
21
0.4639763779527559
0
LINE
8
BLACK
6
CONTINUOUS
10
0.2244094488188976
20
0.4639763779527559
11
0.2401574803149606
21
0.4639763779527559
0
LINE
8
BLACK
6
CONTINUOUS
10
0.2401574803149606
20
0.4639763779527559
11
0.2401574803149606
21
0.3852362204724409
0
LINE
8
BLACK
6
CONTINUOUS
10
0.2677165354330708
20
0.3852362204724409
11
0.2519685039370079
21
0.3852362204724409
0
LINE
8
BLACK
6
CONTINUOUS
10
0.2519685039370079
20
0.3852362204724409
11
0.2519685039370079
21
0.4639763779527559
0
LINE
8
BLACK
6
CONTINUOUS
10
0.2519685039370079
20
0.4639763779527559
11
0.2677165354330708
21
0.4639763779527559
0
LINE
8
BLACK
6
CONTINUOUS
10
0.2677165354330708
20
0.4639763779527559
11
0.2677165354330708
21
0.3852362204724409
0
LINE
8
BLACK
6
CONTINUOUS
10
0.2952755905511811
20
0.3852362204724409
11
0.2795275590551181
21
0.3852362204724409
0
LINE
8
BLACK
6
CONTINUOUS
10
0.2795275590551181
20
0.3852362204724409
11
0.2795275590551181
21
0.4639763779527559
0
LINE
8
BLACK
6
CONTINUOUS
10
0.2795275590551181
20
0.4639763779527559
11
0.2952755905511811
21
0.4639763779527559
0
LINE
8
BLACK
6
CONTINUOUS
10
0.2952755905511811
20
0.4639763779527559
11
0.2952755905511811
21
0.3852362204724409
0
LINE
8
BLACK
6
CONTINUOUS
10
0.3228346456692913
20
0.3852362204724409
11
0.3070866141732284
21
0.3852362204724409
0
LINE
8
BLACK
6
CONTINUOUS
10
0.3070866141732284
20
0.3852362204724409
11
0.3070866141732284
21
0.4639763779527559
0
LINE
8
BLACK
6
CONTINUOUS
10
0.3070866141732284
20
0.4639763779527559
11
0.3228346456692913
21
0.4639763779527559
0
LINE
8
BLACK
6
CONTINUOUS
10
0.3228346456692913
20
0.4639763779527559
11
0.3228346456692913
21
0.3852362204724409
0
LINE
8
BLACK
6
CONTINUOUS
10
0.3503937007874016
20
0.3852362204724409
11
0.3346456692913386
21
0.3852362204724409
0
LINE
8
BLACK
6
CONTINUOUS
10
0.3346456692913386
20
0.3852362204724409
11
0.3346456692913386
21
0.4639763779527559
0
LINE
8
BLACK
6
CONTINUOUS
10
0.3346456692913386
20
0.4639763779527559
11
0.3503937007874016
21
0.4639763779527559
0
LINE
8
BLACK
6
CONTINUOUS
10
0.3503937007874016
20
0.4639763779527559
11
0.3503937007874016
21
0.3852362204724409
0
LINE
8
BLACK
6
CONTINUOUS
10
0.3779527559055118
20
0.3852362204724409
11
0.3622047244094488
21
0.3852362204724409
0
LINE
8
BLACK
6
CONTINUOUS
10
0.3622047244094488
20
0.3852362204724409
11
0.3622047244094488
21
0.4639763779527559
0
LINE
8
BLACK
6
CONTINUOUS
10
0.3622047244094488
20
0.4639763779527559
11
0.3779527559055118
21
0.4639763779527559
0
LINE
8
BLACK
6
CONTINUOUS
10
0.3779527559055118
20
0.4639763779527559
11
0.3779527559055118
21
0.3852362204724409
0
LINE
8
BLACK
6
CONTINUOUS
10
0.405511811023622
20
0.3852362204724409
11
0.389763779527559
21
0.3852362204724409
0
LINE
8
BLACK
6
CONTINUOUS
10
0.389763779527559
20
0.3852362204724409
11
0.389763779527559
21
0.4639763779527559
0
LINE
8
BLACK
6
CONTINUOUS
10
0.389763779527559
20
0.4639763779527559
11
0.405511811023622
21
0.4639763779527559
0
LINE
8
BLACK
6
CONTINUOUS
10
0.405511811023622
20
0.4639763779527559
11
0.405511811023622
21
0.3852362204724409
0
LINE
8
BLACK
6
CONTINUOUS
10
-0.5659184645669291
20
0.5010224409448819
11
-0.5627253149606299
21
0.4988888582677165
0
LINE
8
BLACK
6
CONTINUOUS
10
-0.5627253149606299
20
0.4988888582677165
11
-0.5605917322834646
21
0.4956957086614173
0
LINE
8
BLACK
6
CONTINUOUS
10
-0.5605917322834646
20
0.4956957086614173
11
-0.5598425196850394
21
0.4919291338582677
0
LINE
8
BLACK
6
CONTINUOUS
10
-0.5598425196850394
20
0.4919291338582677
11
-0.5598425196850394
21
0.4545275590551181
0
LINE
8
BLACK
6
CONTINUOUS
10
-0.5598425196850394
20
0.4545275590551181
11
-0.5605917322834646
21
0.4507609842519685
0
LINE
8
BLACK
6
CONTINUOUS
10
-0.5605917322834646
20
0.4507609842519685
11
-0.5627253149606299
21
0.4475678346456693
0
LINE
8
BLACK
6
CONTINUOUS
10
-0.5627253149606299
20
0.4475678346456693
11
-0.5659184645669291
21
0.4454342519685039
0
LINE
8
BLACK
6
CONTINUOUS
10
-0.5659184645669291
20
0.4454342519685039
11
-0.5696850393700787
21
0.4446850393700787
0
LINE
8
BLACK
6
CONTINUOUS
10
-0.5696850393700787
20
0.4446850393700787
11
-0.5893700787401575
21
0.4446850393700787
0
LINE
8
BLACK
6
CONTINUOUS
10
-0.5893700787401575
20
0.4446850393700787
11
-0.593136653543307
21
0.4454342519685039
0
LINE
8
BLACK
6
CONTINUOUS
10
-0.593136653543307
20
0.4454342519685039
11
-0.5963298031496063
21
0.4475678346456693
0
LINE
8
BLACK
6
CONTINUOUS
10
-0.5963298031496063
20
0.4475678346456693
11
-0.5984633858267716
21
0.4507609842519685
0
LINE
8
BLACK
6
CONTINUOUS
10
-0.5984633858267716
20
0.4507609842519685
11
-0.5992125984251968
21
0.4545275590551181
0
LINE
8
BLACK
6
CONTINUOUS
10
-0.5992125984251968
20
0.4545275590551181
11
-0.5992125984251968
21
0.4919291338582677
0
LINE
8
BLACK
6
CONTINUOUS
10
-0.5992125984251968
20
0.4919291338582677
11
-0.5984633858267716
21
0.4956957086614173
0
LINE
8
BLACK
6
CONTINUOUS
10
-0.5984633858267716
20
0.4956957086614173
11
-0.5963298031496063
21
0.4988888582677165
0
LINE
8
BLACK
6
CONTINUOUS
10
-0.5963298031496063
20
0.4988888582677165
11
-0.593136653543307
21
0.5010224409448819
0
LINE
8
BLACK
6
CONTINUOUS
10
-0.593136653543307
20
0.5010224409448819
11
-0.5893700787401575
21
0.5017716535433071
0
LINE
8
BLACK
6
CONTINUOUS
10
-0.5893700787401575
20
0.5017716535433071
11
-0.5696850393700787
21
0.5017716535433071
0
LINE
8
BLACK
6
CONTINUOUS
10
-0.5696850393700787
20
0.5017716535433071
11
-0.5659184645669291
21
0.5010224409448819
0
LINE
8
BLACK
6
CONTINUOUS
10
-0.4911153149606299
20
0.5010224409448819
11
-0.4879221653543307
21
0.4988888582677165
0
LINE
8
BLACK
6
CONTINUOUS
10
-0.4879221653543307
20
0.4988888582677165
11
-0.4857885826771653
21
0.4956957086614173
0
LINE
8
BLACK
6
CONTINUOUS
10
-0.4857885826771653
20
0.4956957086614173
11
-0.4850393700787402
21
0.4919291338582677
0
LINE
8
BLACK
6
CONTINUOUS
10
-0.4850393700787402
20
0.4919291338582677
11
-0.4850393700787402
21
0.4545275590551181
0
LINE
8
BLACK
6
CONTINUOUS
10
-0.4850393700787402
20
0.4545275590551181
11
-0.4857885826771653
21
0.4507609842519685
0
LINE
8
BLACK
6
CONTINUOUS
10
-0.4857885826771653
20
0.4507609842519685
11
-0.4879221653543307
21
0.4475678346456693
0
LINE
8
BLACK
6
CONTINUOUS
10
-0.4879221653543307
20
0.4475678346456693
11
-0.4911153149606299
21
0.4454342519685039
0
LINE
8
BLACK
6
CONTINUOUS
10
-0.4911153149606299
20
0.4454342519685039
11
-0.4948818897637795
21
0.4446850393700787
0
LINE
8
BLACK
6
CONTINUOUS
10
-0.4948818897637795
20
0.4446850393700787
11
-0.5145669291338583
21
0.4446850393700787
0
LINE
8
BLACK
6
CONTINUOUS
10
-0.5145669291338583
20
0.4446850393700787
11
-0.5183335039370078
21
0.4454342519685039
0
LINE
8
BLACK
6
CONTINUOUS
10
-0.5183335039370078
20
0.4454342519685039
11
-0.5215266535433071
21
0.4475678346456693
0
LINE
8
BLACK
6
CONTINUOUS
10
-0.5215266535433071
20
0.4475678346456693
11
-0.5236602362204724
21
0.4507609842519685
0
LINE
8
BLACK
6
CONTINUOUS
10
-0.5236602362204724
20
0.4507609842519685
11
-0.5244094488188976
21
0.4545275590551181
0
LINE
8
BLACK
6
CONTINUOUS
10
-0.5244094488188976
20
0.4545275590551181
11
-0.5244094488188976
21
0.4919291338582677
0
LINE
8
BLACK
6
CONTINUOUS
10
-0.5244094488188976
20
0.4919291338582677
11
-0.5236602362204724
21
0.4956957086614173
0
LINE
8
BLACK
6
CONTINUOUS
10
-0.5236602362204724
20
0.4956957086614173
11
-0.5215266535433071
21
0.4988888582677165
0
LINE
8
BLACK
6
CONTINUOUS
10
-0.5215266535433071
20
0.4988888582677165
11
-0.5183335039370078
21
0.5010224409448819
0
LINE
8
BLACK
6
CONTINUOUS
10
-0.5183335039370078
20
0.5010224409448819
11
-0.5145669291338583
21
0.5017716535433071
0
LINE
8
BLACK
6
CONTINUOUS
10
-0.5145669291338583
20
0.5017716535433071
11
-0.4948818897637795
21
0.5017716535433071
0
LINE
8
BLACK
6
CONTINUOUS
10
-0.4948818897637795
20
0.5017716535433071
11
-0.4911153149606299
21
0.5010224409448819
0
LINE
8
BLACK
6
CONTINUOUS
10
-0.5663121653543307
20
0.5825185039370079
11
-0.5631190157480315
21
0.5803849212598425
0
LINE
8
BLACK
6
CONTINUOUS
10
-0.5631190157480315
20
0.5803849212598425
11
-0.5609854330708661
21
0.5771917716535433
0
LINE
8
BLACK
6
CONTINUOUS
10
-0.5609854330708661
20
0.5771917716535433
11
-0.5602362204724409
21
0.5734251968503937
0
LINE
8
BLACK
6
CONTINUOUS
10
-0.5602362204724409
20
0.5734251968503937
11
-0.5602362204724409
21
0.5360236220472441
0
LINE
8
BLACK
6
CONTINUOUS
10
-0.5602362204724409
20
0.5360236220472441
11
-0.5609854330708661
21
0.5322570472440945
0
LINE
8
BLACK
6
CONTINUOUS
10
-0.5609854330708661
20
0.5322570472440945
11
-0.5631190157480315
21
0.5290638976377953
0
LINE
8
BLACK
6
CONTINUOUS
10
-0.5631190157480315
20
0.5290638976377953
11
-0.5663121653543307
21
0.5269303149606299
0
LINE
8
BLACK
6
CONTINUOUS
10
-0.5663121653543307
20
0.5269303149606299
11
-0.5700787401574803
21
0.5261811023622047
0
LINE
8
BLACK
6
CONTINUOUS
10
-0.5700787401574803
20
0.5261811023622047
11
-0.5897637795275591
21
0.5261811023622047
0
LINE
8
BLACK
6
CONTINUOUS
10
-0.5897637795275591
20
0.5261811023622047
11
-0.5935303543307087
21
0.5269303149606299
0
LINE
8
BLACK
6
CONTINUOUS
10
-0.5935303543307087
20
0.5269303149606299
11
-0.5967235039370079
21
0.5290638976377953
0
LINE
8
BLACK
6
CONTINUOUS
10
-0.5967235039370079
20
0.5290638976377953
11
-0.5988570866141733
21
0.5322570472440945
0
LINE
8
BLACK
6
CONTINUOUS
10
-0.5988570866141733
20
0.5322570472440945
11
-0.5996062992125984
21
0.5360236220472441
0
LINE
8
BLACK
6
CONTINUOUS
10
-0.5996062992125984
20
0.5360236220472441
11
-0.5996062992125984
21
0.5734251968503937
0
LINE
8
BLACK
6
CONTINUOUS
10
-0.5996062992125984
20
0.5734251968503937
11
-0.5988570866141733
21
0.5771917716535433
0
LINE
8
BLACK
6
CONTINUOUS
10
-0.5988570866141733
20
0.5771917716535433
11
-0.5967235039370079
21
0.5803849212598425
0
LINE
8
BLACK
6
CONTINUOUS
10
-0.5967235039370079
20
0.5803849212598425
11
-0.5935303543307087
21
0.5825185039370079
0
LINE
8
BLACK
6
CONTINUOUS
10
-0.5935303543307087
20
0.5825185039370079
11
-0.5897637795275591
21
0.5832677165354331
0
LINE
8
BLACK
6
CONTINUOUS
10
-0.5897637795275591
20
0.5832677165354331
11
-0.5700787401574803
21
0.5832677165354331
0
LINE
8
BLACK
6
CONTINUOUS
10
-0.5700787401574803
20
0.5832677165354331
11
-0.5663121653543307
21
0.5825185039370079
0
LINE
8
BLACK
6
CONTINUOUS
10
-0.4915090157480315
20
0.5825185039370079
11
-0.4883158661417323
21
0.5803849212598425
0
LINE
8
BLACK
6
CONTINUOUS
10
-0.4883158661417323
20
0.5803849212598425
11
-0.4861822834645669
21
0.5771917716535433
0
LINE
8
BLACK
6
CONTINUOUS
10
-0.4861822834645669
20
0.5771917716535433
11
-0.4854330708661417
21
0.5734251968503937
0
LINE
8
BLACK
6
CONTINUOUS
10
-0.4854330708661417
20
0.5734251968503937
11
-0.4854330708661417
21
0.5360236220472441
0
LINE
8
BLACK
6
CONTINUOUS
10
-0.4854330708661417
20
0.5360236220472441
11
-0.4861822834645669
21
0.5322570472440945
0
LINE
8
BLACK
6
CONTINUOUS
10
-0.4861822834645669
20
0.5322570472440945
11
-0.4883158661417323
21
0.5290638976377953
0
LINE
8
BLACK
6
CONTINUOUS
10
-0.4883158661417323
20
0.5290638976377953
11
-0.4915090157480315
21
0.5269303149606299
0
LINE
8
BLACK
6
CONTINUOUS
10
-0.4915090157480315
20
0.5269303149606299
11
-0.4952755905511811
21
0.5261811023622047
0
LINE
8
BLACK
6
CONTINUOUS
10
-0.4952755905511811
20
0.5261811023622047
11
-0.5149606299212598
21
0.5261811023622047
0
LINE
8
BLACK
6
CONTINUOUS
10
-0.5149606299212598
20
0.5261811023622047
11
-0.5187272047244095
21
0.5269303149606299
0
LINE
8
BLACK
6
CONTINUOUS
10
-0.5187272047244095
20
0.5269303149606299
11
-0.5219203543307086
21
0.5290638976377953
0
LINE
8
BLACK
6
CONTINUOUS
10
-0.5219203543307086
20
0.5290638976377953
11
-0.5240539370078739
21
0.5322570472440945
0
LINE
8
BLACK
6
CONTINUOUS
10
-0.5240539370078739
20
0.5322570472440945
11
-0.5248031496062991
21
0.5360236220472441
0
LINE
8
BLACK
6
CONTINUOUS
10
-0.5248031496062991
20
0.5360236220472441
11
-0.5248031496062991
21
0.5734251968503937
0
LINE
8
BLACK
6
CONTINUOUS
10
-0.5248031496062991
20
0.5734251968503937
11
-0.5240539370078739
21
0.5771917716535433
0
LINE
8
BLACK
6
CONTINUOUS
10
-0.5240539370078739
20
0.5771917716535433
11
-0.5219203543307086
21
0.5803849212598425
0
LINE
8
BLACK
6
CONTINUOUS
10
-0.5219203543307086
20
0.5803849212598425
11
-0.5187272047244095
21
0.5825185039370079
0
LINE
8
BLACK
6
CONTINUOUS
10
-0.5187272047244095
20
0.5825185039370079
11
-0.5149606299212598
21
0.5832677165354331
0
LINE
8
BLACK
6
CONTINUOUS
10
-0.5149606299212598
20
0.5832677165354331
11
-0.4952755905511811
21
0.5832677165354331
0
LINE
8
BLACK
6
CONTINUOUS
10
-0.4952755905511811
20
0.5832677165354331
11
-0.4915090157480315
21
0.5825185039370079
  0
ENDSEC
  0
EOF
