  0
SECTION
  2
HEADER
  9
$ANGBASE
  50
0.0
  9
$ANGDIR
  70
1
  9
$MEASUREMENT
  70
0
  0
ENDSEC
  0
SECTION
  2
TABLES
  0
TABLE
  2
LTYPE
  70
4
  0
LTYPE
  5
40F
  2
CONTINUOUS
  70
0
  3
Solid line
  72
65
  73
0
  40
0.0
  0
LTYPE
  5
410
  2
DASHDOT
 70
0
  3
Dash Dot ____ _ ____ _
 72
65
 73
4
 40
2.0
 49
1.25
 49
-0.25
 49
0.25
 49
-0.25
  0
LTYPE
  5
411
  2
DASHED
 70
0
  3
Dashed __ __ __ __ __
 72
65
 73
2
 40
0.75
 49
0.5
 49
-0.25
  0
LTYPE
  5
43B
  2
DOTTED
 70
0
  3
Dotted .  .  .  .
 72
65
 73
2
 40
0.2
 49
0.0
 49
-0.2
  0
ENDTAB
  0
TABLE
  2
STYLE
  70
4
  0
STYLE
  2
KICAD
  70
0
  40
0
  41
1
  42
1
  50
0
  71
0
  3
isocp.shx
  0
STYLE
  2
KICADB
  70
0
  40
0
  41
1
  42
1
  50
0
  71
0
  3
isocp.shx
  0
STYLE
  2
KICADI
  70
0
  40
0
  41
1
  42
1
  50
15
  71
0
  3
isocp.shx
  0
STYLE
  2
KICADBI
  70
0
  40
0
  41
1
  42
1
  50
15
  71
0
  3
isocp.shx
  0
ENDTAB
  0
TABLE
  2
LAYER
  70
1
  0
LAYER
  2
BLACK
  70
0
  62
7
  6
CONTINUOUS
  0
ENDTAB
  0
ENDSEC
  0
SECTION
  2
ENTITIES
0
LINE
8
BLACK
6
CONTINUOUS
10
0.016330905511811
20
0.3872899212598425
11
0.0190011023622047
21
0.3857482677165354
0
LINE
8
BLACK
6
CONTINUOUS
10
0.0190011023622047
20
0.3857482677165354
11
0.0211813385826772
21
0.383568031496063
0
LINE
8
BLACK
6
CONTINUOUS
10
0.0211813385826772
20
0.383568031496063
11
0.0219229921259843
21
0.3822834645669291
0
LINE
8
BLACK
6
CONTINUOUS
10
0.0219229921259843
20
0.3822834645669291
11
0.2224409448818898
21
0.3822834645669291
0
LINE
8
BLACK
6
CONTINUOUS
10
0.2224409448818898
20
0.3822834645669291
11
0.2235930708661417
21
0.38217
0
LINE
8
BLACK
6
CONTINUOUS
10
0.2235930708661417
20
0.38217
11
0.224474842519685
21
0.3818047637795275
0
LINE
8
BLACK
6
CONTINUOUS
10
0.224474842519685
20
0.3818047637795275
11
0.2257218503937008
21
0.3812882283464567
0
LINE
8
BLACK
6
CONTINUOUS
10
0.2257218503937008
20
0.3812882283464567
11
0.2266167716535433
21
0.380553779527559
0
LINE
8
BLACK
6
CONTINUOUS
10
0.2266167716535433
20
0.380553779527559
11
0.2900025984251968
21
0.3171679527559055
0
LINE
8
BLACK
6
CONTINUOUS
10
0.2900025984251968
20
0.3171679527559055
11
0.2907370472440945
21
0.316273031496063
0
LINE
8
BLACK
6
CONTINUOUS
10
0.2907370472440945
20
0.316273031496063
11
0.2910511811023622
21
0.3155146456692913
0
LINE
8
BLACK
6
CONTINUOUS
10
0.2910511811023622
20
0.3155146456692913
11
0.2916188188976378
21
0.3141442519685039
0
LINE
8
BLACK
6
CONTINUOUS
10
0.2916188188976378
20
0.3141442519685039
11
0.2917322834645669
21
0.312992125984252
0
LINE
8
BLACK
6
CONTINUOUS
10
0.2917322834645669
20
0.312992125984252
11
0.2917322834645669
21
0.1557812598425197
0
LINE
8
BLACK
6
CONTINUOUS
10
0.2917322834645669
20
0.1557812598425197
11
0.2930168503937008
21
0.1550396062992126
0
LINE
8
BLACK
6
CONTINUOUS
10
0.2930168503937008
20
0.1550396062992126
11
0.2951970866141732
21
0.1528593700787401
0
LINE
8
BLACK
6
CONTINUOUS
10
0.2951970866141732
20
0.1528593700787401
11
0.2967387401574803
21
0.1501891732283465
0
LINE
8
BLACK
6
CONTINUOUS
10
0.2967387401574803
20
0.1501891732283465
11
0.2975367322834646
21
0.1472109448818898
0
LINE
8
BLACK
6
CONTINUOUS
10
0.2975367322834646
20
0.1472109448818898
11
0.2975367322834646
21
0.1441276377952756
0
LINE
8
BLACK
6
CONTINUOUS
10
0.2975367322834646
20
0.1441276377952756
11
0.2967387401574803
21
0.1411494094488189
0
LINE
8
BLACK
6
CONTINUOUS
10
0.2967387401574803
20
0.1411494094488189
11
0.2951970866141732
21
0.1384792125984252
0
LINE
8
BLACK
6
CONTINUOUS
10
0.2951970866141732
20
0.1384792125984252
11
0.2930168503937008
21
0.1362989763779527
0
LINE
8
BLACK
6
CONTINUOUS
10
0.2930168503937008
20
0.1362989763779527
11
0.2903466535433071
21
0.1347573228346457
0
LINE
8
BLACK
6
CONTINUOUS
10
0.2903466535433071
20
0.1347573228346457
11
0.2873684251968504
21
0.1339593307086614
0
LINE
8
BLACK
6
CONTINUOUS
10
0.2873684251968504
20
0.1339593307086614
11
0.2842851181102362
21
0.1339593307086614
0
LINE
8
BLACK
6
CONTINUOUS
10
0.2842851181102362
20
0.1339593307086614
11
0.2813068897637795
21
0.1347573228346457
0
LINE
8
BLACK
6
CONTINUOUS
10
0.2813068897637795
20
0.1347573228346457
11
0.2786366929133858
21
0.1362989763779527
0
LINE
8
BLACK
6
CONTINUOUS
10
0.2786366929133858
20
0.1362989763779527
11
0.2764564566929134
21
0.1384792125984252
0
LINE
8
BLACK
6
CONTINUOUS
10
0.2764564566929134
20
0.1384792125984252
11
0.2749148031496063
21
0.1411494094488189
0
LINE
8
BLACK
6
CONTINUOUS
10
0.2749148031496063
20
0.1411494094488189
11
0.2741168110236221
21
0.1441276377952756
0
LINE
8
BLACK
6
CONTINUOUS
10
0.2741168110236221
20
0.1441276377952756
11
0.2741168110236221
21
0.1472109448818898
0
LINE
8
BLACK
6
CONTINUOUS
10
0.2741168110236221
20
0.1472109448818898
11
0.2749148031496063
21
0.1501891732283465
0
LINE
8
BLACK
6
CONTINUOUS
10
0.2749148031496063
20
0.1501891732283465
11
0.2764564566929134
21
0.1528593700787401
0
LINE
8
BLACK
6
CONTINUOUS
10
0.2764564566929134
20
0.1528593700787401
11
0.2786366929133858
21
0.1550396062992126
0
LINE
8
BLACK
6
CONTINUOUS
10
0.2786366929133858
20
0.1550396062992126
11
0.2799212598425197
21
0.1557812598425197
0
LINE
8
BLACK
6
CONTINUOUS
10
0.2799212598425197
20
0.1557812598425197
11
0.2799212598425197
21
0.3105459842519685
0
LINE
8
BLACK
6
CONTINUOUS
10
0.2799212598425197
20
0.3105459842519685
11
0.2199948031496063
21
0.3704724409448819
0
LINE
8
BLACK
6
CONTINUOUS
10
0.2199948031496063
20
0.3704724409448819
11
0.0219229921259843
21
0.3704724409448819
0
LINE
8
BLACK
6
CONTINUOUS
10
0.0219229921259843
20
0.3704724409448819
11
0.0211813385826772
21
0.369187874015748
0
LINE
8
BLACK
6
CONTINUOUS
10
0.0211813385826772
20
0.369187874015748
11
0.0190011023622047
21
0.3670076377952756
0
LINE
8
BLACK
6
CONTINUOUS
10
0.0190011023622047
20
0.3670076377952756
11
0.016330905511811
21
0.3654659842519685
0
LINE
8
BLACK
6
CONTINUOUS
10
0.016330905511811
20
0.3654659842519685
11
0.0133526771653543
21
0.3646679921259842
0
LINE
8
BLACK
6
CONTINUOUS
10
0.0133526771653543
20
0.3646679921259842
11
0.0102693700787402
21
0.3646679921259842
0
LINE
8
BLACK
6
CONTINUOUS
10
0.0102693700787402
20
0.3646679921259842
11
0.0072911417322835
21
0.3654659842519685
0
LINE
8
BLACK
6
CONTINUOUS
10
0.0072911417322835
20
0.3654659842519685
11
0.0046209448818898
21
0.3670076377952756
0
LINE
8
BLACK
6
CONTINUOUS
10
0.0046209448818898
20
0.3670076377952756
11
0.0024407086614173
21
0.369187874015748
0
LINE
8
BLACK
6
CONTINUOUS
10
0.0024407086614173
20
0.369187874015748
11
0.0008990551181102
21
0.3718580708661417
0
LINE
8
BLACK
6
CONTINUOUS
10
0.0008990551181102
20
0.3718580708661417
11
0.000101062992126
21
0.3748362992125984
0
LINE
8
BLACK
6
CONTINUOUS
10
0.000101062992126
20
0.3748362992125984
11
0.000101062992126
21
0.3779196062992126
0
LINE
8
BLACK
6
CONTINUOUS
10
0.000101062992126
20
0.3779196062992126
11
0.0008990551181102
21
0.3808978346456693
0
LINE
8
BLACK
6
CONTINUOUS
10
0.0008990551181102
20
0.3808978346456693
11
0.0024407086614173
21
0.383568031496063
0
LINE
8
BLACK
6
CONTINUOUS
10
0.0024407086614173
20
0.383568031496063
11
0.0046209448818898
21
0.3857482677165354
0
LINE
8
BLACK
6
CONTINUOUS
10
0.0046209448818898
20
0.3857482677165354
11
0.0072911417322835
21
0.3872899212598425
0
LINE
8
BLACK
6
CONTINUOUS
10
0.0072911417322835
20
0.3872899212598425
11
0.0102693700787402
21
0.3880879133858268
0
LINE
8
BLACK
6
CONTINUOUS
10
0.0102693700787402
20
0.3880879133858268
11
0.0133526771653543
21
0.3880879133858268
0
LINE
8
BLACK
6
CONTINUOUS
10
0.0133526771653543
20
0.3880879133858268
11
0.016330905511811
21
0.3872899212598425
0
LINE
8
BLACK
6
CONTINUOUS
10
0.0438899606299213
20
0.4786285039370078
11
0.046560157480315
21
0.4770868503937008
0
LINE
8
BLACK
6
CONTINUOUS
10
0.046560157480315
20
0.4770868503937008
11
0.0487403937007874
21
0.4749066141732283
0
LINE
8
BLACK
6
CONTINUOUS
10
0.0487403937007874
20
0.4749066141732283
11
0.0502820472440945
21
0.4722364173228346
0
LINE
8
BLACK
6
CONTINUOUS
10
0.0502820472440945
20
0.4722364173228346
11
0.0510800393700787
21
0.4692581889763779
0
LINE
8
BLACK
6
CONTINUOUS
10
0.0510800393700787
20
0.4692581889763779
11
0.0510800393700787
21
0.4661748818897637
0
LINE
8
BLACK
6
CONTINUOUS
10
0.0510800393700787
20
0.4661748818897637
11
0.0506961417322835
21
0.464742125984252
0
LINE
8
BLACK
6
CONTINUOUS
10
0.0506961417322835
20
0.464742125984252
11
0.0654382677165354
21
0.45
0
LINE
8
BLACK
6
CONTINUOUS
10
0.0654382677165354
20
0.45
11
0.2963582677165355
21
0.45
0
LINE
8
BLACK
6
CONTINUOUS
10
0.2963582677165355
20
0.45
11
0.2975103937007874
21
0.4498865354330708
0
LINE
8
BLACK
6
CONTINUOUS
10
0.2975103937007874
20
0.4498865354330708
11
0.2983921653543307
21
0.4495212992125984
0
LINE
8
BLACK
6
CONTINUOUS
10
0.2983921653543307
20
0.4495212992125984
11
0.2996391732283464
21
0.4490047637795275
0
LINE
8
BLACK
6
CONTINUOUS
10
0.2996391732283464
20
0.4490047637795275
11
0.300534094488189
21
0.4482703149606299
0
LINE
8
BLACK
6
CONTINUOUS
10
0.300534094488189
20
0.4482703149606299
11
0.4572617716535433
21
0.2915426377952756
0
LINE
8
BLACK
6
CONTINUOUS
10
0.4572617716535433
20
0.2915426377952756
11
0.4586945669291339
21
0.2919264960629921
0
LINE
8
BLACK
6
CONTINUOUS
10
0.4586945669291339
20
0.2919264960629921
11
0.461777874015748
21
0.2919264960629921
0
LINE
8
BLACK
6
CONTINUOUS
10
0.461777874015748
20
0.2919264960629921
11
0.4647561023622047
21
0.2911285039370078
0
LINE
8
BLACK
6
CONTINUOUS
10
0.4647561023622047
20
0.2911285039370078
11
0.4674262992125984
21
0.2895868503937008
0
LINE
8
BLACK
6
CONTINUOUS
10
0.4674262992125984
20
0.2895868503937008
11
0.4696065354330708
21
0.2874066141732283
0
LINE
8
BLACK
6
CONTINUOUS
10
0.4696065354330708
20
0.2874066141732283
11
0.4711481889763779
21
0.2847364173228346
0
LINE
8
BLACK
6
CONTINUOUS
10
0.4711481889763779
20
0.2847364173228346
11
0.4719461811023622
21
0.2817581889763779
0
LINE
8
BLACK
6
CONTINUOUS
10
0.4719461811023622
20
0.2817581889763779
11
0.4719461811023622
21
0.2786748818897637
0
LINE
8
BLACK
6
CONTINUOUS
10
0.4719461811023622
20
0.2786748818897637
11
0.4711481889763779
21
0.2756966535433071
0
LINE
8
BLACK
6
CONTINUOUS
10
0.4711481889763779
20
0.2756966535433071
11
0.4696065354330708
21
0.2730264566929134
0
LINE
8
BLACK
6
CONTINUOUS
10
0.4696065354330708
20
0.2730264566929134
11
0.4674262992125984
21
0.2708462204724409
0
LINE
8
BLACK
6
CONTINUOUS
10
0.4674262992125984
20
0.2708462204724409
11
0.4647561023622047
21
0.2693045669291338
0
LINE
8
BLACK
6
CONTINUOUS
10
0.4647561023622047
20
0.2693045669291338
11
0.461777874015748
21
0.2685065748031496
0
LINE
8
BLACK
6
CONTINUOUS
10
0.461777874015748
20
0.2685065748031496
11
0.4586945669291339
21
0.2685065748031496
0
LINE
8
BLACK
6
CONTINUOUS
10
0.4586945669291339
20
0.2685065748031496
11
0.4557163385826771
21
0.2693045669291338
0
LINE
8
BLACK
6
CONTINUOUS
10
0.4557163385826771
20
0.2693045669291338
11
0.4530461417322835
21
0.2708462204724409
0
LINE
8
BLACK
6
CONTINUOUS
10
0.4530461417322835
20
0.2708462204724409
11
0.450865905511811
21
0.2730264566929134
0
LINE
8
BLACK
6
CONTINUOUS
10
0.450865905511811
20
0.2730264566929134
11
0.449324251968504
21
0.2756966535433071
0
LINE
8
BLACK
6
CONTINUOUS
10
0.449324251968504
20
0.2756966535433071
11
0.4485262598425196
21
0.2786748818897637
0
LINE
8
BLACK
6
CONTINUOUS
10
0.4485262598425196
20
0.2786748818897637
11
0.4485262598425196
21
0.2817581889763779
0
LINE
8
BLACK
6
CONTINUOUS
10
0.4485262598425196
20
0.2817581889763779
11
0.4489101181102362
21
0.2831909842519685
0
LINE
8
BLACK
6
CONTINUOUS
10
0.4489101181102362
20
0.2831909842519685
11
0.293912125984252
21
0.4381889763779527
0
LINE
8
BLACK
6
CONTINUOUS
10
0.293912125984252
20
0.4381889763779527
11
0.062992125984252
21
0.4381889763779527
0
LINE
8
BLACK
6
CONTINUOUS
10
0.062992125984252
20
0.4381889763779527
11
0.06184
21
0.4383024409448819
0
LINE
8
BLACK
6
CONTINUOUS
10
0.06184
20
0.4383024409448819
11
0.0609137007874016
21
0.4386861417322834
0
LINE
8
BLACK
6
CONTINUOUS
10
0.0609137007874016
20
0.4386861417322834
11
0.0597112204724409
21
0.4391842125984252
0
LINE
8
BLACK
6
CONTINUOUS
10
0.0597112204724409
20
0.4391842125984252
11
0.0588162992125984
21
0.4399186614173228
0
LINE
8
BLACK
6
CONTINUOUS
10
0.0588162992125984
20
0.4399186614173228
11
0.0423444881889764
21
0.4563904724409449
0
LINE
8
BLACK
6
CONTINUOUS
10
0.0423444881889764
20
0.4563904724409449
11
0.0409117322834646
21
0.4560065748031496
0
LINE
8
BLACK
6
CONTINUOUS
10
0.0409117322834646
20
0.4560065748031496
11
0.0378284251968504
21
0.4560065748031496
0
LINE
8
BLACK
6
CONTINUOUS
10
0.0378284251968504
20
0.4560065748031496
11
0.0348501968503937
21
0.4568045669291338
0
LINE
8
BLACK
6
CONTINUOUS
10
0.0348501968503937
20
0.4568045669291338
11
0.03218
21
0.4583462204724409
0
LINE
8
BLACK
6
CONTINUOUS
10
0.03218
20
0.4583462204724409
11
0.0299997637795276
21
0.4605264566929134
0
LINE
8
BLACK
6
CONTINUOUS
10
0.0299997637795276
20
0.4605264566929134
11
0.0284581102362205
21
0.4631966535433071
0
LINE
8
BLACK
6
CONTINUOUS
10
0.0284581102362205
20
0.4631966535433071
11
0.0276601181102362
21
0.4661748818897637
0
LINE
8
BLACK
6
CONTINUOUS
10
0.0276601181102362
20
0.4661748818897637
11
0.0276601181102362
21
0.4692581889763779
0
LINE
8
BLACK
6
CONTINUOUS
10
0.0276601181102362
20
0.4692581889763779
11
0.0284581102362205
21
0.4722364173228346
0
LINE
8
BLACK
6
CONTINUOUS
10
0.0284581102362205
20
0.4722364173228346
11
0.0299997637795276
21
0.4749066141732283
0
LINE
8
BLACK
6
CONTINUOUS
10
0.0299997637795276
20
0.4749066141732283
11
0.03218
21
0.4770868503937008
0
LINE
8
BLACK
6
CONTINUOUS
10
0.03218
20
0.4770868503937008
11
0.0348501968503937
21
0.4786285039370078
0
LINE
8
BLACK
6
CONTINUOUS
10
0.0348501968503937
20
0.4786285039370078
11
0.0378284251968504
21
0.4794264960629921
0
LINE
8
BLACK
6
CONTINUOUS
10
0.0378284251968504
20
0.4794264960629921
11
0.0409117322834646
21
0.4794264960629921
0
LINE
8
BLACK
6
CONTINUOUS
10
0.0409117322834646
20
0.4794264960629921
11
0.0438899606299213
21
0.4786285039370078
0
LINE
8
BLACK
6
CONTINUOUS
10
0.7662416929133858
20
0.9716462598425196
11
0.7680430708661418
21
0.9695673622047244
0
LINE
8
BLACK
6
CONTINUOUS
10
0.7680430708661418
20
0.9695673622047244
11
0.7684842519685039
21
0.9675393700787401
0
LINE
8
BLACK
6
CONTINUOUS
10
0.7684842519685039
20
0.9675393700787401
11
0.7684842519685039
21
-0.5636023622047244
0
LINE
8
BLACK
6
CONTINUOUS
10
0.7684842519685039
20
-0.5636023622047244
11
0.7677092519685039
21
-0.5662416929133858
0
LINE
8
BLACK
6
CONTINUOUS
10
0.7677092519685039
20
-0.5662416929133858
11
0.7656303543307087
21
-0.5680430708661417
0
LINE
8
BLACK
6
CONTINUOUS
10
0.7656303543307087
20
-0.5680430708661417
11
0.7636023622047244
21
-0.5684842519685039
0
LINE
8
BLACK
6
CONTINUOUS
10
0.7636023622047244
20
-0.5684842519685039
11
0.0493811417322835
21
-0.5684842519685039
0
LINE
8
BLACK
6
CONTINUOUS
10
0.0493811417322835
20
-0.5684842519685039
11
0.046741811023622
21
-0.567709251968504
0
LINE
8
BLACK
6
CONTINUOUS
10
0.046741811023622
20
-0.567709251968504
11
0.0449404330708661
21
-0.5656303543307086
0
LINE
8
BLACK
6
CONTINUOUS
10
0.0449404330708661
20
-0.5656303543307086
11
0.044548937007874
21
-0.5629075984251969
0
LINE
8
BLACK
6
CONTINUOUS
10
0.044548937007874
20
-0.5629075984251969
11
0.0456916535433071
21
-0.5604053937007873
0
LINE
8
BLACK
6
CONTINUOUS
10
0.0456916535433071
20
-0.5604053937007873
11
0.0478725590551181
21
-0.5589594094488188
0
LINE
8
BLACK
6
CONTINUOUS
10
0.0478725590551181
20
-0.5589594094488188
11
0.0522920078740158
21
-0.5575234251968504
0
LINE
8
BLACK
6
CONTINUOUS
10
0.0522920078740158
20
-0.5575234251968504
11
0.0597463385826772
21
-0.5537251968503937
0
LINE
8
BLACK
6
CONTINUOUS
10
0.0597463385826772
20
-0.5537251968503937
11
0.0665141338582677
21
-0.5488081496062992
0
LINE
8
BLACK
6
CONTINUOUS
10
0.0665141338582677
20
-0.5488081496062992
11
0.0665143307086614
21
-0.5488079921259842
0
LINE
8
BLACK
6
CONTINUOUS
10
0.0665143307086614
20
-0.5488079921259842
11
0.0724300393700787
21
-0.542892283464567
0
LINE
8
BLACK
6
CONTINUOUS
10
0.0724300393700787
20
-0.542892283464567
11
0.0724301968503937
21
-0.5428920866141732
0
LINE
8
BLACK
6
CONTINUOUS
10
0.0724301968503937
20
-0.5428920866141732
11
0.0773472440944882
21
-0.5361242913385826
0
LINE
8
BLACK
6
CONTINUOUS
10
0.0773472440944882
20
-0.5361242913385826
11
0.0811454724409449
21
-0.5286699606299212
0
LINE
8
BLACK
6
CONTINUOUS
10
0.0811454724409449
20
-0.5286699606299212
11
0.0837305905511811
21
-0.5207137401574803
0
LINE
8
BLACK
6
CONTINUOUS
10
0.0837305905511811
20
-0.5207137401574803
11
0.0837305905511811
21
-0.520713622047244
0
LINE
8
BLACK
6
CONTINUOUS
10
0.0837305905511811
20
-0.520713622047244
11
0.0841429527559055
21
-0.5181102362204725
0
LINE
8
BLACK
6
CONTINUOUS
10
0.0841429527559055
20
-0.5181102362204725
11
0.0638601968503937
21
-0.5181102362204725
0
LINE
8
BLACK
6
CONTINUOUS
10
0.0638601968503937
20
-0.5181102362204725
11
0.061402874015748
21
-0.5240427952755905
0
LINE
8
BLACK
6
CONTINUOUS
10
0.061402874015748
20
-0.5240427952755905
11
0.0577582283464567
21
-0.5294974015748032
0
LINE
8
BLACK
6
CONTINUOUS
10
0.0577582283464567
20
-0.5294974015748032
11
0.0531194488188976
21
-0.5341361811023622
0
LINE
8
BLACK
6
CONTINUOUS
10
0.0531194488188976
20
-0.5341361811023622
11
0.047664842519685
21
-0.5377808267716535
0
LINE
8
BLACK
6
CONTINUOUS
10
0.047664842519685
20
-0.5377808267716535
11
0.0416040157480315
21
-0.5402912992125984
0
LINE
8
BLACK
6
CONTINUOUS
10
0.0416040157480315
20
-0.5402912992125984
11
0.0351698818897638
21
-0.5415711417322835
0
LINE
8
BLACK
6
CONTINUOUS
10
0.0351698818897638
20
-0.5415711417322835
11
0.0286096456692913
21
-0.5415711417322835
0
LINE
8
BLACK
6
CONTINUOUS
10
0.0286096456692913
20
-0.5415711417322835
11
0.0221755118110236
21
-0.5402912992125984
0
LINE
8
BLACK
6
CONTINUOUS
10
0.0221755118110236
20
-0.5402912992125984
11
0.0161146850393701
21
-0.5377808267716535
0
LINE
8
BLACK
6
CONTINUOUS
10
0.0161146850393701
20
-0.5377808267716535
11
0.0106600787401575
21
-0.5341361811023622
0
LINE
8
BLACK
6
CONTINUOUS
10
0.0106600787401575
20
-0.5341361811023622
11
0.0060212992125984
21
-0.5294974015748032
0
LINE
8
BLACK
6
CONTINUOUS
10
0.0060212992125984
20
-0.5294974015748032
11
0.0023766535433071
21
-0.5240427952755905
0
LINE
8
BLACK
6
CONTINUOUS
10
0.0023766535433071
20
-0.5240427952755905
11
-0.0001338188976378
21
-0.517981968503937
0
LINE
8
BLACK
6
CONTINUOUS
10
-0.0001338188976378
20
-0.517981968503937
11
-0.0014136614173228
21
-0.5115478346456693
0
LINE
8
BLACK
6
CONTINUOUS
10
-0.0014136614173228
20
-0.5115478346456693
11
-0.0014136614173228
21
-0.5049875984251968
0
LINE
8
BLACK
6
CONTINUOUS
10
-0.0014136614173228
20
-0.5049875984251968
11
-0.0001338188976378
21
-0.4985534645669291
0
LINE
8
BLACK
6
CONTINUOUS
10
-0.0001338188976378
20
-0.4985534645669291
11
0.0023766535433071
21
-0.4924926377952756
0
LINE
8
BLACK
6
CONTINUOUS
10
0.0023766535433071
20
-0.4924926377952756
11
0.0060212992125984
21
-0.487038031496063
0
LINE
8
BLACK
6
CONTINUOUS
10
0.0060212992125984
20
-0.487038031496063
11
0.0106600787401575
21
-0.4823992519685039
0
LINE
8
BLACK
6
CONTINUOUS
10
0.0106600787401575
20
-0.4823992519685039
11
0.0161146850393701
21
-0.4787546062992126
0
LINE
8
BLACK
6
CONTINUOUS
10
0.0161146850393701
20
-0.4787546062992126
11
0.0220472440944882
21
-0.4762972440944882
0
LINE
8
BLACK
6
CONTINUOUS
10
0.0220472440944882
20
-0.4762972440944882
11
0.0220472440944882
21
-0.4417322834645669
0
LINE
8
BLACK
6
CONTINUOUS
10
0.0220472440944882
20
-0.4417322834645669
11
-0.0015748031496063
21
-0.4417322834645669
0
LINE
8
BLACK
6
CONTINUOUS
10
-0.0015748031496063
20
-0.4417322834645669
11
-0.0015748031496063
21
-0.3748031496062992
0
LINE
8
BLACK
6
CONTINUOUS
10
-0.0015748031496063
20
-0.3748031496062992
11
0.0220472440944882
21
-0.3748031496062992
0
LINE
8
BLACK
6
CONTINUOUS
10
0.0220472440944882
20
-0.3748031496062992
11
0.0220472440944882
21
-0.3551181102362205
0
LINE
8
BLACK
6
CONTINUOUS
10
0.0220472440944882
20
-0.3551181102362205
11
-0.0034584645669291
21
-0.3551181102362205
0
LINE
8
BLACK
6
CONTINUOUS
10
-0.0034584645669291
20
-0.3551181102362205
11
-0.0058020866141732
21
-0.3553701181102362
0
LINE
8
BLACK
6
CONTINUOUS
10
-0.0058020866141732
20
-0.3553701181102362
11
-0.0058023622047244
21
-0.3553701968503937
0
LINE
8
BLACK
6
CONTINUOUS
10
-0.0058023622047244
20
-0.3553701968503937
11
-0.0111057874015748
21
-0.3573482283464567
0
LINE
8
BLACK
6
CONTINUOUS
10
-0.0111057874015748
20
-0.3573482283464567
11
-0.011106062992126
21
-0.3573483858267716
0
LINE
8
BLACK
6
CONTINUOUS
10
-0.011106062992126
20
-0.3573483858267716
11
-0.0156373228346457
21
-0.3607405118110236
0
LINE
8
BLACK
6
CONTINUOUS
10
-0.0156373228346457
20
-0.3607405118110236
11
-0.0156374409448819
21
-0.3607406299212598
0
LINE
8
BLACK
6
CONTINUOUS
10
-0.0156374409448819
20
-0.3607406299212598
11
-0.0190295669291339
21
-0.3652718897637795
0
LINE
8
BLACK
6
CONTINUOUS
10
-0.0190295669291339
20
-0.3652718897637795
11
-0.0190296850393701
21
-0.365272125984252
0
LINE
8
BLACK
6
CONTINUOUS
10
-0.0190296850393701
20
-0.365272125984252
11
-0.0209615354330709
21
-0.3704516141732284
0
LINE
8
BLACK
6
CONTINUOUS
10
-0.0209615354330709
20
-0.3704516141732284
11
-0.0226100393700787
21
-0.3726537007874016
0
LINE
8
BLACK
6
CONTINUOUS
10
-0.0226100393700787
20
-0.3726537007874016
11
-0.0251873622047244
21
-0.373615
0
LINE
8
BLACK
6
CONTINUOUS
10
-0.0251873622047244
20
-0.373615
11
-0.0278752755905512
21
-0.3730302755905512
0
LINE
8
BLACK
6
CONTINUOUS
10
-0.0278752755905512
20
-0.3730302755905512
11
-0.0289876377952756
21
-0.3721975590551181
0
LINE
8
BLACK
6
CONTINUOUS
10
-0.0289876377952756
20
-0.3721975590551181
11
-0.0334729921259843
21
-0.3677122047244095
0
LINE
8
BLACK
6
CONTINUOUS
10
-0.0334729921259843
20
-0.3677122047244095
11
-0.0402433070866142
21
-0.3627933464566929
0
LINE
8
BLACK
6
CONTINUOUS
10
-0.0402433070866142
20
-0.3627933464566929
11
-0.0477002362204724
21
-0.3589938582677165
0
LINE
8
BLACK
6
CONTINUOUS
10
-0.0477002362204724
20
-0.3589938582677165
11
-0.0477002755905512
21
-0.3589938188976378
0
LINE
8
BLACK
6
CONTINUOUS
10
-0.0477002755905512
20
-0.3589938188976378
11
-0.0477003149606299
21
-0.3589938188976378
0
LINE
8
BLACK
6
CONTINUOUS
10
-0.0477003149606299
20
-0.3589938188976378
11
-0.0556597244094488
21
-0.3564076377952756
0
LINE
8
BLACK
6
CONTINUOUS
10
-0.0556597244094488
20
-0.3564076377952756
11
-0.0556598031496063
21
-0.3564075984251969
0
LINE
8
BLACK
6
CONTINUOUS
10
-0.0556598031496063
20
-0.3564075984251969
11
-0.055659842519685
21
-0.3564075984251969
0
LINE
8
BLACK
6
CONTINUOUS
10
-0.055659842519685
20
-0.3564075984251969
11
-0.0620095669291339
21
-0.3554018897637795
0
LINE
8
BLACK
6
CONTINUOUS
10
-0.0620095669291339
20
-0.3554018897637795
11
-0.0639257086614173
21
-0.3550984251968504
0
LINE
8
BLACK
6
CONTINUOUS
10
-0.0639257086614173
20
-0.3550984251968504
11
-0.0722947637795276
21
-0.3550984251968504
0
LINE
8
BLACK
6
CONTINUOUS
10
-0.0722947637795276
20
-0.3550984251968504
11
-0.0742109448818898
21
-0.3554018897637795
0
LINE
8
BLACK
6
CONTINUOUS
10
-0.0742109448818898
20
-0.3554018897637795
11
-0.0805606299212598
21
-0.3564075984251969
0
LINE
8
BLACK
6
CONTINUOUS
10
-0.0805606299212598
20
-0.3564075984251969
11
-0.0885202755905512
21
-0.3589938582677165
0
LINE
8
BLACK
6
CONTINUOUS
10
-0.0885202755905512
20
-0.3589938582677165
11
-0.0959772047244094
21
-0.3627933464566929
0
LINE
8
BLACK
6
CONTINUOUS
10
-0.0959772047244094
20
-0.3627933464566929
11
-0.1027475196850394
21
-0.3677122047244095
0
LINE
8
BLACK
6
CONTINUOUS
10
-0.1027475196850394
20
-0.3677122047244095
11
-0.1086657480314961
21
-0.3736304330708661
0
LINE
8
BLACK
6
CONTINUOUS
10
-0.1086657480314961
20
-0.3736304330708661
11
-0.1135846850393701
21
-0.3804008661417323
0
LINE
8
BLACK
6
CONTINUOUS
10
-0.1135846850393701
20
-0.3804008661417323
11
-0.1137604724409449
21
-0.380745905511811
0
LINE
8
BLACK
6
CONTINUOUS
10
-0.1137604724409449
20
-0.380745905511811
11
-0.1156492519685039
21
-0.3827457480314961
0
LINE
8
BLACK
6
CONTINUOUS
10
-0.1156492519685039
20
-0.3827457480314961
11
-0.1183193700787402
21
-0.3834069291338583
0
LINE
8
BLACK
6
CONTINUOUS
10
-0.1183193700787402
20
-0.3834069291338583
11
-0.1209231102362205
21
-0.3825196062992126
0
LINE
8
BLACK
6
CONTINUOUS
10
-0.1209231102362205
20
-0.3825196062992126
11
-0.12246
21
-0.380745905511811
0
LINE
8
BLACK
6
CONTINUOUS
10
-0.12246
20
-0.380745905511811
11
-0.1226358267716535
21
-0.3804008661417323
0
LINE
8
BLACK
6
CONTINUOUS
10
-0.1226358267716535
20
-0.3804008661417323
11
-0.1275547637795276
21
-0.3736304330708661
0
LINE
8
BLACK
6
CONTINUOUS
10
-0.1275547637795276
20
-0.3736304330708661
11
-0.1334729921259842
21
-0.3677122047244095
0
LINE
8
BLACK
6
CONTINUOUS
10
-0.1334729921259842
20
-0.3677122047244095
11
-0.138519094488189
21
-0.364046062992126
0
LINE
8
BLACK
6
CONTINUOUS
10
-0.138519094488189
20
-0.364046062992126
11
-0.1401988582677165
21
-0.3618677559055118
0
LINE
8
BLACK
6
CONTINUOUS
10
-0.1401988582677165
20
-0.3618677559055118
11
-0.1405314960629921
21
-0.3600965354330709
0
LINE
8
BLACK
6
CONTINUOUS
10
-0.1405314960629921
20
-0.3600965354330709
11
-0.1405314960629921
21
-0.3194685039370079
0
LINE
8
BLACK
6
CONTINUOUS
10
-0.1405314960629921
20
-0.3194685039370079
11
-0.1397564960629921
21
-0.3168291732283465
0
LINE
8
BLACK
6
CONTINUOUS
10
-0.1397564960629921
20
-0.3168291732283465
11
-0.1376775984251968
21
-0.3150277952755905
0
LINE
8
BLACK
6
CONTINUOUS
10
-0.1376775984251968
20
-0.3150277952755905
11
-0.1356496062992126
21
-0.3145866141732284
0
LINE
8
BLACK
6
CONTINUOUS
10
-0.1356496062992126
20
-0.3145866141732284
11
0.0763181496062992
21
-0.3145866141732284
0
LINE
8
BLACK
6
CONTINUOUS
10
0.0763181496062992
20
-0.3145866141732284
11
0.0789574803149606
21
-0.3153616141732283
0
LINE
8
BLACK
6
CONTINUOUS
10
0.0789574803149606
20
-0.3153616141732283
11
0.079770157480315
21
-0.3160164960629921
0
LINE
8
BLACK
6
CONTINUOUS
10
0.079770157480315
20
-0.3160164960629921
11
0.1578024015748032
21
-0.3940487007874016
0
LINE
8
BLACK
6
CONTINUOUS
10
0.1578024015748032
20
-0.3940487007874016
11
0.1591207086614173
21
-0.3964629921259842
0
LINE
8
BLACK
6
CONTINUOUS
10
0.1591207086614173
20
-0.3964629921259842
11
0.1592322834645669
21
-0.3975007086614173
0
LINE
8
BLACK
6
CONTINUOUS
10
0.1592322834645669
20
-0.3975007086614173
11
0.1592322834645669
21
-0.4541910236220472
0
LINE
8
BLACK
6
CONTINUOUS
10
0.1592322834645669
20
-0.4541910236220472
11
0.1584572834645669
21
-0.4568303543307087
0
LINE
8
BLACK
6
CONTINUOUS
10
0.1584572834645669
20
-0.4568303543307087
11
0.1572198818897638
21
-0.4581405511811024
0
LINE
8
BLACK
6
CONTINUOUS
10
0.1572198818897638
20
-0.4581405511811024
11
0.1521737401574803
21
-0.4618066929133858
0
LINE
8
BLACK
6
CONTINUOUS
10
0.1521737401574803
20
-0.4618066929133858
11
0.1462555118110236
21
-0.4677249212598425
0
LINE
8
BLACK
6
CONTINUOUS
10
0.1462555118110236
20
-0.4677249212598425
11
0.1413366535433071
21
-0.4744952362204724
0
LINE
8
BLACK
6
CONTINUOUS
10
0.1413366535433071
20
-0.4744952362204724
11
0.1375371653543307
21
-0.4819521653543307
0
LINE
8
BLACK
6
CONTINUOUS
10
0.1375371653543307
20
-0.4819521653543307
11
0.134950905511811
21
-0.489911811023622
0
LINE
8
BLACK
6
CONTINUOUS
10
0.134950905511811
20
-0.489911811023622
11
0.134537874015748
21
-0.49251968503937
0
LINE
8
BLACK
6
CONTINUOUS
10
0.134537874015748
20
-0.49251968503937
11
0.1336417322834646
21
-0.4981776771653543
0
LINE
8
BLACK
6
CONTINUOUS
10
0.1336417322834646
20
-0.4981776771653543
11
0.1336417322834646
21
-0.5065467322834646
0
LINE
8
BLACK
6
CONTINUOUS
10
0.1336417322834646
20
-0.5065467322834646
11
0.1349509448818898
21
-0.514812716535433
0
LINE
8
BLACK
6
CONTINUOUS
10
0.1349509448818898
20
-0.514812716535433
11
0.1368697637795276
21
-0.5207182283464566
0
LINE
8
BLACK
6
CONTINUOUS
10
0.1368697637795276
20
-0.5207182283464566
11
0.1375371653543307
21
-0.5227722047244094
0
LINE
8
BLACK
6
CONTINUOUS
10
0.1375371653543307
20
-0.5227722047244094
11
0.1413366535433071
21
-0.5302291338582678
0
LINE
8
BLACK
6
CONTINUOUS
10
0.1413366535433071
20
-0.5302291338582678
11
0.1462555118110236
21
-0.5369994488188976
0
LINE
8
BLACK
6
CONTINUOUS
10
0.1462555118110236
20
-0.5369994488188976
11
0.1521737401574803
21
-0.5429176771653543
0
LINE
8
BLACK
6
CONTINUOUS
10
0.1521737401574803
20
-0.5429176771653543
11
0.1589440551181102
21
-0.5478365354330709
0
LINE
8
BLACK
6
CONTINUOUS
10
0.1589440551181102
20
-0.5478365354330709
11
0.1589441338582677
21
-0.5478365748031496
0
LINE
8
BLACK
6
CONTINUOUS
10
0.1589441338582677
20
-0.5478365748031496
11
0.1589442519685039
21
-0.5478366535433071
0
LINE
8
BLACK
6
CONTINUOUS
10
0.1589442519685039
20
-0.5478366535433071
11
0.1664011023622047
21
-0.5516361023622047
0
LINE
8
BLACK
6
CONTINUOUS
10
0.1664011023622047
20
-0.5516361023622047
11
0.1743605118110236
21
-0.5542222834645669
0
LINE
8
BLACK
6
CONTINUOUS
10
0.1743605118110236
20
-0.5542222834645669
11
0.1826264960629921
21
-0.5555314960629921
0
LINE
8
BLACK
6
CONTINUOUS
10
0.1826264960629921
20
-0.5555314960629921
11
0.1826265354330709
21
-0.5555314960629921
0
LINE
8
BLACK
6
CONTINUOUS
10
0.1826265354330709
20
-0.5555314960629921
11
0.1909955118110236
21
-0.5555314960629921
0
LINE
8
BLACK
6
CONTINUOUS
10
0.1909955118110236
20
-0.5555314960629921
11
0.1909955511811024
21
-0.5555314960629921
0
LINE
8
BLACK
6
CONTINUOUS
10
0.1909955511811024
20
-0.5555314960629921
11
0.1992615354330709
21
-0.5542222834645669
0
LINE
8
BLACK
6
CONTINUOUS
10
0.1992615354330709
20
-0.5542222834645669
11
0.2072209448818897
21
-0.5516361023622047
0
LINE
8
BLACK
6
CONTINUOUS
10
0.2072209448818897
20
-0.5516361023622047
11
0.2146777952755906
21
-0.5478366535433071
0
LINE
8
BLACK
6
CONTINUOUS
10
0.2146777952755906
20
-0.5478366535433071
11
0.2180896850393701
21
-0.5453577952755906
0
LINE
8
BLACK
6
CONTINUOUS
10
0.2180896850393701
20
-0.5453577952755906
11
0.2214482677165354
21
-0.5429176771653543
0
LINE
8
BLACK
6
CONTINUOUS
10
0.2214482677165354
20
-0.5429176771653543
11
0.2214483464566929
21
-0.5429175590551181
0
LINE
8
BLACK
6
CONTINUOUS
10
0.2214483464566929
20
-0.5429175590551181
11
0.2214485039370079
21
-0.5429174803149606
0
LINE
8
BLACK
6
CONTINUOUS
10
0.2214485039370079
20
-0.5429174803149606
11
0.2273662992125984
21
-0.53699968503937
0
LINE
8
BLACK
6
CONTINUOUS
10
0.2273662992125984
20
-0.53699968503937
11
0.2273663779527559
21
-0.5369995275590551
0
LINE
8
BLACK
6
CONTINUOUS
10
0.2273663779527559
20
-0.5369995275590551
11
0.2273664960629921
21
-0.5369994488188976
0
LINE
8
BLACK
6
CONTINUOUS
10
0.2273664960629921
20
-0.5369994488188976
11
0.2322853543307087
21
-0.5302291338582678
0
LINE
8
BLACK
6
CONTINUOUS
10
0.2322853543307087
20
-0.5302291338582678
11
0.2322853149606299
21
-0.5302291338582678
0
LINE
8
BLACK
6
CONTINUOUS
10
0.2322853149606299
20
-0.5302291338582678
11
0.2322854724409449
21
-0.5302289763779527
0
LINE
8
BLACK
6
CONTINUOUS
10
0.2322854724409449
20
-0.5302289763779527
11
0.2324611811023622
21
-0.5298840157480315
0
LINE
8
BLACK
6
CONTINUOUS
10
0.2324611811023622
20
-0.5298840157480315
11
0.2343499212598425
21
-0.5278842125984252
0
LINE
8
BLACK
6
CONTINUOUS
10
0.2343499212598425
20
-0.5278842125984252
11
0.23702
21
-0.5272229527559055
0
LINE
8
BLACK
6
CONTINUOUS
10
0.23702
20
-0.5272229527559055
11
0.2396237795275591
21
-0.5281101968503937
0
LINE
8
BLACK
6
CONTINUOUS
10
0.2396237795275591
20
-0.5281101968503937
11
0.2411608661417323
21
-0.529884094488189
0
LINE
8
BLACK
6
CONTINUOUS
10
0.2411608661417323
20
-0.529884094488189
11
0.2413366535433071
21
-0.5302291338582678
0
LINE
8
BLACK
6
CONTINUOUS
10
0.2413366535433071
20
-0.5302291338582678
11
0.2462555118110236
21
-0.5369994488188976
0
LINE
8
BLACK
6
CONTINUOUS
10
0.2462555118110236
20
-0.5369994488188976
11
0.2521737401574803
21
-0.5429176771653543
0
LINE
8
BLACK
6
CONTINUOUS
10
0.2521737401574803
20
-0.5429176771653543
11
0.2589440551181103
21
-0.5478365354330709
0
LINE
8
BLACK
6
CONTINUOUS
10
0.2589440551181103
20
-0.5478365354330709
11
0.2589441338582677
21
-0.5478365748031496
0
LINE
8
BLACK
6
CONTINUOUS
10
0.2589441338582677
20
-0.5478365748031496
11
0.258944251968504
21
-0.5478366535433071
0
LINE
8
BLACK
6
CONTINUOUS
10
0.258944251968504
20
-0.5478366535433071
11
0.2664011023622047
21
-0.5516361023622047
0
LINE
8
BLACK
6
CONTINUOUS
10
0.2664011023622047
20
-0.5516361023622047
11
0.2743605118110236
21
-0.5542222834645669
0
LINE
8
BLACK
6
CONTINUOUS
10
0.2743605118110236
20
-0.5542222834645669
11
0.2826264960629921
21
-0.5555314960629921
0
LINE
8
BLACK
6
CONTINUOUS
10
0.2826264960629921
20
-0.5555314960629921
11
0.2826265354330709
21
-0.5555314960629921
0
LINE
8
BLACK
6
CONTINUOUS
10
0.2826265354330709
20
-0.5555314960629921
11
0.2909955118110236
21
-0.5555314960629921
0
LINE
8
BLACK
6
CONTINUOUS
10
0.2909955118110236
20
-0.5555314960629921
11
0.2909955511811024
21
-0.5555314960629921
0
LINE
8
BLACK
6
CONTINUOUS
10
0.2909955511811024
20
-0.5555314960629921
11
0.2992615354330709
21
-0.5542222834645669
0
LINE
8
BLACK
6
CONTINUOUS
10
0.2992615354330709
20
-0.5542222834645669
11
0.3072209448818898
21
-0.5516361023622047
0
LINE
8
BLACK
6
CONTINUOUS
10
0.3072209448818898
20
-0.5516361023622047
11
0.3146777952755905
21
-0.5478366535433071
0
LINE
8
BLACK
6
CONTINUOUS
10
0.3146777952755905
20
-0.5478366535433071
11
0.3180896850393701
21
-0.5453577952755906
0
LINE
8
BLACK
6
CONTINUOUS
10
0.3180896850393701
20
-0.5453577952755906
11
0.3214481889763779
21
-0.5429177165354331
0
LINE
8
BLACK
6
CONTINUOUS
10
0.3214481889763779
20
-0.5429177165354331
11
0.3214481889763779
21
-0.5429176771653543
0
LINE
8
BLACK
6
CONTINUOUS
10
0.3214481889763779
20
-0.5429176771653543
11
0.3214485039370079
21
-0.5429174803149606
0
LINE
8
BLACK
6
CONTINUOUS
10
0.3214485039370079
20
-0.5429174803149606
11
0.3259337401574803
21
-0.5384322047244094
0
LINE
8
BLACK
6
CONTINUOUS
10
0.3259337401574803
20
-0.5384322047244094
11
0.328347874015748
21
-0.5371140157480315
0
LINE
8
BLACK
6
CONTINUOUS
10
0.328347874015748
20
-0.5371140157480315
11
0.3310916535433071
21
-0.5373102362204725
0
LINE
8
BLACK
6
CONTINUOUS
10
0.3310916535433071
20
-0.5373102362204725
11
0.3332937795275591
21
-0.5389587007874016
0
LINE
8
BLACK
6
CONTINUOUS
10
0.3332937795275591
20
-0.5389587007874016
11
0.3339597244094488
21
-0.5401782677165354
0
LINE
8
BLACK
6
CONTINUOUS
10
0.3339597244094488
20
-0.5401782677165354
11
0.3358915748031496
21
-0.5453577952755906
0
LINE
8
BLACK
6
CONTINUOUS
10
0.3358915748031496
20
-0.5453577952755906
11
0.3358916929133858
21
-0.5453579921259842
0
LINE
8
BLACK
6
CONTINUOUS
10
0.3358916929133858
20
-0.5453579921259842
11
0.3392838188976378
21
-0.5498892519685039
0
LINE
8
BLACK
6
CONTINUOUS
10
0.3392838188976378
20
-0.5498892519685039
11
0.339283937007874
21
-0.5498893700787402
0
LINE
8
BLACK
6
CONTINUOUS
10
0.339283937007874
20
-0.5498893700787402
11
0.3438151968503937
21
-0.5532814960629922
0
LINE
8
BLACK
6
CONTINUOUS
10
0.3438151968503937
20
-0.5532814960629922
11
0.3438154724409448
21
-0.5532816535433071
0
LINE
8
BLACK
6
CONTINUOUS
10
0.3438154724409448
20
-0.5532816535433071
11
0.3491188976377952
21
-0.5552596850393701
0
LINE
8
BLACK
6
CONTINUOUS
10
0.3491188976377952
20
-0.5552596850393701
11
0.3491191732283465
21
-0.5552597637795276
0
LINE
8
BLACK
6
CONTINUOUS
10
0.3491191732283465
20
-0.5552597637795276
11
0.3514627952755905
21
-0.5555117716535433
0
LINE
8
BLACK
6
CONTINUOUS
10
0.3514627952755905
20
-0.5555117716535433
11
0.3514634645669291
21
-0.555511811023622
0
LINE
8
BLACK
6
CONTINUOUS
10
0.3514634645669291
20
-0.555511811023622
11
0.3769685039370079
21
-0.555511811023622
0
LINE
8
BLACK
6
CONTINUOUS
10
0.3769685039370079
20
-0.555511811023622
11
0.3769685039370079
21
-0.5358267716535433
0
LINE
8
BLACK
6
CONTINUOUS
10
0.3769685039370079
20
-0.5358267716535433
11
0.3533464566929134
21
-0.5358267716535433
0
LINE
8
BLACK
6
CONTINUOUS
10
0.3533464566929134
20
-0.5358267716535433
11
0.3533464566929134
21
-0.4688976377952756
0
LINE
8
BLACK
6
CONTINUOUS
10
0.3533464566929134
20
-0.4688976377952756
11
0.3769685039370079
21
-0.4688976377952756
0
LINE
8
BLACK
6
CONTINUOUS
10
0.3769685039370079
20
-0.4688976377952756
11
0.3769685039370079
21
-0.4492125984251968
0
LINE
8
BLACK
6
CONTINUOUS
10
0.3769685039370079
20
-0.4492125984251968
11
0.3514627952755905
21
-0.4492125984251968
0
LINE
8
BLACK
6
CONTINUOUS
10
0.3514627952755905
20
-0.4492125984251968
11
0.3491191732283465
21
-0.4494646062992126
0
LINE
8
BLACK
6
CONTINUOUS
10
0.3491191732283465
20
-0.4494646062992126
11
0.3491188976377952
21
-0.4494646850393701
0
LINE
8
BLACK
6
CONTINUOUS
10
0.3491188976377952
20
-0.4494646850393701
11
0.3438154724409448
21
-0.4514427165354331
0
LINE
8
BLACK
6
CONTINUOUS
10
0.3438154724409448
20
-0.4514427165354331
11
0.3438151968503937
21
-0.451442874015748
0
LINE
8
BLACK
6
CONTINUOUS
10
0.3438151968503937
20
-0.451442874015748
11
0.339283937007874
21
-0.454835
0
LINE
8
BLACK
6
CONTINUOUS
10
0.339283937007874
20
-0.454835
11
0.3392838188976378
21
-0.4548351181102362
0
LINE
8
BLACK
6
CONTINUOUS
10
0.3392838188976378
20
-0.4548351181102362
11
0.3358916929133858
21
-0.4593663779527559
0
LINE
8
BLACK
6
CONTINUOUS
10
0.3358916929133858
20
-0.4593663779527559
11
0.3358915748031496
21
-0.4593666141732283
0
LINE
8
BLACK
6
CONTINUOUS
10
0.3358915748031496
20
-0.4593666141732283
11
0.3339597244094488
21
-0.4645461023622047
0
LINE
8
BLACK
6
CONTINUOUS
10
0.3339597244094488
20
-0.4645461023622047
11
0.3323112204724409
21
-0.4667481889763779
0
LINE
8
BLACK
6
CONTINUOUS
10
0.3323112204724409
20
-0.4667481889763779
11
0.3297338976377953
21
-0.4677094881889763
0
LINE
8
BLACK
6
CONTINUOUS
10
0.3297338976377953
20
-0.4677094881889763
11
0.3270459842519685
21
-0.4671247637795276
0
LINE
8
BLACK
6
CONTINUOUS
10
0.3270459842519685
20
-0.4671247637795276
11
0.3259336220472441
21
-0.4662920472440945
0
LINE
8
BLACK
6
CONTINUOUS
10
0.3259336220472441
20
-0.4662920472440945
11
0.3214482677165355
21
-0.4618066929133858
0
LINE
8
BLACK
6
CONTINUOUS
10
0.3214482677165355
20
-0.4618066929133858
11
0.3146779527559055
21
-0.4568878346456693
0
LINE
8
BLACK
6
CONTINUOUS
10
0.3146779527559055
20
-0.4568878346456693
11
0.3072210236220472
21
-0.4530883464566929
0
LINE
8
BLACK
6
CONTINUOUS
10
0.3072210236220472
20
-0.4530883464566929
11
0.3072209842519685
21
-0.4530883070866142
0
LINE
8
BLACK
6
CONTINUOUS
10
0.3072209842519685
20
-0.4530883070866142
11
0.3072209448818898
21
-0.4530883070866142
0
LINE
8
BLACK
6
CONTINUOUS
10
0.3072209448818898
20
-0.4530883070866142
11
0.2992615354330709
21
-0.4505021259842519
0
LINE
8
BLACK
6
CONTINUOUS
10
0.2992615354330709
20
-0.4505021259842519
11
0.2992614566929134
21
-0.4505020866141732
0
LINE
8
BLACK
6
CONTINUOUS
10
0.2992614566929134
20
-0.4505020866141732
11
0.2992614173228346
21
-0.4505020866141732
0
LINE
8
BLACK
6
CONTINUOUS
10
0.2992614173228346
20
-0.4505020866141732
11
0.2929116929133858
21
-0.4494963779527559
0
LINE
8
BLACK
6
CONTINUOUS
10
0.2929116929133858
20
-0.4494963779527559
11
0.2909955511811024
21
-0.4491929133858268
0
LINE
8
BLACK
6
CONTINUOUS
10
0.2909955511811024
20
-0.4491929133858268
11
0.2826264960629921
21
-0.4491929133858268
0
LINE
8
BLACK
6
CONTINUOUS
10
0.2826264960629921
20
-0.4491929133858268
11
0.2807103149606299
21
-0.4494963779527559
0
LINE
8
BLACK
6
CONTINUOUS
10
0.2807103149606299
20
-0.4494963779527559
11
0.2743606299212598
21
-0.4505020866141732
0
LINE
8
BLACK
6
CONTINUOUS
10
0.2743606299212598
20
-0.4505020866141732
11
0.2664009842519685
21
-0.4530883464566929
0
LINE
8
BLACK
6
CONTINUOUS
10
0.2664009842519685
20
-0.4530883464566929
11
0.2589440551181103
21
-0.4568878346456693
0
LINE
8
BLACK
6
CONTINUOUS
10
0.2589440551181103
20
-0.4568878346456693
11
0.2521737401574803
21
-0.4618066929133858
0
LINE
8
BLACK
6
CONTINUOUS
10
0.2521737401574803
20
-0.4618066929133858
11
0.2462555118110236
21
-0.4677249212598425
0
LINE
8
BLACK
6
CONTINUOUS
10
0.2462555118110236
20
-0.4677249212598425
11
0.2413365748031496
21
-0.4744953543307087
0
LINE
8
BLACK
6
CONTINUOUS
10
0.2413365748031496
20
-0.4744953543307087
11
0.2411607874015748
21
-0.4748403937007874
0
LINE
8
BLACK
6
CONTINUOUS
10
0.2411607874015748
20
-0.4748403937007874
11
0.2392720078740157
21
-0.4768402362204724
0
LINE
8
BLACK
6
CONTINUOUS
10
0.2392720078740157
20
-0.4768402362204724
11
0.2366018897637795
21
-0.4775014173228346
0
LINE
8
BLACK
6
CONTINUOUS
10
0.2366018897637795
20
-0.4775014173228346
11
0.2339981496062992
21
-0.476614094488189
0
LINE
8
BLACK
6
CONTINUOUS
10
0.2339981496062992
20
-0.476614094488189
11
0.2324612598425197
21
-0.4748403937007874
0
LINE
8
BLACK
6
CONTINUOUS
10
0.2324612598425197
20
-0.4748403937007874
11
0.2322854330708661
21
-0.4744953543307087
0
LINE
8
BLACK
6
CONTINUOUS
10
0.2322854330708661
20
-0.4744953543307087
11
0.2273664960629921
21
-0.4677249212598425
0
LINE
8
BLACK
6
CONTINUOUS
10
0.2273664960629921
20
-0.4677249212598425
11
0.2214482677165354
21
-0.4618066929133858
0
LINE
8
BLACK
6
CONTINUOUS
10
0.2214482677165354
20
-0.4618066929133858
11
0.2164021653543307
21
-0.4581405511811024
0
LINE
8
BLACK
6
CONTINUOUS
10
0.2164021653543307
20
-0.4581405511811024
11
0.2147224015748032
21
-0.4559622440944882
0
LINE
8
BLACK
6
CONTINUOUS
10
0.2147224015748032
20
-0.4559622440944882
11
0.2143897637795276
21
-0.4541910236220472
0
LINE
8
BLACK
6
CONTINUOUS
10
0.2143897637795276
20
-0.4541910236220472
11
0.2143897637795276
21
-0.3813387401574803
0
LINE
8
BLACK
6
CONTINUOUS
10
0.2143897637795276
20
-0.3813387401574803
11
0.2133299606299213
21
-0.376010905511811
0
LINE
8
BLACK
6
CONTINUOUS
10
0.2133299606299213
20
-0.376010905511811
11
0.2133299212598425
21
-0.3760108661417323
0
LINE
8
BLACK
6
CONTINUOUS
10
0.2133299212598425
20
-0.3760108661417323
11
0.2133299212598425
21
-0.3760107086614173
0
LINE
8
BLACK
6
CONTINUOUS
10
0.2133299212598425
20
-0.3760107086614173
11
0.2120953937007874
21
-0.3730302755905512
0
LINE
8
BLACK
6
CONTINUOUS
10
0.2120953937007874
20
-0.3730302755905512
11
0.2112511023622047
21
-0.3709919291338583
0
LINE
8
BLACK
6
CONTINUOUS
10
0.2112511023622047
20
-0.3709919291338583
11
0.2112508267716535
21
-0.3709914173228346
0
LINE
8
BLACK
6
CONTINUOUS
10
0.2112508267716535
20
-0.3709914173228346
11
0.208232874015748
21
-0.3664747637795275
0
LINE
8
BLACK
6
CONTINUOUS
10
0.208232874015748
20
-0.3664747637795275
11
0.20703
21
-0.3652718897637795
0
LINE
8
BLACK
6
CONTINUOUS
10
0.20703
20
-0.3652718897637795
11
0.2043914173228346
21
-0.3626333070866142
0
LINE
8
BLACK
6
CONTINUOUS
10
0.2043914173228346
20
-0.3626333070866142
11
0.1968565354330709
21
-0.3550984251968504
0
LINE
8
BLACK
6
CONTINUOUS
10
0.1968565354330709
20
-0.3550984251968504
11
0.1073443307086614
21
-0.2655861417322835
0
LINE
8
BLACK
6
CONTINUOUS
10
0.1073443307086614
20
-0.2655861417322835
11
0.1073442913385827
21
-0.2655861023622047
0
LINE
8
BLACK
6
CONTINUOUS
10
0.1073442913385827
20
-0.2655861023622047
11
0.1028270472440945
21
-0.2625677952755905
0
LINE
8
BLACK
6
CONTINUOUS
10
0.1028270472440945
20
-0.2625677952755905
11
0.0978083464566929
21
-0.2604890157480315
0
LINE
8
BLACK
6
CONTINUOUS
10
0.0978083464566929
20
-0.2604890157480315
11
0.0978079527559055
21
-0.2604888976377953
0
LINE
8
BLACK
6
CONTINUOUS
10
0.0978079527559055
20
-0.2604888976377953
11
0.092480157480315
21
-0.2594291338582677
0
LINE
8
BLACK
6
CONTINUOUS
10
0.092480157480315
20
-0.2594291338582677
11
0.0924800787401575
21
-0.2594291338582677
0
LINE
8
BLACK
6
CONTINUOUS
10
0.0924800787401575
20
-0.2594291338582677
11
0.0924800393700787
21
-0.2594291338582677
0
LINE
8
BLACK
6
CONTINUOUS
10
0.0924800393700787
20
-0.2594291338582677
11
-0.1356496062992126
21
-0.2594291338582677
0
LINE
8
BLACK
6
CONTINUOUS
10
-0.1356496062992126
20
-0.2594291338582677
11
-0.138288937007874
21
-0.2586541338582677
0
LINE
8
BLACK
6
CONTINUOUS
10
-0.138288937007874
20
-0.2586541338582677
11
-0.1400903149606299
21
-0.2565752362204725
0
LINE
8
BLACK
6
CONTINUOUS
10
-0.1400903149606299
20
-0.2565752362204725
11
-0.1405314960629921
21
-0.2545472440944882
0
LINE
8
BLACK
6
CONTINUOUS
10
-0.1405314960629921
20
-0.2545472440944882
11
-0.1405314960629921
21
-0.0228944094488189
0
LINE
8
BLACK
6
CONTINUOUS
10
-0.1405314960629921
20
-0.0228944094488189
11
-0.1397564960629921
21
-0.0202550787401575
0
LINE
8
BLACK
6
CONTINUOUS
10
-0.1397564960629921
20
-0.0202550787401575
11
-0.139101811023622
21
-0.0194425984251968
0
LINE
8
BLACK
6
CONTINUOUS
10
-0.139101811023622
20
-0.0194425984251968
11
0.1285945275590551
21
0.2482537795275591
0
LINE
8
BLACK
6
CONTINUOUS
10
0.1285945275590551
20
0.2482537795275591
11
0.1310087401574803
21
0.2495720078740157
0
LINE
8
BLACK
6
CONTINUOUS
10
0.1310087401574803
20
0.2495720078740157
11
0.1310906692913386
21
0.249589094488189
0
LINE
8
BLACK
6
CONTINUOUS
10
0.1310906692913386
20
0.249589094488189
11
0.1332085433070866
21
0.2500103543307087
0
LINE
8
BLACK
6
CONTINUOUS
10
0.1332085433070866
20
0.2500103543307087
11
0.1387061417322835
21
0.2522875196850394
0
LINE
8
BLACK
6
CONTINUOUS
10
0.1387061417322835
20
0.2522875196850394
11
0.138943779527559
21
0.2523859448818898
0
LINE
8
BLACK
6
CONTINUOUS
10
0.138943779527559
20
0.2523859448818898
11
0.138943779527559
21
0.2523859842519685
0
LINE
8
BLACK
6
CONTINUOUS
10
0.138943779527559
20
0.2523859842519685
11
0.1389440551181102
21
0.252386062992126
0
LINE
8
BLACK
6
CONTINUOUS
10
0.1389440551181102
20
0.252386062992126
11
0.1441058661417323
21
0.2558350787401575
0
LINE
8
BLACK
6
CONTINUOUS
10
0.1441058661417323
20
0.2558350787401575
11
0.1484956299212598
21
0.260224842519685
0
LINE
8
BLACK
6
CONTINUOUS
10
0.1484956299212598
20
0.260224842519685
11
0.1519446456692913
21
0.2653866535433071
0
LINE
8
BLACK
6
CONTINUOUS
10
0.1519446456692913
20
0.2653866535433071
11
0.1543203543307086
21
0.2711221653543307
0
LINE
8
BLACK
6
CONTINUOUS
10
0.1543203543307086
20
0.2711221653543307
11
0.1555314960629921
21
0.2772109448818897
0
LINE
8
BLACK
6
CONTINUOUS
10
0.1555314960629921
20
0.2772109448818897
11
0.1555314960629921
21
0.2834189763779528
0
LINE
8
BLACK
6
CONTINUOUS
10
0.1555314960629921
20
0.2834189763779528
11
0.1555314960629921
21
0.283419094488189
0
LINE
8
BLACK
6
CONTINUOUS
10
0.1555314960629921
20
0.283419094488189
11
0.1555314566929134
21
0.2834191732283465
0
LINE
8
BLACK
6
CONTINUOUS
10
0.1555314566929134
20
0.2834191732283465
11
0.1543203543307086
21
0.2895077559055118
0
LINE
8
BLACK
6
CONTINUOUS
10
0.1543203543307086
20
0.2895077559055118
11
0.1543202755905512
21
0.2895079527559055
0
LINE
8
BLACK
6
CONTINUOUS
10
0.1543202755905512
20
0.2895079527559055
11
0.1519447637795276
21
0.295243031496063
0
LINE
8
BLACK
6
CONTINUOUS
10
0.1519447637795276
20
0.295243031496063
11
0.1519444881889764
21
0.2952435433070866
0
LINE
8
BLACK
6
CONTINUOUS
10
0.1519444881889764
20
0.2952435433070866
11
0.1484956299212598
21
0.3004050787401575
0
LINE
8
BLACK
6
CONTINUOUS
10
0.1484956299212598
20
0.3004050787401575
11
0.1484955118110236
21
0.3004052362204724
0
LINE
8
BLACK
6
CONTINUOUS
10
0.1484955118110236
20
0.3004052362204724
11
0.1441059842519685
21
0.3047947637795276
0
LINE
8
BLACK
6
CONTINUOUS
10
0.1441059842519685
20
0.3047947637795276
11
0.1441058267716535
21
0.3047948818897638
0
LINE
8
BLACK
6
CONTINUOUS
10
0.1441058267716535
20
0.3047948818897638
11
0.1389442913385827
21
0.3082437401574803
0
LINE
8
BLACK
6
CONTINUOUS
10
0.1389442913385827
20
0.3082437401574803
11
0.138943779527559
21
0.3082440157480315
0
LINE
8
BLACK
6
CONTINUOUS
10
0.138943779527559
20
0.3082440157480315
11
0.1332087007874016
21
0.3106195275590551
0
LINE
8
BLACK
6
CONTINUOUS
10
0.1332087007874016
20
0.3106195275590551
11
0.1332082283464567
21
0.3106196456692913
0
LINE
8
BLACK
6
CONTINUOUS
10
0.1332082283464567
20
0.3106196456692913
11
0.1271198818897638
21
0.3118307086614173
0
LINE
8
BLACK
6
CONTINUOUS
10
0.1271198818897638
20
0.3118307086614173
11
0.1271197637795276
21
0.3118307086614173
0
LINE
8
BLACK
6
CONTINUOUS
10
0.1271197637795276
20
0.3118307086614173
11
0.1209117322834646
21
0.3118307086614173
0
LINE
8
BLACK
6
CONTINUOUS
10
0.1209117322834646
20
0.3118307086614173
11
0.1209116141732283
21
0.3118307086614173
0
LINE
8
BLACK
6
CONTINUOUS
10
0.1209116141732283
20
0.3118307086614173
11
0.1148232283464567
21
0.3106196456692913
0
LINE
8
BLACK
6
CONTINUOUS
10
0.1148232283464567
20
0.3106196456692913
11
0.1148227559055118
21
0.3106195275590551
0
LINE
8
BLACK
6
CONTINUOUS
10
0.1148227559055118
20
0.3106195275590551
11
0.1090876771653543
21
0.3082440157480315
0
LINE
8
BLACK
6
CONTINUOUS
10
0.1090876771653543
20
0.3082440157480315
11
0.1090871653543307
21
0.3082437401574803
0
LINE
8
BLACK
6
CONTINUOUS
10
0.1090871653543307
20
0.3082437401574803
11
0.1039256299212598
21
0.3047948818897638
0
LINE
8
BLACK
6
CONTINUOUS
10
0.1039256299212598
20
0.3047948818897638
11
0.1039254724409449
21
0.3047947637795276
0
LINE
8
BLACK
6
CONTINUOUS
10
0.1039254724409449
20
0.3047947637795276
11
0.0995359448818898
21
0.3004052362204724
0
LINE
8
BLACK
6
CONTINUOUS
10
0.0995359448818898
20
0.3004052362204724
11
0.0995357086614173
21
0.3004049212598425
0
LINE
8
BLACK
6
CONTINUOUS
10
0.0995357086614173
20
0.3004049212598425
11
0.0960868897637795
21
0.2952433858267716
0
LINE
8
BLACK
6
CONTINUOUS
10
0.0960868897637795
20
0.2952433858267716
11
0.0960867716535433
21
0.2952431496062992
0
LINE
8
BLACK
6
CONTINUOUS
10
0.0960867716535433
20
0.2952431496062992
11
0.0954028346456693
21
0.2935920472440945
0
LINE
8
BLACK
6
CONTINUOUS
10
0.0954028346456693
20
0.2935920472440945
11
0.0943446062992126
21
0.2920083464566929
0
LINE
8
BLACK
6
CONTINUOUS
10
0.0943446062992126
20
0.2920083464566929
11
-0.1895320078740158
21
0.0081317322834646
0
LINE
8
BLACK
6
CONTINUOUS
10
-0.1895320078740158
20
0.0081317322834646
11
-0.1925503149606299
21
0.0036144881889764
0
LINE
8
BLACK
6
CONTINUOUS
10
-0.1925503149606299
20
0.0036144881889764
11
-0.194629094488189
21
-0.0014042125984252
0
LINE
8
BLACK
6
CONTINUOUS
10
-0.194629094488189
20
-0.0014042125984252
11
-0.1946292125984252
21
-0.0014046062992126
0
LINE
8
BLACK
6
CONTINUOUS
10
-0.1946292125984252
20
-0.0014046062992126
11
-0.1956889763779527
21
-0.0067324409448819
0
LINE
8
BLACK
6
CONTINUOUS
10
-0.1956889763779527
20
-0.0067324409448819
11
-0.1956889763779527
21
-0.3600965354330709
0
LINE
8
BLACK
6
CONTINUOUS
10
-0.1956889763779527
20
-0.3600965354330709
11
-0.1964639763779528
21
-0.3627358661417323
0
LINE
8
BLACK
6
CONTINUOUS
10
-0.1964639763779528
20
-0.3627358661417323
11
-0.1977013779527559
21
-0.364046062992126
0
LINE
8
BLACK
6
CONTINUOUS
10
-0.1977013779527559
20
-0.364046062992126
11
-0.2027475196850394
21
-0.3677122047244095
0
LINE
8
BLACK
6
CONTINUOUS
10
-0.2027475196850394
20
-0.3677122047244095
11
-0.2086657480314961
21
-0.3736304330708661
0
LINE
8
BLACK
6
CONTINUOUS
10
-0.2086657480314961
20
-0.3736304330708661
11
-0.2135846850393701
21
-0.3804008661417323
0
LINE
8
BLACK
6
CONTINUOUS
10
-0.2135846850393701
20
-0.3804008661417323
11
-0.2137604724409449
21
-0.380745905511811
0
LINE
8
BLACK
6
CONTINUOUS
10
-0.2137604724409449
20
-0.380745905511811
11
-0.2156492519685039
21
-0.3827457480314961
0
LINE
8
BLACK
6
CONTINUOUS
10
-0.2156492519685039
20
-0.3827457480314961
11
-0.2183193700787402
21
-0.3834069291338583
0
LINE
8
BLACK
6
CONTINUOUS
10
-0.2183193700787402
20
-0.3834069291338583
11
-0.2209231102362205
21
-0.3825196062992126
0
LINE
8
BLACK
6
CONTINUOUS
10
-0.2209231102362205
20
-0.3825196062992126
11
-0.22246
21
-0.380745905511811
0
LINE
8
BLACK
6
CONTINUOUS
10
-0.22246
20
-0.380745905511811
11
-0.2226358267716535
21
-0.3804008661417323
0
LINE
8
BLACK
6
CONTINUOUS
10
-0.2226358267716535
20
-0.3804008661417323
11
-0.2275547637795275
21
-0.3736304330708661
0
LINE
8
BLACK
6
CONTINUOUS
10
-0.2275547637795275
20
-0.3736304330708661
11
-0.2334729921259842
21
-0.3677122047244095
0
LINE
8
BLACK
6
CONTINUOUS
10
-0.2334729921259842
20
-0.3677122047244095
11
-0.2402433070866142
21
-0.3627933464566929
0
LINE
8
BLACK
6
CONTINUOUS
10
-0.2402433070866142
20
-0.3627933464566929
11
-0.2477002362204724
21
-0.3589938582677165
0
LINE
8
BLACK
6
CONTINUOUS
10
-0.2477002362204724
20
-0.3589938582677165
11
-0.2477002755905512
21
-0.3589938188976378
0
LINE
8
BLACK
6
CONTINUOUS
10
-0.2477002755905512
20
-0.3589938188976378
11
-0.2477003149606299
21
-0.3589938188976378
0
LINE
8
BLACK
6
CONTINUOUS
10
-0.2477003149606299
20
-0.3589938188976378
11
-0.2556597244094488
21
-0.3564076377952756
0
LINE
8
BLACK
6
CONTINUOUS
10
-0.2556597244094488
20
-0.3564076377952756
11
-0.2556598031496063
21
-0.3564075984251969
0
LINE
8
BLACK
6
CONTINUOUS
10
-0.2556598031496063
20
-0.3564075984251969
11
-0.255659842519685
21
-0.3564075984251969
0
LINE
8
BLACK
6
CONTINUOUS
10
-0.255659842519685
20
-0.3564075984251969
11
-0.2620095669291339
21
-0.3554018897637795
0
LINE
8
BLACK
6
CONTINUOUS
10
-0.2620095669291339
20
-0.3554018897637795
11
-0.2639257086614173
21
-0.3550984251968504
0
LINE
8
BLACK
6
CONTINUOUS
10
-0.2639257086614173
20
-0.3550984251968504
11
-0.2722947637795275
21
-0.3550984251968504
0
LINE
8
BLACK
6
CONTINUOUS
10
-0.2722947637795275
20
-0.3550984251968504
11
-0.2742109448818897
21
-0.3554018897637795
0
LINE
8
BLACK
6
CONTINUOUS
10
-0.2742109448818897
20
-0.3554018897637795
11
-0.2805606299212599
21
-0.3564075984251969
0
LINE
8
BLACK
6
CONTINUOUS
10
-0.2805606299212599
20
-0.3564075984251969
11
-0.2885202755905512
21
-0.3589938582677165
0
LINE
8
BLACK
6
CONTINUOUS
10
-0.2885202755905512
20
-0.3589938582677165
11
-0.2959772047244094
21
-0.3627933464566929
0
LINE
8
BLACK
6
CONTINUOUS
10
-0.2959772047244094
20
-0.3627933464566929
11
-0.3027475196850394
21
-0.3677122047244095
0
LINE
8
BLACK
6
CONTINUOUS
10
-0.3027475196850394
20
-0.3677122047244095
11
-0.308665748031496
21
-0.3736304330708661
0
LINE
8
BLACK
6
CONTINUOUS
10
-0.308665748031496
20
-0.3736304330708661
11
-0.3135846850393701
21
-0.3804008661417323
0
LINE
8
BLACK
6
CONTINUOUS
10
-0.3135846850393701
20
-0.3804008661417323
11
-0.3137715748031496
21
-0.3807676771653543
0
LINE
8
BLACK
6
CONTINUOUS
10
-0.3137715748031496
20
-0.3807676771653543
11
-0.3156603543307087
21
-0.3827674409448819
0
LINE
8
BLACK
6
CONTINUOUS
10
-0.3156603543307087
20
-0.3827674409448819
11
-0.3183305118110236
21
-0.3834286220472441
0
LINE
8
BLACK
6
CONTINUOUS
10
-0.3183305118110236
20
-0.3834286220472441
11
-0.3209342125984252
21
-0.3825412598425197
0
LINE
8
BLACK
6
CONTINUOUS
10
-0.3209342125984252
20
-0.3825412598425197
11
-0.3224711023622047
21
-0.3807675196850394
0
LINE
8
BLACK
6
CONTINUOUS
10
-0.3224711023622047
20
-0.3807675196850394
11
-0.3226526771653543
21
-0.3804111811023622
0
LINE
8
BLACK
6
CONTINUOUS
10
-0.3226526771653543
20
-0.3804111811023622
11
-0.3275698031496063
21
-0.3736433070866141
0
LINE
8
BLACK
6
CONTINUOUS
10
-0.3275698031496063
20
-0.3736433070866141
11
-0.3275699606299213
21
-0.3736431102362205
0
LINE
8
BLACK
6
CONTINUOUS
10
-0.3275699606299213
20
-0.3736431102362205
11
-0.3334856692913385
21
-0.3677274015748032
0
LINE
8
BLACK
6
CONTINUOUS
10
-0.3334856692913385
20
-0.3677274015748032
11
-0.3334858661417323
21
-0.3677272440944882
0
LINE
8
BLACK
6
CONTINUOUS
10
-0.3334858661417323
20
-0.3677272440944882
11
-0.3402536614173228
21
-0.3628101968503937
0
LINE
8
BLACK
6
CONTINUOUS
10
-0.3402536614173228
20
-0.3628101968503937
11
-0.3477080708661417
21
-0.3590119291338583
0
LINE
8
BLACK
6
CONTINUOUS
10
-0.3477080708661417
20
-0.3590119291338583
11
-0.3556644094488189
21
-0.3564268110236221
0
LINE
8
BLACK
6
CONTINUOUS
10
-0.3556644094488189
20
-0.3564268110236221
11
-0.358267716535433
21
-0.3560144881889764
0
LINE
8
BLACK
6
CONTINUOUS
10
-0.358267716535433
20
-0.3560144881889764
11
-0.358267716535433
21
-0.3762972440944882
0
LINE
8
BLACK
6
CONTINUOUS
10
-0.358267716535433
20
-0.3762972440944882
11
-0.352335157480315
21
-0.3787546062992126
0
LINE
8
BLACK
6
CONTINUOUS
10
-0.352335157480315
20
-0.3787546062992126
11
-0.3468805511811023
21
-0.3823992519685039
0
LINE
8
BLACK
6
CONTINUOUS
10
-0.3468805511811023
20
-0.3823992519685039
11
-0.3422417716535433
21
-0.387038031496063
0
LINE
8
BLACK
6
CONTINUOUS
10
-0.3422417716535433
20
-0.387038031496063
11
-0.338597125984252
21
-0.3924926377952756
0
LINE
8
BLACK
6
CONTINUOUS
10
-0.338597125984252
20
-0.3924926377952756
11
-0.3360866535433071
21
-0.3985534645669291
0
LINE
8
BLACK
6
CONTINUOUS
10
-0.3360866535433071
20
-0.3985534645669291
11
-0.334806811023622
21
-0.4049875984251968
0
LINE
8
BLACK
6
CONTINUOUS
10
-0.334806811023622
20
-0.4049875984251968
11
-0.334806811023622
21
-0.4115478346456693
0
LINE
8
BLACK
6
CONTINUOUS
10
-0.334806811023622
20
-0.4115478346456693
11
-0.3360866535433071
21
-0.417981968503937
0
LINE
8
BLACK
6
CONTINUOUS
10
-0.3360866535433071
20
-0.417981968503937
11
-0.338597125984252
21
-0.4240427952755905
0
LINE
8
BLACK
6
CONTINUOUS
10
-0.338597125984252
20
-0.4240427952755905
11
-0.3422417716535433
21
-0.4294974015748032
0
LINE
8
BLACK
6
CONTINUOUS
10
-0.3422417716535433
20
-0.4294974015748032
11
-0.3468805511811023
21
-0.4341361811023622
0
LINE
8
BLACK
6
CONTINUOUS
10
-0.3468805511811023
20
-0.4341361811023622
11
-0.352335157480315
21
-0.4377808267716535
0
LINE
8
BLACK
6
CONTINUOUS
10
-0.352335157480315
20
-0.4377808267716535
11
-0.358267716535433
21
-0.4402381496062992
0
LINE
8
BLACK
6
CONTINUOUS
10
-0.358267716535433
20
-0.4402381496062992
11
-0.358267716535433
21
-0.4762972440944882
0
LINE
8
BLACK
6
CONTINUOUS
10
-0.358267716535433
20
-0.4762972440944882
11
-0.352335157480315
21
-0.4787546062992126
0
LINE
8
BLACK
6
CONTINUOUS
10
-0.352335157480315
20
-0.4787546062992126
11
-0.3468805511811023
21
-0.4823992519685039
0
LINE
8
BLACK
6
CONTINUOUS
10
-0.3468805511811023
20
-0.4823992519685039
11
-0.3422417716535433
21
-0.487038031496063
0
LINE
8
BLACK
6
CONTINUOUS
10
-0.3422417716535433
20
-0.487038031496063
11
-0.338597125984252
21
-0.4924926377952756
0
LINE
8
BLACK
6
CONTINUOUS
10
-0.338597125984252
20
-0.4924926377952756
11
-0.3360866535433071
21
-0.4985534645669291
0
LINE
8
BLACK
6
CONTINUOUS
10
-0.3360866535433071
20
-0.4985534645669291
11
-0.334806811023622
21
-0.5049875984251968
0
LINE
8
BLACK
6
CONTINUOUS
10
-0.334806811023622
20
-0.5049875984251968
11
-0.334806811023622
21
-0.5115478346456693
0
LINE
8
BLACK
6
CONTINUOUS
10
-0.334806811023622
20
-0.5115478346456693
11
-0.3360866535433071
21
-0.517981968503937
0
LINE
8
BLACK
6
CONTINUOUS
10
-0.3360866535433071
20
-0.517981968503937
11
-0.338597125984252
21
-0.5240427952755905
0
LINE
8
BLACK
6
CONTINUOUS
10
-0.338597125984252
20
-0.5240427952755905
11
-0.3422417716535433
21
-0.5294974015748032
0
LINE
8
BLACK
6
CONTINUOUS
10
-0.3422417716535433
20
-0.5294974015748032
11
-0.3468805511811023
21
-0.5341361811023622
0
LINE
8
BLACK
6
CONTINUOUS
10
-0.3468805511811023
20
-0.5341361811023622
11
-0.352335157480315
21
-0.5377808267716535
0
LINE
8
BLACK
6
CONTINUOUS
10
-0.352335157480315
20
-0.5377808267716535
11
-0.3583959842519685
21
-0.5402912992125984
0
LINE
8
BLACK
6
CONTINUOUS
10
-0.3583959842519685
20
-0.5402912992125984
11
-0.3648301181102362
21
-0.5415711417322835
0
LINE
8
BLACK
6
CONTINUOUS
10
-0.3648301181102362
20
-0.5415711417322835
11
-0.3713903543307087
21
-0.5415711417322835
0
LINE
8
BLACK
6
CONTINUOUS
10
-0.3713903543307087
20
-0.5415711417322835
11
-0.3778244881889763
21
-0.5402912992125984
0
LINE
8
BLACK
6
CONTINUOUS
10
-0.3778244881889763
20
-0.5402912992125984
11
-0.3838853149606299
21
-0.5377808267716535
0
LINE
8
BLACK
6
CONTINUOUS
10
-0.3838853149606299
20
-0.5377808267716535
11
-0.3893399212598425
21
-0.5341361811023622
0
LINE
8
BLACK
6
CONTINUOUS
10
-0.3893399212598425
20
-0.5341361811023622
11
-0.3939787007874015
21
-0.5294974015748032
0
LINE
8
BLACK
6
CONTINUOUS
10
-0.3939787007874015
20
-0.5294974015748032
11
-0.3976233464566929
21
-0.5240427952755905
0
LINE
8
BLACK
6
CONTINUOUS
10
-0.3976233464566929
20
-0.5240427952755905
11
-0.4000806692913386
21
-0.5181102362204725
0
LINE
8
BLACK
6
CONTINUOUS
10
-0.4000806692913386
20
-0.5181102362204725
11
-0.4203634251968504
21
-0.5181102362204725
0
LINE
8
BLACK
6
CONTINUOUS
10
-0.4203634251968504
20
-0.5181102362204725
11
-0.4199511023622047
21
-0.520713622047244
0
LINE
8
BLACK
6
CONTINUOUS
10
-0.4199511023622047
20
-0.520713622047244
11
-0.4199511023622047
21
-0.5207137401574803
0
LINE
8
BLACK
6
CONTINUOUS
10
-0.4199511023622047
20
-0.5207137401574803
11
-0.4173659842519685
21
-0.5286699606299212
0
LINE
8
BLACK
6
CONTINUOUS
10
-0.4173659842519685
20
-0.5286699606299212
11
-0.4135677559055118
21
-0.5361242913385826
0
LINE
8
BLACK
6
CONTINUOUS
10
-0.4135677559055118
20
-0.5361242913385826
11
-0.4086507086614173
21
-0.5428920866141732
0
LINE
8
BLACK
6
CONTINUOUS
10
-0.4086507086614173
20
-0.5428920866141732
11
-0.4086505511811023
21
-0.542892283464567
0
LINE
8
BLACK
6
CONTINUOUS
10
-0.4086505511811023
20
-0.542892283464567
11
-0.4027348425196851
21
-0.5488079921259842
0
LINE
8
BLACK
6
CONTINUOUS
10
-0.4027348425196851
20
-0.5488079921259842
11
-0.4027346456692913
21
-0.5488081496062992
0
LINE
8
BLACK
6
CONTINUOUS
10
-0.4027346456692913
20
-0.5488081496062992
11
-0.3959668503937008
21
-0.5537251968503937
0
LINE
8
BLACK
6
CONTINUOUS
10
-0.3959668503937008
20
-0.5537251968503937
11
-0.3885125196850394
21
-0.5575234251968504
0
LINE
8
BLACK
6
CONTINUOUS
10
-0.3885125196850394
20
-0.5575234251968504
11
-0.384093031496063
21
-0.5589594094488188
0
LINE
8
BLACK
6
CONTINUOUS
10
-0.384093031496063
20
-0.5589594094488188
11
-0.3818223622047244
21
-0.5605120472440944
0
LINE
8
BLACK
6
CONTINUOUS
10
-0.3818223622047244
20
-0.5605120472440944
11
-0.3807515354330708
21
-0.5630458661417322
0
LINE
8
BLACK
6
CONTINUOUS
10
-0.3807515354330708
20
-0.5630458661417322
11
-0.3812206299212598
21
-0.5657563385826772
0
LINE
8
BLACK
6
CONTINUOUS
10
-0.3812206299212598
20
-0.5657563385826772
11
-0.3830806299212599
21
-0.5677829527559055
0
LINE
8
BLACK
6
CONTINUOUS
10
-0.3830806299212599
20
-0.5677829527559055
11
-0.3856016141732284
21
-0.5684842519685039
0
LINE
8
BLACK
6
CONTINUOUS
10
-0.3856016141732284
20
-0.5684842519685039
11
-0.7675393700787402
21
-0.5684842519685039
0
LINE
8
BLACK
6
CONTINUOUS
10
-0.7675393700787402
20
-0.5684842519685039
11
-0.7701787007874016
21
-0.567709251968504
0
LINE
8
BLACK
6
CONTINUOUS
10
-0.7701787007874016
20
-0.567709251968504
11
-0.7719800787401575
21
-0.5656303543307086
0
LINE
8
BLACK
6
CONTINUOUS
10
-0.7719800787401575
20
-0.5656303543307086
11
-0.7724212598425196
21
-0.5636023622047244
0
LINE
8
BLACK
6
CONTINUOUS
10
-0.7724212598425196
20
-0.5636023622047244
11
-0.7724212598425196
21
0.3794821653543307
0
LINE
8
BLACK
6
CONTINUOUS
10
-0.7724212598425196
20
0.3794821653543307
11
-0.7724212598425196
21
0.470820748031496
0
LINE
8
BLACK
6
CONTINUOUS
10
-0.7724212598425196
20
0.470820748031496
11
-0.7724212598425196
21
0.6862204724409449
0
LINE
8
BLACK
6
CONTINUOUS
10
-0.7724212598425196
20
0.6862204724409449
11
-0.7724212598425196
21
0.9675393700787401
0
LINE
8
BLACK
6
CONTINUOUS
10
-0.7724212598425196
20
0.9675393700787401
11
-0.7716462598425197
21
0.9701787007874015
0
LINE
8
BLACK
6
CONTINUOUS
10
-0.7716462598425197
20
0.9701787007874015
11
-0.7695673622047244
21
0.9719800787401575
0
LINE
8
BLACK
6
CONTINUOUS
10
-0.7695673622047244
20
0.9719800787401575
11
-0.7675393700787402
21
0.9724212598425197
0
LINE
8
BLACK
6
CONTINUOUS
10
-0.7675393700787402
20
0.9724212598425197
11
0.7636023622047244
21
0.9724212598425197
0
LINE
8
BLACK
6
CONTINUOUS
10
0.7636023622047244
20
0.9724212598425197
11
0.7662416929133858
21
0.9716462598425196
0
LINE
8
BLACK
6
CONTINUOUS
10
0.4202755905511811
20
-0.5358267716535433
11
0.3966535433070866
21
-0.5358267716535433
0
LINE
8
BLACK
6
CONTINUOUS
10
0.3966535433070866
20
-0.5358267716535433
11
0.3966535433070866
21
-0.555511811023622
0
LINE
8
BLACK
6
CONTINUOUS
10
0.3966535433070866
20
-0.555511811023622
11
0.4221585826771653
21
-0.555511811023622
0
LINE
8
BLACK
6
CONTINUOUS
10
0.4221585826771653
20
-0.555511811023622
11
0.4221592125984252
21
-0.5555117716535433
0
LINE
8
BLACK
6
CONTINUOUS
10
0.4221592125984252
20
-0.5555117716535433
11
0.4245028346456693
21
-0.5552597637795276
0
LINE
8
BLACK
6
CONTINUOUS
10
0.4245028346456693
20
-0.5552597637795276
11
0.4245031102362204
21
-0.5552596850393701
0
LINE
8
BLACK
6
CONTINUOUS
10
0.4245031102362204
20
-0.5552596850393701
11
0.4298065354330708
21
-0.5532816535433071
0
LINE
8
BLACK
6
CONTINUOUS
10
0.4298065354330708
20
-0.5532816535433071
11
0.4298068110236221
21
-0.5532814960629922
0
LINE
8
BLACK
6
CONTINUOUS
10
0.4298068110236221
20
-0.5532814960629922
11
0.4343380708661417
21
-0.5498893700787402
0
LINE
8
BLACK
6
CONTINUOUS
10
0.4343380708661417
20
-0.5498893700787402
11
0.4343381889763779
21
-0.5498892519685039
0
LINE
8
BLACK
6
CONTINUOUS
10
0.4343381889763779
20
-0.5498892519685039
11
0.4377303149606299
21
-0.5453579921259842
0
LINE
8
BLACK
6
CONTINUOUS
10
0.4377303149606299
20
-0.5453579921259842
11
0.4377304724409449
21
-0.5453577165354331
0
LINE
8
BLACK
6
CONTINUOUS
10
0.4377304724409449
20
-0.5453577165354331
11
0.4397085039370079
21
-0.5400542913385826
0
LINE
8
BLACK
6
CONTINUOUS
10
0.4397085039370079
20
-0.5400542913385826
11
0.4397085826771653
21
-0.5400540157480315
0
LINE
8
BLACK
6
CONTINUOUS
10
0.4397085826771653
20
-0.5400540157480315
11
0.4399605905511811
21
-0.5377103937007874
0
LINE
8
BLACK
6
CONTINUOUS
10
0.4399605905511811
20
-0.5377103937007874
11
0.4399606299212598
21
-0.5377097244094488
0
LINE
8
BLACK
6
CONTINUOUS
10
0.4399606299212598
20
-0.5377097244094488
11
0.4399606299212598
21
-0.5122047244094488
0
LINE
8
BLACK
6
CONTINUOUS
10
0.4399606299212598
20
-0.5122047244094488
11
0.4202755905511811
21
-0.5122047244094488
0
LINE
8
BLACK
6
CONTINUOUS
10
0.4202755905511811
20
-0.5122047244094488
11
0.4202755905511811
21
-0.5358267716535433
0
LINE
8
BLACK
6
CONTINUOUS
10
0.0653543307086614
20
-0.4417322834645669
11
0.0417322834645669
21
-0.4417322834645669
0
LINE
8
BLACK
6
CONTINUOUS
10
0.0417322834645669
20
-0.4417322834645669
11
0.0417322834645669
21
-0.4762972440944882
0
LINE
8
BLACK
6
CONTINUOUS
10
0.0417322834645669
20
-0.4762972440944882
11
0.047664842519685
21
-0.4787546062992126
0
LINE
8
BLACK
6
CONTINUOUS
10
0.047664842519685
20
-0.4787546062992126
11
0.0531194488188976
21
-0.4823992519685039
0
LINE
8
BLACK
6
CONTINUOUS
10
0.0531194488188976
20
-0.4823992519685039
11
0.0577582283464567
21
-0.487038031496063
0
LINE
8
BLACK
6
CONTINUOUS
10
0.0577582283464567
20
-0.487038031496063
11
0.061402874015748
21
-0.4924926377952756
0
LINE
8
BLACK
6
CONTINUOUS
10
0.061402874015748
20
-0.4924926377952756
11
0.0638601968503937
21
-0.4984251968503937
0
LINE
8
BLACK
6
CONTINUOUS
10
0.0638601968503937
20
-0.4984251968503937
11
0.0841429527559055
21
-0.4984251968503937
0
LINE
8
BLACK
6
CONTINUOUS
10
0.0841429527559055
20
-0.4984251968503937
11
0.0837305905511811
21
-0.4958217716535433
0
LINE
8
BLACK
6
CONTINUOUS
10
0.0837305905511811
20
-0.4958217716535433
11
0.0837305905511811
21
-0.4958216535433071
0
LINE
8
BLACK
6
CONTINUOUS
10
0.0837305905511811
20
-0.4958216535433071
11
0.0811454724409449
21
-0.4878654330708661
0
LINE
8
BLACK
6
CONTINUOUS
10
0.0811454724409449
20
-0.4878654330708661
11
0.0773472440944882
21
-0.4804111023622047
0
LINE
8
BLACK
6
CONTINUOUS
10
0.0773472440944882
20
-0.4804111023622047
11
0.0724301968503937
21
-0.4736433070866142
0
LINE
8
BLACK
6
CONTINUOUS
10
0.0724301968503937
20
-0.4736433070866142
11
0.0724300393700787
21
-0.4736431102362205
0
LINE
8
BLACK
6
CONTINUOUS
10
0.0724300393700787
20
-0.4736431102362205
11
0.0679395669291339
21
-0.4691526377952756
0
LINE
8
BLACK
6
CONTINUOUS
10
0.0679395669291339
20
-0.4691526377952756
11
0.0666212598425197
21
-0.4667383464566929
0
LINE
8
BLACK
6
CONTINUOUS
10
0.0666212598425197
20
-0.4667383464566929
11
0.0668174803149606
21
-0.4639945669291338
0
LINE
8
BLACK
6
CONTINUOUS
10
0.0668174803149606
20
-0.4639945669291338
11
0.0684659842519685
21
-0.4617924803149606
0
LINE
8
BLACK
6
CONTINUOUS
10
0.0684659842519685
20
-0.4617924803149606
11
0.0696855511811024
21
-0.4611265354330709
0
LINE
8
BLACK
6
CONTINUOUS
10
0.0696855511811024
20
-0.4611265354330709
11
0.0748852755905512
21
-0.4591871653543307
0
LINE
8
BLACK
6
CONTINUOUS
10
0.0748852755905512
20
-0.4591871653543307
11
0.0748855511811024
21
-0.4591870078740157
0
LINE
8
BLACK
6
CONTINUOUS
10
0.0748855511811024
20
-0.4591870078740157
11
0.079416811023622
21
-0.4557948818897637
0
LINE
8
BLACK
6
CONTINUOUS
10
0.079416811023622
20
-0.4557948818897637
11
0.0794169291338583
21
-0.4557947637795275
0
LINE
8
BLACK
6
CONTINUOUS
10
0.0794169291338583
20
-0.4557947637795275
11
0.0828090551181102
21
-0.4512635039370079
0
LINE
8
BLACK
6
CONTINUOUS
10
0.0828090551181102
20
-0.4512635039370079
11
0.0828092125984252
21
-0.4512632283464567
0
LINE
8
BLACK
6
CONTINUOUS
10
0.0828092125984252
20
-0.4512632283464567
11
0.0847872440944882
21
-0.4459598031496063
0
LINE
8
BLACK
6
CONTINUOUS
10
0.0847872440944882
20
-0.4459598031496063
11
0.0847873228346457
21
-0.4459595275590551
0
LINE
8
BLACK
6
CONTINUOUS
10
0.0847873228346457
20
-0.4459595275590551
11
0.0850393307086614
21
-0.443615905511811
0
LINE
8
BLACK
6
CONTINUOUS
10
0.0850393307086614
20
-0.443615905511811
11
0.0850393700787402
21
-0.4436152362204724
0
LINE
8
BLACK
6
CONTINUOUS
10
0.0850393700787402
20
-0.4436152362204724
11
0.0850393700787402
21
-0.4181102362204724
0
LINE
8
BLACK
6
CONTINUOUS
10
0.0850393700787402
20
-0.4181102362204724
11
0.0653543307086614
21
-0.4181102362204724
0
LINE
8
BLACK
6
CONTINUOUS
10
0.0653543307086614
20
-0.4181102362204724
11
0.0653543307086614
21
-0.4417322834645669
0
LINE
8
BLACK
6
CONTINUOUS
10
-0.4203634251968504
20
-0.4181102362204724
11
-0.4199511023622047
21
-0.4207136220472441
0
LINE
8
BLACK
6
CONTINUOUS
10
-0.4199511023622047
20
-0.4207136220472441
11
-0.4199511023622047
21
-0.4207137401574803
0
LINE
8
BLACK
6
CONTINUOUS
10
-0.4199511023622047
20
-0.4207137401574803
11
-0.4173659842519685
21
-0.4286699606299212
0
LINE
8
BLACK
6
CONTINUOUS
10
-0.4173659842519685
20
-0.4286699606299212
11
-0.4135677559055118
21
-0.4361242913385827
0
LINE
8
BLACK
6
CONTINUOUS
10
-0.4135677559055118
20
-0.4361242913385827
11
-0.4086507086614173
21
-0.4428920866141732
0
LINE
8
BLACK
6
CONTINUOUS
10
-0.4086507086614173
20
-0.4428920866141732
11
-0.4086505511811023
21
-0.4428922834645669
0
LINE
8
BLACK
6
CONTINUOUS
10
-0.4086505511811023
20
-0.4428922834645669
11
-0.4027348425196851
21
-0.4488079921259843
0
LINE
8
BLACK
6
CONTINUOUS
10
-0.4027348425196851
20
-0.4488079921259843
11
-0.4027346456692913
21
-0.4488081496062992
0
LINE
8
BLACK
6
CONTINUOUS
10
-0.4027346456692913
20
-0.4488081496062992
11
-0.3959667716535433
21
-0.4537252755905511
0
LINE
8
BLACK
6
CONTINUOUS
10
-0.3959667716535433
20
-0.4537252755905511
11
-0.3955886614173229
21
-0.4539179527559055
0
LINE
8
BLACK
6
CONTINUOUS
10
-0.3955886614173229
20
-0.4539179527559055
11
-0.3935888188976378
21
-0.4558067322834646
0
LINE
8
BLACK
6
CONTINUOUS
10
-0.3935888188976378
20
-0.4558067322834646
11
-0.3929276377952756
21
-0.4584768503937008
0
LINE
8
BLACK
6
CONTINUOUS
10
-0.3929276377952756
20
-0.4584768503937008
11
-0.3938149606299213
21
-0.4610805905511811
0
LINE
8
BLACK
6
CONTINUOUS
10
-0.3938149606299213
20
-0.4610805905511811
11
-0.3955886614173229
21
-0.4626174803149606
0
LINE
8
BLACK
6
CONTINUOUS
10
-0.3955886614173229
20
-0.4626174803149606
11
-0.3959667716535433
21
-0.4628101181102362
0
LINE
8
BLACK
6
CONTINUOUS
10
-0.3959667716535433
20
-0.4628101181102362
11
-0.4027346456692913
21
-0.4677272440944882
0
LINE
8
BLACK
6
CONTINUOUS
10
-0.4027346456692913
20
-0.4677272440944882
11
-0.4027348425196851
21
-0.4677274015748031
0
LINE
8
BLACK
6
CONTINUOUS
10
-0.4027348425196851
20
-0.4677274015748031
11
-0.4086505511811023
21
-0.4736431102362205
0
LINE
8
BLACK
6
CONTINUOUS
10
-0.4086505511811023
20
-0.4736431102362205
11
-0.4086507086614173
21
-0.4736433070866142
0
LINE
8
BLACK
6
CONTINUOUS
10
-0.4086507086614173
20
-0.4736433070866142
11
-0.4135677559055118
21
-0.4804111023622047
0
LINE
8
BLACK
6
CONTINUOUS
10
-0.4135677559055118
20
-0.4804111023622047
11
-0.4173659842519685
21
-0.4878654330708661
0
LINE
8
BLACK
6
CONTINUOUS
10
-0.4173659842519685
20
-0.4878654330708661
11
-0.4199511023622047
21
-0.4958216535433071
0
LINE
8
BLACK
6
CONTINUOUS
10
-0.4199511023622047
20
-0.4958216535433071
11
-0.4199511023622047
21
-0.4958217716535433
0
LINE
8
BLACK
6
CONTINUOUS
10
-0.4199511023622047
20
-0.4958217716535433
11
-0.4203634251968504
21
-0.4984251968503937
0
LINE
8
BLACK
6
CONTINUOUS
10
-0.4203634251968504
20
-0.4984251968503937
11
-0.4000806692913386
21
-0.4984251968503937
0
LINE
8
BLACK
6
CONTINUOUS
10
-0.4000806692913386
20
-0.4984251968503937
11
-0.3976233464566929
21
-0.4924926377952756
0
LINE
8
BLACK
6
CONTINUOUS
10
-0.3976233464566929
20
-0.4924926377952756
11
-0.3939787007874015
21
-0.487038031496063
0
LINE
8
BLACK
6
CONTINUOUS
10
-0.3939787007874015
20
-0.487038031496063
11
-0.3893399212598425
21
-0.4823992519685039
0
LINE
8
BLACK
6
CONTINUOUS
10
-0.3893399212598425
20
-0.4823992519685039
11
-0.3838853149606299
21
-0.4787546062992126
0
LINE
8
BLACK
6
CONTINUOUS
10
-0.3838853149606299
20
-0.4787546062992126
11
-0.3779527559055118
21
-0.4762972440944882
0
LINE
8
BLACK
6
CONTINUOUS
10
-0.3779527559055118
20
-0.4762972440944882
11
-0.3779527559055118
21
-0.4402381496062992
0
LINE
8
BLACK
6
CONTINUOUS
10
-0.3779527559055118
20
-0.4402381496062992
11
-0.3838853149606299
21
-0.4377808267716535
0
LINE
8
BLACK
6
CONTINUOUS
10
-0.3838853149606299
20
-0.4377808267716535
11
-0.3893399212598425
21
-0.4341361811023622
0
LINE
8
BLACK
6
CONTINUOUS
10
-0.3893399212598425
20
-0.4341361811023622
11
-0.3939787007874015
21
-0.4294974015748032
0
LINE
8
BLACK
6
CONTINUOUS
10
-0.3939787007874015
20
-0.4294974015748032
11
-0.3976233464566929
21
-0.4240427952755905
0
LINE
8
BLACK
6
CONTINUOUS
10
-0.3976233464566929
20
-0.4240427952755905
11
-0.4000806692913386
21
-0.4181102362204724
0
LINE
8
BLACK
6
CONTINUOUS
10
-0.4000806692913386
20
-0.4181102362204724
11
-0.4203634251968504
21
-0.4181102362204724
0
LINE
8
BLACK
6
CONTINUOUS
10
0.3966535433070866
20
-0.4688976377952756
11
0.4202755905511811
21
-0.4688976377952756
0
LINE
8
BLACK
6
CONTINUOUS
10
0.4202755905511811
20
-0.4688976377952756
11
0.4202755905511811
21
-0.49251968503937
0
LINE
8
BLACK
6
CONTINUOUS
10
0.4202755905511811
20
-0.49251968503937
11
0.4399606299212598
21
-0.49251968503937
0
LINE
8
BLACK
6
CONTINUOUS
10
0.4399606299212598
20
-0.49251968503937
11
0.4399606299212598
21
-0.4670146456692914
0
LINE
8
BLACK
6
CONTINUOUS
10
0.4399606299212598
20
-0.4670146456692914
11
0.4399605905511811
21
-0.4670139763779527
0
LINE
8
BLACK
6
CONTINUOUS
10
0.4399605905511811
20
-0.4670139763779527
11
0.4397085826771653
21
-0.4646703543307086
0
LINE
8
BLACK
6
CONTINUOUS
10
0.4397085826771653
20
-0.4646703543307086
11
0.4397085039370079
21
-0.4646700787401575
0
LINE
8
BLACK
6
CONTINUOUS
10
0.4397085039370079
20
-0.4646700787401575
11
0.4377304724409449
21
-0.4593666535433071
0
LINE
8
BLACK
6
CONTINUOUS
10
0.4377304724409449
20
-0.4593666535433071
11
0.4377303149606299
21
-0.4593663779527559
0
LINE
8
BLACK
6
CONTINUOUS
10
0.4377303149606299
20
-0.4593663779527559
11
0.4343381889763779
21
-0.4548351181102362
0
LINE
8
BLACK
6
CONTINUOUS
10
0.4343381889763779
20
-0.4548351181102362
11
0.4343380708661417
21
-0.454835
0
LINE
8
BLACK
6
CONTINUOUS
10
0.4343380708661417
20
-0.454835
11
0.4298068110236221
21
-0.451442874015748
0
LINE
8
BLACK
6
CONTINUOUS
10
0.4298068110236221
20
-0.451442874015748
11
0.4298065354330708
21
-0.4514427165354331
0
LINE
8
BLACK
6
CONTINUOUS
10
0.4298065354330708
20
-0.4514427165354331
11
0.4245031102362204
21
-0.4494646850393701
0
LINE
8
BLACK
6
CONTINUOUS
10
0.4245031102362204
20
-0.4494646850393701
11
0.4245028346456693
21
-0.4494646062992126
0
LINE
8
BLACK
6
CONTINUOUS
10
0.4245028346456693
20
-0.4494646062992126
11
0.4221592125984252
21
-0.4492125984251968
0
LINE
8
BLACK
6
CONTINUOUS
10
0.4221592125984252
20
-0.4492125984251968
11
0.3966535433070866
21
-0.4492125984251968
0
LINE
8
BLACK
6
CONTINUOUS
10
0.3966535433070866
20
-0.4492125984251968
11
0.3966535433070866
21
-0.4688976377952756
0
LINE
8
BLACK
6
CONTINUOUS
10
0.0417322834645669
20
-0.3748031496062992
11
0.0653543307086614
21
-0.3748031496062992
0
LINE
8
BLACK
6
CONTINUOUS
10
0.0653543307086614
20
-0.3748031496062992
11
0.0653543307086614
21
-0.3984251968503937
0
LINE
8
BLACK
6
CONTINUOUS
10
0.0653543307086614
20
-0.3984251968503937
11
0.0850393700787402
21
-0.3984251968503937
0
LINE
8
BLACK
6
CONTINUOUS
10
0.0850393700787402
20
-0.3984251968503937
11
0.0850393700787402
21
-0.3729201574803149
0
LINE
8
BLACK
6
CONTINUOUS
10
0.0850393700787402
20
-0.3729201574803149
11
0.0850393307086614
21
-0.3729194881889764
0
LINE
8
BLACK
6
CONTINUOUS
10
0.0850393307086614
20
-0.3729194881889764
11
0.0847873228346457
21
-0.3705758661417323
0
LINE
8
BLACK
6
CONTINUOUS
10
0.0847873228346457
20
-0.3705758661417323
11
0.0847872440944882
21
-0.3705755905511811
0
LINE
8
BLACK
6
CONTINUOUS
10
0.0847872440944882
20
-0.3705755905511811
11
0.0828092125984252
21
-0.3652721653543307
0
LINE
8
BLACK
6
CONTINUOUS
10
0.0828092125984252
20
-0.3652721653543307
11
0.0828090551181102
21
-0.3652718897637795
0
LINE
8
BLACK
6
CONTINUOUS
10
0.0828090551181102
20
-0.3652718897637795
11
0.0794169291338583
21
-0.3607406299212598
0
LINE
8
BLACK
6
CONTINUOUS
10
0.0794169291338583
20
-0.3607406299212598
11
0.079416811023622
21
-0.3607405118110236
0
LINE
8
BLACK
6
CONTINUOUS
10
0.079416811023622
20
-0.3607405118110236
11
0.0748855511811024
21
-0.3573483858267716
0
LINE
8
BLACK
6
CONTINUOUS
10
0.0748855511811024
20
-0.3573483858267716
11
0.0748852755905512
21
-0.3573482283464567
0
LINE
8
BLACK
6
CONTINUOUS
10
0.0748852755905512
20
-0.3573482283464567
11
0.0695818503937008
21
-0.3553701968503937
0
LINE
8
BLACK
6
CONTINUOUS
10
0.0695818503937008
20
-0.3553701968503937
11
0.0695815748031496
21
-0.3553701181102362
0
LINE
8
BLACK
6
CONTINUOUS
10
0.0695815748031496
20
-0.3553701181102362
11
0.0672379527559055
21
-0.3551181102362205
0
LINE
8
BLACK
6
CONTINUOUS
10
0.0672379527559055
20
-0.3551181102362205
11
0.0417322834645669
21
-0.3551181102362205
0
LINE
8
BLACK
6
CONTINUOUS
10
0.0417322834645669
20
-0.3551181102362205
11
0.0417322834645669
21
-0.3748031496062992
0
LINE
8
BLACK
6
CONTINUOUS
10
-0.3805561023622047
20
-0.3564268110236221
11
-0.3885124409448819
21
-0.3590119291338583
0
LINE
8
BLACK
6
CONTINUOUS
10
-0.3885124409448819
20
-0.3590119291338583
11
-0.3959668503937008
21
-0.3628101968503937
0
LINE
8
BLACK
6
CONTINUOUS
10
-0.3959668503937008
20
-0.3628101968503937
11
-0.4027346456692913
21
-0.3677272440944882
0
LINE
8
BLACK
6
CONTINUOUS
10
-0.4027346456692913
20
-0.3677272440944882
11
-0.4027348425196851
21
-0.3677274015748032
0
LINE
8
BLACK
6
CONTINUOUS
10
-0.4027348425196851
20
-0.3677274015748032
11
-0.4086505511811023
21
-0.3736431102362205
0
LINE
8
BLACK
6
CONTINUOUS
10
-0.4086505511811023
20
-0.3736431102362205
11
-0.4086507086614173
21
-0.3736433070866141
0
LINE
8
BLACK
6
CONTINUOUS
10
-0.4086507086614173
20
-0.3736433070866141
11
-0.4135677559055118
21
-0.3804111023622047
0
LINE
8
BLACK
6
CONTINUOUS
10
-0.4135677559055118
20
-0.3804111023622047
11
-0.4173659842519685
21
-0.3878654330708661
0
LINE
8
BLACK
6
CONTINUOUS
10
-0.4173659842519685
20
-0.3878654330708661
11
-0.4199511023622047
21
-0.3958216535433071
0
LINE
8
BLACK
6
CONTINUOUS
10
-0.4199511023622047
20
-0.3958216535433071
11
-0.4199511023622047
21
-0.3958217716535433
0
LINE
8
BLACK
6
CONTINUOUS
10
-0.4199511023622047
20
-0.3958217716535433
11
-0.4203634251968504
21
-0.3984251968503937
0
LINE
8
BLACK
6
CONTINUOUS
10
-0.4203634251968504
20
-0.3984251968503937
11
-0.4000806692913386
21
-0.3984251968503937
0
LINE
8
BLACK
6
CONTINUOUS
10
-0.4000806692913386
20
-0.3984251968503937
11
-0.3976233464566929
21
-0.3924926377952756
0
LINE
8
BLACK
6
CONTINUOUS
10
-0.3976233464566929
20
-0.3924926377952756
11
-0.3939787007874015
21
-0.387038031496063
0
LINE
8
BLACK
6
CONTINUOUS
10
-0.3939787007874015
20
-0.387038031496063
11
-0.3893399212598425
21
-0.3823992519685039
0
LINE
8
BLACK
6
CONTINUOUS
10
-0.3893399212598425
20
-0.3823992519685039
11
-0.3838853149606299
21
-0.3787546062992126
0
LINE
8
BLACK
6
CONTINUOUS
10
-0.3838853149606299
20
-0.3787546062992126
11
-0.3779527559055118
21
-0.3762972440944882
0
LINE
8
BLACK
6
CONTINUOUS
10
-0.3779527559055118
20
-0.3762972440944882
11
-0.3779527559055118
21
-0.3560144881889764
0
LINE
8
BLACK
6
CONTINUOUS
10
-0.3779527559055118
20
-0.3560144881889764
11
-0.3779527952755906
21
-0.3560144881889764
0
LINE
8
BLACK
6
CONTINUOUS
10
-0.3779527952755906
20
-0.3560144881889764
11
-0.3805561023622047
21
-0.3564268110236221
0
LINE
8
BLACK
6
CONTINUOUS
10
-0.0197047244094488
20
0.373273779527559
11
-0.0184936614173228
21
0.3671854724409448
0
LINE
8
BLACK
6
CONTINUOUS
10
-0.0184936614173228
20
0.3671854724409448
11
-0.0184935433070866
21
0.367185
0
LINE
8
BLACK
6
CONTINUOUS
10
-0.0184935433070866
20
0.367185
11
-0.016118031496063
21
0.3614499212598425
0
LINE
8
BLACK
6
CONTINUOUS
10
-0.016118031496063
20
0.3614499212598425
11
-0.0161177559055118
21
0.3614494094488189
0
LINE
8
BLACK
6
CONTINUOUS
10
-0.0161177559055118
20
0.3614494094488189
11
-0.0126688976377953
21
0.356287874015748
0
LINE
8
BLACK
6
CONTINUOUS
10
-0.0126688976377953
20
0.356287874015748
11
-0.0126687795275591
21
0.3562877165354331
0
LINE
8
BLACK
6
CONTINUOUS
10
-0.0126687795275591
20
0.3562877165354331
11
-0.0082792519685039
21
0.3518981889763779
0
LINE
8
BLACK
6
CONTINUOUS
10
-0.0082792519685039
20
0.3518981889763779
11
-0.008279094488189
21
0.3518980708661417
0
LINE
8
BLACK
6
CONTINUOUS
10
-0.008279094488189
20
0.3518980708661417
11
-0.0031175590551181
21
0.3484492125984252
0
LINE
8
BLACK
6
CONTINUOUS
10
-0.0031175590551181
20
0.3484492125984252
11
-0.0031170472440945
21
0.348448937007874
0
LINE
8
BLACK
6
CONTINUOUS
10
-0.0031170472440945
20
0.348448937007874
11
0.002618031496063
21
0.3460734251968504
0
LINE
8
BLACK
6
CONTINUOUS
10
0.002618031496063
20
0.3460734251968504
11
0.0026182283464567
21
0.3460733464566929
0
LINE
8
BLACK
6
CONTINUOUS
10
0.0026182283464567
20
0.3460733464566929
11
0.008706811023622
21
0.3448622440944882
0
LINE
8
BLACK
6
CONTINUOUS
10
0.008706811023622
20
0.3448622440944882
11
0.0087069291338583
21
0.3448622047244094
0
LINE
8
BLACK
6
CONTINUOUS
10
0.0087069291338583
20
0.3448622047244094
11
0.0087070078740157
21
0.3448622047244094
0
LINE
8
BLACK
6
CONTINUOUS
10
0.0087070078740157
20
0.3448622047244094
11
0.0149151181102362
21
0.3448622047244094
0
LINE
8
BLACK
6
CONTINUOUS
10
0.0149151181102362
20
0.3448622047244094
11
0.014915157480315
21
0.3448622440944882
0
LINE
8
BLACK
6
CONTINUOUS
10
0.014915157480315
20
0.3448622440944882
11
0.0210038188976378
21
0.3460733464566929
0
LINE
8
BLACK
6
CONTINUOUS
10
0.0210038188976378
20
0.3460733464566929
11
0.0267393307086614
21
0.3484490551181103
0
LINE
8
BLACK
6
CONTINUOUS
10
0.0267393307086614
20
0.3484490551181103
11
0.0289781102362205
21
0.349945
0
LINE
8
BLACK
6
CONTINUOUS
10
0.0289781102362205
20
0.349945
11
0.031603188976378
21
0.3507669291338583
0
LINE
8
BLACK
6
CONTINUOUS
10
0.031603188976378
20
0.3507669291338583
11
0.0316903543307087
21
0.350767716535433
0
LINE
8
BLACK
6
CONTINUOUS
10
0.0316903543307087
20
0.350767716535433
11
0.2098107086614173
21
0.350767716535433
0
LINE
8
BLACK
6
CONTINUOUS
10
0.2098107086614173
20
0.350767716535433
11
0.2124500393700787
21
0.3499927165354331
0
LINE
8
BLACK
6
CONTINUOUS
10
0.2124500393700787
20
0.3499927165354331
11
0.2132627165354331
21
0.3493378346456693
0
LINE
8
BLACK
6
CONTINUOUS
10
0.2132627165354331
20
0.3493378346456693
11
0.2587866535433071
21
0.3038138976377953
0
LINE
8
BLACK
6
CONTINUOUS
10
0.2587866535433071
20
0.3038138976377953
11
0.2601049606299213
21
0.3013996062992126
0
LINE
8
BLACK
6
CONTINUOUS
10
0.2601049606299213
20
0.3013996062992126
11
0.2602165354330709
21
0.3003618897637795
0
LINE
8
BLACK
6
CONTINUOUS
10
0.2602165354330709
20
0.3003618897637795
11
0.2602165354330709
21
0.1655486614173228
0
LINE
8
BLACK
6
CONTINUOUS
10
0.2602165354330709
20
0.1655486614173228
11
0.2594415354330709
21
0.1629093307086614
0
LINE
8
BLACK
6
CONTINUOUS
10
0.2594415354330709
20
0.1629093307086614
11
0.2593938188976378
21
0.1628364566929134
0
LINE
8
BLACK
6
CONTINUOUS
10
0.2593938188976378
20
0.1628364566929134
11
0.2578979527559055
21
0.1605977559055118
0
LINE
8
BLACK
6
CONTINUOUS
10
0.2578979527559055
20
0.1605977559055118
11
0.2578977165354331
21
0.1605973228346457
0
LINE
8
BLACK
6
CONTINUOUS
10
0.2578977165354331
20
0.1605973228346457
11
0.2555222047244095
21
0.1548622834645669
0
LINE
8
BLACK
6
CONTINUOUS
10
0.2555222047244095
20
0.1548622834645669
11
0.2555220866141732
21
0.154861811023622
0
LINE
8
BLACK
6
CONTINUOUS
10
0.2555220866141732
20
0.154861811023622
11
0.2543110236220472
21
0.1487735039370079
0
LINE
8
BLACK
6
CONTINUOUS
10
0.2543110236220472
20
0.1487735039370079
11
0.2543110236220472
21
0.1425651181102362
0
LINE
8
BLACK
6
CONTINUOUS
10
0.2543110236220472
20
0.1425651181102362
11
0.2555220866141732
21
0.1364768110236221
0
LINE
8
BLACK
6
CONTINUOUS
10
0.2555220866141732
20
0.1364768110236221
11
0.2555222047244095
21
0.1364763385826772
0
LINE
8
BLACK
6
CONTINUOUS
10
0.2555222047244095
20
0.1364763385826772
11
0.2578977165354331
21
0.1307412598425197
0
LINE
8
BLACK
6
CONTINUOUS
10
0.2578977165354331
20
0.1307412598425197
11
0.2578979921259842
21
0.1307407480314961
0
LINE
8
BLACK
6
CONTINUOUS
10
0.2578979921259842
20
0.1307407480314961
11
0.2613468503937008
21
0.1255792125984252
0
LINE
8
BLACK
6
CONTINUOUS
10
0.2613468503937008
20
0.1255792125984252
11
0.261346968503937
21
0.1255790551181102
0
LINE
8
BLACK
6
CONTINUOUS
10
0.261346968503937
20
0.1255790551181102
11
0.2657364960629921
21
0.1211895275590551
0
LINE
8
BLACK
6
CONTINUOUS
10
0.2657364960629921
20
0.1211895275590551
11
0.2657366535433071
21
0.1211894094488189
0
LINE
8
BLACK
6
CONTINUOUS
10
0.2657366535433071
20
0.1211894094488189
11
0.270898188976378
21
0.1177405511811024
0
LINE
8
BLACK
6
CONTINUOUS
10
0.270898188976378
20
0.1177405511811024
11
0.2708987007874016
21
0.1177402755905512
0
LINE
8
BLACK
6
CONTINUOUS
10
0.2708987007874016
20
0.1177402755905512
11
0.2766337795275591
21
0.1153647637795276
0
LINE
8
BLACK
6
CONTINUOUS
10
0.2766337795275591
20
0.1153647637795276
11
0.2766339763779527
21
0.1153646850393701
0
LINE
8
BLACK
6
CONTINUOUS
10
0.2766339763779527
20
0.1153646850393701
11
0.2827225590551181
21
0.1141535826771654
0
LINE
8
BLACK
6
CONTINUOUS
10
0.2827225590551181
20
0.1141535826771654
11
0.2827226771653543
21
0.1141535433070866
0
LINE
8
BLACK
6
CONTINUOUS
10
0.2827226771653543
20
0.1141535433070866
11
0.2827227559055118
21
0.1141535433070866
0
LINE
8
BLACK
6
CONTINUOUS
10
0.2827227559055118
20
0.1141535433070866
11
0.2889308661417323
21
0.1141535433070866
0
LINE
8
BLACK
6
CONTINUOUS
10
0.2889308661417323
20
0.1141535433070866
11
0.288930905511811
21
0.1141535826771654
0
LINE
8
BLACK
6
CONTINUOUS
10
0.288930905511811
20
0.1141535826771654
11
0.2950195669291338
21
0.1153646850393701
0
LINE
8
BLACK
6
CONTINUOUS
10
0.2950195669291338
20
0.1153646850393701
11
0.3007550787401575
21
0.1177403937007874
0
LINE
8
BLACK
6
CONTINUOUS
10
0.3007550787401575
20
0.1177403937007874
11
0.3059168897637795
21
0.1211894094488189
0
LINE
8
BLACK
6
CONTINUOUS
10
0.3059168897637795
20
0.1211894094488189
11
0.3103066535433071
21
0.1255791732283464
0
LINE
8
BLACK
6
CONTINUOUS
10
0.3103066535433071
20
0.1255791732283464
11
0.3137556692913386
21
0.1307409842519685
0
LINE
8
BLACK
6
CONTINUOUS
10
0.3137556692913386
20
0.1307409842519685
11
0.3161313779527559
21
0.1364764960629921
0
LINE
8
BLACK
6
CONTINUOUS
10
0.3161313779527559
20
0.1364764960629921
11
0.3173425196850393
21
0.1425652755905512
0
LINE
8
BLACK
6
CONTINUOUS
10
0.3173425196850393
20
0.1425652755905512
11
0.3173425196850393
21
0.1487733070866142
0
LINE
8
BLACK
6
CONTINUOUS
10
0.3173425196850393
20
0.1487733070866142
11
0.3173425196850393
21
0.1487734251968504
0
LINE
8
BLACK
6
CONTINUOUS
10
0.3173425196850393
20
0.1487734251968504
11
0.3173424803149606
21
0.1487735039370079
0
LINE
8
BLACK
6
CONTINUOUS
10
0.3173424803149606
20
0.1487735039370079
11
0.3161314173228346
21
0.154861811023622
0
LINE
8
BLACK
6
CONTINUOUS
10
0.3161314173228346
20
0.154861811023622
11
0.3161313779527559
21
0.1548620866141732
0
LINE
8
BLACK
6
CONTINUOUS
10
0.3161313779527559
20
0.1548620866141732
11
0.3137556692913386
21
0.1605975984251969
0
LINE
8
BLACK
6
CONTINUOUS
10
0.3137556692913386
20
0.1605975984251969
11
0.3122596850393701
21
0.1628364960629921
0
LINE
8
BLACK
6
CONTINUOUS
10
0.3122596850393701
20
0.1628364960629921
11
0.3114377952755906
21
0.1654615748031496
0
LINE
8
BLACK
6
CONTINUOUS
10
0.3114377952755906
20
0.1654615748031496
11
0.3114370078740157
21
0.1655486614173228
0
LINE
8
BLACK
6
CONTINUOUS
10
0.3114370078740157
20
0.1655486614173228
11
0.3114370078740157
21
0.3155146456692913
0
LINE
8
BLACK
6
CONTINUOUS
10
0.3114370078740157
20
0.3155146456692913
11
0.3104528346456693
21
0.3204621653543307
0
LINE
8
BLACK
6
CONTINUOUS
10
0.3104528346456693
20
0.3204621653543307
11
0.3104527952755906
21
0.3204622047244094
0
LINE
8
BLACK
6
CONTINUOUS
10
0.3104527952755906
20
0.3204622047244094
11
0.3104527952755906
21
0.3204623622047244
0
LINE
8
BLACK
6
CONTINUOUS
10
0.3104527952755906
20
0.3204623622047244
11
0.3085222440944882
21
0.3251231102362205
0
LINE
8
BLACK
6
CONTINUOUS
10
0.3085222440944882
20
0.3251231102362205
11
0.3057195669291338
21
0.3293176771653543
0
LINE
8
BLACK
6
CONTINUOUS
10
0.3057195669291338
20
0.3293176771653543
11
0.3057194881889764
21
0.3293177559055118
0
LINE
8
BLACK
6
CONTINUOUS
10
0.3057194881889764
20
0.3293177559055118
11
0.3057194094488189
21
0.329317874015748
0
LINE
8
BLACK
6
CONTINUOUS
10
0.3057194094488189
20
0.329317874015748
11
0.2387666535433071
21
0.3962706299212598
0
LINE
8
BLACK
6
CONTINUOUS
10
0.2387666535433071
20
0.3962706299212598
11
0.2387664960629921
21
0.396270748031496
0
LINE
8
BLACK
6
CONTINUOUS
10
0.2387664960629921
20
0.396270748031496
11
0.2345719291338583
21
0.3990734251968504
0
LINE
8
BLACK
6
CONTINUOUS
10
0.2345719291338583
20
0.3990734251968504
11
0.2299111811023622
21
0.4010039763779528
0
LINE
8
BLACK
6
CONTINUOUS
10
0.2299111811023622
20
0.4010039763779528
11
0.2299109448818898
21
0.4010040551181102
0
LINE
8
BLACK
6
CONTINUOUS
10
0.2299109448818898
20
0.4010040551181102
11
0.2249634251968504
21
0.4019881889763779
0
LINE
8
BLACK
6
CONTINUOUS
10
0.2249634251968504
20
0.4019881889763779
11
0.2249633464566929
21
0.4019881889763779
0
LINE
8
BLACK
6
CONTINUOUS
10
0.2249633464566929
20
0.4019881889763779
11
0.0316903543307087
21
0.4019881889763779
0
LINE
8
BLACK
6
CONTINUOUS
10
0.0316903543307087
20
0.4019881889763779
11
0.0290510236220472
21
0.4027631889763779
0
LINE
8
BLACK
6
CONTINUOUS
10
0.0290510236220472
20
0.4027631889763779
11
0.0289799212598425
21
0.4028097244094488
0
LINE
8
BLACK
6
CONTINUOUS
10
0.0289799212598425
20
0.4028097244094488
11
0.0267393307086614
21
0.4043068503937008
0
LINE
8
BLACK
6
CONTINUOUS
10
0.0267393307086614
20
0.4043068503937008
11
0.0267390551181102
21
0.4043070078740157
0
LINE
8
BLACK
6
CONTINUOUS
10
0.0267390551181102
20
0.4043070078740157
11
0.0210039763779528
21
0.4066825196850394
0
LINE
8
BLACK
6
CONTINUOUS
10
0.0210039763779528
20
0.4066825196850394
11
0.0210035039370079
21
0.4066826377952756
0
LINE
8
BLACK
6
CONTINUOUS
10
0.0210035039370079
20
0.4066826377952756
11
0.014915157480315
21
0.4078937007874016
0
LINE
8
BLACK
6
CONTINUOUS
10
0.014915157480315
20
0.4078937007874016
11
0.0149150393700787
21
0.4078937007874016
0
LINE
8
BLACK
6
CONTINUOUS
10
0.0149150393700787
20
0.4078937007874016
11
0.0087070078740157
21
0.4078937007874016
0
LINE
8
BLACK
6
CONTINUOUS
10
0.0087070078740157
20
0.4078937007874016
11
0.0087068897637795
21
0.4078937007874016
0
LINE
8
BLACK
6
CONTINUOUS
10
0.0087068897637795
20
0.4078937007874016
11
0.0026185039370079
21
0.4066826377952756
0
LINE
8
BLACK
6
CONTINUOUS
10
0.0026185039370079
20
0.4066826377952756
11
0.002618031496063
21
0.4066825196850394
0
LINE
8
BLACK
6
CONTINUOUS
10
0.002618031496063
20
0.4066825196850394
11
-0.0031170472440945
21
0.4043070078740157
0
LINE
8
BLACK
6
CONTINUOUS
10
-0.0031170472440945
20
0.4043070078740157
11
-0.0031175590551181
21
0.4043067322834645
0
LINE
8
BLACK
6
CONTINUOUS
10
-0.0031175590551181
20
0.4043067322834645
11
-0.008279094488189
21
0.400857874015748
0
LINE
8
BLACK
6
CONTINUOUS
10
-0.008279094488189
20
0.400857874015748
11
-0.0082792519685039
21
0.4008577559055118
0
LINE
8
BLACK
6
CONTINUOUS
10
-0.0082792519685039
20
0.4008577559055118
11
-0.0126687795275591
21
0.3964682283464567
0
LINE
8
BLACK
6
CONTINUOUS
10
-0.0126687795275591
20
0.3964682283464567
11
-0.0126688976377953
21
0.3964680708661417
0
LINE
8
BLACK
6
CONTINUOUS
10
-0.0126688976377953
20
0.3964680708661417
11
-0.0161177559055118
21
0.3913065354330709
0
LINE
8
BLACK
6
CONTINUOUS
10
-0.0161177559055118
20
0.3913065354330709
11
-0.016118031496063
21
0.3913060236220472
0
LINE
8
BLACK
6
CONTINUOUS
10
-0.016118031496063
20
0.3913060236220472
11
-0.0184935433070866
21
0.3855709448818898
0
LINE
8
BLACK
6
CONTINUOUS
10
-0.0184935433070866
20
0.3855709448818898
11
-0.0184936614173228
21
0.3855704724409449
0
LINE
8
BLACK
6
CONTINUOUS
10
-0.0184936614173228
20
0.3855704724409449
11
-0.0197047244094488
21
0.3794821653543307
0
LINE
8
BLACK
6
CONTINUOUS
10
-0.0197047244094488
20
0.3794821653543307
11
-0.0197047244094488
21
0.373273779527559
0
LINE
8
BLACK
6
CONTINUOUS
10
0.0078543307086614
20
0.4646123622047244
11
0.0090653937007874
21
0.4585240551181102
0
LINE
8
BLACK
6
CONTINUOUS
10
0.0090653937007874
20
0.4585240551181102
11
0.0090655118110236
21
0.4585235826771654
0
LINE
8
BLACK
6
CONTINUOUS
10
0.0090655118110236
20
0.4585235826771654
11
0.0114410236220472
21
0.4527885039370079
0
LINE
8
BLACK
6
CONTINUOUS
10
0.0114410236220472
20
0.4527885039370079
11
0.0114412992125984
21
0.4527879921259843
0
LINE
8
BLACK
6
CONTINUOUS
10
0.0114412992125984
20
0.4527879921259843
11
0.014890157480315
21
0.4476264566929134
0
LINE
8
BLACK
6
CONTINUOUS
10
0.014890157480315
20
0.4476264566929134
11
0.0148902755905512
21
0.4476262992125984
0
LINE
8
BLACK
6
CONTINUOUS
10
0.0148902755905512
20
0.4476262992125984
11
0.0192798031496063
21
0.4432367716535433
0
LINE
8
BLACK
6
CONTINUOUS
10
0.0192798031496063
20
0.4432367716535433
11
0.0192799606299213
21
0.4432366535433071
0
LINE
8
BLACK
6
CONTINUOUS
10
0.0192799606299213
20
0.4432366535433071
11
0.0244414960629921
21
0.4397877952755905
0
LINE
8
BLACK
6
CONTINUOUS
10
0.0244414960629921
20
0.4397877952755905
11
0.0244420078740157
21
0.4397875196850394
0
LINE
8
BLACK
6
CONTINUOUS
10
0.0244420078740157
20
0.4397875196850394
11
0.0278830708661417
21
0.4383622440944882
0
LINE
8
BLACK
6
CONTINUOUS
10
0.0278830708661417
20
0.4383622440944882
11
0.0301772834645669
21
0.4374119291338582
0
LINE
8
BLACK
6
CONTINUOUS
10
0.0301772834645669
20
0.4374119291338582
11
0.0328181496062992
21
0.4368866535433071
0
LINE
8
BLACK
6
CONTINUOUS
10
0.0328181496062992
20
0.4368866535433071
11
0.0352555118110236
21
0.4356116929133858
0
LINE
8
BLACK
6
CONTINUOUS
10
0.0352555118110236
20
0.4356116929133858
11
0.0353177165354331
21
0.4355505905511811
0
LINE
8
BLACK
6
CONTINUOUS
10
0.0353177165354331
20
0.4355505905511811
11
0.0430993700787402
21
0.427768937007874
0
LINE
8
BLACK
6
CONTINUOUS
10
0.0430993700787402
20
0.427768937007874
11
0.0466665748031496
21
0.4242017322834646
0
LINE
8
BLACK
6
CONTINUOUS
10
0.0466665748031496
20
0.4242017322834646
11
0.0466666141732283
21
0.4242016929133858
0
LINE
8
BLACK
6
CONTINUOUS
10
0.0466666141732283
20
0.4242016929133858
11
0.0508608661417323
21
0.4213991732283465
0
LINE
8
BLACK
6
CONTINUOUS
10
0.0508608661417323
20
0.4213991732283465
11
0.0508611023622047
21
0.4213990551181102
0
LINE
8
BLACK
6
CONTINUOUS
10
0.0508611023622047
20
0.4213990551181102
11
0.0508611417322835
21
0.4213990157480315
0
LINE
8
BLACK
6
CONTINUOUS
10
0.0508611417322835
20
0.4213990157480315
11
0.0555218897637795
21
0.4194684645669291
0
LINE
8
BLACK
6
CONTINUOUS
10
0.0555218897637795
20
0.4194684645669291
11
0.0555220472440945
21
0.4194684645669291
0
LINE
8
BLACK
6
CONTINUOUS
10
0.0555220472440945
20
0.4194684645669291
11
0.0555220866141732
21
0.4194684251968504
0
LINE
8
BLACK
6
CONTINUOUS
10
0.0555220866141732
20
0.4194684251968504
11
0.0604696062992126
21
0.4184842519685039
0
LINE
8
BLACK
6
CONTINUOUS
10
0.0604696062992126
20
0.4184842519685039
11
0.0604697244094488
21
0.4184842519685039
0
LINE
8
BLACK
6
CONTINUOUS
10
0.0604697244094488
20
0.4184842519685039
11
0.283728031496063
21
0.4184842519685039
0
LINE
8
BLACK
6
CONTINUOUS
10
0.283728031496063
20
0.4184842519685039
11
0.2863673622047244
21
0.4177092519685039
0
LINE
8
BLACK
6
CONTINUOUS
10
0.2863673622047244
20
0.4177092519685039
11
0.2871800393700787
21
0.4170543700787401
0
LINE
8
BLACK
6
CONTINUOUS
10
0.2871800393700787
20
0.4170543700787401
11
0.4280702362204724
21
0.2761641732283465
0
LINE
8
BLACK
6
CONTINUOUS
10
0.4280702362204724
20
0.2761641732283465
11
0.4293885433070866
21
0.2737498818897638
0
LINE
8
BLACK
6
CONTINUOUS
10
0.4293885433070866
20
0.2737498818897638
11
0.4294062992125984
21
0.2736645669291339
0
LINE
8
BLACK
6
CONTINUOUS
10
0.4294062992125984
20
0.2736645669291339
11
0.4299315354330708
21
0.2710240551181102
0
LINE
8
BLACK
6
CONTINUOUS
10
0.4299315354330708
20
0.2710240551181102
11
0.4299316535433071
21
0.2710235826771654
0
LINE
8
BLACK
6
CONTINUOUS
10
0.4299316535433071
20
0.2710235826771654
11
0.4323071653543307
21
0.2652885039370079
0
LINE
8
BLACK
6
CONTINUOUS
10
0.4323071653543307
20
0.2652885039370079
11
0.4323074409448819
21
0.2652879921259843
0
LINE
8
BLACK
6
CONTINUOUS
10
0.4323074409448819
20
0.2652879921259843
11
0.4357562992125984
21
0.2601264566929134
0
LINE
8
BLACK
6
CONTINUOUS
10
0.4357562992125984
20
0.2601264566929134
11
0.4357564173228347
21
0.2601262992125984
0
LINE
8
BLACK
6
CONTINUOUS
10
0.4357564173228347
20
0.2601262992125984
11
0.4401459448818897
21
0.2557367716535433
0
LINE
8
BLACK
6
CONTINUOUS
10
0.4401459448818897
20
0.2557367716535433
11
0.4401461023622047
21
0.2557366535433071
0
LINE
8
BLACK
6
CONTINUOUS
10
0.4401461023622047
20
0.2557366535433071
11
0.4453076377952756
21
0.2522877952755905
0
LINE
8
BLACK
6
CONTINUOUS
10
0.4453076377952756
20
0.2522877952755905
11
0.4453081496062992
21
0.2522875196850394
0
LINE
8
BLACK
6
CONTINUOUS
10
0.4453081496062992
20
0.2522875196850394
11
0.4508057086614173
21
0.2500103937007874
0
LINE
8
BLACK
6
CONTINUOUS
10
0.4508057086614173
20
0.2500103937007874
11
0.4510434251968504
21
0.2499119291338583
0
LINE
8
BLACK
6
CONTINUOUS
10
0.4510434251968504
20
0.2499119291338583
11
0.4571320078740158
21
0.2487008267716535
0
LINE
8
BLACK
6
CONTINUOUS
10
0.4571320078740158
20
0.2487008267716535
11
0.457132125984252
21
0.2487007874015748
0
LINE
8
BLACK
6
CONTINUOUS
10
0.457132125984252
20
0.2487007874015748
11
0.4571322047244095
21
0.2487007874015748
0
LINE
8
BLACK
6
CONTINUOUS
10
0.4571322047244095
20
0.2487007874015748
11
0.4633403149606299
21
0.2487007874015748
0
LINE
8
BLACK
6
CONTINUOUS
10
0.4633403149606299
20
0.2487007874015748
11
0.4633403543307086
21
0.2487008267716535
0
LINE
8
BLACK
6
CONTINUOUS
10
0.4633403543307086
20
0.2487008267716535
11
0.4694290157480315
21
0.2499119291338583
0
LINE
8
BLACK
6
CONTINUOUS
10
0.4694290157480315
20
0.2499119291338583
11
0.4751645275590551
21
0.2522876377952756
0
LINE
8
BLACK
6
CONTINUOUS
10
0.4751645275590551
20
0.2522876377952756
11
0.4803263385826771
21
0.2557366535433071
0
LINE
8
BLACK
6
CONTINUOUS
10
0.4803263385826771
20
0.2557366535433071
11
0.4847161023622047
21
0.2601264173228346
0
LINE
8
BLACK
6
CONTINUOUS
10
0.4847161023622047
20
0.2601264173228346
11
0.4881651181102362
21
0.2652882283464567
0
LINE
8
BLACK
6
CONTINUOUS
10
0.4881651181102362
20
0.2652882283464567
11
0.4882060236220472
21
0.2653869291338583
0
LINE
8
BLACK
6
CONTINUOUS
10
0.4882060236220472
20
0.2653869291338583
11
0.4905407480314961
21
0.2710235826771654
0
LINE
8
BLACK
6
CONTINUOUS
10
0.4905407480314961
20
0.2710235826771654
11
0.4905408267716536
21
0.2710237401574803
0
LINE
8
BLACK
6
CONTINUOUS
10
0.4905408267716536
20
0.2710237401574803
11
0.491751968503937
21
0.2771125196850394
0
LINE
8
BLACK
6
CONTINUOUS
10
0.491751968503937
20
0.2771125196850394
11
0.491751968503937
21
0.2833205511811023
0
LINE
8
BLACK
6
CONTINUOUS
10
0.491751968503937
20
0.2833205511811023
11
0.491751968503937
21
0.2833206692913386
0
LINE
8
BLACK
6
CONTINUOUS
10
0.491751968503937
20
0.2833206692913386
11
0.4917519291338582
21
0.283320748031496
0
LINE
8
BLACK
6
CONTINUOUS
10
0.4917519291338582
20
0.283320748031496
11
0.4905408661417323
21
0.2894090551181102
0
LINE
8
BLACK
6
CONTINUOUS
10
0.4905408661417323
20
0.2894090551181102
11
0.4905408267716536
21
0.2894093307086614
0
LINE
8
BLACK
6
CONTINUOUS
10
0.4905408267716536
20
0.2894093307086614
11
0.4905001574803149
21
0.2895074803149606
0
LINE
8
BLACK
6
CONTINUOUS
10
0.4905001574803149
20
0.2895074803149606
11
0.4881652362204724
21
0.2951446062992126
0
LINE
8
BLACK
6
CONTINUOUS
10
0.4881652362204724
20
0.2951446062992126
11
0.4881649606299213
21
0.2951451181102362
0
LINE
8
BLACK
6
CONTINUOUS
10
0.4881649606299213
20
0.2951451181102362
11
0.4847161023622047
21
0.3003066535433071
0
LINE
8
BLACK
6
CONTINUOUS
10
0.4847161023622047
20
0.3003066535433071
11
0.4847159842519685
21
0.3003068110236221
0
LINE
8
BLACK
6
CONTINUOUS
10
0.4847159842519685
20
0.3003068110236221
11
0.4803264566929134
21
0.3046963385826771
0
LINE
8
BLACK
6
CONTINUOUS
10
0.4803264566929134
20
0.3046963385826771
11
0.4803262992125984
21
0.3046964566929134
0
LINE
8
BLACK
6
CONTINUOUS
10
0.4803262992125984
20
0.3046964566929134
11
0.4751647637795275
21
0.3081453149606299
0
LINE
8
BLACK
6
CONTINUOUS
10
0.4751647637795275
20
0.3081453149606299
11
0.4751642519685039
21
0.3081455905511811
0
LINE
8
BLACK
6
CONTINUOUS
10
0.4751642519685039
20
0.3081455905511811
11
0.4694291732283464
21
0.3105211023622047
0
LINE
8
BLACK
6
CONTINUOUS
10
0.4694291732283464
20
0.3105211023622047
11
0.4694287007874016
21
0.310521220472441
0
LINE
8
BLACK
6
CONTINUOUS
10
0.4694287007874016
20
0.310521220472441
11
0.4667881889763779
21
0.3110464566929134
0
LINE
8
BLACK
6
CONTINUOUS
10
0.4667881889763779
20
0.3110464566929134
11
0.4643507480314961
21
0.3123214566929134
0
LINE
8
BLACK
6
CONTINUOUS
10
0.4643507480314961
20
0.3123214566929134
11
0.4642885826771653
21
0.3123825196850394
0
LINE
8
BLACK
6
CONTINUOUS
10
0.4642885826771653
20
0.3123825196850394
11
0.3126840157480315
21
0.463987125984252
0
LINE
8
BLACK
6
CONTINUOUS
10
0.3126840157480315
20
0.463987125984252
11
0.3126839763779528
21
0.4639871653543307
0
LINE
8
BLACK
6
CONTINUOUS
10
0.3126839763779528
20
0.4639871653543307
11
0.3117480708661417
21
0.4646125196850394
0
LINE
8
BLACK
6
CONTINUOUS
10
0.3117480708661417
20
0.4646125196850394
11
0.3084892519685039
21
0.4667899606299212
0
LINE
8
BLACK
6
CONTINUOUS
10
0.3084892519685039
20
0.4667899606299212
11
0.3038285039370079
21
0.4687205118110236
0
LINE
8
BLACK
6
CONTINUOUS
10
0.3038285039370079
20
0.4687205118110236
11
0.3038282677165354
21
0.4687205905511811
0
LINE
8
BLACK
6
CONTINUOUS
10
0.3038282677165354
20
0.4687205905511811
11
0.2988807480314961
21
0.4697047244094488
0
LINE
8
BLACK
6
CONTINUOUS
10
0.2988807480314961
20
0.4697047244094488
11
0.2988806692913386
21
0.4697047244094488
0
LINE
8
BLACK
6
CONTINUOUS
10
0.2988806692913386
20
0.4697047244094488
11
0.0756223228346457
21
0.4697047244094488
0
LINE
8
BLACK
6
CONTINUOUS
10
0.0756223228346457
20
0.4697047244094488
11
0.0744632283464567
21
0.4700450787401575
0
LINE
8
BLACK
6
CONTINUOUS
10
0.0744632283464567
20
0.4700450787401575
11
0.0732826771653543
21
0.4703018897637795
0
LINE
8
BLACK
6
CONTINUOUS
10
0.0732826771653543
20
0.4703018897637795
11
0.0730851968503937
21
0.4704497244094488
0
LINE
8
BLACK
6
CONTINUOUS
10
0.0730851968503937
20
0.4704497244094488
11
0.0729829921259842
21
0.4704797244094488
0
LINE
8
BLACK
6
CONTINUOUS
10
0.0729829921259842
20
0.4704797244094488
11
0.0721703149606299
21
0.4711346062992126
0
LINE
8
BLACK
6
CONTINUOUS
10
0.0721703149606299
20
0.4711346062992126
11
0.0715360236220472
21
0.4717688976377953
0
LINE
8
BLACK
6
CONTINUOUS
10
0.0715360236220472
20
0.4717688976377953
11
0.0702177165354331
21
0.474183188976378
0
LINE
8
BLACK
6
CONTINUOUS
10
0.0702177165354331
20
0.474183188976378
11
0.0702005905511811
21
0.4742653543307087
0
LINE
8
BLACK
6
CONTINUOUS
10
0.0702005905511811
20
0.4742653543307087
11
0.0696746850393701
21
0.4769093307086614
0
LINE
8
BLACK
6
CONTINUOUS
10
0.0696746850393701
20
0.4769093307086614
11
0.0687243700787402
21
0.4792035433070866
0
LINE
8
BLACK
6
CONTINUOUS
10
0.0687243700787402
20
0.4792035433070866
11
0.067299094488189
21
0.4826446062992126
0
LINE
8
BLACK
6
CONTINUOUS
10
0.067299094488189
20
0.4826446062992126
11
0.0672988188976378
21
0.4826451181102362
0
LINE
8
BLACK
6
CONTINUOUS
10
0.0672988188976378
20
0.4826451181102362
11
0.0655988188976378
21
0.4851892913385827
0
LINE
8
BLACK
6
CONTINUOUS
10
0.0655988188976378
20
0.4851892913385827
11
0.0628029527559055
21
0.4859384251968504
0
LINE
8
BLACK
6
CONTINUOUS
10
0.0628029527559055
20
0.4859384251968504
11
0.0601327559055118
21
0.4874800787401575
0
LINE
8
BLACK
6
CONTINUOUS
10
0.0601327559055118
20
0.4874800787401575
11
0.0579525196850394
21
0.4896603149606299
0
LINE
8
BLACK
6
CONTINUOUS
10
0.0579525196850394
20
0.4896603149606299
11
0.0564108661417323
21
0.4923305118110236
0
LINE
8
BLACK
6
CONTINUOUS
10
0.0564108661417323
20
0.4923305118110236
11
0.0557896062992126
21
0.4946490551181102
0
LINE
8
BLACK
6
CONTINUOUS
10
0.0557896062992126
20
0.4946490551181102
11
0.0542986220472441
21
0.4956453149606299
0
LINE
8
BLACK
6
CONTINUOUS
10
0.0542986220472441
20
0.4956453149606299
11
0.0542981102362205
21
0.4956455905511811
0
LINE
8
BLACK
6
CONTINUOUS
10
0.0542981102362205
20
0.4956455905511811
11
0.048563031496063
21
0.4980211023622047
0
LINE
8
BLACK
6
CONTINUOUS
10
0.048563031496063
20
0.4980211023622047
11
0.0485625590551181
21
0.4980212204724409
0
LINE
8
BLACK
6
CONTINUOUS
10
0.0485625590551181
20
0.4980212204724409
11
0.0424742125984252
21
0.4992322834645669
0
LINE
8
BLACK
6
CONTINUOUS
10
0.0424742125984252
20
0.4992322834645669
11
0.042474094488189
21
0.4992322834645669
0
LINE
8
BLACK
6
CONTINUOUS
10
0.042474094488189
20
0.4992322834645669
11
0.036266062992126
21
0.4992322834645669
0
LINE
8
BLACK
6
CONTINUOUS
10
0.036266062992126
20
0.4992322834645669
11
0.0362659448818898
21
0.4992322834645669
0
LINE
8
BLACK
6
CONTINUOUS
10
0.0362659448818898
20
0.4992322834645669
11
0.0301775590551181
21
0.4980212204724409
0
LINE
8
BLACK
6
CONTINUOUS
10
0.0301775590551181
20
0.4980212204724409
11
0.0301770866141732
21
0.4980211023622047
0
LINE
8
BLACK
6
CONTINUOUS
10
0.0301770866141732
20
0.4980211023622047
11
0.0244420078740157
21
0.4956455905511811
0
LINE
8
BLACK
6
CONTINUOUS
10
0.0244420078740157
20
0.4956455905511811
11
0.0244414960629921
21
0.4956453149606299
0
LINE
8
BLACK
6
CONTINUOUS
10
0.0244414960629921
20
0.4956453149606299
11
0.0192799606299213
21
0.4921964566929134
0
LINE
8
BLACK
6
CONTINUOUS
10
0.0192799606299213
20
0.4921964566929134
11
0.0192798031496063
21
0.4921963385826771
0
LINE
8
BLACK
6
CONTINUOUS
10
0.0192798031496063
20
0.4921963385826771
11
0.0148902755905512
21
0.4878068110236221
0
LINE
8
BLACK
6
CONTINUOUS
10
0.0148902755905512
20
0.4878068110236221
11
0.014890157480315
21
0.4878066535433071
0
LINE
8
BLACK
6
CONTINUOUS
10
0.014890157480315
20
0.4878066535433071
11
0.0114412992125984
21
0.4826451181102362
0
LINE
8
BLACK
6
CONTINUOUS
10
0.0114412992125984
20
0.4826451181102362
11
0.0114410236220472
21
0.4826446062992126
0
LINE
8
BLACK
6
CONTINUOUS
10
0.0114410236220472
20
0.4826446062992126
11
0.0090655118110236
21
0.4769095275590551
0
LINE
8
BLACK
6
CONTINUOUS
10
0.0090655118110236
20
0.4769095275590551
11
0.0090653937007874
21
0.4769090551181102
0
LINE
8
BLACK
6
CONTINUOUS
10
0.0090653937007874
20
0.4769090551181102
11
0.0078543307086614
21
0.470820748031496
0
LINE
8
BLACK
6
CONTINUOUS
10
0.0078543307086614
20
0.470820748031496
11
0.0078543307086614
21
0.4646123622047244
0
LINE
8
BLACK
6
CONTINUOUS
10
-0.3924395669291338
20
0.763513188976378
11
-0.3924398031496063
21
0.7635131496062992
0
LINE
8
BLACK
6
CONTINUOUS
10
-0.3924398031496063
20
0.7635131496062992
11
-0.4028147244094488
21
0.760606220472441
0
LINE
8
BLACK
6
CONTINUOUS
10
-0.4028147244094488
20
0.760606220472441
11
-0.4126972440944882
21
0.7563136614173228
0
LINE
8
BLACK
6
CONTINUOUS
10
-0.4126972440944882
20
0.7563136614173228
11
-0.4219032283464567
21
0.7507153937007874
0
LINE
8
BLACK
6
CONTINUOUS
10
-0.4219032283464567
20
0.7507153937007874
11
-0.4302612204724409
21
0.7439156692913386
0
LINE
8
BLACK
6
CONTINUOUS
10
-0.4302612204724409
20
0.7439156692913386
11
-0.4376157480314961
21
0.7360409448818898
0
LINE
8
BLACK
6
CONTINUOUS
10
-0.4376157480314961
20
0.7360409448818898
11
-0.4438289763779528
21
0.727238779527559
0
LINE
8
BLACK
6
CONTINUOUS
10
-0.4438289763779528
20
0.727238779527559
11
-0.4438291338582677
21
0.7272385433070866
0
LINE
8
BLACK
6
CONTINUOUS
10
-0.4438291338582677
20
0.7272385433070866
11
-0.4487862598425197
21
0.7176716929133858
0
LINE
8
BLACK
6
CONTINUOUS
10
-0.4487862598425197
20
0.7176716929133858
11
-0.4523943700787402
21
0.7075195275590551
0
LINE
8
BLACK
6
CONTINUOUS
10
-0.4523943700787402
20
0.7075195275590551
11
-0.4523945669291338
21
0.7075188976377953
0
LINE
8
BLACK
6
CONTINUOUS
10
-0.4523945669291338
20
0.7075188976377953
11
-0.4545865748031496
21
0.6969701181102362
0
LINE
8
BLACK
6
CONTINUOUS
10
-0.4545865748031496
20
0.6969701181102362
11
-0.4545866141732283
21
0.6969700393700787
0
LINE
8
BLACK
6
CONTINUOUS
10
-0.4545866141732283
20
0.6969700393700787
11
-0.4553218503937008
21
0.6862204724409449
0
LINE
8
BLACK
6
CONTINUOUS
10
-0.4553218503937008
20
0.6862204724409449
11
-0.4545866141732283
21
0.6754709448818897
0
LINE
8
BLACK
6
CONTINUOUS
10
-0.4545866141732283
20
0.6754709448818897
11
-0.4545865748031496
21
0.6754708661417322
0
LINE
8
BLACK
6
CONTINUOUS
10
-0.4545865748031496
20
0.6754708661417322
11
-0.4523945669291338
21
0.6649220866141732
0
LINE
8
BLACK
6
CONTINUOUS
10
-0.4523945669291338
20
0.6649220866141732
11
-0.4523943700787402
21
0.6649214566929134
0
LINE
8
BLACK
6
CONTINUOUS
10
-0.4523943700787402
20
0.6649214566929134
11
-0.4487862598425197
21
0.6547692913385826
0
LINE
8
BLACK
6
CONTINUOUS
10
-0.4487862598425197
20
0.6547692913385826
11
-0.4487862992125984
21
0.6547692913385826
0
LINE
8
BLACK
6
CONTINUOUS
10
-0.4487862992125984
20
0.6547692913385826
11
-0.4438291338582677
21
0.6452024409448819
0
LINE
8
BLACK
6
CONTINUOUS
10
-0.4438291338582677
20
0.6452024409448819
11
-0.4438289763779528
21
0.6452022047244095
0
LINE
8
BLACK
6
CONTINUOUS
10
-0.4438289763779528
20
0.6452022047244095
11
-0.4376157480314961
21
0.6364000393700787
0
LINE
8
BLACK
6
CONTINUOUS
10
-0.4376157480314961
20
0.6364000393700787
11
-0.4302612204724409
21
0.6285253149606299
0
LINE
8
BLACK
6
CONTINUOUS
10
-0.4302612204724409
20
0.6285253149606299
11
-0.4255865354330708
21
0.6247222047244094
0
LINE
8
BLACK
6
CONTINUOUS
10
-0.4255865354330708
20
0.6247222047244094
11
-0.4219033464566929
21
0.6217256692913385
0
LINE
8
BLACK
6
CONTINUOUS
10
-0.4219033464566929
20
0.6217256692913385
11
-0.4219032677165354
21
0.6217256299212598
0
LINE
8
BLACK
6
CONTINUOUS
10
-0.4219032677165354
20
0.6217256299212598
11
-0.4219032283464567
21
0.621725590551181
0
LINE
8
BLACK
6
CONTINUOUS
10
-0.4219032283464567
20
0.621725590551181
11
-0.4126972440944882
21
0.6161273228346457
0
LINE
8
BLACK
6
CONTINUOUS
10
-0.4126972440944882
20
0.6161273228346457
11
-0.4046762992125984
21
0.6126433858267717
0
LINE
8
BLACK
6
CONTINUOUS
10
-0.4046762992125984
20
0.6126433858267717
11
-0.4028146456692913
21
0.6118347244094489
0
LINE
8
BLACK
6
CONTINUOUS
10
-0.4028146456692913
20
0.6118347244094489
11
-0.3924395669291338
21
0.6089277559055118
0
LINE
8
BLACK
6
CONTINUOUS
10
-0.3924395669291338
20
0.6089277559055118
11
-0.3830551574803149
21
0.6076379527559055
0
LINE
8
BLACK
6
CONTINUOUS
10
-0.3830551574803149
20
0.6076379527559055
11
-0.3817653149606299
21
0.6074606299212598
0
LINE
8
BLACK
6
CONTINUOUS
10
-0.3817653149606299
20
0.6074606299212598
11
-0.3817652755905512
21
0.6074606299212598
0
LINE
8
BLACK
6
CONTINUOUS
10
-0.3817652755905512
20
0.6074606299212598
11
0.377040905511811
21
0.6074606299212598
0
LINE
8
BLACK
6
CONTINUOUS
10
0.377040905511811
20
0.6074606299212598
11
0.3781916535433071
21
0.6076188188976378
0
LINE
8
BLACK
6
CONTINUOUS
10
0.3781916535433071
20
0.6076188188976378
11
0.3877151574803149
21
0.6089277559055118
0
LINE
8
BLACK
6
CONTINUOUS
10
0.3877151574803149
20
0.6089277559055118
11
0.3980902362204724
21
0.6118347244094489
0
LINE
8
BLACK
6
CONTINUOUS
10
0.3980902362204724
20
0.6118347244094489
11
0.407972874015748
21
0.6161273622047244
0
LINE
8
BLACK
6
CONTINUOUS
10
0.407972874015748
20
0.6161273622047244
11
0.417178937007874
21
0.6217256692913385
0
LINE
8
BLACK
6
CONTINUOUS
10
0.417178937007874
20
0.6217256692913385
11
0.4255369291338583
21
0.6285254330708662
0
LINE
8
BLACK
6
CONTINUOUS
10
0.4255369291338583
20
0.6285254330708662
11
0.4328912204724409
21
0.6363999212598425
0
LINE
8
BLACK
6
CONTINUOUS
10
0.4328912204724409
20
0.6363999212598425
11
0.4391047244094488
21
0.6452024803149606
0
LINE
8
BLACK
6
CONTINUOUS
10
0.4391047244094488
20
0.6452024803149606
11
0.4440617716535433
21
0.6547691338582677
0
LINE
8
BLACK
6
CONTINUOUS
10
0.4440617716535433
20
0.6547691338582677
11
0.44767
21
0.6649216535433071
0
LINE
8
BLACK
6
CONTINUOUS
10
0.44767
20
0.6649216535433071
11
0.44767
21
0.6649218503937008
0
LINE
8
BLACK
6
CONTINUOUS
10
0.44767
20
0.6649218503937008
11
0.4476701181102362
21
0.6649220866141732
0
LINE
8
BLACK
6
CONTINUOUS
10
0.4476701181102362
20
0.6649220866141732
11
0.4488756299212598
21
0.6707236220472441
0
LINE
8
BLACK
6
CONTINUOUS
10
0.4488756299212598
20
0.6707236220472441
11
0.4498621653543307
21
0.6754709448818897
0
LINE
8
BLACK
6
CONTINUOUS
10
0.4498621653543307
20
0.6754709448818897
11
0.4505974409448819
21
0.6862204724409449
0
LINE
8
BLACK
6
CONTINUOUS
10
0.4505974409448819
20
0.6862204724409449
11
0.4498621653543307
21
0.69697
0
LINE
8
BLACK
6
CONTINUOUS
10
0.4498621653543307
20
0.69697
11
0.4484511023622047
21
0.7037604330708661
0
LINE
8
BLACK
6
CONTINUOUS
10
0.4484511023622047
20
0.7037604330708661
11
0.4476701181102362
21
0.7075188976377953
0
LINE
8
BLACK
6
CONTINUOUS
10
0.4476701181102362
20
0.7075188976377953
11
0.4476699212598425
21
0.7075195275590551
0
LINE
8
BLACK
6
CONTINUOUS
10
0.4476699212598425
20
0.7075195275590551
11
0.444061811023622
21
0.7176716929133858
0
LINE
8
BLACK
6
CONTINUOUS
10
0.444061811023622
20
0.7176716929133858
11
0.4440618503937008
21
0.7176716929133858
0
LINE
8
BLACK
6
CONTINUOUS
10
0.4440618503937008
20
0.7176716929133858
11
0.4391046850393701
21
0.7272385433070866
0
LINE
8
BLACK
6
CONTINUOUS
10
0.4391046850393701
20
0.7272385433070866
11
0.4391045275590551
21
0.727238779527559
0
LINE
8
BLACK
6
CONTINUOUS
10
0.4391045275590551
20
0.727238779527559
11
0.4328912992125984
21
0.7360409448818898
0
LINE
8
BLACK
6
CONTINUOUS
10
0.4328912992125984
20
0.7360409448818898
11
0.4255367716535433
21
0.7439156692913386
0
LINE
8
BLACK
6
CONTINUOUS
10
0.4255367716535433
20
0.7439156692913386
11
0.4171787795275591
21
0.7507153937007874
0
LINE
8
BLACK
6
CONTINUOUS
10
0.4171787795275591
20
0.7507153937007874
11
0.4079727952755905
21
0.7563136614173228
0
LINE
8
BLACK
6
CONTINUOUS
10
0.4079727952755905
20
0.7563136614173228
11
0.3980902755905512
21
0.760606220472441
0
LINE
8
BLACK
6
CONTINUOUS
10
0.3980902755905512
20
0.760606220472441
11
0.3877153543307086
21
0.7635131496062992
0
LINE
8
BLACK
6
CONTINUOUS
10
0.3877153543307086
20
0.7635131496062992
11
0.3877151968503937
21
0.763513188976378
0
LINE
8
BLACK
6
CONTINUOUS
10
0.3877151968503937
20
0.763513188976378
11
0.3877151574803149
21
0.763513188976378
0
LINE
8
BLACK
6
CONTINUOUS
10
0.3877151574803149
20
0.763513188976378
11
0.3823779921259842
21
0.7642467716535433
0
LINE
8
BLACK
6
CONTINUOUS
10
0.3823779921259842
20
0.7642467716535433
11
0.377040905511811
21
0.7649803149606299
0
LINE
8
BLACK
6
CONTINUOUS
10
0.377040905511811
20
0.7649803149606299
11
0.3770408661417323
21
0.7649803149606299
0
LINE
8
BLACK
6
CONTINUOUS
10
0.3770408661417323
20
0.7649803149606299
11
0.374247716535433
21
0.7649803149606299
0
LINE
8
BLACK
6
CONTINUOUS
10
0.374247716535433
20
0.7649803149606299
11
-0.373783779527559
21
0.7649803149606299
0
LINE
8
BLACK
6
CONTINUOUS
10
-0.373783779527559
20
0.7649803149606299
11
-0.3763779527559055
21
0.7649803149606299
0
LINE
8
BLACK
6
CONTINUOUS
10
-0.3763779527559055
20
0.7649803149606299
11
-0.3817652755905512
21
0.7649803149606299
0
LINE
8
BLACK
6
CONTINUOUS
10
-0.3817652755905512
20
0.7649803149606299
11
-0.3817653149606299
21
0.7649803149606299
0
LINE
8
BLACK
6
CONTINUOUS
10
-0.3817653149606299
20
0.7649803149606299
11
-0.3924395669291338
21
0.763513188976378
0
LINE
8
BLACK
6
CONTINUOUS
10
-0.2583959842519685
20
-0.4762441338582677
11
-0.2523351574803149
21
-0.4787546062992126
0
LINE
8
BLACK
6
CONTINUOUS
10
-0.2523351574803149
20
-0.4787546062992126
11
-0.2468805511811024
21
-0.4823992519685039
0
LINE
8
BLACK
6
CONTINUOUS
10
-0.2468805511811024
20
-0.4823992519685039
11
-0.2422417716535433
21
-0.487038031496063
0
LINE
8
BLACK
6
CONTINUOUS
10
-0.2422417716535433
20
-0.487038031496063
11
-0.238597125984252
21
-0.4924926377952756
0
LINE
8
BLACK
6
CONTINUOUS
10
-0.238597125984252
20
-0.4924926377952756
11
-0.2360866535433071
21
-0.4985534645669291
0
LINE
8
BLACK
6
CONTINUOUS
10
-0.2360866535433071
20
-0.4985534645669291
11
-0.2348068110236221
21
-0.5049875984251968
0
LINE
8
BLACK
6
CONTINUOUS
10
-0.2348068110236221
20
-0.5049875984251968
11
-0.2348068110236221
21
-0.5115478346456693
0
LINE
8
BLACK
6
CONTINUOUS
10
-0.2348068110236221
20
-0.5115478346456693
11
-0.2360866535433071
21
-0.517981968503937
0
LINE
8
BLACK
6
CONTINUOUS
10
-0.2360866535433071
20
-0.517981968503937
11
-0.238597125984252
21
-0.5240427952755905
0
LINE
8
BLACK
6
CONTINUOUS
10
-0.238597125984252
20
-0.5240427952755905
11
-0.2422417716535433
21
-0.5294974015748032
0
LINE
8
BLACK
6
CONTINUOUS
10
-0.2422417716535433
20
-0.5294974015748032
11
-0.2468805511811024
21
-0.5341361811023622
0
LINE
8
BLACK
6
CONTINUOUS
10
-0.2468805511811024
20
-0.5341361811023622
11
-0.2523351574803149
21
-0.5377808267716535
0
LINE
8
BLACK
6
CONTINUOUS
10
-0.2523351574803149
20
-0.5377808267716535
11
-0.2583959842519685
21
-0.5402912992125984
0
LINE
8
BLACK
6
CONTINUOUS
10
-0.2583959842519685
20
-0.5402912992125984
11
-0.2648301181102362
21
-0.5415711417322835
0
LINE
8
BLACK
6
CONTINUOUS
10
-0.2648301181102362
20
-0.5415711417322835
11
-0.2713903543307087
21
-0.5415711417322835
0
LINE
8
BLACK
6
CONTINUOUS
10
-0.2713903543307087
20
-0.5415711417322835
11
-0.2778244881889764
21
-0.5402912992125984
0
LINE
8
BLACK
6
CONTINUOUS
10
-0.2778244881889764
20
-0.5402912992125984
11
-0.2838853149606299
21
-0.5377808267716535
0
LINE
8
BLACK
6
CONTINUOUS
10
-0.2838853149606299
20
-0.5377808267716535
11
-0.2893399212598425
21
-0.5341361811023622
0
LINE
8
BLACK
6
CONTINUOUS
10
-0.2893399212598425
20
-0.5341361811023622
11
-0.2939787007874016
21
-0.5294974015748032
0
LINE
8
BLACK
6
CONTINUOUS
10
-0.2939787007874016
20
-0.5294974015748032
11
-0.2976233464566929
21
-0.5240427952755905
0
LINE
8
BLACK
6
CONTINUOUS
10
-0.2976233464566929
20
-0.5240427952755905
11
-0.3001338188976378
21
-0.517981968503937
0
LINE
8
BLACK
6
CONTINUOUS
10
-0.3001338188976378
20
-0.517981968503937
11
-0.3014136614173228
21
-0.5115478346456693
0
LINE
8
BLACK
6
CONTINUOUS
10
-0.3014136614173228
20
-0.5115478346456693
11
-0.3014136614173228
21
-0.5049875984251968
0
LINE
8
BLACK
6
CONTINUOUS
10
-0.3014136614173228
20
-0.5049875984251968
11
-0.3001338188976378
21
-0.4985534645669291
0
LINE
8
BLACK
6
CONTINUOUS
10
-0.3001338188976378
20
-0.4985534645669291
11
-0.2976233464566929
21
-0.4924926377952756
0
LINE
8
BLACK
6
CONTINUOUS
10
-0.2976233464566929
20
-0.4924926377952756
11
-0.2939787007874016
21
-0.487038031496063
0
LINE
8
BLACK
6
CONTINUOUS
10
-0.2939787007874016
20
-0.487038031496063
11
-0.2893399212598425
21
-0.4823992519685039
0
LINE
8
BLACK
6
CONTINUOUS
10
-0.2893399212598425
20
-0.4823992519685039
11
-0.2838853149606299
21
-0.4787546062992126
0
LINE
8
BLACK
6
CONTINUOUS
10
-0.2838853149606299
20
-0.4787546062992126
11
-0.2778244881889764
21
-0.4762441338582677
0
LINE
8
BLACK
6
CONTINUOUS
10
-0.2778244881889764
20
-0.4762441338582677
11
-0.2713903543307087
21
-0.4749642913385826
0
LINE
8
BLACK
6
CONTINUOUS
10
-0.2713903543307087
20
-0.4749642913385826
11
-0.2648301181102362
21
-0.4749642913385826
0
LINE
8
BLACK
6
CONTINUOUS
10
-0.2648301181102362
20
-0.4749642913385826
11
-0.2583959842519685
21
-0.4762441338582677
0
LINE
8
BLACK
6
CONTINUOUS
10
0.1285356299212598
20
0.2912269291338583
11
0.1312058267716535
21
0.2896852755905512
0
LINE
8
BLACK
6
CONTINUOUS
10
0.1312058267716535
20
0.2896852755905512
11
0.133386062992126
21
0.2875050393700787
0
LINE
8
BLACK
6
CONTINUOUS
10
0.133386062992126
20
0.2875050393700787
11
0.1349277165354331
21
0.284834842519685
0
LINE
8
BLACK
6
CONTINUOUS
10
0.1349277165354331
20
0.284834842519685
11
0.1357257086614173
21
0.2818566141732283
0
LINE
8
BLACK
6
CONTINUOUS
10
0.1357257086614173
20
0.2818566141732283
11
0.1357257086614173
21
0.2787733070866142
0
LINE
8
BLACK
6
CONTINUOUS
10
0.1357257086614173
20
0.2787733070866142
11
0.1349277165354331
21
0.2757950787401575
0
LINE
8
BLACK
6
CONTINUOUS
10
0.1349277165354331
20
0.2757950787401575
11
0.133386062992126
21
0.2731248818897637
0
LINE
8
BLACK
6
CONTINUOUS
10
0.133386062992126
20
0.2731248818897637
11
0.1312058267716535
21
0.2709446456692913
0
LINE
8
BLACK
6
CONTINUOUS
10
0.1312058267716535
20
0.2709446456692913
11
0.1285356299212598
21
0.2694029921259842
0
LINE
8
BLACK
6
CONTINUOUS
10
0.1285356299212598
20
0.2694029921259842
11
0.1255574015748031
21
0.268605
0
LINE
8
BLACK
6
CONTINUOUS
10
0.1255574015748031
20
0.268605
11
0.122474094488189
21
0.268605
0
LINE
8
BLACK
6
CONTINUOUS
10
0.122474094488189
20
0.268605
11
0.1213738582677165
21
0.2688998031496063
0
LINE
8
BLACK
6
CONTINUOUS
10
0.1213738582677165
20
0.2688998031496063
11
-0.1602362204724409
21
-0.0127103149606299
0
LINE
8
BLACK
6
CONTINUOUS
10
-0.1602362204724409
20
-0.0127103149606299
11
-0.1602362204724409
21
-0.2791338582677165
0
LINE
8
BLACK
6
CONTINUOUS
10
-0.1602362204724409
20
-0.2791338582677165
11
0.0897637795275591
21
-0.2791338582677165
0
LINE
8
BLACK
6
CONTINUOUS
10
0.0897637795275591
20
-0.2791338582677165
11
0.0912999212598425
21
-0.279285157480315
0
LINE
8
BLACK
6
CONTINUOUS
10
0.0912999212598425
20
-0.279285157480315
11
0.0941383464566929
21
-0.2804608661417323
0
LINE
8
BLACK
6
CONTINUOUS
10
0.0941383464566929
20
-0.2804608661417323
11
0.0953315354330709
21
-0.2814401181102362
0
LINE
8
BLACK
6
CONTINUOUS
10
0.0953315354330709
20
-0.2814401181102362
11
0.1923787795275591
21
-0.3784873228346456
0
LINE
8
BLACK
6
CONTINUOUS
10
0.1923787795275591
20
-0.3784873228346456
11
0.193358031496063
21
-0.3796805511811023
0
LINE
8
BLACK
6
CONTINUOUS
10
0.193358031496063
20
-0.3796805511811023
11
0.1945337401574803
21
-0.3825189763779527
0
LINE
8
BLACK
6
CONTINUOUS
10
0.1945337401574803
20
-0.3825189763779527
11
0.1946850393700787
21
-0.3840551181102362
0
LINE
8
BLACK
6
CONTINUOUS
10
0.1946850393700787
20
-0.3840551181102362
11
0.1946850393700787
21
-0.4699725590551181
0
LINE
8
BLACK
6
CONTINUOUS
10
0.1946850393700787
20
-0.4699725590551181
11
0.1965252755905512
21
-0.4703386220472441
0
LINE
8
BLACK
6
CONTINUOUS
10
0.1965252755905512
20
-0.4703386220472441
11
0.2025861023622047
21
-0.472849094488189
0
LINE
8
BLACK
6
CONTINUOUS
10
0.2025861023622047
20
-0.472849094488189
11
0.2080407086614173
21
-0.4764937401574803
0
LINE
8
BLACK
6
CONTINUOUS
10
0.2080407086614173
20
-0.4764937401574803
11
0.2126794881889764
21
-0.4811325196850393
0
LINE
8
BLACK
6
CONTINUOUS
10
0.2126794881889764
20
-0.4811325196850393
11
0.2163241338582677
21
-0.486587125984252
0
LINE
8
BLACK
6
CONTINUOUS
10
0.2163241338582677
20
-0.486587125984252
11
0.2188346062992126
21
-0.4926479527559055
0
LINE
8
BLACK
6
CONTINUOUS
10
0.2188346062992126
20
-0.4926479527559055
11
0.2201144488188976
21
-0.4990820866141732
0
LINE
8
BLACK
6
CONTINUOUS
10
0.2201144488188976
20
-0.4990820866141732
11
0.2201144488188976
21
-0.5056423228346456
0
LINE
8
BLACK
6
CONTINUOUS
10
0.2201144488188976
20
-0.5056423228346456
11
0.2188346062992126
21
-0.5120764566929134
0
LINE
8
BLACK
6
CONTINUOUS
10
0.2188346062992126
20
-0.5120764566929134
11
0.2163241338582677
21
-0.5181372834645669
0
LINE
8
BLACK
6
CONTINUOUS
10
0.2163241338582677
20
-0.5181372834645669
11
0.2126794881889764
21
-0.5235918897637795
0
LINE
8
BLACK
6
CONTINUOUS
10
0.2126794881889764
20
-0.5235918897637795
11
0.2080407086614173
21
-0.5282306692913386
0
LINE
8
BLACK
6
CONTINUOUS
10
0.2080407086614173
20
-0.5282306692913386
11
0.2025861023622047
21
-0.5318753149606299
0
LINE
8
BLACK
6
CONTINUOUS
10
0.2025861023622047
20
-0.5318753149606299
11
0.1965252755905512
21
-0.5343857874015748
0
LINE
8
BLACK
6
CONTINUOUS
10
0.1965252755905512
20
-0.5343857874015748
11
0.1900911417322834
21
-0.5356656299212599
0
LINE
8
BLACK
6
CONTINUOUS
10
0.1900911417322834
20
-0.5356656299212599
11
0.183530905511811
21
-0.5356656299212599
0
LINE
8
BLACK
6
CONTINUOUS
10
0.183530905511811
20
-0.5356656299212599
11
0.1770967716535433
21
-0.5343857874015748
0
LINE
8
BLACK
6
CONTINUOUS
10
0.1770967716535433
20
-0.5343857874015748
11
0.1710359448818898
21
-0.5318753149606299
0
LINE
8
BLACK
6
CONTINUOUS
10
0.1710359448818898
20
-0.5318753149606299
11
0.1655813385826772
21
-0.5282306692913386
0
LINE
8
BLACK
6
CONTINUOUS
10
0.1655813385826772
20
-0.5282306692913386
11
0.1609425590551181
21
-0.5235918897637795
0
LINE
8
BLACK
6
CONTINUOUS
10
0.1609425590551181
20
-0.5235918897637795
11
0.1572979133858268
21
-0.5181372834645669
0
LINE
8
BLACK
6
CONTINUOUS
10
0.1572979133858268
20
-0.5181372834645669
11
0.1547874409448819
21
-0.5120764566929134
0
LINE
8
BLACK
6
CONTINUOUS
10
0.1547874409448819
20
-0.5120764566929134
11
0.1535075984251968
21
-0.5056423228346456
0
LINE
8
BLACK
6
CONTINUOUS
10
0.1535075984251968
20
-0.5056423228346456
11
0.1535075984251968
21
-0.4990820866141732
0
LINE
8
BLACK
6
CONTINUOUS
10
0.1535075984251968
20
-0.4990820866141732
11
0.1547874409448819
21
-0.4926479527559055
0
LINE
8
BLACK
6
CONTINUOUS
10
0.1547874409448819
20
-0.4926479527559055
11
0.1572979133858268
21
-0.486587125984252
0
LINE
8
BLACK
6
CONTINUOUS
10
0.1572979133858268
20
-0.486587125984252
11
0.1609425590551181
21
-0.4811325196850393
0
LINE
8
BLACK
6
CONTINUOUS
10
0.1609425590551181
20
-0.4811325196850393
11
0.1655813385826772
21
-0.4764937401574803
0
LINE
8
BLACK
6
CONTINUOUS
10
0.1655813385826772
20
-0.4764937401574803
11
0.1710359448818898
21
-0.472849094488189
0
LINE
8
BLACK
6
CONTINUOUS
10
0.1710359448818898
20
-0.472849094488189
11
0.1770967716535433
21
-0.4703386220472441
0
LINE
8
BLACK
6
CONTINUOUS
10
0.1770967716535433
20
-0.4703386220472441
11
0.1789370078740158
21
-0.4699725590551181
0
LINE
8
BLACK
6
CONTINUOUS
10
0.1789370078740158
20
-0.4699725590551181
11
0.1789370078740158
21
-0.3873166141732283
0
LINE
8
BLACK
6
CONTINUOUS
10
0.1789370078740158
20
-0.3873166141732283
11
0.0865022834645669
21
-0.2948818897637795
0
LINE
8
BLACK
6
CONTINUOUS
10
0.0865022834645669
20
-0.2948818897637795
11
-0.1602362204724409
21
-0.2948818897637795
0
LINE
8
BLACK
6
CONTINUOUS
10
-0.1602362204724409
20
-0.2948818897637795
11
-0.1602362204724409
21
-0.3204724409448819
0
LINE
8
BLACK
6
CONTINUOUS
10
-0.1602362204724409
20
-0.3204724409448819
11
-0.1602362204724409
21
-0.3758780708661417
0
LINE
8
BLACK
6
CONTINUOUS
10
-0.1602362204724409
20
-0.3758780708661417
11
-0.1583959842519685
21
-0.3762441338582677
0
LINE
8
BLACK
6
CONTINUOUS
10
-0.1583959842519685
20
-0.3762441338582677
11
-0.152335157480315
21
-0.3787546062992126
0
LINE
8
BLACK
6
CONTINUOUS
10
-0.152335157480315
20
-0.3787546062992126
11
-0.1468805511811024
21
-0.3823992519685039
0
LINE
8
BLACK
6
CONTINUOUS
10
-0.1468805511811024
20
-0.3823992519685039
11
-0.1422417716535433
21
-0.387038031496063
0
LINE
8
BLACK
6
CONTINUOUS
10
-0.1422417716535433
20
-0.387038031496063
11
-0.138597125984252
21
-0.3924926377952756
0
LINE
8
BLACK
6
CONTINUOUS
10
-0.138597125984252
20
-0.3924926377952756
11
-0.1360866535433071
21
-0.3985534645669291
0
LINE
8
BLACK
6
CONTINUOUS
10
-0.1360866535433071
20
-0.3985534645669291
11
-0.134806811023622
21
-0.4049875984251968
0
LINE
8
BLACK
6
CONTINUOUS
10
-0.134806811023622
20
-0.4049875984251968
11
-0.134806811023622
21
-0.4115478346456693
0
LINE
8
BLACK
6
CONTINUOUS
10
-0.134806811023622
20
-0.4115478346456693
11
-0.1360866535433071
21
-0.417981968503937
0
LINE
8
BLACK
6
CONTINUOUS
10
-0.1360866535433071
20
-0.417981968503937
11
-0.138597125984252
21
-0.4240427952755905
0
LINE
8
BLACK
6
CONTINUOUS
10
-0.138597125984252
20
-0.4240427952755905
11
-0.1422417716535433
21
-0.4294974015748032
0
LINE
8
BLACK
6
CONTINUOUS
10
-0.1422417716535433
20
-0.4294974015748032
11
-0.1468805511811024
21
-0.4341361811023622
0
LINE
8
BLACK
6
CONTINUOUS
10
-0.1468805511811024
20
-0.4341361811023622
11
-0.152335157480315
21
-0.4377808267716535
0
LINE
8
BLACK
6
CONTINUOUS
10
-0.152335157480315
20
-0.4377808267716535
11
-0.1583959842519685
21
-0.4402912992125984
0
LINE
8
BLACK
6
CONTINUOUS
10
-0.1583959842519685
20
-0.4402912992125984
11
-0.1602362204724409
21
-0.4406573228346456
0
LINE
8
BLACK
6
CONTINUOUS
10
-0.1602362204724409
20
-0.4406573228346456
11
-0.1602362204724409
21
-0.4758780708661417
0
LINE
8
BLACK
6
CONTINUOUS
10
-0.1602362204724409
20
-0.4758780708661417
11
-0.1583959842519685
21
-0.4762441338582677
0
LINE
8
BLACK
6
CONTINUOUS
10
-0.1583959842519685
20
-0.4762441338582677
11
-0.152335157480315
21
-0.4787546062992126
0
LINE
8
BLACK
6
CONTINUOUS
10
-0.152335157480315
20
-0.4787546062992126
11
-0.1468805511811024
21
-0.4823992519685039
0
LINE
8
BLACK
6
CONTINUOUS
10
-0.1468805511811024
20
-0.4823992519685039
11
-0.1422417716535433
21
-0.487038031496063
0
LINE
8
BLACK
6
CONTINUOUS
10
-0.1422417716535433
20
-0.487038031496063
11
-0.138597125984252
21
-0.4924926377952756
0
LINE
8
BLACK
6
CONTINUOUS
10
-0.138597125984252
20
-0.4924926377952756
11
-0.1360866535433071
21
-0.4985534645669291
0
LINE
8
BLACK
6
CONTINUOUS
10
-0.1360866535433071
20
-0.4985534645669291
11
-0.134806811023622
21
-0.5049875984251968
0
LINE
8
BLACK
6
CONTINUOUS
10
-0.134806811023622
20
-0.5049875984251968
11
-0.134806811023622
21
-0.5115478346456693
0
LINE
8
BLACK
6
CONTINUOUS
10
-0.134806811023622
20
-0.5115478346456693
11
-0.1360866535433071
21
-0.517981968503937
0
LINE
8
BLACK
6
CONTINUOUS
10
-0.1360866535433071
20
-0.517981968503937
11
-0.138597125984252
21
-0.5240427952755905
0
LINE
8
BLACK
6
CONTINUOUS
10
-0.138597125984252
20
-0.5240427952755905
11
-0.1422417716535433
21
-0.5294974015748032
0
LINE
8
BLACK
6
CONTINUOUS
10
-0.1422417716535433
20
-0.5294974015748032
11
-0.1468805511811024
21
-0.5341361811023622
0
LINE
8
BLACK
6
CONTINUOUS
10
-0.1468805511811024
20
-0.5341361811023622
11
-0.152335157480315
21
-0.5377808267716535
0
LINE
8
BLACK
6
CONTINUOUS
10
-0.152335157480315
20
-0.5377808267716535
11
-0.1583959842519685
21
-0.5402912992125984
0
LINE
8
BLACK
6
CONTINUOUS
10
-0.1583959842519685
20
-0.5402912992125984
11
-0.1648301181102362
21
-0.5415711417322835
0
LINE
8
BLACK
6
CONTINUOUS
10
-0.1648301181102362
20
-0.5415711417322835
11
-0.1713903543307086
21
-0.5415711417322835
0
LINE
8
BLACK
6
CONTINUOUS
10
-0.1713903543307086
20
-0.5415711417322835
11
-0.1778244881889764
21
-0.5402912992125984
0
LINE
8
BLACK
6
CONTINUOUS
10
-0.1778244881889764
20
-0.5402912992125984
11
-0.1838853149606299
21
-0.5377808267716535
0
LINE
8
BLACK
6
CONTINUOUS
10
-0.1838853149606299
20
-0.5377808267716535
11
-0.1893399212598425
21
-0.5341361811023622
0
LINE
8
BLACK
6
CONTINUOUS
10
-0.1893399212598425
20
-0.5341361811023622
11
-0.1939787007874016
21
-0.5294974015748032
0
LINE
8
BLACK
6
CONTINUOUS
10
-0.1939787007874016
20
-0.5294974015748032
11
-0.1976233464566929
21
-0.5240427952755905
0
LINE
8
BLACK
6
CONTINUOUS
10
-0.1976233464566929
20
-0.5240427952755905
11
-0.2001338188976378
21
-0.517981968503937
0
LINE
8
BLACK
6
CONTINUOUS
10
-0.2001338188976378
20
-0.517981968503937
11
-0.2014136614173228
21
-0.5115478346456693
0
LINE
8
BLACK
6
CONTINUOUS
10
-0.2014136614173228
20
-0.5115478346456693
11
-0.2014136614173228
21
-0.5049875984251968
0
LINE
8
BLACK
6
CONTINUOUS
10
-0.2014136614173228
20
-0.5049875984251968
11
-0.2001338188976378
21
-0.4985534645669291
0
LINE
8
BLACK
6
CONTINUOUS
10
-0.2001338188976378
20
-0.4985534645669291
11
-0.1976233464566929
21
-0.4924926377952756
0
LINE
8
BLACK
6
CONTINUOUS
10
-0.1976233464566929
20
-0.4924926377952756
11
-0.1939787007874016
21
-0.487038031496063
0
LINE
8
BLACK
6
CONTINUOUS
10
-0.1939787007874016
20
-0.487038031496063
11
-0.1893399212598425
21
-0.4823992519685039
0
LINE
8
BLACK
6
CONTINUOUS
10
-0.1893399212598425
20
-0.4823992519685039
11
-0.1838853149606299
21
-0.4787546062992126
0
LINE
8
BLACK
6
CONTINUOUS
10
-0.1838853149606299
20
-0.4787546062992126
11
-0.1778244881889764
21
-0.4762441338582677
0
LINE
8
BLACK
6
CONTINUOUS
10
-0.1778244881889764
20
-0.4762441338582677
11
-0.1759842519685039
21
-0.4758780708661417
0
LINE
8
BLACK
6
CONTINUOUS
10
-0.1759842519685039
20
-0.4758780708661417
11
-0.1759842519685039
21
-0.4406573228346456
0
LINE
8
BLACK
6
CONTINUOUS
10
-0.1759842519685039
20
-0.4406573228346456
11
-0.1778244881889764
21
-0.4402912992125984
0
LINE
8
BLACK
6
CONTINUOUS
10
-0.1778244881889764
20
-0.4402912992125984
11
-0.1838853149606299
21
-0.4377808267716535
0
LINE
8
BLACK
6
CONTINUOUS
10
-0.1838853149606299
20
-0.4377808267716535
11
-0.1893399212598425
21
-0.4341361811023622
0
LINE
8
BLACK
6
CONTINUOUS
10
-0.1893399212598425
20
-0.4341361811023622
11
-0.1939787007874016
21
-0.4294974015748032
0
LINE
8
BLACK
6
CONTINUOUS
10
-0.1939787007874016
20
-0.4294974015748032
11
-0.1976233464566929
21
-0.4240427952755905
0
LINE
8
BLACK
6
CONTINUOUS
10
-0.1976233464566929
20
-0.4240427952755905
11
-0.2001338188976378
21
-0.417981968503937
0
LINE
8
BLACK
6
CONTINUOUS
10
-0.2001338188976378
20
-0.417981968503937
11
-0.2014136614173228
21
-0.4115478346456693
0
LINE
8
BLACK
6
CONTINUOUS
10
-0.2014136614173228
20
-0.4115478346456693
11
-0.2014136614173228
21
-0.4049875984251968
0
LINE
8
BLACK
6
CONTINUOUS
10
-0.2014136614173228
20
-0.4049875984251968
11
-0.2001338188976378
21
-0.3985534645669291
0
LINE
8
BLACK
6
CONTINUOUS
10
-0.2001338188976378
20
-0.3985534645669291
11
-0.1976233464566929
21
-0.3924926377952756
0
LINE
8
BLACK
6
CONTINUOUS
10
-0.1976233464566929
20
-0.3924926377952756
11
-0.1939787007874016
21
-0.387038031496063
0
LINE
8
BLACK
6
CONTINUOUS
10
-0.1939787007874016
20
-0.387038031496063
11
-0.1893399212598425
21
-0.3823992519685039
0
LINE
8
BLACK
6
CONTINUOUS
10
-0.1893399212598425
20
-0.3823992519685039
11
-0.1838853149606299
21
-0.3787546062992126
0
LINE
8
BLACK
6
CONTINUOUS
10
-0.1838853149606299
20
-0.3787546062992126
11
-0.1778244881889764
21
-0.3762441338582677
0
LINE
8
BLACK
6
CONTINUOUS
10
-0.1778244881889764
20
-0.3762441338582677
11
-0.1759842519685039
21
-0.3758780708661417
0
LINE
8
BLACK
6
CONTINUOUS
10
-0.1759842519685039
20
-0.3758780708661417
11
-0.1759842519685039
21
-0.3204724409448819
0
LINE
8
BLACK
6
CONTINUOUS
10
-0.1759842519685039
20
-0.3204724409448819
11
-0.1759842519685039
21
-0.0094488188976378
0
LINE
8
BLACK
6
CONTINUOUS
10
-0.1759842519685039
20
-0.0094488188976378
11
-0.1758329527559055
21
-0.0079126771653543
0
LINE
8
BLACK
6
CONTINUOUS
10
-0.1758329527559055
20
-0.0079126771653543
11
-0.1746572440944882
21
-0.0050742519685039
0
LINE
8
BLACK
6
CONTINUOUS
10
-0.1746572440944882
20
-0.0050742519685039
11
-0.1736779921259843
21
-0.003881062992126
0
LINE
8
BLACK
6
CONTINUOUS
10
-0.1736779921259843
20
-0.003881062992126
11
0.1123958267716535
21
0.2821927952755905
0
LINE
8
BLACK
6
CONTINUOUS
10
0.1123958267716535
20
0.2821927952755905
11
0.1131037795275591
21
0.284834842519685
0
LINE
8
BLACK
6
CONTINUOUS
10
0.1131037795275591
20
0.284834842519685
11
0.1146454330708661
21
0.2875050393700787
0
LINE
8
BLACK
6
CONTINUOUS
10
0.1146454330708661
20
0.2875050393700787
11
0.1168256692913386
21
0.2896852755905512
0
LINE
8
BLACK
6
CONTINUOUS
10
0.1168256692913386
20
0.2896852755905512
11
0.1194958661417323
21
0.2912269291338583
0
LINE
8
BLACK
6
CONTINUOUS
10
0.1194958661417323
20
0.2912269291338583
11
0.122474094488189
21
0.2920249212598425
0
LINE
8
BLACK
6
CONTINUOUS
10
0.122474094488189
20
0.2920249212598425
11
0.1255574015748031
21
0.2920249212598425
0
LINE
8
BLACK
6
CONTINUOUS
10
0.1255574015748031
20
0.2920249212598425
11
0.1285356299212598
21
0.2912269291338583
0
LINE
8
BLACK
6
CONTINUOUS
10
-0.0583959842519685
20
-0.4762441338582677
11
-0.052335157480315
21
-0.4787546062992126
0
LINE
8
BLACK
6
CONTINUOUS
10
-0.052335157480315
20
-0.4787546062992126
11
-0.0468805511811024
21
-0.4823992519685039
0
LINE
8
BLACK
6
CONTINUOUS
10
-0.0468805511811024
20
-0.4823992519685039
11
-0.0422417716535433
21
-0.487038031496063
0
LINE
8
BLACK
6
CONTINUOUS
10
-0.0422417716535433
20
-0.487038031496063
11
-0.038597125984252
21
-0.4924926377952756
0
LINE
8
BLACK
6
CONTINUOUS
10
-0.038597125984252
20
-0.4924926377952756
11
-0.0360866535433071
21
-0.4985534645669291
0
LINE
8
BLACK
6
CONTINUOUS
10
-0.0360866535433071
20
-0.4985534645669291
11
-0.034806811023622
21
-0.5049875984251968
0
LINE
8
BLACK
6
CONTINUOUS
10
-0.034806811023622
20
-0.5049875984251968
11
-0.034806811023622
21
-0.5115478346456693
0
LINE
8
BLACK
6
CONTINUOUS
10
-0.034806811023622
20
-0.5115478346456693
11
-0.0360866535433071
21
-0.517981968503937
0
LINE
8
BLACK
6
CONTINUOUS
10
-0.0360866535433071
20
-0.517981968503937
11
-0.038597125984252
21
-0.5240427952755905
0
LINE
8
BLACK
6
CONTINUOUS
10
-0.038597125984252
20
-0.5240427952755905
11
-0.0422417716535433
21
-0.5294974015748032
0
LINE
8
BLACK
6
CONTINUOUS
10
-0.0422417716535433
20
-0.5294974015748032
11
-0.0468805511811024
21
-0.5341361811023622
0
LINE
8
BLACK
6
CONTINUOUS
10
-0.0468805511811024
20
-0.5341361811023622
11
-0.052335157480315
21
-0.5377808267716535
0
LINE
8
BLACK
6
CONTINUOUS
10
-0.052335157480315
20
-0.5377808267716535
11
-0.0583959842519685
21
-0.5402912992125984
0
LINE
8
BLACK
6
CONTINUOUS
10
-0.0583959842519685
20
-0.5402912992125984
11
-0.0648301181102362
21
-0.5415711417322835
0
LINE
8
BLACK
6
CONTINUOUS
10
-0.0648301181102362
20
-0.5415711417322835
11
-0.0713903543307087
21
-0.5415711417322835
0
LINE
8
BLACK
6
CONTINUOUS
10
-0.0713903543307087
20
-0.5415711417322835
11
-0.0778244881889764
21
-0.5402912992125984
0
LINE
8
BLACK
6
CONTINUOUS
10
-0.0778244881889764
20
-0.5402912992125984
11
-0.0838853149606299
21
-0.5377808267716535
0
LINE
8
BLACK
6
CONTINUOUS
10
-0.0838853149606299
20
-0.5377808267716535
11
-0.0893399212598425
21
-0.5341361811023622
0
LINE
8
BLACK
6
CONTINUOUS
10
-0.0893399212598425
20
-0.5341361811023622
11
-0.0939787007874016
21
-0.5294974015748032
0
LINE
8
BLACK
6
CONTINUOUS
10
-0.0939787007874016
20
-0.5294974015748032
11
-0.0976233464566929
21
-0.5240427952755905
0
LINE
8
BLACK
6
CONTINUOUS
10
-0.0976233464566929
20
-0.5240427952755905
11
-0.1001338188976378
21
-0.517981968503937
0
LINE
8
BLACK
6
CONTINUOUS
10
-0.1001338188976378
20
-0.517981968503937
11
-0.1014136614173228
21
-0.5115478346456693
0
LINE
8
BLACK
6
CONTINUOUS
10
-0.1014136614173228
20
-0.5115478346456693
11
-0.1014136614173228
21
-0.5049875984251968
0
LINE
8
BLACK
6
CONTINUOUS
10
-0.1014136614173228
20
-0.5049875984251968
11
-0.1001338188976378
21
-0.4985534645669291
0
LINE
8
BLACK
6
CONTINUOUS
10
-0.1001338188976378
20
-0.4985534645669291
11
-0.0976233464566929
21
-0.4924926377952756
0
LINE
8
BLACK
6
CONTINUOUS
10
-0.0976233464566929
20
-0.4924926377952756
11
-0.0939787007874016
21
-0.487038031496063
0
LINE
8
BLACK
6
CONTINUOUS
10
-0.0939787007874016
20
-0.487038031496063
11
-0.0893399212598425
21
-0.4823992519685039
0
LINE
8
BLACK
6
CONTINUOUS
10
-0.0893399212598425
20
-0.4823992519685039
11
-0.0838853149606299
21
-0.4787546062992126
0
LINE
8
BLACK
6
CONTINUOUS
10
-0.0838853149606299
20
-0.4787546062992126
11
-0.0778244881889764
21
-0.4762441338582677
0
LINE
8
BLACK
6
CONTINUOUS
10
-0.0778244881889764
20
-0.4762441338582677
11
-0.0713903543307087
21
-0.4749642913385826
0
LINE
8
BLACK
6
CONTINUOUS
10
-0.0713903543307087
20
-0.4749642913385826
11
-0.0648301181102362
21
-0.4749642913385826
0
LINE
8
BLACK
6
CONTINUOUS
10
-0.0648301181102362
20
-0.4749642913385826
11
-0.0583959842519685
21
-0.4762441338582677
0
LINE
8
BLACK
6
CONTINUOUS
10
0.2965252755905512
20
-0.4703386220472441
11
0.3025861023622047
21
-0.472849094488189
0
LINE
8
BLACK
6
CONTINUOUS
10
0.3025861023622047
20
-0.472849094488189
11
0.3080407086614173
21
-0.4764937401574803
0
LINE
8
BLACK
6
CONTINUOUS
10
0.3080407086614173
20
-0.4764937401574803
11
0.3126794881889764
21
-0.4811325196850393
0
LINE
8
BLACK
6
CONTINUOUS
10
0.3126794881889764
20
-0.4811325196850393
11
0.3163241338582677
21
-0.486587125984252
0
LINE
8
BLACK
6
CONTINUOUS
10
0.3163241338582677
20
-0.486587125984252
11
0.3188346062992126
21
-0.4926479527559055
0
LINE
8
BLACK
6
CONTINUOUS
10
0.3188346062992126
20
-0.4926479527559055
11
0.3201144488188976
21
-0.4990820866141732
0
LINE
8
BLACK
6
CONTINUOUS
10
0.3201144488188976
20
-0.4990820866141732
11
0.3201144488188976
21
-0.5056423228346456
0
LINE
8
BLACK
6
CONTINUOUS
10
0.3201144488188976
20
-0.5056423228346456
11
0.3188346062992126
21
-0.5120764566929134
0
LINE
8
BLACK
6
CONTINUOUS
10
0.3188346062992126
20
-0.5120764566929134
11
0.3163241338582677
21
-0.5181372834645669
0
LINE
8
BLACK
6
CONTINUOUS
10
0.3163241338582677
20
-0.5181372834645669
11
0.3126794881889764
21
-0.5235918897637795
0
LINE
8
BLACK
6
CONTINUOUS
10
0.3126794881889764
20
-0.5235918897637795
11
0.3080407086614173
21
-0.5282306692913386
0
LINE
8
BLACK
6
CONTINUOUS
10
0.3080407086614173
20
-0.5282306692913386
11
0.3025861023622047
21
-0.5318753149606299
0
LINE
8
BLACK
6
CONTINUOUS
10
0.3025861023622047
20
-0.5318753149606299
11
0.2965252755905512
21
-0.5343857874015748
0
LINE
8
BLACK
6
CONTINUOUS
10
0.2965252755905512
20
-0.5343857874015748
11
0.2900911417322835
21
-0.5356656299212599
0
LINE
8
BLACK
6
CONTINUOUS
10
0.2900911417322835
20
-0.5356656299212599
11
0.283530905511811
21
-0.5356656299212599
0
LINE
8
BLACK
6
CONTINUOUS
10
0.283530905511811
20
-0.5356656299212599
11
0.2770967716535433
21
-0.5343857874015748
0
LINE
8
BLACK
6
CONTINUOUS
10
0.2770967716535433
20
-0.5343857874015748
11
0.2710359448818898
21
-0.5318753149606299
0
LINE
8
BLACK
6
CONTINUOUS
10
0.2710359448818898
20
-0.5318753149606299
11
0.2655813385826772
21
-0.5282306692913386
0
LINE
8
BLACK
6
CONTINUOUS
10
0.2655813385826772
20
-0.5282306692913386
11
0.2609425590551181
21
-0.5235918897637795
0
LINE
8
BLACK
6
CONTINUOUS
10
0.2609425590551181
20
-0.5235918897637795
11
0.2572979133858267
21
-0.5181372834645669
0
LINE
8
BLACK
6
CONTINUOUS
10
0.2572979133858267
20
-0.5181372834645669
11
0.2547874409448819
21
-0.5120764566929134
0
LINE
8
BLACK
6
CONTINUOUS
10
0.2547874409448819
20
-0.5120764566929134
11
0.2535075984251968
21
-0.5056423228346456
0
LINE
8
BLACK
6
CONTINUOUS
10
0.2535075984251968
20
-0.5056423228346456
11
0.2535075984251968
21
-0.4990820866141732
0
LINE
8
BLACK
6
CONTINUOUS
10
0.2535075984251968
20
-0.4990820866141732
11
0.2547874409448819
21
-0.4926479527559055
0
LINE
8
BLACK
6
CONTINUOUS
10
0.2547874409448819
20
-0.4926479527559055
11
0.2572979133858267
21
-0.486587125984252
0
LINE
8
BLACK
6
CONTINUOUS
10
0.2572979133858267
20
-0.486587125984252
11
0.2609425590551181
21
-0.4811325196850393
0
LINE
8
BLACK
6
CONTINUOUS
10
0.2609425590551181
20
-0.4811325196850393
11
0.2655813385826772
21
-0.4764937401574803
0
LINE
8
BLACK
6
CONTINUOUS
10
0.2655813385826772
20
-0.4764937401574803
11
0.2710359448818898
21
-0.472849094488189
0
LINE
8
BLACK
6
CONTINUOUS
10
0.2710359448818898
20
-0.472849094488189
11
0.2770967716535433
21
-0.4703386220472441
0
LINE
8
BLACK
6
CONTINUOUS
10
0.2770967716535433
20
-0.4703386220472441
11
0.283530905511811
21
-0.469058779527559
0
LINE
8
BLACK
6
CONTINUOUS
10
0.283530905511811
20
-0.469058779527559
11
0.2900911417322835
21
-0.469058779527559
0
LINE
8
BLACK
6
CONTINUOUS
10
0.2900911417322835
20
-0.469058779527559
11
0.2965252755905512
21
-0.4703386220472441
0
LINE
8
BLACK
6
CONTINUOUS
10
-0.2583959842519685
20
-0.3762441338582677
11
-0.2523351574803149
21
-0.3787546062992126
0
LINE
8
BLACK
6
CONTINUOUS
10
-0.2523351574803149
20
-0.3787546062992126
11
-0.2468805511811024
21
-0.3823992519685039
0
LINE
8
BLACK
6
CONTINUOUS
10
-0.2468805511811024
20
-0.3823992519685039
11
-0.2422417716535433
21
-0.387038031496063
0
LINE
8
BLACK
6
CONTINUOUS
10
-0.2422417716535433
20
-0.387038031496063
11
-0.238597125984252
21
-0.3924926377952756
0
LINE
8
BLACK
6
CONTINUOUS
10
-0.238597125984252
20
-0.3924926377952756
11
-0.2360866535433071
21
-0.3985534645669291
0
LINE
8
BLACK
6
CONTINUOUS
10
-0.2360866535433071
20
-0.3985534645669291
11
-0.2348068110236221
21
-0.4049875984251968
0
LINE
8
BLACK
6
CONTINUOUS
10
-0.2348068110236221
20
-0.4049875984251968
11
-0.2348068110236221
21
-0.4115478346456693
0
LINE
8
BLACK
6
CONTINUOUS
10
-0.2348068110236221
20
-0.4115478346456693
11
-0.2360866535433071
21
-0.417981968503937
0
LINE
8
BLACK
6
CONTINUOUS
10
-0.2360866535433071
20
-0.417981968503937
11
-0.238597125984252
21
-0.4240427952755905
0
LINE
8
BLACK
6
CONTINUOUS
10
-0.238597125984252
20
-0.4240427952755905
11
-0.2422417716535433
21
-0.4294974015748032
0
LINE
8
BLACK
6
CONTINUOUS
10
-0.2422417716535433
20
-0.4294974015748032
11
-0.2468805511811024
21
-0.4341361811023622
0
LINE
8
BLACK
6
CONTINUOUS
10
-0.2468805511811024
20
-0.4341361811023622
11
-0.2523351574803149
21
-0.4377808267716535
0
LINE
8
BLACK
6
CONTINUOUS
10
-0.2523351574803149
20
-0.4377808267716535
11
-0.2583959842519685
21
-0.4402912992125984
0
LINE
8
BLACK
6
CONTINUOUS
10
-0.2583959842519685
20
-0.4402912992125984
11
-0.2648301181102362
21
-0.4415711417322835
0
LINE
8
BLACK
6
CONTINUOUS
10
-0.2648301181102362
20
-0.4415711417322835
11
-0.2713903543307087
21
-0.4415711417322835
0
LINE
8
BLACK
6
CONTINUOUS
10
-0.2713903543307087
20
-0.4415711417322835
11
-0.2778244881889764
21
-0.4402912992125984
0
LINE
8
BLACK
6
CONTINUOUS
10
-0.2778244881889764
20
-0.4402912992125984
11
-0.2838853149606299
21
-0.4377808267716535
0
LINE
8
BLACK
6
CONTINUOUS
10
-0.2838853149606299
20
-0.4377808267716535
11
-0.2893399212598425
21
-0.4341361811023622
0
LINE
8
BLACK
6
CONTINUOUS
10
-0.2893399212598425
20
-0.4341361811023622
11
-0.2939787007874016
21
-0.4294974015748032
0
LINE
8
BLACK
6
CONTINUOUS
10
-0.2939787007874016
20
-0.4294974015748032
11
-0.2976233464566929
21
-0.4240427952755905
0
LINE
8
BLACK
6
CONTINUOUS
10
-0.2976233464566929
20
-0.4240427952755905
11
-0.3001338188976378
21
-0.417981968503937
0
LINE
8
BLACK
6
CONTINUOUS
10
-0.3001338188976378
20
-0.417981968503937
11
-0.3014136614173228
21
-0.4115478346456693
0
LINE
8
BLACK
6
CONTINUOUS
10
-0.3014136614173228
20
-0.4115478346456693
11
-0.3014136614173228
21
-0.4049875984251968
0
LINE
8
BLACK
6
CONTINUOUS
10
-0.3014136614173228
20
-0.4049875984251968
11
-0.3001338188976378
21
-0.3985534645669291
0
LINE
8
BLACK
6
CONTINUOUS
10
-0.3001338188976378
20
-0.3985534645669291
11
-0.2976233464566929
21
-0.3924926377952756
0
LINE
8
BLACK
6
CONTINUOUS
10
-0.2976233464566929
20
-0.3924926377952756
11
-0.2939787007874016
21
-0.387038031496063
0
LINE
8
BLACK
6
CONTINUOUS
10
-0.2939787007874016
20
-0.387038031496063
11
-0.2893399212598425
21
-0.3823992519685039
0
LINE
8
BLACK
6
CONTINUOUS
10
-0.2893399212598425
20
-0.3823992519685039
11
-0.2838853149606299
21
-0.3787546062992126
0
LINE
8
BLACK
6
CONTINUOUS
10
-0.2838853149606299
20
-0.3787546062992126
11
-0.2778244881889764
21
-0.3762441338582677
0
LINE
8
BLACK
6
CONTINUOUS
10
-0.2778244881889764
20
-0.3762441338582677
11
-0.2713903543307087
21
-0.3749642913385827
0
LINE
8
BLACK
6
CONTINUOUS
10
-0.2713903543307087
20
-0.3749642913385827
11
-0.2648301181102362
21
-0.3749642913385827
0
LINE
8
BLACK
6
CONTINUOUS
10
-0.2648301181102362
20
-0.3749642913385827
11
-0.2583959842519685
21
-0.3762441338582677
0
LINE
8
BLACK
6
CONTINUOUS
10
-0.0583959842519685
20
-0.3762441338582677
11
-0.052335157480315
21
-0.3787546062992126
0
LINE
8
BLACK
6
CONTINUOUS
10
-0.052335157480315
20
-0.3787546062992126
11
-0.0468805511811024
21
-0.3823992519685039
0
LINE
8
BLACK
6
CONTINUOUS
10
-0.0468805511811024
20
-0.3823992519685039
11
-0.0422417716535433
21
-0.387038031496063
0
LINE
8
BLACK
6
CONTINUOUS
10
-0.0422417716535433
20
-0.387038031496063
11
-0.038597125984252
21
-0.3924926377952756
0
LINE
8
BLACK
6
CONTINUOUS
10
-0.038597125984252
20
-0.3924926377952756
11
-0.0360866535433071
21
-0.3985534645669291
0
LINE
8
BLACK
6
CONTINUOUS
10
-0.0360866535433071
20
-0.3985534645669291
11
-0.034806811023622
21
-0.4049875984251968
0
LINE
8
BLACK
6
CONTINUOUS
10
-0.034806811023622
20
-0.4049875984251968
11
-0.034806811023622
21
-0.4115478346456693
0
LINE
8
BLACK
6
CONTINUOUS
10
-0.034806811023622
20
-0.4115478346456693
11
-0.0360866535433071
21
-0.417981968503937
0
LINE
8
BLACK
6
CONTINUOUS
10
-0.0360866535433071
20
-0.417981968503937
11
-0.038597125984252
21
-0.4240427952755905
0
LINE
8
BLACK
6
CONTINUOUS
10
-0.038597125984252
20
-0.4240427952755905
11
-0.0422417716535433
21
-0.4294974015748032
0
LINE
8
BLACK
6
CONTINUOUS
10
-0.0422417716535433
20
-0.4294974015748032
11
-0.0468805511811024
21
-0.4341361811023622
0
LINE
8
BLACK
6
CONTINUOUS
10
-0.0468805511811024
20
-0.4341361811023622
11
-0.052335157480315
21
-0.4377808267716535
0
LINE
8
BLACK
6
CONTINUOUS
10
-0.052335157480315
20
-0.4377808267716535
11
-0.0583959842519685
21
-0.4402912992125984
0
LINE
8
BLACK
6
CONTINUOUS
10
-0.0583959842519685
20
-0.4402912992125984
11
-0.0648301181102362
21
-0.4415711417322835
0
LINE
8
BLACK
6
CONTINUOUS
10
-0.0648301181102362
20
-0.4415711417322835
11
-0.0713903543307087
21
-0.4415711417322835
0
LINE
8
BLACK
6
CONTINUOUS
10
-0.0713903543307087
20
-0.4415711417322835
11
-0.0778244881889764
21
-0.4402912992125984
0
LINE
8
BLACK
6
CONTINUOUS
10
-0.0778244881889764
20
-0.4402912992125984
11
-0.0838853149606299
21
-0.4377808267716535
0
LINE
8
BLACK
6
CONTINUOUS
10
-0.0838853149606299
20
-0.4377808267716535
11
-0.0893399212598425
21
-0.4341361811023622
0
LINE
8
BLACK
6
CONTINUOUS
10
-0.0893399212598425
20
-0.4341361811023622
11
-0.0939787007874016
21
-0.4294974015748032
0
LINE
8
BLACK
6
CONTINUOUS
10
-0.0939787007874016
20
-0.4294974015748032
11
-0.0976233464566929
21
-0.4240427952755905
0
LINE
8
BLACK
6
CONTINUOUS
10
-0.0976233464566929
20
-0.4240427952755905
11
-0.1001338188976378
21
-0.417981968503937
0
LINE
8
BLACK
6
CONTINUOUS
10
-0.1001338188976378
20
-0.417981968503937
11
-0.1014136614173228
21
-0.4115478346456693
0
LINE
8
BLACK
6
CONTINUOUS
10
-0.1014136614173228
20
-0.4115478346456693
11
-0.1014136614173228
21
-0.4049875984251968
0
LINE
8
BLACK
6
CONTINUOUS
10
-0.1014136614173228
20
-0.4049875984251968
11
-0.1001338188976378
21
-0.3985534645669291
0
LINE
8
BLACK
6
CONTINUOUS
10
-0.1001338188976378
20
-0.3985534645669291
11
-0.0976233464566929
21
-0.3924926377952756
0
LINE
8
BLACK
6
CONTINUOUS
10
-0.0976233464566929
20
-0.3924926377952756
11
-0.0939787007874016
21
-0.387038031496063
0
LINE
8
BLACK
6
CONTINUOUS
10
-0.0939787007874016
20
-0.387038031496063
11
-0.0893399212598425
21
-0.3823992519685039
0
LINE
8
BLACK
6
CONTINUOUS
10
-0.0893399212598425
20
-0.3823992519685039
11
-0.0838853149606299
21
-0.3787546062992126
0
LINE
8
BLACK
6
CONTINUOUS
10
-0.0838853149606299
20
-0.3787546062992126
11
-0.0778244881889764
21
-0.3762441338582677
0
LINE
8
BLACK
6
CONTINUOUS
10
-0.0778244881889764
20
-0.3762441338582677
11
-0.0713903543307087
21
-0.3749642913385827
0
LINE
8
BLACK
6
CONTINUOUS
10
-0.0713903543307087
20
-0.3749642913385827
11
-0.0648301181102362
21
-0.3749642913385827
0
LINE
8
BLACK
6
CONTINUOUS
10
-0.0648301181102362
20
-0.3749642913385827
11
-0.0583959842519685
21
-0.3762441338582677
0
CIRCLE
8
BLACK
10
0.3868110236220472
20
-0.5023622047244094
40
0.0068897637795276
0
CIRCLE
8
BLACK
10
0.2868110236220472
20
-0.5023622047244094
40
0.0068897637795276
0
CIRCLE
8
BLACK
10
0.1868110236220472
20
-0.5023622047244094
40
0.0068897637795276
0
CIRCLE
8
BLACK
10
0.5980314960629921
20
-0.3980314960629921
40
0.0068897637795276
0
CIRCLE
8
BLACK
10
-0.6019685039370078
20
-0.3980314960629921
40
0.0068897637795276
0
CIRCLE
8
BLACK
10
0.5980314960629921
20
0.8019685039370078
40
0.0068897637795276
0
CIRCLE
8
BLACK
10
0.0318897637795276
20
-0.408267716535433
40
0.0068897637795276
0
CIRCLE
8
BLACK
10
0.0318897637795276
20
-0.508267716535433
40
0.0068897637795276
0
CIRCLE
8
BLACK
10
-0.0681102362204724
20
-0.408267716535433
40
0.0068897637795276
0
CIRCLE
8
BLACK
10
-0.0681102362204724
20
-0.508267716535433
40
0.0068897637795276
0
CIRCLE
8
BLACK
10
-0.1681102362204724
20
-0.408267716535433
40
0.0068897637795276
0
CIRCLE
8
BLACK
10
-0.1681102362204724
20
-0.508267716535433
40
0.0068897637795276
0
CIRCLE
8
BLACK
10
-0.2681102362204724
20
-0.408267716535433
40
0.0068897637795276
0
CIRCLE
8
BLACK
10
-0.2681102362204724
20
-0.508267716535433
40
0.0068897637795276
0
CIRCLE
8
BLACK
10
-0.3681102362204725
20
-0.408267716535433
40
0.0068897637795276
0
CIRCLE
8
BLACK
10
-0.3681102362204725
20
-0.508267716535433
40
0.0068897637795276
0
CIRCLE
8
BLACK
10
-0.6019685039370078
20
0.8019685039370078
40
0.0068897637795276
0
CIRCLE
8
BLACK
10
-0.078740157480315
20
-0.0173228346456693
40
0.0059055118110236
0
CIRCLE
8
BLACK
10
0.5161417322834646
20
0.621259842519685
40
0.0059055118110236
0
CIRCLE
8
BLACK
10
-0.2578740157480315
20
0.0106299212598425
40
0.0059055118110236
0
CIRCLE
8
BLACK
10
0.0275590551181102
20
-0.2263779527559055
40
0.0059055118110236
0
CIRCLE
8
BLACK
10
-0.2590551181102362
20
0.1433070866141732
40
0.0059055118110236
0
CIRCLE
8
BLACK
10
0.052755905511811
20
0.018503937007874
40
0.0059055118110236
0
CIRCLE
8
BLACK
10
0.437007874015748
20
0.4633858267716535
40
0.0059055118110236
0
CIRCLE
8
BLACK
10
0.1480314960629921
20
0.508267716535433
40
0.0059055118110236
0
CIRCLE
8
BLACK
10
0.2350393700787402
20
-0.2326771653543307
40
0.0059055118110236
0
CIRCLE
8
BLACK
10
-0.3220472440944882
20
-0.2299212598425197
40
0.0059055118110236
0
CIRCLE
8
BLACK
10
0.0673228346456693
20
0.4968503937007874
40
0.0059055118110236
0
CIRCLE
8
BLACK
10
-0.4480314960629921
20
0.2007874015748032
40
0.0059055118110236
0
CIRCLE
8
BLACK
10
0.2145669291338583
20
0.4937007874015748
40
0.0059055118110236
0
CIRCLE
8
BLACK
10
0.2124165354330709
20
0.3281645669291339
40
0.0059055118110236
0
CIRCLE
8
BLACK
10
0.2988188976377953
20
0.4964566929133858
40
0.0059055118110236
0
CIRCLE
8
BLACK
10
-0.3881889763779527
20
0.4960629921259843
40
0.0059055118110236
0
CIRCLE
8
BLACK
10
0.4755905511811023
20
0.431496062992126
40
0.0059055118110236
0
CIRCLE
8
BLACK
10
0.0539370078740157
20
-0.0968503937007874
40
0.0059055118110236
0
CIRCLE
8
BLACK
10
0.5519685039370079
20
0.4129921259842519
40
0.0059055118110236
0
CIRCLE
8
BLACK
10
0.1484251968503937
20
0.3236220472440945
40
0.0059055118110236
0
CIRCLE
8
BLACK
10
0.1059055118110236
20
-0.4594488188976378
40
0.0059055118110236
0
CIRCLE
8
BLACK
10
0.1291338582677165
20
0.152755905511811
40
0.0059055118110236
0
CIRCLE
8
BLACK
10
-0.1952755905511811
20
0.2988188976377953
40
0.0059055118110236
0
CIRCLE
8
BLACK
10
-0.2208661417322835
20
-0.2413385826771653
40
0.0059055118110236
0
CIRCLE
8
BLACK
10
0.2102362204724409
20
0.1484251968503937
40
0.0059055118110236
0
CIRCLE
8
BLACK
10
-0.2578740157480315
20
-0.0901574803149606
40
0.0059055118110236
0
CIRCLE
8
BLACK
10
-0.421259842519685
20
0.0106299212598425
40
0.0059055118110236
0
CIRCLE
8
BLACK
10
0.4385826771653543
20
0.3905511811023622
40
0.0059055118110236
0
CIRCLE
8
BLACK
10
-0.4937007874015748
20
0.3429133858267717
40
0.0059055118110236
0
CIRCLE
8
BLACK
10
0.1893700787401575
20
-0.2318897637795276
40
0.0059055118110236
0
CIRCLE
8
BLACK
10
0.2586614173228347
20
0.5791338582677166
40
0.0059055118110236
0
CIRCLE
8
BLACK
10
0.6023622047244095
20
0.0145669291338583
40
0.0059055118110236
0
CIRCLE
8
BLACK
10
-0.3523622047244094
20
0.1409448818897638
40
0.0059055118110236
0
CIRCLE
8
BLACK
10
0.1173228346456693
20
-0.3944881889763779
40
0.0059055118110236
0
CIRCLE
8
BLACK
10
-0.021259842519685
20
0.4964566929133858
40
0.0059055118110236
0
CIRCLE
8
BLACK
10
0.1366141732283465
20
-0.2318897637795276
40
0.0059055118110236
0
CIRCLE
8
BLACK
10
-0.2090551181102362
20
0.3507874015748031
40
0.0059055118110236
0
CIRCLE
8
BLACK
10
-0.221259842519685
20
0.4948818897637795
40
0.0059055118110236
0
CIRCLE
8
BLACK
10
0.3322834645669291
20
0.4964566929133858
40
0.0059055118110236
0
CIRCLE
8
BLACK
10
0.0181102362204724
20
0.321259842519685
40
0.0059055118110236
0
CIRCLE
8
BLACK
10
0.4854330708661417
20
0.0122047244094488
40
0.0059055118110236
0
CIRCLE
8
BLACK
10
-0.0291338582677165
20
0.3551181102362205
40
0.0059055118110236
0
CIRCLE
8
BLACK
10
0.6023622047244095
20
0.6106299212598425
40
0.0059055118110236
0
CIRCLE
8
BLACK
10
0.0807086614173228
20
0.3240157480314961
40
0.0059055118110236
0
CIRCLE
8
BLACK
10
-0.087007874015748
20
-0.0925196850393701
40
0.0059055118110236
0
CIRCLE
8
BLACK
10
0.1240157480314961
20
0.2803149606299212
40
0.0059055118110236
0
CIRCLE
8
BLACK
10
0.0118110236220472
20
0.3763779527559055
40
0.0059055118110236
0
CIRCLE
8
BLACK
10
0.2858267716535433
20
0.1456692913385827
40
0.0059055118110236
0
CIRCLE
8
BLACK
10
0.0393700787401575
20
0.4677165354330708
40
0.0059055118110236
0
CIRCLE
8
BLACK
10
0.4602362204724409
20
0.2802165354330708
40
0.0059055118110236
  0
ENDSEC
  0
EOF
