  0
SECTION
  2
HEADER
  9
$ANGBASE
  50
0.0
  9
$ANGDIR
  70
1
  9
$MEASUREMENT
  70
0
  0
ENDSEC
  0
SECTION
  2
TABLES
  0
TABLE
  2
LTYPE
  70
4
  0
LTYPE
  5
40F
  2
CONTINUOUS
  70
0
  3
Solid line
  72
65
  73
0
  40
0.0
  0
LTYPE
  5
410
  2
DASHDOT
 70
0
  3
Dash Dot ____ _ ____ _
 72
65
 73
4
 40
2.0
 49
1.25
 49
-0.25
 49
0.25
 49
-0.25
  0
LTYPE
  5
411
  2
DASHED
 70
0
  3
Dashed __ __ __ __ __
 72
65
 73
2
 40
0.75
 49
0.5
 49
-0.25
  0
LTYPE
  5
43B
  2
DOTTED
 70
0
  3
Dotted .  .  .  .
 72
65
 73
2
 40
0.2
 49
0.0
 49
-0.2
  0
ENDTAB
  0
TABLE
  2
STYLE
  70
4
  0
STYLE
  2
KICAD
  70
0
  40
0
  41
1
  42
1
  50
0
  71
0
  3
isocp.shx
  0
STYLE
  2
KICADB
  70
0
  40
0
  41
1
  42
1
  50
0
  71
0
  3
isocp.shx
  0
STYLE
  2
KICADI
  70
0
  40
0
  41
1
  42
1
  50
15
  71
0
  3
isocp.shx
  0
STYLE
  2
KICADBI
  70
0
  40
0
  41
1
  42
1
  50
15
  71
0
  3
isocp.shx
  0
ENDTAB
  0
TABLE
  2
LAYER
  70
1
  0
LAYER
  2
BLACK
  70
0
  62
7
  6
CONTINUOUS
  0
ENDTAB
  0
ENDSEC
  0
SECTION
  2
ENTITIES
0
LINE
8
BLACK
6
CONTINUOUS
10
-0.1795931496062992
20
-0.4343487795275591
11
-0.1787785039370079
21
-0.4351634251968504
0
LINE
8
BLACK
6
CONTINUOUS
10
-0.1787785039370079
20
-0.4351634251968504
11
-0.1783375984251968
21
-0.4362278346456693
0
LINE
8
BLACK
6
CONTINUOUS
10
-0.1783375984251968
20
-0.4362278346456693
11
-0.1782808661417323
21
-0.4368038976377953
0
LINE
8
BLACK
6
CONTINUOUS
10
-0.1782808661417323
20
-0.4368038976377953
11
-0.1782808661417323
21
-0.4649253543307086
0
LINE
8
BLACK
6
CONTINUOUS
10
-0.1782808661417323
20
-0.4649253543307086
11
-0.1783096062992126
21
-0.4652169291338583
0
LINE
8
BLACK
6
CONTINUOUS
10
-0.1783096062992126
20
-0.4652169291338583
11
-0.1783040551181102
21
-0.46529468503937
0
LINE
8
BLACK
6
CONTINUOUS
10
-0.1783040551181102
20
-0.46529468503937
11
-0.1783273228346457
21
-0.4653969291338583
0
LINE
8
BLACK
6
CONTINUOUS
10
-0.1783273228346457
20
-0.4653969291338583
11
-0.1783375984251968
21
-0.4655014173228346
0
LINE
8
BLACK
6
CONTINUOUS
10
-0.1783375984251968
20
-0.4655014173228346
11
-0.1783674803149606
21
-0.4655734645669291
0
LINE
8
BLACK
6
CONTINUOUS
10
-0.1783674803149606
20
-0.4655734645669291
11
-0.1784324015748031
21
-0.4658591338582677
0
LINE
8
BLACK
6
CONTINUOUS
10
-0.1784324015748031
20
-0.4658591338582677
11
-0.1803071653543307
21
-0.4714833858267716
0
LINE
8
BLACK
6
CONTINUOUS
10
-0.1803071653543307
20
-0.4714833858267716
11
-0.1805431496062992
21
-0.472011968503937
0
LINE
8
BLACK
6
CONTINUOUS
10
-0.1805431496062992
20
-0.472011968503937
11
-0.1806126771653543
21
-0.4720920866141732
0
LINE
8
BLACK
6
CONTINUOUS
10
-0.1806126771653543
20
-0.4720920866141732
11
-0.1806532283464567
21
-0.4721900787401574
0
LINE
8
BLACK
6
CONTINUOUS
10
-0.1806532283464567
20
-0.4721900787401574
11
-0.1810204330708661
21
-0.4726375196850394
0
LINE
8
BLACK
6
CONTINUOUS
10
-0.1810204330708661
20
-0.4726375196850394
11
-0.18477
21
-0.476387125984252
0
LINE
8
BLACK
6
CONTINUOUS
10
-0.18477
20
-0.476387125984252
11
-0.1852174409448819
21
-0.4767543307086614
0
LINE
8
BLACK
6
CONTINUOUS
10
-0.1852174409448819
20
-0.4767543307086614
11
-0.1853155118110236
21
-0.4767949212598425
0
LINE
8
BLACK
6
CONTINUOUS
10
-0.1853155118110236
20
-0.4767949212598425
11
-0.1853956299212598
21
-0.4768644488188976
0
LINE
8
BLACK
6
CONTINUOUS
10
-0.1853956299212598
20
-0.4768644488188976
11
-0.1859241732283465
21
-0.4771004330708661
0
LINE
8
BLACK
6
CONTINUOUS
10
-0.1859241732283465
20
-0.4771004330708661
11
-0.1915484645669291
21
-0.4789751968503937
0
LINE
8
BLACK
6
CONTINUOUS
10
-0.1915484645669291
20
-0.4789751968503937
11
-0.1918340551181102
21
-0.4790401181102362
0
LINE
8
BLACK
6
CONTINUOUS
10
-0.1918340551181102
20
-0.4790401181102362
11
-0.1919061417322835
21
-0.47907
0
LINE
8
BLACK
6
CONTINUOUS
10
-0.1919061417322835
20
-0.47907
11
-0.1920106692913386
21
-0.4790802755905512
0
LINE
8
BLACK
6
CONTINUOUS
10
-0.1920106692913386
20
-0.4790802755905512
11
-0.1921129133858268
21
-0.4791035433070866
0
LINE
8
BLACK
6
CONTINUOUS
10
-0.1921129133858268
20
-0.4791035433070866
11
-0.1921906692913386
21
-0.4790979921259843
0
LINE
8
BLACK
6
CONTINUOUS
10
-0.1921906692913386
20
-0.4790979921259843
11
-0.1924822047244094
21
-0.4791267322834645
0
LINE
8
BLACK
6
CONTINUOUS
10
-0.1924822047244094
20
-0.4791267322834645
11
-0.1962317322834645
21
-0.4791267322834645
0
LINE
8
BLACK
6
CONTINUOUS
10
-0.1962317322834645
20
-0.4791267322834645
11
-0.1968077952755906
21
-0.47907
0
LINE
8
BLACK
6
CONTINUOUS
10
-0.1968077952755906
20
-0.47907
11
-0.1978722047244094
21
-0.478629094488189
0
LINE
8
BLACK
6
CONTINUOUS
10
-0.1978722047244094
20
-0.478629094488189
11
-0.1986868503937008
21
-0.4778144488188976
0
LINE
8
BLACK
6
CONTINUOUS
10
-0.1986868503937008
20
-0.4778144488188976
11
-0.1991277559055118
21
-0.4767500393700787
0
LINE
8
BLACK
6
CONTINUOUS
10
-0.1991277559055118
20
-0.4767500393700787
11
-0.1991277559055118
21
-0.4755979133858267
0
LINE
8
BLACK
6
CONTINUOUS
10
-0.1991277559055118
20
-0.4755979133858267
11
-0.1986868503937008
21
-0.4745335039370079
0
LINE
8
BLACK
6
CONTINUOUS
10
-0.1986868503937008
20
-0.4745335039370079
11
-0.1978722047244094
21
-0.4737188582677165
0
LINE
8
BLACK
6
CONTINUOUS
10
-0.1978722047244094
20
-0.4737188582677165
11
-0.1968077952755906
21
-0.4732779527559055
0
LINE
8
BLACK
6
CONTINUOUS
10
-0.1968077952755906
20
-0.4732779527559055
11
-0.1962317322834645
21
-0.4732212204724409
0
LINE
8
BLACK
6
CONTINUOUS
10
-0.1962317322834645
20
-0.4732212204724409
11
-0.1929613385826772
21
-0.4732212204724409
0
LINE
8
BLACK
6
CONTINUOUS
10
-0.1929613385826772
20
-0.4732212204724409
11
-0.1884529527559055
21
-0.4717183858267717
0
LINE
8
BLACK
6
CONTINUOUS
10
-0.1884529527559055
20
-0.4717183858267717
11
-0.1856892125984252
21
-0.4689546062992126
0
LINE
8
BLACK
6
CONTINUOUS
10
-0.1856892125984252
20
-0.4689546062992126
11
-0.1841863779527559
21
-0.4644462204724409
0
LINE
8
BLACK
6
CONTINUOUS
10
-0.1841863779527559
20
-0.4644462204724409
11
-0.1841863779527559
21
-0.4368038976377953
0
LINE
8
BLACK
6
CONTINUOUS
10
-0.1841863779527559
20
-0.4368038976377953
11
-0.1841296456692913
21
-0.4362278346456693
0
LINE
8
BLACK
6
CONTINUOUS
10
-0.1841296456692913
20
-0.4362278346456693
11
-0.1836887401574803
21
-0.4351634251968504
0
LINE
8
BLACK
6
CONTINUOUS
10
-0.1836887401574803
20
-0.4351634251968504
11
-0.182874094488189
21
-0.4343487795275591
0
LINE
8
BLACK
6
CONTINUOUS
10
-0.182874094488189
20
-0.4343487795275591
11
-0.1818096850393701
21
-0.433907874015748
0
LINE
8
BLACK
6
CONTINUOUS
10
-0.1818096850393701
20
-0.433907874015748
11
-0.1806575590551181
21
-0.433907874015748
0
LINE
8
BLACK
6
CONTINUOUS
10
-0.1806575590551181
20
-0.433907874015748
11
-0.1795931496062992
21
-0.4343487795275591
0
LINE
8
BLACK
6
CONTINUOUS
10
-0.1487865354330709
20
-0.433907874015748
11
-0.1486885433070866
21
-0.4339484645669291
0
LINE
8
BLACK
6
CONTINUOUS
10
-0.1486885433070866
20
-0.4339484645669291
11
-0.1485827165354331
21
-0.4339559842519685
0
LINE
8
BLACK
6
CONTINUOUS
10
-0.1485827165354331
20
-0.4339559842519685
11
-0.1480420866141732
21
-0.434162874015748
0
LINE
8
BLACK
6
CONTINUOUS
10
-0.1480420866141732
20
-0.434162874015748
11
-0.1442925590551181
21
-0.4360376377952756
0
LINE
8
BLACK
6
CONTINUOUS
10
-0.1442925590551181
20
-0.4360376377952756
11
-0.1440445669291339
21
-0.4361937007874016
0
LINE
8
BLACK
6
CONTINUOUS
10
-0.1440445669291339
20
-0.4361937007874016
11
-0.1439725984251969
21
-0.4362235433070866
0
LINE
8
BLACK
6
CONTINUOUS
10
-0.1439725984251969
20
-0.4362235433070866
11
-0.1438916535433071
21
-0.43629
0
LINE
8
BLACK
6
CONTINUOUS
10
-0.1438916535433071
20
-0.43629
11
-0.1438026771653543
21
-0.4363459842519685
0
LINE
8
BLACK
6
CONTINUOUS
10
-0.1438026771653543
20
-0.4363459842519685
11
-0.1437515354330709
21
-0.4364049606299212
0
LINE
8
BLACK
6
CONTINUOUS
10
-0.1437515354330709
20
-0.4364049606299212
11
-0.143525157480315
21
-0.4365907480314961
0
LINE
8
BLACK
6
CONTINUOUS
10
-0.143525157480315
20
-0.4365907480314961
11
-0.1416503937007874
21
-0.4384655118110236
0
LINE
8
BLACK
6
CONTINUOUS
10
-0.1416503937007874
20
-0.4384655118110236
11
-0.1414646456692913
21
-0.4386918503937008
0
LINE
8
BLACK
6
CONTINUOUS
10
-0.1414646456692913
20
-0.4386918503937008
11
-0.1414056299212599
21
-0.438743031496063
0
LINE
8
BLACK
6
CONTINUOUS
10
-0.1414056299212599
20
-0.438743031496063
11
-0.1413496850393701
21
-0.438831968503937
0
LINE
8
BLACK
6
CONTINUOUS
10
-0.1413496850393701
20
-0.438831968503937
11
-0.141283188976378
21
-0.4389129527559055
0
LINE
8
BLACK
6
CONTINUOUS
10
-0.141283188976378
20
-0.4389129527559055
11
-0.1412533858267717
21
-0.4389848818897638
0
LINE
8
BLACK
6
CONTINUOUS
10
-0.1412533858267717
20
-0.4389848818897638
11
-0.1410972834645669
21
-0.4392329133858268
0
LINE
8
BLACK
6
CONTINUOUS
10
-0.1410972834645669
20
-0.4392329133858268
11
-0.1392225196850394
21
-0.4429824409448819
0
LINE
8
BLACK
6
CONTINUOUS
10
-0.1392225196850394
20
-0.4429824409448819
11
-0.1390156299212598
21
-0.443523031496063
0
LINE
8
BLACK
6
CONTINUOUS
10
-0.1390156299212598
20
-0.443523031496063
11
-0.1390081102362205
21
-0.4436288976377953
0
LINE
8
BLACK
6
CONTINUOUS
10
-0.1390081102362205
20
-0.4436288976377953
11
-0.1389675196850394
21
-0.4437268897637795
0
LINE
8
BLACK
6
CONTINUOUS
10
-0.1389675196850394
20
-0.4437268897637795
11
-0.1389107874015748
21
-0.4443029527559055
0
LINE
8
BLACK
6
CONTINUOUS
10
-0.1389107874015748
20
-0.4443029527559055
11
-0.1389107874015748
21
-0.4480524803149606
0
LINE
8
BLACK
6
CONTINUOUS
10
-0.1389107874015748
20
-0.4480524803149606
11
-0.1389395275590551
21
-0.4483440551181102
0
LINE
8
BLACK
6
CONTINUOUS
10
-0.1389395275590551
20
-0.4483440551181102
11
-0.1389339763779527
21
-0.4484218110236221
0
LINE
8
BLACK
6
CONTINUOUS
10
-0.1389339763779527
20
-0.4484218110236221
11
-0.1389572440944882
21
-0.4485240551181102
0
LINE
8
BLACK
6
CONTINUOUS
10
-0.1389572440944882
20
-0.4485240551181102
11
-0.1389675196850394
21
-0.4486285433070866
0
LINE
8
BLACK
6
CONTINUOUS
10
-0.1389675196850394
20
-0.4486285433070866
11
-0.1389974015748031
21
-0.4487005905511811
0
LINE
8
BLACK
6
CONTINUOUS
10
-0.1389974015748031
20
-0.4487005905511811
11
-0.1390623228346457
21
-0.4489862598425197
0
LINE
8
BLACK
6
CONTINUOUS
10
-0.1390623228346457
20
-0.4489862598425197
11
-0.1409370866141732
21
-0.4546105118110236
0
LINE
8
BLACK
6
CONTINUOUS
10
-0.1409370866141732
20
-0.4546105118110236
11
-0.1411730708661417
21
-0.455139094488189
0
LINE
8
BLACK
6
CONTINUOUS
10
-0.1411730708661417
20
-0.455139094488189
11
-0.1412425590551181
21
-0.4552191732283464
0
LINE
8
BLACK
6
CONTINUOUS
10
-0.1412425590551181
20
-0.4552191732283464
11
-0.1412831496062992
21
-0.4553172440944882
0
LINE
8
BLACK
6
CONTINUOUS
10
-0.1412831496062992
20
-0.4553172440944882
11
-0.1416503937007874
21
-0.4557646850393701
0
LINE
8
BLACK
6
CONTINUOUS
10
-0.1416503937007874
20
-0.4557646850393701
11
-0.1591068897637795
21
-0.4732212204724409
0
LINE
8
BLACK
6
CONTINUOUS
10
-0.1591068897637795
20
-0.4732212204724409
11
-0.1418635433070866
21
-0.4732212204724409
0
LINE
8
BLACK
6
CONTINUOUS
10
-0.1418635433070866
20
-0.4732212204724409
11
-0.1412874803149606
21
-0.4732779527559055
0
LINE
8
BLACK
6
CONTINUOUS
10
-0.1412874803149606
20
-0.4732779527559055
11
-0.1402230708661417
21
-0.4737188582677165
0
LINE
8
BLACK
6
CONTINUOUS
10
-0.1402230708661417
20
-0.4737188582677165
11
-0.1394084251968504
21
-0.4745335039370079
0
LINE
8
BLACK
6
CONTINUOUS
10
-0.1394084251968504
20
-0.4745335039370079
11
-0.1389675196850394
21
-0.4755979133858267
0
LINE
8
BLACK
6
CONTINUOUS
10
-0.1389675196850394
20
-0.4755979133858267
11
-0.1389675196850394
21
-0.4767500393700787
0
LINE
8
BLACK
6
CONTINUOUS
10
-0.1389675196850394
20
-0.4767500393700787
11
-0.1394084251968504
21
-0.4778144488188976
0
LINE
8
BLACK
6
CONTINUOUS
10
-0.1394084251968504
20
-0.4778144488188976
11
-0.1402230708661417
21
-0.478629094488189
0
LINE
8
BLACK
6
CONTINUOUS
10
-0.1402230708661417
20
-0.478629094488189
11
-0.1412874803149606
21
-0.47907
0
LINE
8
BLACK
6
CONTINUOUS
10
-0.1412874803149606
20
-0.47907
11
-0.1418635433070866
21
-0.4791267322834645
0
LINE
8
BLACK
6
CONTINUOUS
10
-0.1418635433070866
20
-0.4791267322834645
11
-0.1662354724409449
21
-0.4791267322834645
0
LINE
8
BLACK
6
CONTINUOUS
10
-0.1662354724409449
20
-0.4791267322834645
11
-0.1668115354330709
21
-0.47907
0
LINE
8
BLACK
6
CONTINUOUS
10
-0.1668115354330709
20
-0.47907
11
-0.1678759448818898
21
-0.478629094488189
0
LINE
8
BLACK
6
CONTINUOUS
10
-0.1678759448818898
20
-0.478629094488189
11
-0.1686905905511811
21
-0.4778144488188976
0
LINE
8
BLACK
6
CONTINUOUS
10
-0.1686905905511811
20
-0.4778144488188976
11
-0.1691314960629921
21
-0.4767500393700787
0
LINE
8
BLACK
6
CONTINUOUS
10
-0.1691314960629921
20
-0.4767500393700787
11
-0.1691314960629921
21
-0.4755979133858267
0
LINE
8
BLACK
6
CONTINUOUS
10
-0.1691314960629921
20
-0.4755979133858267
11
-0.1686905905511811
21
-0.4745335039370079
0
LINE
8
BLACK
6
CONTINUOUS
10
-0.1686905905511811
20
-0.4745335039370079
11
-0.1683233858267716
21
-0.474086062992126
0
LINE
8
BLACK
6
CONTINUOUS
10
-0.1683233858267716
20
-0.474086062992126
11
-0.1463191338582677
21
-0.4520817322834645
0
LINE
8
BLACK
6
CONTINUOUS
10
-0.1463191338582677
20
-0.4520817322834645
11
-0.1448162992125984
21
-0.4475733464566929
0
LINE
8
BLACK
6
CONTINUOUS
10
-0.1448162992125984
20
-0.4475733464566929
11
-0.1448162992125984
21
-0.445
0
LINE
8
BLACK
6
CONTINUOUS
10
-0.1448162992125984
20
-0.445
11
-0.1461650393700787
21
-0.4423025196850394
0
LINE
8
BLACK
6
CONTINUOUS
10
-0.1461650393700787
20
-0.4423025196850394
11
-0.1473621653543307
21
-0.4411053937007874
0
LINE
8
BLACK
6
CONTINUOUS
10
-0.1473621653543307
20
-0.4411053937007874
11
-0.1500596456692913
21
-0.4397566535433071
0
LINE
8
BLACK
6
CONTINUOUS
10
-0.1500596456692913
20
-0.4397566535433071
11
-0.1580393700787402
21
-0.4397566535433071
0
LINE
8
BLACK
6
CONTINUOUS
10
-0.1580393700787402
20
-0.4397566535433071
11
-0.1607368503937008
21
-0.4411053937007874
0
LINE
8
BLACK
6
CONTINUOUS
10
-0.1607368503937008
20
-0.4411053937007874
11
-0.1622727952755905
21
-0.4426413385826772
0
LINE
8
BLACK
6
CONTINUOUS
10
-0.1622727952755905
20
-0.4426413385826772
11
-0.1627202362204724
21
-0.4430085433070866
0
LINE
8
BLACK
6
CONTINUOUS
10
-0.1627202362204724
20
-0.4430085433070866
11
-0.1637846850393701
21
-0.4434494488188976
0
LINE
8
BLACK
6
CONTINUOUS
10
-0.1637846850393701
20
-0.4434494488188976
11
-0.1649367322834646
21
-0.4434494488188976
0
LINE
8
BLACK
6
CONTINUOUS
10
-0.1649367322834646
20
-0.4434494488188976
11
-0.1660011811023622
21
-0.4430085433070866
0
LINE
8
BLACK
6
CONTINUOUS
10
-0.1660011811023622
20
-0.4430085433070866
11
-0.1668158267716535
21
-0.4421938976377953
0
LINE
8
BLACK
6
CONTINUOUS
10
-0.1668158267716535
20
-0.4421938976377953
11
-0.1672567322834646
21
-0.4411294488188977
0
LINE
8
BLACK
6
CONTINUOUS
10
-0.1672567322834646
20
-0.4411294488188977
11
-0.1672567322834646
21
-0.4399774015748031
0
LINE
8
BLACK
6
CONTINUOUS
10
-0.1672567322834646
20
-0.4399774015748031
11
-0.1668158267716535
21
-0.4389129527559055
0
LINE
8
BLACK
6
CONTINUOUS
10
-0.1668158267716535
20
-0.4389129527559055
11
-0.1664486220472441
21
-0.4384655118110236
0
LINE
8
BLACK
6
CONTINUOUS
10
-0.1664486220472441
20
-0.4384655118110236
11
-0.1645738582677165
21
-0.4365907480314961
0
LINE
8
BLACK
6
CONTINUOUS
10
-0.1645738582677165
20
-0.4365907480314961
11
-0.1643475196850394
21
-0.4364049606299212
0
LINE
8
BLACK
6
CONTINUOUS
10
-0.1643475196850394
20
-0.4364049606299212
11
-0.1642963385826772
21
-0.4363459842519685
0
LINE
8
BLACK
6
CONTINUOUS
10
-0.1642963385826772
20
-0.4363459842519685
11
-0.1642074015748032
21
-0.43629
0
LINE
8
BLACK
6
CONTINUOUS
10
-0.1642074015748032
20
-0.43629
11
-0.1641264173228346
21
-0.4362235433070866
0
LINE
8
BLACK
6
CONTINUOUS
10
-0.1641264173228346
20
-0.4362235433070866
11
-0.1640544881889764
21
-0.4361937007874016
0
LINE
8
BLACK
6
CONTINUOUS
10
-0.1640544881889764
20
-0.4361937007874016
11
-0.1638064566929134
21
-0.4360376377952756
0
LINE
8
BLACK
6
CONTINUOUS
10
-0.1638064566929134
20
-0.4360376377952756
11
-0.1600569291338583
21
-0.434162874015748
0
LINE
8
BLACK
6
CONTINUOUS
10
-0.1600569291338583
20
-0.434162874015748
11
-0.1595163385826772
21
-0.4339559842519685
0
LINE
8
BLACK
6
CONTINUOUS
10
-0.1595163385826772
20
-0.4339559842519685
11
-0.1594104724409449
21
-0.4339484251968504
0
LINE
8
BLACK
6
CONTINUOUS
10
-0.1594104724409449
20
-0.4339484251968504
11
-0.1593124803149606
21
-0.433907874015748
0
LINE
8
BLACK
6
CONTINUOUS
10
-0.1593124803149606
20
-0.433907874015748
11
-0.1587364173228346
21
-0.4338511417322835
0
LINE
8
BLACK
6
CONTINUOUS
10
-0.1587364173228346
20
-0.4338511417322835
11
-0.1493625984251968
21
-0.4338511417322835
0
LINE
8
BLACK
6
CONTINUOUS
10
-0.1493625984251968
20
-0.4338511417322835
11
-0.1487865354330709
21
-0.433907874015748
0
LINE
8
BLACK
6
CONTINUOUS
10
0.0326430708661417
20
-0.3564490551181102
11
0.0332816929133858
21
-0.3568757874015748
0
LINE
8
BLACK
6
CONTINUOUS
10
0.0332816929133858
20
-0.3568757874015748
11
0.0832816929133858
21
-0.4068757874015748
0
LINE
8
BLACK
6
CONTINUOUS
10
0.0832816929133858
20
-0.4068757874015748
11
0.0837084251968504
21
-0.4075144094488189
0
LINE
8
BLACK
6
CONTINUOUS
10
0.0837084251968504
20
-0.4075144094488189
11
0.0838582677165354
21
-0.408267716535433
0
LINE
8
BLACK
6
CONTINUOUS
10
0.0838582677165354
20
-0.408267716535433
11
0.0838582677165354
21
-0.4506655118110236
0
LINE
8
BLACK
6
CONTINUOUS
10
0.0838582677165354
20
-0.4506655118110236
11
0.0867382677165354
21
-0.4506655118110236
0
LINE
8
BLACK
6
CONTINUOUS
10
0.0867382677165354
20
-0.4506655118110236
11
0.0873143307086614
21
-0.4507222440944882
0
LINE
8
BLACK
6
CONTINUOUS
10
0.0873143307086614
20
-0.4507222440944882
11
0.0874123228346457
21
-0.4507628346456693
0
LINE
8
BLACK
6
CONTINUOUS
10
0.0874123228346457
20
-0.4507628346456693
11
0.0875181496062992
21
-0.4507703543307087
0
LINE
8
BLACK
6
CONTINUOUS
10
0.0875181496062992
20
-0.4507703543307087
11
0.0880587795275591
21
-0.4509772440944882
0
LINE
8
BLACK
6
CONTINUOUS
10
0.0880587795275591
20
-0.4509772440944882
11
0.0918083070866142
21
-0.4528520078740157
0
LINE
8
BLACK
6
CONTINUOUS
10
0.0918083070866142
20
-0.4528520078740157
11
0.0920562992125984
21
-0.4530080708661417
0
LINE
8
BLACK
6
CONTINUOUS
10
0.0920562992125984
20
-0.4530080708661417
11
0.0921282677165354
21
-0.4530379133858268
0
LINE
8
BLACK
6
CONTINUOUS
10
0.0921282677165354
20
-0.4530379133858268
11
0.0922092125984252
21
-0.4531043700787402
0
LINE
8
BLACK
6
CONTINUOUS
10
0.0922092125984252
20
-0.4531043700787402
11
0.092298188976378
21
-0.4531603543307087
0
LINE
8
BLACK
6
CONTINUOUS
10
0.092298188976378
20
-0.4531603543307087
11
0.0923493307086614
21
-0.4532193307086614
0
LINE
8
BLACK
6
CONTINUOUS
10
0.0923493307086614
20
-0.4532193307086614
11
0.0925757086614173
21
-0.4534051181102362
0
LINE
8
BLACK
6
CONTINUOUS
10
0.0925757086614173
20
-0.4534051181102362
11
0.0944504724409449
21
-0.4552798818897638
0
LINE
8
BLACK
6
CONTINUOUS
10
0.0944504724409449
20
-0.4552798818897638
11
0.0946362204724409
21
-0.4555062204724409
0
LINE
8
BLACK
6
CONTINUOUS
10
0.0946362204724409
20
-0.4555062204724409
11
0.0946952362204724
21
-0.4555574015748031
0
LINE
8
BLACK
6
CONTINUOUS
10
0.0946952362204724
20
-0.4555574015748031
11
0.0947511811023622
21
-0.4556463385826772
0
LINE
8
BLACK
6
CONTINUOUS
10
0.0947511811023622
20
-0.4556463385826772
11
0.0948176771653543
21
-0.4557273228346457
0
LINE
8
BLACK
6
CONTINUOUS
10
0.0948176771653543
20
-0.4557273228346457
11
0.0948474803149606
21
-0.4557992519685039
0
LINE
8
BLACK
6
CONTINUOUS
10
0.0948474803149606
20
-0.4557992519685039
11
0.0950035826771654
21
-0.4560472834645669
0
LINE
8
BLACK
6
CONTINUOUS
10
0.0950035826771654
20
-0.4560472834645669
11
0.0968783464566929
21
-0.459796811023622
0
LINE
8
BLACK
6
CONTINUOUS
10
0.0968783464566929
20
-0.459796811023622
11
0.0970852362204724
21
-0.4603374015748031
0
LINE
8
BLACK
6
CONTINUOUS
10
0.0970852362204724
20
-0.4603374015748031
11
0.0970927559055118
21
-0.4604432677165354
0
LINE
8
BLACK
6
CONTINUOUS
10
0.0970927559055118
20
-0.4604432677165354
11
0.0971333464566929
21
-0.4605412598425197
0
LINE
8
BLACK
6
CONTINUOUS
10
0.0971333464566929
20
-0.4605412598425197
11
0.0971857480314961
21
-0.4610733858267717
0
LINE
8
BLACK
6
CONTINUOUS
10
0.0971857480314961
20
-0.4610733858267717
11
0.1112917322834646
21
-0.4511992519685039
0
LINE
8
BLACK
6
CONTINUOUS
10
0.1112917322834646
20
-0.4511992519685039
11
0.1117961811023622
21
-0.4509153937007874
0
LINE
8
BLACK
6
CONTINUOUS
10
0.1117961811023622
20
-0.4509153937007874
11
0.1129210236220472
21
-0.4506662204724409
0
LINE
8
BLACK
6
CONTINUOUS
10
0.1129210236220472
20
-0.4506662204724409
11
0.1140555905511811
21
-0.4508664173228346
0
LINE
8
BLACK
6
CONTINUOUS
10
0.1140555905511811
20
-0.4508664173228346
11
0.1150271653543307
21
-0.4514855905511811
0
LINE
8
BLACK
6
CONTINUOUS
10
0.1150271653543307
20
-0.4514855905511811
11
0.115687874015748
21
-0.4524294488188976
0
LINE
8
BLACK
6
CONTINUOUS
10
0.115687874015748
20
-0.4524294488188976
11
0.1159370866141732
21
-0.4535542913385827
0
LINE
8
BLACK
6
CONTINUOUS
10
0.1159370866141732
20
-0.4535542913385827
11
0.1157368503937008
21
-0.4546888188976378
0
LINE
8
BLACK
6
CONTINUOUS
10
0.1157368503937008
20
-0.4546888188976378
11
0.1151176771653543
21
-0.4556604330708661
0
LINE
8
BLACK
6
CONTINUOUS
10
0.1151176771653543
20
-0.4556604330708661
11
0.1146783070866142
21
-0.4560372440944882
0
LINE
8
BLACK
6
CONTINUOUS
10
0.1146783070866142
20
-0.4560372440944882
11
0.0971900787401575
21
-0.4682789763779527
0
LINE
8
BLACK
6
CONTINUOUS
10
0.0971900787401575
20
-0.4682789763779527
11
0.0971900787401575
21
-0.4731626771653543
0
LINE
8
BLACK
6
CONTINUOUS
10
0.0971900787401575
20
-0.4731626771653543
11
0.112985
21
-0.4731626771653543
0
LINE
8
BLACK
6
CONTINUOUS
10
0.112985
20
-0.4731626771653543
11
0.113561062992126
21
-0.4732194094488189
0
LINE
8
BLACK
6
CONTINUOUS
10
0.113561062992126
20
-0.4732194094488189
11
0.1146254724409449
21
-0.4736603149606299
0
LINE
8
BLACK
6
CONTINUOUS
10
0.1146254724409449
20
-0.4736603149606299
11
0.1154401181102362
21
-0.4744749606299212
0
LINE
8
BLACK
6
CONTINUOUS
10
0.1154401181102362
20
-0.4744749606299212
11
0.1158810236220472
21
-0.4755393700787401
0
LINE
8
BLACK
6
CONTINUOUS
10
0.1158810236220472
20
-0.4755393700787401
11
0.1158810236220472
21
-0.4766914960629921
0
LINE
8
BLACK
6
CONTINUOUS
10
0.1158810236220472
20
-0.4766914960629921
11
0.1154401181102362
21
-0.477755905511811
0
LINE
8
BLACK
6
CONTINUOUS
10
0.1154401181102362
20
-0.477755905511811
11
0.1146254724409449
21
-0.4785705511811024
0
LINE
8
BLACK
6
CONTINUOUS
10
0.1146254724409449
20
-0.4785705511811024
11
0.113561062992126
21
-0.4790114566929134
0
LINE
8
BLACK
6
CONTINUOUS
10
0.113561062992126
20
-0.4790114566929134
11
0.112985
21
-0.4790681889763779
0
LINE
8
BLACK
6
CONTINUOUS
10
0.112985
20
-0.4790681889763779
11
0.0838582677165354
21
-0.4790681889763779
0
LINE
8
BLACK
6
CONTINUOUS
10
0.0838582677165354
20
-0.4790681889763779
11
0.0838582677165354
21
-0.4916020866141732
0
LINE
8
BLACK
6
CONTINUOUS
10
0.0838582677165354
20
-0.4916020866141732
11
0.0897716535433071
21
-0.4901237401574803
0
LINE
8
BLACK
6
CONTINUOUS
10
0.0897716535433071
20
-0.4901237401574803
11
0.0898714960629921
21
-0.490108937007874
0
LINE
8
BLACK
6
CONTINUOUS
10
0.0898714960629921
20
-0.490108937007874
11
0.0899117322834646
21
-0.4900923228346457
0
LINE
8
BLACK
6
CONTINUOUS
10
0.0899117322834646
20
-0.4900923228346457
11
0.0901287401574803
21
-0.4900709448818897
0
LINE
8
BLACK
6
CONTINUOUS
10
0.0901287401574803
20
-0.4900709448818897
11
0.0903442519685039
21
-0.4900390944881889
0
LINE
8
BLACK
6
CONTINUOUS
10
0.0903442519685039
20
-0.4900390944881889
11
0.0903872440944882
21
-0.4900454724409449
0
LINE
8
BLACK
6
CONTINUOUS
10
0.0903872440944882
20
-0.4900454724409449
11
0.0904877952755905
21
-0.4900355905511811
0
LINE
8
BLACK
6
CONTINUOUS
10
0.0904877952755905
20
-0.4900355905511811
11
0.0961120866141732
21
-0.4900355905511811
0
LINE
8
BLACK
6
CONTINUOUS
10
0.0961120866141732
20
-0.4900355905511811
11
0.0962125984251968
21
-0.4900454724409449
0
LINE
8
BLACK
6
CONTINUOUS
10
0.0962125984251968
20
-0.4900454724409449
11
0.0962556299212598
21
-0.4900390944881889
0
LINE
8
BLACK
6
CONTINUOUS
10
0.0962556299212598
20
-0.4900390944881889
11
0.0964711023622047
21
-0.4900709448818897
0
LINE
8
BLACK
6
CONTINUOUS
10
0.0964711023622047
20
-0.4900709448818897
11
0.0966881496062992
21
-0.4900923228346457
0
LINE
8
BLACK
6
CONTINUOUS
10
0.0966881496062992
20
-0.4900923228346457
11
0.0967283464566929
21
-0.490108937007874
0
LINE
8
BLACK
6
CONTINUOUS
10
0.0967283464566929
20
-0.490108937007874
11
0.0968282283464567
21
-0.4901237401574803
0
LINE
8
BLACK
6
CONTINUOUS
10
0.0968282283464567
20
-0.4901237401574803
11
0.1043272834645669
21
-0.4919985039370078
0
LINE
8
BLACK
6
CONTINUOUS
10
0.1043272834645669
20
-0.4919985039370078
11
0.1043697637795276
21
-0.4920136614173228
0
LINE
8
BLACK
6
CONTINUOUS
10
0.1043697637795276
20
-0.4920136614173228
11
0.1043910236220472
21
-0.4920151968503937
0
LINE
8
BLACK
6
CONTINUOUS
10
0.1043910236220472
20
-0.4920151968503937
11
0.1046304330708661
21
-0.492106811023622
0
LINE
8
BLACK
6
CONTINUOUS
10
0.1046304330708661
20
-0.492106811023622
11
0.1048724015748032
21
-0.4921932677165354
0
LINE
8
BLACK
6
CONTINUOUS
10
0.1048724015748032
20
-0.4921932677165354
11
0.1048895275590551
21
-0.4922059448818897
0
LINE
8
BLACK
6
CONTINUOUS
10
0.1048895275590551
20
-0.4922059448818897
11
0.1049316535433071
21
-0.4922220866141732
0
LINE
8
BLACK
6
CONTINUOUS
10
0.1049316535433071
20
-0.4922220866141732
11
0.1086811811023622
21
-0.4940968503937008
0
LINE
8
BLACK
6
CONTINUOUS
10
0.1086811811023622
20
-0.4940968503937008
11
0.1089290551181102
21
-0.494252874015748
0
LINE
8
BLACK
6
CONTINUOUS
10
0.1089290551181102
20
-0.494252874015748
11
0.1090011023622047
21
-0.494282716535433
0
LINE
8
BLACK
6
CONTINUOUS
10
0.1090011023622047
20
-0.494282716535433
11
0.109082125984252
21
-0.4943492125984252
0
LINE
8
BLACK
6
CONTINUOUS
10
0.109082125984252
20
-0.4943492125984252
11
0.109171062992126
21
-0.4944051968503937
0
LINE
8
BLACK
6
CONTINUOUS
10
0.109171062992126
20
-0.4944051968503937
11
0.1092222047244095
21
-0.4944641732283465
0
LINE
8
BLACK
6
CONTINUOUS
10
0.1092222047244095
20
-0.4944641732283465
11
0.1094485826771654
21
-0.4946499606299212
0
LINE
8
BLACK
6
CONTINUOUS
10
0.1094485826771654
20
-0.4946499606299212
11
0.1131981496062992
21
-0.4983994881889764
0
LINE
8
BLACK
6
CONTINUOUS
10
0.1131981496062992
20
-0.4983994881889764
11
0.1135653937007874
21
-0.4988469291338583
0
LINE
8
BLACK
6
CONTINUOUS
10
0.1135653937007874
20
-0.4988469291338583
11
0.1136059842519685
21
-0.4989449606299213
0
LINE
8
BLACK
6
CONTINUOUS
10
0.1136059842519685
20
-0.4989449606299213
11
0.1136754724409449
21
-0.4990250787401574
0
LINE
8
BLACK
6
CONTINUOUS
10
0.1136754724409449
20
-0.4990250787401574
11
0.1139114566929134
21
-0.4995536614173228
0
LINE
8
BLACK
6
CONTINUOUS
10
0.1139114566929134
20
-0.4995536614173228
11
0.1157862204724409
21
-0.5051779133858267
0
LINE
8
BLACK
6
CONTINUOUS
10
0.1157862204724409
20
-0.5051779133858267
11
0.1158511417322835
21
-0.5054635433070866
0
LINE
8
BLACK
6
CONTINUOUS
10
0.1158511417322835
20
-0.5054635433070866
11
0.1158810236220472
21
-0.5055356299212598
0
LINE
8
BLACK
6
CONTINUOUS
10
0.1158810236220472
20
-0.5055356299212598
11
0.1158912992125984
21
-0.5056400787401575
0
LINE
8
BLACK
6
CONTINUOUS
10
0.1158912992125984
20
-0.5056400787401575
11
0.1159145669291338
21
-0.5057423622047243
0
LINE
8
BLACK
6
CONTINUOUS
10
0.1159145669291338
20
-0.5057423622047243
11
0.1159090157480315
21
-0.5058200787401574
0
LINE
8
BLACK
6
CONTINUOUS
10
0.1159090157480315
20
-0.5058200787401574
11
0.1159377559055118
21
-0.5061116929133859
0
LINE
8
BLACK
6
CONTINUOUS
10
0.1159377559055118
20
-0.5061116929133859
11
0.1159377559055118
21
-0.5154855118110236
0
LINE
8
BLACK
6
CONTINUOUS
10
0.1159377559055118
20
-0.5154855118110236
11
0.1158810236220472
21
-0.5160615748031496
0
LINE
8
BLACK
6
CONTINUOUS
10
0.1158810236220472
20
-0.5160615748031496
11
0.1154401181102362
21
-0.5171259842519685
0
LINE
8
BLACK
6
CONTINUOUS
10
0.1154401181102362
20
-0.5171259842519685
11
0.1146254724409449
21
-0.5179406299212598
0
LINE
8
BLACK
6
CONTINUOUS
10
0.1146254724409449
20
-0.5179406299212598
11
0.113561062992126
21
-0.5183815354330709
0
LINE
8
BLACK
6
CONTINUOUS
10
0.113561062992126
20
-0.5183815354330709
11
0.112985
21
-0.5184382677165355
0
LINE
8
BLACK
6
CONTINUOUS
10
0.112985
20
-0.5184382677165355
11
0.0838582677165354
21
-0.5184382677165355
0
LINE
8
BLACK
6
CONTINUOUS
10
0.0838582677165354
20
-0.5184382677165355
11
0.0838582677165354
21
-0.53520531496063
0
LINE
8
BLACK
6
CONTINUOUS
10
0.0838582677165354
20
-0.53520531496063
11
0.1120512598425197
21
-0.5258076771653544
0
LINE
8
BLACK
6
CONTINUOUS
10
0.1120512598425197
20
-0.5258076771653544
11
0.1126156692913386
21
-0.5256793307086614
0
LINE
8
BLACK
6
CONTINUOUS
10
0.1126156692913386
20
-0.5256793307086614
11
0.1137648818897638
21
-0.5257610236220472
0
LINE
8
BLACK
6
CONTINUOUS
10
0.1137648818897638
20
-0.5257610236220472
11
0.1147953543307087
21
-0.5262762204724409
0
LINE
8
BLACK
6
CONTINUOUS
10
0.1147953543307087
20
-0.5262762204724409
11
0.1155502362204724
21
-0.5271466141732284
0
LINE
8
BLACK
6
CONTINUOUS
10
0.1155502362204724
20
-0.5271466141732284
11
0.1159145669291338
21
-0.5282396062992126
0
LINE
8
BLACK
6
CONTINUOUS
10
0.1159145669291338
20
-0.5282396062992126
11
0.115832874015748
21
-0.5293888188976378
0
LINE
8
BLACK
6
CONTINUOUS
10
0.115832874015748
20
-0.5293888188976378
11
0.1153176377952756
21
-0.5304192519685039
0
LINE
8
BLACK
6
CONTINUOUS
10
0.1153176377952756
20
-0.5304192519685039
11
0.1144472834645669
21
-0.5311741338582677
0
LINE
8
BLACK
6
CONTINUOUS
10
0.1144472834645669
20
-0.5311741338582677
11
0.1139187401574803
21
-0.5314101181102362
0
LINE
8
BLACK
6
CONTINUOUS
10
0.1139187401574803
20
-0.5314101181102362
11
0.1046891338582677
21
-0.5344866141732283
0
LINE
8
BLACK
6
CONTINUOUS
10
0.1046891338582677
20
-0.5344866141732283
11
0.1046891338582677
21
-0.5489778346456693
0
LINE
8
BLACK
6
CONTINUOUS
10
0.1046891338582677
20
-0.5489778346456693
11
0.1139187401574803
21
-0.5520543700787401
0
LINE
8
BLACK
6
CONTINUOUS
10
0.1139187401574803
20
-0.5520543700787401
11
0.1144472834645669
21
-0.5522903543307086
0
LINE
8
BLACK
6
CONTINUOUS
10
0.1144472834645669
20
-0.5522903543307086
11
0.1153176377952756
21
-0.5530452362204724
0
LINE
8
BLACK
6
CONTINUOUS
10
0.1153176377952756
20
-0.5530452362204724
11
0.115832874015748
21
-0.5540756692913386
0
LINE
8
BLACK
6
CONTINUOUS
10
0.115832874015748
20
-0.5540756692913386
11
0.1159145669291338
21
-0.5552248818897638
0
LINE
8
BLACK
6
CONTINUOUS
10
0.1159145669291338
20
-0.5552248818897638
11
0.1155502362204724
21
-0.5563178740157481
0
LINE
8
BLACK
6
CONTINUOUS
10
0.1155502362204724
20
-0.5563178740157481
11
0.1147953543307087
21
-0.5571882677165354
0
LINE
8
BLACK
6
CONTINUOUS
10
0.1147953543307087
20
-0.5571882677165354
11
0.1137648818897638
21
-0.5577034645669291
0
LINE
8
BLACK
6
CONTINUOUS
10
0.1137648818897638
20
-0.5577034645669291
11
0.1126156692913386
21
-0.557785157480315
0
LINE
8
BLACK
6
CONTINUOUS
10
0.1126156692913386
20
-0.557785157480315
11
0.1120512598425197
21
-0.5576568110236221
0
LINE
8
BLACK
6
CONTINUOUS
10
0.1120512598425197
20
-0.5576568110236221
11
0.0838582677165354
21
-0.5482591338582677
0
LINE
8
BLACK
6
CONTINUOUS
10
0.0838582677165354
20
-0.5482591338582677
11
0.0838582677165354
21
-0.5582677165354331
0
LINE
8
BLACK
6
CONTINUOUS
10
0.0838582677165354
20
-0.5582677165354331
11
0.0837084251968504
21
-0.5590210236220472
0
LINE
8
BLACK
6
CONTINUOUS
10
0.0837084251968504
20
-0.5590210236220472
11
0.0826430708661417
21
-0.5600863779527558
0
LINE
8
BLACK
6
CONTINUOUS
10
0.0826430708661417
20
-0.5600863779527558
11
0.0818897637795276
21
-0.5602362204724409
0
LINE
8
BLACK
6
CONTINUOUS
10
0.0818897637795276
20
-0.5602362204724409
11
-0.4181102362204724
21
-0.5602362204724409
0
LINE
8
BLACK
6
CONTINUOUS
10
-0.4181102362204724
20
-0.5602362204724409
11
-0.4188635433070866
21
-0.5600863779527558
0
LINE
8
BLACK
6
CONTINUOUS
10
-0.4188635433070866
20
-0.5600863779527558
11
-0.4199288976377953
21
-0.5590210236220472
0
LINE
8
BLACK
6
CONTINUOUS
10
-0.4199288976377953
20
-0.5590210236220472
11
-0.4200787401574803
21
-0.5582677165354331
0
LINE
8
BLACK
6
CONTINUOUS
10
-0.4200787401574803
20
-0.5582677165354331
11
-0.4200787401574803
21
-0.358267716535433
0
LINE
8
BLACK
6
CONTINUOUS
10
-0.4200787401574803
20
-0.358267716535433
11
-0.4199288976377953
21
-0.3575144094488189
0
LINE
8
BLACK
6
CONTINUOUS
10
-0.4199288976377953
20
-0.3575144094488189
11
-0.4188635433070866
21
-0.3564490551181102
0
LINE
8
BLACK
6
CONTINUOUS
10
-0.4188635433070866
20
-0.3564490551181102
11
-0.4181102362204724
21
-0.3562992125984252
0
LINE
8
BLACK
6
CONTINUOUS
10
-0.4181102362204724
20
-0.3562992125984252
11
0.0318897637795276
21
-0.3562992125984252
0
LINE
8
BLACK
6
CONTINUOUS
10
0.0318897637795276
20
-0.3562992125984252
11
0.0326430708661417
21
-0.3564490551181102
0
LINE
8
BLACK
6
CONTINUOUS
10
-0.4161417322834646
20
-0.3602362204724409
11
-0.4161417322834646
21
-0.5562992125984252
0
LINE
8
BLACK
6
CONTINUOUS
10
-0.4161417322834646
20
-0.5562992125984252
11
0.0799212598425197
21
-0.5562992125984252
0
LINE
8
BLACK
6
CONTINUOUS
10
0.0799212598425197
20
-0.5562992125984252
11
0.0799212598425197
21
-0.5469468110236221
0
LINE
8
BLACK
6
CONTINUOUS
10
0.0799212598425197
20
-0.5469468110236221
11
0.0726811811023622
21
-0.5445334645669291
0
LINE
8
BLACK
6
CONTINUOUS
10
0.0726811811023622
20
-0.5445334645669291
11
0.0721525984251968
21
-0.5442974803149606
0
LINE
8
BLACK
6
CONTINUOUS
10
0.0721525984251968
20
-0.5442974803149606
11
0.071993188976378
21
-0.5441592125984251
0
LINE
8
BLACK
6
CONTINUOUS
10
0.071993188976378
20
-0.5441592125984251
11
0.0718045669291339
21
-0.5440649212598425
0
LINE
8
BLACK
6
CONTINUOUS
10
0.0718045669291339
20
-0.5440649212598425
11
0.0715619291338583
21
-0.5437851968503937
0
LINE
8
BLACK
6
CONTINUOUS
10
0.0715619291338583
20
-0.5437851968503937
11
0.0712822440944882
21
-0.5435425984251968
0
LINE
8
BLACK
6
CONTINUOUS
10
0.0712822440944882
20
-0.5435425984251968
11
0.0711879133858268
21
-0.543353937007874
0
LINE
8
BLACK
6
CONTINUOUS
10
0.0711879133858268
20
-0.543353937007874
11
0.0710496850393701
21
-0.5431945669291338
0
LINE
8
BLACK
6
CONTINUOUS
10
0.0710496850393701
20
-0.5431945669291338
11
0.0709325590551181
21
-0.5428432283464567
0
LINE
8
BLACK
6
CONTINUOUS
10
0.0709325590551181
20
-0.5428432283464567
11
0.0707670472440945
21
-0.5425121653543307
0
LINE
8
BLACK
6
CONTINUOUS
10
0.0707670472440945
20
-0.5425121653543307
11
0.0707520866141732
21
-0.5423017322834646
0
LINE
8
BLACK
6
CONTINUOUS
10
0.0707520866141732
20
-0.5423017322834646
11
0.0706853543307087
21
-0.5421015354330708
0
LINE
8
BLACK
6
CONTINUOUS
10
0.0706853543307087
20
-0.5421015354330708
11
0.0707115748031496
21
-0.5417322440944882
0
LINE
8
BLACK
6
CONTINUOUS
10
0.0707115748031496
20
-0.5417322440944882
11
0.0706853543307087
21
-0.5413629527559055
0
LINE
8
BLACK
6
CONTINUOUS
10
0.0706853543307087
20
-0.5413629527559055
11
0.0707520866141732
21
-0.541162716535433
0
LINE
8
BLACK
6
CONTINUOUS
10
0.0707520866141732
20
-0.541162716535433
11
0.0707670472440945
21
-0.5409523228346457
0
LINE
8
BLACK
6
CONTINUOUS
10
0.0707670472440945
20
-0.5409523228346457
11
0.0709325590551181
21
-0.5406212204724409
0
LINE
8
BLACK
6
CONTINUOUS
10
0.0709325590551181
20
-0.5406212204724409
11
0.0710496850393701
21
-0.5402699212598425
0
LINE
8
BLACK
6
CONTINUOUS
10
0.0710496850393701
20
-0.5402699212598425
11
0.0711879133858268
21
-0.5401105118110237
0
LINE
8
BLACK
6
CONTINUOUS
10
0.0711879133858268
20
-0.5401105118110237
11
0.0712822440944882
21
-0.5399218897637795
0
LINE
8
BLACK
6
CONTINUOUS
10
0.0712822440944882
20
-0.5399218897637795
11
0.0715619291338583
21
-0.539679251968504
0
LINE
8
BLACK
6
CONTINUOUS
10
0.0715619291338583
20
-0.539679251968504
11
0.0718045669291339
21
-0.5393995669291338
0
LINE
8
BLACK
6
CONTINUOUS
10
0.0718045669291339
20
-0.5393995669291338
11
0.071993188976378
21
-0.5393052362204724
0
LINE
8
BLACK
6
CONTINUOUS
10
0.071993188976378
20
-0.5393052362204724
11
0.0721525984251968
21
-0.5391670078740157
0
LINE
8
BLACK
6
CONTINUOUS
10
0.0721525984251968
20
-0.5391670078740157
11
0.0726811811023622
21
-0.5389310236220473
0
LINE
8
BLACK
6
CONTINUOUS
10
0.0726811811023622
20
-0.5389310236220473
11
0.0799212598425197
21
-0.5365176377952756
0
LINE
8
BLACK
6
CONTINUOUS
10
0.0799212598425197
20
-0.5365176377952756
11
0.0799212598425197
21
-0.5184382677165355
0
LINE
8
BLACK
6
CONTINUOUS
10
0.0799212598425197
20
-0.5184382677165355
11
0.0736149212598425
21
-0.5184382677165355
0
LINE
8
BLACK
6
CONTINUOUS
10
0.0736149212598425
20
-0.5184382677165355
11
0.0730388582677165
21
-0.5183815354330709
0
LINE
8
BLACK
6
CONTINUOUS
10
0.0730388582677165
20
-0.5183815354330709
11
0.0719744488188976
21
-0.5179406299212598
0
LINE
8
BLACK
6
CONTINUOUS
10
0.0719744488188976
20
-0.5179406299212598
11
0.0711598031496063
21
-0.5171259842519685
0
LINE
8
BLACK
6
CONTINUOUS
10
0.0711598031496063
20
-0.5171259842519685
11
0.0707188976377953
21
-0.5160615748031496
0
LINE
8
BLACK
6
CONTINUOUS
10
0.0707188976377953
20
-0.5160615748031496
11
0.0706621653543307
21
-0.5154855118110236
0
LINE
8
BLACK
6
CONTINUOUS
10
0.0706621653543307
20
-0.5154855118110236
11
0.0706621653543307
21
-0.5061116929133859
0
LINE
8
BLACK
6
CONTINUOUS
10
0.0706621653543307
20
-0.5061116929133859
11
0.0706908661417323
21
-0.5058201181102362
0
LINE
8
BLACK
6
CONTINUOUS
10
0.0706908661417323
20
-0.5058201181102362
11
0.0706853543307087
21
-0.5057424015748031
0
LINE
8
BLACK
6
CONTINUOUS
10
0.0706853543307087
20
-0.5057424015748031
11
0.0707085826771654
21
-0.5056401181102362
0
LINE
8
BLACK
6
CONTINUOUS
10
0.0707085826771654
20
-0.5056401181102362
11
0.0707188976377953
21
-0.5055356299212598
0
LINE
8
BLACK
6
CONTINUOUS
10
0.0707188976377953
20
-0.5055356299212598
11
0.0707487401574803
21
-0.5054635039370079
0
LINE
8
BLACK
6
CONTINUOUS
10
0.0707487401574803
20
-0.5054635039370079
11
0.0708137007874016
21
-0.5051779527559055
0
LINE
8
BLACK
6
CONTINUOUS
10
0.0708137007874016
20
-0.5051779527559055
11
0.0726884645669291
21
-0.4995536614173228
0
LINE
8
BLACK
6
CONTINUOUS
10
0.0726884645669291
20
-0.4995536614173228
11
0.0729244488188976
21
-0.4990251181102362
0
LINE
8
BLACK
6
CONTINUOUS
10
0.0729244488188976
20
-0.4990251181102362
11
0.072993937007874
21
-0.4989449606299213
0
LINE
8
BLACK
6
CONTINUOUS
10
0.072993937007874
20
-0.4989449606299213
11
0.0730345669291339
21
-0.4988469291338583
0
LINE
8
BLACK
6
CONTINUOUS
10
0.0730345669291339
20
-0.4988469291338583
11
0.0734017716535433
21
-0.4983994881889764
0
LINE
8
BLACK
6
CONTINUOUS
10
0.0734017716535433
20
-0.4983994881889764
11
0.0771512992125984
21
-0.4946499606299212
0
LINE
8
BLACK
6
CONTINUOUS
10
0.0771512992125984
20
-0.4946499606299212
11
0.0773776771653543
21
-0.494464094488189
0
LINE
8
BLACK
6
CONTINUOUS
10
0.0773776771653543
20
-0.494464094488189
11
0.0774288188976378
21
-0.4944051968503937
0
LINE
8
BLACK
6
CONTINUOUS
10
0.0774288188976378
20
-0.4944051968503937
11
0.0775175590551181
21
-0.4943492913385827
0
LINE
8
BLACK
6
CONTINUOUS
10
0.0775175590551181
20
-0.4943492913385827
11
0.0775987401574803
21
-0.494282716535433
0
LINE
8
BLACK
6
CONTINUOUS
10
0.0775987401574803
20
-0.494282716535433
11
0.0776708661417323
21
-0.4942528346456693
0
LINE
8
BLACK
6
CONTINUOUS
10
0.0776708661417323
20
-0.4942528346456693
11
0.0779187007874016
21
-0.4940968503937008
0
LINE
8
BLACK
6
CONTINUOUS
10
0.0779187007874016
20
-0.4940968503937008
11
0.0799212598425197
21
-0.4930955511811024
0
LINE
8
BLACK
6
CONTINUOUS
10
0.0799212598425197
20
-0.4930955511811024
11
0.0799212598425197
21
-0.4790681889763779
0
LINE
8
BLACK
6
CONTINUOUS
10
0.0799212598425197
20
-0.4790681889763779
11
0.0736149212598425
21
-0.4790681889763779
0
LINE
8
BLACK
6
CONTINUOUS
10
0.0736149212598425
20
-0.4790681889763779
11
0.0730388582677165
21
-0.4790114566929134
0
LINE
8
BLACK
6
CONTINUOUS
10
0.0730388582677165
20
-0.4790114566929134
11
0.0719744488188976
21
-0.4785705511811024
0
LINE
8
BLACK
6
CONTINUOUS
10
0.0719744488188976
20
-0.4785705511811024
11
0.0711598031496063
21
-0.477755905511811
0
LINE
8
BLACK
6
CONTINUOUS
10
0.0711598031496063
20
-0.477755905511811
11
0.0707188976377953
21
-0.4766914960629921
0
LINE
8
BLACK
6
CONTINUOUS
10
0.0707188976377953
20
-0.4766914960629921
11
0.0706621653543307
21
-0.4761154330708661
0
LINE
8
BLACK
6
CONTINUOUS
10
0.0706621653543307
20
-0.4761154330708661
11
0.0706621653543307
21
-0.4611173228346457
0
LINE
8
BLACK
6
CONTINUOUS
10
0.0706621653543307
20
-0.4611173228346457
11
0.0707188976377953
21
-0.4605412598425197
0
LINE
8
BLACK
6
CONTINUOUS
10
0.0707188976377953
20
-0.4605412598425197
11
0.0707594881889764
21
-0.4604432283464567
0
LINE
8
BLACK
6
CONTINUOUS
10
0.0707594881889764
20
-0.4604432283464567
11
0.0707670078740157
21
-0.4603374409448819
0
LINE
8
BLACK
6
CONTINUOUS
10
0.0707670078740157
20
-0.4603374409448819
11
0.0709738976377953
21
-0.459796811023622
0
LINE
8
BLACK
6
CONTINUOUS
10
0.0709738976377953
20
-0.459796811023622
11
0.0728486614173228
21
-0.4560472834645669
0
LINE
8
BLACK
6
CONTINUOUS
10
0.0728486614173228
20
-0.4560472834645669
11
0.0730047244094488
21
-0.4557992519685039
0
LINE
8
BLACK
6
CONTINUOUS
10
0.0730047244094488
20
-0.4557992519685039
11
0.0730345669291339
21
-0.4557273228346457
0
LINE
8
BLACK
6
CONTINUOUS
10
0.0730345669291339
20
-0.4557273228346457
11
0.0731010236220472
21
-0.4556463385826772
0
LINE
8
BLACK
6
CONTINUOUS
10
0.0731010236220472
20
-0.4556463385826772
11
0.0731570078740157
21
-0.4555574015748031
0
LINE
8
BLACK
6
CONTINUOUS
10
0.0731570078740157
20
-0.4555574015748031
11
0.0732159842519685
21
-0.4555062204724409
0
LINE
8
BLACK
6
CONTINUOUS
10
0.0732159842519685
20
-0.4555062204724409
11
0.0734017716535433
21
-0.4552798818897638
0
LINE
8
BLACK
6
CONTINUOUS
10
0.0734017716535433
20
-0.4552798818897638
11
0.0752765354330709
21
-0.4534051181102362
0
LINE
8
BLACK
6
CONTINUOUS
10
0.0752765354330709
20
-0.4534051181102362
11
0.075502874015748
21
-0.4532193307086614
0
LINE
8
BLACK
6
CONTINUOUS
10
0.075502874015748
20
-0.4532193307086614
11
0.0755540551181102
21
-0.4531603543307087
0
LINE
8
BLACK
6
CONTINUOUS
10
0.0755540551181102
20
-0.4531603543307087
11
0.0756429921259843
21
-0.4531043700787402
0
LINE
8
BLACK
6
CONTINUOUS
10
0.0756429921259843
20
-0.4531043700787402
11
0.0757239763779528
21
-0.4530379133858268
0
LINE
8
BLACK
6
CONTINUOUS
10
0.0757239763779528
20
-0.4530379133858268
11
0.075795905511811
21
-0.4530080708661417
0
LINE
8
BLACK
6
CONTINUOUS
10
0.075795905511811
20
-0.4530080708661417
11
0.076043937007874
21
-0.4528520078740157
0
LINE
8
BLACK
6
CONTINUOUS
10
0.076043937007874
20
-0.4528520078740157
11
0.0797934645669291
21
-0.4509772440944882
0
LINE
8
BLACK
6
CONTINUOUS
10
0.0797934645669291
20
-0.4509772440944882
11
0.0799212598425197
21
-0.4509283070866142
0
LINE
8
BLACK
6
CONTINUOUS
10
0.0799212598425197
20
-0.4509283070866142
11
0.0799212598425197
21
-0.4090830708661417
0
LINE
8
BLACK
6
CONTINUOUS
10
0.0799212598425197
20
-0.4090830708661417
11
0.0310744094488189
21
-0.3602362204724409
0
LINE
8
BLACK
6
CONTINUOUS
10
0.0310744094488189
20
-0.3602362204724409
11
-0.4161417322834646
21
-0.3602362204724409
0
LINE
8
BLACK
6
CONTINUOUS
10
0.0838582677165354
20
-0.5414302362204725
11
0.0838582677165354
21
-0.5420342125984252
0
LINE
8
BLACK
6
CONTINUOUS
10
0.0838582677165354
20
-0.5420342125984252
11
0.0987836220472441
21
-0.5470093307086614
0
LINE
8
BLACK
6
CONTINUOUS
10
0.0987836220472441
20
-0.5470093307086614
11
0.0987836220472441
21
-0.5364551181102362
0
LINE
8
BLACK
6
CONTINUOUS
10
0.0987836220472441
20
-0.5364551181102362
11
0.0838582677165354
21
-0.5414302362204725
0
LINE
8
BLACK
6
CONTINUOUS
10
0.0840192913385827
20
-0.4976490944881889
11
0.0838582677165354
21
-0.4977296062992126
0
LINE
8
BLACK
6
CONTINUOUS
10
0.0838582677165354
20
-0.4977296062992126
11
0.0838582677165354
21
-0.5125327559055118
0
LINE
8
BLACK
6
CONTINUOUS
10
0.0838582677165354
20
-0.5125327559055118
11
0.1100322440944882
21
-0.5125327559055118
0
LINE
8
BLACK
6
CONTINUOUS
10
0.1100322440944882
20
-0.5125327559055118
11
0.1100322440944882
21
-0.5065908267716536
0
LINE
8
BLACK
6
CONTINUOUS
10
0.1100322440944882
20
-0.5065908267716536
11
0.1085294488188976
21
-0.5020824409448819
0
LINE
8
BLACK
6
CONTINUOUS
10
0.1085294488188976
20
-0.5020824409448819
11
0.1056115748031496
21
-0.4991646062992126
0
LINE
8
BLACK
6
CONTINUOUS
10
0.1056115748031496
20
-0.4991646062992126
11
0.1025805905511811
21
-0.4976490944881889
0
LINE
8
BLACK
6
CONTINUOUS
10
0.1025805905511811
20
-0.4976490944881889
11
0.0957485433070866
21
-0.4959411023622047
0
LINE
8
BLACK
6
CONTINUOUS
10
0.0957485433070866
20
-0.4959411023622047
11
0.0908513385826772
21
-0.4959411023622047
0
LINE
8
BLACK
6
CONTINUOUS
10
0.0908513385826772
20
-0.4959411023622047
11
0.0840192913385827
21
-0.4976490944881889
0
LINE
8
BLACK
6
CONTINUOUS
10
0.0780704724409449
20
-0.5020824015748031
11
0.0765676771653543
21
-0.5065908267716536
0
LINE
8
BLACK
6
CONTINUOUS
10
0.0765676771653543
20
-0.5065908267716536
11
0.0765676771653543
21
-0.5125327559055118
0
LINE
8
BLACK
6
CONTINUOUS
10
0.0765676771653543
20
-0.5125327559055118
11
0.0799212598425197
21
-0.5125327559055118
0
LINE
8
BLACK
6
CONTINUOUS
10
0.0799212598425197
20
-0.5125327559055118
11
0.0799212598425197
21
-0.5002316141732284
0
LINE
8
BLACK
6
CONTINUOUS
10
0.0799212598425197
20
-0.5002316141732284
11
0.0780704724409449
21
-0.5020824015748031
0
LINE
8
BLACK
6
CONTINUOUS
10
0.0838582677165354
20
-0.4731626771653543
11
0.0912845669291339
21
-0.4731626771653543
0
LINE
8
BLACK
6
CONTINUOUS
10
0.0912845669291339
20
-0.4731626771653543
11
0.0912845669291339
21
-0.4618143700787402
0
LINE
8
BLACK
6
CONTINUOUS
10
0.0912845669291339
20
-0.4618143700787402
11
0.0899358267716535
21
-0.4591168897637795
0
LINE
8
BLACK
6
CONTINUOUS
10
0.0899358267716535
20
-0.4591168897637795
11
0.0887387007874016
21
-0.4579197637795275
0
LINE
8
BLACK
6
CONTINUOUS
10
0.0887387007874016
20
-0.4579197637795275
11
0.0860412204724409
21
-0.4565710236220472
0
LINE
8
BLACK
6
CONTINUOUS
10
0.0860412204724409
20
-0.4565710236220472
11
0.0838582677165354
21
-0.4565710236220472
0
LINE
8
BLACK
6
CONTINUOUS
10
0.0838582677165354
20
-0.4565710236220472
11
0.0838582677165354
21
-0.4731626771653543
0
LINE
8
BLACK
6
CONTINUOUS
10
0.0791135433070866
20
-0.4579197637795275
11
0.0779164173228346
21
-0.4591168897637795
0
LINE
8
BLACK
6
CONTINUOUS
10
0.0779164173228346
20
-0.4591168897637795
11
0.0765676771653543
21
-0.4618143700787402
0
LINE
8
BLACK
6
CONTINUOUS
10
0.0765676771653543
20
-0.4618143700787402
11
0.0765676771653543
21
-0.4731626771653543
0
LINE
8
BLACK
6
CONTINUOUS
10
0.0765676771653543
20
-0.4731626771653543
11
0.0799212598425197
21
-0.4731626771653543
0
LINE
8
BLACK
6
CONTINUOUS
10
0.0799212598425197
20
-0.4731626771653543
11
0.0799212598425197
21
-0.457515905511811
0
LINE
8
BLACK
6
CONTINUOUS
10
0.0799212598425197
20
-0.457515905511811
11
0.0791135433070866
21
-0.4579197637795275
0
LINE
8
BLACK
6
CONTINUOUS
10
0.4405520078740157
20
-0.4488322047244094
11
0.4411370078740157
21
-0.450542874015748
0
LINE
8
BLACK
6
CONTINUOUS
10
0.4411370078740157
20
-0.450542874015748
11
0.4403410236220472
21
-0.4521662204724409
0
LINE
8
BLACK
6
CONTINUOUS
10
0.4403410236220472
20
-0.4521662204724409
11
0.4395438582677165
21
-0.4526288188976378
0
LINE
8
BLACK
6
CONTINUOUS
10
0.4395438582677165
20
-0.4526288188976378
11
0.4211511811023622
21
-0.4589185039370078
0
LINE
8
BLACK
6
CONTINUOUS
10
0.4211511811023622
20
-0.4589185039370078
11
0.4382029921259842
21
-0.4759702755905512
0
LINE
8
BLACK
6
CONTINUOUS
10
0.4382029921259842
20
-0.4759702755905512
11
0.4386296850393701
21
-0.4766088976377953
0
LINE
8
BLACK
6
CONTINUOUS
10
0.4386296850393701
20
-0.4766088976377953
11
0.4387795275590551
21
-0.4773622047244094
0
LINE
8
BLACK
6
CONTINUOUS
10
0.4387795275590551
20
-0.4773622047244094
11
0.4387795275590551
21
-0.5518342125984251
0
LINE
8
BLACK
6
CONTINUOUS
10
0.4387795275590551
20
-0.5518342125984251
11
0.4395438582677165
21
-0.5520955905511811
0
LINE
8
BLACK
6
CONTINUOUS
10
0.4395438582677165
20
-0.5520955905511811
11
0.4403410236220472
21
-0.552558188976378
0
LINE
8
BLACK
6
CONTINUOUS
10
0.4403410236220472
20
-0.552558188976378
11
0.4411370078740157
21
-0.5541815354330708
0
LINE
8
BLACK
6
CONTINUOUS
10
0.4411370078740157
20
-0.5541815354330708
11
0.4405520078740157
21
-0.5558922047244095
0
LINE
8
BLACK
6
CONTINUOUS
10
0.4405520078740157
20
-0.5558922047244095
11
0.4389287007874015
21
-0.556688188976378
0
LINE
8
BLACK
6
CONTINUOUS
10
0.4389287007874015
20
-0.556688188976378
11
0.4380151574803149
21
-0.5565658267716536
0
LINE
8
BLACK
6
CONTINUOUS
10
0.4380151574803149
20
-0.5565658267716536
11
0.4314791338582677
21
-0.5543307086614173
0
LINE
8
BLACK
6
CONTINUOUS
10
0.4314791338582677
20
-0.5543307086614173
11
0.142142874015748
21
-0.5543307086614173
0
LINE
8
BLACK
6
CONTINUOUS
10
0.142142874015748
20
-0.5543307086614173
11
0.1356068503937008
21
-0.5565658267716536
0
LINE
8
BLACK
6
CONTINUOUS
10
0.1356068503937008
20
-0.5565658267716536
11
0.1346933464566929
21
-0.556688188976378
0
LINE
8
BLACK
6
CONTINUOUS
10
0.1346933464566929
20
-0.556688188976378
11
0.1330700393700787
21
-0.5558922047244095
0
LINE
8
BLACK
6
CONTINUOUS
10
0.1330700393700787
20
-0.5558922047244095
11
0.1324850393700787
21
-0.5541815354330708
0
LINE
8
BLACK
6
CONTINUOUS
10
0.1324850393700787
20
-0.5541815354330708
11
0.1332810236220472
21
-0.5525582283464566
0
LINE
8
BLACK
6
CONTINUOUS
10
0.1332810236220472
20
-0.5525582283464566
11
0.1340781889763779
21
-0.5520955905511811
0
LINE
8
BLACK
6
CONTINUOUS
10
0.1340781889763779
20
-0.5520955905511811
11
0.1348425196850394
21
-0.5518342125984251
0
LINE
8
BLACK
6
CONTINUOUS
10
0.1348425196850394
20
-0.5518342125984251
11
0.1348425196850394
21
-0.452890157480315
0
LINE
8
BLACK
6
CONTINUOUS
10
0.1348425196850394
20
-0.452890157480315
11
0.1340781889763779
21
-0.4526288188976378
0
LINE
8
BLACK
6
CONTINUOUS
10
0.1340781889763779
20
-0.4526288188976378
11
0.1332810236220472
21
-0.4521661811023622
0
LINE
8
BLACK
6
CONTINUOUS
10
0.1332810236220472
20
-0.4521661811023622
11
0.1324850393700787
21
-0.450542874015748
0
LINE
8
BLACK
6
CONTINUOUS
10
0.1324850393700787
20
-0.450542874015748
11
0.1330700393700787
21
-0.4488322047244094
0
LINE
8
BLACK
6
CONTINUOUS
10
0.1330700393700787
20
-0.4488322047244094
11
0.1346933464566929
21
-0.448036220472441
0
LINE
8
BLACK
6
CONTINUOUS
10
0.1346933464566929
20
-0.448036220472441
11
0.1356068503937008
21
-0.4481585826771654
0
LINE
8
BLACK
6
CONTINUOUS
10
0.1356068503937008
20
-0.4481585826771654
11
0.142142874015748
21
-0.4503937007874015
0
LINE
8
BLACK
6
CONTINUOUS
10
0.142142874015748
20
-0.4503937007874015
11
0.4118110236220472
21
-0.4503937007874015
0
LINE
8
BLACK
6
CONTINUOUS
10
0.4118110236220472
20
-0.4503937007874015
11
0.4125643307086614
21
-0.4505435433070866
0
LINE
8
BLACK
6
CONTINUOUS
10
0.4125643307086614
20
-0.4505435433070866
11
0.4132029527559055
21
-0.4509702755905512
0
LINE
8
BLACK
6
CONTINUOUS
10
0.4132029527559055
20
-0.4509702755905512
11
0.4174305511811023
21
-0.455197874015748
0
LINE
8
BLACK
6
CONTINUOUS
10
0.4174305511811023
20
-0.455197874015748
11
0.4380151574803149
21
-0.4481585826771654
0
LINE
8
BLACK
6
CONTINUOUS
10
0.4380151574803149
20
-0.4481585826771654
11
0.4389287007874015
21
-0.448036220472441
0
LINE
8
BLACK
6
CONTINUOUS
10
0.4389287007874015
20
-0.448036220472441
11
0.4405520078740157
21
-0.4488322047244094
0
LINE
8
BLACK
6
CONTINUOUS
10
0.1387795275590551
20
-0.4543307086614173
11
0.1387795275590551
21
-0.5503937007874016
0
LINE
8
BLACK
6
CONTINUOUS
10
0.1387795275590551
20
-0.5503937007874016
11
0.1390549212598425
21
-0.5503937007874016
0
LINE
8
BLACK
6
CONTINUOUS
10
0.1390549212598425
20
-0.5503937007874016
11
0.2497126377952756
21
-0.5125521653543307
0
LINE
8
BLACK
6
CONTINUOUS
10
0.2497126377952756
20
-0.5125521653543307
11
0.251049842519685
21
-0.5085407086614173
0
LINE
8
BLACK
6
CONTINUOUS
10
0.251049842519685
20
-0.5085407086614173
11
0.251049842519685
21
-0.4926294881889764
0
LINE
8
BLACK
6
CONTINUOUS
10
0.251049842519685
20
-0.4926294881889764
11
0.1390549212598425
21
-0.4543307086614173
0
LINE
8
BLACK
6
CONTINUOUS
10
0.1390549212598425
20
-0.4543307086614173
11
0.1387795275590551
21
-0.4543307086614173
0
LINE
8
BLACK
6
CONTINUOUS
10
0.275703031496063
20
-0.508657283464567
11
0.275703031496063
21
-0.5202684645669291
0
LINE
8
BLACK
6
CONTINUOUS
10
0.275703031496063
20
-0.5202684645669291
11
0.2756462992125984
21
-0.5208445275590551
0
LINE
8
BLACK
6
CONTINUOUS
10
0.2756462992125984
20
-0.5208445275590551
11
0.2752053937007874
21
-0.521908937007874
0
LINE
8
BLACK
6
CONTINUOUS
10
0.2752053937007874
20
-0.521908937007874
11
0.274390748031496
21
-0.5227235826771653
0
LINE
8
BLACK
6
CONTINUOUS
10
0.274390748031496
20
-0.5227235826771653
11
0.2733263385826772
21
-0.5231644881889763
0
LINE
8
BLACK
6
CONTINUOUS
10
0.2733263385826772
20
-0.5231644881889763
11
0.2721742125984252
21
-0.5231644881889763
0
LINE
8
BLACK
6
CONTINUOUS
10
0.2721742125984252
20
-0.5231644881889763
11
0.2711098031496063
21
-0.5227235826771653
0
LINE
8
BLACK
6
CONTINUOUS
10
0.2711098031496063
20
-0.5227235826771653
11
0.270295157480315
21
-0.521908937007874
0
LINE
8
BLACK
6
CONTINUOUS
10
0.270295157480315
20
-0.521908937007874
11
0.2698542519685039
21
-0.5208445275590551
0
LINE
8
BLACK
6
CONTINUOUS
10
0.2698542519685039
20
-0.5208445275590551
11
0.2697975196850393
21
-0.5202684645669291
0
LINE
8
BLACK
6
CONTINUOUS
10
0.2697975196850393
20
-0.5202684645669291
11
0.2697975196850393
21
-0.5106767716535433
0
LINE
8
BLACK
6
CONTINUOUS
10
0.2697975196850393
20
-0.5106767716535433
11
0.2548323622047244
21
-0.5157943700787402
0
LINE
8
BLACK
6
CONTINUOUS
10
0.2548323622047244
20
-0.5157943700787402
11
0.2546930708661417
21
-0.5161064566929133
0
LINE
8
BLACK
6
CONTINUOUS
10
0.2546930708661417
20
-0.5161064566929133
11
0.2546235433070866
21
-0.5161865748031496
0
LINE
8
BLACK
6
CONTINUOUS
10
0.2546235433070866
20
-0.5161865748031496
11
0.2545829921259842
21
-0.5162845669291338
0
LINE
8
BLACK
6
CONTINUOUS
10
0.2545829921259842
20
-0.5162845669291338
11
0.2542157874015748
21
-0.5167320078740157
0
LINE
8
BLACK
6
CONTINUOUS
10
0.2542157874015748
20
-0.5167320078740157
11
0.2504662204724409
21
-0.5204816141732284
0
LINE
8
BLACK
6
CONTINUOUS
10
0.2504662204724409
20
-0.5204816141732284
11
0.2500187795275591
21
-0.5208488188976378
0
LINE
8
BLACK
6
CONTINUOUS
10
0.2500187795275591
20
-0.5208488188976378
11
0.2499207086614173
21
-0.5208894094488189
0
LINE
8
BLACK
6
CONTINUOUS
10
0.2499207086614173
20
-0.5208894094488189
11
0.2498405905511811
21
-0.520958937007874
0
LINE
8
BLACK
6
CONTINUOUS
10
0.2498405905511811
20
-0.520958937007874
11
0.2493120472440945
21
-0.5211949212598425
0
LINE
8
BLACK
6
CONTINUOUS
10
0.2493120472440945
20
-0.5211949212598425
11
0.2436877559055118
21
-0.52306968503937
0
LINE
8
BLACK
6
CONTINUOUS
10
0.2436877559055118
20
-0.52306968503937
11
0.2434021653543307
21
-0.5231346062992126
0
LINE
8
BLACK
6
CONTINUOUS
10
0.2434021653543307
20
-0.5231346062992126
11
0.2433300787401575
21
-0.5231644881889763
0
LINE
8
BLACK
6
CONTINUOUS
10
0.2433300787401575
20
-0.5231644881889763
11
0.2432255511811024
21
-0.5231747637795275
0
LINE
8
BLACK
6
CONTINUOUS
10
0.2432255511811024
20
-0.5231747637795275
11
0.2431233070866142
21
-0.523198031496063
0
LINE
8
BLACK
6
CONTINUOUS
10
0.2431233070866142
20
-0.523198031496063
11
0.2430455511811024
21
-0.5231924803149606
0
LINE
8
BLACK
6
CONTINUOUS
10
0.2430455511811024
20
-0.5231924803149606
11
0.2427540157480315
21
-0.5232212204724409
0
LINE
8
BLACK
6
CONTINUOUS
10
0.2427540157480315
20
-0.5232212204724409
11
0.2390044881889764
21
-0.5232212204724409
0
LINE
8
BLACK
6
CONTINUOUS
10
0.2390044881889764
20
-0.5232212204724409
11
0.2384284251968504
21
-0.5231644881889763
0
LINE
8
BLACK
6
CONTINUOUS
10
0.2384284251968504
20
-0.5231644881889763
11
0.2373640157480315
21
-0.5227235826771653
0
LINE
8
BLACK
6
CONTINUOUS
10
0.2373640157480315
20
-0.5227235826771653
11
0.236651968503937
21
-0.5220115354330709
0
LINE
8
BLACK
6
CONTINUOUS
10
0.236651968503937
20
-0.5220115354330709
11
0.1536556299212598
21
-0.5503937007874016
0
LINE
8
BLACK
6
CONTINUOUS
10
0.1536556299212598
20
-0.5503937007874016
11
0.4199663779527559
21
-0.5503937007874016
0
LINE
8
BLACK
6
CONTINUOUS
10
0.4199663779527559
20
-0.5503937007874016
11
0.3353805118110236
21
-0.5214679527559055
0
LINE
8
BLACK
6
CONTINUOUS
10
0.3353805118110236
20
-0.5214679527559055
11
0.335197874015748
21
-0.521908937007874
0
LINE
8
BLACK
6
CONTINUOUS
10
0.335197874015748
20
-0.521908937007874
11
0.3343832283464567
21
-0.5227235826771653
0
LINE
8
BLACK
6
CONTINUOUS
10
0.3343832283464567
20
-0.5227235826771653
11
0.3333188188976378
21
-0.5231644881889763
0
LINE
8
BLACK
6
CONTINUOUS
10
0.3333188188976378
20
-0.5231644881889763
11
0.3327427559055118
21
-0.5232212204724409
0
LINE
8
BLACK
6
CONTINUOUS
10
0.3327427559055118
20
-0.5232212204724409
11
0.3102455905511811
21
-0.5232212204724409
0
LINE
8
BLACK
6
CONTINUOUS
10
0.3102455905511811
20
-0.5232212204724409
11
0.3096695275590551
21
-0.5231644881889763
0
LINE
8
BLACK
6
CONTINUOUS
10
0.3096695275590551
20
-0.5231644881889763
11
0.3086051181102362
21
-0.5227235826771653
0
LINE
8
BLACK
6
CONTINUOUS
10
0.3086051181102362
20
-0.5227235826771653
11
0.3077904724409449
21
-0.521908937007874
0
LINE
8
BLACK
6
CONTINUOUS
10
0.3077904724409449
20
-0.521908937007874
11
0.3073495669291338
21
-0.5208445275590551
0
LINE
8
BLACK
6
CONTINUOUS
10
0.3073495669291338
20
-0.5208445275590551
11
0.3073495669291338
21
-0.5196924015748031
0
LINE
8
BLACK
6
CONTINUOUS
10
0.3073495669291338
20
-0.5196924015748031
11
0.3077904724409449
21
-0.5186279921259842
0
LINE
8
BLACK
6
CONTINUOUS
10
0.3077904724409449
20
-0.5186279921259842
11
0.3086051181102362
21
-0.5178133464566929
0
LINE
8
BLACK
6
CONTINUOUS
10
0.3086051181102362
20
-0.5178133464566929
11
0.3096695275590551
21
-0.5173724409448819
0
LINE
8
BLACK
6
CONTINUOUS
10
0.3096695275590551
20
-0.5173724409448819
11
0.3102455905511811
21
-0.5173157086614173
0
LINE
8
BLACK
6
CONTINUOUS
10
0.3102455905511811
20
-0.5173157086614173
11
0.3185414173228346
21
-0.5173157086614173
0
LINE
8
BLACK
6
CONTINUOUS
10
0.3185414173228346
20
-0.5173157086614173
11
0.3185414173228346
21
-0.5157094881889763
0
LINE
8
BLACK
6
CONTINUOUS
10
0.3185414173228346
20
-0.5157094881889763
11
0.2868109842519685
21
-0.5048587007874016
0
LINE
8
BLACK
6
CONTINUOUS
10
0.2868109842519685
20
-0.5048587007874016
11
0.275703031496063
21
-0.508657283464567
0
LINE
8
BLACK
6
CONTINUOUS
10
0.3244469291338583
20
-0.4919883858267716
11
0.3244469291338583
21
-0.5127359842519685
0
LINE
8
BLACK
6
CONTINUOUS
10
0.3244469291338583
20
-0.5127359842519685
11
0.434567125984252
21
-0.5503937007874016
0
LINE
8
BLACK
6
CONTINUOUS
10
0.434567125984252
20
-0.5503937007874016
11
0.4348425196850393
21
-0.5503937007874016
0
LINE
8
BLACK
6
CONTINUOUS
10
0.4348425196850393
20
-0.5503937007874016
11
0.4348425196850393
21
-0.4781775590551181
0
LINE
8
BLACK
6
CONTINUOUS
10
0.4348425196850393
20
-0.4781775590551181
11
0.4170022834645669
21
-0.4603373228346457
0
LINE
8
BLACK
6
CONTINUOUS
10
0.4170022834645669
20
-0.4603373228346457
11
0.3244469291338583
21
-0.4919883858267716
0
LINE
8
BLACK
6
CONTINUOUS
10
0.2941113779527559
20
-0.5023622047244094
11
0.3185414173228346
21
-0.5107164960629921
0
LINE
8
BLACK
6
CONTINUOUS
10
0.3185414173228346
20
-0.5107164960629921
11
0.3185414173228346
21
-0.494007874015748
0
LINE
8
BLACK
6
CONTINUOUS
10
0.3185414173228346
20
-0.494007874015748
11
0.2941113779527559
21
-0.5023622047244094
0
LINE
8
BLACK
6
CONTINUOUS
10
0.2569553543307087
20
-0.509019842519685
11
0.2569266141732283
21
-0.5093114173228346
0
LINE
8
BLACK
6
CONTINUOUS
10
0.2569266141732283
20
-0.5093114173228346
11
0.2569321653543307
21
-0.5093891732283464
0
LINE
8
BLACK
6
CONTINUOUS
10
0.2569321653543307
20
-0.5093891732283464
11
0.2569088976377953
21
-0.5094914173228346
0
LINE
8
BLACK
6
CONTINUOUS
10
0.2569088976377953
20
-0.5094914173228346
11
0.2568986220472441
21
-0.509595905511811
0
LINE
8
BLACK
6
CONTINUOUS
10
0.2568986220472441
20
-0.509595905511811
11
0.2568687401574803
21
-0.5096679527559055
0
LINE
8
BLACK
6
CONTINUOUS
10
0.2568687401574803
20
-0.5096679527559055
11
0.2568038188976378
21
-0.509953622047244
0
LINE
8
BLACK
6
CONTINUOUS
10
0.2568038188976378
20
-0.509953622047244
11
0.2567384645669291
21
-0.5101495669291338
0
LINE
8
BLACK
6
CONTINUOUS
10
0.2567384645669291
20
-0.5101495669291338
11
0.2697975196850393
21
-0.5056837795275591
0
LINE
8
BLACK
6
CONTINUOUS
10
0.2697975196850393
20
-0.5056837795275591
11
0.2697975196850393
21
-0.4990405905511811
0
LINE
8
BLACK
6
CONTINUOUS
10
0.2697975196850393
20
-0.4990405905511811
11
0.2569553543307087
21
-0.4946489763779527
0
LINE
8
BLACK
6
CONTINUOUS
10
0.2569553543307087
20
-0.4946489763779527
11
0.2569553543307087
21
-0.509019842519685
0
LINE
8
BLACK
6
CONTINUOUS
10
0.275703031496063
20
-0.4960670866141732
11
0.2830162992125984
21
-0.498568031496063
0
LINE
8
BLACK
6
CONTINUOUS
10
0.2830162992125984
20
-0.498568031496063
11
0.2870513385826772
21
-0.498568031496063
0
LINE
8
BLACK
6
CONTINUOUS
10
0.2870513385826772
20
-0.498568031496063
11
0.2897488188976378
21
-0.4972192913385827
0
LINE
8
BLACK
6
CONTINUOUS
10
0.2897488188976378
20
-0.4972192913385827
11
0.2909459448818897
21
-0.4960221653543307
0
LINE
8
BLACK
6
CONTINUOUS
10
0.2909459448818897
20
-0.4960221653543307
11
0.2922946850393701
21
-0.49332468503937
0
LINE
8
BLACK
6
CONTINUOUS
10
0.2922946850393701
20
-0.49332468503937
11
0.2922946850393701
21
-0.4890944881889764
0
LINE
8
BLACK
6
CONTINUOUS
10
0.2922946850393701
20
-0.4890944881889764
11
0.2909459448818897
21
-0.4863970078740157
0
LINE
8
BLACK
6
CONTINUOUS
10
0.2909459448818897
20
-0.4863970078740157
11
0.2897488188976378
21
-0.4851998818897638
0
LINE
8
BLACK
6
CONTINUOUS
10
0.2897488188976378
20
-0.4851998818897638
11
0.2870513385826772
21
-0.4838511417322834
0
LINE
8
BLACK
6
CONTINUOUS
10
0.2870513385826772
20
-0.4838511417322834
11
0.275703031496063
21
-0.4838511417322834
0
LINE
8
BLACK
6
CONTINUOUS
10
0.275703031496063
20
-0.4838511417322834
11
0.275703031496063
21
-0.4960670866141732
0
LINE
8
BLACK
6
CONTINUOUS
10
0.1536556299212598
20
-0.4543307086614173
11
0.251049842519685
21
-0.4876364960629921
0
LINE
8
BLACK
6
CONTINUOUS
10
0.251049842519685
20
-0.4876364960629921
11
0.251049842519685
21
-0.4808983858267716
0
LINE
8
BLACK
6
CONTINUOUS
10
0.251049842519685
20
-0.4808983858267716
11
0.2511065748031496
21
-0.4803223228346457
0
LINE
8
BLACK
6
CONTINUOUS
10
0.2511065748031496
20
-0.4803223228346457
11
0.2515474803149606
21
-0.4792579133858267
0
LINE
8
BLACK
6
CONTINUOUS
10
0.2515474803149606
20
-0.4792579133858267
11
0.252362125984252
21
-0.4784432677165354
0
LINE
8
BLACK
6
CONTINUOUS
10
0.252362125984252
20
-0.4784432677165354
11
0.2534265354330709
21
-0.4780023622047244
0
LINE
8
BLACK
6
CONTINUOUS
10
0.2534265354330709
20
-0.4780023622047244
11
0.2545786614173228
21
-0.4780023622047244
0
LINE
8
BLACK
6
CONTINUOUS
10
0.2545786614173228
20
-0.4780023622047244
11
0.2556430708661417
21
-0.4784432677165354
0
LINE
8
BLACK
6
CONTINUOUS
10
0.2556430708661417
20
-0.4784432677165354
11
0.2564577165354331
21
-0.4792579133858267
0
LINE
8
BLACK
6
CONTINUOUS
10
0.2564577165354331
20
-0.4792579133858267
11
0.2568986220472441
21
-0.4803223228346457
0
LINE
8
BLACK
6
CONTINUOUS
10
0.2568986220472441
20
-0.4803223228346457
11
0.2569553543307087
21
-0.4808983858267716
0
LINE
8
BLACK
6
CONTINUOUS
10
0.2569553543307087
20
-0.4808983858267716
11
0.2569553543307087
21
-0.4896559842519685
0
LINE
8
BLACK
6
CONTINUOUS
10
0.2569553543307087
20
-0.4896559842519685
11
0.2697975196850393
21
-0.4940475984251969
0
LINE
8
BLACK
6
CONTINUOUS
10
0.2697975196850393
20
-0.4940475984251969
11
0.2697975196850393
21
-0.4808983858267716
0
LINE
8
BLACK
6
CONTINUOUS
10
0.2697975196850393
20
-0.4808983858267716
11
0.2698542519685039
21
-0.4803223228346457
0
LINE
8
BLACK
6
CONTINUOUS
10
0.2698542519685039
20
-0.4803223228346457
11
0.270295157480315
21
-0.4792579133858267
0
LINE
8
BLACK
6
CONTINUOUS
10
0.270295157480315
20
-0.4792579133858267
11
0.2711098031496063
21
-0.4784432677165354
0
LINE
8
BLACK
6
CONTINUOUS
10
0.2711098031496063
20
-0.4784432677165354
11
0.2721742125984252
21
-0.4780023622047244
0
LINE
8
BLACK
6
CONTINUOUS
10
0.2721742125984252
20
-0.4780023622047244
11
0.2727502755905512
21
-0.4779456299212598
0
LINE
8
BLACK
6
CONTINUOUS
10
0.2727502755905512
20
-0.4779456299212598
11
0.2877483858267716
21
-0.4779456299212598
0
LINE
8
BLACK
6
CONTINUOUS
10
0.2877483858267716
20
-0.4779456299212598
11
0.2883244488188976
21
-0.4780023622047244
0
LINE
8
BLACK
6
CONTINUOUS
10
0.2883244488188976
20
-0.4780023622047244
11
0.2884224409448819
21
-0.4780429527559055
0
LINE
8
BLACK
6
CONTINUOUS
10
0.2884224409448819
20
-0.4780429527559055
11
0.2885282677165354
21
-0.4780504724409449
0
LINE
8
BLACK
6
CONTINUOUS
10
0.2885282677165354
20
-0.4780504724409449
11
0.2890688976377953
21
-0.4782573622047244
0
LINE
8
BLACK
6
CONTINUOUS
10
0.2890688976377953
20
-0.4782573622047244
11
0.2928184251968504
21
-0.480132125984252
0
LINE
8
BLACK
6
CONTINUOUS
10
0.2928184251968504
20
-0.480132125984252
11
0.2930664173228346
21
-0.4802881889763779
0
LINE
8
BLACK
6
CONTINUOUS
10
0.2930664173228346
20
-0.4802881889763779
11
0.2931383858267717
21
-0.480318031496063
0
LINE
8
BLACK
6
CONTINUOUS
10
0.2931383858267717
20
-0.480318031496063
11
0.2932193307086614
21
-0.4803844881889764
0
LINE
8
BLACK
6
CONTINUOUS
10
0.2932193307086614
20
-0.4803844881889764
11
0.2933083070866142
21
-0.4804404724409448
0
LINE
8
BLACK
6
CONTINUOUS
10
0.2933083070866142
20
-0.4804404724409448
11
0.2933594488188976
21
-0.4804994488188976
0
LINE
8
BLACK
6
CONTINUOUS
10
0.2933594488188976
20
-0.4804994488188976
11
0.2935858267716535
21
-0.4806852362204724
0
LINE
8
BLACK
6
CONTINUOUS
10
0.2935858267716535
20
-0.4806852362204724
11
0.2954605905511811
21
-0.48256
0
LINE
8
BLACK
6
CONTINUOUS
10
0.2954605905511811
20
-0.48256
11
0.2956463385826771
21
-0.4827863385826772
0
LINE
8
BLACK
6
CONTINUOUS
10
0.2956463385826771
20
-0.4827863385826772
11
0.2957053543307087
21
-0.4828375196850394
0
LINE
8
BLACK
6
CONTINUOUS
10
0.2957053543307087
20
-0.4828375196850394
11
0.2957612992125984
21
-0.4829264566929134
0
LINE
8
BLACK
6
CONTINUOUS
10
0.2957612992125984
20
-0.4829264566929134
11
0.2958277952755906
21
-0.4830074409448819
0
LINE
8
BLACK
6
CONTINUOUS
10
0.2958277952755906
20
-0.4830074409448819
11
0.2958575984251968
21
-0.4830793700787401
0
LINE
8
BLACK
6
CONTINUOUS
10
0.2958575984251968
20
-0.4830793700787401
11
0.2960137007874016
21
-0.4833274015748031
0
LINE
8
BLACK
6
CONTINUOUS
10
0.2960137007874016
20
-0.4833274015748031
11
0.2978884645669291
21
-0.4870769291338582
0
LINE
8
BLACK
6
CONTINUOUS
10
0.2978884645669291
20
-0.4870769291338582
11
0.2980953543307087
21
-0.4876175196850394
0
LINE
8
BLACK
6
CONTINUOUS
10
0.2980953543307087
20
-0.4876175196850394
11
0.298102874015748
21
-0.4877233858267717
0
LINE
8
BLACK
6
CONTINUOUS
10
0.298102874015748
20
-0.4877233858267717
11
0.2981434645669291
21
-0.4878213779527559
0
LINE
8
BLACK
6
CONTINUOUS
10
0.2981434645669291
20
-0.4878213779527559
11
0.2982001968503937
21
-0.4883974409448819
0
LINE
8
BLACK
6
CONTINUOUS
10
0.2982001968503937
20
-0.4883974409448819
11
0.2982001968503937
21
-0.4940217322834646
0
LINE
8
BLACK
6
CONTINUOUS
10
0.2982001968503937
20
-0.4940217322834646
11
0.2981434645669291
21
-0.4945977952755906
0
LINE
8
BLACK
6
CONTINUOUS
10
0.2981434645669291
20
-0.4945977952755906
11
0.298102874015748
21
-0.4946957480314961
0
LINE
8
BLACK
6
CONTINUOUS
10
0.298102874015748
20
-0.4946957480314961
11
0.2980953543307087
21
-0.4948016535433071
0
LINE
8
BLACK
6
CONTINUOUS
10
0.2980953543307087
20
-0.4948016535433071
11
0.2978884645669291
21
-0.4953422440944882
0
LINE
8
BLACK
6
CONTINUOUS
10
0.2978884645669291
20
-0.4953422440944882
11
0.2974449606299213
21
-0.4962292125984252
0
LINE
8
BLACK
6
CONTINUOUS
10
0.2974449606299213
20
-0.4962292125984252
11
0.3073906299212598
21
-0.4928280708661417
0
LINE
8
BLACK
6
CONTINUOUS
10
0.3073906299212598
20
-0.4928280708661417
11
0.3073160236220472
21
-0.4917776377952756
0
LINE
8
BLACK
6
CONTINUOUS
10
0.3073160236220472
20
-0.4917776377952756
11
0.3076803543307087
21
-0.4906846850393701
0
LINE
8
BLACK
6
CONTINUOUS
10
0.3076803543307087
20
-0.4906846850393701
11
0.3084351968503937
21
-0.4898142913385827
0
LINE
8
BLACK
6
CONTINUOUS
10
0.3084351968503937
20
-0.4898142913385827
11
0.3089250787401575
21
-0.4895059448818898
0
LINE
8
BLACK
6
CONTINUOUS
10
0.3089250787401575
20
-0.4895059448818898
11
0.3122460236220472
21
-0.4878454724409449
0
LINE
8
BLACK
6
CONTINUOUS
10
0.3122460236220472
20
-0.4878454724409449
11
0.3154499212598425
21
-0.4846415748031496
0
LINE
8
BLACK
6
CONTINUOUS
10
0.3154499212598425
20
-0.4846415748031496
11
0.3190373228346456
21
-0.4792604724409449
0
LINE
8
BLACK
6
CONTINUOUS
10
0.3190373228346456
20
-0.4792604724409449
11
0.3190386614173228
21
-0.479258779527559
0
LINE
8
BLACK
6
CONTINUOUS
10
0.3190386614173228
20
-0.479258779527559
11
0.3190390551181102
21
-0.4792579133858267
0
LINE
8
BLACK
6
CONTINUOUS
10
0.3190390551181102
20
-0.4792579133858267
11
0.319041062992126
21
-0.4792558661417323
0
LINE
8
BLACK
6
CONTINUOUS
10
0.319041062992126
20
-0.4792558661417323
11
0.319404094488189
21
-0.4788126377952756
0
LINE
8
BLACK
6
CONTINUOUS
10
0.319404094488189
20
-0.4788126377952756
11
0.319646968503937
21
-0.4786499606299213
0
LINE
8
BLACK
6
CONTINUOUS
10
0.319646968503937
20
-0.4786499606299213
11
0.3198537007874016
21
-0.4784432677165354
0
LINE
8
BLACK
6
CONTINUOUS
10
0.3198537007874016
20
-0.4784432677165354
11
0.3201209842519685
21
-0.4783325196850394
0
LINE
8
BLACK
6
CONTINUOUS
10
0.3201209842519685
20
-0.4783325196850394
11
0.3203613779527559
21
-0.4781715748031496
0
LINE
8
BLACK
6
CONTINUOUS
10
0.3203613779527559
20
-0.4781715748031496
11
0.3206479921259843
21
-0.4781142125984252
0
LINE
8
BLACK
6
CONTINUOUS
10
0.3206479921259843
20
-0.4781142125984252
11
0.3209181102362205
21
-0.4780023622047244
0
LINE
8
BLACK
6
CONTINUOUS
10
0.3209181102362205
20
-0.4780023622047244
11
0.3212074015748032
21
-0.4780023622047244
0
LINE
8
BLACK
6
CONTINUOUS
10
0.3212074015748032
20
-0.4780023622047244
11
0.321491062992126
21
-0.4779456299212598
0
LINE
8
BLACK
6
CONTINUOUS
10
0.321491062992126
20
-0.4779456299212598
11
0.3217778346456693
21
-0.4780023622047244
0
LINE
8
BLACK
6
CONTINUOUS
10
0.3217778346456693
20
-0.4780023622047244
11
0.3220702362204724
21
-0.4780023622047244
0
LINE
8
BLACK
6
CONTINUOUS
10
0.3220702362204724
20
-0.4780023622047244
11
0.3223374803149606
21
-0.4781130708661417
0
LINE
8
BLACK
6
CONTINUOUS
10
0.3223374803149606
20
-0.4781130708661417
11
0.3226212992125984
21
-0.4781692125984252
0
LINE
8
BLACK
6
CONTINUOUS
10
0.3226212992125984
20
-0.4781692125984252
11
0.3228645669291338
21
-0.4783313779527559
0
LINE
8
BLACK
6
CONTINUOUS
10
0.3228645669291338
20
-0.4783313779527559
11
0.3231346456692913
21
-0.4784432677165354
0
LINE
8
BLACK
6
CONTINUOUS
10
0.3231346456692913
20
-0.4784432677165354
11
0.323339094488189
21
-0.4786477165354331
0
LINE
8
BLACK
6
CONTINUOUS
10
0.323339094488189
20
-0.4786477165354331
11
0.3235799212598425
21
-0.4788082677165354
0
LINE
8
BLACK
6
CONTINUOUS
10
0.3235799212598425
20
-0.4788082677165354
11
0.3237426377952756
21
-0.4790512598425197
0
LINE
8
BLACK
6
CONTINUOUS
10
0.3237426377952756
20
-0.4790512598425197
11
0.3239492913385827
21
-0.4792579133858267
0
LINE
8
BLACK
6
CONTINUOUS
10
0.3239492913385827
20
-0.4792579133858267
11
0.3240599606299213
21
-0.4795251181102362
0
LINE
8
BLACK
6
CONTINUOUS
10
0.3240599606299213
20
-0.4795251181102362
11
0.3242209842519685
21
-0.4797655511811024
0
LINE
8
BLACK
6
CONTINUOUS
10
0.3242209842519685
20
-0.4797655511811024
11
0.3242783070866141
21
-0.4800522047244095
0
LINE
8
BLACK
6
CONTINUOUS
10
0.3242783070866141
20
-0.4800522047244095
11
0.3243901968503937
21
-0.4803223228346457
0
LINE
8
BLACK
6
CONTINUOUS
10
0.3243901968503937
20
-0.4803223228346457
11
0.3244462992125984
21
-0.4808922440944882
0
LINE
8
BLACK
6
CONTINUOUS
10
0.3244462992125984
20
-0.4808922440944882
11
0.3244469291338583
21
-0.4808952755905512
0
LINE
8
BLACK
6
CONTINUOUS
10
0.3244469291338583
20
-0.4808952755905512
11
0.3244466929133858
21
-0.4808962992125984
0
LINE
8
BLACK
6
CONTINUOUS
10
0.3244466929133858
20
-0.4808962992125984
11
0.3244469291338583
21
-0.4808983858267716
0
LINE
8
BLACK
6
CONTINUOUS
10
0.3244469291338583
20
-0.4808983858267716
11
0.3244469291338583
21
-0.4869953543307087
0
LINE
8
BLACK
6
CONTINUOUS
10
0.3244469291338583
20
-0.4869953543307087
11
0.4132816141732283
21
-0.456616653543307
0
LINE
8
BLACK
6
CONTINUOUS
10
0.4132816141732283
20
-0.456616653543307
11
0.4109956692913386
21
-0.4543307086614173
0
LINE
8
BLACK
6
CONTINUOUS
10
0.4109956692913386
20
-0.4543307086614173
11
0.1536556299212598
21
-0.4543307086614173
0
LINE
8
BLACK
6
CONTINUOUS
10
-0.5885250787401575
20
-0.2787179527559055
11
-0.575250748031496
21
-0.2809733464566929
0
LINE
8
BLACK
6
CONTINUOUS
10
-0.575250748031496
20
-0.2809733464566929
11
-0.5623124015748031
21
-0.2847008267716535
0
LINE
8
BLACK
6
CONTINUOUS
10
-0.5623124015748031
20
-0.2847008267716535
11
-0.549872716535433
21
-0.2898535039370079
0
LINE
8
BLACK
6
CONTINUOUS
10
-0.549872716535433
20
-0.2898535039370079
11
-0.5380881889763779
21
-0.2963665748031496
0
LINE
8
BLACK
6
CONTINUOUS
10
-0.5380881889763779
20
-0.2963665748031496
11
-0.5271070078740158
21
-0.3041581496062992
0
LINE
8
BLACK
6
CONTINUOUS
10
-0.5271070078740158
20
-0.3041581496062992
11
-0.5170672440944882
21
-0.3131302362204724
0
LINE
8
BLACK
6
CONTINUOUS
10
-0.5170672440944882
20
-0.3131302362204724
11
-0.508095157480315
21
-0.32317
0
LINE
8
BLACK
6
CONTINUOUS
10
-0.508095157480315
20
-0.32317
11
-0.5003035826771653
21
-0.3341511811023622
0
LINE
8
BLACK
6
CONTINUOUS
10
-0.5003035826771653
20
-0.3341511811023622
11
-0.4937905118110236
21
-0.3459357086614173
0
LINE
8
BLACK
6
CONTINUOUS
10
-0.4937905118110236
20
-0.3459357086614173
11
-0.4886378346456693
21
-0.3583753937007874
0
LINE
8
BLACK
6
CONTINUOUS
10
-0.4886378346456693
20
-0.3583753937007874
11
-0.4849103543307087
21
-0.3713137401574803
0
LINE
8
BLACK
6
CONTINUOUS
10
-0.4849103543307087
20
-0.3713137401574803
11
-0.4826549606299212
21
-0.3845880708661417
0
LINE
8
BLACK
6
CONTINUOUS
10
-0.4826549606299212
20
-0.3845880708661417
11
-0.4819
21
-0.3980314960629921
0
LINE
8
BLACK
6
CONTINUOUS
10
-0.4819
20
-0.3980314960629921
11
-0.4826549606299212
21
-0.4114749212598425
0
LINE
8
BLACK
6
CONTINUOUS
10
-0.4826549606299212
20
-0.4114749212598425
11
-0.4849103543307087
21
-0.4247492519685039
0
LINE
8
BLACK
6
CONTINUOUS
10
-0.4849103543307087
20
-0.4247492519685039
11
-0.4886378346456693
21
-0.4376875984251968
0
LINE
8
BLACK
6
CONTINUOUS
10
-0.4886378346456693
20
-0.4376875984251968
11
-0.4937905118110236
21
-0.4501272834645669
0
LINE
8
BLACK
6
CONTINUOUS
10
-0.4937905118110236
20
-0.4501272834645669
11
-0.5003035826771653
21
-0.4619118110236221
0
LINE
8
BLACK
6
CONTINUOUS
10
-0.5003035826771653
20
-0.4619118110236221
11
-0.508095157480315
21
-0.4728929921259842
0
LINE
8
BLACK
6
CONTINUOUS
10
-0.508095157480315
20
-0.4728929921259842
11
-0.5170672440944882
21
-0.4829327559055118
0
LINE
8
BLACK
6
CONTINUOUS
10
-0.5170672440944882
20
-0.4829327559055118
11
-0.5271070078740158
21
-0.491904842519685
0
LINE
8
BLACK
6
CONTINUOUS
10
-0.5271070078740158
20
-0.491904842519685
11
-0.5380881889763779
21
-0.4996964173228347
0
LINE
8
BLACK
6
CONTINUOUS
10
-0.5380881889763779
20
-0.4996964173228347
11
-0.549872716535433
21
-0.5062094881889764
0
LINE
8
BLACK
6
CONTINUOUS
10
-0.549872716535433
20
-0.5062094881889764
11
-0.5623124015748031
21
-0.5113621653543307
0
LINE
8
BLACK
6
CONTINUOUS
10
-0.5623124015748031
20
-0.5113621653543307
11
-0.575250748031496
21
-0.5150896456692913
0
LINE
8
BLACK
6
CONTINUOUS
10
-0.575250748031496
20
-0.5150896456692913
11
-0.5885250787401575
21
-0.5173450393700787
0
LINE
8
BLACK
6
CONTINUOUS
10
-0.5885250787401575
20
-0.5173450393700787
11
-0.6019685039370078
21
-0.5181
0
LINE
8
BLACK
6
CONTINUOUS
10
-0.6019685039370078
20
-0.5181
11
-0.6154119291338582
21
-0.5173450393700787
0
LINE
8
BLACK
6
CONTINUOUS
10
-0.6154119291338582
20
-0.5173450393700787
11
-0.6286862598425197
21
-0.5150896456692913
0
LINE
8
BLACK
6
CONTINUOUS
10
-0.6286862598425197
20
-0.5150896456692913
11
-0.6416246062992126
21
-0.5113621653543307
0
LINE
8
BLACK
6
CONTINUOUS
10
-0.6416246062992126
20
-0.5113621653543307
11
-0.6540642913385827
21
-0.5062094881889764
0
LINE
8
BLACK
6
CONTINUOUS
10
-0.6540642913385827
20
-0.5062094881889764
11
-0.6658488188976378
21
-0.4996964173228347
0
LINE
8
BLACK
6
CONTINUOUS
10
-0.6658488188976378
20
-0.4996964173228347
11
-0.6768299999999999
21
-0.491904842519685
0
LINE
8
BLACK
6
CONTINUOUS
10
-0.6768299999999999
20
-0.491904842519685
11
-0.6868697637795276
21
-0.4829327559055118
0
LINE
8
BLACK
6
CONTINUOUS
10
-0.6868697637795276
20
-0.4829327559055118
11
-0.6958418503937007
21
-0.4728929921259842
0
LINE
8
BLACK
6
CONTINUOUS
10
-0.6958418503937007
20
-0.4728929921259842
11
-0.7036334251968503
21
-0.4619118110236221
0
LINE
8
BLACK
6
CONTINUOUS
10
-0.7036334251968503
20
-0.4619118110236221
11
-0.7101464960629921
21
-0.4501272834645669
0
LINE
8
BLACK
6
CONTINUOUS
10
-0.7101464960629921
20
-0.4501272834645669
11
-0.7152991732283465
21
-0.4376875984251968
0
LINE
8
BLACK
6
CONTINUOUS
10
-0.7152991732283465
20
-0.4376875984251968
11
-0.7190266535433071
21
-0.4247492519685039
0
LINE
8
BLACK
6
CONTINUOUS
10
-0.7190266535433071
20
-0.4247492519685039
11
-0.7212820472440945
21
-0.4114749212598425
0
LINE
8
BLACK
6
CONTINUOUS
10
-0.7212820472440945
20
-0.4114749212598425
11
-0.7220370078740157
21
-0.3980314960629921
0
LINE
8
BLACK
6
CONTINUOUS
10
-0.7220370078740157
20
-0.3980314960629921
11
-0.7212820472440945
21
-0.3845880708661417
0
LINE
8
BLACK
6
CONTINUOUS
10
-0.7212820472440945
20
-0.3845880708661417
11
-0.7190266535433071
21
-0.3713137401574803
0
LINE
8
BLACK
6
CONTINUOUS
10
-0.7190266535433071
20
-0.3713137401574803
11
-0.7152991732283465
21
-0.3583753937007874
0
LINE
8
BLACK
6
CONTINUOUS
10
-0.7152991732283465
20
-0.3583753937007874
11
-0.7101464960629921
21
-0.3459357086614173
0
LINE
8
BLACK
6
CONTINUOUS
10
-0.7101464960629921
20
-0.3459357086614173
11
-0.7036334251968503
21
-0.3341511811023622
0
LINE
8
BLACK
6
CONTINUOUS
10
-0.7036334251968503
20
-0.3341511811023622
11
-0.6958418503937007
21
-0.32317
0
LINE
8
BLACK
6
CONTINUOUS
10
-0.6958418503937007
20
-0.32317
11
-0.6868697637795276
21
-0.3131302362204724
0
LINE
8
BLACK
6
CONTINUOUS
10
-0.6868697637795276
20
-0.3131302362204724
11
-0.6768299999999999
21
-0.3041581496062992
0
LINE
8
BLACK
6
CONTINUOUS
10
-0.6768299999999999
20
-0.3041581496062992
11
-0.6658488188976378
21
-0.2963665748031496
0
LINE
8
BLACK
6
CONTINUOUS
10
-0.6658488188976378
20
-0.2963665748031496
11
-0.6540642913385827
21
-0.2898535039370079
0
LINE
8
BLACK
6
CONTINUOUS
10
-0.6540642913385827
20
-0.2898535039370079
11
-0.6416246062992126
21
-0.2847008267716535
0
LINE
8
BLACK
6
CONTINUOUS
10
-0.6416246062992126
20
-0.2847008267716535
11
-0.6286862598425197
21
-0.2809733464566929
0
LINE
8
BLACK
6
CONTINUOUS
10
-0.6286862598425197
20
-0.2809733464566929
11
-0.6154119291338582
21
-0.2787179527559055
0
LINE
8
BLACK
6
CONTINUOUS
10
-0.6154119291338582
20
-0.2787179527559055
11
-0.6019685039370078
21
-0.2779629921259842
0
LINE
8
BLACK
6
CONTINUOUS
10
-0.6019685039370078
20
-0.2779629921259842
11
-0.5885250787401575
21
-0.2787179527559055
0
LINE
8
BLACK
6
CONTINUOUS
10
-0.7175102362204724
20
-0.4115363779527559
11
-0.7151611811023622
21
-0.4248586614173228
0
LINE
8
BLACK
6
CONTINUOUS
10
-0.7151611811023622
20
-0.4248586614173228
11
-0.7112813385826772
21
-0.4378181102362205
0
LINE
8
BLACK
6
CONTINUOUS
10
-0.7112813385826772
20
-0.4378181102362205
11
-0.7059232677165355
21
-0.4502395275590551
0
LINE
8
BLACK
6
CONTINUOUS
10
-0.7059232677165355
20
-0.4502395275590551
11
-0.6991593700787402
21
-0.4619549606299213
0
LINE
8
BLACK
6
CONTINUOUS
10
-0.6991593700787402
20
-0.4619549606299213
11
-0.6910811417322834
21
-0.472805905511811
0
LINE
8
BLACK
6
CONTINUOUS
10
-0.6910811417322834
20
-0.472805905511811
11
-0.6817978346456692
21
-0.4826456299212598
0
LINE
8
BLACK
6
CONTINUOUS
10
-0.6817978346456692
20
-0.4826456299212598
11
-0.6714349606299213
21
-0.4913411417322834
0
LINE
8
BLACK
6
CONTINUOUS
10
-0.6714349606299213
20
-0.4913411417322834
11
-0.6601326771653543
21
-0.4987747637795276
0
LINE
8
BLACK
6
CONTINUOUS
10
-0.6601326771653543
20
-0.4987747637795276
11
-0.6480437795275591
21
-0.5048460236220472
0
LINE
8
BLACK
6
CONTINUOUS
10
-0.6480437795275591
20
-0.5048460236220472
11
-0.6353318503937008
21
-0.5094727952755905
0
LINE
8
BLACK
6
CONTINUOUS
10
-0.6353318503937008
20
-0.5094727952755905
11
-0.6221687007874016
21
-0.5125925196850394
0
LINE
8
BLACK
6
CONTINUOUS
10
-0.6221687007874016
20
-0.5125925196850394
11
-0.6087324015748031
21
-0.5141629921259843
0
LINE
8
BLACK
6
CONTINUOUS
10
-0.6087324015748031
20
-0.5141629921259843
11
-0.5952046062992126
21
-0.5141629921259843
0
LINE
8
BLACK
6
CONTINUOUS
10
-0.5952046062992126
20
-0.5141629921259843
11
-0.5817683070866142
21
-0.5125925196850394
0
LINE
8
BLACK
6
CONTINUOUS
10
-0.5817683070866142
20
-0.5125925196850394
11
-0.5686051574803149
21
-0.5094727952755905
0
LINE
8
BLACK
6
CONTINUOUS
10
-0.5686051574803149
20
-0.5094727952755905
11
-0.5558932283464567
21
-0.5048460236220472
0
LINE
8
BLACK
6
CONTINUOUS
10
-0.5558932283464567
20
-0.5048460236220472
11
-0.5438043307086614
21
-0.4987747637795276
0
LINE
8
BLACK
6
CONTINUOUS
10
-0.5438043307086614
20
-0.4987747637795276
11
-0.5325020472440944
21
-0.4913411417322834
0
LINE
8
BLACK
6
CONTINUOUS
10
-0.5325020472440944
20
-0.4913411417322834
11
-0.5221391732283465
21
-0.4826456299212598
0
LINE
8
BLACK
6
CONTINUOUS
10
-0.5221391732283465
20
-0.4826456299212598
11
-0.5128558661417323
21
-0.472805905511811
0
LINE
8
BLACK
6
CONTINUOUS
10
-0.5128558661417323
20
-0.472805905511811
11
-0.5047776377952756
21
-0.4619549606299213
0
LINE
8
BLACK
6
CONTINUOUS
10
-0.5047776377952756
20
-0.4619549606299213
11
-0.4980137401574803
21
-0.4502395275590551
0
LINE
8
BLACK
6
CONTINUOUS
10
-0.4980137401574803
20
-0.4502395275590551
11
-0.4926556692913386
21
-0.4378181102362205
0
LINE
8
BLACK
6
CONTINUOUS
10
-0.4926556692913386
20
-0.4378181102362205
11
-0.4887758267716535
21
-0.4248586614173228
0
LINE
8
BLACK
6
CONTINUOUS
10
-0.4887758267716535
20
-0.4248586614173228
11
-0.4864267716535433
21
-0.4115363779527559
0
LINE
8
BLACK
6
CONTINUOUS
10
-0.4864267716535433
20
-0.4115363779527559
11
-0.4856401968503937
21
-0.3980314960629921
0
LINE
8
BLACK
6
CONTINUOUS
10
-0.4856401968503937
20
-0.3980314960629921
11
-0.4864267716535433
21
-0.3845266141732284
0
LINE
8
BLACK
6
CONTINUOUS
10
-0.4864267716535433
20
-0.3845266141732284
11
-0.4887758267716535
21
-0.3712043307086614
0
LINE
8
BLACK
6
CONTINUOUS
10
-0.4887758267716535
20
-0.3712043307086614
11
-0.4926556692913386
21
-0.3582448818897638
0
LINE
8
BLACK
6
CONTINUOUS
10
-0.4926556692913386
20
-0.3582448818897638
11
-0.4980137401574803
21
-0.3458234645669291
0
LINE
8
BLACK
6
CONTINUOUS
10
-0.4980137401574803
20
-0.3458234645669291
11
-0.5047776377952756
21
-0.334108031496063
0
LINE
8
BLACK
6
CONTINUOUS
10
-0.5047776377952756
20
-0.334108031496063
11
-0.5128558661417323
21
-0.3232570866141732
0
LINE
8
BLACK
6
CONTINUOUS
10
-0.5128558661417323
20
-0.3232570866141732
11
-0.5221391732283465
21
-0.3134173622047244
0
LINE
8
BLACK
6
CONTINUOUS
10
-0.5221391732283465
20
-0.3134173622047244
11
-0.5325020472440944
21
-0.3047218503937008
0
LINE
8
BLACK
6
CONTINUOUS
10
-0.5325020472440944
20
-0.3047218503937008
11
-0.5438043307086614
21
-0.2972882283464567
0
LINE
8
BLACK
6
CONTINUOUS
10
-0.5438043307086614
20
-0.2972882283464567
11
-0.5558932283464567
21
-0.291216968503937
0
LINE
8
BLACK
6
CONTINUOUS
10
-0.5558932283464567
20
-0.291216968503937
11
-0.5686051574803149
21
-0.2865901968503937
0
LINE
8
BLACK
6
CONTINUOUS
10
-0.5686051574803149
20
-0.2865901968503937
11
-0.5817683070866142
21
-0.2834704724409449
0
LINE
8
BLACK
6
CONTINUOUS
10
-0.5817683070866142
20
-0.2834704724409449
11
-0.5952046062992126
21
-0.2819
0
LINE
8
BLACK
6
CONTINUOUS
10
-0.5952046062992126
20
-0.2819
11
-0.6087324015748031
21
-0.2819
0
LINE
8
BLACK
6
CONTINUOUS
10
-0.6087324015748031
20
-0.2819
11
-0.6221687007874016
21
-0.2834704724409449
0
LINE
8
BLACK
6
CONTINUOUS
10
-0.6221687007874016
20
-0.2834704724409449
11
-0.6353318503937008
21
-0.2865901968503937
0
LINE
8
BLACK
6
CONTINUOUS
10
-0.6353318503937008
20
-0.2865901968503937
11
-0.6480437795275591
21
-0.291216968503937
0
LINE
8
BLACK
6
CONTINUOUS
10
-0.6480437795275591
20
-0.291216968503937
11
-0.6601326771653543
21
-0.2972882283464567
0
LINE
8
BLACK
6
CONTINUOUS
10
-0.6601326771653543
20
-0.2972882283464567
11
-0.6714349606299213
21
-0.3047218503937008
0
LINE
8
BLACK
6
CONTINUOUS
10
-0.6714349606299213
20
-0.3047218503937008
11
-0.6817978346456692
21
-0.3134173622047244
0
LINE
8
BLACK
6
CONTINUOUS
10
-0.6817978346456692
20
-0.3134173622047244
11
-0.6910811417322834
21
-0.3232570866141732
0
LINE
8
BLACK
6
CONTINUOUS
10
-0.6910811417322834
20
-0.3232570866141732
11
-0.6991593700787402
21
-0.334108031496063
0
LINE
8
BLACK
6
CONTINUOUS
10
-0.6991593700787402
20
-0.334108031496063
11
-0.7059232677165355
21
-0.3458234645669291
0
LINE
8
BLACK
6
CONTINUOUS
10
-0.7059232677165355
20
-0.3458234645669291
11
-0.7112813385826772
21
-0.3582448818897638
0
LINE
8
BLACK
6
CONTINUOUS
10
-0.7112813385826772
20
-0.3582448818897638
11
-0.7151611811023622
21
-0.3712043307086614
0
LINE
8
BLACK
6
CONTINUOUS
10
-0.7151611811023622
20
-0.3712043307086614
11
-0.7175102362204724
21
-0.3845266141732284
0
LINE
8
BLACK
6
CONTINUOUS
10
-0.7175102362204724
20
-0.3845266141732284
11
-0.7182968110236221
21
-0.3980314960629921
0
LINE
8
BLACK
6
CONTINUOUS
10
-0.7182968110236221
20
-0.3980314960629921
11
-0.7175102362204724
21
-0.4115363779527559
0
LINE
8
BLACK
6
CONTINUOUS
10
0.6114749212598425
20
-0.2787179527559055
11
0.6247492519685039
21
-0.2809733464566929
0
LINE
8
BLACK
6
CONTINUOUS
10
0.6247492519685039
20
-0.2809733464566929
11
0.6376875984251968
21
-0.2847008267716535
0
LINE
8
BLACK
6
CONTINUOUS
10
0.6376875984251968
20
-0.2847008267716535
11
0.6501272834645669
21
-0.2898535039370079
0
LINE
8
BLACK
6
CONTINUOUS
10
0.6501272834645669
20
-0.2898535039370079
11
0.6619118110236221
21
-0.2963665748031496
0
LINE
8
BLACK
6
CONTINUOUS
10
0.6619118110236221
20
-0.2963665748031496
11
0.6728929921259842
21
-0.3041581496062992
0
LINE
8
BLACK
6
CONTINUOUS
10
0.6728929921259842
20
-0.3041581496062992
11
0.6829327559055118
21
-0.3131302362204724
0
LINE
8
BLACK
6
CONTINUOUS
10
0.6829327559055118
20
-0.3131302362204724
11
0.691904842519685
21
-0.32317
0
LINE
8
BLACK
6
CONTINUOUS
10
0.691904842519685
20
-0.32317
11
0.6996964173228346
21
-0.3341511811023622
0
LINE
8
BLACK
6
CONTINUOUS
10
0.6996964173228346
20
-0.3341511811023622
11
0.7062094881889763
21
-0.3459357086614173
0
LINE
8
BLACK
6
CONTINUOUS
10
0.7062094881889763
20
-0.3459357086614173
11
0.7113621653543307
21
-0.3583753937007874
0
LINE
8
BLACK
6
CONTINUOUS
10
0.7113621653543307
20
-0.3583753937007874
11
0.7150896456692913
21
-0.3713137401574803
0
LINE
8
BLACK
6
CONTINUOUS
10
0.7150896456692913
20
-0.3713137401574803
11
0.7173450393700788
21
-0.3845880708661417
0
LINE
8
BLACK
6
CONTINUOUS
10
0.7173450393700788
20
-0.3845880708661417
11
0.7181
21
-0.3980314960629921
0
LINE
8
BLACK
6
CONTINUOUS
10
0.7181
20
-0.3980314960629921
11
0.7173450393700788
21
-0.4114749212598425
0
LINE
8
BLACK
6
CONTINUOUS
10
0.7173450393700788
20
-0.4114749212598425
11
0.7150896456692913
21
-0.4247492519685039
0
LINE
8
BLACK
6
CONTINUOUS
10
0.7150896456692913
20
-0.4247492519685039
11
0.7113621653543307
21
-0.4376875984251968
0
LINE
8
BLACK
6
CONTINUOUS
10
0.7113621653543307
20
-0.4376875984251968
11
0.7062094881889763
21
-0.4501272834645669
0
LINE
8
BLACK
6
CONTINUOUS
10
0.7062094881889763
20
-0.4501272834645669
11
0.6996964173228346
21
-0.4619118110236221
0
LINE
8
BLACK
6
CONTINUOUS
10
0.6996964173228346
20
-0.4619118110236221
11
0.691904842519685
21
-0.4728929921259842
0
LINE
8
BLACK
6
CONTINUOUS
10
0.691904842519685
20
-0.4728929921259842
11
0.6829327559055118
21
-0.4829327559055118
0
LINE
8
BLACK
6
CONTINUOUS
10
0.6829327559055118
20
-0.4829327559055118
11
0.6728929921259842
21
-0.491904842519685
0
LINE
8
BLACK
6
CONTINUOUS
10
0.6728929921259842
20
-0.491904842519685
11
0.6619118110236221
21
-0.4996964173228347
0
LINE
8
BLACK
6
CONTINUOUS
10
0.6619118110236221
20
-0.4996964173228347
11
0.6501272834645669
21
-0.5062094881889764
0
LINE
8
BLACK
6
CONTINUOUS
10
0.6501272834645669
20
-0.5062094881889764
11
0.6376875984251968
21
-0.5113621653543307
0
LINE
8
BLACK
6
CONTINUOUS
10
0.6376875984251968
20
-0.5113621653543307
11
0.6247492519685039
21
-0.5150896456692913
0
LINE
8
BLACK
6
CONTINUOUS
10
0.6247492519685039
20
-0.5150896456692913
11
0.6114749212598425
21
-0.5173450393700787
0
LINE
8
BLACK
6
CONTINUOUS
10
0.6114749212598425
20
-0.5173450393700787
11
0.5980314960629921
21
-0.5181
0
LINE
8
BLACK
6
CONTINUOUS
10
0.5980314960629921
20
-0.5181
11
0.5845880708661417
21
-0.5173450393700787
0
LINE
8
BLACK
6
CONTINUOUS
10
0.5845880708661417
20
-0.5173450393700787
11
0.5713137401574803
21
-0.5150896456692913
0
LINE
8
BLACK
6
CONTINUOUS
10
0.5713137401574803
20
-0.5150896456692913
11
0.5583753937007874
21
-0.5113621653543307
0
LINE
8
BLACK
6
CONTINUOUS
10
0.5583753937007874
20
-0.5113621653543307
11
0.5459357086614173
21
-0.5062094881889764
0
LINE
8
BLACK
6
CONTINUOUS
10
0.5459357086614173
20
-0.5062094881889764
11
0.5341511811023621
21
-0.4996964173228347
0
LINE
8
BLACK
6
CONTINUOUS
10
0.5341511811023621
20
-0.4996964173228347
11
0.52317
21
-0.491904842519685
0
LINE
8
BLACK
6
CONTINUOUS
10
0.52317
20
-0.491904842519685
11
0.5131302362204724
21
-0.4829327559055118
0
LINE
8
BLACK
6
CONTINUOUS
10
0.5131302362204724
20
-0.4829327559055118
11
0.5041581496062992
21
-0.4728929921259842
0
LINE
8
BLACK
6
CONTINUOUS
10
0.5041581496062992
20
-0.4728929921259842
11
0.4963665748031496
21
-0.4619118110236221
0
LINE
8
BLACK
6
CONTINUOUS
10
0.4963665748031496
20
-0.4619118110236221
11
0.4898535039370079
21
-0.4501272834645669
0
LINE
8
BLACK
6
CONTINUOUS
10
0.4898535039370079
20
-0.4501272834645669
11
0.4847008267716535
21
-0.4376875984251968
0
LINE
8
BLACK
6
CONTINUOUS
10
0.4847008267716535
20
-0.4376875984251968
11
0.4809733464566929
21
-0.4247492519685039
0
LINE
8
BLACK
6
CONTINUOUS
10
0.4809733464566929
20
-0.4247492519685039
11
0.4787179527559055
21
-0.4114749212598425
0
LINE
8
BLACK
6
CONTINUOUS
10
0.4787179527559055
20
-0.4114749212598425
11
0.4779629921259843
21
-0.3980314960629921
0
LINE
8
BLACK
6
CONTINUOUS
10
0.4779629921259843
20
-0.3980314960629921
11
0.4787179527559055
21
-0.3845880708661417
0
LINE
8
BLACK
6
CONTINUOUS
10
0.4787179527559055
20
-0.3845880708661417
11
0.4809733464566929
21
-0.3713137401574803
0
LINE
8
BLACK
6
CONTINUOUS
10
0.4809733464566929
20
-0.3713137401574803
11
0.4847008267716535
21
-0.3583753937007874
0
LINE
8
BLACK
6
CONTINUOUS
10
0.4847008267716535
20
-0.3583753937007874
11
0.4898535039370079
21
-0.3459357086614173
0
LINE
8
BLACK
6
CONTINUOUS
10
0.4898535039370079
20
-0.3459357086614173
11
0.4963665748031496
21
-0.3341511811023622
0
LINE
8
BLACK
6
CONTINUOUS
10
0.4963665748031496
20
-0.3341511811023622
11
0.5041581496062992
21
-0.32317
0
LINE
8
BLACK
6
CONTINUOUS
10
0.5041581496062992
20
-0.32317
11
0.5131302362204724
21
-0.3131302362204724
0
LINE
8
BLACK
6
CONTINUOUS
10
0.5131302362204724
20
-0.3131302362204724
11
0.52317
21
-0.3041581496062992
0
LINE
8
BLACK
6
CONTINUOUS
10
0.52317
20
-0.3041581496062992
11
0.5341511811023621
21
-0.2963665748031496
0
LINE
8
BLACK
6
CONTINUOUS
10
0.5341511811023621
20
-0.2963665748031496
11
0.5459357086614173
21
-0.2898535039370079
0
LINE
8
BLACK
6
CONTINUOUS
10
0.5459357086614173
20
-0.2898535039370079
11
0.5583753937007874
21
-0.2847008267716535
0
LINE
8
BLACK
6
CONTINUOUS
10
0.5583753937007874
20
-0.2847008267716535
11
0.5713137401574803
21
-0.2809733464566929
0
LINE
8
BLACK
6
CONTINUOUS
10
0.5713137401574803
20
-0.2809733464566929
11
0.5845880708661417
21
-0.2787179527559055
0
LINE
8
BLACK
6
CONTINUOUS
10
0.5845880708661417
20
-0.2787179527559055
11
0.5980314960629921
21
-0.2779629921259842
0
LINE
8
BLACK
6
CONTINUOUS
10
0.5980314960629921
20
-0.2779629921259842
11
0.6114749212598425
21
-0.2787179527559055
0
LINE
8
BLACK
6
CONTINUOUS
10
0.4824897637795276
20
-0.4115363779527559
11
0.4848388188976378
21
-0.4248586614173228
0
LINE
8
BLACK
6
CONTINUOUS
10
0.4848388188976378
20
-0.4248586614173228
11
0.4887186614173228
21
-0.4378181102362205
0
LINE
8
BLACK
6
CONTINUOUS
10
0.4887186614173228
20
-0.4378181102362205
11
0.4940767322834645
21
-0.4502395275590551
0
LINE
8
BLACK
6
CONTINUOUS
10
0.4940767322834645
20
-0.4502395275590551
11
0.5008406299212599
21
-0.4619549606299213
0
LINE
8
BLACK
6
CONTINUOUS
10
0.5008406299212599
20
-0.4619549606299213
11
0.5089188582677165
21
-0.472805905511811
0
LINE
8
BLACK
6
CONTINUOUS
10
0.5089188582677165
20
-0.472805905511811
11
0.5182021653543307
21
-0.4826456299212598
0
LINE
8
BLACK
6
CONTINUOUS
10
0.5182021653543307
20
-0.4826456299212598
11
0.5285650393700787
21
-0.4913411417322834
0
LINE
8
BLACK
6
CONTINUOUS
10
0.5285650393700787
20
-0.4913411417322834
11
0.5398673228346457
21
-0.4987747637795276
0
LINE
8
BLACK
6
CONTINUOUS
10
0.5398673228346457
20
-0.4987747637795276
11
0.551956220472441
21
-0.5048460236220472
0
LINE
8
BLACK
6
CONTINUOUS
10
0.551956220472441
20
-0.5048460236220472
11
0.5646681496062992
21
-0.5094727952755905
0
LINE
8
BLACK
6
CONTINUOUS
10
0.5646681496062992
20
-0.5094727952755905
11
0.5778312992125985
21
-0.5125925196850394
0
LINE
8
BLACK
6
CONTINUOUS
10
0.5778312992125985
20
-0.5125925196850394
11
0.5912675984251968
21
-0.5141629921259843
0
LINE
8
BLACK
6
CONTINUOUS
10
0.5912675984251968
20
-0.5141629921259843
11
0.6047953937007874
21
-0.5141629921259843
0
LINE
8
BLACK
6
CONTINUOUS
10
0.6047953937007874
20
-0.5141629921259843
11
0.6182316929133859
21
-0.5125925196850394
0
LINE
8
BLACK
6
CONTINUOUS
10
0.6182316929133859
20
-0.5125925196850394
11
0.631394842519685
21
-0.5094727952755905
0
LINE
8
BLACK
6
CONTINUOUS
10
0.631394842519685
20
-0.5094727952755905
11
0.6441067716535432
21
-0.5048460236220472
0
LINE
8
BLACK
6
CONTINUOUS
10
0.6441067716535432
20
-0.5048460236220472
11
0.6561956692913385
21
-0.4987747637795276
0
LINE
8
BLACK
6
CONTINUOUS
10
0.6561956692913385
20
-0.4987747637795276
11
0.6674979527559055
21
-0.4913411417322834
0
LINE
8
BLACK
6
CONTINUOUS
10
0.6674979527559055
20
-0.4913411417322834
11
0.6778608267716535
21
-0.4826456299212598
0
LINE
8
BLACK
6
CONTINUOUS
10
0.6778608267716535
20
-0.4826456299212598
11
0.6871441338582677
21
-0.472805905511811
0
LINE
8
BLACK
6
CONTINUOUS
10
0.6871441338582677
20
-0.472805905511811
11
0.6952223622047244
21
-0.4619549606299213
0
LINE
8
BLACK
6
CONTINUOUS
10
0.6952223622047244
20
-0.4619549606299213
11
0.7019862598425197
21
-0.4502395275590551
0
LINE
8
BLACK
6
CONTINUOUS
10
0.7019862598425197
20
-0.4502395275590551
11
0.7073443307086614
21
-0.4378181102362205
0
LINE
8
BLACK
6
CONTINUOUS
10
0.7073443307086614
20
-0.4378181102362205
11
0.7112241732283464
21
-0.4248586614173228
0
LINE
8
BLACK
6
CONTINUOUS
10
0.7112241732283464
20
-0.4248586614173228
11
0.7135732283464566
21
-0.4115363779527559
0
LINE
8
BLACK
6
CONTINUOUS
10
0.7135732283464566
20
-0.4115363779527559
11
0.7143598031496062
21
-0.3980314960629921
0
LINE
8
BLACK
6
CONTINUOUS
10
0.7143598031496062
20
-0.3980314960629921
11
0.7135732283464566
21
-0.3845266141732284
0
LINE
8
BLACK
6
CONTINUOUS
10
0.7135732283464566
20
-0.3845266141732284
11
0.7112241732283464
21
-0.3712043307086614
0
LINE
8
BLACK
6
CONTINUOUS
10
0.7112241732283464
20
-0.3712043307086614
11
0.7073443307086614
21
-0.3582448818897638
0
LINE
8
BLACK
6
CONTINUOUS
10
0.7073443307086614
20
-0.3582448818897638
11
0.7019862598425197
21
-0.3458234645669291
0
LINE
8
BLACK
6
CONTINUOUS
10
0.7019862598425197
20
-0.3458234645669291
11
0.6952223622047244
21
-0.334108031496063
0
LINE
8
BLACK
6
CONTINUOUS
10
0.6952223622047244
20
-0.334108031496063
11
0.6871441338582677
21
-0.3232570866141732
0
LINE
8
BLACK
6
CONTINUOUS
10
0.6871441338582677
20
-0.3232570866141732
11
0.6778608267716535
21
-0.3134173622047244
0
LINE
8
BLACK
6
CONTINUOUS
10
0.6778608267716535
20
-0.3134173622047244
11
0.6674979527559055
21
-0.3047218503937008
0
LINE
8
BLACK
6
CONTINUOUS
10
0.6674979527559055
20
-0.3047218503937008
11
0.6561956692913385
21
-0.2972882283464567
0
LINE
8
BLACK
6
CONTINUOUS
10
0.6561956692913385
20
-0.2972882283464567
11
0.6441067716535432
21
-0.291216968503937
0
LINE
8
BLACK
6
CONTINUOUS
10
0.6441067716535432
20
-0.291216968503937
11
0.631394842519685
21
-0.2865901968503937
0
LINE
8
BLACK
6
CONTINUOUS
10
0.631394842519685
20
-0.2865901968503937
11
0.6182316929133859
21
-0.2834704724409449
0
LINE
8
BLACK
6
CONTINUOUS
10
0.6182316929133859
20
-0.2834704724409449
11
0.6047953937007874
21
-0.2819
0
LINE
8
BLACK
6
CONTINUOUS
10
0.6047953937007874
20
-0.2819
11
0.5912675984251968
21
-0.2819
0
LINE
8
BLACK
6
CONTINUOUS
10
0.5912675984251968
20
-0.2819
11
0.5778312992125985
21
-0.2834704724409449
0
LINE
8
BLACK
6
CONTINUOUS
10
0.5778312992125985
20
-0.2834704724409449
11
0.5646681496062992
21
-0.2865901968503937
0
LINE
8
BLACK
6
CONTINUOUS
10
0.5646681496062992
20
-0.2865901968503937
11
0.551956220472441
21
-0.291216968503937
0
LINE
8
BLACK
6
CONTINUOUS
10
0.551956220472441
20
-0.291216968503937
11
0.5398673228346457
21
-0.2972882283464567
0
LINE
8
BLACK
6
CONTINUOUS
10
0.5398673228346457
20
-0.2972882283464567
11
0.5285650393700787
21
-0.3047218503937008
0
LINE
8
BLACK
6
CONTINUOUS
10
0.5285650393700787
20
-0.3047218503937008
11
0.5182021653543307
21
-0.3134173622047244
0
LINE
8
BLACK
6
CONTINUOUS
10
0.5182021653543307
20
-0.3134173622047244
11
0.5089188582677165
21
-0.3232570866141732
0
LINE
8
BLACK
6
CONTINUOUS
10
0.5089188582677165
20
-0.3232570866141732
11
0.5008406299212599
21
-0.334108031496063
0
LINE
8
BLACK
6
CONTINUOUS
10
0.5008406299212599
20
-0.334108031496063
11
0.4940767322834645
21
-0.3458234645669291
0
LINE
8
BLACK
6
CONTINUOUS
10
0.4940767322834645
20
-0.3458234645669291
11
0.4887186614173228
21
-0.3582448818897638
0
LINE
8
BLACK
6
CONTINUOUS
10
0.4887186614173228
20
-0.3582448818897638
11
0.4848388188976378
21
-0.3712043307086614
0
LINE
8
BLACK
6
CONTINUOUS
10
0.4848388188976378
20
-0.3712043307086614
11
0.4824897637795276
21
-0.3845266141732284
0
LINE
8
BLACK
6
CONTINUOUS
10
0.4824897637795276
20
-0.3845266141732284
11
0.4817031889763779
21
-0.3980314960629921
0
LINE
8
BLACK
6
CONTINUOUS
10
0.4817031889763779
20
-0.3980314960629921
11
0.4824897637795276
21
-0.4115363779527559
0
LINE
8
BLACK
6
CONTINUOUS
10
-0.5885250787401575
20
0.9212820472440945
11
-0.575250748031496
21
0.919026653543307
0
LINE
8
BLACK
6
CONTINUOUS
10
-0.575250748031496
20
0.919026653543307
11
-0.5623124015748031
21
0.9152991732283464
0
LINE
8
BLACK
6
CONTINUOUS
10
-0.5623124015748031
20
0.9152991732283464
11
-0.549872716535433
21
0.9101464960629921
0
LINE
8
BLACK
6
CONTINUOUS
10
-0.549872716535433
20
0.9101464960629921
11
-0.5380881889763779
21
0.9036334251968504
0
LINE
8
BLACK
6
CONTINUOUS
10
-0.5380881889763779
20
0.9036334251968504
11
-0.5271070078740158
21
0.8958418503937008
0
LINE
8
BLACK
6
CONTINUOUS
10
-0.5271070078740158
20
0.8958418503937008
11
-0.5170672440944882
21
0.8868697637795275
0
LINE
8
BLACK
6
CONTINUOUS
10
-0.5170672440944882
20
0.8868697637795275
11
-0.508095157480315
21
0.87683
0
LINE
8
BLACK
6
CONTINUOUS
10
-0.508095157480315
20
0.87683
11
-0.5003035826771653
21
0.8658488188976378
0
LINE
8
BLACK
6
CONTINUOUS
10
-0.5003035826771653
20
0.8658488188976378
11
-0.4937905118110236
21
0.8540642913385826
0
LINE
8
BLACK
6
CONTINUOUS
10
-0.4937905118110236
20
0.8540642913385826
11
-0.4886378346456693
21
0.8416246062992125
0
LINE
8
BLACK
6
CONTINUOUS
10
-0.4886378346456693
20
0.8416246062992125
11
-0.4849103543307087
21
0.8286862598425196
0
LINE
8
BLACK
6
CONTINUOUS
10
-0.4849103543307087
20
0.8286862598425196
11
-0.4826549606299212
21
0.8154119291338583
0
LINE
8
BLACK
6
CONTINUOUS
10
-0.4826549606299212
20
0.8154119291338583
11
-0.4819
21
0.8019685039370078
0
LINE
8
BLACK
6
CONTINUOUS
10
-0.4819
20
0.8019685039370078
11
-0.4826549606299212
21
0.7885250787401574
0
LINE
8
BLACK
6
CONTINUOUS
10
-0.4826549606299212
20
0.7885250787401574
11
-0.4849103543307087
21
0.7752507480314961
0
LINE
8
BLACK
6
CONTINUOUS
10
-0.4849103543307087
20
0.7752507480314961
11
-0.4886378346456693
21
0.7623124015748032
0
LINE
8
BLACK
6
CONTINUOUS
10
-0.4886378346456693
20
0.7623124015748032
11
-0.4937905118110236
21
0.7498727165354331
0
LINE
8
BLACK
6
CONTINUOUS
10
-0.4937905118110236
20
0.7498727165354331
11
-0.5003035826771653
21
0.738088188976378
0
LINE
8
BLACK
6
CONTINUOUS
10
-0.5003035826771653
20
0.738088188976378
11
-0.508095157480315
21
0.7271070078740157
0
LINE
8
BLACK
6
CONTINUOUS
10
-0.508095157480315
20
0.7271070078740157
11
-0.5170672440944882
21
0.7170672440944882
0
LINE
8
BLACK
6
CONTINUOUS
10
-0.5170672440944882
20
0.7170672440944882
11
-0.5271070078740158
21
0.7080951574803149
0
LINE
8
BLACK
6
CONTINUOUS
10
-0.5271070078740158
20
0.7080951574803149
11
-0.5380881889763779
21
0.7003035826771653
0
LINE
8
BLACK
6
CONTINUOUS
10
-0.5380881889763779
20
0.7003035826771653
11
-0.549872716535433
21
0.6937905118110236
0
LINE
8
BLACK
6
CONTINUOUS
10
-0.549872716535433
20
0.6937905118110236
11
-0.5623124015748031
21
0.6886378346456693
0
LINE
8
BLACK
6
CONTINUOUS
10
-0.5623124015748031
20
0.6886378346456693
11
-0.575250748031496
21
0.6849103543307087
0
LINE
8
BLACK
6
CONTINUOUS
10
-0.575250748031496
20
0.6849103543307087
11
-0.5885250787401575
21
0.6826549606299213
0
LINE
8
BLACK
6
CONTINUOUS
10
-0.5885250787401575
20
0.6826549606299213
11
-0.6019685039370078
21
0.6819
0
LINE
8
BLACK
6
CONTINUOUS
10
-0.6019685039370078
20
0.6819
11
-0.6154119291338582
21
0.6826549606299213
0
LINE
8
BLACK
6
CONTINUOUS
10
-0.6154119291338582
20
0.6826549606299213
11
-0.6286862598425197
21
0.6849103543307087
0
LINE
8
BLACK
6
CONTINUOUS
10
-0.6286862598425197
20
0.6849103543307087
11
-0.6416246062992126
21
0.6886378346456693
0
LINE
8
BLACK
6
CONTINUOUS
10
-0.6416246062992126
20
0.6886378346456693
11
-0.6540642913385827
21
0.6937905118110236
0
LINE
8
BLACK
6
CONTINUOUS
10
-0.6540642913385827
20
0.6937905118110236
11
-0.6658488188976378
21
0.7003035826771653
0
LINE
8
BLACK
6
CONTINUOUS
10
-0.6658488188976378
20
0.7003035826771653
11
-0.6768299999999999
21
0.7080951574803149
0
LINE
8
BLACK
6
CONTINUOUS
10
-0.6768299999999999
20
0.7080951574803149
11
-0.6868697637795276
21
0.7170672440944882
0
LINE
8
BLACK
6
CONTINUOUS
10
-0.6868697637795276
20
0.7170672440944882
11
-0.6958418503937007
21
0.7271070078740157
0
LINE
8
BLACK
6
CONTINUOUS
10
-0.6958418503937007
20
0.7271070078740157
11
-0.7036334251968503
21
0.738088188976378
0
LINE
8
BLACK
6
CONTINUOUS
10
-0.7036334251968503
20
0.738088188976378
11
-0.7101464960629921
21
0.7498727165354331
0
LINE
8
BLACK
6
CONTINUOUS
10
-0.7101464960629921
20
0.7498727165354331
11
-0.7152991732283465
21
0.7623124015748032
0
LINE
8
BLACK
6
CONTINUOUS
10
-0.7152991732283465
20
0.7623124015748032
11
-0.7190266535433071
21
0.7752507480314961
0
LINE
8
BLACK
6
CONTINUOUS
10
-0.7190266535433071
20
0.7752507480314961
11
-0.7212820472440945
21
0.7885250787401574
0
LINE
8
BLACK
6
CONTINUOUS
10
-0.7212820472440945
20
0.7885250787401574
11
-0.7220370078740157
21
0.8019685039370078
0
LINE
8
BLACK
6
CONTINUOUS
10
-0.7220370078740157
20
0.8019685039370078
11
-0.7212820472440945
21
0.8154119291338583
0
LINE
8
BLACK
6
CONTINUOUS
10
-0.7212820472440945
20
0.8154119291338583
11
-0.7190266535433071
21
0.8286862598425196
0
LINE
8
BLACK
6
CONTINUOUS
10
-0.7190266535433071
20
0.8286862598425196
11
-0.7152991732283465
21
0.8416246062992125
0
LINE
8
BLACK
6
CONTINUOUS
10
-0.7152991732283465
20
0.8416246062992125
11
-0.7101464960629921
21
0.8540642913385826
0
LINE
8
BLACK
6
CONTINUOUS
10
-0.7101464960629921
20
0.8540642913385826
11
-0.7036334251968503
21
0.8658488188976378
0
LINE
8
BLACK
6
CONTINUOUS
10
-0.7036334251968503
20
0.8658488188976378
11
-0.6958418503937007
21
0.87683
0
LINE
8
BLACK
6
CONTINUOUS
10
-0.6958418503937007
20
0.87683
11
-0.6868697637795276
21
0.8868697637795275
0
LINE
8
BLACK
6
CONTINUOUS
10
-0.6868697637795276
20
0.8868697637795275
11
-0.6768299999999999
21
0.8958418503937008
0
LINE
8
BLACK
6
CONTINUOUS
10
-0.6768299999999999
20
0.8958418503937008
11
-0.6658488188976378
21
0.9036334251968504
0
LINE
8
BLACK
6
CONTINUOUS
10
-0.6658488188976378
20
0.9036334251968504
11
-0.6540642913385827
21
0.9101464960629921
0
LINE
8
BLACK
6
CONTINUOUS
10
-0.6540642913385827
20
0.9101464960629921
11
-0.6416246062992126
21
0.9152991732283464
0
LINE
8
BLACK
6
CONTINUOUS
10
-0.6416246062992126
20
0.9152991732283464
11
-0.6286862598425197
21
0.919026653543307
0
LINE
8
BLACK
6
CONTINUOUS
10
-0.6286862598425197
20
0.919026653543307
11
-0.6154119291338582
21
0.9212820472440945
0
LINE
8
BLACK
6
CONTINUOUS
10
-0.6154119291338582
20
0.9212820472440945
11
-0.6019685039370078
21
0.9220370078740158
0
LINE
8
BLACK
6
CONTINUOUS
10
-0.6019685039370078
20
0.9220370078740158
11
-0.5885250787401575
21
0.9212820472440945
0
LINE
8
BLACK
6
CONTINUOUS
10
-0.7175102362204724
20
0.7884636220472441
11
-0.7151611811023622
21
0.7751413385826772
0
LINE
8
BLACK
6
CONTINUOUS
10
-0.7151611811023622
20
0.7751413385826772
11
-0.7112813385826772
21
0.7621818897637795
0
LINE
8
BLACK
6
CONTINUOUS
10
-0.7112813385826772
20
0.7621818897637795
11
-0.7059232677165355
21
0.7497604724409449
0
LINE
8
BLACK
6
CONTINUOUS
10
-0.7059232677165355
20
0.7497604724409449
11
-0.6991593700787402
21
0.7380450393700787
0
LINE
8
BLACK
6
CONTINUOUS
10
-0.6991593700787402
20
0.7380450393700787
11
-0.6910811417322834
21
0.7271940944881889
0
LINE
8
BLACK
6
CONTINUOUS
10
-0.6910811417322834
20
0.7271940944881889
11
-0.6817978346456692
21
0.7173543700787401
0
LINE
8
BLACK
6
CONTINUOUS
10
-0.6817978346456692
20
0.7173543700787401
11
-0.6714349606299213
21
0.7086588582677166
0
LINE
8
BLACK
6
CONTINUOUS
10
-0.6714349606299213
20
0.7086588582677166
11
-0.6601326771653543
21
0.7012252362204724
0
LINE
8
BLACK
6
CONTINUOUS
10
-0.6601326771653543
20
0.7012252362204724
11
-0.6480437795275591
21
0.6951539763779527
0
LINE
8
BLACK
6
CONTINUOUS
10
-0.6480437795275591
20
0.6951539763779527
11
-0.6353318503937008
21
0.6905272047244094
0
LINE
8
BLACK
6
CONTINUOUS
10
-0.6353318503937008
20
0.6905272047244094
11
-0.6221687007874016
21
0.6874074803149606
0
LINE
8
BLACK
6
CONTINUOUS
10
-0.6221687007874016
20
0.6874074803149606
11
-0.6087324015748031
21
0.6858370078740157
0
LINE
8
BLACK
6
CONTINUOUS
10
-0.6087324015748031
20
0.6858370078740157
11
-0.5952046062992126
21
0.6858370078740157
0
LINE
8
BLACK
6
CONTINUOUS
10
-0.5952046062992126
20
0.6858370078740157
11
-0.5817683070866142
21
0.6874074803149606
0
LINE
8
BLACK
6
CONTINUOUS
10
-0.5817683070866142
20
0.6874074803149606
11
-0.5686051574803149
21
0.6905272047244094
0
LINE
8
BLACK
6
CONTINUOUS
10
-0.5686051574803149
20
0.6905272047244094
11
-0.5558932283464567
21
0.6951539763779527
0
LINE
8
BLACK
6
CONTINUOUS
10
-0.5558932283464567
20
0.6951539763779527
11
-0.5438043307086614
21
0.7012252362204724
0
LINE
8
BLACK
6
CONTINUOUS
10
-0.5438043307086614
20
0.7012252362204724
11
-0.5325020472440944
21
0.7086588582677166
0
LINE
8
BLACK
6
CONTINUOUS
10
-0.5325020472440944
20
0.7086588582677166
11
-0.5221391732283465
21
0.7173543700787401
0
LINE
8
BLACK
6
CONTINUOUS
10
-0.5221391732283465
20
0.7173543700787401
11
-0.5128558661417323
21
0.7271940944881889
0
LINE
8
BLACK
6
CONTINUOUS
10
-0.5128558661417323
20
0.7271940944881889
11
-0.5047776377952756
21
0.7380450393700787
0
LINE
8
BLACK
6
CONTINUOUS
10
-0.5047776377952756
20
0.7380450393700787
11
-0.4980137401574803
21
0.7497604724409449
0
LINE
8
BLACK
6
CONTINUOUS
10
-0.4980137401574803
20
0.7497604724409449
11
-0.4926556692913386
21
0.7621818897637795
0
LINE
8
BLACK
6
CONTINUOUS
10
-0.4926556692913386
20
0.7621818897637795
11
-0.4887758267716535
21
0.7751413385826772
0
LINE
8
BLACK
6
CONTINUOUS
10
-0.4887758267716535
20
0.7751413385826772
11
-0.4864267716535433
21
0.7884636220472441
0
LINE
8
BLACK
6
CONTINUOUS
10
-0.4864267716535433
20
0.7884636220472441
11
-0.4856401968503937
21
0.8019685039370078
0
LINE
8
BLACK
6
CONTINUOUS
10
-0.4856401968503937
20
0.8019685039370078
11
-0.4864267716535433
21
0.8154733858267716
0
LINE
8
BLACK
6
CONTINUOUS
10
-0.4864267716535433
20
0.8154733858267716
11
-0.4887758267716535
21
0.8287956692913385
0
LINE
8
BLACK
6
CONTINUOUS
10
-0.4887758267716535
20
0.8287956692913385
11
-0.4926556692913386
21
0.8417551181102362
0
LINE
8
BLACK
6
CONTINUOUS
10
-0.4926556692913386
20
0.8417551181102362
11
-0.4980137401574803
21
0.8541765354330708
0
LINE
8
BLACK
6
CONTINUOUS
10
-0.4980137401574803
20
0.8541765354330708
11
-0.5047776377952756
21
0.865891968503937
0
LINE
8
BLACK
6
CONTINUOUS
10
-0.5047776377952756
20
0.865891968503937
11
-0.5128558661417323
21
0.8767429133858268
0
LINE
8
BLACK
6
CONTINUOUS
10
-0.5128558661417323
20
0.8767429133858268
11
-0.5221391732283465
21
0.8865826377952756
0
LINE
8
BLACK
6
CONTINUOUS
10
-0.5221391732283465
20
0.8865826377952756
11
-0.5325020472440944
21
0.8952781496062991
0
LINE
8
BLACK
6
CONTINUOUS
10
-0.5325020472440944
20
0.8952781496062991
11
-0.5438043307086614
21
0.9027117716535433
0
LINE
8
BLACK
6
CONTINUOUS
10
-0.5438043307086614
20
0.9027117716535433
11
-0.5558932283464567
21
0.908783031496063
0
LINE
8
BLACK
6
CONTINUOUS
10
-0.5558932283464567
20
0.908783031496063
11
-0.5686051574803149
21
0.9134098031496063
0
LINE
8
BLACK
6
CONTINUOUS
10
-0.5686051574803149
20
0.9134098031496063
11
-0.5817683070866142
21
0.9165295275590551
0
LINE
8
BLACK
6
CONTINUOUS
10
-0.5817683070866142
20
0.9165295275590551
11
-0.5952046062992126
21
0.9181
0
LINE
8
BLACK
6
CONTINUOUS
10
-0.5952046062992126
20
0.9181
11
-0.6087324015748031
21
0.9181
0
LINE
8
BLACK
6
CONTINUOUS
10
-0.6087324015748031
20
0.9181
11
-0.6221687007874016
21
0.9165295275590551
0
LINE
8
BLACK
6
CONTINUOUS
10
-0.6221687007874016
20
0.9165295275590551
11
-0.6353318503937008
21
0.9134098031496063
0
LINE
8
BLACK
6
CONTINUOUS
10
-0.6353318503937008
20
0.9134098031496063
11
-0.6480437795275591
21
0.908783031496063
0
LINE
8
BLACK
6
CONTINUOUS
10
-0.6480437795275591
20
0.908783031496063
11
-0.6601326771653543
21
0.9027117716535433
0
LINE
8
BLACK
6
CONTINUOUS
10
-0.6601326771653543
20
0.9027117716535433
11
-0.6714349606299213
21
0.8952781496062991
0
LINE
8
BLACK
6
CONTINUOUS
10
-0.6714349606299213
20
0.8952781496062991
11
-0.6817978346456692
21
0.8865826377952756
0
LINE
8
BLACK
6
CONTINUOUS
10
-0.6817978346456692
20
0.8865826377952756
11
-0.6910811417322834
21
0.8767429133858268
0
LINE
8
BLACK
6
CONTINUOUS
10
-0.6910811417322834
20
0.8767429133858268
11
-0.6991593700787402
21
0.865891968503937
0
LINE
8
BLACK
6
CONTINUOUS
10
-0.6991593700787402
20
0.865891968503937
11
-0.7059232677165355
21
0.8541765354330708
0
LINE
8
BLACK
6
CONTINUOUS
10
-0.7059232677165355
20
0.8541765354330708
11
-0.7112813385826772
21
0.8417551181102362
0
LINE
8
BLACK
6
CONTINUOUS
10
-0.7112813385826772
20
0.8417551181102362
11
-0.7151611811023622
21
0.8287956692913385
0
LINE
8
BLACK
6
CONTINUOUS
10
-0.7151611811023622
20
0.8287956692913385
11
-0.7175102362204724
21
0.8154733858267716
0
LINE
8
BLACK
6
CONTINUOUS
10
-0.7175102362204724
20
0.8154733858267716
11
-0.7182968110236221
21
0.8019685039370078
0
LINE
8
BLACK
6
CONTINUOUS
10
-0.7182968110236221
20
0.8019685039370078
11
-0.7175102362204724
21
0.7884636220472441
0
LINE
8
BLACK
6
CONTINUOUS
10
0.6114749212598425
20
0.9212820472440945
11
0.6247492519685039
21
0.919026653543307
0
LINE
8
BLACK
6
CONTINUOUS
10
0.6247492519685039
20
0.919026653543307
11
0.6376875984251968
21
0.9152991732283464
0
LINE
8
BLACK
6
CONTINUOUS
10
0.6376875984251968
20
0.9152991732283464
11
0.6501272834645669
21
0.9101464960629921
0
LINE
8
BLACK
6
CONTINUOUS
10
0.6501272834645669
20
0.9101464960629921
11
0.6619118110236221
21
0.9036334251968504
0
LINE
8
BLACK
6
CONTINUOUS
10
0.6619118110236221
20
0.9036334251968504
11
0.6728929921259842
21
0.8958418503937008
0
LINE
8
BLACK
6
CONTINUOUS
10
0.6728929921259842
20
0.8958418503937008
11
0.6829327559055118
21
0.8868697637795275
0
LINE
8
BLACK
6
CONTINUOUS
10
0.6829327559055118
20
0.8868697637795275
11
0.691904842519685
21
0.87683
0
LINE
8
BLACK
6
CONTINUOUS
10
0.691904842519685
20
0.87683
11
0.6996964173228346
21
0.8658488188976378
0
LINE
8
BLACK
6
CONTINUOUS
10
0.6996964173228346
20
0.8658488188976378
11
0.7062094881889763
21
0.8540642913385826
0
LINE
8
BLACK
6
CONTINUOUS
10
0.7062094881889763
20
0.8540642913385826
11
0.7113621653543307
21
0.8416246062992125
0
LINE
8
BLACK
6
CONTINUOUS
10
0.7113621653543307
20
0.8416246062992125
11
0.7150896456692913
21
0.8286862598425196
0
LINE
8
BLACK
6
CONTINUOUS
10
0.7150896456692913
20
0.8286862598425196
11
0.7173450393700788
21
0.8154119291338583
0
LINE
8
BLACK
6
CONTINUOUS
10
0.7173450393700788
20
0.8154119291338583
11
0.7181
21
0.8019685039370078
0
LINE
8
BLACK
6
CONTINUOUS
10
0.7181
20
0.8019685039370078
11
0.7173450393700788
21
0.7885250787401574
0
LINE
8
BLACK
6
CONTINUOUS
10
0.7173450393700788
20
0.7885250787401574
11
0.7150896456692913
21
0.7752507480314961
0
LINE
8
BLACK
6
CONTINUOUS
10
0.7150896456692913
20
0.7752507480314961
11
0.7113621653543307
21
0.7623124015748032
0
LINE
8
BLACK
6
CONTINUOUS
10
0.7113621653543307
20
0.7623124015748032
11
0.7062094881889763
21
0.7498727165354331
0
LINE
8
BLACK
6
CONTINUOUS
10
0.7062094881889763
20
0.7498727165354331
11
0.6996964173228346
21
0.738088188976378
0
LINE
8
BLACK
6
CONTINUOUS
10
0.6996964173228346
20
0.738088188976378
11
0.691904842519685
21
0.7271070078740157
0
LINE
8
BLACK
6
CONTINUOUS
10
0.691904842519685
20
0.7271070078740157
11
0.6829327559055118
21
0.7170672440944882
0
LINE
8
BLACK
6
CONTINUOUS
10
0.6829327559055118
20
0.7170672440944882
11
0.6728929921259842
21
0.7080951574803149
0
LINE
8
BLACK
6
CONTINUOUS
10
0.6728929921259842
20
0.7080951574803149
11
0.6619118110236221
21
0.7003035826771653
0
LINE
8
BLACK
6
CONTINUOUS
10
0.6619118110236221
20
0.7003035826771653
11
0.6501272834645669
21
0.6937905118110236
0
LINE
8
BLACK
6
CONTINUOUS
10
0.6501272834645669
20
0.6937905118110236
11
0.6376875984251968
21
0.6886378346456693
0
LINE
8
BLACK
6
CONTINUOUS
10
0.6376875984251968
20
0.6886378346456693
11
0.6247492519685039
21
0.6849103543307087
0
LINE
8
BLACK
6
CONTINUOUS
10
0.6247492519685039
20
0.6849103543307087
11
0.6114749212598425
21
0.6826549606299213
0
LINE
8
BLACK
6
CONTINUOUS
10
0.6114749212598425
20
0.6826549606299213
11
0.5980314960629921
21
0.6819
0
LINE
8
BLACK
6
CONTINUOUS
10
0.5980314960629921
20
0.6819
11
0.5845880708661417
21
0.6826549606299213
0
LINE
8
BLACK
6
CONTINUOUS
10
0.5845880708661417
20
0.6826549606299213
11
0.5713137401574803
21
0.6849103543307087
0
LINE
8
BLACK
6
CONTINUOUS
10
0.5713137401574803
20
0.6849103543307087
11
0.5583753937007874
21
0.6886378346456693
0
LINE
8
BLACK
6
CONTINUOUS
10
0.5583753937007874
20
0.6886378346456693
11
0.5459357086614173
21
0.6937905118110236
0
LINE
8
BLACK
6
CONTINUOUS
10
0.5459357086614173
20
0.6937905118110236
11
0.5341511811023621
21
0.7003035826771653
0
LINE
8
BLACK
6
CONTINUOUS
10
0.5341511811023621
20
0.7003035826771653
11
0.52317
21
0.7080951574803149
0
LINE
8
BLACK
6
CONTINUOUS
10
0.52317
20
0.7080951574803149
11
0.5131302362204724
21
0.7170672440944882
0
LINE
8
BLACK
6
CONTINUOUS
10
0.5131302362204724
20
0.7170672440944882
11
0.5041581496062992
21
0.7271070078740157
0
LINE
8
BLACK
6
CONTINUOUS
10
0.5041581496062992
20
0.7271070078740157
11
0.4963665748031496
21
0.738088188976378
0
LINE
8
BLACK
6
CONTINUOUS
10
0.4963665748031496
20
0.738088188976378
11
0.4898535039370079
21
0.7498727165354331
0
LINE
8
BLACK
6
CONTINUOUS
10
0.4898535039370079
20
0.7498727165354331
11
0.4847008267716535
21
0.7623124015748032
0
LINE
8
BLACK
6
CONTINUOUS
10
0.4847008267716535
20
0.7623124015748032
11
0.4809733464566929
21
0.7752507480314961
0
LINE
8
BLACK
6
CONTINUOUS
10
0.4809733464566929
20
0.7752507480314961
11
0.4787179527559055
21
0.7885250787401574
0
LINE
8
BLACK
6
CONTINUOUS
10
0.4787179527559055
20
0.7885250787401574
11
0.4779629921259843
21
0.8019685039370078
0
LINE
8
BLACK
6
CONTINUOUS
10
0.4779629921259843
20
0.8019685039370078
11
0.4787179527559055
21
0.8154119291338583
0
LINE
8
BLACK
6
CONTINUOUS
10
0.4787179527559055
20
0.8154119291338583
11
0.4809733464566929
21
0.8286862598425196
0
LINE
8
BLACK
6
CONTINUOUS
10
0.4809733464566929
20
0.8286862598425196
11
0.4847008267716535
21
0.8416246062992125
0
LINE
8
BLACK
6
CONTINUOUS
10
0.4847008267716535
20
0.8416246062992125
11
0.4898535039370079
21
0.8540642913385826
0
LINE
8
BLACK
6
CONTINUOUS
10
0.4898535039370079
20
0.8540642913385826
11
0.4963665748031496
21
0.8658488188976378
0
LINE
8
BLACK
6
CONTINUOUS
10
0.4963665748031496
20
0.8658488188976378
11
0.5041581496062992
21
0.87683
0
LINE
8
BLACK
6
CONTINUOUS
10
0.5041581496062992
20
0.87683
11
0.5131302362204724
21
0.8868697637795275
0
LINE
8
BLACK
6
CONTINUOUS
10
0.5131302362204724
20
0.8868697637795275
11
0.52317
21
0.8958418503937008
0
LINE
8
BLACK
6
CONTINUOUS
10
0.52317
20
0.8958418503937008
11
0.5341511811023621
21
0.9036334251968504
0
LINE
8
BLACK
6
CONTINUOUS
10
0.5341511811023621
20
0.9036334251968504
11
0.5459357086614173
21
0.9101464960629921
0
LINE
8
BLACK
6
CONTINUOUS
10
0.5459357086614173
20
0.9101464960629921
11
0.5583753937007874
21
0.9152991732283464
0
LINE
8
BLACK
6
CONTINUOUS
10
0.5583753937007874
20
0.9152991732283464
11
0.5713137401574803
21
0.919026653543307
0
LINE
8
BLACK
6
CONTINUOUS
10
0.5713137401574803
20
0.919026653543307
11
0.5845880708661417
21
0.9212820472440945
0
LINE
8
BLACK
6
CONTINUOUS
10
0.5845880708661417
20
0.9212820472440945
11
0.5980314960629921
21
0.9220370078740158
0
LINE
8
BLACK
6
CONTINUOUS
10
0.5980314960629921
20
0.9220370078740158
11
0.6114749212598425
21
0.9212820472440945
0
LINE
8
BLACK
6
CONTINUOUS
10
0.4824897637795276
20
0.7884636220472441
11
0.4848388188976378
21
0.7751413385826772
0
LINE
8
BLACK
6
CONTINUOUS
10
0.4848388188976378
20
0.7751413385826772
11
0.4887186614173228
21
0.7621818897637795
0
LINE
8
BLACK
6
CONTINUOUS
10
0.4887186614173228
20
0.7621818897637795
11
0.4940767322834645
21
0.7497604724409449
0
LINE
8
BLACK
6
CONTINUOUS
10
0.4940767322834645
20
0.7497604724409449
11
0.5008406299212599
21
0.7380450393700787
0
LINE
8
BLACK
6
CONTINUOUS
10
0.5008406299212599
20
0.7380450393700787
11
0.5089188582677165
21
0.7271940944881889
0
LINE
8
BLACK
6
CONTINUOUS
10
0.5089188582677165
20
0.7271940944881889
11
0.5182021653543307
21
0.7173543700787401
0
LINE
8
BLACK
6
CONTINUOUS
10
0.5182021653543307
20
0.7173543700787401
11
0.5285650393700787
21
0.7086588582677166
0
LINE
8
BLACK
6
CONTINUOUS
10
0.5285650393700787
20
0.7086588582677166
11
0.5398673228346457
21
0.7012252362204724
0
LINE
8
BLACK
6
CONTINUOUS
10
0.5398673228346457
20
0.7012252362204724
11
0.551956220472441
21
0.6951539763779527
0
LINE
8
BLACK
6
CONTINUOUS
10
0.551956220472441
20
0.6951539763779527
11
0.5646681496062992
21
0.6905272047244094
0
LINE
8
BLACK
6
CONTINUOUS
10
0.5646681496062992
20
0.6905272047244094
11
0.5778312992125985
21
0.6874074803149606
0
LINE
8
BLACK
6
CONTINUOUS
10
0.5778312992125985
20
0.6874074803149606
11
0.5912675984251968
21
0.6858370078740157
0
LINE
8
BLACK
6
CONTINUOUS
10
0.5912675984251968
20
0.6858370078740157
11
0.6047953937007874
21
0.6858370078740157
0
LINE
8
BLACK
6
CONTINUOUS
10
0.6047953937007874
20
0.6858370078740157
11
0.6182316929133859
21
0.6874074803149606
0
LINE
8
BLACK
6
CONTINUOUS
10
0.6182316929133859
20
0.6874074803149606
11
0.631394842519685
21
0.6905272047244094
0
LINE
8
BLACK
6
CONTINUOUS
10
0.631394842519685
20
0.6905272047244094
11
0.6441067716535432
21
0.6951539763779527
0
LINE
8
BLACK
6
CONTINUOUS
10
0.6441067716535432
20
0.6951539763779527
11
0.6561956692913385
21
0.7012252362204724
0
LINE
8
BLACK
6
CONTINUOUS
10
0.6561956692913385
20
0.7012252362204724
11
0.6674979527559055
21
0.7086588582677166
0
LINE
8
BLACK
6
CONTINUOUS
10
0.6674979527559055
20
0.7086588582677166
11
0.6778608267716535
21
0.7173543700787401
0
LINE
8
BLACK
6
CONTINUOUS
10
0.6778608267716535
20
0.7173543700787401
11
0.6871441338582677
21
0.7271940944881889
0
LINE
8
BLACK
6
CONTINUOUS
10
0.6871441338582677
20
0.7271940944881889
11
0.6952223622047244
21
0.7380450393700787
0
LINE
8
BLACK
6
CONTINUOUS
10
0.6952223622047244
20
0.7380450393700787
11
0.7019862598425197
21
0.7497604724409449
0
LINE
8
BLACK
6
CONTINUOUS
10
0.7019862598425197
20
0.7497604724409449
11
0.7073443307086614
21
0.7621818897637795
0
LINE
8
BLACK
6
CONTINUOUS
10
0.7073443307086614
20
0.7621818897637795
11
0.7112241732283464
21
0.7751413385826772
0
LINE
8
BLACK
6
CONTINUOUS
10
0.7112241732283464
20
0.7751413385826772
11
0.7135732283464566
21
0.7884636220472441
0
LINE
8
BLACK
6
CONTINUOUS
10
0.7135732283464566
20
0.7884636220472441
11
0.7143598031496062
21
0.8019685039370078
0
LINE
8
BLACK
6
CONTINUOUS
10
0.7143598031496062
20
0.8019685039370078
11
0.7135732283464566
21
0.8154733858267716
0
LINE
8
BLACK
6
CONTINUOUS
10
0.7135732283464566
20
0.8154733858267716
11
0.7112241732283464
21
0.8287956692913385
0
LINE
8
BLACK
6
CONTINUOUS
10
0.7112241732283464
20
0.8287956692913385
11
0.7073443307086614
21
0.8417551181102362
0
LINE
8
BLACK
6
CONTINUOUS
10
0.7073443307086614
20
0.8417551181102362
11
0.7019862598425197
21
0.8541765354330708
0
LINE
8
BLACK
6
CONTINUOUS
10
0.7019862598425197
20
0.8541765354330708
11
0.6952223622047244
21
0.865891968503937
0
LINE
8
BLACK
6
CONTINUOUS
10
0.6952223622047244
20
0.865891968503937
11
0.6871441338582677
21
0.8767429133858268
0
LINE
8
BLACK
6
CONTINUOUS
10
0.6871441338582677
20
0.8767429133858268
11
0.6778608267716535
21
0.8865826377952756
0
LINE
8
BLACK
6
CONTINUOUS
10
0.6778608267716535
20
0.8865826377952756
11
0.6674979527559055
21
0.8952781496062991
0
LINE
8
BLACK
6
CONTINUOUS
10
0.6674979527559055
20
0.8952781496062991
11
0.6561956692913385
21
0.9027117716535433
0
LINE
8
BLACK
6
CONTINUOUS
10
0.6561956692913385
20
0.9027117716535433
11
0.6441067716535432
21
0.908783031496063
0
LINE
8
BLACK
6
CONTINUOUS
10
0.6441067716535432
20
0.908783031496063
11
0.631394842519685
21
0.9134098031496063
0
LINE
8
BLACK
6
CONTINUOUS
10
0.631394842519685
20
0.9134098031496063
11
0.6182316929133859
21
0.9165295275590551
0
LINE
8
BLACK
6
CONTINUOUS
10
0.6182316929133859
20
0.9165295275590551
11
0.6047953937007874
21
0.9181
0
LINE
8
BLACK
6
CONTINUOUS
10
0.6047953937007874
20
0.9181
11
0.5912675984251968
21
0.9181
0
LINE
8
BLACK
6
CONTINUOUS
10
0.5912675984251968
20
0.9181
11
0.5778312992125985
21
0.9165295275590551
0
LINE
8
BLACK
6
CONTINUOUS
10
0.5778312992125985
20
0.9165295275590551
11
0.5646681496062992
21
0.9134098031496063
0
LINE
8
BLACK
6
CONTINUOUS
10
0.5646681496062992
20
0.9134098031496063
11
0.551956220472441
21
0.908783031496063
0
LINE
8
BLACK
6
CONTINUOUS
10
0.551956220472441
20
0.908783031496063
11
0.5398673228346457
21
0.9027117716535433
0
LINE
8
BLACK
6
CONTINUOUS
10
0.5398673228346457
20
0.9027117716535433
11
0.5285650393700787
21
0.8952781496062991
0
LINE
8
BLACK
6
CONTINUOUS
10
0.5285650393700787
20
0.8952781496062991
11
0.5182021653543307
21
0.8865826377952756
0
LINE
8
BLACK
6
CONTINUOUS
10
0.5182021653543307
20
0.8865826377952756
11
0.5089188582677165
21
0.8767429133858268
0
LINE
8
BLACK
6
CONTINUOUS
10
0.5089188582677165
20
0.8767429133858268
11
0.5008406299212599
21
0.865891968503937
0
LINE
8
BLACK
6
CONTINUOUS
10
0.5008406299212599
20
0.865891968503937
11
0.4940767322834645
21
0.8541765354330708
0
LINE
8
BLACK
6
CONTINUOUS
10
0.4940767322834645
20
0.8541765354330708
11
0.4887186614173228
21
0.8417551181102362
0
LINE
8
BLACK
6
CONTINUOUS
10
0.4887186614173228
20
0.8417551181102362
11
0.4848388188976378
21
0.8287956692913385
0
LINE
8
BLACK
6
CONTINUOUS
10
0.4848388188976378
20
0.8287956692913385
11
0.4824897637795276
21
0.8154733858267716
0
LINE
8
BLACK
6
CONTINUOUS
10
0.4824897637795276
20
0.8154733858267716
11
0.4817031889763779
21
0.8019685039370078
0
LINE
8
BLACK
6
CONTINUOUS
10
0.4817031889763779
20
0.8019685039370078
11
0.4824897637795276
21
0.7884636220472441
0
CIRCLE
8
BLACK
10
0.3868110236220472
20
-0.5023622047244094
40
0.0068897637795276
0
CIRCLE
8
BLACK
10
0.2868110236220472
20
-0.5023622047244094
40
0.0068897637795276
0
CIRCLE
8
BLACK
10
0.1868110236220472
20
-0.5023622047244094
40
0.0068897637795276
0
CIRCLE
8
BLACK
10
0.5980314960629921
20
-0.3980314960629921
40
0.0068897637795276
0
CIRCLE
8
BLACK
10
-0.6019685039370078
20
-0.3980314960629921
40
0.0068897637795276
0
CIRCLE
8
BLACK
10
0.5980314960629921
20
0.8019685039370078
40
0.0068897637795276
0
CIRCLE
8
BLACK
10
0.0318897637795276
20
-0.408267716535433
40
0.0068897637795276
0
CIRCLE
8
BLACK
10
0.0318897637795276
20
-0.508267716535433
40
0.0068897637795276
0
CIRCLE
8
BLACK
10
-0.0681102362204724
20
-0.408267716535433
40
0.0068897637795276
0
CIRCLE
8
BLACK
10
-0.0681102362204724
20
-0.508267716535433
40
0.0068897637795276
0
CIRCLE
8
BLACK
10
-0.1681102362204724
20
-0.408267716535433
40
0.0068897637795276
0
CIRCLE
8
BLACK
10
-0.1681102362204724
20
-0.508267716535433
40
0.0068897637795276
0
CIRCLE
8
BLACK
10
-0.2681102362204724
20
-0.408267716535433
40
0.0068897637795276
0
CIRCLE
8
BLACK
10
-0.2681102362204724
20
-0.508267716535433
40
0.0068897637795276
0
CIRCLE
8
BLACK
10
-0.3681102362204725
20
-0.408267716535433
40
0.0068897637795276
0
CIRCLE
8
BLACK
10
-0.3681102362204725
20
-0.508267716535433
40
0.0068897637795276
0
CIRCLE
8
BLACK
10
-0.6019685039370078
20
0.8019685039370078
40
0.0068897637795276
  0
ENDSEC
  0
EOF
