  0
SECTION
  2
HEADER
  9
$ANGBASE
  50
0.0
  9
$ANGDIR
  70
1
  9
$MEASUREMENT
  70
0
  0
ENDSEC
  0
SECTION
  2
TABLES
  0
TABLE
  2
LTYPE
  70
4
  0
LTYPE
  5
40F
  2
CONTINUOUS
  70
0
  3
Solid line
  72
65
  73
0
  40
0.0
  0
LTYPE
  5
410
  2
DASHDOT
 70
0
  3
Dash Dot ____ _ ____ _
 72
65
 73
4
 40
2.0
 49
1.25
 49
-0.25
 49
0.25
 49
-0.25
  0
LTYPE
  5
411
  2
DASHED
 70
0
  3
Dashed __ __ __ __ __
 72
65
 73
2
 40
0.75
 49
0.5
 49
-0.25
  0
LTYPE
  5
43B
  2
DOTTED
 70
0
  3
Dotted .  .  .  .
 72
65
 73
2
 40
0.2
 49
0.0
 49
-0.2
  0
ENDTAB
  0
TABLE
  2
STYLE
  70
4
  0
STYLE
  2
KICAD
  70
0
  40
0
  41
1
  42
1
  50
0
  71
0
  3
isocp.shx
  0
STYLE
  2
KICADB
  70
0
  40
0
  41
1
  42
1
  50
0
  71
0
  3
isocp.shx
  0
STYLE
  2
KICADI
  70
0
  40
0
  41
1
  42
1
  50
15
  71
0
  3
isocp.shx
  0
STYLE
  2
KICADBI
  70
0
  40
0
  41
1
  42
1
  50
15
  71
0
  3
isocp.shx
  0
ENDTAB
  0
TABLE
  2
LAYER
  70
1
  0
LAYER
  2
BLACK
  70
0
  62
7
  6
CONTINUOUS
  0
ENDTAB
  0
ENDSEC
  0
SECTION
  2
ENTITIES
0
LINE
8
BLACK
6
CONTINUOUS
10
0.1031325590551181
20
-0.3364922440944882
11
0.1036652362204724
21
-0.3370249212598425
0
LINE
8
BLACK
6
CONTINUOUS
10
0.1036652362204724
20
-0.3370249212598425
11
0.103740157480315
21
-0.3374015748031496
0
LINE
8
BLACK
6
CONTINUOUS
10
0.103740157480315
20
-0.3374015748031496
11
0.103740157480315
21
-0.5795275590551181
0
LINE
8
BLACK
6
CONTINUOUS
10
0.103740157480315
20
-0.5795275590551181
11
0.1036652362204724
21
-0.5799042125984252
0
LINE
8
BLACK
6
CONTINUOUS
10
0.1036652362204724
20
-0.5799042125984252
11
0.1031325590551181
21
-0.5804368897637795
0
LINE
8
BLACK
6
CONTINUOUS
10
0.1031325590551181
20
-0.5804368897637795
11
0.102755905511811
21
-0.580511811023622
0
LINE
8
BLACK
6
CONTINUOUS
10
0.102755905511811
20
-0.580511811023622
11
-0.4385826771653543
21
-0.580511811023622
0
LINE
8
BLACK
6
CONTINUOUS
10
-0.4385826771653543
20
-0.580511811023622
11
-0.4389593307086614
21
-0.5804368897637795
0
LINE
8
BLACK
6
CONTINUOUS
10
-0.4389593307086614
20
-0.5804368897637795
11
-0.4394920078740157
21
-0.5799042125984252
0
LINE
8
BLACK
6
CONTINUOUS
10
-0.4394920078740157
20
-0.5799042125984252
11
-0.4395669291338583
21
-0.5795275590551181
0
LINE
8
BLACK
6
CONTINUOUS
10
-0.4395669291338583
20
-0.5795275590551181
11
-0.4395669291338583
21
-0.3374015748031496
0
LINE
8
BLACK
6
CONTINUOUS
10
-0.4395669291338583
20
-0.3374015748031496
11
-0.4394920078740157
21
-0.3370249212598425
0
LINE
8
BLACK
6
CONTINUOUS
10
-0.4394920078740157
20
-0.3370249212598425
11
-0.4389593307086614
21
-0.3364922440944882
0
LINE
8
BLACK
6
CONTINUOUS
10
-0.4389593307086614
20
-0.3364922440944882
11
-0.4385826771653543
21
-0.3364173228346456
0
LINE
8
BLACK
6
CONTINUOUS
10
-0.4385826771653543
20
-0.3364173228346456
11
0.102755905511811
21
-0.3364173228346456
0
LINE
8
BLACK
6
CONTINUOUS
10
0.102755905511811
20
-0.3364173228346456
11
0.1031325590551181
21
-0.3364922440944882
0
LINE
8
BLACK
6
CONTINUOUS
10
-0.4375984251968504
20
-0.3383858267716535
11
-0.4375984251968504
21
-0.5785433070866142
0
LINE
8
BLACK
6
CONTINUOUS
10
-0.4375984251968504
20
-0.5785433070866142
11
0.1017716535433071
21
-0.5785433070866142
0
LINE
8
BLACK
6
CONTINUOUS
10
0.1017716535433071
20
-0.5785433070866142
11
0.1017716535433071
21
-0.3383858267716535
0
LINE
8
BLACK
6
CONTINUOUS
10
0.1017716535433071
20
-0.3383858267716535
11
-0.4375984251968504
21
-0.3383858267716535
0
LINE
8
BLACK
6
CONTINUOUS
10
0.4580538188976378
20
-0.4305867322834646
11
0.4585864960629921
21
-0.4311194094488189
0
LINE
8
BLACK
6
CONTINUOUS
10
0.4585864960629921
20
-0.4311194094488189
11
0.4586614173228346
21
-0.431496062992126
0
LINE
8
BLACK
6
CONTINUOUS
10
0.4586614173228346
20
-0.431496062992126
11
0.4586614173228346
21
-0.5732283464566928
0
LINE
8
BLACK
6
CONTINUOUS
10
0.4586614173228346
20
-0.5732283464566928
11
0.4585864960629921
21
-0.573605
0
LINE
8
BLACK
6
CONTINUOUS
10
0.4585864960629921
20
-0.573605
11
0.4580538188976378
21
-0.5741376771653544
0
LINE
8
BLACK
6
CONTINUOUS
10
0.4580538188976378
20
-0.5741376771653544
11
0.4576771653543307
21
-0.5742125984251968
0
LINE
8
BLACK
6
CONTINUOUS
10
0.4576771653543307
20
-0.5742125984251968
11
0.1171259842519685
21
-0.5742125984251968
0
LINE
8
BLACK
6
CONTINUOUS
10
0.1171259842519685
20
-0.5742125984251968
11
0.1167493307086614
21
-0.5741376771653544
0
LINE
8
BLACK
6
CONTINUOUS
10
0.1167493307086614
20
-0.5741376771653544
11
0.1162166535433071
21
-0.573605
0
LINE
8
BLACK
6
CONTINUOUS
10
0.1162166535433071
20
-0.573605
11
0.1161417322834646
21
-0.5732283464566928
0
LINE
8
BLACK
6
CONTINUOUS
10
0.1161417322834646
20
-0.5732283464566928
11
0.1161417322834646
21
-0.431496062992126
0
LINE
8
BLACK
6
CONTINUOUS
10
0.1161417322834646
20
-0.431496062992126
11
0.1162166535433071
21
-0.4311194094488189
0
LINE
8
BLACK
6
CONTINUOUS
10
0.1162166535433071
20
-0.4311194094488189
11
0.1167493307086614
21
-0.4305867322834646
0
LINE
8
BLACK
6
CONTINUOUS
10
0.1167493307086614
20
-0.4305867322834646
11
0.1171259842519685
21
-0.430511811023622
0
LINE
8
BLACK
6
CONTINUOUS
10
0.1171259842519685
20
-0.430511811023622
11
0.4576771653543307
21
-0.430511811023622
0
LINE
8
BLACK
6
CONTINUOUS
10
0.4576771653543307
20
-0.430511811023622
11
0.4580538188976378
21
-0.4305867322834646
0
LINE
8
BLACK
6
CONTINUOUS
10
0.1181102362204724
20
-0.4324803149606299
11
0.1181102362204724
21
-0.5722440944881889
0
LINE
8
BLACK
6
CONTINUOUS
10
0.1181102362204724
20
-0.5722440944881889
11
0.4566929133858267
21
-0.5722440944881889
0
LINE
8
BLACK
6
CONTINUOUS
10
0.4566929133858267
20
-0.5722440944881889
11
0.4566929133858267
21
-0.4324803149606299
0
LINE
8
BLACK
6
CONTINUOUS
10
0.4566929133858267
20
-0.4324803149606299
11
0.1181102362204724
21
-0.4324803149606299
0
CIRCLE
8
BLACK
10
0.3868110236220472
20
-0.5023622047244094
40
0.0068897637795276
0
CIRCLE
8
BLACK
10
0.2868110236220472
20
-0.5023622047244094
40
0.0068897637795276
0
CIRCLE
8
BLACK
10
0.1868110236220472
20
-0.5023622047244094
40
0.0068897637795276
0
CIRCLE
8
BLACK
10
0.5980314960629921
20
-0.3980314960629921
40
0.0068897637795276
0
CIRCLE
8
BLACK
10
-0.6019685039370078
20
-0.3980314960629921
40
0.0068897637795276
0
CIRCLE
8
BLACK
10
0.5980314960629921
20
0.8019685039370078
40
0.0068897637795276
0
CIRCLE
8
BLACK
10
0.0318897637795276
20
-0.408267716535433
40
0.0068897637795276
0
CIRCLE
8
BLACK
10
0.0318897637795276
20
-0.508267716535433
40
0.0068897637795276
0
CIRCLE
8
BLACK
10
-0.0681102362204724
20
-0.408267716535433
40
0.0068897637795276
0
CIRCLE
8
BLACK
10
-0.0681102362204724
20
-0.508267716535433
40
0.0068897637795276
0
CIRCLE
8
BLACK
10
-0.1681102362204724
20
-0.408267716535433
40
0.0068897637795276
0
CIRCLE
8
BLACK
10
-0.1681102362204724
20
-0.508267716535433
40
0.0068897637795276
0
CIRCLE
8
BLACK
10
-0.2681102362204724
20
-0.408267716535433
40
0.0068897637795276
0
CIRCLE
8
BLACK
10
-0.2681102362204724
20
-0.508267716535433
40
0.0068897637795276
0
CIRCLE
8
BLACK
10
-0.3681102362204725
20
-0.408267716535433
40
0.0068897637795276
0
CIRCLE
8
BLACK
10
-0.3681102362204725
20
-0.508267716535433
40
0.0068897637795276
0
CIRCLE
8
BLACK
10
-0.6019685039370078
20
0.8019685039370078
40
0.0068897637795276
  0
ENDSEC
  0
EOF
