  0
SECTION
  2
HEADER
  9
$ANGBASE
  50
0.0
  9
$ANGDIR
  70
1
  9
$MEASUREMENT
  70
0
  0
ENDSEC
  0
SECTION
  2
TABLES
  0
TABLE
  2
LTYPE
  70
4
  0
LTYPE
  5
40F
  2
CONTINUOUS
  70
0
  3
Solid line
  72
65
  73
0
  40
0.0
  0
LTYPE
  5
410
  2
DASHDOT
 70
0
  3
Dash Dot ____ _ ____ _
 72
65
 73
4
 40
2.0
 49
1.25
 49
-0.25
 49
0.25
 49
-0.25
  0
LTYPE
  5
411
  2
DASHED
 70
0
  3
Dashed __ __ __ __ __
 72
65
 73
2
 40
0.75
 49
0.5
 49
-0.25
  0
LTYPE
  5
43B
  2
DOTTED
 70
0
  3
Dotted .  .  .  .
 72
65
 73
2
 40
0.2
 49
0.0
 49
-0.2
  0
ENDTAB
  0
TABLE
  2
STYLE
  70
4
  0
STYLE
  2
KICAD
  70
0
  40
0
  41
1
  42
1
  50
0
  71
0
  3
isocp.shx
  0
STYLE
  2
KICADB
  70
0
  40
0
  41
1
  42
1
  50
0
  71
0
  3
isocp.shx
  0
STYLE
  2
KICADI
  70
0
  40
0
  41
1
  42
1
  50
15
  71
0
  3
isocp.shx
  0
STYLE
  2
KICADBI
  70
0
  40
0
  41
1
  42
1
  50
15
  71
0
  3
isocp.shx
  0
ENDTAB
  0
TABLE
  2
LAYER
  70
1
  0
LAYER
  2
BLACK
  70
0
  62
7
  6
CONTINUOUS
  0
ENDTAB
  0
ENDSEC
  0
SECTION
  2
ENTITIES
0
LINE
8
BLACK
6
CONTINUOUS
10
0.3184868897637795
20
-0.2778308267716535
11
0.3190195669291339
21
-0.2783635039370079
0
LINE
8
BLACK
6
CONTINUOUS
10
0.3190195669291339
20
-0.2783635039370079
11
0.3190944881889763
21
-0.2787401574803149
0
LINE
8
BLACK
6
CONTINUOUS
10
0.3190944881889763
20
-0.2787401574803149
11
0.3190944881889763
21
-0.3535433070866142
0
LINE
8
BLACK
6
CONTINUOUS
10
0.3190944881889763
20
-0.3535433070866142
11
0.3190195669291339
21
-0.3539199606299213
0
LINE
8
BLACK
6
CONTINUOUS
10
0.3190195669291339
20
-0.3539199606299213
11
0.3184868897637795
21
-0.3544526377952756
0
LINE
8
BLACK
6
CONTINUOUS
10
0.3184868897637795
20
-0.3544526377952756
11
0.3181102362204724
21
-0.3545275590551181
0
LINE
8
BLACK
6
CONTINUOUS
10
0.3181102362204724
20
-0.3545275590551181
11
0.1858267716535433
21
-0.3545275590551181
0
LINE
8
BLACK
6
CONTINUOUS
10
0.1858267716535433
20
-0.3545275590551181
11
0.1854501181102362
21
-0.3544526377952756
0
LINE
8
BLACK
6
CONTINUOUS
10
0.1854501181102362
20
-0.3544526377952756
11
0.1849174409448819
21
-0.3539199606299213
0
LINE
8
BLACK
6
CONTINUOUS
10
0.1849174409448819
20
-0.3539199606299213
11
0.1848425196850394
21
-0.3535433070866142
0
LINE
8
BLACK
6
CONTINUOUS
10
0.1848425196850394
20
-0.3535433070866142
11
0.1848425196850394
21
-0.2787401574803149
0
LINE
8
BLACK
6
CONTINUOUS
10
0.1848425196850394
20
-0.2787401574803149
11
0.1849174409448819
21
-0.2783635039370079
0
LINE
8
BLACK
6
CONTINUOUS
10
0.1849174409448819
20
-0.2783635039370079
11
0.1854501181102362
21
-0.2778308267716535
0
LINE
8
BLACK
6
CONTINUOUS
10
0.1854501181102362
20
-0.2778308267716535
11
0.1858267716535433
21
-0.277755905511811
0
LINE
8
BLACK
6
CONTINUOUS
10
0.1858267716535433
20
-0.277755905511811
11
0.3181102362204724
21
-0.277755905511811
0
LINE
8
BLACK
6
CONTINUOUS
10
0.3181102362204724
20
-0.277755905511811
11
0.3184868897637795
21
-0.2778308267716535
0
LINE
8
BLACK
6
CONTINUOUS
10
0.1868110236220472
20
-0.2797244094488189
11
0.1868110236220472
21
-0.3525590551181103
0
LINE
8
BLACK
6
CONTINUOUS
10
0.1868110236220472
20
-0.3525590551181103
11
0.3171259842519685
21
-0.3525590551181103
0
LINE
8
BLACK
6
CONTINUOUS
10
0.3171259842519685
20
-0.3525590551181103
11
0.3171259842519685
21
-0.2797244094488189
0
LINE
8
BLACK
6
CONTINUOUS
10
0.3171259842519685
20
-0.2797244094488189
11
0.1868110236220472
21
-0.2797244094488189
0
LINE
8
BLACK
6
CONTINUOUS
10
0.0563805905511811
20
-0.2404292519685039
11
0.0569132677165354
21
-0.2409619291338582
0
LINE
8
BLACK
6
CONTINUOUS
10
0.0569132677165354
20
-0.2409619291338582
11
0.056988188976378
21
-0.2413385826771653
0
LINE
8
BLACK
6
CONTINUOUS
10
0.056988188976378
20
-0.2413385826771653
11
0.056988188976378
21
-0.3318897637795276
0
LINE
8
BLACK
6
CONTINUOUS
10
0.056988188976378
20
-0.3318897637795276
11
0.0569132677165354
21
-0.3322664173228346
0
LINE
8
BLACK
6
CONTINUOUS
10
0.0569132677165354
20
-0.3322664173228346
11
0.0563805905511811
21
-0.332799094488189
0
LINE
8
BLACK
6
CONTINUOUS
10
0.0563805905511811
20
-0.332799094488189
11
0.056003937007874
21
-0.3328740157480315
0
LINE
8
BLACK
6
CONTINUOUS
10
0.056003937007874
20
-0.3328740157480315
11
-0.1172244094488189
21
-0.3328740157480315
0
LINE
8
BLACK
6
CONTINUOUS
10
-0.1172244094488189
20
-0.3328740157480315
11
-0.117601062992126
21
-0.332799094488189
0
LINE
8
BLACK
6
CONTINUOUS
10
-0.117601062992126
20
-0.332799094488189
11
-0.1181337401574803
21
-0.3322664173228346
0
LINE
8
BLACK
6
CONTINUOUS
10
-0.1181337401574803
20
-0.3322664173228346
11
-0.1182086614173228
21
-0.3318897637795276
0
LINE
8
BLACK
6
CONTINUOUS
10
-0.1182086614173228
20
-0.3318897637795276
11
-0.1182086614173228
21
-0.2413385826771653
0
LINE
8
BLACK
6
CONTINUOUS
10
-0.1182086614173228
20
-0.2413385826771653
11
-0.1181337401574803
21
-0.2409619291338582
0
LINE
8
BLACK
6
CONTINUOUS
10
-0.1181337401574803
20
-0.2409619291338582
11
-0.117601062992126
21
-0.2404292519685039
0
LINE
8
BLACK
6
CONTINUOUS
10
-0.117601062992126
20
-0.2404292519685039
11
-0.1172244094488189
21
-0.2403543307086614
0
LINE
8
BLACK
6
CONTINUOUS
10
-0.1172244094488189
20
-0.2403543307086614
11
0.056003937007874
21
-0.2403543307086614
0
LINE
8
BLACK
6
CONTINUOUS
10
0.056003937007874
20
-0.2403543307086614
11
0.0563805905511811
21
-0.2404292519685039
0
LINE
8
BLACK
6
CONTINUOUS
10
-0.116240157480315
20
-0.2423228346456693
11
-0.116240157480315
21
-0.3309055118110236
0
LINE
8
BLACK
6
CONTINUOUS
10
-0.116240157480315
20
-0.3309055118110236
11
0.0550196850393701
21
-0.3309055118110236
0
LINE
8
BLACK
6
CONTINUOUS
10
0.0550196850393701
20
-0.3309055118110236
11
0.0550196850393701
21
-0.2423228346456693
0
LINE
8
BLACK
6
CONTINUOUS
10
0.0550196850393701
20
-0.2423228346456693
11
-0.116240157480315
21
-0.2423228346456693
0
LINE
8
BLACK
6
CONTINUOUS
10
0.3287231102362205
20
0.169806968503937
11
0.3292557874015748
21
0.1692742913385827
0
LINE
8
BLACK
6
CONTINUOUS
10
0.3292557874015748
20
0.1692742913385827
11
0.3293307086614173
21
0.1688976377952756
0
LINE
8
BLACK
6
CONTINUOUS
10
0.3293307086614173
20
0.1688976377952756
11
0.3293307086614173
21
0.0366141732283465
0
LINE
8
BLACK
6
CONTINUOUS
10
0.3293307086614173
20
0.0366141732283465
11
0.3292557874015748
21
0.0362375196850394
0
LINE
8
BLACK
6
CONTINUOUS
10
0.3292557874015748
20
0.0362375196850394
11
0.3287231102362205
21
0.035704842519685
0
LINE
8
BLACK
6
CONTINUOUS
10
0.3287231102362205
20
0.035704842519685
11
0.3283464566929134
21
0.0356299212598425
0
LINE
8
BLACK
6
CONTINUOUS
10
0.3283464566929134
20
0.0356299212598425
11
0.2535433070866142
21
0.0356299212598425
0
LINE
8
BLACK
6
CONTINUOUS
10
0.2535433070866142
20
0.0356299212598425
11
0.2531666535433071
21
0.035704842519685
0
LINE
8
BLACK
6
CONTINUOUS
10
0.2531666535433071
20
0.035704842519685
11
0.2526339763779528
21
0.0362375196850394
0
LINE
8
BLACK
6
CONTINUOUS
10
0.2526339763779528
20
0.0362375196850394
11
0.2525590551181102
21
0.0366141732283465
0
LINE
8
BLACK
6
CONTINUOUS
10
0.2525590551181102
20
0.0366141732283465
11
0.2525590551181102
21
0.1688976377952756
0
LINE
8
BLACK
6
CONTINUOUS
10
0.2525590551181102
20
0.1688976377952756
11
0.2526339763779528
21
0.1692742913385827
0
LINE
8
BLACK
6
CONTINUOUS
10
0.2526339763779528
20
0.1692742913385827
11
0.2531666535433071
21
0.169806968503937
0
LINE
8
BLACK
6
CONTINUOUS
10
0.2531666535433071
20
0.169806968503937
11
0.2535433070866142
21
0.1698818897637795
0
LINE
8
BLACK
6
CONTINUOUS
10
0.2535433070866142
20
0.1698818897637795
11
0.3283464566929134
21
0.1698818897637795
0
LINE
8
BLACK
6
CONTINUOUS
10
0.3283464566929134
20
0.1698818897637795
11
0.3287231102362205
21
0.169806968503937
0
LINE
8
BLACK
6
CONTINUOUS
10
0.2545275590551181
20
0.1679133858267716
11
0.2545275590551181
21
0.0375984251968504
0
LINE
8
BLACK
6
CONTINUOUS
10
0.2545275590551181
20
0.0375984251968504
11
0.3273622047244095
21
0.0375984251968504
0
LINE
8
BLACK
6
CONTINUOUS
10
0.3273622047244095
20
0.0375984251968504
11
0.3273622047244095
21
0.1679133858267716
0
LINE
8
BLACK
6
CONTINUOUS
10
0.3273622047244095
20
0.1679133858267716
11
0.2545275590551181
21
0.1679133858267716
0
LINE
8
BLACK
6
CONTINUOUS
10
0.036597125984252
20
0.2174447637795276
11
0.0371298031496063
21
0.2169120866141732
0
LINE
8
BLACK
6
CONTINUOUS
10
0.0371298031496063
20
0.2169120866141732
11
0.0372047244094488
21
0.2165354330708661
0
LINE
8
BLACK
6
CONTINUOUS
10
0.0372047244094488
20
0.2165354330708661
11
0.0372047244094488
21
0.1417322834645669
0
LINE
8
BLACK
6
CONTINUOUS
10
0.0372047244094488
20
0.1417322834645669
11
0.0371298031496063
21
0.1413556299212598
0
LINE
8
BLACK
6
CONTINUOUS
10
0.0371298031496063
20
0.1413556299212598
11
0.036597125984252
21
0.1408229527559055
0
LINE
8
BLACK
6
CONTINUOUS
10
0.036597125984252
20
0.1408229527559055
11
0.0362204724409449
21
0.140748031496063
0
LINE
8
BLACK
6
CONTINUOUS
10
0.0362204724409449
20
0.140748031496063
11
-0.0960629921259843
21
0.140748031496063
0
LINE
8
BLACK
6
CONTINUOUS
10
-0.0960629921259843
20
0.140748031496063
11
-0.0964396456692913
21
0.1408229527559055
0
LINE
8
BLACK
6
CONTINUOUS
10
-0.0964396456692913
20
0.1408229527559055
11
-0.0969723228346457
21
0.1413556299212598
0
LINE
8
BLACK
6
CONTINUOUS
10
-0.0969723228346457
20
0.1413556299212598
11
-0.0970472440944882
21
0.1417322834645669
0
LINE
8
BLACK
6
CONTINUOUS
10
-0.0970472440944882
20
0.1417322834645669
11
-0.0970472440944882
21
0.2165354330708661
0
LINE
8
BLACK
6
CONTINUOUS
10
-0.0970472440944882
20
0.2165354330708661
11
-0.0969723228346457
21
0.2169120866141732
0
LINE
8
BLACK
6
CONTINUOUS
10
-0.0969723228346457
20
0.2169120866141732
11
-0.0964396456692913
21
0.2174447637795276
0
LINE
8
BLACK
6
CONTINUOUS
10
-0.0964396456692913
20
0.2174447637795276
11
-0.0960629921259843
21
0.2175196850393701
0
LINE
8
BLACK
6
CONTINUOUS
10
-0.0960629921259843
20
0.2175196850393701
11
0.0362204724409449
21
0.2175196850393701
0
LINE
8
BLACK
6
CONTINUOUS
10
0.0362204724409449
20
0.2175196850393701
11
0.036597125984252
21
0.2174447637795276
0
LINE
8
BLACK
6
CONTINUOUS
10
-0.0950787401574803
20
0.2155511811023622
11
-0.0950787401574803
21
0.1427165354330709
0
LINE
8
BLACK
6
CONTINUOUS
10
-0.0950787401574803
20
0.1427165354330709
11
0.0352362204724409
21
0.1427165354330709
0
LINE
8
BLACK
6
CONTINUOUS
10
0.0352362204724409
20
0.1427165354330709
11
0.0352362204724409
21
0.2155511811023622
0
LINE
8
BLACK
6
CONTINUOUS
10
0.0352362204724409
20
0.2155511811023622
11
-0.0950787401574803
21
0.2155511811023622
0
LINE
8
BLACK
6
CONTINUOUS
10
-0.3051351574803149
20
0.309570748031496
11
-0.3046024803149606
21
0.3090380708661417
0
LINE
8
BLACK
6
CONTINUOUS
10
-0.3046024803149606
20
0.3090380708661417
11
-0.3045275590551181
21
0.3086614173228346
0
LINE
8
BLACK
6
CONTINUOUS
10
-0.3045275590551181
20
0.3086614173228346
11
-0.3045275590551181
21
0.1748031496062992
0
LINE
8
BLACK
6
CONTINUOUS
10
-0.3045275590551181
20
0.1748031496062992
11
-0.3046024803149606
21
0.1744264960629921
0
LINE
8
BLACK
6
CONTINUOUS
10
-0.3046024803149606
20
0.1744264960629921
11
-0.3051351574803149
21
0.1738938188976378
0
LINE
8
BLACK
6
CONTINUOUS
10
-0.3051351574803149
20
0.1738938188976378
11
-0.305511811023622
21
0.1738188976377953
0
LINE
8
BLACK
6
CONTINUOUS
10
-0.305511811023622
20
0.1738188976377953
11
-0.3826771653543307
21
0.1738188976377953
0
LINE
8
BLACK
6
CONTINUOUS
10
-0.3826771653543307
20
0.1738188976377953
11
-0.3830538188976378
21
0.1738938188976378
0
LINE
8
BLACK
6
CONTINUOUS
10
-0.3830538188976378
20
0.1738938188976378
11
-0.3835864960629921
21
0.1744264960629921
0
LINE
8
BLACK
6
CONTINUOUS
10
-0.3835864960629921
20
0.1744264960629921
11
-0.3836614173228347
21
0.1748031496062992
0
LINE
8
BLACK
6
CONTINUOUS
10
-0.3836614173228347
20
0.1748031496062992
11
-0.3836614173228347
21
0.3086614173228346
0
LINE
8
BLACK
6
CONTINUOUS
10
-0.3836614173228347
20
0.3086614173228346
11
-0.3835864960629921
21
0.3090380708661417
0
LINE
8
BLACK
6
CONTINUOUS
10
-0.3835864960629921
20
0.3090380708661417
11
-0.3830538188976378
21
0.309570748031496
0
LINE
8
BLACK
6
CONTINUOUS
10
-0.3830538188976378
20
0.309570748031496
11
-0.3826771653543307
21
0.3096456692913386
0
LINE
8
BLACK
6
CONTINUOUS
10
-0.3826771653543307
20
0.3096456692913386
11
-0.305511811023622
21
0.3096456692913386
0
LINE
8
BLACK
6
CONTINUOUS
10
-0.305511811023622
20
0.3096456692913386
11
-0.3051351574803149
21
0.309570748031496
0
LINE
8
BLACK
6
CONTINUOUS
10
-0.3816929133858268
20
0.3076771653543307
11
-0.3816929133858268
21
0.1757874015748032
0
LINE
8
BLACK
6
CONTINUOUS
10
-0.3816929133858268
20
0.1757874015748032
11
-0.306496062992126
21
0.1757874015748032
0
LINE
8
BLACK
6
CONTINUOUS
10
-0.306496062992126
20
0.1757874015748032
11
-0.306496062992126
21
0.3076771653543307
0
LINE
8
BLACK
6
CONTINUOUS
10
-0.306496062992126
20
0.3076771653543307
11
-0.3816929133858268
21
0.3076771653543307
0
LINE
8
BLACK
6
CONTINUOUS
10
0.1629750787401575
20
0.309570748031496
11
0.1635077559055118
21
0.3090380708661417
0
LINE
8
BLACK
6
CONTINUOUS
10
0.1635077559055118
20
0.3090380708661417
11
0.1635826771653543
21
0.3086614173228346
0
LINE
8
BLACK
6
CONTINUOUS
10
0.1635826771653543
20
0.3086614173228346
11
0.1635826771653543
21
0.1748031496062992
0
LINE
8
BLACK
6
CONTINUOUS
10
0.1635826771653543
20
0.1748031496062992
11
0.1635077559055118
21
0.1744264960629921
0
LINE
8
BLACK
6
CONTINUOUS
10
0.1635077559055118
20
0.1744264960629921
11
0.1629750787401575
21
0.1738938188976378
0
LINE
8
BLACK
6
CONTINUOUS
10
0.1629750787401575
20
0.1738938188976378
11
0.1625984251968504
21
0.1738188976377953
0
LINE
8
BLACK
6
CONTINUOUS
10
0.1625984251968504
20
0.1738188976377953
11
0.0854330708661417
21
0.1738188976377953
0
LINE
8
BLACK
6
CONTINUOUS
10
0.0854330708661417
20
0.1738188976377953
11
0.0850564173228346
21
0.1738938188976378
0
LINE
8
BLACK
6
CONTINUOUS
10
0.0850564173228346
20
0.1738938188976378
11
0.0845237401574803
21
0.1744264960629921
0
LINE
8
BLACK
6
CONTINUOUS
10
0.0845237401574803
20
0.1744264960629921
11
0.0844488188976378
21
0.1748031496062992
0
LINE
8
BLACK
6
CONTINUOUS
10
0.0844488188976378
20
0.1748031496062992
11
0.0844488188976378
21
0.3086614173228346
0
LINE
8
BLACK
6
CONTINUOUS
10
0.0844488188976378
20
0.3086614173228346
11
0.0845237401574803
21
0.3090380708661417
0
LINE
8
BLACK
6
CONTINUOUS
10
0.0845237401574803
20
0.3090380708661417
11
0.0850564173228346
21
0.309570748031496
0
LINE
8
BLACK
6
CONTINUOUS
10
0.0850564173228346
20
0.309570748031496
11
0.0854330708661417
21
0.3096456692913386
0
LINE
8
BLACK
6
CONTINUOUS
10
0.0854330708661417
20
0.3096456692913386
11
0.1625984251968504
21
0.3096456692913386
0
LINE
8
BLACK
6
CONTINUOUS
10
0.1625984251968504
20
0.3096456692913386
11
0.1629750787401575
21
0.309570748031496
0
LINE
8
BLACK
6
CONTINUOUS
10
0.0864173228346457
20
0.3076771653543307
11
0.0864173228346457
21
0.1757874015748032
0
LINE
8
BLACK
6
CONTINUOUS
10
0.0864173228346457
20
0.1757874015748032
11
0.1616141732283465
21
0.1757874015748032
0
LINE
8
BLACK
6
CONTINUOUS
10
0.1616141732283465
20
0.1757874015748032
11
0.1616141732283465
21
0.3076771653543307
0
LINE
8
BLACK
6
CONTINUOUS
10
0.1616141732283465
20
0.3076771653543307
11
0.0864173228346457
21
0.3076771653543307
0
LINE
8
BLACK
6
CONTINUOUS
10
0.2432900393700787
20
0.309570748031496
11
0.2438227165354331
21
0.3090380708661417
0
LINE
8
BLACK
6
CONTINUOUS
10
0.2438227165354331
20
0.3090380708661417
11
0.2438976377952756
21
0.3086614173228346
0
LINE
8
BLACK
6
CONTINUOUS
10
0.2438976377952756
20
0.3086614173228346
11
0.2438976377952756
21
0.1748031496062992
0
LINE
8
BLACK
6
CONTINUOUS
10
0.2438976377952756
20
0.1748031496062992
11
0.2438227165354331
21
0.1744264960629921
0
LINE
8
BLACK
6
CONTINUOUS
10
0.2438227165354331
20
0.1744264960629921
11
0.2432900393700787
21
0.1738938188976378
0
LINE
8
BLACK
6
CONTINUOUS
10
0.2432900393700787
20
0.1738938188976378
11
0.2429133858267717
21
0.1738188976377953
0
LINE
8
BLACK
6
CONTINUOUS
10
0.2429133858267717
20
0.1738188976377953
11
0.165748031496063
21
0.1738188976377953
0
LINE
8
BLACK
6
CONTINUOUS
10
0.165748031496063
20
0.1738188976377953
11
0.1653713779527559
21
0.1738938188976378
0
LINE
8
BLACK
6
CONTINUOUS
10
0.1653713779527559
20
0.1738938188976378
11
0.1648387007874016
21
0.1744264960629921
0
LINE
8
BLACK
6
CONTINUOUS
10
0.1648387007874016
20
0.1744264960629921
11
0.1647637795275591
21
0.1748031496062992
0
LINE
8
BLACK
6
CONTINUOUS
10
0.1647637795275591
20
0.1748031496062992
11
0.1647637795275591
21
0.3086614173228346
0
LINE
8
BLACK
6
CONTINUOUS
10
0.1647637795275591
20
0.3086614173228346
11
0.1648387007874016
21
0.3090380708661417
0
LINE
8
BLACK
6
CONTINUOUS
10
0.1648387007874016
20
0.3090380708661417
11
0.1653713779527559
21
0.309570748031496
0
LINE
8
BLACK
6
CONTINUOUS
10
0.1653713779527559
20
0.309570748031496
11
0.165748031496063
21
0.3096456692913386
0
LINE
8
BLACK
6
CONTINUOUS
10
0.165748031496063
20
0.3096456692913386
11
0.2429133858267717
21
0.3096456692913386
0
LINE
8
BLACK
6
CONTINUOUS
10
0.2429133858267717
20
0.3096456692913386
11
0.2432900393700787
21
0.309570748031496
0
LINE
8
BLACK
6
CONTINUOUS
10
0.1667322834645669
20
0.3076771653543307
11
0.1667322834645669
21
0.1757874015748032
0
LINE
8
BLACK
6
CONTINUOUS
10
0.1667322834645669
20
0.1757874015748032
11
0.2419291338582677
21
0.1757874015748032
0
LINE
8
BLACK
6
CONTINUOUS
10
0.2419291338582677
20
0.1757874015748032
11
0.2419291338582677
21
0.3076771653543307
0
LINE
8
BLACK
6
CONTINUOUS
10
0.2419291338582677
20
0.3076771653543307
11
0.1667322834645669
21
0.3076771653543307
0
LINE
8
BLACK
6
CONTINUOUS
10
0.3301181102362205
20
0.3096065354330709
11
0.3303149606299213
21
0.3096456692913386
0
LINE
8
BLACK
6
CONTINUOUS
10
0.3303149606299213
20
0.3096456692913386
11
0.4074803149606299
21
0.3096456692913386
0
LINE
8
BLACK
6
CONTINUOUS
10
0.4074803149606299
20
0.3096456692913386
11
0.407856968503937
21
0.309570748031496
0
LINE
8
BLACK
6
CONTINUOUS
10
0.407856968503937
20
0.309570748031496
11
0.4083896456692913
21
0.3090380708661417
0
LINE
8
BLACK
6
CONTINUOUS
10
0.4083896456692913
20
0.3090380708661417
11
0.4084645669291339
21
0.3086614173228346
0
LINE
8
BLACK
6
CONTINUOUS
10
0.4084645669291339
20
0.3086614173228346
11
0.4084645669291339
21
0.1748031496062992
0
LINE
8
BLACK
6
CONTINUOUS
10
0.4084645669291339
20
0.1748031496062992
11
0.4083896456692913
21
0.1744264960629921
0
LINE
8
BLACK
6
CONTINUOUS
10
0.4083896456692913
20
0.1744264960629921
11
0.407856968503937
21
0.1738938188976378
0
LINE
8
BLACK
6
CONTINUOUS
10
0.407856968503937
20
0.1738938188976378
11
0.4074803149606299
21
0.1738188976377953
0
LINE
8
BLACK
6
CONTINUOUS
10
0.4074803149606299
20
0.1738188976377953
11
0.3303149606299213
21
0.1738188976377953
0
LINE
8
BLACK
6
CONTINUOUS
10
0.3303149606299213
20
0.1738188976377953
11
0.3301181102362205
21
0.1738580708661417
0
LINE
8
BLACK
6
CONTINUOUS
10
0.3301181102362205
20
0.1738580708661417
11
0.3299212598425197
21
0.1738188976377953
0
LINE
8
BLACK
6
CONTINUOUS
10
0.3299212598425197
20
0.1738188976377953
11
0.252755905511811
21
0.1738188976377953
0
LINE
8
BLACK
6
CONTINUOUS
10
0.252755905511811
20
0.1738188976377953
11
0.2523792519685039
21
0.1738938188976378
0
LINE
8
BLACK
6
CONTINUOUS
10
0.2523792519685039
20
0.1738938188976378
11
0.2518465748031496
21
0.1744264960629921
0
LINE
8
BLACK
6
CONTINUOUS
10
0.2518465748031496
20
0.1744264960629921
11
0.2517716535433071
21
0.1748031496062992
0
LINE
8
BLACK
6
CONTINUOUS
10
0.2517716535433071
20
0.1748031496062992
11
0.2517716535433071
21
0.3086614173228346
0
LINE
8
BLACK
6
CONTINUOUS
10
0.2517716535433071
20
0.3086614173228346
11
0.2518465748031496
21
0.3090380708661417
0
LINE
8
BLACK
6
CONTINUOUS
10
0.2518465748031496
20
0.3090380708661417
11
0.2523792519685039
21
0.309570748031496
0
LINE
8
BLACK
6
CONTINUOUS
10
0.2523792519685039
20
0.309570748031496
11
0.252755905511811
21
0.3096456692913386
0
LINE
8
BLACK
6
CONTINUOUS
10
0.252755905511811
20
0.3096456692913386
11
0.3299212598425197
21
0.3096456692913386
0
LINE
8
BLACK
6
CONTINUOUS
10
0.3299212598425197
20
0.3096456692913386
11
0.3301181102362205
21
0.3096065354330709
0
LINE
8
BLACK
6
CONTINUOUS
10
0.3312992125984252
20
0.3076771653543307
11
0.3312992125984252
21
0.1757874015748032
0
LINE
8
BLACK
6
CONTINUOUS
10
0.3312992125984252
20
0.1757874015748032
11
0.406496062992126
21
0.1757874015748032
0
LINE
8
BLACK
6
CONTINUOUS
10
0.406496062992126
20
0.1757874015748032
11
0.406496062992126
21
0.3076771653543307
0
LINE
8
BLACK
6
CONTINUOUS
10
0.406496062992126
20
0.3076771653543307
11
0.3312992125984252
21
0.3076771653543307
0
LINE
8
BLACK
6
CONTINUOUS
10
0.253740157480315
20
0.3076771653543307
11
0.253740157480315
21
0.1757874015748032
0
LINE
8
BLACK
6
CONTINUOUS
10
0.253740157480315
20
0.1757874015748032
11
0.3289370078740158
21
0.1757874015748032
0
LINE
8
BLACK
6
CONTINUOUS
10
0.3289370078740158
20
0.1757874015748032
11
0.3289370078740158
21
0.3076771653543307
0
LINE
8
BLACK
6
CONTINUOUS
10
0.3289370078740158
20
0.3076771653543307
11
0.253740157480315
21
0.3076771653543307
0
LINE
8
BLACK
6
CONTINUOUS
10
0.5019514566929134
20
0.309570748031496
11
0.5024841338582677
21
0.3090380708661417
0
LINE
8
BLACK
6
CONTINUOUS
10
0.5024841338582677
20
0.3090380708661417
11
0.5025590551181103
21
0.3086614173228346
0
LINE
8
BLACK
6
CONTINUOUS
10
0.5025590551181103
20
0.3086614173228346
11
0.5025590551181103
21
0.1748031496062992
0
LINE
8
BLACK
6
CONTINUOUS
10
0.5025590551181103
20
0.1748031496062992
11
0.5024841338582677
21
0.1744264960629921
0
LINE
8
BLACK
6
CONTINUOUS
10
0.5024841338582677
20
0.1744264960629921
11
0.5019514566929134
21
0.1738938188976378
0
LINE
8
BLACK
6
CONTINUOUS
10
0.5019514566929134
20
0.1738938188976378
11
0.5015748031496063
21
0.1738188976377953
0
LINE
8
BLACK
6
CONTINUOUS
10
0.5015748031496063
20
0.1738188976377953
11
0.4244094488188976
21
0.1738188976377953
0
LINE
8
BLACK
6
CONTINUOUS
10
0.4244094488188976
20
0.1738188976377953
11
0.4240327952755906
21
0.1738938188976378
0
LINE
8
BLACK
6
CONTINUOUS
10
0.4240327952755906
20
0.1738938188976378
11
0.4235001181102362
21
0.1744264960629921
0
LINE
8
BLACK
6
CONTINUOUS
10
0.4235001181102362
20
0.1744264960629921
11
0.4234251968503937
21
0.1748031496062992
0
LINE
8
BLACK
6
CONTINUOUS
10
0.4234251968503937
20
0.1748031496062992
11
0.4234251968503937
21
0.3086614173228346
0
LINE
8
BLACK
6
CONTINUOUS
10
0.4234251968503937
20
0.3086614173228346
11
0.4235001181102362
21
0.3090380708661417
0
LINE
8
BLACK
6
CONTINUOUS
10
0.4235001181102362
20
0.3090380708661417
11
0.4240327952755906
21
0.309570748031496
0
LINE
8
BLACK
6
CONTINUOUS
10
0.4240327952755906
20
0.309570748031496
11
0.4244094488188976
21
0.3096456692913386
0
LINE
8
BLACK
6
CONTINUOUS
10
0.4244094488188976
20
0.3096456692913386
11
0.5015748031496063
21
0.3096456692913386
0
LINE
8
BLACK
6
CONTINUOUS
10
0.5015748031496063
20
0.3096456692913386
11
0.5019514566929134
21
0.309570748031496
0
LINE
8
BLACK
6
CONTINUOUS
10
0.4253937007874016
20
0.3076771653543307
11
0.4253937007874016
21
0.1757874015748032
0
LINE
8
BLACK
6
CONTINUOUS
10
0.4253937007874016
20
0.1757874015748032
11
0.5005905511811024
21
0.1757874015748032
0
LINE
8
BLACK
6
CONTINUOUS
10
0.5005905511811024
20
0.1757874015748032
11
0.5005905511811024
21
0.3076771653543307
0
LINE
8
BLACK
6
CONTINUOUS
10
0.5005905511811024
20
0.3076771653543307
11
0.4253937007874016
21
0.3076771653543307
0
LINE
8
BLACK
6
CONTINUOUS
10
-0.2271824015748032
20
0.3087833464566929
11
-0.2266497244094488
21
0.3082506692913386
0
LINE
8
BLACK
6
CONTINUOUS
10
-0.2266497244094488
20
0.3082506692913386
11
-0.2265748031496063
21
0.3078740157480315
0
LINE
8
BLACK
6
CONTINUOUS
10
-0.2265748031496063
20
0.3078740157480315
11
-0.2265748031496063
21
0.1755905511811024
0
LINE
8
BLACK
6
CONTINUOUS
10
-0.2265748031496063
20
0.1755905511811024
11
-0.2266497244094488
21
0.1752138976377953
0
LINE
8
BLACK
6
CONTINUOUS
10
-0.2266497244094488
20
0.1752138976377953
11
-0.2271824015748032
21
0.1746812204724409
0
LINE
8
BLACK
6
CONTINUOUS
10
-0.2271824015748032
20
0.1746812204724409
11
-0.2275590551181102
21
0.1746062992125984
0
LINE
8
BLACK
6
CONTINUOUS
10
-0.2275590551181102
20
0.1746062992125984
11
-0.3023622047244094
21
0.1746062992125984
0
LINE
8
BLACK
6
CONTINUOUS
10
-0.3023622047244094
20
0.1746062992125984
11
-0.3027388582677165
21
0.1746812204724409
0
LINE
8
BLACK
6
CONTINUOUS
10
-0.3027388582677165
20
0.1746812204724409
11
-0.3032715354330708
21
0.1752138976377953
0
LINE
8
BLACK
6
CONTINUOUS
10
-0.3032715354330708
20
0.1752138976377953
11
-0.3033464566929134
21
0.1755905511811024
0
LINE
8
BLACK
6
CONTINUOUS
10
-0.3033464566929134
20
0.1755905511811024
11
-0.3033464566929134
21
0.3078740157480315
0
LINE
8
BLACK
6
CONTINUOUS
10
-0.3033464566929134
20
0.3078740157480315
11
-0.3032715354330708
21
0.3082506692913386
0
LINE
8
BLACK
6
CONTINUOUS
10
-0.3032715354330708
20
0.3082506692913386
11
-0.3027388582677165
21
0.3087833464566929
0
LINE
8
BLACK
6
CONTINUOUS
10
-0.3027388582677165
20
0.3087833464566929
11
-0.3023622047244094
21
0.3088582677165354
0
LINE
8
BLACK
6
CONTINUOUS
10
-0.3023622047244094
20
0.3088582677165354
11
-0.2275590551181102
21
0.3088582677165354
0
LINE
8
BLACK
6
CONTINUOUS
10
-0.2275590551181102
20
0.3088582677165354
11
-0.2271824015748032
21
0.3087833464566929
0
LINE
8
BLACK
6
CONTINUOUS
10
-0.3013779527559055
20
0.3068897637795275
11
-0.3013779527559055
21
0.1765748031496063
0
LINE
8
BLACK
6
CONTINUOUS
10
-0.3013779527559055
20
0.1765748031496063
11
-0.2285433070866142
21
0.1765748031496063
0
LINE
8
BLACK
6
CONTINUOUS
10
-0.2285433070866142
20
0.1765748031496063
11
-0.2285433070866142
21
0.3068897637795275
0
LINE
8
BLACK
6
CONTINUOUS
10
-0.2285433070866142
20
0.3068897637795275
11
-0.3013779527559055
21
0.3068897637795275
0
LINE
8
BLACK
6
CONTINUOUS
10
0.5801994881889764
20
0.3087833464566929
11
0.5807321653543307
21
0.3082506692913386
0
LINE
8
BLACK
6
CONTINUOUS
10
0.5807321653543307
20
0.3082506692913386
11
0.5808070866141732
21
0.3078740157480315
0
LINE
8
BLACK
6
CONTINUOUS
10
0.5808070866141732
20
0.3078740157480315
11
0.5808070866141732
21
0.1755905511811024
0
LINE
8
BLACK
6
CONTINUOUS
10
0.5808070866141732
20
0.1755905511811024
11
0.5807321653543307
21
0.1752138976377953
0
LINE
8
BLACK
6
CONTINUOUS
10
0.5807321653543307
20
0.1752138976377953
11
0.5801994881889764
21
0.1746812204724409
0
LINE
8
BLACK
6
CONTINUOUS
10
0.5801994881889764
20
0.1746812204724409
11
0.5798228346456693
21
0.1746062992125984
0
LINE
8
BLACK
6
CONTINUOUS
10
0.5798228346456693
20
0.1746062992125984
11
0.5050196850393701
21
0.1746062992125984
0
LINE
8
BLACK
6
CONTINUOUS
10
0.5050196850393701
20
0.1746062992125984
11
0.5046430314960629
21
0.1746812204724409
0
LINE
8
BLACK
6
CONTINUOUS
10
0.5046430314960629
20
0.1746812204724409
11
0.5041103543307086
21
0.1752138976377953
0
LINE
8
BLACK
6
CONTINUOUS
10
0.5041103543307086
20
0.1752138976377953
11
0.5040354330708662
21
0.1755905511811024
0
LINE
8
BLACK
6
CONTINUOUS
10
0.5040354330708662
20
0.1755905511811024
11
0.5040354330708662
21
0.3078740157480315
0
LINE
8
BLACK
6
CONTINUOUS
10
0.5040354330708662
20
0.3078740157480315
11
0.5041103543307086
21
0.3082506692913386
0
LINE
8
BLACK
6
CONTINUOUS
10
0.5041103543307086
20
0.3082506692913386
11
0.5046430314960629
21
0.3087833464566929
0
LINE
8
BLACK
6
CONTINUOUS
10
0.5046430314960629
20
0.3087833464566929
11
0.5050196850393701
21
0.3088582677165354
0
LINE
8
BLACK
6
CONTINUOUS
10
0.5050196850393701
20
0.3088582677165354
11
0.5798228346456693
21
0.3088582677165354
0
LINE
8
BLACK
6
CONTINUOUS
10
0.5798228346456693
20
0.3088582677165354
11
0.5801994881889764
21
0.3087833464566929
0
LINE
8
BLACK
6
CONTINUOUS
10
0.506003937007874
20
0.3068897637795275
11
0.506003937007874
21
0.1765748031496063
0
LINE
8
BLACK
6
CONTINUOUS
10
0.506003937007874
20
0.1765748031496063
11
0.5788385826771654
21
0.1765748031496063
0
LINE
8
BLACK
6
CONTINUOUS
10
0.5788385826771654
20
0.1765748031496063
11
0.5788385826771654
21
0.3068897637795275
0
LINE
8
BLACK
6
CONTINUOUS
10
0.5788385826771654
20
0.3068897637795275
11
0.506003937007874
21
0.3068897637795275
0
LINE
8
BLACK
6
CONTINUOUS
10
0.6602191732283464
20
0.309570748031496
11
0.6607518503937008
21
0.3090380708661417
0
LINE
8
BLACK
6
CONTINUOUS
10
0.6607518503937008
20
0.3090380708661417
11
0.6608267716535433
21
0.3086614173228346
0
LINE
8
BLACK
6
CONTINUOUS
10
0.6608267716535433
20
0.3086614173228346
11
0.6608267716535433
21
0.1763779527559055
0
LINE
8
BLACK
6
CONTINUOUS
10
0.6608267716535433
20
0.1763779527559055
11
0.6607518503937008
21
0.1760012992125984
0
LINE
8
BLACK
6
CONTINUOUS
10
0.6607518503937008
20
0.1760012992125984
11
0.6602191732283464
21
0.1754686220472441
0
LINE
8
BLACK
6
CONTINUOUS
10
0.6602191732283464
20
0.1754686220472441
11
0.6598425196850394
21
0.1753937007874016
0
LINE
8
BLACK
6
CONTINUOUS
10
0.6598425196850394
20
0.1753937007874016
11
0.5850393700787402
21
0.1753937007874016
0
LINE
8
BLACK
6
CONTINUOUS
10
0.5850393700787402
20
0.1753937007874016
11
0.584662716535433
21
0.1754686220472441
0
LINE
8
BLACK
6
CONTINUOUS
10
0.584662716535433
20
0.1754686220472441
11
0.5841300393700787
21
0.1760012992125984
0
LINE
8
BLACK
6
CONTINUOUS
10
0.5841300393700787
20
0.1760012992125984
11
0.5840551181102362
21
0.1763779527559055
0
LINE
8
BLACK
6
CONTINUOUS
10
0.5840551181102362
20
0.1763779527559055
11
0.5840551181102362
21
0.3086614173228346
0
LINE
8
BLACK
6
CONTINUOUS
10
0.5840551181102362
20
0.3086614173228346
11
0.5841300393700787
21
0.3090380708661417
0
LINE
8
BLACK
6
CONTINUOUS
10
0.5841300393700787
20
0.3090380708661417
11
0.584662716535433
21
0.309570748031496
0
LINE
8
BLACK
6
CONTINUOUS
10
0.584662716535433
20
0.309570748031496
11
0.5850393700787402
21
0.3096456692913386
0
LINE
8
BLACK
6
CONTINUOUS
10
0.5850393700787402
20
0.3096456692913386
11
0.6598425196850394
21
0.3096456692913386
0
LINE
8
BLACK
6
CONTINUOUS
10
0.6598425196850394
20
0.3096456692913386
11
0.6602191732283464
21
0.309570748031496
0
LINE
8
BLACK
6
CONTINUOUS
10
0.5860236220472441
20
0.3076771653543307
11
0.5860236220472441
21
0.1773622047244094
0
LINE
8
BLACK
6
CONTINUOUS
10
0.5860236220472441
20
0.1773622047244094
11
0.6588582677165354
21
0.1773622047244094
0
LINE
8
BLACK
6
CONTINUOUS
10
0.6588582677165354
20
0.1773622047244094
11
0.6588582677165354
21
0.3076771653543307
0
LINE
8
BLACK
6
CONTINUOUS
10
0.6588582677165354
20
0.3076771653543307
11
0.5860236220472441
21
0.3076771653543307
0
LINE
8
BLACK
6
CONTINUOUS
10
0.0369908267716535
20
0.2981534251968504
11
0.0375235039370079
21
0.2976207480314961
0
LINE
8
BLACK
6
CONTINUOUS
10
0.0375235039370079
20
0.2976207480314961
11
0.0375984251968504
21
0.2972440944881889
0
LINE
8
BLACK
6
CONTINUOUS
10
0.0375984251968504
20
0.2972440944881889
11
0.0375984251968504
21
0.2224409448818898
0
LINE
8
BLACK
6
CONTINUOUS
10
0.0375984251968504
20
0.2224409448818898
11
0.0375235039370079
21
0.2220642913385827
0
LINE
8
BLACK
6
CONTINUOUS
10
0.0375235039370079
20
0.2220642913385827
11
0.0369908267716535
21
0.2215316141732283
0
LINE
8
BLACK
6
CONTINUOUS
10
0.0369908267716535
20
0.2215316141732283
11
0.0366141732283465
21
0.2214566929133858
0
LINE
8
BLACK
6
CONTINUOUS
10
0.0366141732283465
20
0.2214566929133858
11
-0.0956692913385827
21
0.2214566929133858
0
LINE
8
BLACK
6
CONTINUOUS
10
-0.0956692913385827
20
0.2214566929133858
11
-0.0960459448818898
21
0.2215316141732283
0
LINE
8
BLACK
6
CONTINUOUS
10
-0.0960459448818898
20
0.2215316141732283
11
-0.0965786220472441
21
0.2220642913385827
0
LINE
8
BLACK
6
CONTINUOUS
10
-0.0965786220472441
20
0.2220642913385827
11
-0.0966535433070866
21
0.2224409448818898
0
LINE
8
BLACK
6
CONTINUOUS
10
-0.0966535433070866
20
0.2224409448818898
11
-0.0966535433070866
21
0.2972440944881889
0
LINE
8
BLACK
6
CONTINUOUS
10
-0.0966535433070866
20
0.2972440944881889
11
-0.0965786220472441
21
0.2976207480314961
0
LINE
8
BLACK
6
CONTINUOUS
10
-0.0965786220472441
20
0.2976207480314961
11
-0.0960459448818898
21
0.2981534251968504
0
LINE
8
BLACK
6
CONTINUOUS
10
-0.0960459448818898
20
0.2981534251968504
11
-0.0956692913385827
21
0.2982283464566929
0
LINE
8
BLACK
6
CONTINUOUS
10
-0.0956692913385827
20
0.2982283464566929
11
0.0366141732283465
21
0.2982283464566929
0
LINE
8
BLACK
6
CONTINUOUS
10
0.0366141732283465
20
0.2982283464566929
11
0.0369908267716535
21
0.2981534251968504
0
LINE
8
BLACK
6
CONTINUOUS
10
-0.0946850393700787
20
0.296259842519685
11
-0.0946850393700787
21
0.2234251968503937
0
LINE
8
BLACK
6
CONTINUOUS
10
-0.0946850393700787
20
0.2234251968503937
11
0.0356299212598425
21
0.2234251968503937
0
LINE
8
BLACK
6
CONTINUOUS
10
0.0356299212598425
20
0.2234251968503937
11
0.0356299212598425
21
0.296259842519685
0
LINE
8
BLACK
6
CONTINUOUS
10
0.0356299212598425
20
0.296259842519685
11
-0.0946850393700787
21
0.296259842519685
0
LINE
8
BLACK
6
CONTINUOUS
10
0.2363120078740157
20
0.6673046456692914
11
0.2363486220472441
21
0.6673144488188977
0
LINE
8
BLACK
6
CONTINUOUS
10
0.2363486220472441
20
0.6673144488188977
11
0.2364706692913386
21
0.6672730708661417
0
LINE
8
BLACK
6
CONTINUOUS
10
0.2364706692913386
20
0.6672730708661417
11
0.236597125984252
21
0.6672479133858268
0
LINE
8
BLACK
6
CONTINUOUS
10
0.236597125984252
20
0.6672479133858268
11
0.2366238976377953
21
0.6672211417322834
0
LINE
8
BLACK
6
CONTINUOUS
10
0.2366238976377953
20
0.6672211417322834
11
0.2367123228346457
21
0.6671911417322834
0
LINE
8
BLACK
6
CONTINUOUS
10
0.2367123228346457
20
0.6671911417322834
11
0.4414367322834646
21
0.549080905511811
0
LINE
8
BLACK
6
CONTINUOUS
10
0.4414367322834646
20
0.549080905511811
11
0.4417255511811023
21
0.5488277952755906
0
LINE
8
BLACK
6
CONTINUOUS
10
0.4417255511811023
20
0.5488277952755906
11
0.4417600393700787
21
0.5486991732283465
0
LINE
8
BLACK
6
CONTINUOUS
10
0.4417600393700787
20
0.5486991732283465
11
0.4418542125984252
21
0.548605
0
LINE
8
BLACK
6
CONTINUOUS
10
0.4418542125984252
20
0.548605
11
0.4419291338582677
21
0.5482283464566929
0
LINE
8
BLACK
6
CONTINUOUS
10
0.4419291338582677
20
0.5482283464566929
11
0.4419291338582677
21
0.3753937007874016
0
LINE
8
BLACK
6
CONTINUOUS
10
0.4419291338582677
20
0.3753937007874016
11
0.4418542125984252
21
0.3750170472440945
0
LINE
8
BLACK
6
CONTINUOUS
10
0.4418542125984252
20
0.3750170472440945
11
0.4413215354330708
21
0.3744843700787401
0
LINE
8
BLACK
6
CONTINUOUS
10
0.4413215354330708
20
0.3744843700787401
11
0.4409448818897638
21
0.3744094488188976
0
LINE
8
BLACK
6
CONTINUOUS
10
0.4409448818897638
20
0.3744094488188976
11
-0.4448818897637795
21
0.3744094488188976
0
LINE
8
BLACK
6
CONTINUOUS
10
-0.4448818897637795
20
0.3744094488188976
11
-0.4452585433070866
21
0.3744843700787401
0
LINE
8
BLACK
6
CONTINUOUS
10
-0.4452585433070866
20
0.3744843700787401
11
-0.4457912204724409
21
0.3750170472440945
0
LINE
8
BLACK
6
CONTINUOUS
10
-0.4457912204724409
20
0.3750170472440945
11
-0.4458661417322834
21
0.3753937007874016
0
LINE
8
BLACK
6
CONTINUOUS
10
-0.4458661417322834
20
0.3753937007874016
11
-0.4458661417322834
21
0.5482283464566929
0
LINE
8
BLACK
6
CONTINUOUS
10
-0.4458661417322834
20
0.5482283464566929
11
-0.4457912204724409
21
0.548605
0
LINE
8
BLACK
6
CONTINUOUS
10
-0.4457912204724409
20
0.548605
11
-0.4456970866141732
21
0.5486991732283465
0
LINE
8
BLACK
6
CONTINUOUS
10
-0.4456970866141732
20
0.5486991732283465
11
-0.4456625590551181
21
0.5488277559055118
0
LINE
8
BLACK
6
CONTINUOUS
10
-0.4456625590551181
20
0.5488277559055118
11
-0.4453737401574803
21
0.549080905511811
0
LINE
8
BLACK
6
CONTINUOUS
10
-0.4453737401574803
20
0.549080905511811
11
-0.2406493307086614
21
0.6671911023622047
0
LINE
8
BLACK
6
CONTINUOUS
10
-0.2406493307086614
20
0.6671911023622047
11
-0.2405609842519685
21
0.6672211023622047
0
LINE
8
BLACK
6
CONTINUOUS
10
-0.2405609842519685
20
0.6672211023622047
11
-0.2405341338582677
21
0.6672479133858268
0
LINE
8
BLACK
6
CONTINUOUS
10
-0.2405341338582677
20
0.6672479133858268
11
-0.2404076771653543
21
0.6672730708661417
0
LINE
8
BLACK
6
CONTINUOUS
10
-0.2404076771653543
20
0.6672730708661417
11
-0.2402856692913386
21
0.6673144488188977
0
LINE
8
BLACK
6
CONTINUOUS
10
-0.2402856692913386
20
0.6673144488188977
11
-0.2402490551181102
21
0.6673046456692914
0
LINE
8
BLACK
6
CONTINUOUS
10
-0.2402490551181102
20
0.6673046456692914
11
-0.2401574803149606
21
0.6673228346456693
0
LINE
8
BLACK
6
CONTINUOUS
10
-0.2401574803149606
20
0.6673228346456693
11
0.2362204724409449
21
0.6673228346456693
0
LINE
8
BLACK
6
CONTINUOUS
10
0.2362204724409449
20
0.6673228346456693
11
0.2363120078740157
21
0.6673046456692914
0
LINE
8
BLACK
6
CONTINUOUS
10
-0.2398938976377953
20
0.6653543307086615
11
-0.4438976377952756
21
0.5476598818897638
0
LINE
8
BLACK
6
CONTINUOUS
10
-0.4438976377952756
20
0.5476598818897638
11
-0.4438976377952756
21
0.3763779527559055
0
LINE
8
BLACK
6
CONTINUOUS
10
-0.4438976377952756
20
0.3763779527559055
11
0.4399606299212598
21
0.3763779527559055
0
LINE
8
BLACK
6
CONTINUOUS
10
0.4399606299212598
20
0.3763779527559055
11
0.4399606299212598
21
0.5476599212598425
0
LINE
8
BLACK
6
CONTINUOUS
10
0.4399606299212598
20
0.5476599212598425
11
0.2359568897637795
21
0.6653543307086615
0
LINE
8
BLACK
6
CONTINUOUS
10
0.2359568897637795
20
0.6653543307086615
11
-0.2398938976377953
21
0.6653543307086615
0
LINE
8
BLACK
6
CONTINUOUS
10
-0.4748201968503937
20
0.5127203543307086
11
-0.4742875196850393
21
0.5121876771653543
0
LINE
8
BLACK
6
CONTINUOUS
10
-0.4742875196850393
20
0.5121876771653543
11
-0.4742125984251969
21
0.5118110236220472
0
LINE
8
BLACK
6
CONTINUOUS
10
-0.4742125984251969
20
0.5118110236220472
11
-0.4742125984251969
21
0.4346456692913386
0
LINE
8
BLACK
6
CONTINUOUS
10
-0.4742125984251969
20
0.4346456692913386
11
-0.4742875196850393
21
0.4342690157480315
0
LINE
8
BLACK
6
CONTINUOUS
10
-0.4742875196850393
20
0.4342690157480315
11
-0.4748201968503937
21
0.4337363385826771
0
LINE
8
BLACK
6
CONTINUOUS
10
-0.4748201968503937
20
0.4337363385826771
11
-0.4751968503937008
21
0.4336614173228346
0
LINE
8
BLACK
6
CONTINUOUS
10
-0.4751968503937008
20
0.4336614173228346
11
-0.6090551181102362
21
0.4336614173228346
0
LINE
8
BLACK
6
CONTINUOUS
10
-0.6090551181102362
20
0.4336614173228346
11
-0.6094317716535433
21
0.4337363385826771
0
LINE
8
BLACK
6
CONTINUOUS
10
-0.6094317716535433
20
0.4337363385826771
11
-0.6099644488188977
21
0.4342690157480315
0
LINE
8
BLACK
6
CONTINUOUS
10
-0.6099644488188977
20
0.4342690157480315
11
-0.6100393700787401
21
0.4346456692913386
0
LINE
8
BLACK
6
CONTINUOUS
10
-0.6100393700787401
20
0.4346456692913386
11
-0.6100393700787401
21
0.5118110236220472
0
LINE
8
BLACK
6
CONTINUOUS
10
-0.6100393700787401
20
0.5118110236220472
11
-0.6099644488188977
21
0.5121876771653543
0
LINE
8
BLACK
6
CONTINUOUS
10
-0.6099644488188977
20
0.5121876771653543
11
-0.6094317716535433
21
0.5127203543307086
0
LINE
8
BLACK
6
CONTINUOUS
10
-0.6094317716535433
20
0.5127203543307086
11
-0.6090551181102362
21
0.5127952755905512
0
LINE
8
BLACK
6
CONTINUOUS
10
-0.6090551181102362
20
0.5127952755905512
11
-0.4751968503937008
21
0.5127952755905512
0
LINE
8
BLACK
6
CONTINUOUS
10
-0.4751968503937008
20
0.5127952755905512
11
-0.4748201968503937
21
0.5127203543307086
0
LINE
8
BLACK
6
CONTINUOUS
10
-0.6080708661417322
20
0.5108267716535433
11
-0.6080708661417322
21
0.4356299212598425
0
LINE
8
BLACK
6
CONTINUOUS
10
-0.6080708661417322
20
0.4356299212598425
11
-0.4761811023622047
21
0.4356299212598425
0
LINE
8
BLACK
6
CONTINUOUS
10
-0.4761811023622047
20
0.4356299212598425
11
-0.4761811023622047
21
0.5108267716535433
0
LINE
8
BLACK
6
CONTINUOUS
10
-0.4761811023622047
20
0.5108267716535433
11
-0.6080708661417322
21
0.5108267716535433
0
LINE
8
BLACK
6
CONTINUOUS
10
-0.4752138976377953
20
0.5942164173228346
11
-0.4746812204724409
21
0.5936837401574803
0
LINE
8
BLACK
6
CONTINUOUS
10
-0.4746812204724409
20
0.5936837401574803
11
-0.4746062992125984
21
0.5933070866141732
0
LINE
8
BLACK
6
CONTINUOUS
10
-0.4746062992125984
20
0.5933070866141732
11
-0.4746062992125984
21
0.5161417322834646
0
LINE
8
BLACK
6
CONTINUOUS
10
-0.4746062992125984
20
0.5161417322834646
11
-0.4746812204724409
21
0.5157650787401574
0
LINE
8
BLACK
6
CONTINUOUS
10
-0.4746812204724409
20
0.5157650787401574
11
-0.4752138976377953
21
0.5152324015748031
0
LINE
8
BLACK
6
CONTINUOUS
10
-0.4752138976377953
20
0.5152324015748031
11
-0.4755905511811023
21
0.5151574803149607
0
LINE
8
BLACK
6
CONTINUOUS
10
-0.4755905511811023
20
0.5151574803149607
11
-0.6094488188976378
21
0.5151574803149607
0
LINE
8
BLACK
6
CONTINUOUS
10
-0.6094488188976378
20
0.5151574803149607
11
-0.6098254724409449
21
0.5152324015748031
0
LINE
8
BLACK
6
CONTINUOUS
10
-0.6098254724409449
20
0.5152324015748031
11
-0.6103581496062992
21
0.5157650787401574
0
LINE
8
BLACK
6
CONTINUOUS
10
-0.6103581496062992
20
0.5157650787401574
11
-0.6104330708661417
21
0.5161417322834646
0
LINE
8
BLACK
6
CONTINUOUS
10
-0.6104330708661417
20
0.5161417322834646
11
-0.6104330708661417
21
0.5933070866141732
0
LINE
8
BLACK
6
CONTINUOUS
10
-0.6104330708661417
20
0.5933070866141732
11
-0.6103581496062992
21
0.5936837401574803
0
LINE
8
BLACK
6
CONTINUOUS
10
-0.6103581496062992
20
0.5936837401574803
11
-0.6098254724409449
21
0.5942164173228346
0
LINE
8
BLACK
6
CONTINUOUS
10
-0.6098254724409449
20
0.5942164173228346
11
-0.6094488188976378
21
0.5942913385826771
0
LINE
8
BLACK
6
CONTINUOUS
10
-0.6094488188976378
20
0.5942913385826771
11
-0.4755905511811023
21
0.5942913385826771
0
LINE
8
BLACK
6
CONTINUOUS
10
-0.4755905511811023
20
0.5942913385826771
11
-0.4752138976377953
21
0.5942164173228346
0
LINE
8
BLACK
6
CONTINUOUS
10
-0.6084645669291339
20
0.5923228346456693
11
-0.6084645669291339
21
0.5171259842519685
0
LINE
8
BLACK
6
CONTINUOUS
10
-0.6084645669291339
20
0.5171259842519685
11
-0.4765748031496063
21
0.5171259842519685
0
LINE
8
BLACK
6
CONTINUOUS
10
-0.4765748031496063
20
0.5171259842519685
11
-0.4765748031496063
21
0.5923228346456693
0
LINE
8
BLACK
6
CONTINUOUS
10
-0.4765748031496063
20
0.5923228346456693
11
-0.6084645669291339
21
0.5923228346456693
0
CIRCLE
8
BLACK
10
0.3868110236220472
20
-0.5023622047244094
40
0.0068897637795276
0
CIRCLE
8
BLACK
10
0.2868110236220472
20
-0.5023622047244094
40
0.0068897637795276
0
CIRCLE
8
BLACK
10
0.1868110236220472
20
-0.5023622047244094
40
0.0068897637795276
0
CIRCLE
8
BLACK
10
0.5980314960629921
20
-0.3980314960629921
40
0.0068897637795276
0
CIRCLE
8
BLACK
10
-0.6019685039370078
20
-0.3980314960629921
40
0.0068897637795276
0
CIRCLE
8
BLACK
10
0.5980314960629921
20
0.8019685039370078
40
0.0068897637795276
0
CIRCLE
8
BLACK
10
0.0318897637795276
20
-0.408267716535433
40
0.0068897637795276
0
CIRCLE
8
BLACK
10
0.0318897637795276
20
-0.508267716535433
40
0.0068897637795276
0
CIRCLE
8
BLACK
10
-0.0681102362204724
20
-0.408267716535433
40
0.0068897637795276
0
CIRCLE
8
BLACK
10
-0.0681102362204724
20
-0.508267716535433
40
0.0068897637795276
0
CIRCLE
8
BLACK
10
-0.1681102362204724
20
-0.408267716535433
40
0.0068897637795276
0
CIRCLE
8
BLACK
10
-0.1681102362204724
20
-0.508267716535433
40
0.0068897637795276
0
CIRCLE
8
BLACK
10
-0.2681102362204724
20
-0.408267716535433
40
0.0068897637795276
0
CIRCLE
8
BLACK
10
-0.2681102362204724
20
-0.508267716535433
40
0.0068897637795276
0
CIRCLE
8
BLACK
10
-0.3681102362204725
20
-0.408267716535433
40
0.0068897637795276
0
CIRCLE
8
BLACK
10
-0.3681102362204725
20
-0.508267716535433
40
0.0068897637795276
0
CIRCLE
8
BLACK
10
-0.6019685039370078
20
0.8019685039370078
40
0.0068897637795276
  0
ENDSEC
  0
EOF
