  0
SECTION
  2
HEADER
  9
$ANGBASE
  50
0.0
  9
$ANGDIR
  70
1
  9
$MEASUREMENT
  70
0
  0
ENDSEC
  0
SECTION
  2
TABLES
  0
TABLE
  2
LTYPE
  70
4
  0
LTYPE
  5
40F
  2
CONTINUOUS
  70
0
  3
Solid line
  72
65
  73
0
  40
0.0
  0
LTYPE
  5
410
  2
DASHDOT
 70
0
  3
Dash Dot ____ _ ____ _
 72
65
 73
4
 40
2.0
 49
1.25
 49
-0.25
 49
0.25
 49
-0.25
  0
LTYPE
  5
411
  2
DASHED
 70
0
  3
Dashed __ __ __ __ __
 72
65
 73
2
 40
0.75
 49
0.5
 49
-0.25
  0
LTYPE
  5
43B
  2
DOTTED
 70
0
  3
Dotted .  .  .  .
 72
65
 73
2
 40
0.2
 49
0.0
 49
-0.2
  0
ENDTAB
  0
TABLE
  2
STYLE
  70
4
  0
STYLE
  2
KICAD
  70
0
  40
0
  41
1
  42
1
  50
0
  71
0
  3
isocp.shx
  0
STYLE
  2
KICADB
  70
0
  40
0
  41
1
  42
1
  50
0
  71
0
  3
isocp.shx
  0
STYLE
  2
KICADI
  70
0
  40
0
  41
1
  42
1
  50
15
  71
0
  3
isocp.shx
  0
STYLE
  2
KICADBI
  70
0
  40
0
  41
1
  42
1
  50
15
  71
0
  3
isocp.shx
  0
ENDTAB
  0
TABLE
  2
LAYER
  70
1
  0
LAYER
  2
BLACK
  70
0
  62
7
  6
CONTINUOUS
  0
ENDTAB
  0
ENDSEC
  0
SECTION
  2
ENTITIES
0
LINE
8
BLACK
6
CONTINUOUS
10
-0.3583959842519685
20
-0.4762441338582677
11
-0.352335157480315
21
-0.4787546062992126
0
LINE
8
BLACK
6
CONTINUOUS
10
-0.352335157480315
20
-0.4787546062992126
11
-0.3468805511811023
21
-0.4823992519685039
0
LINE
8
BLACK
6
CONTINUOUS
10
-0.3468805511811023
20
-0.4823992519685039
11
-0.3422417716535433
21
-0.487038031496063
0
LINE
8
BLACK
6
CONTINUOUS
10
-0.3422417716535433
20
-0.487038031496063
11
-0.338597125984252
21
-0.4924926377952756
0
LINE
8
BLACK
6
CONTINUOUS
10
-0.338597125984252
20
-0.4924926377952756
11
-0.3360866535433071
21
-0.4985534645669291
0
LINE
8
BLACK
6
CONTINUOUS
10
-0.3360866535433071
20
-0.4985534645669291
11
-0.334806811023622
21
-0.5049875984251968
0
LINE
8
BLACK
6
CONTINUOUS
10
-0.334806811023622
20
-0.5049875984251968
11
-0.334806811023622
21
-0.5115478346456693
0
LINE
8
BLACK
6
CONTINUOUS
10
-0.334806811023622
20
-0.5115478346456693
11
-0.3360866535433071
21
-0.517981968503937
0
LINE
8
BLACK
6
CONTINUOUS
10
-0.3360866535433071
20
-0.517981968503937
11
-0.338597125984252
21
-0.5240427952755905
0
LINE
8
BLACK
6
CONTINUOUS
10
-0.338597125984252
20
-0.5240427952755905
11
-0.3422417716535433
21
-0.5294974015748032
0
LINE
8
BLACK
6
CONTINUOUS
10
-0.3422417716535433
20
-0.5294974015748032
11
-0.3468805511811023
21
-0.5341361811023622
0
LINE
8
BLACK
6
CONTINUOUS
10
-0.3468805511811023
20
-0.5341361811023622
11
-0.352335157480315
21
-0.5377808267716535
0
LINE
8
BLACK
6
CONTINUOUS
10
-0.352335157480315
20
-0.5377808267716535
11
-0.3583959842519685
21
-0.5402912992125984
0
LINE
8
BLACK
6
CONTINUOUS
10
-0.3583959842519685
20
-0.5402912992125984
11
-0.3648301181102362
21
-0.5415711417322835
0
LINE
8
BLACK
6
CONTINUOUS
10
-0.3648301181102362
20
-0.5415711417322835
11
-0.3713903543307087
21
-0.5415711417322835
0
LINE
8
BLACK
6
CONTINUOUS
10
-0.3713903543307087
20
-0.5415711417322835
11
-0.3778244881889763
21
-0.5402912992125984
0
LINE
8
BLACK
6
CONTINUOUS
10
-0.3778244881889763
20
-0.5402912992125984
11
-0.3838853149606299
21
-0.5377808267716535
0
LINE
8
BLACK
6
CONTINUOUS
10
-0.3838853149606299
20
-0.5377808267716535
11
-0.3893399212598425
21
-0.5341361811023622
0
LINE
8
BLACK
6
CONTINUOUS
10
-0.3893399212598425
20
-0.5341361811023622
11
-0.3939787007874015
21
-0.5294974015748032
0
LINE
8
BLACK
6
CONTINUOUS
10
-0.3939787007874015
20
-0.5294974015748032
11
-0.3976233464566929
21
-0.5240427952755905
0
LINE
8
BLACK
6
CONTINUOUS
10
-0.3976233464566929
20
-0.5240427952755905
11
-0.4001338188976378
21
-0.517981968503937
0
LINE
8
BLACK
6
CONTINUOUS
10
-0.4001338188976378
20
-0.517981968503937
11
-0.4014136614173228
21
-0.5115478346456693
0
LINE
8
BLACK
6
CONTINUOUS
10
-0.4014136614173228
20
-0.5115478346456693
11
-0.4014136614173228
21
-0.5049875984251968
0
LINE
8
BLACK
6
CONTINUOUS
10
-0.4014136614173228
20
-0.5049875984251968
11
-0.4001338188976378
21
-0.4985534645669291
0
LINE
8
BLACK
6
CONTINUOUS
10
-0.4001338188976378
20
-0.4985534645669291
11
-0.3976233464566929
21
-0.4924926377952756
0
LINE
8
BLACK
6
CONTINUOUS
10
-0.3976233464566929
20
-0.4924926377952756
11
-0.3939787007874015
21
-0.487038031496063
0
LINE
8
BLACK
6
CONTINUOUS
10
-0.3939787007874015
20
-0.487038031496063
11
-0.3893399212598425
21
-0.4823992519685039
0
LINE
8
BLACK
6
CONTINUOUS
10
-0.3893399212598425
20
-0.4823992519685039
11
-0.3838853149606299
21
-0.4787546062992126
0
LINE
8
BLACK
6
CONTINUOUS
10
-0.3838853149606299
20
-0.4787546062992126
11
-0.3778244881889763
21
-0.4762441338582677
0
LINE
8
BLACK
6
CONTINUOUS
10
-0.3778244881889763
20
-0.4762441338582677
11
-0.3713903543307087
21
-0.4749642913385826
0
LINE
8
BLACK
6
CONTINUOUS
10
-0.3713903543307087
20
-0.4749642913385826
11
-0.3648301181102362
21
-0.4749642913385826
0
LINE
8
BLACK
6
CONTINUOUS
10
-0.3648301181102362
20
-0.4749642913385826
11
-0.3583959842519685
21
-0.4762441338582677
0
LINE
8
BLACK
6
CONTINUOUS
10
-0.2583959842519685
20
-0.4762441338582677
11
-0.2523351574803149
21
-0.4787546062992126
0
LINE
8
BLACK
6
CONTINUOUS
10
-0.2523351574803149
20
-0.4787546062992126
11
-0.2468805511811024
21
-0.4823992519685039
0
LINE
8
BLACK
6
CONTINUOUS
10
-0.2468805511811024
20
-0.4823992519685039
11
-0.2422417716535433
21
-0.487038031496063
0
LINE
8
BLACK
6
CONTINUOUS
10
-0.2422417716535433
20
-0.487038031496063
11
-0.238597125984252
21
-0.4924926377952756
0
LINE
8
BLACK
6
CONTINUOUS
10
-0.238597125984252
20
-0.4924926377952756
11
-0.2360866535433071
21
-0.4985534645669291
0
LINE
8
BLACK
6
CONTINUOUS
10
-0.2360866535433071
20
-0.4985534645669291
11
-0.2348068110236221
21
-0.5049875984251968
0
LINE
8
BLACK
6
CONTINUOUS
10
-0.2348068110236221
20
-0.5049875984251968
11
-0.2348068110236221
21
-0.5115478346456693
0
LINE
8
BLACK
6
CONTINUOUS
10
-0.2348068110236221
20
-0.5115478346456693
11
-0.2360866535433071
21
-0.517981968503937
0
LINE
8
BLACK
6
CONTINUOUS
10
-0.2360866535433071
20
-0.517981968503937
11
-0.238597125984252
21
-0.5240427952755905
0
LINE
8
BLACK
6
CONTINUOUS
10
-0.238597125984252
20
-0.5240427952755905
11
-0.2422417716535433
21
-0.5294974015748032
0
LINE
8
BLACK
6
CONTINUOUS
10
-0.2422417716535433
20
-0.5294974015748032
11
-0.2468805511811024
21
-0.5341361811023622
0
LINE
8
BLACK
6
CONTINUOUS
10
-0.2468805511811024
20
-0.5341361811023622
11
-0.2523351574803149
21
-0.5377808267716535
0
LINE
8
BLACK
6
CONTINUOUS
10
-0.2523351574803149
20
-0.5377808267716535
11
-0.2583959842519685
21
-0.5402912992125984
0
LINE
8
BLACK
6
CONTINUOUS
10
-0.2583959842519685
20
-0.5402912992125984
11
-0.2648301181102362
21
-0.5415711417322835
0
LINE
8
BLACK
6
CONTINUOUS
10
-0.2648301181102362
20
-0.5415711417322835
11
-0.2713903543307087
21
-0.5415711417322835
0
LINE
8
BLACK
6
CONTINUOUS
10
-0.2713903543307087
20
-0.5415711417322835
11
-0.2778244881889764
21
-0.5402912992125984
0
LINE
8
BLACK
6
CONTINUOUS
10
-0.2778244881889764
20
-0.5402912992125984
11
-0.2838853149606299
21
-0.5377808267716535
0
LINE
8
BLACK
6
CONTINUOUS
10
-0.2838853149606299
20
-0.5377808267716535
11
-0.2893399212598425
21
-0.5341361811023622
0
LINE
8
BLACK
6
CONTINUOUS
10
-0.2893399212598425
20
-0.5341361811023622
11
-0.2939787007874016
21
-0.5294974015748032
0
LINE
8
BLACK
6
CONTINUOUS
10
-0.2939787007874016
20
-0.5294974015748032
11
-0.2976233464566929
21
-0.5240427952755905
0
LINE
8
BLACK
6
CONTINUOUS
10
-0.2976233464566929
20
-0.5240427952755905
11
-0.3001338188976378
21
-0.517981968503937
0
LINE
8
BLACK
6
CONTINUOUS
10
-0.3001338188976378
20
-0.517981968503937
11
-0.3014136614173228
21
-0.5115478346456693
0
LINE
8
BLACK
6
CONTINUOUS
10
-0.3014136614173228
20
-0.5115478346456693
11
-0.3014136614173228
21
-0.5049875984251968
0
LINE
8
BLACK
6
CONTINUOUS
10
-0.3014136614173228
20
-0.5049875984251968
11
-0.3001338188976378
21
-0.4985534645669291
0
LINE
8
BLACK
6
CONTINUOUS
10
-0.3001338188976378
20
-0.4985534645669291
11
-0.2976233464566929
21
-0.4924926377952756
0
LINE
8
BLACK
6
CONTINUOUS
10
-0.2976233464566929
20
-0.4924926377952756
11
-0.2939787007874016
21
-0.487038031496063
0
LINE
8
BLACK
6
CONTINUOUS
10
-0.2939787007874016
20
-0.487038031496063
11
-0.2893399212598425
21
-0.4823992519685039
0
LINE
8
BLACK
6
CONTINUOUS
10
-0.2893399212598425
20
-0.4823992519685039
11
-0.2838853149606299
21
-0.4787546062992126
0
LINE
8
BLACK
6
CONTINUOUS
10
-0.2838853149606299
20
-0.4787546062992126
11
-0.2778244881889764
21
-0.4762441338582677
0
LINE
8
BLACK
6
CONTINUOUS
10
-0.2778244881889764
20
-0.4762441338582677
11
-0.2713903543307087
21
-0.4749642913385826
0
LINE
8
BLACK
6
CONTINUOUS
10
-0.2713903543307087
20
-0.4749642913385826
11
-0.2648301181102362
21
-0.4749642913385826
0
LINE
8
BLACK
6
CONTINUOUS
10
-0.2648301181102362
20
-0.4749642913385826
11
-0.2583959842519685
21
-0.4762441338582677
0
LINE
8
BLACK
6
CONTINUOUS
10
-0.1583959842519685
20
-0.4762441338582677
11
-0.152335157480315
21
-0.4787546062992126
0
LINE
8
BLACK
6
CONTINUOUS
10
-0.152335157480315
20
-0.4787546062992126
11
-0.1468805511811024
21
-0.4823992519685039
0
LINE
8
BLACK
6
CONTINUOUS
10
-0.1468805511811024
20
-0.4823992519685039
11
-0.1422417716535433
21
-0.487038031496063
0
LINE
8
BLACK
6
CONTINUOUS
10
-0.1422417716535433
20
-0.487038031496063
11
-0.138597125984252
21
-0.4924926377952756
0
LINE
8
BLACK
6
CONTINUOUS
10
-0.138597125984252
20
-0.4924926377952756
11
-0.1360866535433071
21
-0.4985534645669291
0
LINE
8
BLACK
6
CONTINUOUS
10
-0.1360866535433071
20
-0.4985534645669291
11
-0.134806811023622
21
-0.5049875984251968
0
LINE
8
BLACK
6
CONTINUOUS
10
-0.134806811023622
20
-0.5049875984251968
11
-0.134806811023622
21
-0.5115478346456693
0
LINE
8
BLACK
6
CONTINUOUS
10
-0.134806811023622
20
-0.5115478346456693
11
-0.1360866535433071
21
-0.517981968503937
0
LINE
8
BLACK
6
CONTINUOUS
10
-0.1360866535433071
20
-0.517981968503937
11
-0.138597125984252
21
-0.5240427952755905
0
LINE
8
BLACK
6
CONTINUOUS
10
-0.138597125984252
20
-0.5240427952755905
11
-0.1422417716535433
21
-0.5294974015748032
0
LINE
8
BLACK
6
CONTINUOUS
10
-0.1422417716535433
20
-0.5294974015748032
11
-0.1468805511811024
21
-0.5341361811023622
0
LINE
8
BLACK
6
CONTINUOUS
10
-0.1468805511811024
20
-0.5341361811023622
11
-0.152335157480315
21
-0.5377808267716535
0
LINE
8
BLACK
6
CONTINUOUS
10
-0.152335157480315
20
-0.5377808267716535
11
-0.1583959842519685
21
-0.5402912992125984
0
LINE
8
BLACK
6
CONTINUOUS
10
-0.1583959842519685
20
-0.5402912992125984
11
-0.1648301181102362
21
-0.5415711417322835
0
LINE
8
BLACK
6
CONTINUOUS
10
-0.1648301181102362
20
-0.5415711417322835
11
-0.1713903543307086
21
-0.5415711417322835
0
LINE
8
BLACK
6
CONTINUOUS
10
-0.1713903543307086
20
-0.5415711417322835
11
-0.1778244881889764
21
-0.5402912992125984
0
LINE
8
BLACK
6
CONTINUOUS
10
-0.1778244881889764
20
-0.5402912992125984
11
-0.1838853149606299
21
-0.5377808267716535
0
LINE
8
BLACK
6
CONTINUOUS
10
-0.1838853149606299
20
-0.5377808267716535
11
-0.1893399212598425
21
-0.5341361811023622
0
LINE
8
BLACK
6
CONTINUOUS
10
-0.1893399212598425
20
-0.5341361811023622
11
-0.1939787007874016
21
-0.5294974015748032
0
LINE
8
BLACK
6
CONTINUOUS
10
-0.1939787007874016
20
-0.5294974015748032
11
-0.1976233464566929
21
-0.5240427952755905
0
LINE
8
BLACK
6
CONTINUOUS
10
-0.1976233464566929
20
-0.5240427952755905
11
-0.2001338188976378
21
-0.517981968503937
0
LINE
8
BLACK
6
CONTINUOUS
10
-0.2001338188976378
20
-0.517981968503937
11
-0.2014136614173228
21
-0.5115478346456693
0
LINE
8
BLACK
6
CONTINUOUS
10
-0.2014136614173228
20
-0.5115478346456693
11
-0.2014136614173228
21
-0.5049875984251968
0
LINE
8
BLACK
6
CONTINUOUS
10
-0.2014136614173228
20
-0.5049875984251968
11
-0.2001338188976378
21
-0.4985534645669291
0
LINE
8
BLACK
6
CONTINUOUS
10
-0.2001338188976378
20
-0.4985534645669291
11
-0.1976233464566929
21
-0.4924926377952756
0
LINE
8
BLACK
6
CONTINUOUS
10
-0.1976233464566929
20
-0.4924926377952756
11
-0.1939787007874016
21
-0.487038031496063
0
LINE
8
BLACK
6
CONTINUOUS
10
-0.1939787007874016
20
-0.487038031496063
11
-0.1893399212598425
21
-0.4823992519685039
0
LINE
8
BLACK
6
CONTINUOUS
10
-0.1893399212598425
20
-0.4823992519685039
11
-0.1838853149606299
21
-0.4787546062992126
0
LINE
8
BLACK
6
CONTINUOUS
10
-0.1838853149606299
20
-0.4787546062992126
11
-0.1778244881889764
21
-0.4762441338582677
0
LINE
8
BLACK
6
CONTINUOUS
10
-0.1778244881889764
20
-0.4762441338582677
11
-0.1713903543307086
21
-0.4749642913385826
0
LINE
8
BLACK
6
CONTINUOUS
10
-0.1713903543307086
20
-0.4749642913385826
11
-0.1648301181102362
21
-0.4749642913385826
0
LINE
8
BLACK
6
CONTINUOUS
10
-0.1648301181102362
20
-0.4749642913385826
11
-0.1583959842519685
21
-0.4762441338582677
0
LINE
8
BLACK
6
CONTINUOUS
10
-0.0583959842519685
20
-0.4762441338582677
11
-0.052335157480315
21
-0.4787546062992126
0
LINE
8
BLACK
6
CONTINUOUS
10
-0.052335157480315
20
-0.4787546062992126
11
-0.0468805511811024
21
-0.4823992519685039
0
LINE
8
BLACK
6
CONTINUOUS
10
-0.0468805511811024
20
-0.4823992519685039
11
-0.0422417716535433
21
-0.487038031496063
0
LINE
8
BLACK
6
CONTINUOUS
10
-0.0422417716535433
20
-0.487038031496063
11
-0.038597125984252
21
-0.4924926377952756
0
LINE
8
BLACK
6
CONTINUOUS
10
-0.038597125984252
20
-0.4924926377952756
11
-0.0360866535433071
21
-0.4985534645669291
0
LINE
8
BLACK
6
CONTINUOUS
10
-0.0360866535433071
20
-0.4985534645669291
11
-0.034806811023622
21
-0.5049875984251968
0
LINE
8
BLACK
6
CONTINUOUS
10
-0.034806811023622
20
-0.5049875984251968
11
-0.034806811023622
21
-0.5115478346456693
0
LINE
8
BLACK
6
CONTINUOUS
10
-0.034806811023622
20
-0.5115478346456693
11
-0.0360866535433071
21
-0.517981968503937
0
LINE
8
BLACK
6
CONTINUOUS
10
-0.0360866535433071
20
-0.517981968503937
11
-0.038597125984252
21
-0.5240427952755905
0
LINE
8
BLACK
6
CONTINUOUS
10
-0.038597125984252
20
-0.5240427952755905
11
-0.0422417716535433
21
-0.5294974015748032
0
LINE
8
BLACK
6
CONTINUOUS
10
-0.0422417716535433
20
-0.5294974015748032
11
-0.0468805511811024
21
-0.5341361811023622
0
LINE
8
BLACK
6
CONTINUOUS
10
-0.0468805511811024
20
-0.5341361811023622
11
-0.052335157480315
21
-0.5377808267716535
0
LINE
8
BLACK
6
CONTINUOUS
10
-0.052335157480315
20
-0.5377808267716535
11
-0.0583959842519685
21
-0.5402912992125984
0
LINE
8
BLACK
6
CONTINUOUS
10
-0.0583959842519685
20
-0.5402912992125984
11
-0.0648301181102362
21
-0.5415711417322835
0
LINE
8
BLACK
6
CONTINUOUS
10
-0.0648301181102362
20
-0.5415711417322835
11
-0.0713903543307087
21
-0.5415711417322835
0
LINE
8
BLACK
6
CONTINUOUS
10
-0.0713903543307087
20
-0.5415711417322835
11
-0.0778244881889764
21
-0.5402912992125984
0
LINE
8
BLACK
6
CONTINUOUS
10
-0.0778244881889764
20
-0.5402912992125984
11
-0.0838853149606299
21
-0.5377808267716535
0
LINE
8
BLACK
6
CONTINUOUS
10
-0.0838853149606299
20
-0.5377808267716535
11
-0.0893399212598425
21
-0.5341361811023622
0
LINE
8
BLACK
6
CONTINUOUS
10
-0.0893399212598425
20
-0.5341361811023622
11
-0.0939787007874016
21
-0.5294974015748032
0
LINE
8
BLACK
6
CONTINUOUS
10
-0.0939787007874016
20
-0.5294974015748032
11
-0.0976233464566929
21
-0.5240427952755905
0
LINE
8
BLACK
6
CONTINUOUS
10
-0.0976233464566929
20
-0.5240427952755905
11
-0.1001338188976378
21
-0.517981968503937
0
LINE
8
BLACK
6
CONTINUOUS
10
-0.1001338188976378
20
-0.517981968503937
11
-0.1014136614173228
21
-0.5115478346456693
0
LINE
8
BLACK
6
CONTINUOUS
10
-0.1014136614173228
20
-0.5115478346456693
11
-0.1014136614173228
21
-0.5049875984251968
0
LINE
8
BLACK
6
CONTINUOUS
10
-0.1014136614173228
20
-0.5049875984251968
11
-0.1001338188976378
21
-0.4985534645669291
0
LINE
8
BLACK
6
CONTINUOUS
10
-0.1001338188976378
20
-0.4985534645669291
11
-0.0976233464566929
21
-0.4924926377952756
0
LINE
8
BLACK
6
CONTINUOUS
10
-0.0976233464566929
20
-0.4924926377952756
11
-0.0939787007874016
21
-0.487038031496063
0
LINE
8
BLACK
6
CONTINUOUS
10
-0.0939787007874016
20
-0.487038031496063
11
-0.0893399212598425
21
-0.4823992519685039
0
LINE
8
BLACK
6
CONTINUOUS
10
-0.0893399212598425
20
-0.4823992519685039
11
-0.0838853149606299
21
-0.4787546062992126
0
LINE
8
BLACK
6
CONTINUOUS
10
-0.0838853149606299
20
-0.4787546062992126
11
-0.0778244881889764
21
-0.4762441338582677
0
LINE
8
BLACK
6
CONTINUOUS
10
-0.0778244881889764
20
-0.4762441338582677
11
-0.0713903543307087
21
-0.4749642913385826
0
LINE
8
BLACK
6
CONTINUOUS
10
-0.0713903543307087
20
-0.4749642913385826
11
-0.0648301181102362
21
-0.4749642913385826
0
LINE
8
BLACK
6
CONTINUOUS
10
-0.0648301181102362
20
-0.4749642913385826
11
-0.0583959842519685
21
-0.4762441338582677
0
LINE
8
BLACK
6
CONTINUOUS
10
0.0416040157480315
20
-0.4762441338582677
11
0.047664842519685
21
-0.4787546062992126
0
LINE
8
BLACK
6
CONTINUOUS
10
0.047664842519685
20
-0.4787546062992126
11
0.0531194488188976
21
-0.4823992519685039
0
LINE
8
BLACK
6
CONTINUOUS
10
0.0531194488188976
20
-0.4823992519685039
11
0.0577582283464567
21
-0.487038031496063
0
LINE
8
BLACK
6
CONTINUOUS
10
0.0577582283464567
20
-0.487038031496063
11
0.061402874015748
21
-0.4924926377952756
0
LINE
8
BLACK
6
CONTINUOUS
10
0.061402874015748
20
-0.4924926377952756
11
0.0639133464566929
21
-0.4985534645669291
0
LINE
8
BLACK
6
CONTINUOUS
10
0.0639133464566929
20
-0.4985534645669291
11
0.0651931889763779
21
-0.5049875984251968
0
LINE
8
BLACK
6
CONTINUOUS
10
0.0651931889763779
20
-0.5049875984251968
11
0.0651931889763779
21
-0.5115478346456693
0
LINE
8
BLACK
6
CONTINUOUS
10
0.0651931889763779
20
-0.5115478346456693
11
0.0639133464566929
21
-0.517981968503937
0
LINE
8
BLACK
6
CONTINUOUS
10
0.0639133464566929
20
-0.517981968503937
11
0.061402874015748
21
-0.5240427952755905
0
LINE
8
BLACK
6
CONTINUOUS
10
0.061402874015748
20
-0.5240427952755905
11
0.0577582283464567
21
-0.5294974015748032
0
LINE
8
BLACK
6
CONTINUOUS
10
0.0577582283464567
20
-0.5294974015748032
11
0.0531194488188976
21
-0.5341361811023622
0
LINE
8
BLACK
6
CONTINUOUS
10
0.0531194488188976
20
-0.5341361811023622
11
0.047664842519685
21
-0.5377808267716535
0
LINE
8
BLACK
6
CONTINUOUS
10
0.047664842519685
20
-0.5377808267716535
11
0.0416040157480315
21
-0.5402912992125984
0
LINE
8
BLACK
6
CONTINUOUS
10
0.0416040157480315
20
-0.5402912992125984
11
0.0351698818897638
21
-0.5415711417322835
0
LINE
8
BLACK
6
CONTINUOUS
10
0.0351698818897638
20
-0.5415711417322835
11
0.0286096456692913
21
-0.5415711417322835
0
LINE
8
BLACK
6
CONTINUOUS
10
0.0286096456692913
20
-0.5415711417322835
11
0.0221755118110236
21
-0.5402912992125984
0
LINE
8
BLACK
6
CONTINUOUS
10
0.0221755118110236
20
-0.5402912992125984
11
0.0161146850393701
21
-0.5377808267716535
0
LINE
8
BLACK
6
CONTINUOUS
10
0.0161146850393701
20
-0.5377808267716535
11
0.0106600787401575
21
-0.5341361811023622
0
LINE
8
BLACK
6
CONTINUOUS
10
0.0106600787401575
20
-0.5341361811023622
11
0.0060212992125984
21
-0.5294974015748032
0
LINE
8
BLACK
6
CONTINUOUS
10
0.0060212992125984
20
-0.5294974015748032
11
0.0023766535433071
21
-0.5240427952755905
0
LINE
8
BLACK
6
CONTINUOUS
10
0.0023766535433071
20
-0.5240427952755905
11
-0.0001338188976378
21
-0.517981968503937
0
LINE
8
BLACK
6
CONTINUOUS
10
-0.0001338188976378
20
-0.517981968503937
11
-0.0014136614173228
21
-0.5115478346456693
0
LINE
8
BLACK
6
CONTINUOUS
10
-0.0014136614173228
20
-0.5115478346456693
11
-0.0014136614173228
21
-0.5049875984251968
0
LINE
8
BLACK
6
CONTINUOUS
10
-0.0014136614173228
20
-0.5049875984251968
11
-0.0001338188976378
21
-0.4985534645669291
0
LINE
8
BLACK
6
CONTINUOUS
10
-0.0001338188976378
20
-0.4985534645669291
11
0.0023766535433071
21
-0.4924926377952756
0
LINE
8
BLACK
6
CONTINUOUS
10
0.0023766535433071
20
-0.4924926377952756
11
0.0060212992125984
21
-0.487038031496063
0
LINE
8
BLACK
6
CONTINUOUS
10
0.0060212992125984
20
-0.487038031496063
11
0.0106600787401575
21
-0.4823992519685039
0
LINE
8
BLACK
6
CONTINUOUS
10
0.0106600787401575
20
-0.4823992519685039
11
0.0161146850393701
21
-0.4787546062992126
0
LINE
8
BLACK
6
CONTINUOUS
10
0.0161146850393701
20
-0.4787546062992126
11
0.0221755118110236
21
-0.4762441338582677
0
LINE
8
BLACK
6
CONTINUOUS
10
0.0221755118110236
20
-0.4762441338582677
11
0.0286096456692913
21
-0.4749642913385826
0
LINE
8
BLACK
6
CONTINUOUS
10
0.0286096456692913
20
-0.4749642913385826
11
0.0351698818897638
21
-0.4749642913385826
0
LINE
8
BLACK
6
CONTINUOUS
10
0.0351698818897638
20
-0.4749642913385826
11
0.0416040157480315
21
-0.4762441338582677
0
LINE
8
BLACK
6
CONTINUOUS
10
0.4202755905511811
20
-0.5358267716535433
11
0.3533464566929134
21
-0.5358267716535433
0
LINE
8
BLACK
6
CONTINUOUS
10
0.3533464566929134
20
-0.5358267716535433
11
0.3533464566929134
21
-0.4688976377952756
0
LINE
8
BLACK
6
CONTINUOUS
10
0.3533464566929134
20
-0.4688976377952756
11
0.4202755905511811
21
-0.4688976377952756
0
LINE
8
BLACK
6
CONTINUOUS
10
0.4202755905511811
20
-0.4688976377952756
11
0.4202755905511811
21
-0.5358267716535433
0
LINE
8
BLACK
6
CONTINUOUS
10
0.1965252755905512
20
-0.4703386220472441
11
0.2025861023622047
21
-0.472849094488189
0
LINE
8
BLACK
6
CONTINUOUS
10
0.2025861023622047
20
-0.472849094488189
11
0.2080407086614173
21
-0.4764937401574803
0
LINE
8
BLACK
6
CONTINUOUS
10
0.2080407086614173
20
-0.4764937401574803
11
0.2126794881889764
21
-0.4811325196850393
0
LINE
8
BLACK
6
CONTINUOUS
10
0.2126794881889764
20
-0.4811325196850393
11
0.2163241338582677
21
-0.486587125984252
0
LINE
8
BLACK
6
CONTINUOUS
10
0.2163241338582677
20
-0.486587125984252
11
0.2188346062992126
21
-0.4926479527559055
0
LINE
8
BLACK
6
CONTINUOUS
10
0.2188346062992126
20
-0.4926479527559055
11
0.2201144488188976
21
-0.4990820866141732
0
LINE
8
BLACK
6
CONTINUOUS
10
0.2201144488188976
20
-0.4990820866141732
11
0.2201144488188976
21
-0.5056423228346456
0
LINE
8
BLACK
6
CONTINUOUS
10
0.2201144488188976
20
-0.5056423228346456
11
0.2188346062992126
21
-0.5120764566929134
0
LINE
8
BLACK
6
CONTINUOUS
10
0.2188346062992126
20
-0.5120764566929134
11
0.2163241338582677
21
-0.5181372834645669
0
LINE
8
BLACK
6
CONTINUOUS
10
0.2163241338582677
20
-0.5181372834645669
11
0.2126794881889764
21
-0.5235918897637795
0
LINE
8
BLACK
6
CONTINUOUS
10
0.2126794881889764
20
-0.5235918897637795
11
0.2080407086614173
21
-0.5282306692913386
0
LINE
8
BLACK
6
CONTINUOUS
10
0.2080407086614173
20
-0.5282306692913386
11
0.2025861023622047
21
-0.5318753149606299
0
LINE
8
BLACK
6
CONTINUOUS
10
0.2025861023622047
20
-0.5318753149606299
11
0.1965252755905512
21
-0.5343857874015748
0
LINE
8
BLACK
6
CONTINUOUS
10
0.1965252755905512
20
-0.5343857874015748
11
0.1900911417322834
21
-0.5356656299212599
0
LINE
8
BLACK
6
CONTINUOUS
10
0.1900911417322834
20
-0.5356656299212599
11
0.183530905511811
21
-0.5356656299212599
0
LINE
8
BLACK
6
CONTINUOUS
10
0.183530905511811
20
-0.5356656299212599
11
0.1770967716535433
21
-0.5343857874015748
0
LINE
8
BLACK
6
CONTINUOUS
10
0.1770967716535433
20
-0.5343857874015748
11
0.1710359448818898
21
-0.5318753149606299
0
LINE
8
BLACK
6
CONTINUOUS
10
0.1710359448818898
20
-0.5318753149606299
11
0.1655813385826772
21
-0.5282306692913386
0
LINE
8
BLACK
6
CONTINUOUS
10
0.1655813385826772
20
-0.5282306692913386
11
0.1609425590551181
21
-0.5235918897637795
0
LINE
8
BLACK
6
CONTINUOUS
10
0.1609425590551181
20
-0.5235918897637795
11
0.1572979133858268
21
-0.5181372834645669
0
LINE
8
BLACK
6
CONTINUOUS
10
0.1572979133858268
20
-0.5181372834645669
11
0.1547874409448819
21
-0.5120764566929134
0
LINE
8
BLACK
6
CONTINUOUS
10
0.1547874409448819
20
-0.5120764566929134
11
0.1535075984251968
21
-0.5056423228346456
0
LINE
8
BLACK
6
CONTINUOUS
10
0.1535075984251968
20
-0.5056423228346456
11
0.1535075984251968
21
-0.4990820866141732
0
LINE
8
BLACK
6
CONTINUOUS
10
0.1535075984251968
20
-0.4990820866141732
11
0.1547874409448819
21
-0.4926479527559055
0
LINE
8
BLACK
6
CONTINUOUS
10
0.1547874409448819
20
-0.4926479527559055
11
0.1572979133858268
21
-0.486587125984252
0
LINE
8
BLACK
6
CONTINUOUS
10
0.1572979133858268
20
-0.486587125984252
11
0.1609425590551181
21
-0.4811325196850393
0
LINE
8
BLACK
6
CONTINUOUS
10
0.1609425590551181
20
-0.4811325196850393
11
0.1655813385826772
21
-0.4764937401574803
0
LINE
8
BLACK
6
CONTINUOUS
10
0.1655813385826772
20
-0.4764937401574803
11
0.1710359448818898
21
-0.472849094488189
0
LINE
8
BLACK
6
CONTINUOUS
10
0.1710359448818898
20
-0.472849094488189
11
0.1770967716535433
21
-0.4703386220472441
0
LINE
8
BLACK
6
CONTINUOUS
10
0.1770967716535433
20
-0.4703386220472441
11
0.183530905511811
21
-0.469058779527559
0
LINE
8
BLACK
6
CONTINUOUS
10
0.183530905511811
20
-0.469058779527559
11
0.1900911417322834
21
-0.469058779527559
0
LINE
8
BLACK
6
CONTINUOUS
10
0.1900911417322834
20
-0.469058779527559
11
0.1965252755905512
21
-0.4703386220472441
0
LINE
8
BLACK
6
CONTINUOUS
10
0.2965252755905512
20
-0.4703386220472441
11
0.3025861023622047
21
-0.472849094488189
0
LINE
8
BLACK
6
CONTINUOUS
10
0.3025861023622047
20
-0.472849094488189
11
0.3080407086614173
21
-0.4764937401574803
0
LINE
8
BLACK
6
CONTINUOUS
10
0.3080407086614173
20
-0.4764937401574803
11
0.3126794881889764
21
-0.4811325196850393
0
LINE
8
BLACK
6
CONTINUOUS
10
0.3126794881889764
20
-0.4811325196850393
11
0.3163241338582677
21
-0.486587125984252
0
LINE
8
BLACK
6
CONTINUOUS
10
0.3163241338582677
20
-0.486587125984252
11
0.3188346062992126
21
-0.4926479527559055
0
LINE
8
BLACK
6
CONTINUOUS
10
0.3188346062992126
20
-0.4926479527559055
11
0.3201144488188976
21
-0.4990820866141732
0
LINE
8
BLACK
6
CONTINUOUS
10
0.3201144488188976
20
-0.4990820866141732
11
0.3201144488188976
21
-0.5056423228346456
0
LINE
8
BLACK
6
CONTINUOUS
10
0.3201144488188976
20
-0.5056423228346456
11
0.3188346062992126
21
-0.5120764566929134
0
LINE
8
BLACK
6
CONTINUOUS
10
0.3188346062992126
20
-0.5120764566929134
11
0.3163241338582677
21
-0.5181372834645669
0
LINE
8
BLACK
6
CONTINUOUS
10
0.3163241338582677
20
-0.5181372834645669
11
0.3126794881889764
21
-0.5235918897637795
0
LINE
8
BLACK
6
CONTINUOUS
10
0.3126794881889764
20
-0.5235918897637795
11
0.3080407086614173
21
-0.5282306692913386
0
LINE
8
BLACK
6
CONTINUOUS
10
0.3080407086614173
20
-0.5282306692913386
11
0.3025861023622047
21
-0.5318753149606299
0
LINE
8
BLACK
6
CONTINUOUS
10
0.3025861023622047
20
-0.5318753149606299
11
0.2965252755905512
21
-0.5343857874015748
0
LINE
8
BLACK
6
CONTINUOUS
10
0.2965252755905512
20
-0.5343857874015748
11
0.2900911417322835
21
-0.5356656299212599
0
LINE
8
BLACK
6
CONTINUOUS
10
0.2900911417322835
20
-0.5356656299212599
11
0.283530905511811
21
-0.5356656299212599
0
LINE
8
BLACK
6
CONTINUOUS
10
0.283530905511811
20
-0.5356656299212599
11
0.2770967716535433
21
-0.5343857874015748
0
LINE
8
BLACK
6
CONTINUOUS
10
0.2770967716535433
20
-0.5343857874015748
11
0.2710359448818898
21
-0.5318753149606299
0
LINE
8
BLACK
6
CONTINUOUS
10
0.2710359448818898
20
-0.5318753149606299
11
0.2655813385826772
21
-0.5282306692913386
0
LINE
8
BLACK
6
CONTINUOUS
10
0.2655813385826772
20
-0.5282306692913386
11
0.2609425590551181
21
-0.5235918897637795
0
LINE
8
BLACK
6
CONTINUOUS
10
0.2609425590551181
20
-0.5235918897637795
11
0.2572979133858267
21
-0.5181372834645669
0
LINE
8
BLACK
6
CONTINUOUS
10
0.2572979133858267
20
-0.5181372834645669
11
0.2547874409448819
21
-0.5120764566929134
0
LINE
8
BLACK
6
CONTINUOUS
10
0.2547874409448819
20
-0.5120764566929134
11
0.2535075984251968
21
-0.5056423228346456
0
LINE
8
BLACK
6
CONTINUOUS
10
0.2535075984251968
20
-0.5056423228346456
11
0.2535075984251968
21
-0.4990820866141732
0
LINE
8
BLACK
6
CONTINUOUS
10
0.2535075984251968
20
-0.4990820866141732
11
0.2547874409448819
21
-0.4926479527559055
0
LINE
8
BLACK
6
CONTINUOUS
10
0.2547874409448819
20
-0.4926479527559055
11
0.2572979133858267
21
-0.486587125984252
0
LINE
8
BLACK
6
CONTINUOUS
10
0.2572979133858267
20
-0.486587125984252
11
0.2609425590551181
21
-0.4811325196850393
0
LINE
8
BLACK
6
CONTINUOUS
10
0.2609425590551181
20
-0.4811325196850393
11
0.2655813385826772
21
-0.4764937401574803
0
LINE
8
BLACK
6
CONTINUOUS
10
0.2655813385826772
20
-0.4764937401574803
11
0.2710359448818898
21
-0.472849094488189
0
LINE
8
BLACK
6
CONTINUOUS
10
0.2710359448818898
20
-0.472849094488189
11
0.2770967716535433
21
-0.4703386220472441
0
LINE
8
BLACK
6
CONTINUOUS
10
0.2770967716535433
20
-0.4703386220472441
11
0.283530905511811
21
-0.469058779527559
0
LINE
8
BLACK
6
CONTINUOUS
10
0.283530905511811
20
-0.469058779527559
11
0.2900911417322835
21
-0.469058779527559
0
LINE
8
BLACK
6
CONTINUOUS
10
0.2900911417322835
20
-0.469058779527559
11
0.2965252755905512
21
-0.4703386220472441
0
LINE
8
BLACK
6
CONTINUOUS
10
-0.5821842913385826
20
-0.2815900393700788
11
-0.5692713779527558
21
-0.2845373228346457
0
LINE
8
BLACK
6
CONTINUOUS
10
-0.5692713779527558
20
-0.2845373228346457
11
-0.5567696850393701
21
-0.2889118503937008
0
LINE
8
BLACK
6
CONTINUOUS
10
-0.5567696850393701
20
-0.2889118503937008
11
-0.5448363385826771
21
-0.2946586614173228
0
LINE
8
BLACK
6
CONTINUOUS
10
-0.5448363385826771
20
-0.2946586614173228
11
-0.5336214960629921
21
-0.3017053937007874
0
LINE
8
BLACK
6
CONTINUOUS
10
-0.5336214960629921
20
-0.3017053937007874
11
-0.5232661417322835
21
-0.3099635433070866
0
LINE
8
BLACK
6
CONTINUOUS
10
-0.5232661417322835
20
-0.3099635433070866
11
-0.5139005511811023
21
-0.3193291338582677
0
LINE
8
BLACK
6
CONTINUOUS
10
-0.5139005511811023
20
-0.3193291338582677
11
-0.5056424015748031
21
-0.3296844881889764
0
LINE
8
BLACK
6
CONTINUOUS
10
-0.5056424015748031
20
-0.3296844881889764
11
-0.4985956692913386
21
-0.3408993307086614
0
LINE
8
BLACK
6
CONTINUOUS
10
-0.4985956692913386
20
-0.3408993307086614
11
-0.4928488582677165
21
-0.3528326771653543
0
LINE
8
BLACK
6
CONTINUOUS
10
-0.4928488582677165
20
-0.3528326771653543
11
-0.4884743307086614
21
-0.3653343700787401
0
LINE
8
BLACK
6
CONTINUOUS
10
-0.4884743307086614
20
-0.3653343700787401
11
-0.4855270472440945
21
-0.3782472834645669
0
LINE
8
BLACK
6
CONTINUOUS
10
-0.4855270472440945
20
-0.3782472834645669
11
-0.484044094488189
21
-0.3914090157480315
0
LINE
8
BLACK
6
CONTINUOUS
10
-0.484044094488189
20
-0.3914090157480315
11
-0.484044094488189
21
-0.4046539763779528
0
LINE
8
BLACK
6
CONTINUOUS
10
-0.484044094488189
20
-0.4046539763779528
11
-0.4855270472440945
21
-0.4178157086614173
0
LINE
8
BLACK
6
CONTINUOUS
10
-0.4855270472440945
20
-0.4178157086614173
11
-0.4884743307086614
21
-0.4307286220472441
0
LINE
8
BLACK
6
CONTINUOUS
10
-0.4884743307086614
20
-0.4307286220472441
11
-0.4928488582677165
21
-0.4432303149606299
0
LINE
8
BLACK
6
CONTINUOUS
10
-0.4928488582677165
20
-0.4432303149606299
11
-0.4985956692913386
21
-0.4551636614173228
0
LINE
8
BLACK
6
CONTINUOUS
10
-0.4985956692913386
20
-0.4551636614173228
11
-0.5056424015748031
21
-0.4663785039370079
0
LINE
8
BLACK
6
CONTINUOUS
10
-0.5056424015748031
20
-0.4663785039370079
11
-0.5139005511811023
21
-0.4767338582677165
0
LINE
8
BLACK
6
CONTINUOUS
10
-0.5139005511811023
20
-0.4767338582677165
11
-0.5232661417322835
21
-0.4860994488188976
0
LINE
8
BLACK
6
CONTINUOUS
10
-0.5232661417322835
20
-0.4860994488188976
11
-0.5336214960629921
21
-0.4943575984251968
0
LINE
8
BLACK
6
CONTINUOUS
10
-0.5336214960629921
20
-0.4943575984251968
11
-0.5448363385826771
21
-0.5014043307086614
0
LINE
8
BLACK
6
CONTINUOUS
10
-0.5448363385826771
20
-0.5014043307086614
11
-0.5567696850393701
21
-0.5071511417322835
0
LINE
8
BLACK
6
CONTINUOUS
10
-0.5567696850393701
20
-0.5071511417322835
11
-0.5692713779527558
21
-0.5115256692913386
0
LINE
8
BLACK
6
CONTINUOUS
10
-0.5692713779527558
20
-0.5115256692913386
11
-0.5821842913385826
21
-0.5144729527559055
0
LINE
8
BLACK
6
CONTINUOUS
10
-0.5821842913385826
20
-0.5144729527559055
11
-0.5953460236220472
21
-0.515955905511811
0
LINE
8
BLACK
6
CONTINUOUS
10
-0.5953460236220472
20
-0.515955905511811
11
-0.6085909842519684
21
-0.515955905511811
0
LINE
8
BLACK
6
CONTINUOUS
10
-0.6085909842519684
20
-0.515955905511811
11
-0.6217527165354331
21
-0.5144729527559055
0
LINE
8
BLACK
6
CONTINUOUS
10
-0.6217527165354331
20
-0.5144729527559055
11
-0.6346656299212599
21
-0.5115256692913386
0
LINE
8
BLACK
6
CONTINUOUS
10
-0.6346656299212599
20
-0.5115256692913386
11
-0.6471673228346456
21
-0.5071511417322835
0
LINE
8
BLACK
6
CONTINUOUS
10
-0.6471673228346456
20
-0.5071511417322835
11
-0.6591006692913386
21
-0.5014043307086614
0
LINE
8
BLACK
6
CONTINUOUS
10
-0.6591006692913386
20
-0.5014043307086614
11
-0.6703155118110236
21
-0.4943575984251968
0
LINE
8
BLACK
6
CONTINUOUS
10
-0.6703155118110236
20
-0.4943575984251968
11
-0.6806708661417322
21
-0.4860994488188976
0
LINE
8
BLACK
6
CONTINUOUS
10
-0.6806708661417322
20
-0.4860994488188976
11
-0.6900364566929134
21
-0.4767338582677165
0
LINE
8
BLACK
6
CONTINUOUS
10
-0.6900364566929134
20
-0.4767338582677165
11
-0.6982946062992126
21
-0.4663785039370079
0
LINE
8
BLACK
6
CONTINUOUS
10
-0.6982946062992126
20
-0.4663785039370079
11
-0.7053413385826771
21
-0.4551636614173228
0
LINE
8
BLACK
6
CONTINUOUS
10
-0.7053413385826771
20
-0.4551636614173228
11
-0.7110881496062992
21
-0.4432303149606299
0
LINE
8
BLACK
6
CONTINUOUS
10
-0.7110881496062992
20
-0.4432303149606299
11
-0.7154626771653543
21
-0.4307286220472441
0
LINE
8
BLACK
6
CONTINUOUS
10
-0.7154626771653543
20
-0.4307286220472441
11
-0.7184099606299212
21
-0.4178157086614173
0
LINE
8
BLACK
6
CONTINUOUS
10
-0.7184099606299212
20
-0.4178157086614173
11
-0.7198929133858267
21
-0.4046539763779528
0
LINE
8
BLACK
6
CONTINUOUS
10
-0.7198929133858267
20
-0.4046539763779528
11
-0.7198929133858267
21
-0.3914090157480315
0
LINE
8
BLACK
6
CONTINUOUS
10
-0.7198929133858267
20
-0.3914090157480315
11
-0.7184099606299212
21
-0.3782472834645669
0
LINE
8
BLACK
6
CONTINUOUS
10
-0.7184099606299212
20
-0.3782472834645669
11
-0.7154626771653543
21
-0.3653343700787401
0
LINE
8
BLACK
6
CONTINUOUS
10
-0.7154626771653543
20
-0.3653343700787401
11
-0.7110881496062992
21
-0.3528326771653543
0
LINE
8
BLACK
6
CONTINUOUS
10
-0.7110881496062992
20
-0.3528326771653543
11
-0.7053413385826771
21
-0.3408993307086614
0
LINE
8
BLACK
6
CONTINUOUS
10
-0.7053413385826771
20
-0.3408993307086614
11
-0.6982946062992126
21
-0.3296844881889764
0
LINE
8
BLACK
6
CONTINUOUS
10
-0.6982946062992126
20
-0.3296844881889764
11
-0.6900364566929134
21
-0.3193291338582677
0
LINE
8
BLACK
6
CONTINUOUS
10
-0.6900364566929134
20
-0.3193291338582677
11
-0.6806708661417322
21
-0.3099635433070866
0
LINE
8
BLACK
6
CONTINUOUS
10
-0.6806708661417322
20
-0.3099635433070866
11
-0.6703155118110236
21
-0.3017053937007874
0
LINE
8
BLACK
6
CONTINUOUS
10
-0.6703155118110236
20
-0.3017053937007874
11
-0.6591006692913386
21
-0.2946586614173228
0
LINE
8
BLACK
6
CONTINUOUS
10
-0.6591006692913386
20
-0.2946586614173228
11
-0.6471673228346456
21
-0.2889118503937008
0
LINE
8
BLACK
6
CONTINUOUS
10
-0.6471673228346456
20
-0.2889118503937008
11
-0.6346656299212599
21
-0.2845373228346457
0
LINE
8
BLACK
6
CONTINUOUS
10
-0.6346656299212599
20
-0.2845373228346457
11
-0.6217527165354331
21
-0.2815900393700788
0
LINE
8
BLACK
6
CONTINUOUS
10
-0.6217527165354331
20
-0.2815900393700788
11
-0.6085909842519684
21
-0.2801070866141732
0
LINE
8
BLACK
6
CONTINUOUS
10
-0.6085909842519684
20
-0.2801070866141732
11
-0.5953460236220472
21
-0.2801070866141732
0
LINE
8
BLACK
6
CONTINUOUS
10
-0.5953460236220472
20
-0.2801070866141732
11
-0.5821842913385826
21
-0.2815900393700788
0
LINE
8
BLACK
6
CONTINUOUS
10
0.6178157086614173
20
-0.2815900393700788
11
0.6307286220472441
21
-0.2845373228346457
0
LINE
8
BLACK
6
CONTINUOUS
10
0.6307286220472441
20
-0.2845373228346457
11
0.6432303149606299
21
-0.2889118503937008
0
LINE
8
BLACK
6
CONTINUOUS
10
0.6432303149606299
20
-0.2889118503937008
11
0.6551636614173229
21
-0.2946586614173228
0
LINE
8
BLACK
6
CONTINUOUS
10
0.6551636614173229
20
-0.2946586614173228
11
0.6663785039370078
21
-0.3017053937007874
0
LINE
8
BLACK
6
CONTINUOUS
10
0.6663785039370078
20
-0.3017053937007874
11
0.6767338582677165
21
-0.3099635433070866
0
LINE
8
BLACK
6
CONTINUOUS
10
0.6767338582677165
20
-0.3099635433070866
11
0.6860994488188976
21
-0.3193291338582677
0
LINE
8
BLACK
6
CONTINUOUS
10
0.6860994488188976
20
-0.3193291338582677
11
0.6943575984251968
21
-0.3296844881889764
0
LINE
8
BLACK
6
CONTINUOUS
10
0.6943575984251968
20
-0.3296844881889764
11
0.7014043307086614
21
-0.3408993307086614
0
LINE
8
BLACK
6
CONTINUOUS
10
0.7014043307086614
20
-0.3408993307086614
11
0.7071511417322834
21
-0.3528326771653543
0
LINE
8
BLACK
6
CONTINUOUS
10
0.7071511417322834
20
-0.3528326771653543
11
0.7115256692913385
21
-0.3653343700787401
0
LINE
8
BLACK
6
CONTINUOUS
10
0.7115256692913385
20
-0.3653343700787401
11
0.7144729527559055
21
-0.3782472834645669
0
LINE
8
BLACK
6
CONTINUOUS
10
0.7144729527559055
20
-0.3782472834645669
11
0.715955905511811
21
-0.3914090157480315
0
LINE
8
BLACK
6
CONTINUOUS
10
0.715955905511811
20
-0.3914090157480315
11
0.715955905511811
21
-0.4046539763779528
0
LINE
8
BLACK
6
CONTINUOUS
10
0.715955905511811
20
-0.4046539763779528
11
0.7144729527559055
21
-0.4178157086614173
0
LINE
8
BLACK
6
CONTINUOUS
10
0.7144729527559055
20
-0.4178157086614173
11
0.7115256692913385
21
-0.4307286220472441
0
LINE
8
BLACK
6
CONTINUOUS
10
0.7115256692913385
20
-0.4307286220472441
11
0.7071511417322834
21
-0.4432303149606299
0
LINE
8
BLACK
6
CONTINUOUS
10
0.7071511417322834
20
-0.4432303149606299
11
0.7014043307086614
21
-0.4551636614173228
0
LINE
8
BLACK
6
CONTINUOUS
10
0.7014043307086614
20
-0.4551636614173228
11
0.6943575984251968
21
-0.4663785039370079
0
LINE
8
BLACK
6
CONTINUOUS
10
0.6943575984251968
20
-0.4663785039370079
11
0.6860994488188976
21
-0.4767338582677165
0
LINE
8
BLACK
6
CONTINUOUS
10
0.6860994488188976
20
-0.4767338582677165
11
0.6767338582677165
21
-0.4860994488188976
0
LINE
8
BLACK
6
CONTINUOUS
10
0.6767338582677165
20
-0.4860994488188976
11
0.6663785039370078
21
-0.4943575984251968
0
LINE
8
BLACK
6
CONTINUOUS
10
0.6663785039370078
20
-0.4943575984251968
11
0.6551636614173229
21
-0.5014043307086614
0
LINE
8
BLACK
6
CONTINUOUS
10
0.6551636614173229
20
-0.5014043307086614
11
0.6432303149606299
21
-0.5071511417322835
0
LINE
8
BLACK
6
CONTINUOUS
10
0.6432303149606299
20
-0.5071511417322835
11
0.6307286220472441
21
-0.5115256692913386
0
LINE
8
BLACK
6
CONTINUOUS
10
0.6307286220472441
20
-0.5115256692913386
11
0.6178157086614173
21
-0.5144729527559055
0
LINE
8
BLACK
6
CONTINUOUS
10
0.6178157086614173
20
-0.5144729527559055
11
0.6046539763779527
21
-0.515955905511811
0
LINE
8
BLACK
6
CONTINUOUS
10
0.6046539763779527
20
-0.515955905511811
11
0.5914090157480315
21
-0.515955905511811
0
LINE
8
BLACK
6
CONTINUOUS
10
0.5914090157480315
20
-0.515955905511811
11
0.5782472834645669
21
-0.5144729527559055
0
LINE
8
BLACK
6
CONTINUOUS
10
0.5782472834645669
20
-0.5144729527559055
11
0.5653343700787401
21
-0.5115256692913386
0
LINE
8
BLACK
6
CONTINUOUS
10
0.5653343700787401
20
-0.5115256692913386
11
0.5528326771653543
21
-0.5071511417322835
0
LINE
8
BLACK
6
CONTINUOUS
10
0.5528326771653543
20
-0.5071511417322835
11
0.5408993307086614
21
-0.5014043307086614
0
LINE
8
BLACK
6
CONTINUOUS
10
0.5408993307086614
20
-0.5014043307086614
11
0.5296844881889764
21
-0.4943575984251968
0
LINE
8
BLACK
6
CONTINUOUS
10
0.5296844881889764
20
-0.4943575984251968
11
0.5193291338582677
21
-0.4860994488188976
0
LINE
8
BLACK
6
CONTINUOUS
10
0.5193291338582677
20
-0.4860994488188976
11
0.5099635433070866
21
-0.4767338582677165
0
LINE
8
BLACK
6
CONTINUOUS
10
0.5099635433070866
20
-0.4767338582677165
11
0.5017053937007874
21
-0.4663785039370079
0
LINE
8
BLACK
6
CONTINUOUS
10
0.5017053937007874
20
-0.4663785039370079
11
0.4946586614173228
21
-0.4551636614173228
0
LINE
8
BLACK
6
CONTINUOUS
10
0.4946586614173228
20
-0.4551636614173228
11
0.4889118503937008
21
-0.4432303149606299
0
LINE
8
BLACK
6
CONTINUOUS
10
0.4889118503937008
20
-0.4432303149606299
11
0.4845373228346457
21
-0.4307286220472441
0
LINE
8
BLACK
6
CONTINUOUS
10
0.4845373228346457
20
-0.4307286220472441
11
0.4815900393700787
21
-0.4178157086614173
0
LINE
8
BLACK
6
CONTINUOUS
10
0.4815900393700787
20
-0.4178157086614173
11
0.4801070866141732
21
-0.4046539763779528
0
LINE
8
BLACK
6
CONTINUOUS
10
0.4801070866141732
20
-0.4046539763779528
11
0.4801070866141732
21
-0.3914090157480315
0
LINE
8
BLACK
6
CONTINUOUS
10
0.4801070866141732
20
-0.3914090157480315
11
0.4815900393700787
21
-0.3782472834645669
0
LINE
8
BLACK
6
CONTINUOUS
10
0.4815900393700787
20
-0.3782472834645669
11
0.4845373228346457
21
-0.3653343700787401
0
LINE
8
BLACK
6
CONTINUOUS
10
0.4845373228346457
20
-0.3653343700787401
11
0.4889118503937008
21
-0.3528326771653543
0
LINE
8
BLACK
6
CONTINUOUS
10
0.4889118503937008
20
-0.3528326771653543
11
0.4946586614173228
21
-0.3408993307086614
0
LINE
8
BLACK
6
CONTINUOUS
10
0.4946586614173228
20
-0.3408993307086614
11
0.5017053937007874
21
-0.3296844881889764
0
LINE
8
BLACK
6
CONTINUOUS
10
0.5017053937007874
20
-0.3296844881889764
11
0.5099635433070866
21
-0.3193291338582677
0
LINE
8
BLACK
6
CONTINUOUS
10
0.5099635433070866
20
-0.3193291338582677
11
0.5193291338582677
21
-0.3099635433070866
0
LINE
8
BLACK
6
CONTINUOUS
10
0.5193291338582677
20
-0.3099635433070866
11
0.5296844881889764
21
-0.3017053937007874
0
LINE
8
BLACK
6
CONTINUOUS
10
0.5296844881889764
20
-0.3017053937007874
11
0.5408993307086614
21
-0.2946586614173228
0
LINE
8
BLACK
6
CONTINUOUS
10
0.5408993307086614
20
-0.2946586614173228
11
0.5528326771653543
21
-0.2889118503937008
0
LINE
8
BLACK
6
CONTINUOUS
10
0.5528326771653543
20
-0.2889118503937008
11
0.5653343700787401
21
-0.2845373228346457
0
LINE
8
BLACK
6
CONTINUOUS
10
0.5653343700787401
20
-0.2845373228346457
11
0.5782472834645669
21
-0.2815900393700788
0
LINE
8
BLACK
6
CONTINUOUS
10
0.5782472834645669
20
-0.2815900393700788
11
0.5914090157480315
21
-0.2801070866141732
0
LINE
8
BLACK
6
CONTINUOUS
10
0.5914090157480315
20
-0.2801070866141732
11
0.6046539763779527
21
-0.2801070866141732
0
LINE
8
BLACK
6
CONTINUOUS
10
0.6046539763779527
20
-0.2801070866141732
11
0.6178157086614173
21
-0.2815900393700788
0
LINE
8
BLACK
6
CONTINUOUS
10
0.0653543307086614
20
-0.4417322834645669
11
-0.0015748031496063
21
-0.4417322834645669
0
LINE
8
BLACK
6
CONTINUOUS
10
-0.0015748031496063
20
-0.4417322834645669
11
-0.0015748031496063
21
-0.3748031496062992
0
LINE
8
BLACK
6
CONTINUOUS
10
-0.0015748031496063
20
-0.3748031496062992
11
0.0653543307086614
21
-0.3748031496062992
0
LINE
8
BLACK
6
CONTINUOUS
10
0.0653543307086614
20
-0.3748031496062992
11
0.0653543307086614
21
-0.4417322834645669
0
LINE
8
BLACK
6
CONTINUOUS
10
-0.3583959842519685
20
-0.3762441338582677
11
-0.352335157480315
21
-0.3787546062992126
0
LINE
8
BLACK
6
CONTINUOUS
10
-0.352335157480315
20
-0.3787546062992126
11
-0.3468805511811023
21
-0.3823992519685039
0
LINE
8
BLACK
6
CONTINUOUS
10
-0.3468805511811023
20
-0.3823992519685039
11
-0.3422417716535433
21
-0.387038031496063
0
LINE
8
BLACK
6
CONTINUOUS
10
-0.3422417716535433
20
-0.387038031496063
11
-0.338597125984252
21
-0.3924926377952756
0
LINE
8
BLACK
6
CONTINUOUS
10
-0.338597125984252
20
-0.3924926377952756
11
-0.3360866535433071
21
-0.3985534645669291
0
LINE
8
BLACK
6
CONTINUOUS
10
-0.3360866535433071
20
-0.3985534645669291
11
-0.334806811023622
21
-0.4049875984251968
0
LINE
8
BLACK
6
CONTINUOUS
10
-0.334806811023622
20
-0.4049875984251968
11
-0.334806811023622
21
-0.4115478346456693
0
LINE
8
BLACK
6
CONTINUOUS
10
-0.334806811023622
20
-0.4115478346456693
11
-0.3360866535433071
21
-0.417981968503937
0
LINE
8
BLACK
6
CONTINUOUS
10
-0.3360866535433071
20
-0.417981968503937
11
-0.338597125984252
21
-0.4240427952755905
0
LINE
8
BLACK
6
CONTINUOUS
10
-0.338597125984252
20
-0.4240427952755905
11
-0.3422417716535433
21
-0.4294974015748032
0
LINE
8
BLACK
6
CONTINUOUS
10
-0.3422417716535433
20
-0.4294974015748032
11
-0.3468805511811023
21
-0.4341361811023622
0
LINE
8
BLACK
6
CONTINUOUS
10
-0.3468805511811023
20
-0.4341361811023622
11
-0.352335157480315
21
-0.4377808267716535
0
LINE
8
BLACK
6
CONTINUOUS
10
-0.352335157480315
20
-0.4377808267716535
11
-0.3583959842519685
21
-0.4402912992125984
0
LINE
8
BLACK
6
CONTINUOUS
10
-0.3583959842519685
20
-0.4402912992125984
11
-0.3648301181102362
21
-0.4415711417322835
0
LINE
8
BLACK
6
CONTINUOUS
10
-0.3648301181102362
20
-0.4415711417322835
11
-0.3713903543307087
21
-0.4415711417322835
0
LINE
8
BLACK
6
CONTINUOUS
10
-0.3713903543307087
20
-0.4415711417322835
11
-0.3778244881889763
21
-0.4402912992125984
0
LINE
8
BLACK
6
CONTINUOUS
10
-0.3778244881889763
20
-0.4402912992125984
11
-0.3838853149606299
21
-0.4377808267716535
0
LINE
8
BLACK
6
CONTINUOUS
10
-0.3838853149606299
20
-0.4377808267716535
11
-0.3893399212598425
21
-0.4341361811023622
0
LINE
8
BLACK
6
CONTINUOUS
10
-0.3893399212598425
20
-0.4341361811023622
11
-0.3939787007874015
21
-0.4294974015748032
0
LINE
8
BLACK
6
CONTINUOUS
10
-0.3939787007874015
20
-0.4294974015748032
11
-0.3976233464566929
21
-0.4240427952755905
0
LINE
8
BLACK
6
CONTINUOUS
10
-0.3976233464566929
20
-0.4240427952755905
11
-0.4001338188976378
21
-0.417981968503937
0
LINE
8
BLACK
6
CONTINUOUS
10
-0.4001338188976378
20
-0.417981968503937
11
-0.4014136614173228
21
-0.4115478346456693
0
LINE
8
BLACK
6
CONTINUOUS
10
-0.4014136614173228
20
-0.4115478346456693
11
-0.4014136614173228
21
-0.4049875984251968
0
LINE
8
BLACK
6
CONTINUOUS
10
-0.4014136614173228
20
-0.4049875984251968
11
-0.4001338188976378
21
-0.3985534645669291
0
LINE
8
BLACK
6
CONTINUOUS
10
-0.4001338188976378
20
-0.3985534645669291
11
-0.3976233464566929
21
-0.3924926377952756
0
LINE
8
BLACK
6
CONTINUOUS
10
-0.3976233464566929
20
-0.3924926377952756
11
-0.3939787007874015
21
-0.387038031496063
0
LINE
8
BLACK
6
CONTINUOUS
10
-0.3939787007874015
20
-0.387038031496063
11
-0.3893399212598425
21
-0.3823992519685039
0
LINE
8
BLACK
6
CONTINUOUS
10
-0.3893399212598425
20
-0.3823992519685039
11
-0.3838853149606299
21
-0.3787546062992126
0
LINE
8
BLACK
6
CONTINUOUS
10
-0.3838853149606299
20
-0.3787546062992126
11
-0.3778244881889763
21
-0.3762441338582677
0
LINE
8
BLACK
6
CONTINUOUS
10
-0.3778244881889763
20
-0.3762441338582677
11
-0.3713903543307087
21
-0.3749642913385827
0
LINE
8
BLACK
6
CONTINUOUS
10
-0.3713903543307087
20
-0.3749642913385827
11
-0.3648301181102362
21
-0.3749642913385827
0
LINE
8
BLACK
6
CONTINUOUS
10
-0.3648301181102362
20
-0.3749642913385827
11
-0.3583959842519685
21
-0.3762441338582677
0
LINE
8
BLACK
6
CONTINUOUS
10
-0.2583959842519685
20
-0.3762441338582677
11
-0.2523351574803149
21
-0.3787546062992126
0
LINE
8
BLACK
6
CONTINUOUS
10
-0.2523351574803149
20
-0.3787546062992126
11
-0.2468805511811024
21
-0.3823992519685039
0
LINE
8
BLACK
6
CONTINUOUS
10
-0.2468805511811024
20
-0.3823992519685039
11
-0.2422417716535433
21
-0.387038031496063
0
LINE
8
BLACK
6
CONTINUOUS
10
-0.2422417716535433
20
-0.387038031496063
11
-0.238597125984252
21
-0.3924926377952756
0
LINE
8
BLACK
6
CONTINUOUS
10
-0.238597125984252
20
-0.3924926377952756
11
-0.2360866535433071
21
-0.3985534645669291
0
LINE
8
BLACK
6
CONTINUOUS
10
-0.2360866535433071
20
-0.3985534645669291
11
-0.2348068110236221
21
-0.4049875984251968
0
LINE
8
BLACK
6
CONTINUOUS
10
-0.2348068110236221
20
-0.4049875984251968
11
-0.2348068110236221
21
-0.4115478346456693
0
LINE
8
BLACK
6
CONTINUOUS
10
-0.2348068110236221
20
-0.4115478346456693
11
-0.2360866535433071
21
-0.417981968503937
0
LINE
8
BLACK
6
CONTINUOUS
10
-0.2360866535433071
20
-0.417981968503937
11
-0.238597125984252
21
-0.4240427952755905
0
LINE
8
BLACK
6
CONTINUOUS
10
-0.238597125984252
20
-0.4240427952755905
11
-0.2422417716535433
21
-0.4294974015748032
0
LINE
8
BLACK
6
CONTINUOUS
10
-0.2422417716535433
20
-0.4294974015748032
11
-0.2468805511811024
21
-0.4341361811023622
0
LINE
8
BLACK
6
CONTINUOUS
10
-0.2468805511811024
20
-0.4341361811023622
11
-0.2523351574803149
21
-0.4377808267716535
0
LINE
8
BLACK
6
CONTINUOUS
10
-0.2523351574803149
20
-0.4377808267716535
11
-0.2583959842519685
21
-0.4402912992125984
0
LINE
8
BLACK
6
CONTINUOUS
10
-0.2583959842519685
20
-0.4402912992125984
11
-0.2648301181102362
21
-0.4415711417322835
0
LINE
8
BLACK
6
CONTINUOUS
10
-0.2648301181102362
20
-0.4415711417322835
11
-0.2713903543307087
21
-0.4415711417322835
0
LINE
8
BLACK
6
CONTINUOUS
10
-0.2713903543307087
20
-0.4415711417322835
11
-0.2778244881889764
21
-0.4402912992125984
0
LINE
8
BLACK
6
CONTINUOUS
10
-0.2778244881889764
20
-0.4402912992125984
11
-0.2838853149606299
21
-0.4377808267716535
0
LINE
8
BLACK
6
CONTINUOUS
10
-0.2838853149606299
20
-0.4377808267716535
11
-0.2893399212598425
21
-0.4341361811023622
0
LINE
8
BLACK
6
CONTINUOUS
10
-0.2893399212598425
20
-0.4341361811023622
11
-0.2939787007874016
21
-0.4294974015748032
0
LINE
8
BLACK
6
CONTINUOUS
10
-0.2939787007874016
20
-0.4294974015748032
11
-0.2976233464566929
21
-0.4240427952755905
0
LINE
8
BLACK
6
CONTINUOUS
10
-0.2976233464566929
20
-0.4240427952755905
11
-0.3001338188976378
21
-0.417981968503937
0
LINE
8
BLACK
6
CONTINUOUS
10
-0.3001338188976378
20
-0.417981968503937
11
-0.3014136614173228
21
-0.4115478346456693
0
LINE
8
BLACK
6
CONTINUOUS
10
-0.3014136614173228
20
-0.4115478346456693
11
-0.3014136614173228
21
-0.4049875984251968
0
LINE
8
BLACK
6
CONTINUOUS
10
-0.3014136614173228
20
-0.4049875984251968
11
-0.3001338188976378
21
-0.3985534645669291
0
LINE
8
BLACK
6
CONTINUOUS
10
-0.3001338188976378
20
-0.3985534645669291
11
-0.2976233464566929
21
-0.3924926377952756
0
LINE
8
BLACK
6
CONTINUOUS
10
-0.2976233464566929
20
-0.3924926377952756
11
-0.2939787007874016
21
-0.387038031496063
0
LINE
8
BLACK
6
CONTINUOUS
10
-0.2939787007874016
20
-0.387038031496063
11
-0.2893399212598425
21
-0.3823992519685039
0
LINE
8
BLACK
6
CONTINUOUS
10
-0.2893399212598425
20
-0.3823992519685039
11
-0.2838853149606299
21
-0.3787546062992126
0
LINE
8
BLACK
6
CONTINUOUS
10
-0.2838853149606299
20
-0.3787546062992126
11
-0.2778244881889764
21
-0.3762441338582677
0
LINE
8
BLACK
6
CONTINUOUS
10
-0.2778244881889764
20
-0.3762441338582677
11
-0.2713903543307087
21
-0.3749642913385827
0
LINE
8
BLACK
6
CONTINUOUS
10
-0.2713903543307087
20
-0.3749642913385827
11
-0.2648301181102362
21
-0.3749642913385827
0
LINE
8
BLACK
6
CONTINUOUS
10
-0.2648301181102362
20
-0.3749642913385827
11
-0.2583959842519685
21
-0.3762441338582677
0
LINE
8
BLACK
6
CONTINUOUS
10
-0.1583959842519685
20
-0.3762441338582677
11
-0.152335157480315
21
-0.3787546062992126
0
LINE
8
BLACK
6
CONTINUOUS
10
-0.152335157480315
20
-0.3787546062992126
11
-0.1468805511811024
21
-0.3823992519685039
0
LINE
8
BLACK
6
CONTINUOUS
10
-0.1468805511811024
20
-0.3823992519685039
11
-0.1422417716535433
21
-0.387038031496063
0
LINE
8
BLACK
6
CONTINUOUS
10
-0.1422417716535433
20
-0.387038031496063
11
-0.138597125984252
21
-0.3924926377952756
0
LINE
8
BLACK
6
CONTINUOUS
10
-0.138597125984252
20
-0.3924926377952756
11
-0.1360866535433071
21
-0.3985534645669291
0
LINE
8
BLACK
6
CONTINUOUS
10
-0.1360866535433071
20
-0.3985534645669291
11
-0.134806811023622
21
-0.4049875984251968
0
LINE
8
BLACK
6
CONTINUOUS
10
-0.134806811023622
20
-0.4049875984251968
11
-0.134806811023622
21
-0.4115478346456693
0
LINE
8
BLACK
6
CONTINUOUS
10
-0.134806811023622
20
-0.4115478346456693
11
-0.1360866535433071
21
-0.417981968503937
0
LINE
8
BLACK
6
CONTINUOUS
10
-0.1360866535433071
20
-0.417981968503937
11
-0.138597125984252
21
-0.4240427952755905
0
LINE
8
BLACK
6
CONTINUOUS
10
-0.138597125984252
20
-0.4240427952755905
11
-0.1422417716535433
21
-0.4294974015748032
0
LINE
8
BLACK
6
CONTINUOUS
10
-0.1422417716535433
20
-0.4294974015748032
11
-0.1468805511811024
21
-0.4341361811023622
0
LINE
8
BLACK
6
CONTINUOUS
10
-0.1468805511811024
20
-0.4341361811023622
11
-0.152335157480315
21
-0.4377808267716535
0
LINE
8
BLACK
6
CONTINUOUS
10
-0.152335157480315
20
-0.4377808267716535
11
-0.1583959842519685
21
-0.4402912992125984
0
LINE
8
BLACK
6
CONTINUOUS
10
-0.1583959842519685
20
-0.4402912992125984
11
-0.1648301181102362
21
-0.4415711417322835
0
LINE
8
BLACK
6
CONTINUOUS
10
-0.1648301181102362
20
-0.4415711417322835
11
-0.1713903543307086
21
-0.4415711417322835
0
LINE
8
BLACK
6
CONTINUOUS
10
-0.1713903543307086
20
-0.4415711417322835
11
-0.1778244881889764
21
-0.4402912992125984
0
LINE
8
BLACK
6
CONTINUOUS
10
-0.1778244881889764
20
-0.4402912992125984
11
-0.1838853149606299
21
-0.4377808267716535
0
LINE
8
BLACK
6
CONTINUOUS
10
-0.1838853149606299
20
-0.4377808267716535
11
-0.1893399212598425
21
-0.4341361811023622
0
LINE
8
BLACK
6
CONTINUOUS
10
-0.1893399212598425
20
-0.4341361811023622
11
-0.1939787007874016
21
-0.4294974015748032
0
LINE
8
BLACK
6
CONTINUOUS
10
-0.1939787007874016
20
-0.4294974015748032
11
-0.1976233464566929
21
-0.4240427952755905
0
LINE
8
BLACK
6
CONTINUOUS
10
-0.1976233464566929
20
-0.4240427952755905
11
-0.2001338188976378
21
-0.417981968503937
0
LINE
8
BLACK
6
CONTINUOUS
10
-0.2001338188976378
20
-0.417981968503937
11
-0.2014136614173228
21
-0.4115478346456693
0
LINE
8
BLACK
6
CONTINUOUS
10
-0.2014136614173228
20
-0.4115478346456693
11
-0.2014136614173228
21
-0.4049875984251968
0
LINE
8
BLACK
6
CONTINUOUS
10
-0.2014136614173228
20
-0.4049875984251968
11
-0.2001338188976378
21
-0.3985534645669291
0
LINE
8
BLACK
6
CONTINUOUS
10
-0.2001338188976378
20
-0.3985534645669291
11
-0.1976233464566929
21
-0.3924926377952756
0
LINE
8
BLACK
6
CONTINUOUS
10
-0.1976233464566929
20
-0.3924926377952756
11
-0.1939787007874016
21
-0.387038031496063
0
LINE
8
BLACK
6
CONTINUOUS
10
-0.1939787007874016
20
-0.387038031496063
11
-0.1893399212598425
21
-0.3823992519685039
0
LINE
8
BLACK
6
CONTINUOUS
10
-0.1893399212598425
20
-0.3823992519685039
11
-0.1838853149606299
21
-0.3787546062992126
0
LINE
8
BLACK
6
CONTINUOUS
10
-0.1838853149606299
20
-0.3787546062992126
11
-0.1778244881889764
21
-0.3762441338582677
0
LINE
8
BLACK
6
CONTINUOUS
10
-0.1778244881889764
20
-0.3762441338582677
11
-0.1713903543307086
21
-0.3749642913385827
0
LINE
8
BLACK
6
CONTINUOUS
10
-0.1713903543307086
20
-0.3749642913385827
11
-0.1648301181102362
21
-0.3749642913385827
0
LINE
8
BLACK
6
CONTINUOUS
10
-0.1648301181102362
20
-0.3749642913385827
11
-0.1583959842519685
21
-0.3762441338582677
0
LINE
8
BLACK
6
CONTINUOUS
10
-0.0583959842519685
20
-0.3762441338582677
11
-0.052335157480315
21
-0.3787546062992126
0
LINE
8
BLACK
6
CONTINUOUS
10
-0.052335157480315
20
-0.3787546062992126
11
-0.0468805511811024
21
-0.3823992519685039
0
LINE
8
BLACK
6
CONTINUOUS
10
-0.0468805511811024
20
-0.3823992519685039
11
-0.0422417716535433
21
-0.387038031496063
0
LINE
8
BLACK
6
CONTINUOUS
10
-0.0422417716535433
20
-0.387038031496063
11
-0.038597125984252
21
-0.3924926377952756
0
LINE
8
BLACK
6
CONTINUOUS
10
-0.038597125984252
20
-0.3924926377952756
11
-0.0360866535433071
21
-0.3985534645669291
0
LINE
8
BLACK
6
CONTINUOUS
10
-0.0360866535433071
20
-0.3985534645669291
11
-0.034806811023622
21
-0.4049875984251968
0
LINE
8
BLACK
6
CONTINUOUS
10
-0.034806811023622
20
-0.4049875984251968
11
-0.034806811023622
21
-0.4115478346456693
0
LINE
8
BLACK
6
CONTINUOUS
10
-0.034806811023622
20
-0.4115478346456693
11
-0.0360866535433071
21
-0.417981968503937
0
LINE
8
BLACK
6
CONTINUOUS
10
-0.0360866535433071
20
-0.417981968503937
11
-0.038597125984252
21
-0.4240427952755905
0
LINE
8
BLACK
6
CONTINUOUS
10
-0.038597125984252
20
-0.4240427952755905
11
-0.0422417716535433
21
-0.4294974015748032
0
LINE
8
BLACK
6
CONTINUOUS
10
-0.0422417716535433
20
-0.4294974015748032
11
-0.0468805511811024
21
-0.4341361811023622
0
LINE
8
BLACK
6
CONTINUOUS
10
-0.0468805511811024
20
-0.4341361811023622
11
-0.052335157480315
21
-0.4377808267716535
0
LINE
8
BLACK
6
CONTINUOUS
10
-0.052335157480315
20
-0.4377808267716535
11
-0.0583959842519685
21
-0.4402912992125984
0
LINE
8
BLACK
6
CONTINUOUS
10
-0.0583959842519685
20
-0.4402912992125984
11
-0.0648301181102362
21
-0.4415711417322835
0
LINE
8
BLACK
6
CONTINUOUS
10
-0.0648301181102362
20
-0.4415711417322835
11
-0.0713903543307087
21
-0.4415711417322835
0
LINE
8
BLACK
6
CONTINUOUS
10
-0.0713903543307087
20
-0.4415711417322835
11
-0.0778244881889764
21
-0.4402912992125984
0
LINE
8
BLACK
6
CONTINUOUS
10
-0.0778244881889764
20
-0.4402912992125984
11
-0.0838853149606299
21
-0.4377808267716535
0
LINE
8
BLACK
6
CONTINUOUS
10
-0.0838853149606299
20
-0.4377808267716535
11
-0.0893399212598425
21
-0.4341361811023622
0
LINE
8
BLACK
6
CONTINUOUS
10
-0.0893399212598425
20
-0.4341361811023622
11
-0.0939787007874016
21
-0.4294974015748032
0
LINE
8
BLACK
6
CONTINUOUS
10
-0.0939787007874016
20
-0.4294974015748032
11
-0.0976233464566929
21
-0.4240427952755905
0
LINE
8
BLACK
6
CONTINUOUS
10
-0.0976233464566929
20
-0.4240427952755905
11
-0.1001338188976378
21
-0.417981968503937
0
LINE
8
BLACK
6
CONTINUOUS
10
-0.1001338188976378
20
-0.417981968503937
11
-0.1014136614173228
21
-0.4115478346456693
0
LINE
8
BLACK
6
CONTINUOUS
10
-0.1014136614173228
20
-0.4115478346456693
11
-0.1014136614173228
21
-0.4049875984251968
0
LINE
8
BLACK
6
CONTINUOUS
10
-0.1014136614173228
20
-0.4049875984251968
11
-0.1001338188976378
21
-0.3985534645669291
0
LINE
8
BLACK
6
CONTINUOUS
10
-0.1001338188976378
20
-0.3985534645669291
11
-0.0976233464566929
21
-0.3924926377952756
0
LINE
8
BLACK
6
CONTINUOUS
10
-0.0976233464566929
20
-0.3924926377952756
11
-0.0939787007874016
21
-0.387038031496063
0
LINE
8
BLACK
6
CONTINUOUS
10
-0.0939787007874016
20
-0.387038031496063
11
-0.0893399212598425
21
-0.3823992519685039
0
LINE
8
BLACK
6
CONTINUOUS
10
-0.0893399212598425
20
-0.3823992519685039
11
-0.0838853149606299
21
-0.3787546062992126
0
LINE
8
BLACK
6
CONTINUOUS
10
-0.0838853149606299
20
-0.3787546062992126
11
-0.0778244881889764
21
-0.3762441338582677
0
LINE
8
BLACK
6
CONTINUOUS
10
-0.0778244881889764
20
-0.3762441338582677
11
-0.0713903543307087
21
-0.3749642913385827
0
LINE
8
BLACK
6
CONTINUOUS
10
-0.0713903543307087
20
-0.3749642913385827
11
-0.0648301181102362
21
-0.3749642913385827
0
LINE
8
BLACK
6
CONTINUOUS
10
-0.0648301181102362
20
-0.3749642913385827
11
-0.0583959842519685
21
-0.3762441338582677
0
LINE
8
BLACK
6
CONTINUOUS
10
-0.5821842913385826
20
0.9184099606299212
11
-0.5692713779527558
21
0.9154626771653543
0
LINE
8
BLACK
6
CONTINUOUS
10
-0.5692713779527558
20
0.9154626771653543
11
-0.5567696850393701
21
0.9110881496062992
0
LINE
8
BLACK
6
CONTINUOUS
10
-0.5567696850393701
20
0.9110881496062992
11
-0.5448363385826771
21
0.9053413385826772
0
LINE
8
BLACK
6
CONTINUOUS
10
-0.5448363385826771
20
0.9053413385826772
11
-0.5336214960629921
21
0.8982946062992125
0
LINE
8
BLACK
6
CONTINUOUS
10
-0.5336214960629921
20
0.8982946062992125
11
-0.5232661417322835
21
0.8900364566929133
0
LINE
8
BLACK
6
CONTINUOUS
10
-0.5232661417322835
20
0.8900364566929133
11
-0.5139005511811023
21
0.8806708661417323
0
LINE
8
BLACK
6
CONTINUOUS
10
-0.5139005511811023
20
0.8806708661417323
11
-0.5056424015748031
21
0.8703155118110236
0
LINE
8
BLACK
6
CONTINUOUS
10
-0.5056424015748031
20
0.8703155118110236
11
-0.4985956692913386
21
0.8591006692913385
0
LINE
8
BLACK
6
CONTINUOUS
10
-0.4985956692913386
20
0.8591006692913385
11
-0.4928488582677165
21
0.8471673228346457
0
LINE
8
BLACK
6
CONTINUOUS
10
-0.4928488582677165
20
0.8471673228346457
11
-0.4884743307086614
21
0.8346656299212598
0
LINE
8
BLACK
6
CONTINUOUS
10
-0.4884743307086614
20
0.8346656299212598
11
-0.4855270472440945
21
0.821752716535433
0
LINE
8
BLACK
6
CONTINUOUS
10
-0.4855270472440945
20
0.821752716535433
11
-0.484044094488189
21
0.8085909842519685
0
LINE
8
BLACK
6
CONTINUOUS
10
-0.484044094488189
20
0.8085909842519685
11
-0.484044094488189
21
0.7953460236220472
0
LINE
8
BLACK
6
CONTINUOUS
10
-0.484044094488189
20
0.7953460236220472
11
-0.4855270472440945
21
0.7821842913385827
0
LINE
8
BLACK
6
CONTINUOUS
10
-0.4855270472440945
20
0.7821842913385827
11
-0.4884743307086614
21
0.7692713779527559
0
LINE
8
BLACK
6
CONTINUOUS
10
-0.4884743307086614
20
0.7692713779527559
11
-0.4928488582677165
21
0.75676968503937
0
LINE
8
BLACK
6
CONTINUOUS
10
-0.4928488582677165
20
0.75676968503937
11
-0.4985956692913386
21
0.7448363385826772
0
LINE
8
BLACK
6
CONTINUOUS
10
-0.4985956692913386
20
0.7448363385826772
11
-0.5056424015748031
21
0.7336214960629921
0
LINE
8
BLACK
6
CONTINUOUS
10
-0.5056424015748031
20
0.7336214960629921
11
-0.5139005511811023
21
0.7232661417322834
0
LINE
8
BLACK
6
CONTINUOUS
10
-0.5139005511811023
20
0.7232661417322834
11
-0.5232661417322835
21
0.7139005511811023
0
LINE
8
BLACK
6
CONTINUOUS
10
-0.5232661417322835
20
0.7139005511811023
11
-0.5336214960629921
21
0.7056424015748032
0
LINE
8
BLACK
6
CONTINUOUS
10
-0.5336214960629921
20
0.7056424015748032
11
-0.5448363385826771
21
0.6985956692913385
0
LINE
8
BLACK
6
CONTINUOUS
10
-0.5448363385826771
20
0.6985956692913385
11
-0.5567696850393701
21
0.6928488582677165
0
LINE
8
BLACK
6
CONTINUOUS
10
-0.5567696850393701
20
0.6928488582677165
11
-0.5692713779527558
21
0.6884743307086614
0
LINE
8
BLACK
6
CONTINUOUS
10
-0.5692713779527558
20
0.6884743307086614
11
-0.5821842913385826
21
0.6855270472440945
0
LINE
8
BLACK
6
CONTINUOUS
10
-0.5821842913385826
20
0.6855270472440945
11
-0.5953460236220472
21
0.6840440944881889
0
LINE
8
BLACK
6
CONTINUOUS
10
-0.5953460236220472
20
0.6840440944881889
11
-0.6085909842519684
21
0.6840440944881889
0
LINE
8
BLACK
6
CONTINUOUS
10
-0.6085909842519684
20
0.6840440944881889
11
-0.6217527165354331
21
0.6855270472440945
0
LINE
8
BLACK
6
CONTINUOUS
10
-0.6217527165354331
20
0.6855270472440945
11
-0.6346656299212599
21
0.6884743307086614
0
LINE
8
BLACK
6
CONTINUOUS
10
-0.6346656299212599
20
0.6884743307086614
11
-0.6471673228346456
21
0.6928488582677165
0
LINE
8
BLACK
6
CONTINUOUS
10
-0.6471673228346456
20
0.6928488582677165
11
-0.6591006692913386
21
0.6985956692913385
0
LINE
8
BLACK
6
CONTINUOUS
10
-0.6591006692913386
20
0.6985956692913385
11
-0.6703155118110236
21
0.7056424015748032
0
LINE
8
BLACK
6
CONTINUOUS
10
-0.6703155118110236
20
0.7056424015748032
11
-0.6806708661417322
21
0.7139005511811023
0
LINE
8
BLACK
6
CONTINUOUS
10
-0.6806708661417322
20
0.7139005511811023
11
-0.6900364566929134
21
0.7232661417322834
0
LINE
8
BLACK
6
CONTINUOUS
10
-0.6900364566929134
20
0.7232661417322834
11
-0.6982946062992126
21
0.7336214960629921
0
LINE
8
BLACK
6
CONTINUOUS
10
-0.6982946062992126
20
0.7336214960629921
11
-0.7053413385826771
21
0.7448363385826772
0
LINE
8
BLACK
6
CONTINUOUS
10
-0.7053413385826771
20
0.7448363385826772
11
-0.7110881496062992
21
0.75676968503937
0
LINE
8
BLACK
6
CONTINUOUS
10
-0.7110881496062992
20
0.75676968503937
11
-0.7154626771653543
21
0.7692713779527559
0
LINE
8
BLACK
6
CONTINUOUS
10
-0.7154626771653543
20
0.7692713779527559
11
-0.7184099606299212
21
0.7821842913385827
0
LINE
8
BLACK
6
CONTINUOUS
10
-0.7184099606299212
20
0.7821842913385827
11
-0.7198929133858267
21
0.7953460236220472
0
LINE
8
BLACK
6
CONTINUOUS
10
-0.7198929133858267
20
0.7953460236220472
11
-0.7198929133858267
21
0.8085909842519685
0
LINE
8
BLACK
6
CONTINUOUS
10
-0.7198929133858267
20
0.8085909842519685
11
-0.7184099606299212
21
0.821752716535433
0
LINE
8
BLACK
6
CONTINUOUS
10
-0.7184099606299212
20
0.821752716535433
11
-0.7154626771653543
21
0.8346656299212598
0
LINE
8
BLACK
6
CONTINUOUS
10
-0.7154626771653543
20
0.8346656299212598
11
-0.7110881496062992
21
0.8471673228346457
0
LINE
8
BLACK
6
CONTINUOUS
10
-0.7110881496062992
20
0.8471673228346457
11
-0.7053413385826771
21
0.8591006692913385
0
LINE
8
BLACK
6
CONTINUOUS
10
-0.7053413385826771
20
0.8591006692913385
11
-0.6982946062992126
21
0.8703155118110236
0
LINE
8
BLACK
6
CONTINUOUS
10
-0.6982946062992126
20
0.8703155118110236
11
-0.6900364566929134
21
0.8806708661417323
0
LINE
8
BLACK
6
CONTINUOUS
10
-0.6900364566929134
20
0.8806708661417323
11
-0.6806708661417322
21
0.8900364566929133
0
LINE
8
BLACK
6
CONTINUOUS
10
-0.6806708661417322
20
0.8900364566929133
11
-0.6703155118110236
21
0.8982946062992125
0
LINE
8
BLACK
6
CONTINUOUS
10
-0.6703155118110236
20
0.8982946062992125
11
-0.6591006692913386
21
0.9053413385826772
0
LINE
8
BLACK
6
CONTINUOUS
10
-0.6591006692913386
20
0.9053413385826772
11
-0.6471673228346456
21
0.9110881496062992
0
LINE
8
BLACK
6
CONTINUOUS
10
-0.6471673228346456
20
0.9110881496062992
11
-0.6346656299212599
21
0.9154626771653543
0
LINE
8
BLACK
6
CONTINUOUS
10
-0.6346656299212599
20
0.9154626771653543
11
-0.6217527165354331
21
0.9184099606299212
0
LINE
8
BLACK
6
CONTINUOUS
10
-0.6217527165354331
20
0.9184099606299212
11
-0.6085909842519684
21
0.9198929133858268
0
LINE
8
BLACK
6
CONTINUOUS
10
-0.6085909842519684
20
0.9198929133858268
11
-0.5953460236220472
21
0.9198929133858268
0
LINE
8
BLACK
6
CONTINUOUS
10
-0.5953460236220472
20
0.9198929133858268
11
-0.5821842913385826
21
0.9184099606299212
0
LINE
8
BLACK
6
CONTINUOUS
10
0.6178157086614173
20
0.9184099606299212
11
0.6307286220472441
21
0.9154626771653543
0
LINE
8
BLACK
6
CONTINUOUS
10
0.6307286220472441
20
0.9154626771653543
11
0.6432303149606299
21
0.9110881496062992
0
LINE
8
BLACK
6
CONTINUOUS
10
0.6432303149606299
20
0.9110881496062992
11
0.6551636614173229
21
0.9053413385826772
0
LINE
8
BLACK
6
CONTINUOUS
10
0.6551636614173229
20
0.9053413385826772
11
0.6663785039370078
21
0.8982946062992125
0
LINE
8
BLACK
6
CONTINUOUS
10
0.6663785039370078
20
0.8982946062992125
11
0.6767338582677165
21
0.8900364566929133
0
LINE
8
BLACK
6
CONTINUOUS
10
0.6767338582677165
20
0.8900364566929133
11
0.6860994488188976
21
0.8806708661417323
0
LINE
8
BLACK
6
CONTINUOUS
10
0.6860994488188976
20
0.8806708661417323
11
0.6943575984251968
21
0.8703155118110236
0
LINE
8
BLACK
6
CONTINUOUS
10
0.6943575984251968
20
0.8703155118110236
11
0.7014043307086614
21
0.8591006692913385
0
LINE
8
BLACK
6
CONTINUOUS
10
0.7014043307086614
20
0.8591006692913385
11
0.7071511417322834
21
0.8471673228346457
0
LINE
8
BLACK
6
CONTINUOUS
10
0.7071511417322834
20
0.8471673228346457
11
0.7115256692913385
21
0.8346656299212598
0
LINE
8
BLACK
6
CONTINUOUS
10
0.7115256692913385
20
0.8346656299212598
11
0.7144729527559055
21
0.821752716535433
0
LINE
8
BLACK
6
CONTINUOUS
10
0.7144729527559055
20
0.821752716535433
11
0.715955905511811
21
0.8085909842519685
0
LINE
8
BLACK
6
CONTINUOUS
10
0.715955905511811
20
0.8085909842519685
11
0.715955905511811
21
0.7953460236220472
0
LINE
8
BLACK
6
CONTINUOUS
10
0.715955905511811
20
0.7953460236220472
11
0.7144729527559055
21
0.7821842913385827
0
LINE
8
BLACK
6
CONTINUOUS
10
0.7144729527559055
20
0.7821842913385827
11
0.7115256692913385
21
0.7692713779527559
0
LINE
8
BLACK
6
CONTINUOUS
10
0.7115256692913385
20
0.7692713779527559
11
0.7071511417322834
21
0.75676968503937
0
LINE
8
BLACK
6
CONTINUOUS
10
0.7071511417322834
20
0.75676968503937
11
0.7014043307086614
21
0.7448363385826772
0
LINE
8
BLACK
6
CONTINUOUS
10
0.7014043307086614
20
0.7448363385826772
11
0.6943575984251968
21
0.7336214960629921
0
LINE
8
BLACK
6
CONTINUOUS
10
0.6943575984251968
20
0.7336214960629921
11
0.6860994488188976
21
0.7232661417322834
0
LINE
8
BLACK
6
CONTINUOUS
10
0.6860994488188976
20
0.7232661417322834
11
0.6767338582677165
21
0.7139005511811023
0
LINE
8
BLACK
6
CONTINUOUS
10
0.6767338582677165
20
0.7139005511811023
11
0.6663785039370078
21
0.7056424015748032
0
LINE
8
BLACK
6
CONTINUOUS
10
0.6663785039370078
20
0.7056424015748032
11
0.6551636614173229
21
0.6985956692913385
0
LINE
8
BLACK
6
CONTINUOUS
10
0.6551636614173229
20
0.6985956692913385
11
0.6432303149606299
21
0.6928488582677165
0
LINE
8
BLACK
6
CONTINUOUS
10
0.6432303149606299
20
0.6928488582677165
11
0.6307286220472441
21
0.6884743307086614
0
LINE
8
BLACK
6
CONTINUOUS
10
0.6307286220472441
20
0.6884743307086614
11
0.6178157086614173
21
0.6855270472440945
0
LINE
8
BLACK
6
CONTINUOUS
10
0.6178157086614173
20
0.6855270472440945
11
0.6046539763779527
21
0.6840440944881889
0
LINE
8
BLACK
6
CONTINUOUS
10
0.6046539763779527
20
0.6840440944881889
11
0.5914090157480315
21
0.6840440944881889
0
LINE
8
BLACK
6
CONTINUOUS
10
0.5914090157480315
20
0.6840440944881889
11
0.5782472834645669
21
0.6855270472440945
0
LINE
8
BLACK
6
CONTINUOUS
10
0.5782472834645669
20
0.6855270472440945
11
0.5653343700787401
21
0.6884743307086614
0
LINE
8
BLACK
6
CONTINUOUS
10
0.5653343700787401
20
0.6884743307086614
11
0.5528326771653543
21
0.6928488582677165
0
LINE
8
BLACK
6
CONTINUOUS
10
0.5528326771653543
20
0.6928488582677165
11
0.5408993307086614
21
0.6985956692913385
0
LINE
8
BLACK
6
CONTINUOUS
10
0.5408993307086614
20
0.6985956692913385
11
0.5296844881889764
21
0.7056424015748032
0
LINE
8
BLACK
6
CONTINUOUS
10
0.5296844881889764
20
0.7056424015748032
11
0.5193291338582677
21
0.7139005511811023
0
LINE
8
BLACK
6
CONTINUOUS
10
0.5193291338582677
20
0.7139005511811023
11
0.5099635433070866
21
0.7232661417322834
0
LINE
8
BLACK
6
CONTINUOUS
10
0.5099635433070866
20
0.7232661417322834
11
0.5017053937007874
21
0.7336214960629921
0
LINE
8
BLACK
6
CONTINUOUS
10
0.5017053937007874
20
0.7336214960629921
11
0.4946586614173228
21
0.7448363385826772
0
LINE
8
BLACK
6
CONTINUOUS
10
0.4946586614173228
20
0.7448363385826772
11
0.4889118503937008
21
0.75676968503937
0
LINE
8
BLACK
6
CONTINUOUS
10
0.4889118503937008
20
0.75676968503937
11
0.4845373228346457
21
0.7692713779527559
0
LINE
8
BLACK
6
CONTINUOUS
10
0.4845373228346457
20
0.7692713779527559
11
0.4815900393700787
21
0.7821842913385827
0
LINE
8
BLACK
6
CONTINUOUS
10
0.4815900393700787
20
0.7821842913385827
11
0.4801070866141732
21
0.7953460236220472
0
LINE
8
BLACK
6
CONTINUOUS
10
0.4801070866141732
20
0.7953460236220472
11
0.4801070866141732
21
0.8085909842519685
0
LINE
8
BLACK
6
CONTINUOUS
10
0.4801070866141732
20
0.8085909842519685
11
0.4815900393700787
21
0.821752716535433
0
LINE
8
BLACK
6
CONTINUOUS
10
0.4815900393700787
20
0.821752716535433
11
0.4845373228346457
21
0.8346656299212598
0
LINE
8
BLACK
6
CONTINUOUS
10
0.4845373228346457
20
0.8346656299212598
11
0.4889118503937008
21
0.8471673228346457
0
LINE
8
BLACK
6
CONTINUOUS
10
0.4889118503937008
20
0.8471673228346457
11
0.4946586614173228
21
0.8591006692913385
0
LINE
8
BLACK
6
CONTINUOUS
10
0.4946586614173228
20
0.8591006692913385
11
0.5017053937007874
21
0.8703155118110236
0
LINE
8
BLACK
6
CONTINUOUS
10
0.5017053937007874
20
0.8703155118110236
11
0.5099635433070866
21
0.8806708661417323
0
LINE
8
BLACK
6
CONTINUOUS
10
0.5099635433070866
20
0.8806708661417323
11
0.5193291338582677
21
0.8900364566929133
0
LINE
8
BLACK
6
CONTINUOUS
10
0.5193291338582677
20
0.8900364566929133
11
0.5296844881889764
21
0.8982946062992125
0
LINE
8
BLACK
6
CONTINUOUS
10
0.5296844881889764
20
0.8982946062992125
11
0.5408993307086614
21
0.9053413385826772
0
LINE
8
BLACK
6
CONTINUOUS
10
0.5408993307086614
20
0.9053413385826772
11
0.5528326771653543
21
0.9110881496062992
0
LINE
8
BLACK
6
CONTINUOUS
10
0.5528326771653543
20
0.9110881496062992
11
0.5653343700787401
21
0.9154626771653543
0
LINE
8
BLACK
6
CONTINUOUS
10
0.5653343700787401
20
0.9154626771653543
11
0.5782472834645669
21
0.9184099606299212
0
LINE
8
BLACK
6
CONTINUOUS
10
0.5782472834645669
20
0.9184099606299212
11
0.5914090157480315
21
0.9198929133858268
0
LINE
8
BLACK
6
CONTINUOUS
10
0.5914090157480315
20
0.9198929133858268
11
0.6046539763779527
21
0.9198929133858268
0
LINE
8
BLACK
6
CONTINUOUS
10
0.6046539763779527
20
0.9198929133858268
11
0.6178157086614173
21
0.9184099606299212
  0
ENDSEC
  0
EOF
