  0
SECTION
  2
HEADER
  9
$ANGBASE
  50
0.0
  9
$ANGDIR
  70
1
  9
$MEASUREMENT
  70
0
  0
ENDSEC
  0
SECTION
  2
TABLES
  0
TABLE
  2
LTYPE
  70
4
  0
LTYPE
  5
40F
  2
CONTINUOUS
  70
0
  3
Solid line
  72
65
  73
0
  40
0.0
  0
LTYPE
  5
410
  2
DASHDOT
 70
0
  3
Dash Dot ____ _ ____ _
 72
65
 73
4
 40
2.0
 49
1.25
 49
-0.25
 49
0.25
 49
-0.25
  0
LTYPE
  5
411
  2
DASHED
 70
0
  3
Dashed __ __ __ __ __
 72
65
 73
2
 40
0.75
 49
0.5
 49
-0.25
  0
LTYPE
  5
43B
  2
DOTTED
 70
0
  3
Dotted .  .  .  .
 72
65
 73
2
 40
0.2
 49
0.0
 49
-0.2
  0
ENDTAB
  0
TABLE
  2
STYLE
  70
4
  0
STYLE
  2
KICAD
  70
0
  40
0
  41
1
  42
1
  50
0
  71
0
  3
isocp.shx
  0
STYLE
  2
KICADB
  70
0
  40
0
  41
1
  42
1
  50
0
  71
0
  3
isocp.shx
  0
STYLE
  2
KICADI
  70
0
  40
0
  41
1
  42
1
  50
15
  71
0
  3
isocp.shx
  0
STYLE
  2
KICADBI
  70
0
  40
0
  41
1
  42
1
  50
15
  71
0
  3
isocp.shx
  0
ENDTAB
  0
TABLE
  2
LAYER
  70
1
  0
LAYER
  2
BLACK
  70
0
  62
7
  6
CONTINUOUS
  0
ENDTAB
  0
ENDSEC
  0
SECTION
  2
ENTITIES
0
LINE
8
BLACK
6
CONTINUOUS
10
-0.3577691338582677
20
-0.4764410236220472
11
-0.3513779527559055
21
-0.4792865354330709
0
LINE
8
BLACK
6
CONTINUOUS
10
-0.3513779527559055
20
-0.4792865354330709
11
-0.3457180708661417
21
-0.4833987007874015
0
LINE
8
BLACK
6
CONTINUOUS
10
-0.3457180708661417
20
-0.4833987007874015
11
-0.3410368503937008
21
-0.4885977559055118
0
LINE
8
BLACK
6
CONTINUOUS
10
-0.3410368503937008
20
-0.4885977559055118
11
-0.3375388188976378
21
-0.4946564566929134
0
LINE
8
BLACK
6
CONTINUOUS
10
-0.3375388188976378
20
-0.4946564566929134
11
-0.335376968503937
21
-0.5013100393700787
0
LINE
8
BLACK
6
CONTINUOUS
10
-0.335376968503937
20
-0.5013100393700787
11
-0.3346456692913386
21
-0.508267716535433
0
LINE
8
BLACK
6
CONTINUOUS
10
-0.3346456692913386
20
-0.508267716535433
11
-0.335376968503937
21
-0.5152253937007873
0
LINE
8
BLACK
6
CONTINUOUS
10
-0.335376968503937
20
-0.5152253937007873
11
-0.3375388188976378
21
-0.5218789763779528
0
LINE
8
BLACK
6
CONTINUOUS
10
-0.3375388188976378
20
-0.5218789763779528
11
-0.3410368503937008
21
-0.5279376771653543
0
LINE
8
BLACK
6
CONTINUOUS
10
-0.3410368503937008
20
-0.5279376771653543
11
-0.3457180708661417
21
-0.5331367322834646
0
LINE
8
BLACK
6
CONTINUOUS
10
-0.3457180708661417
20
-0.5331367322834646
11
-0.3513779527559055
21
-0.5372488976377953
0
LINE
8
BLACK
6
CONTINUOUS
10
-0.3513779527559055
20
-0.5372488976377953
11
-0.3577691338582677
21
-0.5400944094488189
0
LINE
8
BLACK
6
CONTINUOUS
10
-0.3577691338582677
20
-0.5400944094488189
11
-0.3646122440944882
21
-0.5415489763779527
0
LINE
8
BLACK
6
CONTINUOUS
10
-0.3646122440944882
20
-0.5415489763779527
11
-0.3716082283464567
21
-0.5415489763779527
0
LINE
8
BLACK
6
CONTINUOUS
10
-0.3716082283464567
20
-0.5415489763779527
11
-0.3784513385826772
21
-0.5400944094488189
0
LINE
8
BLACK
6
CONTINUOUS
10
-0.3784513385826772
20
-0.5400944094488189
11
-0.3848425196850394
21
-0.5372488976377953
0
LINE
8
BLACK
6
CONTINUOUS
10
-0.3848425196850394
20
-0.5372488976377953
11
-0.3905024015748031
21
-0.5331367322834646
0
LINE
8
BLACK
6
CONTINUOUS
10
-0.3905024015748031
20
-0.5331367322834646
11
-0.3951836220472441
21
-0.5279376771653543
0
LINE
8
BLACK
6
CONTINUOUS
10
-0.3951836220472441
20
-0.5279376771653543
11
-0.3986816535433071
21
-0.5218789763779528
0
LINE
8
BLACK
6
CONTINUOUS
10
-0.3986816535433071
20
-0.5218789763779528
11
-0.4008435039370079
21
-0.5152253937007873
0
LINE
8
BLACK
6
CONTINUOUS
10
-0.4008435039370079
20
-0.5152253937007873
11
-0.4015748031496063
21
-0.508267716535433
0
LINE
8
BLACK
6
CONTINUOUS
10
-0.4015748031496063
20
-0.508267716535433
11
-0.4008435039370079
21
-0.5013100393700787
0
LINE
8
BLACK
6
CONTINUOUS
10
-0.4008435039370079
20
-0.5013100393700787
11
-0.3986816535433071
21
-0.4946564566929134
0
LINE
8
BLACK
6
CONTINUOUS
10
-0.3986816535433071
20
-0.4946564566929134
11
-0.3951836220472441
21
-0.4885977559055118
0
LINE
8
BLACK
6
CONTINUOUS
10
-0.3951836220472441
20
-0.4885977559055118
11
-0.3905024015748031
21
-0.4833987007874015
0
LINE
8
BLACK
6
CONTINUOUS
10
-0.3905024015748031
20
-0.4833987007874015
11
-0.3848425196850394
21
-0.4792865354330709
0
LINE
8
BLACK
6
CONTINUOUS
10
-0.3848425196850394
20
-0.4792865354330709
11
-0.3784513385826772
21
-0.4764410236220472
0
LINE
8
BLACK
6
CONTINUOUS
10
-0.3784513385826772
20
-0.4764410236220472
11
-0.3716082283464567
21
-0.4749864566929134
0
LINE
8
BLACK
6
CONTINUOUS
10
-0.3716082283464567
20
-0.4749864566929134
11
-0.3646122440944882
21
-0.4749864566929134
0
LINE
8
BLACK
6
CONTINUOUS
10
-0.3646122440944882
20
-0.4749864566929134
11
-0.3577691338582677
21
-0.4764410236220472
0
LINE
8
BLACK
6
CONTINUOUS
10
-0.2577691338582677
20
-0.4764410236220472
11
-0.2513779527559055
21
-0.4792865354330709
0
LINE
8
BLACK
6
CONTINUOUS
10
-0.2513779527559055
20
-0.4792865354330709
11
-0.2457180708661417
21
-0.4833987007874015
0
LINE
8
BLACK
6
CONTINUOUS
10
-0.2457180708661417
20
-0.4833987007874015
11
-0.2410368503937008
21
-0.4885977559055118
0
LINE
8
BLACK
6
CONTINUOUS
10
-0.2410368503937008
20
-0.4885977559055118
11
-0.2375388188976378
21
-0.4946564566929134
0
LINE
8
BLACK
6
CONTINUOUS
10
-0.2375388188976378
20
-0.4946564566929134
11
-0.235376968503937
21
-0.5013100393700787
0
LINE
8
BLACK
6
CONTINUOUS
10
-0.235376968503937
20
-0.5013100393700787
11
-0.2346456692913386
21
-0.508267716535433
0
LINE
8
BLACK
6
CONTINUOUS
10
-0.2346456692913386
20
-0.508267716535433
11
-0.235376968503937
21
-0.5152253937007873
0
LINE
8
BLACK
6
CONTINUOUS
10
-0.235376968503937
20
-0.5152253937007873
11
-0.2375388188976378
21
-0.5218789763779528
0
LINE
8
BLACK
6
CONTINUOUS
10
-0.2375388188976378
20
-0.5218789763779528
11
-0.2410368503937008
21
-0.5279376771653543
0
LINE
8
BLACK
6
CONTINUOUS
10
-0.2410368503937008
20
-0.5279376771653543
11
-0.2457180708661417
21
-0.5331367322834646
0
LINE
8
BLACK
6
CONTINUOUS
10
-0.2457180708661417
20
-0.5331367322834646
11
-0.2513779527559055
21
-0.5372488976377953
0
LINE
8
BLACK
6
CONTINUOUS
10
-0.2513779527559055
20
-0.5372488976377953
11
-0.2577691338582677
21
-0.5400944094488189
0
LINE
8
BLACK
6
CONTINUOUS
10
-0.2577691338582677
20
-0.5400944094488189
11
-0.2646122440944882
21
-0.5415489763779527
0
LINE
8
BLACK
6
CONTINUOUS
10
-0.2646122440944882
20
-0.5415489763779527
11
-0.2716082283464567
21
-0.5415489763779527
0
LINE
8
BLACK
6
CONTINUOUS
10
-0.2716082283464567
20
-0.5415489763779527
11
-0.2784513385826772
21
-0.5400944094488189
0
LINE
8
BLACK
6
CONTINUOUS
10
-0.2784513385826772
20
-0.5400944094488189
11
-0.2848425196850394
21
-0.5372488976377953
0
LINE
8
BLACK
6
CONTINUOUS
10
-0.2848425196850394
20
-0.5372488976377953
11
-0.2905024015748032
21
-0.5331367322834646
0
LINE
8
BLACK
6
CONTINUOUS
10
-0.2905024015748032
20
-0.5331367322834646
11
-0.2951836220472441
21
-0.5279376771653543
0
LINE
8
BLACK
6
CONTINUOUS
10
-0.2951836220472441
20
-0.5279376771653543
11
-0.2986816535433071
21
-0.5218789763779528
0
LINE
8
BLACK
6
CONTINUOUS
10
-0.2986816535433071
20
-0.5218789763779528
11
-0.3008435039370079
21
-0.5152253937007873
0
LINE
8
BLACK
6
CONTINUOUS
10
-0.3008435039370079
20
-0.5152253937007873
11
-0.3015748031496063
21
-0.508267716535433
0
LINE
8
BLACK
6
CONTINUOUS
10
-0.3015748031496063
20
-0.508267716535433
11
-0.3008435039370079
21
-0.5013100393700787
0
LINE
8
BLACK
6
CONTINUOUS
10
-0.3008435039370079
20
-0.5013100393700787
11
-0.2986816535433071
21
-0.4946564566929134
0
LINE
8
BLACK
6
CONTINUOUS
10
-0.2986816535433071
20
-0.4946564566929134
11
-0.2951836220472441
21
-0.4885977559055118
0
LINE
8
BLACK
6
CONTINUOUS
10
-0.2951836220472441
20
-0.4885977559055118
11
-0.2905024015748032
21
-0.4833987007874015
0
LINE
8
BLACK
6
CONTINUOUS
10
-0.2905024015748032
20
-0.4833987007874015
11
-0.2848425196850394
21
-0.4792865354330709
0
LINE
8
BLACK
6
CONTINUOUS
10
-0.2848425196850394
20
-0.4792865354330709
11
-0.2784513385826772
21
-0.4764410236220472
0
LINE
8
BLACK
6
CONTINUOUS
10
-0.2784513385826772
20
-0.4764410236220472
11
-0.2716082283464567
21
-0.4749864566929134
0
LINE
8
BLACK
6
CONTINUOUS
10
-0.2716082283464567
20
-0.4749864566929134
11
-0.2646122440944882
21
-0.4749864566929134
0
LINE
8
BLACK
6
CONTINUOUS
10
-0.2646122440944882
20
-0.4749864566929134
11
-0.2577691338582677
21
-0.4764410236220472
0
LINE
8
BLACK
6
CONTINUOUS
10
-0.1577691338582677
20
-0.4764410236220472
11
-0.1513779527559055
21
-0.4792865354330709
0
LINE
8
BLACK
6
CONTINUOUS
10
-0.1513779527559055
20
-0.4792865354330709
11
-0.1457180708661417
21
-0.4833987007874015
0
LINE
8
BLACK
6
CONTINUOUS
10
-0.1457180708661417
20
-0.4833987007874015
11
-0.1410368503937008
21
-0.4885977559055118
0
LINE
8
BLACK
6
CONTINUOUS
10
-0.1410368503937008
20
-0.4885977559055118
11
-0.1375388188976378
21
-0.4946564566929134
0
LINE
8
BLACK
6
CONTINUOUS
10
-0.1375388188976378
20
-0.4946564566929134
11
-0.135376968503937
21
-0.5013100393700787
0
LINE
8
BLACK
6
CONTINUOUS
10
-0.135376968503937
20
-0.5013100393700787
11
-0.1346456692913386
21
-0.508267716535433
0
LINE
8
BLACK
6
CONTINUOUS
10
-0.1346456692913386
20
-0.508267716535433
11
-0.135376968503937
21
-0.5152253937007873
0
LINE
8
BLACK
6
CONTINUOUS
10
-0.135376968503937
20
-0.5152253937007873
11
-0.1375388188976378
21
-0.5218789763779528
0
LINE
8
BLACK
6
CONTINUOUS
10
-0.1375388188976378
20
-0.5218789763779528
11
-0.1410368503937008
21
-0.5279376771653543
0
LINE
8
BLACK
6
CONTINUOUS
10
-0.1410368503937008
20
-0.5279376771653543
11
-0.1457180708661417
21
-0.5331367322834646
0
LINE
8
BLACK
6
CONTINUOUS
10
-0.1457180708661417
20
-0.5331367322834646
11
-0.1513779527559055
21
-0.5372488976377953
0
LINE
8
BLACK
6
CONTINUOUS
10
-0.1513779527559055
20
-0.5372488976377953
11
-0.1577691338582677
21
-0.5400944094488189
0
LINE
8
BLACK
6
CONTINUOUS
10
-0.1577691338582677
20
-0.5400944094488189
11
-0.1646122440944882
21
-0.5415489763779527
0
LINE
8
BLACK
6
CONTINUOUS
10
-0.1646122440944882
20
-0.5415489763779527
11
-0.1716082283464567
21
-0.5415489763779527
0
LINE
8
BLACK
6
CONTINUOUS
10
-0.1716082283464567
20
-0.5415489763779527
11
-0.1784513385826772
21
-0.5400944094488189
0
LINE
8
BLACK
6
CONTINUOUS
10
-0.1784513385826772
20
-0.5400944094488189
11
-0.1848425196850394
21
-0.5372488976377953
0
LINE
8
BLACK
6
CONTINUOUS
10
-0.1848425196850394
20
-0.5372488976377953
11
-0.1905024015748031
21
-0.5331367322834646
0
LINE
8
BLACK
6
CONTINUOUS
10
-0.1905024015748031
20
-0.5331367322834646
11
-0.1951836220472441
21
-0.5279376771653543
0
LINE
8
BLACK
6
CONTINUOUS
10
-0.1951836220472441
20
-0.5279376771653543
11
-0.1986816535433071
21
-0.5218789763779528
0
LINE
8
BLACK
6
CONTINUOUS
10
-0.1986816535433071
20
-0.5218789763779528
11
-0.2008435039370079
21
-0.5152253937007873
0
LINE
8
BLACK
6
CONTINUOUS
10
-0.2008435039370079
20
-0.5152253937007873
11
-0.2015748031496063
21
-0.508267716535433
0
LINE
8
BLACK
6
CONTINUOUS
10
-0.2015748031496063
20
-0.508267716535433
11
-0.2008435039370079
21
-0.5013100393700787
0
LINE
8
BLACK
6
CONTINUOUS
10
-0.2008435039370079
20
-0.5013100393700787
11
-0.1986816535433071
21
-0.4946564566929134
0
LINE
8
BLACK
6
CONTINUOUS
10
-0.1986816535433071
20
-0.4946564566929134
11
-0.1951836220472441
21
-0.4885977559055118
0
LINE
8
BLACK
6
CONTINUOUS
10
-0.1951836220472441
20
-0.4885977559055118
11
-0.1905024015748031
21
-0.4833987007874015
0
LINE
8
BLACK
6
CONTINUOUS
10
-0.1905024015748031
20
-0.4833987007874015
11
-0.1848425196850394
21
-0.4792865354330709
0
LINE
8
BLACK
6
CONTINUOUS
10
-0.1848425196850394
20
-0.4792865354330709
11
-0.1784513385826772
21
-0.4764410236220472
0
LINE
8
BLACK
6
CONTINUOUS
10
-0.1784513385826772
20
-0.4764410236220472
11
-0.1716082283464567
21
-0.4749864566929134
0
LINE
8
BLACK
6
CONTINUOUS
10
-0.1716082283464567
20
-0.4749864566929134
11
-0.1646122440944882
21
-0.4749864566929134
0
LINE
8
BLACK
6
CONTINUOUS
10
-0.1646122440944882
20
-0.4749864566929134
11
-0.1577691338582677
21
-0.4764410236220472
0
LINE
8
BLACK
6
CONTINUOUS
10
-0.0577691338582677
20
-0.4764410236220472
11
-0.0513779527559055
21
-0.4792865354330709
0
LINE
8
BLACK
6
CONTINUOUS
10
-0.0513779527559055
20
-0.4792865354330709
11
-0.0457180708661417
21
-0.4833987007874015
0
LINE
8
BLACK
6
CONTINUOUS
10
-0.0457180708661417
20
-0.4833987007874015
11
-0.0410368503937008
21
-0.4885977559055118
0
LINE
8
BLACK
6
CONTINUOUS
10
-0.0410368503937008
20
-0.4885977559055118
11
-0.0375388188976378
21
-0.4946564566929134
0
LINE
8
BLACK
6
CONTINUOUS
10
-0.0375388188976378
20
-0.4946564566929134
11
-0.035376968503937
21
-0.5013100393700787
0
LINE
8
BLACK
6
CONTINUOUS
10
-0.035376968503937
20
-0.5013100393700787
11
-0.0346456692913386
21
-0.508267716535433
0
LINE
8
BLACK
6
CONTINUOUS
10
-0.0346456692913386
20
-0.508267716535433
11
-0.035376968503937
21
-0.5152253937007873
0
LINE
8
BLACK
6
CONTINUOUS
10
-0.035376968503937
20
-0.5152253937007873
11
-0.0375388188976378
21
-0.5218789763779528
0
LINE
8
BLACK
6
CONTINUOUS
10
-0.0375388188976378
20
-0.5218789763779528
11
-0.0410368503937008
21
-0.5279376771653543
0
LINE
8
BLACK
6
CONTINUOUS
10
-0.0410368503937008
20
-0.5279376771653543
11
-0.0457180708661417
21
-0.5331367322834646
0
LINE
8
BLACK
6
CONTINUOUS
10
-0.0457180708661417
20
-0.5331367322834646
11
-0.0513779527559055
21
-0.5372488976377953
0
LINE
8
BLACK
6
CONTINUOUS
10
-0.0513779527559055
20
-0.5372488976377953
11
-0.0577691338582677
21
-0.5400944094488189
0
LINE
8
BLACK
6
CONTINUOUS
10
-0.0577691338582677
20
-0.5400944094488189
11
-0.0646122440944882
21
-0.5415489763779527
0
LINE
8
BLACK
6
CONTINUOUS
10
-0.0646122440944882
20
-0.5415489763779527
11
-0.0716082283464567
21
-0.5415489763779527
0
LINE
8
BLACK
6
CONTINUOUS
10
-0.0716082283464567
20
-0.5415489763779527
11
-0.0784513385826772
21
-0.5400944094488189
0
LINE
8
BLACK
6
CONTINUOUS
10
-0.0784513385826772
20
-0.5400944094488189
11
-0.0848425196850394
21
-0.5372488976377953
0
LINE
8
BLACK
6
CONTINUOUS
10
-0.0848425196850394
20
-0.5372488976377953
11
-0.0905024015748031
21
-0.5331367322834646
0
LINE
8
BLACK
6
CONTINUOUS
10
-0.0905024015748031
20
-0.5331367322834646
11
-0.0951836220472441
21
-0.5279376771653543
0
LINE
8
BLACK
6
CONTINUOUS
10
-0.0951836220472441
20
-0.5279376771653543
11
-0.0986816535433071
21
-0.5218789763779528
0
LINE
8
BLACK
6
CONTINUOUS
10
-0.0986816535433071
20
-0.5218789763779528
11
-0.1008435039370079
21
-0.5152253937007873
0
LINE
8
BLACK
6
CONTINUOUS
10
-0.1008435039370079
20
-0.5152253937007873
11
-0.1015748031496063
21
-0.508267716535433
0
LINE
8
BLACK
6
CONTINUOUS
10
-0.1015748031496063
20
-0.508267716535433
11
-0.1008435039370079
21
-0.5013100393700787
0
LINE
8
BLACK
6
CONTINUOUS
10
-0.1008435039370079
20
-0.5013100393700787
11
-0.0986816535433071
21
-0.4946564566929134
0
LINE
8
BLACK
6
CONTINUOUS
10
-0.0986816535433071
20
-0.4946564566929134
11
-0.0951836220472441
21
-0.4885977559055118
0
LINE
8
BLACK
6
CONTINUOUS
10
-0.0951836220472441
20
-0.4885977559055118
11
-0.0905024015748031
21
-0.4833987007874015
0
LINE
8
BLACK
6
CONTINUOUS
10
-0.0905024015748031
20
-0.4833987007874015
11
-0.0848425196850394
21
-0.4792865354330709
0
LINE
8
BLACK
6
CONTINUOUS
10
-0.0848425196850394
20
-0.4792865354330709
11
-0.0784513385826772
21
-0.4764410236220472
0
LINE
8
BLACK
6
CONTINUOUS
10
-0.0784513385826772
20
-0.4764410236220472
11
-0.0716082283464567
21
-0.4749864566929134
0
LINE
8
BLACK
6
CONTINUOUS
10
-0.0716082283464567
20
-0.4749864566929134
11
-0.0646122440944882
21
-0.4749864566929134
0
LINE
8
BLACK
6
CONTINUOUS
10
-0.0646122440944882
20
-0.4749864566929134
11
-0.0577691338582677
21
-0.4764410236220472
0
LINE
8
BLACK
6
CONTINUOUS
10
0.0422308661417323
20
-0.4764410236220472
11
0.0486220472440945
21
-0.4792865354330709
0
LINE
8
BLACK
6
CONTINUOUS
10
0.0486220472440945
20
-0.4792865354330709
11
0.0542819291338583
21
-0.4833987007874015
0
LINE
8
BLACK
6
CONTINUOUS
10
0.0542819291338583
20
-0.4833987007874015
11
0.0589631496062992
21
-0.4885977559055118
0
LINE
8
BLACK
6
CONTINUOUS
10
0.0589631496062992
20
-0.4885977559055118
11
0.0624611811023622
21
-0.4946564566929134
0
LINE
8
BLACK
6
CONTINUOUS
10
0.0624611811023622
20
-0.4946564566929134
11
0.064623031496063
21
-0.5013100393700787
0
LINE
8
BLACK
6
CONTINUOUS
10
0.064623031496063
20
-0.5013100393700787
11
0.0653543307086614
21
-0.508267716535433
0
LINE
8
BLACK
6
CONTINUOUS
10
0.0653543307086614
20
-0.508267716535433
11
0.064623031496063
21
-0.5152253937007873
0
LINE
8
BLACK
6
CONTINUOUS
10
0.064623031496063
20
-0.5152253937007873
11
0.0624611811023622
21
-0.5218789763779528
0
LINE
8
BLACK
6
CONTINUOUS
10
0.0624611811023622
20
-0.5218789763779528
11
0.0589631496062992
21
-0.5279376771653543
0
LINE
8
BLACK
6
CONTINUOUS
10
0.0589631496062992
20
-0.5279376771653543
11
0.0542819291338583
21
-0.5331367322834646
0
LINE
8
BLACK
6
CONTINUOUS
10
0.0542819291338583
20
-0.5331367322834646
11
0.0486220472440945
21
-0.5372488976377953
0
LINE
8
BLACK
6
CONTINUOUS
10
0.0486220472440945
20
-0.5372488976377953
11
0.0422308661417323
21
-0.5400944094488189
0
LINE
8
BLACK
6
CONTINUOUS
10
0.0422308661417323
20
-0.5400944094488189
11
0.0353877559055118
21
-0.5415489763779527
0
LINE
8
BLACK
6
CONTINUOUS
10
0.0353877559055118
20
-0.5415489763779527
11
0.0283917716535433
21
-0.5415489763779527
0
LINE
8
BLACK
6
CONTINUOUS
10
0.0283917716535433
20
-0.5415489763779527
11
0.0215486614173228
21
-0.5400944094488189
0
LINE
8
BLACK
6
CONTINUOUS
10
0.0215486614173228
20
-0.5400944094488189
11
0.0151574803149606
21
-0.5372488976377953
0
LINE
8
BLACK
6
CONTINUOUS
10
0.0151574803149606
20
-0.5372488976377953
11
0.0094975984251968
21
-0.5331367322834646
0
LINE
8
BLACK
6
CONTINUOUS
10
0.0094975984251968
20
-0.5331367322834646
11
0.0048163779527559
21
-0.5279376771653543
0
LINE
8
BLACK
6
CONTINUOUS
10
0.0048163779527559
20
-0.5279376771653543
11
0.0013183464566929
21
-0.5218789763779528
0
LINE
8
BLACK
6
CONTINUOUS
10
0.0013183464566929
20
-0.5218789763779528
11
-0.0008435039370079
21
-0.5152253937007873
0
LINE
8
BLACK
6
CONTINUOUS
10
-0.0008435039370079
20
-0.5152253937007873
11
-0.0015748031496063
21
-0.508267716535433
0
LINE
8
BLACK
6
CONTINUOUS
10
-0.0015748031496063
20
-0.508267716535433
11
-0.0008435039370079
21
-0.5013100393700787
0
LINE
8
BLACK
6
CONTINUOUS
10
-0.0008435039370079
20
-0.5013100393700787
11
0.0013183464566929
21
-0.4946564566929134
0
LINE
8
BLACK
6
CONTINUOUS
10
0.0013183464566929
20
-0.4946564566929134
11
0.0048163779527559
21
-0.4885977559055118
0
LINE
8
BLACK
6
CONTINUOUS
10
0.0048163779527559
20
-0.4885977559055118
11
0.0094975984251968
21
-0.4833987007874015
0
LINE
8
BLACK
6
CONTINUOUS
10
0.0094975984251968
20
-0.4833987007874015
11
0.0151574803149606
21
-0.4792865354330709
0
LINE
8
BLACK
6
CONTINUOUS
10
0.0151574803149606
20
-0.4792865354330709
11
0.0215486614173228
21
-0.4764410236220472
0
LINE
8
BLACK
6
CONTINUOUS
10
0.0215486614173228
20
-0.4764410236220472
11
0.0283917716535433
21
-0.4749864566929134
0
LINE
8
BLACK
6
CONTINUOUS
10
0.0283917716535433
20
-0.4749864566929134
11
0.0353877559055118
21
-0.4749864566929134
0
LINE
8
BLACK
6
CONTINUOUS
10
0.0353877559055118
20
-0.4749864566929134
11
0.0422308661417323
21
-0.4764410236220472
0
LINE
8
BLACK
6
CONTINUOUS
10
0.4202755905511811
20
-0.5358267716535433
11
0.3533464566929134
21
-0.5358267716535433
0
LINE
8
BLACK
6
CONTINUOUS
10
0.3533464566929134
20
-0.5358267716535433
11
0.3533464566929134
21
-0.4688976377952756
0
LINE
8
BLACK
6
CONTINUOUS
10
0.3533464566929134
20
-0.4688976377952756
11
0.4202755905511811
21
-0.4688976377952756
0
LINE
8
BLACK
6
CONTINUOUS
10
0.4202755905511811
20
-0.4688976377952756
11
0.4202755905511811
21
-0.5358267716535433
0
LINE
8
BLACK
6
CONTINUOUS
10
0.197152125984252
20
-0.4705355118110236
11
0.2035433070866142
21
-0.4733810236220473
0
LINE
8
BLACK
6
CONTINUOUS
10
0.2035433070866142
20
-0.4733810236220473
11
0.2092031889763779
21
-0.4774931889763779
0
LINE
8
BLACK
6
CONTINUOUS
10
0.2092031889763779
20
-0.4774931889763779
11
0.2138844094488189
21
-0.4826922440944882
0
LINE
8
BLACK
6
CONTINUOUS
10
0.2138844094488189
20
-0.4826922440944882
11
0.2173824409448819
21
-0.4887509448818897
0
LINE
8
BLACK
6
CONTINUOUS
10
0.2173824409448819
20
-0.4887509448818897
11
0.2195442913385827
21
-0.4954045275590551
0
LINE
8
BLACK
6
CONTINUOUS
10
0.2195442913385827
20
-0.4954045275590551
11
0.2202755905511811
21
-0.5023622047244094
0
LINE
8
BLACK
6
CONTINUOUS
10
0.2202755905511811
20
-0.5023622047244094
11
0.2195442913385827
21
-0.5093198818897637
0
LINE
8
BLACK
6
CONTINUOUS
10
0.2195442913385827
20
-0.5093198818897637
11
0.2173824409448819
21
-0.5159734645669292
0
LINE
8
BLACK
6
CONTINUOUS
10
0.2173824409448819
20
-0.5159734645669292
11
0.2138844094488189
21
-0.5220321653543307
0
LINE
8
BLACK
6
CONTINUOUS
10
0.2138844094488189
20
-0.5220321653543307
11
0.2092031889763779
21
-0.527231220472441
0
LINE
8
BLACK
6
CONTINUOUS
10
0.2092031889763779
20
-0.527231220472441
11
0.2035433070866142
21
-0.5313433858267717
0
LINE
8
BLACK
6
CONTINUOUS
10
0.2035433070866142
20
-0.5313433858267717
11
0.197152125984252
21
-0.5341888976377953
0
LINE
8
BLACK
6
CONTINUOUS
10
0.197152125984252
20
-0.5341888976377953
11
0.1903090157480315
21
-0.5356434645669291
0
LINE
8
BLACK
6
CONTINUOUS
10
0.1903090157480315
20
-0.5356434645669291
11
0.183313031496063
21
-0.5356434645669291
0
LINE
8
BLACK
6
CONTINUOUS
10
0.183313031496063
20
-0.5356434645669291
11
0.1764699212598425
21
-0.5341888976377953
0
LINE
8
BLACK
6
CONTINUOUS
10
0.1764699212598425
20
-0.5341888976377953
11
0.1700787401574803
21
-0.5313433858267717
0
LINE
8
BLACK
6
CONTINUOUS
10
0.1700787401574803
20
-0.5313433858267717
11
0.1644188582677165
21
-0.527231220472441
0
LINE
8
BLACK
6
CONTINUOUS
10
0.1644188582677165
20
-0.527231220472441
11
0.1597376377952756
21
-0.5220321653543307
0
LINE
8
BLACK
6
CONTINUOUS
10
0.1597376377952756
20
-0.5220321653543307
11
0.1562396062992126
21
-0.5159734645669292
0
LINE
8
BLACK
6
CONTINUOUS
10
0.1562396062992126
20
-0.5159734645669292
11
0.1540777559055118
21
-0.5093198818897637
0
LINE
8
BLACK
6
CONTINUOUS
10
0.1540777559055118
20
-0.5093198818897637
11
0.1533464566929134
21
-0.5023622047244094
0
LINE
8
BLACK
6
CONTINUOUS
10
0.1533464566929134
20
-0.5023622047244094
11
0.1540777559055118
21
-0.4954045275590551
0
LINE
8
BLACK
6
CONTINUOUS
10
0.1540777559055118
20
-0.4954045275590551
11
0.1562396062992126
21
-0.4887509448818897
0
LINE
8
BLACK
6
CONTINUOUS
10
0.1562396062992126
20
-0.4887509448818897
11
0.1597376377952756
21
-0.4826922440944882
0
LINE
8
BLACK
6
CONTINUOUS
10
0.1597376377952756
20
-0.4826922440944882
11
0.1644188582677165
21
-0.4774931889763779
0
LINE
8
BLACK
6
CONTINUOUS
10
0.1644188582677165
20
-0.4774931889763779
11
0.1700787401574803
21
-0.4733810236220473
0
LINE
8
BLACK
6
CONTINUOUS
10
0.1700787401574803
20
-0.4733810236220473
11
0.1764699212598425
21
-0.4705355118110236
0
LINE
8
BLACK
6
CONTINUOUS
10
0.1764699212598425
20
-0.4705355118110236
11
0.183313031496063
21
-0.4690809448818897
0
LINE
8
BLACK
6
CONTINUOUS
10
0.183313031496063
20
-0.4690809448818897
11
0.1903090157480315
21
-0.4690809448818897
0
LINE
8
BLACK
6
CONTINUOUS
10
0.1903090157480315
20
-0.4690809448818897
11
0.197152125984252
21
-0.4705355118110236
0
LINE
8
BLACK
6
CONTINUOUS
10
0.2971521259842519
20
-0.4705355118110236
11
0.3035433070866141
21
-0.4733810236220473
0
LINE
8
BLACK
6
CONTINUOUS
10
0.3035433070866141
20
-0.4733810236220473
11
0.3092031889763779
21
-0.4774931889763779
0
LINE
8
BLACK
6
CONTINUOUS
10
0.3092031889763779
20
-0.4774931889763779
11
0.3138844094488189
21
-0.4826922440944882
0
LINE
8
BLACK
6
CONTINUOUS
10
0.3138844094488189
20
-0.4826922440944882
11
0.3173824409448819
21
-0.4887509448818897
0
LINE
8
BLACK
6
CONTINUOUS
10
0.3173824409448819
20
-0.4887509448818897
11
0.3195442913385826
21
-0.4954045275590551
0
LINE
8
BLACK
6
CONTINUOUS
10
0.3195442913385826
20
-0.4954045275590551
11
0.3202755905511811
21
-0.5023622047244094
0
LINE
8
BLACK
6
CONTINUOUS
10
0.3202755905511811
20
-0.5023622047244094
11
0.3195442913385826
21
-0.5093198818897637
0
LINE
8
BLACK
6
CONTINUOUS
10
0.3195442913385826
20
-0.5093198818897637
11
0.3173824409448819
21
-0.5159734645669292
0
LINE
8
BLACK
6
CONTINUOUS
10
0.3173824409448819
20
-0.5159734645669292
11
0.3138844094488189
21
-0.5220321653543307
0
LINE
8
BLACK
6
CONTINUOUS
10
0.3138844094488189
20
-0.5220321653543307
11
0.3092031889763779
21
-0.527231220472441
0
LINE
8
BLACK
6
CONTINUOUS
10
0.3092031889763779
20
-0.527231220472441
11
0.3035433070866141
21
-0.5313433858267717
0
LINE
8
BLACK
6
CONTINUOUS
10
0.3035433070866141
20
-0.5313433858267717
11
0.2971521259842519
21
-0.5341888976377953
0
LINE
8
BLACK
6
CONTINUOUS
10
0.2971521259842519
20
-0.5341888976377953
11
0.2903090157480315
21
-0.5356434645669291
0
LINE
8
BLACK
6
CONTINUOUS
10
0.2903090157480315
20
-0.5356434645669291
11
0.283313031496063
21
-0.5356434645669291
0
LINE
8
BLACK
6
CONTINUOUS
10
0.283313031496063
20
-0.5356434645669291
11
0.2764699212598425
21
-0.5341888976377953
0
LINE
8
BLACK
6
CONTINUOUS
10
0.2764699212598425
20
-0.5341888976377953
11
0.2700787401574803
21
-0.5313433858267717
0
LINE
8
BLACK
6
CONTINUOUS
10
0.2700787401574803
20
-0.5313433858267717
11
0.2644188582677165
21
-0.527231220472441
0
LINE
8
BLACK
6
CONTINUOUS
10
0.2644188582677165
20
-0.527231220472441
11
0.2597376377952756
21
-0.5220321653543307
0
LINE
8
BLACK
6
CONTINUOUS
10
0.2597376377952756
20
-0.5220321653543307
11
0.2562396062992126
21
-0.5159734645669292
0
LINE
8
BLACK
6
CONTINUOUS
10
0.2562396062992126
20
-0.5159734645669292
11
0.2540777559055118
21
-0.5093198818897637
0
LINE
8
BLACK
6
CONTINUOUS
10
0.2540777559055118
20
-0.5093198818897637
11
0.2533464566929134
21
-0.5023622047244094
0
LINE
8
BLACK
6
CONTINUOUS
10
0.2533464566929134
20
-0.5023622047244094
11
0.2540777559055118
21
-0.4954045275590551
0
LINE
8
BLACK
6
CONTINUOUS
10
0.2540777559055118
20
-0.4954045275590551
11
0.2562396062992126
21
-0.4887509448818897
0
LINE
8
BLACK
6
CONTINUOUS
10
0.2562396062992126
20
-0.4887509448818897
11
0.2597376377952756
21
-0.4826922440944882
0
LINE
8
BLACK
6
CONTINUOUS
10
0.2597376377952756
20
-0.4826922440944882
11
0.2644188582677165
21
-0.4774931889763779
0
LINE
8
BLACK
6
CONTINUOUS
10
0.2644188582677165
20
-0.4774931889763779
11
0.2700787401574803
21
-0.4733810236220473
0
LINE
8
BLACK
6
CONTINUOUS
10
0.2700787401574803
20
-0.4733810236220473
11
0.2764699212598425
21
-0.4705355118110236
0
LINE
8
BLACK
6
CONTINUOUS
10
0.2764699212598425
20
-0.4705355118110236
11
0.283313031496063
21
-0.4690809448818897
0
LINE
8
BLACK
6
CONTINUOUS
10
0.283313031496063
20
-0.4690809448818897
11
0.2903090157480315
21
-0.4690809448818897
0
LINE
8
BLACK
6
CONTINUOUS
10
0.2903090157480315
20
-0.4690809448818897
11
0.2971521259842519
21
-0.4705355118110236
0
LINE
8
BLACK
6
CONTINUOUS
10
-0.5814588582677165
20
-0.2817156299212598
11
-0.5680940944881889
21
-0.2848831102362205
0
LINE
8
BLACK
6
CONTINUOUS
10
-0.5680940944881889
20
-0.2848831102362205
11
-0.5551874409448819
21
-0.2895807874015748
0
LINE
8
BLACK
6
CONTINUOUS
10
-0.5551874409448819
20
-0.2895807874015748
11
-0.5429133858267716
21
-0.2957450393700787
0
LINE
8
BLACK
6
CONTINUOUS
10
-0.5429133858267716
20
-0.2957450393700787
11
-0.5314379527559056
21
-0.3032925196850393
0
LINE
8
BLACK
6
CONTINUOUS
10
-0.5314379527559056
20
-0.3032925196850393
11
-0.5209163385826772
21
-0.312121220472441
0
LINE
8
BLACK
6
CONTINUOUS
10
-0.5209163385826772
20
-0.312121220472441
11
-0.5114908267716536
21
-0.3221116929133858
0
LINE
8
BLACK
6
CONTINUOUS
10
-0.5114908267716536
20
-0.3221116929133858
11
-0.5032888582677165
21
-0.3331288582677165
0
LINE
8
BLACK
6
CONTINUOUS
10
-0.5032888582677165
20
-0.3331288582677165
11
-0.4964213385826772
21
-0.3450237007874016
0
LINE
8
BLACK
6
CONTINUOUS
10
-0.4964213385826772
20
-0.3450237007874016
11
-0.4909811811023622
21
-0.3576354330708661
0
LINE
8
BLACK
6
CONTINUOUS
10
-0.4909811811023622
20
-0.3576354330708661
11
-0.4870419291338582
21
-0.3707933858267716
0
LINE
8
BLACK
6
CONTINUOUS
10
-0.4870419291338582
20
-0.3707933858267716
11
-0.4846568897637795
21
-0.3843197244094488
0
LINE
8
BLACK
6
CONTINUOUS
10
-0.4846568897637795
20
-0.3843197244094488
11
-0.4838582677165354
21
-0.3980314960629921
0
LINE
8
BLACK
6
CONTINUOUS
10
-0.4838582677165354
20
-0.3980314960629921
11
-0.4846568897637795
21
-0.4117432677165354
0
LINE
8
BLACK
6
CONTINUOUS
10
-0.4846568897637795
20
-0.4117432677165354
11
-0.4870419291338582
21
-0.4252696062992126
0
LINE
8
BLACK
6
CONTINUOUS
10
-0.4870419291338582
20
-0.4252696062992126
11
-0.4909811811023622
21
-0.4384275590551181
0
LINE
8
BLACK
6
CONTINUOUS
10
-0.4909811811023622
20
-0.4384275590551181
11
-0.4964213385826772
21
-0.4510392913385827
0
LINE
8
BLACK
6
CONTINUOUS
10
-0.4964213385826772
20
-0.4510392913385827
11
-0.5032888582677165
21
-0.4629341338582677
0
LINE
8
BLACK
6
CONTINUOUS
10
-0.5032888582677165
20
-0.4629341338582677
11
-0.5114908267716536
21
-0.4739512992125984
0
LINE
8
BLACK
6
CONTINUOUS
10
-0.5114908267716536
20
-0.4739512992125984
11
-0.5209163385826772
21
-0.4839417716535433
0
LINE
8
BLACK
6
CONTINUOUS
10
-0.5209163385826772
20
-0.4839417716535433
11
-0.5314379527559056
21
-0.4927704724409449
0
LINE
8
BLACK
6
CONTINUOUS
10
-0.5314379527559056
20
-0.4927704724409449
11
-0.5429133858267716
21
-0.5003179527559055
0
LINE
8
BLACK
6
CONTINUOUS
10
-0.5429133858267716
20
-0.5003179527559055
11
-0.5551874409448819
21
-0.5064822047244094
0
LINE
8
BLACK
6
CONTINUOUS
10
-0.5551874409448819
20
-0.5064822047244094
11
-0.5680940944881889
21
-0.5111798818897638
0
LINE
8
BLACK
6
CONTINUOUS
10
-0.5680940944881889
20
-0.5111798818897638
11
-0.5814588582677165
21
-0.5143473622047244
0
LINE
8
BLACK
6
CONTINUOUS
10
-0.5814588582677165
20
-0.5143473622047244
11
-0.5951010236220472
21
-0.5159418897637795
0
LINE
8
BLACK
6
CONTINUOUS
10
-0.5951010236220472
20
-0.5159418897637795
11
-0.6088359842519685
21
-0.5159418897637795
0
LINE
8
BLACK
6
CONTINUOUS
10
-0.6088359842519685
20
-0.5159418897637795
11
-0.6224781496062992
21
-0.5143473622047244
0
LINE
8
BLACK
6
CONTINUOUS
10
-0.6224781496062992
20
-0.5143473622047244
11
-0.6358429133858268
21
-0.5111798818897638
0
LINE
8
BLACK
6
CONTINUOUS
10
-0.6358429133858268
20
-0.5111798818897638
11
-0.6487495669291339
21
-0.5064822047244094
0
LINE
8
BLACK
6
CONTINUOUS
10
-0.6487495669291339
20
-0.5064822047244094
11
-0.6610236220472441
21
-0.5003179527559055
0
LINE
8
BLACK
6
CONTINUOUS
10
-0.6610236220472441
20
-0.5003179527559055
11
-0.6724990551181103
21
-0.4927704724409449
0
LINE
8
BLACK
6
CONTINUOUS
10
-0.6724990551181103
20
-0.4927704724409449
11
-0.6830206692913385
21
-0.4839417716535433
0
LINE
8
BLACK
6
CONTINUOUS
10
-0.6830206692913385
20
-0.4839417716535433
11
-0.6924461811023622
21
-0.4739512992125984
0
LINE
8
BLACK
6
CONTINUOUS
10
-0.6924461811023622
20
-0.4739512992125984
11
-0.7006481496062992
21
-0.4629341338582677
0
LINE
8
BLACK
6
CONTINUOUS
10
-0.7006481496062992
20
-0.4629341338582677
11
-0.7075156692913386
21
-0.4510392913385827
0
LINE
8
BLACK
6
CONTINUOUS
10
-0.7075156692913386
20
-0.4510392913385827
11
-0.7129558267716535
21
-0.4384275590551181
0
LINE
8
BLACK
6
CONTINUOUS
10
-0.7129558267716535
20
-0.4384275590551181
11
-0.7168950787401575
21
-0.4252696062992126
0
LINE
8
BLACK
6
CONTINUOUS
10
-0.7168950787401575
20
-0.4252696062992126
11
-0.7192801181102362
21
-0.4117432677165354
0
LINE
8
BLACK
6
CONTINUOUS
10
-0.7192801181102362
20
-0.4117432677165354
11
-0.7200787401574803
21
-0.3980314960629921
0
LINE
8
BLACK
6
CONTINUOUS
10
-0.7200787401574803
20
-0.3980314960629921
11
-0.7192801181102362
21
-0.3843197244094488
0
LINE
8
BLACK
6
CONTINUOUS
10
-0.7192801181102362
20
-0.3843197244094488
11
-0.7168950787401575
21
-0.3707933858267716
0
LINE
8
BLACK
6
CONTINUOUS
10
-0.7168950787401575
20
-0.3707933858267716
11
-0.7129558267716535
21
-0.3576354330708661
0
LINE
8
BLACK
6
CONTINUOUS
10
-0.7129558267716535
20
-0.3576354330708661
11
-0.7075156692913386
21
-0.3450237007874016
0
LINE
8
BLACK
6
CONTINUOUS
10
-0.7075156692913386
20
-0.3450237007874016
11
-0.7006481496062992
21
-0.3331288582677165
0
LINE
8
BLACK
6
CONTINUOUS
10
-0.7006481496062992
20
-0.3331288582677165
11
-0.6924461811023622
21
-0.3221116929133858
0
LINE
8
BLACK
6
CONTINUOUS
10
-0.6924461811023622
20
-0.3221116929133858
11
-0.6830206692913385
21
-0.312121220472441
0
LINE
8
BLACK
6
CONTINUOUS
10
-0.6830206692913385
20
-0.312121220472441
11
-0.6724990551181103
21
-0.3032925196850393
0
LINE
8
BLACK
6
CONTINUOUS
10
-0.6724990551181103
20
-0.3032925196850393
11
-0.6610236220472441
21
-0.2957450393700787
0
LINE
8
BLACK
6
CONTINUOUS
10
-0.6610236220472441
20
-0.2957450393700787
11
-0.6487495669291339
21
-0.2895807874015748
0
LINE
8
BLACK
6
CONTINUOUS
10
-0.6487495669291339
20
-0.2895807874015748
11
-0.6358429133858268
21
-0.2848831102362205
0
LINE
8
BLACK
6
CONTINUOUS
10
-0.6358429133858268
20
-0.2848831102362205
11
-0.6224781496062992
21
-0.2817156299212598
0
LINE
8
BLACK
6
CONTINUOUS
10
-0.6224781496062992
20
-0.2817156299212598
11
-0.6088359842519685
21
-0.2801211023622047
0
LINE
8
BLACK
6
CONTINUOUS
10
-0.6088359842519685
20
-0.2801211023622047
11
-0.5951010236220472
21
-0.2801211023622047
0
LINE
8
BLACK
6
CONTINUOUS
10
-0.5951010236220472
20
-0.2801211023622047
11
-0.5814588582677165
21
-0.2817156299212598
0
LINE
8
BLACK
6
CONTINUOUS
10
0.6185411417322835
20
-0.2817156299212598
11
0.631905905511811
21
-0.2848831102362205
0
LINE
8
BLACK
6
CONTINUOUS
10
0.631905905511811
20
-0.2848831102362205
11
0.6448125590551181
21
-0.2895807874015748
0
LINE
8
BLACK
6
CONTINUOUS
10
0.6448125590551181
20
-0.2895807874015748
11
0.6570866141732283
21
-0.2957450393700787
0
LINE
8
BLACK
6
CONTINUOUS
10
0.6570866141732283
20
-0.2957450393700787
11
0.6685620472440945
21
-0.3032925196850393
0
LINE
8
BLACK
6
CONTINUOUS
10
0.6685620472440945
20
-0.3032925196850393
11
0.6790836614173228
21
-0.312121220472441
0
LINE
8
BLACK
6
CONTINUOUS
10
0.6790836614173228
20
-0.312121220472441
11
0.6885091732283465
21
-0.3221116929133858
0
LINE
8
BLACK
6
CONTINUOUS
10
0.6885091732283465
20
-0.3221116929133858
11
0.6967111417322834
21
-0.3331288582677165
0
LINE
8
BLACK
6
CONTINUOUS
10
0.6967111417322834
20
-0.3331288582677165
11
0.7035786614173228
21
-0.3450237007874016
0
LINE
8
BLACK
6
CONTINUOUS
10
0.7035786614173228
20
-0.3450237007874016
11
0.7090188188976377
21
-0.3576354330708661
0
LINE
8
BLACK
6
CONTINUOUS
10
0.7090188188976377
20
-0.3576354330708661
11
0.7129580708661417
21
-0.3707933858267716
0
LINE
8
BLACK
6
CONTINUOUS
10
0.7129580708661417
20
-0.3707933858267716
11
0.7153431102362204
21
-0.3843197244094488
0
LINE
8
BLACK
6
CONTINUOUS
10
0.7153431102362204
20
-0.3843197244094488
11
0.7161417322834646
21
-0.3980314960629921
0
LINE
8
BLACK
6
CONTINUOUS
10
0.7161417322834646
20
-0.3980314960629921
11
0.7153431102362204
21
-0.4117432677165354
0
LINE
8
BLACK
6
CONTINUOUS
10
0.7153431102362204
20
-0.4117432677165354
11
0.7129580708661417
21
-0.4252696062992126
0
LINE
8
BLACK
6
CONTINUOUS
10
0.7129580708661417
20
-0.4252696062992126
11
0.7090188188976377
21
-0.4384275590551181
0
LINE
8
BLACK
6
CONTINUOUS
10
0.7090188188976377
20
-0.4384275590551181
11
0.7035786614173228
21
-0.4510392913385827
0
LINE
8
BLACK
6
CONTINUOUS
10
0.7035786614173228
20
-0.4510392913385827
11
0.6967111417322834
21
-0.4629341338582677
0
LINE
8
BLACK
6
CONTINUOUS
10
0.6967111417322834
20
-0.4629341338582677
11
0.6885091732283465
21
-0.4739512992125984
0
LINE
8
BLACK
6
CONTINUOUS
10
0.6885091732283465
20
-0.4739512992125984
11
0.6790836614173228
21
-0.4839417716535433
0
LINE
8
BLACK
6
CONTINUOUS
10
0.6790836614173228
20
-0.4839417716535433
11
0.6685620472440945
21
-0.4927704724409449
0
LINE
8
BLACK
6
CONTINUOUS
10
0.6685620472440945
20
-0.4927704724409449
11
0.6570866141732283
21
-0.5003179527559055
0
LINE
8
BLACK
6
CONTINUOUS
10
0.6570866141732283
20
-0.5003179527559055
11
0.6448125590551181
21
-0.5064822047244094
0
LINE
8
BLACK
6
CONTINUOUS
10
0.6448125590551181
20
-0.5064822047244094
11
0.631905905511811
21
-0.5111798818897638
0
LINE
8
BLACK
6
CONTINUOUS
10
0.631905905511811
20
-0.5111798818897638
11
0.6185411417322835
21
-0.5143473622047244
0
LINE
8
BLACK
6
CONTINUOUS
10
0.6185411417322835
20
-0.5143473622047244
11
0.6048989763779528
21
-0.5159418897637795
0
LINE
8
BLACK
6
CONTINUOUS
10
0.6048989763779528
20
-0.5159418897637795
11
0.5911640157480315
21
-0.5159418897637795
0
LINE
8
BLACK
6
CONTINUOUS
10
0.5911640157480315
20
-0.5159418897637795
11
0.5775218503937007
21
-0.5143473622047244
0
LINE
8
BLACK
6
CONTINUOUS
10
0.5775218503937007
20
-0.5143473622047244
11
0.5641570866141732
21
-0.5111798818897638
0
LINE
8
BLACK
6
CONTINUOUS
10
0.5641570866141732
20
-0.5111798818897638
11
0.5512504330708661
21
-0.5064822047244094
0
LINE
8
BLACK
6
CONTINUOUS
10
0.5512504330708661
20
-0.5064822047244094
11
0.5389763779527559
21
-0.5003179527559055
0
LINE
8
BLACK
6
CONTINUOUS
10
0.5389763779527559
20
-0.5003179527559055
11
0.5275009448818897
21
-0.4927704724409449
0
LINE
8
BLACK
6
CONTINUOUS
10
0.5275009448818897
20
-0.4927704724409449
11
0.5169793307086614
21
-0.4839417716535433
0
LINE
8
BLACK
6
CONTINUOUS
10
0.5169793307086614
20
-0.4839417716535433
11
0.5075538188976377
21
-0.4739512992125984
0
LINE
8
BLACK
6
CONTINUOUS
10
0.5075538188976377
20
-0.4739512992125984
11
0.4993518503937008
21
-0.4629341338582677
0
LINE
8
BLACK
6
CONTINUOUS
10
0.4993518503937008
20
-0.4629341338582677
11
0.4924843307086614
21
-0.4510392913385827
0
LINE
8
BLACK
6
CONTINUOUS
10
0.4924843307086614
20
-0.4510392913385827
11
0.4870441732283464
21
-0.4384275590551181
0
LINE
8
BLACK
6
CONTINUOUS
10
0.4870441732283464
20
-0.4384275590551181
11
0.4831049212598425
21
-0.4252696062992126
0
LINE
8
BLACK
6
CONTINUOUS
10
0.4831049212598425
20
-0.4252696062992126
11
0.4807198818897638
21
-0.4117432677165354
0
LINE
8
BLACK
6
CONTINUOUS
10
0.4807198818897638
20
-0.4117432677165354
11
0.4799212598425197
21
-0.3980314960629921
0
LINE
8
BLACK
6
CONTINUOUS
10
0.4799212598425197
20
-0.3980314960629921
11
0.4807198818897638
21
-0.3843197244094488
0
LINE
8
BLACK
6
CONTINUOUS
10
0.4807198818897638
20
-0.3843197244094488
11
0.4831049212598425
21
-0.3707933858267716
0
LINE
8
BLACK
6
CONTINUOUS
10
0.4831049212598425
20
-0.3707933858267716
11
0.4870441732283464
21
-0.3576354330708661
0
LINE
8
BLACK
6
CONTINUOUS
10
0.4870441732283464
20
-0.3576354330708661
11
0.4924843307086614
21
-0.3450237007874016
0
LINE
8
BLACK
6
CONTINUOUS
10
0.4924843307086614
20
-0.3450237007874016
11
0.4993518503937008
21
-0.3331288582677165
0
LINE
8
BLACK
6
CONTINUOUS
10
0.4993518503937008
20
-0.3331288582677165
11
0.5075538188976377
21
-0.3221116929133858
0
LINE
8
BLACK
6
CONTINUOUS
10
0.5075538188976377
20
-0.3221116929133858
11
0.5169793307086614
21
-0.312121220472441
0
LINE
8
BLACK
6
CONTINUOUS
10
0.5169793307086614
20
-0.312121220472441
11
0.5275009448818897
21
-0.3032925196850393
0
LINE
8
BLACK
6
CONTINUOUS
10
0.5275009448818897
20
-0.3032925196850393
11
0.5389763779527559
21
-0.2957450393700787
0
LINE
8
BLACK
6
CONTINUOUS
10
0.5389763779527559
20
-0.2957450393700787
11
0.5512504330708661
21
-0.2895807874015748
0
LINE
8
BLACK
6
CONTINUOUS
10
0.5512504330708661
20
-0.2895807874015748
11
0.5641570866141732
21
-0.2848831102362205
0
LINE
8
BLACK
6
CONTINUOUS
10
0.5641570866141732
20
-0.2848831102362205
11
0.5775218503937007
21
-0.2817156299212598
0
LINE
8
BLACK
6
CONTINUOUS
10
0.5775218503937007
20
-0.2817156299212598
11
0.5911640157480315
21
-0.2801211023622047
0
LINE
8
BLACK
6
CONTINUOUS
10
0.5911640157480315
20
-0.2801211023622047
11
0.6048989763779528
21
-0.2801211023622047
0
LINE
8
BLACK
6
CONTINUOUS
10
0.6048989763779528
20
-0.2801211023622047
11
0.6185411417322835
21
-0.2817156299212598
0
LINE
8
BLACK
6
CONTINUOUS
10
0.0653543307086614
20
-0.4417322834645669
11
-0.0015748031496063
21
-0.4417322834645669
0
LINE
8
BLACK
6
CONTINUOUS
10
-0.0015748031496063
20
-0.4417322834645669
11
-0.0015748031496063
21
-0.3748031496062992
0
LINE
8
BLACK
6
CONTINUOUS
10
-0.0015748031496063
20
-0.3748031496062992
11
0.0653543307086614
21
-0.3748031496062992
0
LINE
8
BLACK
6
CONTINUOUS
10
0.0653543307086614
20
-0.3748031496062992
11
0.0653543307086614
21
-0.4417322834645669
0
LINE
8
BLACK
6
CONTINUOUS
10
-0.3577691338582677
20
-0.3764410236220472
11
-0.3513779527559055
21
-0.3792865354330708
0
LINE
8
BLACK
6
CONTINUOUS
10
-0.3513779527559055
20
-0.3792865354330708
11
-0.3457180708661417
21
-0.3833987007874016
0
LINE
8
BLACK
6
CONTINUOUS
10
-0.3457180708661417
20
-0.3833987007874016
11
-0.3410368503937008
21
-0.3885977559055118
0
LINE
8
BLACK
6
CONTINUOUS
10
-0.3410368503937008
20
-0.3885977559055118
11
-0.3375388188976378
21
-0.3946564566929134
0
LINE
8
BLACK
6
CONTINUOUS
10
-0.3375388188976378
20
-0.3946564566929134
11
-0.335376968503937
21
-0.4013100393700788
0
LINE
8
BLACK
6
CONTINUOUS
10
-0.335376968503937
20
-0.4013100393700788
11
-0.3346456692913386
21
-0.408267716535433
0
LINE
8
BLACK
6
CONTINUOUS
10
-0.3346456692913386
20
-0.408267716535433
11
-0.335376968503937
21
-0.4152253937007874
0
LINE
8
BLACK
6
CONTINUOUS
10
-0.335376968503937
20
-0.4152253937007874
11
-0.3375388188976378
21
-0.4218789763779527
0
LINE
8
BLACK
6
CONTINUOUS
10
-0.3375388188976378
20
-0.4218789763779527
11
-0.3410368503937008
21
-0.4279376771653543
0
LINE
8
BLACK
6
CONTINUOUS
10
-0.3410368503937008
20
-0.4279376771653543
11
-0.3457180708661417
21
-0.4331367322834646
0
LINE
8
BLACK
6
CONTINUOUS
10
-0.3457180708661417
20
-0.4331367322834646
11
-0.3513779527559055
21
-0.4372488976377953
0
LINE
8
BLACK
6
CONTINUOUS
10
-0.3513779527559055
20
-0.4372488976377953
11
-0.3577691338582677
21
-0.4400944094488189
0
LINE
8
BLACK
6
CONTINUOUS
10
-0.3577691338582677
20
-0.4400944094488189
11
-0.3646122440944882
21
-0.4415489763779528
0
LINE
8
BLACK
6
CONTINUOUS
10
-0.3646122440944882
20
-0.4415489763779528
11
-0.3716082283464567
21
-0.4415489763779528
0
LINE
8
BLACK
6
CONTINUOUS
10
-0.3716082283464567
20
-0.4415489763779528
11
-0.3784513385826772
21
-0.4400944094488189
0
LINE
8
BLACK
6
CONTINUOUS
10
-0.3784513385826772
20
-0.4400944094488189
11
-0.3848425196850394
21
-0.4372488976377953
0
LINE
8
BLACK
6
CONTINUOUS
10
-0.3848425196850394
20
-0.4372488976377953
11
-0.3905024015748031
21
-0.4331367322834646
0
LINE
8
BLACK
6
CONTINUOUS
10
-0.3905024015748031
20
-0.4331367322834646
11
-0.3951836220472441
21
-0.4279376771653543
0
LINE
8
BLACK
6
CONTINUOUS
10
-0.3951836220472441
20
-0.4279376771653543
11
-0.3986816535433071
21
-0.4218789763779527
0
LINE
8
BLACK
6
CONTINUOUS
10
-0.3986816535433071
20
-0.4218789763779527
11
-0.4008435039370079
21
-0.4152253937007874
0
LINE
8
BLACK
6
CONTINUOUS
10
-0.4008435039370079
20
-0.4152253937007874
11
-0.4015748031496063
21
-0.408267716535433
0
LINE
8
BLACK
6
CONTINUOUS
10
-0.4015748031496063
20
-0.408267716535433
11
-0.4008435039370079
21
-0.4013100393700788
0
LINE
8
BLACK
6
CONTINUOUS
10
-0.4008435039370079
20
-0.4013100393700788
11
-0.3986816535433071
21
-0.3946564566929134
0
LINE
8
BLACK
6
CONTINUOUS
10
-0.3986816535433071
20
-0.3946564566929134
11
-0.3951836220472441
21
-0.3885977559055118
0
LINE
8
BLACK
6
CONTINUOUS
10
-0.3951836220472441
20
-0.3885977559055118
11
-0.3905024015748031
21
-0.3833987007874016
0
LINE
8
BLACK
6
CONTINUOUS
10
-0.3905024015748031
20
-0.3833987007874016
11
-0.3848425196850394
21
-0.3792865354330708
0
LINE
8
BLACK
6
CONTINUOUS
10
-0.3848425196850394
20
-0.3792865354330708
11
-0.3784513385826772
21
-0.3764410236220472
0
LINE
8
BLACK
6
CONTINUOUS
10
-0.3784513385826772
20
-0.3764410236220472
11
-0.3716082283464567
21
-0.3749864566929134
0
LINE
8
BLACK
6
CONTINUOUS
10
-0.3716082283464567
20
-0.3749864566929134
11
-0.3646122440944882
21
-0.3749864566929134
0
LINE
8
BLACK
6
CONTINUOUS
10
-0.3646122440944882
20
-0.3749864566929134
11
-0.3577691338582677
21
-0.3764410236220472
0
LINE
8
BLACK
6
CONTINUOUS
10
-0.2577691338582677
20
-0.3764410236220472
11
-0.2513779527559055
21
-0.3792865354330708
0
LINE
8
BLACK
6
CONTINUOUS
10
-0.2513779527559055
20
-0.3792865354330708
11
-0.2457180708661417
21
-0.3833987007874016
0
LINE
8
BLACK
6
CONTINUOUS
10
-0.2457180708661417
20
-0.3833987007874016
11
-0.2410368503937008
21
-0.3885977559055118
0
LINE
8
BLACK
6
CONTINUOUS
10
-0.2410368503937008
20
-0.3885977559055118
11
-0.2375388188976378
21
-0.3946564566929134
0
LINE
8
BLACK
6
CONTINUOUS
10
-0.2375388188976378
20
-0.3946564566929134
11
-0.235376968503937
21
-0.4013100393700788
0
LINE
8
BLACK
6
CONTINUOUS
10
-0.235376968503937
20
-0.4013100393700788
11
-0.2346456692913386
21
-0.408267716535433
0
LINE
8
BLACK
6
CONTINUOUS
10
-0.2346456692913386
20
-0.408267716535433
11
-0.235376968503937
21
-0.4152253937007874
0
LINE
8
BLACK
6
CONTINUOUS
10
-0.235376968503937
20
-0.4152253937007874
11
-0.2375388188976378
21
-0.4218789763779527
0
LINE
8
BLACK
6
CONTINUOUS
10
-0.2375388188976378
20
-0.4218789763779527
11
-0.2410368503937008
21
-0.4279376771653543
0
LINE
8
BLACK
6
CONTINUOUS
10
-0.2410368503937008
20
-0.4279376771653543
11
-0.2457180708661417
21
-0.4331367322834646
0
LINE
8
BLACK
6
CONTINUOUS
10
-0.2457180708661417
20
-0.4331367322834646
11
-0.2513779527559055
21
-0.4372488976377953
0
LINE
8
BLACK
6
CONTINUOUS
10
-0.2513779527559055
20
-0.4372488976377953
11
-0.2577691338582677
21
-0.4400944094488189
0
LINE
8
BLACK
6
CONTINUOUS
10
-0.2577691338582677
20
-0.4400944094488189
11
-0.2646122440944882
21
-0.4415489763779528
0
LINE
8
BLACK
6
CONTINUOUS
10
-0.2646122440944882
20
-0.4415489763779528
11
-0.2716082283464567
21
-0.4415489763779528
0
LINE
8
BLACK
6
CONTINUOUS
10
-0.2716082283464567
20
-0.4415489763779528
11
-0.2784513385826772
21
-0.4400944094488189
0
LINE
8
BLACK
6
CONTINUOUS
10
-0.2784513385826772
20
-0.4400944094488189
11
-0.2848425196850394
21
-0.4372488976377953
0
LINE
8
BLACK
6
CONTINUOUS
10
-0.2848425196850394
20
-0.4372488976377953
11
-0.2905024015748032
21
-0.4331367322834646
0
LINE
8
BLACK
6
CONTINUOUS
10
-0.2905024015748032
20
-0.4331367322834646
11
-0.2951836220472441
21
-0.4279376771653543
0
LINE
8
BLACK
6
CONTINUOUS
10
-0.2951836220472441
20
-0.4279376771653543
11
-0.2986816535433071
21
-0.4218789763779527
0
LINE
8
BLACK
6
CONTINUOUS
10
-0.2986816535433071
20
-0.4218789763779527
11
-0.3008435039370079
21
-0.4152253937007874
0
LINE
8
BLACK
6
CONTINUOUS
10
-0.3008435039370079
20
-0.4152253937007874
11
-0.3015748031496063
21
-0.408267716535433
0
LINE
8
BLACK
6
CONTINUOUS
10
-0.3015748031496063
20
-0.408267716535433
11
-0.3008435039370079
21
-0.4013100393700788
0
LINE
8
BLACK
6
CONTINUOUS
10
-0.3008435039370079
20
-0.4013100393700788
11
-0.2986816535433071
21
-0.3946564566929134
0
LINE
8
BLACK
6
CONTINUOUS
10
-0.2986816535433071
20
-0.3946564566929134
11
-0.2951836220472441
21
-0.3885977559055118
0
LINE
8
BLACK
6
CONTINUOUS
10
-0.2951836220472441
20
-0.3885977559055118
11
-0.2905024015748032
21
-0.3833987007874016
0
LINE
8
BLACK
6
CONTINUOUS
10
-0.2905024015748032
20
-0.3833987007874016
11
-0.2848425196850394
21
-0.3792865354330708
0
LINE
8
BLACK
6
CONTINUOUS
10
-0.2848425196850394
20
-0.3792865354330708
11
-0.2784513385826772
21
-0.3764410236220472
0
LINE
8
BLACK
6
CONTINUOUS
10
-0.2784513385826772
20
-0.3764410236220472
11
-0.2716082283464567
21
-0.3749864566929134
0
LINE
8
BLACK
6
CONTINUOUS
10
-0.2716082283464567
20
-0.3749864566929134
11
-0.2646122440944882
21
-0.3749864566929134
0
LINE
8
BLACK
6
CONTINUOUS
10
-0.2646122440944882
20
-0.3749864566929134
11
-0.2577691338582677
21
-0.3764410236220472
0
LINE
8
BLACK
6
CONTINUOUS
10
-0.1577691338582677
20
-0.3764410236220472
11
-0.1513779527559055
21
-0.3792865354330708
0
LINE
8
BLACK
6
CONTINUOUS
10
-0.1513779527559055
20
-0.3792865354330708
11
-0.1457180708661417
21
-0.3833987007874016
0
LINE
8
BLACK
6
CONTINUOUS
10
-0.1457180708661417
20
-0.3833987007874016
11
-0.1410368503937008
21
-0.3885977559055118
0
LINE
8
BLACK
6
CONTINUOUS
10
-0.1410368503937008
20
-0.3885977559055118
11
-0.1375388188976378
21
-0.3946564566929134
0
LINE
8
BLACK
6
CONTINUOUS
10
-0.1375388188976378
20
-0.3946564566929134
11
-0.135376968503937
21
-0.4013100393700788
0
LINE
8
BLACK
6
CONTINUOUS
10
-0.135376968503937
20
-0.4013100393700788
11
-0.1346456692913386
21
-0.408267716535433
0
LINE
8
BLACK
6
CONTINUOUS
10
-0.1346456692913386
20
-0.408267716535433
11
-0.135376968503937
21
-0.4152253937007874
0
LINE
8
BLACK
6
CONTINUOUS
10
-0.135376968503937
20
-0.4152253937007874
11
-0.1375388188976378
21
-0.4218789763779527
0
LINE
8
BLACK
6
CONTINUOUS
10
-0.1375388188976378
20
-0.4218789763779527
11
-0.1410368503937008
21
-0.4279376771653543
0
LINE
8
BLACK
6
CONTINUOUS
10
-0.1410368503937008
20
-0.4279376771653543
11
-0.1457180708661417
21
-0.4331367322834646
0
LINE
8
BLACK
6
CONTINUOUS
10
-0.1457180708661417
20
-0.4331367322834646
11
-0.1513779527559055
21
-0.4372488976377953
0
LINE
8
BLACK
6
CONTINUOUS
10
-0.1513779527559055
20
-0.4372488976377953
11
-0.1577691338582677
21
-0.4400944094488189
0
LINE
8
BLACK
6
CONTINUOUS
10
-0.1577691338582677
20
-0.4400944094488189
11
-0.1646122440944882
21
-0.4415489763779528
0
LINE
8
BLACK
6
CONTINUOUS
10
-0.1646122440944882
20
-0.4415489763779528
11
-0.1716082283464567
21
-0.4415489763779528
0
LINE
8
BLACK
6
CONTINUOUS
10
-0.1716082283464567
20
-0.4415489763779528
11
-0.1784513385826772
21
-0.4400944094488189
0
LINE
8
BLACK
6
CONTINUOUS
10
-0.1784513385826772
20
-0.4400944094488189
11
-0.1848425196850394
21
-0.4372488976377953
0
LINE
8
BLACK
6
CONTINUOUS
10
-0.1848425196850394
20
-0.4372488976377953
11
-0.1905024015748031
21
-0.4331367322834646
0
LINE
8
BLACK
6
CONTINUOUS
10
-0.1905024015748031
20
-0.4331367322834646
11
-0.1951836220472441
21
-0.4279376771653543
0
LINE
8
BLACK
6
CONTINUOUS
10
-0.1951836220472441
20
-0.4279376771653543
11
-0.1986816535433071
21
-0.4218789763779527
0
LINE
8
BLACK
6
CONTINUOUS
10
-0.1986816535433071
20
-0.4218789763779527
11
-0.2008435039370079
21
-0.4152253937007874
0
LINE
8
BLACK
6
CONTINUOUS
10
-0.2008435039370079
20
-0.4152253937007874
11
-0.2015748031496063
21
-0.408267716535433
0
LINE
8
BLACK
6
CONTINUOUS
10
-0.2015748031496063
20
-0.408267716535433
11
-0.2008435039370079
21
-0.4013100393700788
0
LINE
8
BLACK
6
CONTINUOUS
10
-0.2008435039370079
20
-0.4013100393700788
11
-0.1986816535433071
21
-0.3946564566929134
0
LINE
8
BLACK
6
CONTINUOUS
10
-0.1986816535433071
20
-0.3946564566929134
11
-0.1951836220472441
21
-0.3885977559055118
0
LINE
8
BLACK
6
CONTINUOUS
10
-0.1951836220472441
20
-0.3885977559055118
11
-0.1905024015748031
21
-0.3833987007874016
0
LINE
8
BLACK
6
CONTINUOUS
10
-0.1905024015748031
20
-0.3833987007874016
11
-0.1848425196850394
21
-0.3792865354330708
0
LINE
8
BLACK
6
CONTINUOUS
10
-0.1848425196850394
20
-0.3792865354330708
11
-0.1784513385826772
21
-0.3764410236220472
0
LINE
8
BLACK
6
CONTINUOUS
10
-0.1784513385826772
20
-0.3764410236220472
11
-0.1716082283464567
21
-0.3749864566929134
0
LINE
8
BLACK
6
CONTINUOUS
10
-0.1716082283464567
20
-0.3749864566929134
11
-0.1646122440944882
21
-0.3749864566929134
0
LINE
8
BLACK
6
CONTINUOUS
10
-0.1646122440944882
20
-0.3749864566929134
11
-0.1577691338582677
21
-0.3764410236220472
0
LINE
8
BLACK
6
CONTINUOUS
10
-0.0577691338582677
20
-0.3764410236220472
11
-0.0513779527559055
21
-0.3792865354330708
0
LINE
8
BLACK
6
CONTINUOUS
10
-0.0513779527559055
20
-0.3792865354330708
11
-0.0457180708661417
21
-0.3833987007874016
0
LINE
8
BLACK
6
CONTINUOUS
10
-0.0457180708661417
20
-0.3833987007874016
11
-0.0410368503937008
21
-0.3885977559055118
0
LINE
8
BLACK
6
CONTINUOUS
10
-0.0410368503937008
20
-0.3885977559055118
11
-0.0375388188976378
21
-0.3946564566929134
0
LINE
8
BLACK
6
CONTINUOUS
10
-0.0375388188976378
20
-0.3946564566929134
11
-0.035376968503937
21
-0.4013100393700788
0
LINE
8
BLACK
6
CONTINUOUS
10
-0.035376968503937
20
-0.4013100393700788
11
-0.0346456692913386
21
-0.408267716535433
0
LINE
8
BLACK
6
CONTINUOUS
10
-0.0346456692913386
20
-0.408267716535433
11
-0.035376968503937
21
-0.4152253937007874
0
LINE
8
BLACK
6
CONTINUOUS
10
-0.035376968503937
20
-0.4152253937007874
11
-0.0375388188976378
21
-0.4218789763779527
0
LINE
8
BLACK
6
CONTINUOUS
10
-0.0375388188976378
20
-0.4218789763779527
11
-0.0410368503937008
21
-0.4279376771653543
0
LINE
8
BLACK
6
CONTINUOUS
10
-0.0410368503937008
20
-0.4279376771653543
11
-0.0457180708661417
21
-0.4331367322834646
0
LINE
8
BLACK
6
CONTINUOUS
10
-0.0457180708661417
20
-0.4331367322834646
11
-0.0513779527559055
21
-0.4372488976377953
0
LINE
8
BLACK
6
CONTINUOUS
10
-0.0513779527559055
20
-0.4372488976377953
11
-0.0577691338582677
21
-0.4400944094488189
0
LINE
8
BLACK
6
CONTINUOUS
10
-0.0577691338582677
20
-0.4400944094488189
11
-0.0646122440944882
21
-0.4415489763779528
0
LINE
8
BLACK
6
CONTINUOUS
10
-0.0646122440944882
20
-0.4415489763779528
11
-0.0716082283464567
21
-0.4415489763779528
0
LINE
8
BLACK
6
CONTINUOUS
10
-0.0716082283464567
20
-0.4415489763779528
11
-0.0784513385826772
21
-0.4400944094488189
0
LINE
8
BLACK
6
CONTINUOUS
10
-0.0784513385826772
20
-0.4400944094488189
11
-0.0848425196850394
21
-0.4372488976377953
0
LINE
8
BLACK
6
CONTINUOUS
10
-0.0848425196850394
20
-0.4372488976377953
11
-0.0905024015748031
21
-0.4331367322834646
0
LINE
8
BLACK
6
CONTINUOUS
10
-0.0905024015748031
20
-0.4331367322834646
11
-0.0951836220472441
21
-0.4279376771653543
0
LINE
8
BLACK
6
CONTINUOUS
10
-0.0951836220472441
20
-0.4279376771653543
11
-0.0986816535433071
21
-0.4218789763779527
0
LINE
8
BLACK
6
CONTINUOUS
10
-0.0986816535433071
20
-0.4218789763779527
11
-0.1008435039370079
21
-0.4152253937007874
0
LINE
8
BLACK
6
CONTINUOUS
10
-0.1008435039370079
20
-0.4152253937007874
11
-0.1015748031496063
21
-0.408267716535433
0
LINE
8
BLACK
6
CONTINUOUS
10
-0.1015748031496063
20
-0.408267716535433
11
-0.1008435039370079
21
-0.4013100393700788
0
LINE
8
BLACK
6
CONTINUOUS
10
-0.1008435039370079
20
-0.4013100393700788
11
-0.0986816535433071
21
-0.3946564566929134
0
LINE
8
BLACK
6
CONTINUOUS
10
-0.0986816535433071
20
-0.3946564566929134
11
-0.0951836220472441
21
-0.3885977559055118
0
LINE
8
BLACK
6
CONTINUOUS
10
-0.0951836220472441
20
-0.3885977559055118
11
-0.0905024015748031
21
-0.3833987007874016
0
LINE
8
BLACK
6
CONTINUOUS
10
-0.0905024015748031
20
-0.3833987007874016
11
-0.0848425196850394
21
-0.3792865354330708
0
LINE
8
BLACK
6
CONTINUOUS
10
-0.0848425196850394
20
-0.3792865354330708
11
-0.0784513385826772
21
-0.3764410236220472
0
LINE
8
BLACK
6
CONTINUOUS
10
-0.0784513385826772
20
-0.3764410236220472
11
-0.0716082283464567
21
-0.3749864566929134
0
LINE
8
BLACK
6
CONTINUOUS
10
-0.0716082283464567
20
-0.3749864566929134
11
-0.0646122440944882
21
-0.3749864566929134
0
LINE
8
BLACK
6
CONTINUOUS
10
-0.0646122440944882
20
-0.3749864566929134
11
-0.0577691338582677
21
-0.3764410236220472
0
LINE
8
BLACK
6
CONTINUOUS
10
-0.5814588582677165
20
0.9182843700787401
11
-0.5680940944881889
21
0.9151168897637795
0
LINE
8
BLACK
6
CONTINUOUS
10
-0.5680940944881889
20
0.9151168897637795
11
-0.5551874409448819
21
0.9104192125984252
0
LINE
8
BLACK
6
CONTINUOUS
10
-0.5551874409448819
20
0.9104192125984252
11
-0.5429133858267716
21
0.9042549606299213
0
LINE
8
BLACK
6
CONTINUOUS
10
-0.5429133858267716
20
0.9042549606299213
11
-0.5314379527559056
21
0.8967074803149606
0
LINE
8
BLACK
6
CONTINUOUS
10
-0.5314379527559056
20
0.8967074803149606
11
-0.5209163385826772
21
0.887878779527559
0
LINE
8
BLACK
6
CONTINUOUS
10
-0.5209163385826772
20
0.887878779527559
11
-0.5114908267716536
21
0.8778883070866141
0
LINE
8
BLACK
6
CONTINUOUS
10
-0.5114908267716536
20
0.8778883070866141
11
-0.5032888582677165
21
0.8668711417322834
0
LINE
8
BLACK
6
CONTINUOUS
10
-0.5032888582677165
20
0.8668711417322834
11
-0.4964213385826772
21
0.8549762992125984
0
LINE
8
BLACK
6
CONTINUOUS
10
-0.4964213385826772
20
0.8549762992125984
11
-0.4909811811023622
21
0.8423645669291339
0
LINE
8
BLACK
6
CONTINUOUS
10
-0.4909811811023622
20
0.8423645669291339
11
-0.4870419291338582
21
0.8292066141732283
0
LINE
8
BLACK
6
CONTINUOUS
10
-0.4870419291338582
20
0.8292066141732283
11
-0.4846568897637795
21
0.8156802755905511
0
LINE
8
BLACK
6
CONTINUOUS
10
-0.4846568897637795
20
0.8156802755905511
11
-0.4838582677165354
21
0.8019685039370078
0
LINE
8
BLACK
6
CONTINUOUS
10
-0.4838582677165354
20
0.8019685039370078
11
-0.4846568897637795
21
0.7882567322834646
0
LINE
8
BLACK
6
CONTINUOUS
10
-0.4846568897637795
20
0.7882567322834646
11
-0.4870419291338582
21
0.7747303937007873
0
LINE
8
BLACK
6
CONTINUOUS
10
-0.4870419291338582
20
0.7747303937007873
11
-0.4909811811023622
21
0.7615724409448819
0
LINE
8
BLACK
6
CONTINUOUS
10
-0.4909811811023622
20
0.7615724409448819
11
-0.4964213385826772
21
0.7489607086614173
0
LINE
8
BLACK
6
CONTINUOUS
10
-0.4964213385826772
20
0.7489607086614173
11
-0.5032888582677165
21
0.7370658661417323
0
LINE
8
BLACK
6
CONTINUOUS
10
-0.5032888582677165
20
0.7370658661417323
11
-0.5114908267716536
21
0.7260487007874016
0
LINE
8
BLACK
6
CONTINUOUS
10
-0.5114908267716536
20
0.7260487007874016
11
-0.5209163385826772
21
0.7160582283464567
0
LINE
8
BLACK
6
CONTINUOUS
10
-0.5209163385826772
20
0.7160582283464567
11
-0.5314379527559056
21
0.7072295275590551
0
LINE
8
BLACK
6
CONTINUOUS
10
-0.5314379527559056
20
0.7072295275590551
11
-0.5429133858267716
21
0.6996820472440944
0
LINE
8
BLACK
6
CONTINUOUS
10
-0.5429133858267716
20
0.6996820472440944
11
-0.5551874409448819
21
0.6935177952755905
0
LINE
8
BLACK
6
CONTINUOUS
10
-0.5551874409448819
20
0.6935177952755905
11
-0.5680940944881889
21
0.6888201181102362
0
LINE
8
BLACK
6
CONTINUOUS
10
-0.5680940944881889
20
0.6888201181102362
11
-0.5814588582677165
21
0.6856526377952755
0
LINE
8
BLACK
6
CONTINUOUS
10
-0.5814588582677165
20
0.6856526377952755
11
-0.5951010236220472
21
0.6840581102362204
0
LINE
8
BLACK
6
CONTINUOUS
10
-0.5951010236220472
20
0.6840581102362204
11
-0.6088359842519685
21
0.6840581102362204
0
LINE
8
BLACK
6
CONTINUOUS
10
-0.6088359842519685
20
0.6840581102362204
11
-0.6224781496062992
21
0.6856526377952755
0
LINE
8
BLACK
6
CONTINUOUS
10
-0.6224781496062992
20
0.6856526377952755
11
-0.6358429133858268
21
0.6888201181102362
0
LINE
8
BLACK
6
CONTINUOUS
10
-0.6358429133858268
20
0.6888201181102362
11
-0.6487495669291339
21
0.6935177952755905
0
LINE
8
BLACK
6
CONTINUOUS
10
-0.6487495669291339
20
0.6935177952755905
11
-0.6610236220472441
21
0.6996820472440944
0
LINE
8
BLACK
6
CONTINUOUS
10
-0.6610236220472441
20
0.6996820472440944
11
-0.6724990551181103
21
0.7072295275590551
0
LINE
8
BLACK
6
CONTINUOUS
10
-0.6724990551181103
20
0.7072295275590551
11
-0.6830206692913385
21
0.7160582283464567
0
LINE
8
BLACK
6
CONTINUOUS
10
-0.6830206692913385
20
0.7160582283464567
11
-0.6924461811023622
21
0.7260487007874016
0
LINE
8
BLACK
6
CONTINUOUS
10
-0.6924461811023622
20
0.7260487007874016
11
-0.7006481496062992
21
0.7370658661417323
0
LINE
8
BLACK
6
CONTINUOUS
10
-0.7006481496062992
20
0.7370658661417323
11
-0.7075156692913386
21
0.7489607086614173
0
LINE
8
BLACK
6
CONTINUOUS
10
-0.7075156692913386
20
0.7489607086614173
11
-0.7129558267716535
21
0.7615724409448819
0
LINE
8
BLACK
6
CONTINUOUS
10
-0.7129558267716535
20
0.7615724409448819
11
-0.7168950787401575
21
0.7747303937007873
0
LINE
8
BLACK
6
CONTINUOUS
10
-0.7168950787401575
20
0.7747303937007873
11
-0.7192801181102362
21
0.7882567322834646
0
LINE
8
BLACK
6
CONTINUOUS
10
-0.7192801181102362
20
0.7882567322834646
11
-0.7200787401574803
21
0.8019685039370078
0
LINE
8
BLACK
6
CONTINUOUS
10
-0.7200787401574803
20
0.8019685039370078
11
-0.7192801181102362
21
0.8156802755905511
0
LINE
8
BLACK
6
CONTINUOUS
10
-0.7192801181102362
20
0.8156802755905511
11
-0.7168950787401575
21
0.8292066141732283
0
LINE
8
BLACK
6
CONTINUOUS
10
-0.7168950787401575
20
0.8292066141732283
11
-0.7129558267716535
21
0.8423645669291339
0
LINE
8
BLACK
6
CONTINUOUS
10
-0.7129558267716535
20
0.8423645669291339
11
-0.7075156692913386
21
0.8549762992125984
0
LINE
8
BLACK
6
CONTINUOUS
10
-0.7075156692913386
20
0.8549762992125984
11
-0.7006481496062992
21
0.8668711417322834
0
LINE
8
BLACK
6
CONTINUOUS
10
-0.7006481496062992
20
0.8668711417322834
11
-0.6924461811023622
21
0.8778883070866141
0
LINE
8
BLACK
6
CONTINUOUS
10
-0.6924461811023622
20
0.8778883070866141
11
-0.6830206692913385
21
0.887878779527559
0
LINE
8
BLACK
6
CONTINUOUS
10
-0.6830206692913385
20
0.887878779527559
11
-0.6724990551181103
21
0.8967074803149606
0
LINE
8
BLACK
6
CONTINUOUS
10
-0.6724990551181103
20
0.8967074803149606
11
-0.6610236220472441
21
0.9042549606299213
0
LINE
8
BLACK
6
CONTINUOUS
10
-0.6610236220472441
20
0.9042549606299213
11
-0.6487495669291339
21
0.9104192125984252
0
LINE
8
BLACK
6
CONTINUOUS
10
-0.6487495669291339
20
0.9104192125984252
11
-0.6358429133858268
21
0.9151168897637795
0
LINE
8
BLACK
6
CONTINUOUS
10
-0.6358429133858268
20
0.9151168897637795
11
-0.6224781496062992
21
0.9182843700787401
0
LINE
8
BLACK
6
CONTINUOUS
10
-0.6224781496062992
20
0.9182843700787401
11
-0.6088359842519685
21
0.9198788976377953
0
LINE
8
BLACK
6
CONTINUOUS
10
-0.6088359842519685
20
0.9198788976377953
11
-0.5951010236220472
21
0.9198788976377953
0
LINE
8
BLACK
6
CONTINUOUS
10
-0.5951010236220472
20
0.9198788976377953
11
-0.5814588582677165
21
0.9182843700787401
0
LINE
8
BLACK
6
CONTINUOUS
10
0.6185411417322835
20
0.9182843700787401
11
0.631905905511811
21
0.9151168897637795
0
LINE
8
BLACK
6
CONTINUOUS
10
0.631905905511811
20
0.9151168897637795
11
0.6448125590551181
21
0.9104192125984252
0
LINE
8
BLACK
6
CONTINUOUS
10
0.6448125590551181
20
0.9104192125984252
11
0.6570866141732283
21
0.9042549606299213
0
LINE
8
BLACK
6
CONTINUOUS
10
0.6570866141732283
20
0.9042549606299213
11
0.6685620472440945
21
0.8967074803149606
0
LINE
8
BLACK
6
CONTINUOUS
10
0.6685620472440945
20
0.8967074803149606
11
0.6790836614173228
21
0.887878779527559
0
LINE
8
BLACK
6
CONTINUOUS
10
0.6790836614173228
20
0.887878779527559
11
0.6885091732283465
21
0.8778883070866141
0
LINE
8
BLACK
6
CONTINUOUS
10
0.6885091732283465
20
0.8778883070866141
11
0.6967111417322834
21
0.8668711417322834
0
LINE
8
BLACK
6
CONTINUOUS
10
0.6967111417322834
20
0.8668711417322834
11
0.7035786614173228
21
0.8549762992125984
0
LINE
8
BLACK
6
CONTINUOUS
10
0.7035786614173228
20
0.8549762992125984
11
0.7090188188976377
21
0.8423645669291339
0
LINE
8
BLACK
6
CONTINUOUS
10
0.7090188188976377
20
0.8423645669291339
11
0.7129580708661417
21
0.8292066141732283
0
LINE
8
BLACK
6
CONTINUOUS
10
0.7129580708661417
20
0.8292066141732283
11
0.7153431102362204
21
0.8156802755905511
0
LINE
8
BLACK
6
CONTINUOUS
10
0.7153431102362204
20
0.8156802755905511
11
0.7161417322834646
21
0.8019685039370078
0
LINE
8
BLACK
6
CONTINUOUS
10
0.7161417322834646
20
0.8019685039370078
11
0.7153431102362204
21
0.7882567322834646
0
LINE
8
BLACK
6
CONTINUOUS
10
0.7153431102362204
20
0.7882567322834646
11
0.7129580708661417
21
0.7747303937007873
0
LINE
8
BLACK
6
CONTINUOUS
10
0.7129580708661417
20
0.7747303937007873
11
0.7090188188976377
21
0.7615724409448819
0
LINE
8
BLACK
6
CONTINUOUS
10
0.7090188188976377
20
0.7615724409448819
11
0.7035786614173228
21
0.7489607086614173
0
LINE
8
BLACK
6
CONTINUOUS
10
0.7035786614173228
20
0.7489607086614173
11
0.6967111417322834
21
0.7370658661417323
0
LINE
8
BLACK
6
CONTINUOUS
10
0.6967111417322834
20
0.7370658661417323
11
0.6885091732283465
21
0.7260487007874016
0
LINE
8
BLACK
6
CONTINUOUS
10
0.6885091732283465
20
0.7260487007874016
11
0.6790836614173228
21
0.7160582283464567
0
LINE
8
BLACK
6
CONTINUOUS
10
0.6790836614173228
20
0.7160582283464567
11
0.6685620472440945
21
0.7072295275590551
0
LINE
8
BLACK
6
CONTINUOUS
10
0.6685620472440945
20
0.7072295275590551
11
0.6570866141732283
21
0.6996820472440944
0
LINE
8
BLACK
6
CONTINUOUS
10
0.6570866141732283
20
0.6996820472440944
11
0.6448125590551181
21
0.6935177952755905
0
LINE
8
BLACK
6
CONTINUOUS
10
0.6448125590551181
20
0.6935177952755905
11
0.631905905511811
21
0.6888201181102362
0
LINE
8
BLACK
6
CONTINUOUS
10
0.631905905511811
20
0.6888201181102362
11
0.6185411417322835
21
0.6856526377952755
0
LINE
8
BLACK
6
CONTINUOUS
10
0.6185411417322835
20
0.6856526377952755
11
0.6048989763779528
21
0.6840581102362204
0
LINE
8
BLACK
6
CONTINUOUS
10
0.6048989763779528
20
0.6840581102362204
11
0.5911640157480315
21
0.6840581102362204
0
LINE
8
BLACK
6
CONTINUOUS
10
0.5911640157480315
20
0.6840581102362204
11
0.5775218503937007
21
0.6856526377952755
0
LINE
8
BLACK
6
CONTINUOUS
10
0.5775218503937007
20
0.6856526377952755
11
0.5641570866141732
21
0.6888201181102362
0
LINE
8
BLACK
6
CONTINUOUS
10
0.5641570866141732
20
0.6888201181102362
11
0.5512504330708661
21
0.6935177952755905
0
LINE
8
BLACK
6
CONTINUOUS
10
0.5512504330708661
20
0.6935177952755905
11
0.5389763779527559
21
0.6996820472440944
0
LINE
8
BLACK
6
CONTINUOUS
10
0.5389763779527559
20
0.6996820472440944
11
0.5275009448818897
21
0.7072295275590551
0
LINE
8
BLACK
6
CONTINUOUS
10
0.5275009448818897
20
0.7072295275590551
11
0.5169793307086614
21
0.7160582283464567
0
LINE
8
BLACK
6
CONTINUOUS
10
0.5169793307086614
20
0.7160582283464567
11
0.5075538188976377
21
0.7260487007874016
0
LINE
8
BLACK
6
CONTINUOUS
10
0.5075538188976377
20
0.7260487007874016
11
0.4993518503937008
21
0.7370658661417323
0
LINE
8
BLACK
6
CONTINUOUS
10
0.4993518503937008
20
0.7370658661417323
11
0.4924843307086614
21
0.7489607086614173
0
LINE
8
BLACK
6
CONTINUOUS
10
0.4924843307086614
20
0.7489607086614173
11
0.4870441732283464
21
0.7615724409448819
0
LINE
8
BLACK
6
CONTINUOUS
10
0.4870441732283464
20
0.7615724409448819
11
0.4831049212598425
21
0.7747303937007873
0
LINE
8
BLACK
6
CONTINUOUS
10
0.4831049212598425
20
0.7747303937007873
11
0.4807198818897638
21
0.7882567322834646
0
LINE
8
BLACK
6
CONTINUOUS
10
0.4807198818897638
20
0.7882567322834646
11
0.4799212598425197
21
0.8019685039370078
0
LINE
8
BLACK
6
CONTINUOUS
10
0.4799212598425197
20
0.8019685039370078
11
0.4807198818897638
21
0.8156802755905511
0
LINE
8
BLACK
6
CONTINUOUS
10
0.4807198818897638
20
0.8156802755905511
11
0.4831049212598425
21
0.8292066141732283
0
LINE
8
BLACK
6
CONTINUOUS
10
0.4831049212598425
20
0.8292066141732283
11
0.4870441732283464
21
0.8423645669291339
0
LINE
8
BLACK
6
CONTINUOUS
10
0.4870441732283464
20
0.8423645669291339
11
0.4924843307086614
21
0.8549762992125984
0
LINE
8
BLACK
6
CONTINUOUS
10
0.4924843307086614
20
0.8549762992125984
11
0.4993518503937008
21
0.8668711417322834
0
LINE
8
BLACK
6
CONTINUOUS
10
0.4993518503937008
20
0.8668711417322834
11
0.5075538188976377
21
0.8778883070866141
0
LINE
8
BLACK
6
CONTINUOUS
10
0.5075538188976377
20
0.8778883070866141
11
0.5169793307086614
21
0.887878779527559
0
LINE
8
BLACK
6
CONTINUOUS
10
0.5169793307086614
20
0.887878779527559
11
0.5275009448818897
21
0.8967074803149606
0
LINE
8
BLACK
6
CONTINUOUS
10
0.5275009448818897
20
0.8967074803149606
11
0.5389763779527559
21
0.9042549606299213
0
LINE
8
BLACK
6
CONTINUOUS
10
0.5389763779527559
20
0.9042549606299213
11
0.5512504330708661
21
0.9104192125984252
0
LINE
8
BLACK
6
CONTINUOUS
10
0.5512504330708661
20
0.9104192125984252
11
0.5641570866141732
21
0.9151168897637795
0
LINE
8
BLACK
6
CONTINUOUS
10
0.5641570866141732
20
0.9151168897637795
11
0.5775218503937007
21
0.9182843700787401
0
LINE
8
BLACK
6
CONTINUOUS
10
0.5775218503937007
20
0.9182843700787401
11
0.5911640157480315
21
0.9198788976377953
0
LINE
8
BLACK
6
CONTINUOUS
10
0.5911640157480315
20
0.9198788976377953
11
0.6048989763779528
21
0.9198788976377953
0
LINE
8
BLACK
6
CONTINUOUS
10
0.6048989763779528
20
0.9198788976377953
11
0.6185411417322835
21
0.9182843700787401
  0
ENDSEC
  0
EOF
