  0
SECTION
  2
HEADER
  9
$ANGBASE
  50
0.0
  9
$ANGDIR
  70
1
  9
$MEASUREMENT
  70
0
  0
ENDSEC
  0
SECTION
  2
TABLES
  0
TABLE
  2
LTYPE
  70
4
  0
LTYPE
  5
40F
  2
CONTINUOUS
  70
0
  3
Solid line
  72
65
  73
0
  40
0.0
  0
LTYPE
  5
410
  2
DASHDOT
 70
0
  3
Dash Dot ____ _ ____ _
 72
65
 73
4
 40
2.0
 49
1.25
 49
-0.25
 49
0.25
 49
-0.25
  0
LTYPE
  5
411
  2
DASHED
 70
0
  3
Dashed __ __ __ __ __
 72
65
 73
2
 40
0.75
 49
0.5
 49
-0.25
  0
LTYPE
  5
43B
  2
DOTTED
 70
0
  3
Dotted .  .  .  .
 72
65
 73
2
 40
0.2
 49
0.0
 49
-0.2
  0
ENDTAB
  0
TABLE
  2
STYLE
  70
4
  0
STYLE
  2
KICAD
  70
0
  40
0
  41
1
  42
1
  50
0
  71
0
  3
isocp.shx
  0
STYLE
  2
KICADB
  70
0
  40
0
  41
1
  42
1
  50
0
  71
0
  3
isocp.shx
  0
STYLE
  2
KICADI
  70
0
  40
0
  41
1
  42
1
  50
15
  71
0
  3
isocp.shx
  0
STYLE
  2
KICADBI
  70
0
  40
0
  41
1
  42
1
  50
15
  71
0
  3
isocp.shx
  0
ENDTAB
  0
TABLE
  2
LAYER
  70
1
  0
LAYER
  2
BLACK
  70
0
  62
7
  6
CONTINUOUS
  0
ENDTAB
  0
ENDSEC
  0
SECTION
  2
ENTITIES
0
LINE
8
BLACK
6
CONTINUOUS
10
0.3716535433070866
20
0.746259842519685
11
0.3810457874015748
21
0.7455206692913385
0
LINE
8
BLACK
6
CONTINUOUS
10
0.3810457874015748
20
0.7455206692913385
11
0.3902067322834646
21
0.7433212992125984
0
LINE
8
BLACK
6
CONTINUOUS
10
0.3902067322834646
20
0.7433212992125984
11
0.3989108661417323
21
0.7397159448818897
0
LINE
8
BLACK
6
CONTINUOUS
10
0.3989108661417323
20
0.7397159448818897
11
0.4069438188976378
21
0.7347933464566929
0
LINE
8
BLACK
6
CONTINUOUS
10
0.4069438188976378
20
0.7347933464566929
11
0.4141077952755906
21
0.7286747244094488
0
LINE
8
BLACK
6
CONTINUOUS
10
0.4141077952755906
20
0.7286747244094488
11
0.4202264173228346
21
0.7215107480314961
0
LINE
8
BLACK
6
CONTINUOUS
10
0.4202264173228346
20
0.7215107480314961
11
0.4251490157480315
21
0.7134777952755905
0
LINE
8
BLACK
6
CONTINUOUS
10
0.4251490157480315
20
0.7134777952755905
11
0.4287543700787401
21
0.7047736614173228
0
LINE
8
BLACK
6
CONTINUOUS
10
0.4287543700787401
20
0.7047736614173228
11
0.4309537401574803
21
0.6956127165354331
0
LINE
8
BLACK
6
CONTINUOUS
10
0.4309537401574803
20
0.6956127165354331
11
0.4316929133858268
21
0.6862204724409449
0
LINE
8
BLACK
6
CONTINUOUS
10
0.4316929133858268
20
0.6862204724409449
11
0.4309537401574803
21
0.6768282283464567
0
LINE
8
BLACK
6
CONTINUOUS
10
0.4309537401574803
20
0.6768282283464567
11
0.4287543700787401
21
0.6676672834645669
0
LINE
8
BLACK
6
CONTINUOUS
10
0.4287543700787401
20
0.6676672834645669
11
0.4251490157480315
21
0.6589631496062992
0
LINE
8
BLACK
6
CONTINUOUS
10
0.4251490157480315
20
0.6589631496062992
11
0.4202264173228346
21
0.6509301968503937
0
LINE
8
BLACK
6
CONTINUOUS
10
0.4202264173228346
20
0.6509301968503937
11
0.4141077952755906
21
0.6437662204724409
0
LINE
8
BLACK
6
CONTINUOUS
10
0.4141077952755906
20
0.6437662204724409
11
0.4069438188976378
21
0.6376475984251968
0
LINE
8
BLACK
6
CONTINUOUS
10
0.4069438188976378
20
0.6376475984251968
11
0.3989108661417323
21
0.632725
0
LINE
8
BLACK
6
CONTINUOUS
10
0.3989108661417323
20
0.632725
11
0.3902067322834646
21
0.6291196456692913
0
LINE
8
BLACK
6
CONTINUOUS
10
0.3902067322834646
20
0.6291196456692913
11
0.3810457874015748
21
0.6269202755905512
0
LINE
8
BLACK
6
CONTINUOUS
10
0.3810457874015748
20
0.6269202755905512
11
0.3716535433070866
21
0.6261811023622047
0
LINE
8
BLACK
6
CONTINUOUS
10
0.3716535433070866
20
0.6261811023622047
11
-0.3763779527559055
21
0.6261811023622047
0
LINE
8
BLACK
6
CONTINUOUS
10
-0.3763779527559055
20
0.6261811023622047
11
-0.3857701968503937
21
0.6269202755905512
0
LINE
8
BLACK
6
CONTINUOUS
10
-0.3857701968503937
20
0.6269202755905512
11
-0.3949311417322834
21
0.6291196456692913
0
LINE
8
BLACK
6
CONTINUOUS
10
-0.3949311417322834
20
0.6291196456692913
11
-0.4036352755905512
21
0.632725
0
LINE
8
BLACK
6
CONTINUOUS
10
-0.4036352755905512
20
0.632725
11
-0.4116682283464567
21
0.6376475984251968
0
LINE
8
BLACK
6
CONTINUOUS
10
-0.4116682283464567
20
0.6376475984251968
11
-0.4188322047244095
21
0.6437662204724409
0
LINE
8
BLACK
6
CONTINUOUS
10
-0.4188322047244095
20
0.6437662204724409
11
-0.4249508267716535
21
0.6509301968503937
0
LINE
8
BLACK
6
CONTINUOUS
10
-0.4249508267716535
20
0.6509301968503937
11
-0.4298734251968504
21
0.6589631496062992
0
LINE
8
BLACK
6
CONTINUOUS
10
-0.4298734251968504
20
0.6589631496062992
11
-0.433478779527559
21
0.6676672834645669
0
LINE
8
BLACK
6
CONTINUOUS
10
-0.433478779527559
20
0.6676672834645669
11
-0.4356781496062992
21
0.6768282283464567
0
LINE
8
BLACK
6
CONTINUOUS
10
-0.4356781496062992
20
0.6768282283464567
11
-0.4364173228346457
21
0.6862204724409449
0
LINE
8
BLACK
6
CONTINUOUS
10
-0.4364173228346457
20
0.6862204724409449
11
-0.4356781496062992
21
0.6956127165354331
0
LINE
8
BLACK
6
CONTINUOUS
10
-0.4356781496062992
20
0.6956127165354331
11
-0.433478779527559
21
0.7047736614173228
0
LINE
8
BLACK
6
CONTINUOUS
10
-0.433478779527559
20
0.7047736614173228
11
-0.4298734251968504
21
0.7134777952755905
0
LINE
8
BLACK
6
CONTINUOUS
10
-0.4298734251968504
20
0.7134777952755905
11
-0.4249508267716535
21
0.7215107480314961
0
LINE
8
BLACK
6
CONTINUOUS
10
-0.4249508267716535
20
0.7215107480314961
11
-0.4188322047244095
21
0.7286747244094488
0
LINE
8
BLACK
6
CONTINUOUS
10
-0.4188322047244095
20
0.7286747244094488
11
-0.4116682283464567
21
0.7347933464566929
0
LINE
8
BLACK
6
CONTINUOUS
10
-0.4116682283464567
20
0.7347933464566929
11
-0.4036352755905512
21
0.7397159448818897
0
LINE
8
BLACK
6
CONTINUOUS
10
-0.4036352755905512
20
0.7397159448818897
11
-0.3949311417322834
21
0.7433212992125984
0
LINE
8
BLACK
6
CONTINUOUS
10
-0.3949311417322834
20
0.7433212992125984
11
-0.3857701968503937
21
0.7455206692913385
0
LINE
8
BLACK
6
CONTINUOUS
10
-0.3857701968503937
20
0.7455206692913385
11
-0.3763779527559055
21
0.746259842519685
0
LINE
8
BLACK
6
CONTINUOUS
10
-0.3763779527559055
20
0.746259842519685
11
0.3716535433070866
21
0.746259842519685
0
LINE
8
BLACK
6
CONTINUOUS
10
-0.3763779527559055
20
0.7442913385826772
11
-0.3809482283464567
21
0.7442913385826772
0
LINE
8
BLACK
6
CONTINUOUS
10
-0.3809482283464567
20
0.7442913385826772
11
-0.3899762598425197
21
0.7428614566929134
0
LINE
8
BLACK
6
CONTINUOUS
10
-0.3899762598425197
20
0.7428614566929134
11
-0.3986694094488189
21
0.7400368503937008
0
LINE
8
BLACK
6
CONTINUOUS
10
-0.3986694094488189
20
0.7400368503937008
11
-0.4068137007874016
21
0.735887125984252
0
LINE
8
BLACK
6
CONTINUOUS
10
-0.4068137007874016
20
0.735887125984252
11
-0.4142085826771654
21
0.7305144488188976
0
LINE
8
BLACK
6
CONTINUOUS
10
-0.4142085826771654
20
0.7305144488188976
11
-0.4206719291338583
21
0.7240511023622047
0
LINE
8
BLACK
6
CONTINUOUS
10
-0.4206719291338583
20
0.7240511023622047
11
-0.4260446062992126
21
0.7166562204724409
0
LINE
8
BLACK
6
CONTINUOUS
10
-0.4260446062992126
20
0.7166562204724409
11
-0.4301943307086614
21
0.7085119291338583
0
LINE
8
BLACK
6
CONTINUOUS
10
-0.4301943307086614
20
0.7085119291338583
11
-0.433018937007874
21
0.699818779527559
0
LINE
8
BLACK
6
CONTINUOUS
10
-0.433018937007874
20
0.699818779527559
11
-0.4344488188976378
21
0.6907907480314961
0
LINE
8
BLACK
6
CONTINUOUS
10
-0.4344488188976378
20
0.6907907480314961
11
-0.4344488188976378
21
0.6816501968503936
0
LINE
8
BLACK
6
CONTINUOUS
10
-0.4344488188976378
20
0.6816501968503936
11
-0.433018937007874
21
0.6726221653543307
0
LINE
8
BLACK
6
CONTINUOUS
10
-0.433018937007874
20
0.6726221653543307
11
-0.4301943307086614
21
0.6639290157480314
0
LINE
8
BLACK
6
CONTINUOUS
10
-0.4301943307086614
20
0.6639290157480314
11
-0.4260446062992126
21
0.6557847244094488
0
LINE
8
BLACK
6
CONTINUOUS
10
-0.4260446062992126
20
0.6557847244094488
11
-0.4206719291338583
21
0.648389842519685
0
LINE
8
BLACK
6
CONTINUOUS
10
-0.4206719291338583
20
0.648389842519685
11
-0.4142085826771654
21
0.6419264960629921
0
LINE
8
BLACK
6
CONTINUOUS
10
-0.4142085826771654
20
0.6419264960629921
11
-0.4068137007874016
21
0.6365538188976377
0
LINE
8
BLACK
6
CONTINUOUS
10
-0.4068137007874016
20
0.6365538188976377
11
-0.3986694094488189
21
0.632404094488189
0
LINE
8
BLACK
6
CONTINUOUS
10
-0.3986694094488189
20
0.632404094488189
11
-0.3899762598425197
21
0.6295794881889764
0
LINE
8
BLACK
6
CONTINUOUS
10
-0.3899762598425197
20
0.6295794881889764
11
-0.3809482283464567
21
0.6281496062992126
0
LINE
8
BLACK
6
CONTINUOUS
10
-0.3809482283464567
20
0.6281496062992126
11
-0.3763779527559055
21
0.6281496062992126
0
LINE
8
BLACK
6
CONTINUOUS
10
-0.3763779527559055
20
0.6281496062992126
11
0.3716535433070866
21
0.6281496062992126
0
LINE
8
BLACK
6
CONTINUOUS
10
0.3716535433070866
20
0.6281496062992126
11
0.3762238188976378
21
0.6281496062992126
0
LINE
8
BLACK
6
CONTINUOUS
10
0.3762238188976378
20
0.6281496062992126
11
0.3852518503937008
21
0.6295794881889764
0
LINE
8
BLACK
6
CONTINUOUS
10
0.3852518503937008
20
0.6295794881889764
11
0.393945
21
0.632404094488189
0
LINE
8
BLACK
6
CONTINUOUS
10
0.393945
20
0.632404094488189
11
0.4020892913385827
21
0.6365538188976377
0
LINE
8
BLACK
6
CONTINUOUS
10
0.4020892913385827
20
0.6365538188976377
11
0.4094841732283465
21
0.6419264960629921
0
LINE
8
BLACK
6
CONTINUOUS
10
0.4094841732283465
20
0.6419264960629921
11
0.4159475196850393
21
0.648389842519685
0
LINE
8
BLACK
6
CONTINUOUS
10
0.4159475196850393
20
0.648389842519685
11
0.4213201968503937
21
0.6557847244094488
0
LINE
8
BLACK
6
CONTINUOUS
10
0.4213201968503937
20
0.6557847244094488
11
0.4254699212598425
21
0.6639290157480314
0
LINE
8
BLACK
6
CONTINUOUS
10
0.4254699212598425
20
0.6639290157480314
11
0.4282945275590551
21
0.6726221653543307
0
LINE
8
BLACK
6
CONTINUOUS
10
0.4282945275590551
20
0.6726221653543307
11
0.4297244094488189
21
0.6816501968503936
0
LINE
8
BLACK
6
CONTINUOUS
10
0.4297244094488189
20
0.6816501968503936
11
0.4297244094488189
21
0.6907907480314961
0
LINE
8
BLACK
6
CONTINUOUS
10
0.4297244094488189
20
0.6907907480314961
11
0.4282945275590551
21
0.699818779527559
0
LINE
8
BLACK
6
CONTINUOUS
10
0.4282945275590551
20
0.699818779527559
11
0.4254699212598425
21
0.7085119291338583
0
LINE
8
BLACK
6
CONTINUOUS
10
0.4254699212598425
20
0.7085119291338583
11
0.4213201968503937
21
0.7166562204724409
0
LINE
8
BLACK
6
CONTINUOUS
10
0.4213201968503937
20
0.7166562204724409
11
0.4159475196850393
21
0.7240511023622047
0
LINE
8
BLACK
6
CONTINUOUS
10
0.4159475196850393
20
0.7240511023622047
11
0.4094841732283465
21
0.7305144488188976
0
LINE
8
BLACK
6
CONTINUOUS
10
0.4094841732283465
20
0.7305144488188976
11
0.4020892913385827
21
0.735887125984252
0
LINE
8
BLACK
6
CONTINUOUS
10
0.4020892913385827
20
0.735887125984252
11
0.393945
21
0.7400368503937008
0
LINE
8
BLACK
6
CONTINUOUS
10
0.393945
20
0.7400368503937008
11
0.3852518503937008
21
0.7428614566929134
0
LINE
8
BLACK
6
CONTINUOUS
10
0.3852518503937008
20
0.7428614566929134
11
0.3762238188976378
21
0.7442913385826772
0
LINE
8
BLACK
6
CONTINUOUS
10
0.3762238188976378
20
0.7442913385826772
11
0.3716535433070866
21
0.7442913385826772
0
LINE
8
BLACK
6
CONTINUOUS
10
0.3716535433070866
20
0.7442913385826772
11
-0.3763779527559055
21
0.7442913385826772
0
LINE
8
BLACK
6
CONTINUOUS
10
0.7885656299212598
20
0.9930353149606299
11
0.7890983070866141
21
0.9925026377952756
0
LINE
8
BLACK
6
CONTINUOUS
10
0.7890983070866141
20
0.9925026377952756
11
0.7891732283464566
21
0.9921259842519685
0
LINE
8
BLACK
6
CONTINUOUS
10
0.7891732283464566
20
0.9921259842519685
11
0.7891732283464566
21
-0.5881889763779528
0
LINE
8
BLACK
6
CONTINUOUS
10
0.7891732283464566
20
-0.5881889763779528
11
0.7890983070866141
21
-0.5885656299212598
0
LINE
8
BLACK
6
CONTINUOUS
10
0.7890983070866141
20
-0.5885656299212598
11
0.7885656299212598
21
-0.5890983070866141
0
LINE
8
BLACK
6
CONTINUOUS
10
0.7885656299212598
20
-0.5890983070866141
11
0.7881889763779527
21
-0.5891732283464567
0
LINE
8
BLACK
6
CONTINUOUS
10
0.7881889763779527
20
-0.5891732283464567
11
-0.7921259842519685
21
-0.5891732283464567
0
LINE
8
BLACK
6
CONTINUOUS
10
-0.7921259842519685
20
-0.5891732283464567
11
-0.7925026377952755
21
-0.5890983070866141
0
LINE
8
BLACK
6
CONTINUOUS
10
-0.7925026377952755
20
-0.5890983070866141
11
-0.79303531496063
21
-0.5885656299212598
0
LINE
8
BLACK
6
CONTINUOUS
10
-0.79303531496063
20
-0.5885656299212598
11
-0.7931102362204724
21
-0.5881889763779528
0
LINE
8
BLACK
6
CONTINUOUS
10
-0.7931102362204724
20
-0.5881889763779528
11
-0.7931102362204724
21
0.9921259842519685
0
LINE
8
BLACK
6
CONTINUOUS
10
-0.7931102362204724
20
0.9921259842519685
11
-0.79303531496063
21
0.9925026377952756
0
LINE
8
BLACK
6
CONTINUOUS
10
-0.79303531496063
20
0.9925026377952756
11
-0.7925026377952755
21
0.9930353149606299
0
LINE
8
BLACK
6
CONTINUOUS
10
-0.7925026377952755
20
0.9930353149606299
11
-0.7921259842519685
21
0.9931102362204725
0
LINE
8
BLACK
6
CONTINUOUS
10
-0.7921259842519685
20
0.9931102362204725
11
0.7881889763779527
21
0.9931102362204725
0
LINE
8
BLACK
6
CONTINUOUS
10
0.7881889763779527
20
0.9931102362204725
11
0.7885656299212598
21
0.9930353149606299
0
LINE
8
BLACK
6
CONTINUOUS
10
-0.7911417322834645
20
0.9911417322834646
11
-0.7911417322834645
21
-0.5872047244094488
0
LINE
8
BLACK
6
CONTINUOUS
10
-0.7911417322834645
20
-0.5872047244094488
11
0.7872047244094488
21
-0.5872047244094488
0
LINE
8
BLACK
6
CONTINUOUS
10
0.7872047244094488
20
-0.5872047244094488
11
0.7872047244094488
21
0.9911417322834646
0
LINE
8
BLACK
6
CONTINUOUS
10
0.7872047244094488
20
0.9911417322834646
11
-0.7911417322834645
21
0.9911417322834646
0
CIRCLE
8
BLACK
10
0.3868110236220472
20
-0.5023622047244094
40
0.0068897637795276
0
CIRCLE
8
BLACK
10
0.2868110236220472
20
-0.5023622047244094
40
0.0068897637795276
0
CIRCLE
8
BLACK
10
0.1868110236220472
20
-0.5023622047244094
40
0.0068897637795276
0
CIRCLE
8
BLACK
10
0.5980314960629921
20
-0.3980314960629921
40
0.0068897637795276
0
CIRCLE
8
BLACK
10
-0.6019685039370078
20
-0.3980314960629921
40
0.0068897637795276
0
CIRCLE
8
BLACK
10
0.5980314960629921
20
0.8019685039370078
40
0.0068897637795276
0
CIRCLE
8
BLACK
10
0.0318897637795276
20
-0.408267716535433
40
0.0068897637795276
0
CIRCLE
8
BLACK
10
0.0318897637795276
20
-0.508267716535433
40
0.0068897637795276
0
CIRCLE
8
BLACK
10
-0.0681102362204724
20
-0.408267716535433
40
0.0068897637795276
0
CIRCLE
8
BLACK
10
-0.0681102362204724
20
-0.508267716535433
40
0.0068897637795276
0
CIRCLE
8
BLACK
10
-0.1681102362204724
20
-0.408267716535433
40
0.0068897637795276
0
CIRCLE
8
BLACK
10
-0.1681102362204724
20
-0.508267716535433
40
0.0068897637795276
0
CIRCLE
8
BLACK
10
-0.2681102362204724
20
-0.408267716535433
40
0.0068897637795276
0
CIRCLE
8
BLACK
10
-0.2681102362204724
20
-0.508267716535433
40
0.0068897637795276
0
CIRCLE
8
BLACK
10
-0.3681102362204725
20
-0.408267716535433
40
0.0068897637795276
0
CIRCLE
8
BLACK
10
-0.3681102362204725
20
-0.508267716535433
40
0.0068897637795276
0
CIRCLE
8
BLACK
10
-0.6019685039370078
20
0.8019685039370078
40
0.0068897637795276
  0
ENDSEC
  0
EOF
