  0
SECTION
  2
HEADER
  9
$ANGBASE
  50
0.0
  9
$ANGDIR
  70
1
  9
$MEASUREMENT
  70
0
  0
ENDSEC
  0
SECTION
  2
TABLES
  0
TABLE
  2
LTYPE
  70
4
  0
LTYPE
  5
40F
  2
CONTINUOUS
  70
0
  3
Solid line
  72
65
  73
0
  40
0.0
  0
LTYPE
  5
410
  2
DASHDOT
 70
0
  3
Dash Dot ____ _ ____ _
 72
65
 73
4
 40
2.0
 49
1.25
 49
-0.25
 49
0.25
 49
-0.25
  0
LTYPE
  5
411
  2
DASHED
 70
0
  3
Dashed __ __ __ __ __
 72
65
 73
2
 40
0.75
 49
0.5
 49
-0.25
  0
LTYPE
  5
43B
  2
DOTTED
 70
0
  3
Dotted .  .  .  .
 72
65
 73
2
 40
0.2
 49
0.0
 49
-0.2
  0
ENDTAB
  0
TABLE
  2
STYLE
  70
4
  0
STYLE
  2
KICAD
  70
0
  40
0
  41
1
  42
1
  50
0
  71
0
  3
isocp.shx
  0
STYLE
  2
KICADB
  70
0
  40
0
  41
1
  42
1
  50
0
  71
0
  3
isocp.shx
  0
STYLE
  2
KICADI
  70
0
  40
0
  41
1
  42
1
  50
15
  71
0
  3
isocp.shx
  0
STYLE
  2
KICADBI
  70
0
  40
0
  41
1
  42
1
  50
15
  71
0
  3
isocp.shx
  0
ENDTAB
  0
TABLE
  2
LAYER
  70
1
  0
LAYER
  2
BLACK
  70
0
  62
7
  6
CONTINUOUS
  0
ENDTAB
  0
ENDSEC
  0
SECTION
  2
ENTITIES
0
LINE
8
BLACK
6
CONTINUOUS
10
0.0177165354330709
20
0.3866066141732283
11
0.0208587795275591
21
0.3839699212598425
0
LINE
8
BLACK
6
CONTINUOUS
10
0.0208587795275591
20
0.3839699212598425
11
0.0218324803149606
21
0.3822834645669291
0
LINE
8
BLACK
6
CONTINUOUS
10
0.0218324803149606
20
0.3822834645669291
11
0.2003937007874016
21
0.3822834645669291
0
LINE
8
BLACK
6
CONTINUOUS
10
0.2003937007874016
20
0.3822834645669291
11
0.2015458267716535
21
0.38217
0
LINE
8
BLACK
6
CONTINUOUS
10
0.2015458267716535
20
0.38217
11
0.2024275984251968
21
0.3818047637795275
0
LINE
8
BLACK
6
CONTINUOUS
10
0.2024275984251968
20
0.3818047637795275
11
0.2036746062992126
21
0.3812882283464567
0
LINE
8
BLACK
6
CONTINUOUS
10
0.2036746062992126
20
0.3812882283464567
11
0.2045695275590551
21
0.380553779527559
0
LINE
8
BLACK
6
CONTINUOUS
10
0.2045695275590551
20
0.380553779527559
11
0.2900025984251968
21
0.2951207086614173
0
LINE
8
BLACK
6
CONTINUOUS
10
0.2900025984251968
20
0.2951207086614173
11
0.2907370472440945
21
0.2942258267716535
0
LINE
8
BLACK
6
CONTINUOUS
10
0.2907370472440945
20
0.2942258267716535
11
0.2908399606299212
21
0.2939773228346457
0
LINE
8
BLACK
6
CONTINUOUS
10
0.2908399606299212
20
0.2939773228346457
11
0.2916188188976378
21
0.2920970078740158
0
LINE
8
BLACK
6
CONTINUOUS
10
0.2916188188976378
20
0.2920970078740158
11
0.2917322834645669
21
0.2909448818897638
0
LINE
8
BLACK
6
CONTINUOUS
10
0.2917322834645669
20
0.2909448818897638
11
0.2917322834645669
21
0.1558979527559055
0
LINE
8
BLACK
6
CONTINUOUS
10
0.2917322834645669
20
0.1558979527559055
11
0.2948745275590551
21
0.1532612598425197
0
LINE
8
BLACK
6
CONTINUOUS
10
0.2948745275590551
20
0.1532612598425197
11
0.2969255118110236
21
0.1497088976377953
0
LINE
8
BLACK
6
CONTINUOUS
10
0.2969255118110236
20
0.1497088976377953
11
0.2976377952755905
21
0.1456692913385827
0
LINE
8
BLACK
6
CONTINUOUS
10
0.2976377952755905
20
0.1456692913385827
11
0.2969255118110236
21
0.1416296850393701
0
LINE
8
BLACK
6
CONTINUOUS
10
0.2969255118110236
20
0.1416296850393701
11
0.2948745275590551
21
0.1380773228346457
0
LINE
8
BLACK
6
CONTINUOUS
10
0.2948745275590551
20
0.1380773228346457
11
0.2917322834645669
21
0.1354406299212599
0
LINE
8
BLACK
6
CONTINUOUS
10
0.2917322834645669
20
0.1354406299212599
11
0.287877716535433
21
0.1340377165354331
0
LINE
8
BLACK
6
CONTINUOUS
10
0.287877716535433
20
0.1340377165354331
11
0.2837758267716535
21
0.1340377165354331
0
LINE
8
BLACK
6
CONTINUOUS
10
0.2837758267716535
20
0.1340377165354331
11
0.2799212598425197
21
0.1354406299212599
0
LINE
8
BLACK
6
CONTINUOUS
10
0.2799212598425197
20
0.1354406299212599
11
0.2767790157480315
21
0.1380773228346457
0
LINE
8
BLACK
6
CONTINUOUS
10
0.2767790157480315
20
0.1380773228346457
11
0.274728031496063
21
0.1416296850393701
0
LINE
8
BLACK
6
CONTINUOUS
10
0.274728031496063
20
0.1416296850393701
11
0.274015748031496
21
0.1456692913385827
0
LINE
8
BLACK
6
CONTINUOUS
10
0.274015748031496
20
0.1456692913385827
11
0.274728031496063
21
0.1497088976377953
0
LINE
8
BLACK
6
CONTINUOUS
10
0.274728031496063
20
0.1497088976377953
11
0.2767790157480315
21
0.1532612598425197
0
LINE
8
BLACK
6
CONTINUOUS
10
0.2767790157480315
20
0.1532612598425197
11
0.2799212598425197
21
0.1558979527559055
0
LINE
8
BLACK
6
CONTINUOUS
10
0.2799212598425197
20
0.1558979527559055
11
0.2799212598425197
21
0.2884987401574803
0
LINE
8
BLACK
6
CONTINUOUS
10
0.2799212598425197
20
0.2884987401574803
11
0.1979475590551181
21
0.3704724409448819
0
LINE
8
BLACK
6
CONTINUOUS
10
0.1979475590551181
20
0.3704724409448819
11
0.0218324803149606
21
0.3704724409448819
0
LINE
8
BLACK
6
CONTINUOUS
10
0.0218324803149606
20
0.3704724409448819
11
0.0208587795275591
21
0.3687859842519685
0
LINE
8
BLACK
6
CONTINUOUS
10
0.0208587795275591
20
0.3687859842519685
11
0.0177165354330709
21
0.3661492913385826
0
LINE
8
BLACK
6
CONTINUOUS
10
0.0177165354330709
20
0.3661492913385826
11
0.013861968503937
21
0.3647463779527559
0
LINE
8
BLACK
6
CONTINUOUS
10
0.013861968503937
20
0.3647463779527559
11
0.0097600787401575
21
0.3647463779527559
0
LINE
8
BLACK
6
CONTINUOUS
10
0.0097600787401575
20
0.3647463779527559
11
0.0059055118110236
21
0.3661492913385826
0
LINE
8
BLACK
6
CONTINUOUS
10
0.0059055118110236
20
0.3661492913385826
11
0.0027632677165354
21
0.3687859842519685
0
LINE
8
BLACK
6
CONTINUOUS
10
0.0027632677165354
20
0.3687859842519685
11
0.0007122834645669
21
0.3723383464566929
0
LINE
8
BLACK
6
CONTINUOUS
10
0.0007122834645669
20
0.3723383464566929
11
0.
21
0.3763779527559055
0
LINE
8
BLACK
6
CONTINUOUS
10
0.
20
0.3763779527559055
11
0.0007122834645669
21
0.3804175590551181
0
LINE
8
BLACK
6
CONTINUOUS
10
0.0007122834645669
20
0.3804175590551181
11
0.0027632677165354
21
0.3839699212598425
0
LINE
8
BLACK
6
CONTINUOUS
10
0.0027632677165354
20
0.3839699212598425
11
0.0059055118110236
21
0.3866066141732283
0
LINE
8
BLACK
6
CONTINUOUS
10
0.0059055118110236
20
0.3866066141732283
11
0.0097600787401575
21
0.3880095275590551
0
LINE
8
BLACK
6
CONTINUOUS
10
0.0097600787401575
20
0.3880095275590551
11
0.013861968503937
21
0.3880095275590551
0
LINE
8
BLACK
6
CONTINUOUS
10
0.013861968503937
20
0.3880095275590551
11
0.0177165354330709
21
0.3866066141732283
0
LINE
8
BLACK
6
CONTINUOUS
10
0.0452755905511811
20
0.4779451968503937
11
0.0484178346456693
21
0.4753085039370079
0
LINE
8
BLACK
6
CONTINUOUS
10
0.0484178346456693
20
0.4753085039370079
11
0.0504688188976378
21
0.4717561417322835
0
LINE
8
BLACK
6
CONTINUOUS
10
0.0504688188976378
20
0.4717561417322835
11
0.0511811023622047
21
0.4677165354330708
0
LINE
8
BLACK
6
CONTINUOUS
10
0.0511811023622047
20
0.4677165354330708
11
0.0506625590551181
21
0.4647757086614173
0
LINE
8
BLACK
6
CONTINUOUS
10
0.0506625590551181
20
0.4647757086614173
11
0.0654382677165354
21
0.45
0
LINE
8
BLACK
6
CONTINUOUS
10
0.0654382677165354
20
0.45
11
0.2963582677165355
21
0.45
0
LINE
8
BLACK
6
CONTINUOUS
10
0.2963582677165355
20
0.45
11
0.2975103937007874
21
0.4498865354330708
0
LINE
8
BLACK
6
CONTINUOUS
10
0.2975103937007874
20
0.4498865354330708
11
0.2983921653543307
21
0.4495212992125984
0
LINE
8
BLACK
6
CONTINUOUS
10
0.2983921653543307
20
0.4495212992125984
11
0.2996391732283464
21
0.4490047637795275
0
LINE
8
BLACK
6
CONTINUOUS
10
0.2996391732283464
20
0.4490047637795275
11
0.300534094488189
21
0.4482703149606299
0
LINE
8
BLACK
6
CONTINUOUS
10
0.300534094488189
20
0.4482703149606299
11
0.4572842125984252
21
0.2915201968503937
0
LINE
8
BLACK
6
CONTINUOUS
10
0.4572842125984252
20
0.2915201968503937
11
0.4581852755905512
21
0.2918481102362205
0
LINE
8
BLACK
6
CONTINUOUS
10
0.4581852755905512
20
0.2918481102362205
11
0.4622871653543307
21
0.2918481102362205
0
LINE
8
BLACK
6
CONTINUOUS
10
0.4622871653543307
20
0.2918481102362205
11
0.4661417322834646
21
0.2904451968503937
0
LINE
8
BLACK
6
CONTINUOUS
10
0.4661417322834646
20
0.2904451968503937
11
0.4692839763779528
21
0.2878085039370079
0
LINE
8
BLACK
6
CONTINUOUS
10
0.4692839763779528
20
0.2878085039370079
11
0.4713349606299213
21
0.2842561417322835
0
LINE
8
BLACK
6
CONTINUOUS
10
0.4713349606299213
20
0.2842561417322835
11
0.4720472440944882
21
0.2802165354330708
0
LINE
8
BLACK
6
CONTINUOUS
10
0.4720472440944882
20
0.2802165354330708
11
0.4713349606299213
21
0.2761769291338583
0
LINE
8
BLACK
6
CONTINUOUS
10
0.4713349606299213
20
0.2761769291338583
11
0.4692839763779528
21
0.2726245669291338
0
LINE
8
BLACK
6
CONTINUOUS
10
0.4692839763779528
20
0.2726245669291338
11
0.4661417322834646
21
0.269987874015748
0
LINE
8
BLACK
6
CONTINUOUS
10
0.4661417322834646
20
0.269987874015748
11
0.4622871653543307
21
0.2685849606299213
0
LINE
8
BLACK
6
CONTINUOUS
10
0.4622871653543307
20
0.2685849606299213
11
0.4581852755905512
21
0.2685849606299213
0
LINE
8
BLACK
6
CONTINUOUS
10
0.4581852755905512
20
0.2685849606299213
11
0.4543307086614173
21
0.269987874015748
0
LINE
8
BLACK
6
CONTINUOUS
10
0.4543307086614173
20
0.269987874015748
11
0.4511884645669291
21
0.2726245669291338
0
LINE
8
BLACK
6
CONTINUOUS
10
0.4511884645669291
20
0.2726245669291338
11
0.4491374803149606
21
0.2761769291338583
0
LINE
8
BLACK
6
CONTINUOUS
10
0.4491374803149606
20
0.2761769291338583
11
0.4484251968503937
21
0.2802165354330708
0
LINE
8
BLACK
6
CONTINUOUS
10
0.4484251968503937
20
0.2802165354330708
11
0.4489437007874016
21
0.2831574015748031
0
LINE
8
BLACK
6
CONTINUOUS
10
0.4489437007874016
20
0.2831574015748031
11
0.293912125984252
21
0.4381889763779527
0
LINE
8
BLACK
6
CONTINUOUS
10
0.293912125984252
20
0.4381889763779527
11
0.062992125984252
21
0.4381889763779527
0
LINE
8
BLACK
6
CONTINUOUS
10
0.062992125984252
20
0.4381889763779527
11
0.06184
21
0.4383024409448819
0
LINE
8
BLACK
6
CONTINUOUS
10
0.06184
20
0.4383024409448819
11
0.0609582283464567
21
0.4386677165354331
0
LINE
8
BLACK
6
CONTINUOUS
10
0.0609582283464567
20
0.4386677165354331
11
0.0597112204724409
21
0.4391842125984252
0
LINE
8
BLACK
6
CONTINUOUS
10
0.0597112204724409
20
0.4391842125984252
11
0.0588162992125984
21
0.4399186614173228
0
LINE
8
BLACK
6
CONTINUOUS
10
0.0588162992125984
20
0.4399186614173228
11
0.0423220472440945
21
0.4564129133858267
0
LINE
8
BLACK
6
CONTINUOUS
10
0.0423220472440945
20
0.4564129133858267
11
0.0414210236220472
21
0.4560849606299213
0
LINE
8
BLACK
6
CONTINUOUS
10
0.0414210236220472
20
0.4560849606299213
11
0.0373191338582677
21
0.4560849606299213
0
LINE
8
BLACK
6
CONTINUOUS
10
0.0373191338582677
20
0.4560849606299213
11
0.0334645669291339
21
0.457487874015748
0
LINE
8
BLACK
6
CONTINUOUS
10
0.0334645669291339
20
0.457487874015748
11
0.0303223228346457
21
0.4601245669291338
0
LINE
8
BLACK
6
CONTINUOUS
10
0.0303223228346457
20
0.4601245669291338
11
0.0282713385826772
21
0.4636769291338583
0
LINE
8
BLACK
6
CONTINUOUS
10
0.0282713385826772
20
0.4636769291338583
11
0.0275590551181102
21
0.4677165354330708
0
LINE
8
BLACK
6
CONTINUOUS
10
0.0275590551181102
20
0.4677165354330708
11
0.0282713385826772
21
0.4717561417322835
0
LINE
8
BLACK
6
CONTINUOUS
10
0.0282713385826772
20
0.4717561417322835
11
0.0303223228346457
21
0.4753085039370079
0
LINE
8
BLACK
6
CONTINUOUS
10
0.0303223228346457
20
0.4753085039370079
11
0.0334645669291339
21
0.4779451968503937
0
LINE
8
BLACK
6
CONTINUOUS
10
0.0334645669291339
20
0.4779451968503937
11
0.0373191338582677
21
0.4793481102362205
0
LINE
8
BLACK
6
CONTINUOUS
10
0.0373191338582677
20
0.4793481102362205
11
0.0414210236220472
21
0.4793481102362205
0
LINE
8
BLACK
6
CONTINUOUS
10
0.0414210236220472
20
0.4793481102362205
11
0.0452755905511811
21
0.4779451968503937
0
LINE
8
BLACK
6
CONTINUOUS
10
0.7662416929133858
20
0.9716462598425196
11
0.7680430708661418
21
0.9695673622047244
0
LINE
8
BLACK
6
CONTINUOUS
10
0.7680430708661418
20
0.9695673622047244
11
0.7684842519685039
21
0.9675393700787401
0
LINE
8
BLACK
6
CONTINUOUS
10
0.7684842519685039
20
0.9675393700787401
11
0.7684842519685039
21
-0.5636023622047244
0
LINE
8
BLACK
6
CONTINUOUS
10
0.7684842519685039
20
-0.5636023622047244
11
0.7677092519685039
21
-0.5662416929133858
0
LINE
8
BLACK
6
CONTINUOUS
10
0.7677092519685039
20
-0.5662416929133858
11
0.7656303543307087
21
-0.5680430708661417
0
LINE
8
BLACK
6
CONTINUOUS
10
0.7656303543307087
20
-0.5680430708661417
11
0.7636023622047244
21
-0.5684842519685039
0
LINE
8
BLACK
6
CONTINUOUS
10
0.7636023622047244
20
-0.5684842519685039
11
0.0495946062992126
21
-0.5684842519685039
0
LINE
8
BLACK
6
CONTINUOUS
10
0.0495946062992126
20
-0.5684842519685039
11
0.0469552755905512
21
-0.567709251968504
0
LINE
8
BLACK
6
CONTINUOUS
10
0.0469552755905512
20
-0.567709251968504
11
0.0451538976377953
21
-0.5656303543307086
0
LINE
8
BLACK
6
CONTINUOUS
10
0.0451538976377953
20
-0.5656303543307086
11
0.0447624015748031
21
-0.5629075984251969
0
LINE
8
BLACK
6
CONTINUOUS
10
0.0447624015748031
20
-0.5629075984251969
11
0.0459051181102362
21
-0.5604053937007873
0
LINE
8
BLACK
6
CONTINUOUS
10
0.0459051181102362
20
-0.5604053937007873
11
0.0482192125984252
21
-0.5589182283464567
0
LINE
8
BLACK
6
CONTINUOUS
10
0.0482192125984252
20
-0.5589182283464567
11
0.0483311023622047
21
-0.558886811023622
0
LINE
8
BLACK
6
CONTINUOUS
10
0.0483311023622047
20
-0.558886811023622
11
0.050137125984252
21
-0.5584028740157481
0
LINE
8
BLACK
6
CONTINUOUS
10
0.050137125984252
20
-0.5584028740157481
11
0.0501374803149606
21
-0.5584027165354331
0
LINE
8
BLACK
6
CONTINUOUS
10
0.0501374803149606
20
-0.5584027165354331
11
0.058566062992126
21
-0.5544724409448819
0
LINE
8
BLACK
6
CONTINUOUS
10
0.058566062992126
20
-0.5544724409448819
11
0.0661843307086614
21
-0.5491379921259842
0
LINE
8
BLACK
6
CONTINUOUS
10
0.0661843307086614
20
-0.5491379921259842
11
0.0727600393700787
21
-0.5425622834645669
0
LINE
8
BLACK
6
CONTINUOUS
10
0.0727600393700787
20
-0.5425622834645669
11
0.0780944881889764
21
-0.5349440157480315
0
LINE
8
BLACK
6
CONTINUOUS
10
0.0780944881889764
20
-0.5349440157480315
11
0.0820247637795276
21
-0.5265154330708661
0
LINE
8
BLACK
6
CONTINUOUS
10
0.0820247637795276
20
-0.5265154330708661
11
0.0820248818897638
21
-0.5265151968503937
0
LINE
8
BLACK
6
CONTINUOUS
10
0.0820248818897638
20
-0.5265151968503937
11
0.0842770078740157
21
-0.5181102362204725
0
LINE
8
BLACK
6
CONTINUOUS
10
0.0842770078740157
20
-0.5181102362204725
11
0.0636857086614173
21
-0.5181102362204725
0
LINE
8
BLACK
6
CONTINUOUS
10
0.0636857086614173
20
-0.5181102362204725
11
0.0624611811023622
21
-0.5218789763779528
0
LINE
8
BLACK
6
CONTINUOUS
10
0.0624611811023622
20
-0.5218789763779528
11
0.0589631496062992
21
-0.5279376771653543
0
LINE
8
BLACK
6
CONTINUOUS
10
0.0589631496062992
20
-0.5279376771653543
11
0.0542819291338583
21
-0.5331367322834646
0
LINE
8
BLACK
6
CONTINUOUS
10
0.0542819291338583
20
-0.5331367322834646
11
0.0486220472440945
21
-0.5372488976377953
0
LINE
8
BLACK
6
CONTINUOUS
10
0.0486220472440945
20
-0.5372488976377953
11
0.0422308661417323
21
-0.5400944094488189
0
LINE
8
BLACK
6
CONTINUOUS
10
0.0422308661417323
20
-0.5400944094488189
11
0.0353877559055118
21
-0.5415489763779527
0
LINE
8
BLACK
6
CONTINUOUS
10
0.0353877559055118
20
-0.5415489763779527
11
0.0283917716535433
21
-0.5415489763779527
0
LINE
8
BLACK
6
CONTINUOUS
10
0.0283917716535433
20
-0.5415489763779527
11
0.0215486614173228
21
-0.5400944094488189
0
LINE
8
BLACK
6
CONTINUOUS
10
0.0215486614173228
20
-0.5400944094488189
11
0.0151574803149606
21
-0.5372488976377953
0
LINE
8
BLACK
6
CONTINUOUS
10
0.0151574803149606
20
-0.5372488976377953
11
0.0094975984251968
21
-0.5331367322834646
0
LINE
8
BLACK
6
CONTINUOUS
10
0.0094975984251968
20
-0.5331367322834646
11
0.0048163779527559
21
-0.5279376771653543
0
LINE
8
BLACK
6
CONTINUOUS
10
0.0048163779527559
20
-0.5279376771653543
11
0.0013183464566929
21
-0.5218789763779528
0
LINE
8
BLACK
6
CONTINUOUS
10
0.0013183464566929
20
-0.5218789763779528
11
-0.0008435039370079
21
-0.5152253937007873
0
LINE
8
BLACK
6
CONTINUOUS
10
-0.0008435039370079
20
-0.5152253937007873
11
-0.0015748031496063
21
-0.508267716535433
0
LINE
8
BLACK
6
CONTINUOUS
10
-0.0015748031496063
20
-0.508267716535433
11
-0.0008435039370079
21
-0.5013100393700787
0
LINE
8
BLACK
6
CONTINUOUS
10
-0.0008435039370079
20
-0.5013100393700787
11
0.0013183464566929
21
-0.4946564566929134
0
LINE
8
BLACK
6
CONTINUOUS
10
0.0013183464566929
20
-0.4946564566929134
11
0.0048163779527559
21
-0.4885977559055118
0
LINE
8
BLACK
6
CONTINUOUS
10
0.0048163779527559
20
-0.4885977559055118
11
0.0094975984251968
21
-0.4833987007874015
0
LINE
8
BLACK
6
CONTINUOUS
10
0.0094975984251968
20
-0.4833987007874015
11
0.0151574803149606
21
-0.4792865354330709
0
LINE
8
BLACK
6
CONTINUOUS
10
0.0151574803149606
20
-0.4792865354330709
11
0.0215486614173228
21
-0.4764410236220472
0
LINE
8
BLACK
6
CONTINUOUS
10
0.0215486614173228
20
-0.4764410236220472
11
0.0220472440944882
21
-0.4763350393700787
0
LINE
8
BLACK
6
CONTINUOUS
10
0.0220472440944882
20
-0.4763350393700787
11
0.0220472440944882
21
-0.4417322834645669
0
LINE
8
BLACK
6
CONTINUOUS
10
0.0220472440944882
20
-0.4417322834645669
11
-0.0015748031496063
21
-0.4417322834645669
0
LINE
8
BLACK
6
CONTINUOUS
10
-0.0015748031496063
20
-0.4417322834645669
11
-0.0015748031496063
21
-0.3748031496062992
0
LINE
8
BLACK
6
CONTINUOUS
10
-0.0015748031496063
20
-0.3748031496062992
11
0.0653543307086614
21
-0.3748031496062992
0
LINE
8
BLACK
6
CONTINUOUS
10
0.0653543307086614
20
-0.3748031496062992
11
0.0653543307086614
21
-0.3984251968503937
0
LINE
8
BLACK
6
CONTINUOUS
10
0.0653543307086614
20
-0.3984251968503937
11
0.0850393700787402
21
-0.3984251968503937
0
LINE
8
BLACK
6
CONTINUOUS
10
0.0850393700787402
20
-0.3984251968503937
11
0.0850393700787402
21
-0.3729201574803149
0
LINE
8
BLACK
6
CONTINUOUS
10
0.0850393700787402
20
-0.3729201574803149
11
0.0850393307086614
21
-0.3729194881889764
0
LINE
8
BLACK
6
CONTINUOUS
10
0.0850393307086614
20
-0.3729194881889764
11
0.0847873228346457
21
-0.3705758661417323
0
LINE
8
BLACK
6
CONTINUOUS
10
0.0847873228346457
20
-0.3705758661417323
11
0.0847872440944882
21
-0.3705755905511811
0
LINE
8
BLACK
6
CONTINUOUS
10
0.0847872440944882
20
-0.3705755905511811
11
0.0828092125984252
21
-0.3652721653543307
0
LINE
8
BLACK
6
CONTINUOUS
10
0.0828092125984252
20
-0.3652721653543307
11
0.0828090551181102
21
-0.3652718897637795
0
LINE
8
BLACK
6
CONTINUOUS
10
0.0828090551181102
20
-0.3652718897637795
11
0.0794169291338583
21
-0.3607406299212598
0
LINE
8
BLACK
6
CONTINUOUS
10
0.0794169291338583
20
-0.3607406299212598
11
0.079416811023622
21
-0.3607405118110236
0
LINE
8
BLACK
6
CONTINUOUS
10
0.079416811023622
20
-0.3607405118110236
11
0.0748855511811024
21
-0.3573483858267716
0
LINE
8
BLACK
6
CONTINUOUS
10
0.0748855511811024
20
-0.3573483858267716
11
0.0746463779527559
21
-0.3572177952755906
0
LINE
8
BLACK
6
CONTINUOUS
10
0.0746463779527559
20
-0.3572177952755906
11
0.0727012992125984
21
-0.3552726771653543
0
LINE
8
BLACK
6
CONTINUOUS
10
0.0727012992125984
20
-0.3552726771653543
11
0.0721166141732283
21
-0.3525847637795276
0
LINE
8
BLACK
6
CONTINUOUS
10
0.0721166141732283
20
-0.3525847637795276
11
0.0730779133858268
21
-0.3500074409448819
0
LINE
8
BLACK
6
CONTINUOUS
10
0.0730779133858268
20
-0.3500074409448819
11
0.0752800393700787
21
-0.3483589763779528
0
LINE
8
BLACK
6
CONTINUOUS
10
0.0752800393700787
20
-0.3483589763779528
11
0.076986062992126
21
-0.3480511811023622
0
LINE
8
BLACK
6
CONTINUOUS
10
0.076986062992126
20
-0.3480511811023622
11
0.1097827165354331
21
-0.3480511811023622
0
LINE
8
BLACK
6
CONTINUOUS
10
0.1097827165354331
20
-0.3480511811023622
11
0.1124220472440945
21
-0.3488261811023622
0
LINE
8
BLACK
6
CONTINUOUS
10
0.1124220472440945
20
-0.3488261811023622
11
0.1132347244094488
21
-0.349481062992126
0
LINE
8
BLACK
6
CONTINUOUS
10
0.1132347244094488
20
-0.349481062992126
11
0.1578024015748032
21
-0.3940487401574803
0
LINE
8
BLACK
6
CONTINUOUS
10
0.1578024015748032
20
-0.3940487401574803
11
0.1591207086614173
21
-0.396463031496063
0
LINE
8
BLACK
6
CONTINUOUS
10
0.1591207086614173
20
-0.396463031496063
11
0.1592322834645669
21
-0.397500748031496
0
LINE
8
BLACK
6
CONTINUOUS
10
0.1592322834645669
20
-0.397500748031496
11
0.1592322834645669
21
-0.454223937007874
0
LINE
8
BLACK
6
CONTINUOUS
10
0.1592322834645669
20
-0.454223937007874
11
0.1584572834645669
21
-0.4568632677165354
0
LINE
8
BLACK
6
CONTINUOUS
10
0.1584572834645669
20
-0.4568632677165354
11
0.1571505511811024
21
-0.4582229527559055
0
LINE
8
BLACK
6
CONTINUOUS
10
0.1571505511811024
20
-0.4582229527559055
11
0.1525037007874016
21
-0.4614766929133858
0
LINE
8
BLACK
6
CONTINUOUS
10
0.1525037007874016
20
-0.4614766929133858
11
0.1459253937007874
21
-0.468055
0
LINE
8
BLACK
6
CONTINUOUS
10
0.1459253937007874
20
-0.468055
11
0.1405891732283465
21
-0.4756759448818897
0
LINE
8
BLACK
6
CONTINUOUS
10
0.1405891732283465
20
-0.4756759448818897
11
0.1405891338582677
21
-0.4756760236220473
0
LINE
8
BLACK
6
CONTINUOUS
10
0.1405891338582677
20
-0.4756760236220473
11
0.1366574015748031
21
-0.4841076771653543
0
LINE
8
BLACK
6
CONTINUOUS
10
0.1366574015748031
20
-0.4841076771653543
11
0.1366572440944882
21
-0.484108031496063
0
LINE
8
BLACK
6
CONTINUOUS
10
0.1366572440944882
20
-0.484108031496063
11
0.1342495275590551
21
-0.493093937007874
0
LINE
8
BLACK
6
CONTINUOUS
10
0.1342495275590551
20
-0.493093937007874
11
0.1342494488188976
21
-0.4930943307086614
0
LINE
8
BLACK
6
CONTINUOUS
10
0.1342494488188976
20
-0.4930943307086614
11
0.1334386220472441
21
-0.5023621653543306
0
LINE
8
BLACK
6
CONTINUOUS
10
0.1334386220472441
20
-0.5023621653543306
11
0.1334386220472441
21
-0.5023622047244094
0
LINE
8
BLACK
6
CONTINUOUS
10
0.1334386220472441
20
-0.5023622047244094
11
0.1342494488188976
21
-0.5116300393700788
0
LINE
8
BLACK
6
CONTINUOUS
10
0.1342494488188976
20
-0.5116300393700788
11
0.1342495275590551
21
-0.5116304330708661
0
LINE
8
BLACK
6
CONTINUOUS
10
0.1342495275590551
20
-0.5116304330708661
11
0.1366572440944882
21
-0.5206163385826772
0
LINE
8
BLACK
6
CONTINUOUS
10
0.1366572440944882
20
-0.5206163385826772
11
0.1366573228346457
21
-0.5206164960629921
0
LINE
8
BLACK
6
CONTINUOUS
10
0.1366573228346457
20
-0.5206164960629921
11
0.1366573622047244
21
-0.5206166535433071
0
LINE
8
BLACK
6
CONTINUOUS
10
0.1366573622047244
20
-0.5206166535433071
11
0.1394526771653543
21
-0.5266112204724409
0
LINE
8
BLACK
6
CONTINUOUS
10
0.1394526771653543
20
-0.5266112204724409
11
0.1405891732283465
21
-0.5290484251968504
0
LINE
8
BLACK
6
CONTINUOUS
10
0.1405891732283465
20
-0.5290484251968504
11
0.1405892519685039
21
-0.5290485826771654
0
LINE
8
BLACK
6
CONTINUOUS
10
0.1405892519685039
20
-0.5290485826771654
11
0.1435321653543307
21
-0.5332514566929134
0
LINE
8
BLACK
6
CONTINUOUS
10
0.1435321653543307
20
-0.5332514566929134
11
0.1459253937007874
21
-0.5366693307086614
0
LINE
8
BLACK
6
CONTINUOUS
10
0.1459253937007874
20
-0.5366693307086614
11
0.1525038976377953
21
-0.5432478346456693
0
LINE
8
BLACK
6
CONTINUOUS
10
0.1525038976377953
20
-0.5432478346456693
11
0.155517125984252
21
-0.5453577165354331
0
LINE
8
BLACK
6
CONTINUOUS
10
0.155517125984252
20
-0.5453577165354331
11
0.1601246062992126
21
-0.548583937007874
0
LINE
8
BLACK
6
CONTINUOUS
10
0.1601246062992126
20
-0.548583937007874
11
0.1601246850393701
21
-0.5485839763779528
0
LINE
8
BLACK
6
CONTINUOUS
10
0.1601246850393701
20
-0.5485839763779528
11
0.1601248031496063
21
-0.5485840551181103
0
LINE
8
BLACK
6
CONTINUOUS
10
0.1601248031496063
20
-0.5485840551181103
11
0.1685565748031496
21
-0.5525158661417323
0
LINE
8
BLACK
6
CONTINUOUS
10
0.1685565748031496
20
-0.5525158661417323
11
0.1775429921259843
21
-0.5549237401574802
0
LINE
8
BLACK
6
CONTINUOUS
10
0.1775429921259843
20
-0.5549237401574802
11
0.1842645275590551
21
-0.555511811023622
0
LINE
8
BLACK
6
CONTINUOUS
10
0.1842645275590551
20
-0.555511811023622
11
0.1868109842519685
21
-0.5557346062992126
0
LINE
8
BLACK
6
CONTINUOUS
10
0.1868109842519685
20
-0.5557346062992126
11
0.1868110236220472
21
-0.5557346062992126
0
LINE
8
BLACK
6
CONTINUOUS
10
0.1868110236220472
20
-0.5557346062992126
11
0.186811062992126
21
-0.5557346062992126
0
LINE
8
BLACK
6
CONTINUOUS
10
0.186811062992126
20
-0.5557346062992126
11
0.1893575196850394
21
-0.555511811023622
0
LINE
8
BLACK
6
CONTINUOUS
10
0.1893575196850394
20
-0.555511811023622
11
0.1960790551181102
21
-0.5549237401574802
0
LINE
8
BLACK
6
CONTINUOUS
10
0.1960790551181102
20
-0.5549237401574802
11
0.2050654724409449
21
-0.5525158661417323
0
LINE
8
BLACK
6
CONTINUOUS
10
0.2050654724409449
20
-0.5525158661417323
11
0.2134972440944882
21
-0.5485840551181103
0
LINE
8
BLACK
6
CONTINUOUS
10
0.2134972440944882
20
-0.5485840551181103
11
0.2211181496062992
21
-0.5432478346456693
0
LINE
8
BLACK
6
CONTINUOUS
10
0.2211181496062992
20
-0.5432478346456693
11
0.2276966535433071
21
-0.5366693307086614
0
LINE
8
BLACK
6
CONTINUOUS
10
0.2276966535433071
20
-0.5366693307086614
11
0.2328120078740157
21
-0.5293638582677165
0
LINE
8
BLACK
6
CONTINUOUS
10
0.2328120078740157
20
-0.5293638582677165
11
0.2349607086614173
21
-0.5276463385826772
0
LINE
8
BLACK
6
CONTINUOUS
10
0.2349607086614173
20
-0.5276463385826772
11
0.2376968503937008
21
-0.5273631102362205
0
LINE
8
BLACK
6
CONTINUOUS
10
0.2376968503937008
20
-0.5273631102362205
11
0.2401517716535433
21
-0.5286041732283464
0
LINE
8
BLACK
6
CONTINUOUS
10
0.2401517716535433
20
-0.5286041732283464
11
0.2408100393700787
21
-0.5293638582677165
0
LINE
8
BLACK
6
CONTINUOUS
10
0.2408100393700787
20
-0.5293638582677165
11
0.2459251968503937
21
-0.536669094488189
0
LINE
8
BLACK
6
CONTINUOUS
10
0.2459251968503937
20
-0.536669094488189
11
0.2459253937007874
21
-0.5366693307086614
0
LINE
8
BLACK
6
CONTINUOUS
10
0.2459253937007874
20
-0.5366693307086614
11
0.2525038976377953
21
-0.5432478346456693
0
LINE
8
BLACK
6
CONTINUOUS
10
0.2525038976377953
20
-0.5432478346456693
11
0.255517125984252
21
-0.5453577165354331
0
LINE
8
BLACK
6
CONTINUOUS
10
0.255517125984252
20
-0.5453577165354331
11
0.2601246062992126
21
-0.548583937007874
0
LINE
8
BLACK
6
CONTINUOUS
10
0.2601246062992126
20
-0.548583937007874
11
0.2601246850393701
21
-0.5485839763779528
0
LINE
8
BLACK
6
CONTINUOUS
10
0.2601246850393701
20
-0.5485839763779528
11
0.2601248031496063
21
-0.5485840551181103
0
LINE
8
BLACK
6
CONTINUOUS
10
0.2601248031496063
20
-0.5485840551181103
11
0.2685565748031496
21
-0.5525158661417323
0
LINE
8
BLACK
6
CONTINUOUS
10
0.2685565748031496
20
-0.5525158661417323
11
0.2775429921259843
21
-0.5549237401574802
0
LINE
8
BLACK
6
CONTINUOUS
10
0.2775429921259843
20
-0.5549237401574802
11
0.2842645275590551
21
-0.555511811023622
0
LINE
8
BLACK
6
CONTINUOUS
10
0.2842645275590551
20
-0.555511811023622
11
0.2868109842519685
21
-0.5557346062992126
0
LINE
8
BLACK
6
CONTINUOUS
10
0.2868109842519685
20
-0.5557346062992126
11
0.2868110236220472
21
-0.5557346062992126
0
LINE
8
BLACK
6
CONTINUOUS
10
0.2868110236220472
20
-0.5557346062992126
11
0.286811062992126
21
-0.5557346062992126
0
LINE
8
BLACK
6
CONTINUOUS
10
0.286811062992126
20
-0.5557346062992126
11
0.2893575196850394
21
-0.555511811023622
0
LINE
8
BLACK
6
CONTINUOUS
10
0.2893575196850394
20
-0.555511811023622
11
0.2960790551181102
21
-0.5549237401574802
0
LINE
8
BLACK
6
CONTINUOUS
10
0.2960790551181102
20
-0.5549237401574802
11
0.3050654724409449
21
-0.5525158661417323
0
LINE
8
BLACK
6
CONTINUOUS
10
0.3050654724409449
20
-0.5525158661417323
11
0.3134972440944882
21
-0.5485840551181103
0
LINE
8
BLACK
6
CONTINUOUS
10
0.3134972440944882
20
-0.5485840551181103
11
0.3211181496062992
21
-0.5432478346456693
0
LINE
8
BLACK
6
CONTINUOUS
10
0.3211181496062992
20
-0.5432478346456693
11
0.3259337401574803
21
-0.5384322047244094
0
LINE
8
BLACK
6
CONTINUOUS
10
0.3259337401574803
20
-0.5384322047244094
11
0.328347874015748
21
-0.5371140157480315
0
LINE
8
BLACK
6
CONTINUOUS
10
0.328347874015748
20
-0.5371140157480315
11
0.3310916535433071
21
-0.5373102362204725
0
LINE
8
BLACK
6
CONTINUOUS
10
0.3310916535433071
20
-0.5373102362204725
11
0.3332937795275591
21
-0.5389587007874016
0
LINE
8
BLACK
6
CONTINUOUS
10
0.3332937795275591
20
-0.5389587007874016
11
0.3339597244094488
21
-0.5401782677165354
0
LINE
8
BLACK
6
CONTINUOUS
10
0.3339597244094488
20
-0.5401782677165354
11
0.3358915748031496
21
-0.5453577952755906
0
LINE
8
BLACK
6
CONTINUOUS
10
0.3358915748031496
20
-0.5453577952755906
11
0.3358916929133858
21
-0.5453579921259842
0
LINE
8
BLACK
6
CONTINUOUS
10
0.3358916929133858
20
-0.5453579921259842
11
0.3392838188976378
21
-0.5498892519685039
0
LINE
8
BLACK
6
CONTINUOUS
10
0.3392838188976378
20
-0.5498892519685039
11
0.339283937007874
21
-0.5498893700787402
0
LINE
8
BLACK
6
CONTINUOUS
10
0.339283937007874
20
-0.5498893700787402
11
0.3438151968503937
21
-0.5532814960629922
0
LINE
8
BLACK
6
CONTINUOUS
10
0.3438151968503937
20
-0.5532814960629922
11
0.3438154724409448
21
-0.5532816535433071
0
LINE
8
BLACK
6
CONTINUOUS
10
0.3438154724409448
20
-0.5532816535433071
11
0.3491188976377952
21
-0.5552596850393701
0
LINE
8
BLACK
6
CONTINUOUS
10
0.3491188976377952
20
-0.5552596850393701
11
0.3491191732283465
21
-0.5552597637795276
0
LINE
8
BLACK
6
CONTINUOUS
10
0.3491191732283465
20
-0.5552597637795276
11
0.3514627952755905
21
-0.5555117716535433
0
LINE
8
BLACK
6
CONTINUOUS
10
0.3514627952755905
20
-0.5555117716535433
11
0.3514634645669291
21
-0.555511811023622
0
LINE
8
BLACK
6
CONTINUOUS
10
0.3514634645669291
20
-0.555511811023622
11
0.3769685039370079
21
-0.555511811023622
0
LINE
8
BLACK
6
CONTINUOUS
10
0.3769685039370079
20
-0.555511811023622
11
0.3769685039370079
21
-0.5358267716535433
0
LINE
8
BLACK
6
CONTINUOUS
10
0.3769685039370079
20
-0.5358267716535433
11
0.3533464566929134
21
-0.5358267716535433
0
LINE
8
BLACK
6
CONTINUOUS
10
0.3533464566929134
20
-0.5358267716535433
11
0.3533464566929134
21
-0.4688976377952756
0
LINE
8
BLACK
6
CONTINUOUS
10
0.3533464566929134
20
-0.4688976377952756
11
0.3769685039370079
21
-0.4688976377952756
0
LINE
8
BLACK
6
CONTINUOUS
10
0.3769685039370079
20
-0.4688976377952756
11
0.3769685039370079
21
-0.4492125984251968
0
LINE
8
BLACK
6
CONTINUOUS
10
0.3769685039370079
20
-0.4492125984251968
11
0.3514627952755905
21
-0.4492125984251968
0
LINE
8
BLACK
6
CONTINUOUS
10
0.3514627952755905
20
-0.4492125984251968
11
0.3491191732283465
21
-0.4494646062992126
0
LINE
8
BLACK
6
CONTINUOUS
10
0.3491191732283465
20
-0.4494646062992126
11
0.3491188976377952
21
-0.4494646850393701
0
LINE
8
BLACK
6
CONTINUOUS
10
0.3491188976377952
20
-0.4494646850393701
11
0.3438154724409448
21
-0.4514427165354331
0
LINE
8
BLACK
6
CONTINUOUS
10
0.3438154724409448
20
-0.4514427165354331
11
0.3438151968503937
21
-0.451442874015748
0
LINE
8
BLACK
6
CONTINUOUS
10
0.3438151968503937
20
-0.451442874015748
11
0.339283937007874
21
-0.454835
0
LINE
8
BLACK
6
CONTINUOUS
10
0.339283937007874
20
-0.454835
11
0.3392838188976378
21
-0.4548351181102362
0
LINE
8
BLACK
6
CONTINUOUS
10
0.3392838188976378
20
-0.4548351181102362
11
0.3358916929133858
21
-0.4593663779527559
0
LINE
8
BLACK
6
CONTINUOUS
10
0.3358916929133858
20
-0.4593663779527559
11
0.3358915354330709
21
-0.4593666535433071
0
LINE
8
BLACK
6
CONTINUOUS
10
0.3358915354330709
20
-0.4593666535433071
11
0.3339597637795276
21
-0.464546062992126
0
LINE
8
BLACK
6
CONTINUOUS
10
0.3339597637795276
20
-0.464546062992126
11
0.3323112992125984
21
-0.4667481889763779
0
LINE
8
BLACK
6
CONTINUOUS
10
0.3323112992125984
20
-0.4667481889763779
11
0.329733937007874
21
-0.4677094881889763
0
LINE
8
BLACK
6
CONTINUOUS
10
0.329733937007874
20
-0.4677094881889763
11
0.3270460236220472
21
-0.4671247637795276
0
LINE
8
BLACK
6
CONTINUOUS
10
0.3270460236220472
20
-0.4671247637795276
11
0.3259336614173228
21
-0.4662920866141732
0
LINE
8
BLACK
6
CONTINUOUS
10
0.3259336614173228
20
-0.4662920866141732
11
0.3236361417322834
21
-0.4639945669291338
0
LINE
8
BLACK
6
CONTINUOUS
10
0.3236361417322834
20
-0.4639945669291338
11
0.3211181496062992
21
-0.4614765748031496
0
LINE
8
BLACK
6
CONTINUOUS
10
0.3211181496062992
20
-0.4614765748031496
11
0.3211179921259842
21
-0.4614764566929134
0
LINE
8
BLACK
6
CONTINUOUS
10
0.3211179921259842
20
-0.4614764566929134
11
0.3211179527559055
21
-0.4614764173228346
0
LINE
8
BLACK
6
CONTINUOUS
10
0.3211179527559055
20
-0.4614764173228346
11
0.3134974015748032
21
-0.4561404330708662
0
LINE
8
BLACK
6
CONTINUOUS
10
0.3134974015748032
20
-0.4561404330708662
11
0.3134972440944882
21
-0.4561403543307087
0
LINE
8
BLACK
6
CONTINUOUS
10
0.3134972440944882
20
-0.4561403543307087
11
0.3127563779527559
21
-0.4557948818897637
0
LINE
8
BLACK
6
CONTINUOUS
10
0.3127563779527559
20
-0.4557948818897637
11
0.3050654724409449
21
-0.4522085433070866
0
LINE
8
BLACK
6
CONTINUOUS
10
0.3050654724409449
20
-0.4522085433070866
11
0.3050653149606299
21
-0.4522085039370078
0
LINE
8
BLACK
6
CONTINUOUS
10
0.3050653149606299
20
-0.4522085039370078
11
0.3050651574803149
21
-0.4522084251968504
0
LINE
8
BLACK
6
CONTINUOUS
10
0.3050651574803149
20
-0.4522084251968504
11
0.2960792519685039
21
-0.4498007086614173
0
LINE
8
BLACK
6
CONTINUOUS
10
0.2960792519685039
20
-0.4498007086614173
11
0.2960788582677165
21
-0.4498006299212599
0
LINE
8
BLACK
6
CONTINUOUS
10
0.2960788582677165
20
-0.4498006299212599
11
0.286811062992126
21
-0.4489898031496063
0
LINE
8
BLACK
6
CONTINUOUS
10
0.286811062992126
20
-0.4489898031496063
11
0.2868109842519685
21
-0.4489898031496063
0
LINE
8
BLACK
6
CONTINUOUS
10
0.2868109842519685
20
-0.4489898031496063
11
0.2775431496062992
21
-0.4498006299212599
0
LINE
8
BLACK
6
CONTINUOUS
10
0.2775431496062992
20
-0.4498006299212599
11
0.2775427559055118
21
-0.4498007086614173
0
LINE
8
BLACK
6
CONTINUOUS
10
0.2775427559055118
20
-0.4498007086614173
11
0.2685568503937008
21
-0.4522084251968504
0
LINE
8
BLACK
6
CONTINUOUS
10
0.2685568503937008
20
-0.4522084251968504
11
0.2685564960629921
21
-0.4522085826771653
0
LINE
8
BLACK
6
CONTINUOUS
10
0.2685564960629921
20
-0.4522085826771653
11
0.260124842519685
21
-0.4561403149606299
0
LINE
8
BLACK
6
CONTINUOUS
10
0.260124842519685
20
-0.4561403149606299
11
0.2601247637795275
21
-0.4561403543307087
0
LINE
8
BLACK
6
CONTINUOUS
10
0.2601247637795275
20
-0.4561403543307087
11
0.2525038188976378
21
-0.4614765748031496
0
LINE
8
BLACK
6
CONTINUOUS
10
0.2525038188976378
20
-0.4614765748031496
11
0.2459253937007874
21
-0.468055
0
LINE
8
BLACK
6
CONTINUOUS
10
0.2459253937007874
20
-0.468055
11
0.2408100393700787
21
-0.4753605511811024
0
LINE
8
BLACK
6
CONTINUOUS
10
0.2408100393700787
20
-0.4753605511811024
11
0.2386613385826772
21
-0.4770780708661417
0
LINE
8
BLACK
6
CONTINUOUS
10
0.2386613385826772
20
-0.4770780708661417
11
0.2359251968503937
21
-0.4773612992125984
0
LINE
8
BLACK
6
CONTINUOUS
10
0.2359251968503937
20
-0.4773612992125984
11
0.2334702755905512
21
-0.4761202362204724
0
LINE
8
BLACK
6
CONTINUOUS
10
0.2334702755905512
20
-0.4761202362204724
11
0.2328120078740157
21
-0.4753605511811024
0
LINE
8
BLACK
6
CONTINUOUS
10
0.2328120078740157
20
-0.4753605511811024
11
0.2276966141732283
21
-0.468055
0
LINE
8
BLACK
6
CONTINUOUS
10
0.2276966141732283
20
-0.468055
11
0.2211182677165354
21
-0.4614766929133858
0
LINE
8
BLACK
6
CONTINUOUS
10
0.2211182677165354
20
-0.4614766929133858
11
0.2211181496062992
21
-0.4614765748031496
0
LINE
8
BLACK
6
CONTINUOUS
10
0.2211181496062992
20
-0.4614765748031496
11
0.2211179527559055
21
-0.4614764173228346
0
LINE
8
BLACK
6
CONTINUOUS
10
0.2211179527559055
20
-0.4614764173228346
11
0.2211178346456693
21
-0.4614763385826772
0
LINE
8
BLACK
6
CONTINUOUS
10
0.2211178346456693
20
-0.4614763385826772
11
0.2164714960629921
21
-0.458222874015748
0
LINE
8
BLACK
6
CONTINUOUS
10
0.2164714960629921
20
-0.458222874015748
11
0.2147539763779527
21
-0.4560741732283464
0
LINE
8
BLACK
6
CONTINUOUS
10
0.2147539763779527
20
-0.4560741732283464
11
0.2143897637795276
21
-0.4542238976377952
0
LINE
8
BLACK
6
CONTINUOUS
10
0.2143897637795276
20
-0.4542238976377952
11
0.2143897637795276
21
-0.3813387401574803
0
LINE
8
BLACK
6
CONTINUOUS
10
0.2143897637795276
20
-0.3813387401574803
11
0.2133299606299213
21
-0.376010905511811
0
LINE
8
BLACK
6
CONTINUOUS
10
0.2133299606299213
20
-0.376010905511811
11
0.2133299212598425
21
-0.3760108661417323
0
LINE
8
BLACK
6
CONTINUOUS
10
0.2133299212598425
20
-0.3760108661417323
11
0.2133299212598425
21
-0.3760107086614173
0
LINE
8
BLACK
6
CONTINUOUS
10
0.2133299212598425
20
-0.3760107086614173
11
0.2112509842519685
21
-0.3709916929133858
0
LINE
8
BLACK
6
CONTINUOUS
10
0.2112509842519685
20
-0.3709916929133858
11
0.2088391338582677
21
-0.3673820866141732
0
LINE
8
BLACK
6
CONTINUOUS
10
0.2088391338582677
20
-0.3673820866141732
11
0.2082328346456693
21
-0.3664746850393701
0
LINE
8
BLACK
6
CONTINUOUS
10
0.2082328346456693
20
-0.3664746850393701
11
0.2082326377952756
21
-0.3664744488188976
0
LINE
8
BLACK
6
CONTINUOUS
10
0.2082326377952756
20
-0.3664744488188976
11
0.1408088582677165
21
-0.2990506692913386
0
LINE
8
BLACK
6
CONTINUOUS
10
0.1408088582677165
20
-0.2990506692913386
11
0.1362916141732284
21
-0.2960323622047244
0
LINE
8
BLACK
6
CONTINUOUS
10
0.1362916141732284
20
-0.2960323622047244
11
0.1312729133858268
21
-0.2939535826771654
0
LINE
8
BLACK
6
CONTINUOUS
10
0.1312729133858268
20
-0.2939535826771654
11
0.1312725196850394
21
-0.2939534645669291
0
LINE
8
BLACK
6
CONTINUOUS
10
0.1312725196850394
20
-0.2939534645669291
11
0.1259447244094488
21
-0.2928937007874016
0
LINE
8
BLACK
6
CONTINUOUS
10
0.1259447244094488
20
-0.2928937007874016
11
0.1259446456692913
21
-0.2928937007874016
0
LINE
8
BLACK
6
CONTINUOUS
10
0.1259446456692913
20
-0.2928937007874016
11
0.1259446062992126
21
-0.2928937007874016
0
LINE
8
BLACK
6
CONTINUOUS
10
0.1259446062992126
20
-0.2928937007874016
11
-0.1356496062992126
21
-0.2928937007874016
0
LINE
8
BLACK
6
CONTINUOUS
10
-0.1356496062992126
20
-0.2928937007874016
11
-0.138288937007874
21
-0.2921187007874015
0
LINE
8
BLACK
6
CONTINUOUS
10
-0.138288937007874
20
-0.2921187007874015
11
-0.1400903149606299
21
-0.2900398031496063
0
LINE
8
BLACK
6
CONTINUOUS
10
-0.1400903149606299
20
-0.2900398031496063
11
-0.1405314960629921
21
-0.2880118110236221
0
LINE
8
BLACK
6
CONTINUOUS
10
-0.1405314960629921
20
-0.2880118110236221
11
-0.1405314960629921
21
-0.0228944094488189
0
LINE
8
BLACK
6
CONTINUOUS
10
-0.1405314960629921
20
-0.0228944094488189
11
-0.1397564960629921
21
-0.0202550787401575
0
LINE
8
BLACK
6
CONTINUOUS
10
-0.1397564960629921
20
-0.0202550787401575
11
-0.139101811023622
21
-0.0194425984251968
0
LINE
8
BLACK
6
CONTINUOUS
10
-0.139101811023622
20
-0.0194425984251968
11
0.1283580708661417
21
0.2480173228346457
0
LINE
8
BLACK
6
CONTINUOUS
10
0.1283580708661417
20
0.2480173228346457
11
0.1307722834645669
21
0.2493355511811023
0
LINE
8
BLACK
6
CONTINUOUS
10
0.1307722834645669
20
0.2493355511811023
11
0.1309172047244095
21
0.2493594094488189
0
LINE
8
BLACK
6
CONTINUOUS
10
0.1309172047244095
20
0.2493594094488189
11
0.131072874015748
21
0.2493949606299213
0
LINE
8
BLACK
6
CONTINUOUS
10
0.131072874015748
20
0.2493949606299213
11
0.131073031496063
21
0.2493949606299213
0
LINE
8
BLACK
6
CONTINUOUS
10
0.131073031496063
20
0.2493949606299213
11
0.1377764566929134
21
0.2517405905511811
0
LINE
8
BLACK
6
CONTINUOUS
10
0.1377764566929134
20
0.2517405905511811
11
0.143789842519685
21
0.2555190551181102
0
LINE
8
BLACK
6
CONTINUOUS
10
0.143789842519685
20
0.2555190551181102
11
0.1488116535433071
21
0.2605408661417323
0
LINE
8
BLACK
6
CONTINUOUS
10
0.1488116535433071
20
0.2605408661417323
11
0.1525901181102362
21
0.2665542519685039
0
LINE
8
BLACK
6
CONTINUOUS
10
0.1525901181102362
20
0.2665542519685039
11
0.1549357480314961
21
0.2732576771653543
0
LINE
8
BLACK
6
CONTINUOUS
10
0.1549357480314961
20
0.2732576771653543
11
0.1549357874015748
21
0.2732579133858268
0
LINE
8
BLACK
6
CONTINUOUS
10
0.1549357874015748
20
0.2732579133858268
11
0.155730905511811
21
0.280314842519685
0
LINE
8
BLACK
6
CONTINUOUS
10
0.155730905511811
20
0.280314842519685
11
0.155730905511811
21
0.2803151181102362
0
LINE
8
BLACK
6
CONTINUOUS
10
0.155730905511811
20
0.2803151181102362
11
0.1549357874015748
21
0.2873720472440945
0
LINE
8
BLACK
6
CONTINUOUS
10
0.1549357874015748
20
0.2873720472440945
11
0.1549357480314961
21
0.2873722440944882
0
LINE
8
BLACK
6
CONTINUOUS
10
0.1549357480314961
20
0.2873722440944882
11
0.1525901181102362
21
0.2940756692913385
0
LINE
8
BLACK
6
CONTINUOUS
10
0.1525901181102362
20
0.2940756692913385
11
0.1488116535433071
21
0.3000890551181102
0
LINE
8
BLACK
6
CONTINUOUS
10
0.1488116535433071
20
0.3000890551181102
11
0.143789842519685
21
0.3051108661417323
0
LINE
8
BLACK
6
CONTINUOUS
10
0.143789842519685
20
0.3051108661417323
11
0.1403531102362205
21
0.3072703149606299
0
LINE
8
BLACK
6
CONTINUOUS
10
0.1403531102362205
20
0.3072703149606299
11
0.1377764960629921
21
0.3088893307086614
0
LINE
8
BLACK
6
CONTINUOUS
10
0.1377764960629921
20
0.3088893307086614
11
0.1310729921259843
21
0.311235
0
LINE
8
BLACK
6
CONTINUOUS
10
0.1310729921259843
20
0.311235
11
0.1310727952755905
21
0.3112350393700787
0
LINE
8
BLACK
6
CONTINUOUS
10
0.1310727952755905
20
0.3112350393700787
11
0.124015905511811
21
0.3120301181102362
0
LINE
8
BLACK
6
CONTINUOUS
10
0.124015905511811
20
0.3120301181102362
11
0.1240155905511811
21
0.3120301181102362
0
LINE
8
BLACK
6
CONTINUOUS
10
0.1240155905511811
20
0.3120301181102362
11
0.1169586614173228
21
0.3112350393700787
0
LINE
8
BLACK
6
CONTINUOUS
10
0.1169586614173228
20
0.3112350393700787
11
0.1169584645669291
21
0.311235
0
LINE
8
BLACK
6
CONTINUOUS
10
0.1169584645669291
20
0.311235
11
0.1102549606299213
21
0.3088893307086614
0
LINE
8
BLACK
6
CONTINUOUS
10
0.1102549606299213
20
0.3088893307086614
11
0.1042416141732283
21
0.3051108661417323
0
LINE
8
BLACK
6
CONTINUOUS
10
0.1042416141732283
20
0.3051108661417323
11
0.099219842519685
21
0.300089094488189
0
LINE
8
BLACK
6
CONTINUOUS
10
0.099219842519685
20
0.300089094488189
11
0.0954413779527559
21
0.2940756692913385
0
LINE
8
BLACK
6
CONTINUOUS
10
0.0954413779527559
20
0.2940756692913385
11
0.0954411811023622
21
0.2940752755905512
0
LINE
8
BLACK
6
CONTINUOUS
10
0.0954411811023622
20
0.2940752755905512
11
0.095286811023622
21
0.2936340944881889
0
LINE
8
BLACK
6
CONTINUOUS
10
0.095286811023622
20
0.2936340944881889
11
0.0941309842519685
21
0.2917947244094488
0
LINE
8
BLACK
6
CONTINUOUS
10
0.0941309842519685
20
0.2917947244094488
11
-0.1895320078740158
21
0.0081317322834646
0
LINE
8
BLACK
6
CONTINUOUS
10
-0.1895320078740158
20
0.0081317322834646
11
-0.1925503149606299
21
0.0036144881889764
0
LINE
8
BLACK
6
CONTINUOUS
10
-0.1925503149606299
20
0.0036144881889764
11
-0.194629094488189
21
-0.0014042125984252
0
LINE
8
BLACK
6
CONTINUOUS
10
-0.194629094488189
20
-0.0014042125984252
11
-0.1946292125984252
21
-0.0014046062992126
0
LINE
8
BLACK
6
CONTINUOUS
10
-0.1946292125984252
20
-0.0014046062992126
11
-0.1956889763779527
21
-0.0067324409448819
0
LINE
8
BLACK
6
CONTINUOUS
10
-0.1956889763779527
20
-0.0067324409448819
11
-0.1956889763779527
21
-0.3601294488188976
0
LINE
8
BLACK
6
CONTINUOUS
10
-0.1956889763779527
20
-0.3601294488188976
11
-0.1964639763779528
21
-0.362768779527559
0
LINE
8
BLACK
6
CONTINUOUS
10
-0.1964639763779528
20
-0.362768779527559
11
-0.1977707086614173
21
-0.3641284645669291
0
LINE
8
BLACK
6
CONTINUOUS
10
-0.1977707086614173
20
-0.3641284645669291
11
-0.2024175590551181
21
-0.3673822047244095
0
LINE
8
BLACK
6
CONTINUOUS
10
-0.2024175590551181
20
-0.3673822047244095
11
-0.2089958661417323
21
-0.3739605118110236
0
LINE
8
BLACK
6
CONTINUOUS
10
-0.2089958661417323
20
-0.3739605118110236
11
-0.2141112204724409
21
-0.381266062992126
0
LINE
8
BLACK
6
CONTINUOUS
10
-0.2141112204724409
20
-0.381266062992126
11
-0.2162599212598425
21
-0.3829835826771654
0
LINE
8
BLACK
6
CONTINUOUS
10
-0.2162599212598425
20
-0.3829835826771654
11
-0.218996062992126
21
-0.383266811023622
0
LINE
8
BLACK
6
CONTINUOUS
10
-0.218996062992126
20
-0.383266811023622
11
-0.2214509842519685
21
-0.3820257480314961
0
LINE
8
BLACK
6
CONTINUOUS
10
-0.2214509842519685
20
-0.3820257480314961
11
-0.2221092519685039
21
-0.381266062992126
0
LINE
8
BLACK
6
CONTINUOUS
10
-0.2221092519685039
20
-0.381266062992126
11
-0.2272246456692913
21
-0.3739605118110236
0
LINE
8
BLACK
6
CONTINUOUS
10
-0.2272246456692913
20
-0.3739605118110236
11
-0.2338030708661417
21
-0.367382125984252
0
LINE
8
BLACK
6
CONTINUOUS
10
-0.2338030708661417
20
-0.367382125984252
11
-0.2338033070866142
21
-0.367381968503937
0
LINE
8
BLACK
6
CONTINUOUS
10
-0.2338033070866142
20
-0.367381968503937
11
-0.2368167716535433
21
-0.3652718897637795
0
LINE
8
BLACK
6
CONTINUOUS
10
-0.2368167716535433
20
-0.3652718897637795
11
-0.2414238582677165
21
-0.3620459448818897
0
LINE
8
BLACK
6
CONTINUOUS
10
-0.2414238582677165
20
-0.3620459448818897
11
-0.2414240157480315
21
-0.3620458661417323
0
LINE
8
BLACK
6
CONTINUOUS
10
-0.2414240157480315
20
-0.3620458661417323
11
-0.2455337795275591
21
-0.3601294488188976
0
LINE
8
BLACK
6
CONTINUOUS
10
-0.2455337795275591
20
-0.3601294488188976
11
-0.2498557874015748
21
-0.3581140551181102
0
LINE
8
BLACK
6
CONTINUOUS
10
-0.2498557874015748
20
-0.3581140551181102
11
-0.2498559448818898
21
-0.3581140157480315
0
LINE
8
BLACK
6
CONTINUOUS
10
-0.2498559448818898
20
-0.3581140157480315
11
-0.2498561023622047
21
-0.358113937007874
0
LINE
8
BLACK
6
CONTINUOUS
10
-0.2498561023622047
20
-0.358113937007874
11
-0.2588420078740157
21
-0.3557062204724409
0
LINE
8
BLACK
6
CONTINUOUS
10
-0.2588420078740157
20
-0.3557062204724409
11
-0.2588424015748031
21
-0.3557061417322834
0
LINE
8
BLACK
6
CONTINUOUS
10
-0.2588424015748031
20
-0.3557061417322834
11
-0.2681101968503937
21
-0.3548953149606299
0
LINE
8
BLACK
6
CONTINUOUS
10
-0.2681101968503937
20
-0.3548953149606299
11
-0.2681102755905512
21
-0.3548953149606299
0
LINE
8
BLACK
6
CONTINUOUS
10
-0.2681102755905512
20
-0.3548953149606299
11
-0.2773781102362204
21
-0.3557061417322834
0
LINE
8
BLACK
6
CONTINUOUS
10
-0.2773781102362204
20
-0.3557061417322834
11
-0.2773785039370079
21
-0.3557062204724409
0
LINE
8
BLACK
6
CONTINUOUS
10
-0.2773785039370079
20
-0.3557062204724409
11
-0.2863644094488189
21
-0.358113937007874
0
LINE
8
BLACK
6
CONTINUOUS
10
-0.2863644094488189
20
-0.358113937007874
11
-0.2863647637795276
21
-0.358114094488189
0
LINE
8
BLACK
6
CONTINUOUS
10
-0.2863647637795276
20
-0.358114094488189
11
-0.2947964173228346
21
-0.3620458267716535
0
LINE
8
BLACK
6
CONTINUOUS
10
-0.2947964173228346
20
-0.3620458267716535
11
-0.2947964960629921
21
-0.3620458661417323
0
LINE
8
BLACK
6
CONTINUOUS
10
-0.2947964960629921
20
-0.3620458661417323
11
-0.3024174409448819
21
-0.3673820866141732
0
LINE
8
BLACK
6
CONTINUOUS
10
-0.3024174409448819
20
-0.3673820866141732
11
-0.308995748031496
21
-0.3739603937007874
0
LINE
8
BLACK
6
CONTINUOUS
10
-0.308995748031496
20
-0.3739603937007874
11
-0.3141232677165354
21
-0.3812832677165354
0
LINE
8
BLACK
6
CONTINUOUS
10
-0.3141232677165354
20
-0.3812832677165354
11
-0.316271968503937
21
-0.383000748031496
0
LINE
8
BLACK
6
CONTINUOUS
10
-0.316271968503937
20
-0.383000748031496
11
-0.3190081496062992
21
-0.383283937007874
0
LINE
8
BLACK
6
CONTINUOUS
10
-0.3190081496062992
20
-0.383283937007874
11
-0.321463031496063
21
-0.3820429133858267
0
LINE
8
BLACK
6
CONTINUOUS
10
-0.321463031496063
20
-0.3820429133858267
11
-0.3221212992125984
21
-0.3812832283464567
0
LINE
8
BLACK
6
CONTINUOUS
10
-0.3221212992125984
20
-0.3812832283464567
11
-0.3272396456692913
21
-0.3739734645669291
0
LINE
8
BLACK
6
CONTINUOUS
10
-0.3272396456692913
20
-0.3739734645669291
11
-0.327239842519685
21
-0.3739732283464567
0
LINE
8
BLACK
6
CONTINUOUS
10
-0.327239842519685
20
-0.3739732283464567
11
-0.3338156692913386
21
-0.3673974015748032
0
LINE
8
BLACK
6
CONTINUOUS
10
-0.3338156692913386
20
-0.3673974015748032
11
-0.341433937007874
21
-0.3620629527559055
0
LINE
8
BLACK
6
CONTINUOUS
10
-0.341433937007874
20
-0.3620629527559055
11
-0.3498625196850393
21
-0.3581326771653543
0
LINE
8
BLACK
6
CONTINUOUS
10
-0.3498625196850393
20
-0.3581326771653543
11
-0.3498627559055118
21
-0.3581325590551181
0
LINE
8
BLACK
6
CONTINUOUS
10
-0.3498627559055118
20
-0.3581325590551181
11
-0.358267716535433
21
-0.3558804724409449
0
LINE
8
BLACK
6
CONTINUOUS
10
-0.358267716535433
20
-0.3558804724409449
11
-0.358267716535433
21
-0.3763350393700787
0
LINE
8
BLACK
6
CONTINUOUS
10
-0.358267716535433
20
-0.3763350393700787
11
-0.3577691338582677
21
-0.3764410236220472
0
LINE
8
BLACK
6
CONTINUOUS
10
-0.3577691338582677
20
-0.3764410236220472
11
-0.3513779527559055
21
-0.3792865354330708
0
LINE
8
BLACK
6
CONTINUOUS
10
-0.3513779527559055
20
-0.3792865354330708
11
-0.3457180708661417
21
-0.3833987007874016
0
LINE
8
BLACK
6
CONTINUOUS
10
-0.3457180708661417
20
-0.3833987007874016
11
-0.3410368503937008
21
-0.3885977559055118
0
LINE
8
BLACK
6
CONTINUOUS
10
-0.3410368503937008
20
-0.3885977559055118
11
-0.3375388188976378
21
-0.3946564566929134
0
LINE
8
BLACK
6
CONTINUOUS
10
-0.3375388188976378
20
-0.3946564566929134
11
-0.335376968503937
21
-0.4013100393700788
0
LINE
8
BLACK
6
CONTINUOUS
10
-0.335376968503937
20
-0.4013100393700788
11
-0.3346456692913386
21
-0.408267716535433
0
LINE
8
BLACK
6
CONTINUOUS
10
-0.3346456692913386
20
-0.408267716535433
11
-0.335376968503937
21
-0.4152253937007874
0
LINE
8
BLACK
6
CONTINUOUS
10
-0.335376968503937
20
-0.4152253937007874
11
-0.3375388188976378
21
-0.4218789763779527
0
LINE
8
BLACK
6
CONTINUOUS
10
-0.3375388188976378
20
-0.4218789763779527
11
-0.3410368503937008
21
-0.4279376771653543
0
LINE
8
BLACK
6
CONTINUOUS
10
-0.3410368503937008
20
-0.4279376771653543
11
-0.3457180708661417
21
-0.4331367322834646
0
LINE
8
BLACK
6
CONTINUOUS
10
-0.3457180708661417
20
-0.4331367322834646
11
-0.3513779527559055
21
-0.4372488976377953
0
LINE
8
BLACK
6
CONTINUOUS
10
-0.3513779527559055
20
-0.4372488976377953
11
-0.3577691338582677
21
-0.4400944094488189
0
LINE
8
BLACK
6
CONTINUOUS
10
-0.3577691338582677
20
-0.4400944094488189
11
-0.358267716535433
21
-0.4402003543307086
0
LINE
8
BLACK
6
CONTINUOUS
10
-0.358267716535433
20
-0.4402003543307086
11
-0.358267716535433
21
-0.4763350393700787
0
LINE
8
BLACK
6
CONTINUOUS
10
-0.358267716535433
20
-0.4763350393700787
11
-0.3577691338582677
21
-0.4764410236220472
0
LINE
8
BLACK
6
CONTINUOUS
10
-0.3577691338582677
20
-0.4764410236220472
11
-0.3513779527559055
21
-0.4792865354330709
0
LINE
8
BLACK
6
CONTINUOUS
10
-0.3513779527559055
20
-0.4792865354330709
11
-0.3457180708661417
21
-0.4833987007874015
0
LINE
8
BLACK
6
CONTINUOUS
10
-0.3457180708661417
20
-0.4833987007874015
11
-0.3410368503937008
21
-0.4885977559055118
0
LINE
8
BLACK
6
CONTINUOUS
10
-0.3410368503937008
20
-0.4885977559055118
11
-0.3375388188976378
21
-0.4946564566929134
0
LINE
8
BLACK
6
CONTINUOUS
10
-0.3375388188976378
20
-0.4946564566929134
11
-0.335376968503937
21
-0.5013100393700787
0
LINE
8
BLACK
6
CONTINUOUS
10
-0.335376968503937
20
-0.5013100393700787
11
-0.3346456692913386
21
-0.508267716535433
0
LINE
8
BLACK
6
CONTINUOUS
10
-0.3346456692913386
20
-0.508267716535433
11
-0.335376968503937
21
-0.5152253937007873
0
LINE
8
BLACK
6
CONTINUOUS
10
-0.335376968503937
20
-0.5152253937007873
11
-0.3375388188976378
21
-0.5218789763779528
0
LINE
8
BLACK
6
CONTINUOUS
10
-0.3375388188976378
20
-0.5218789763779528
11
-0.3410368503937008
21
-0.5279376771653543
0
LINE
8
BLACK
6
CONTINUOUS
10
-0.3410368503937008
20
-0.5279376771653543
11
-0.3457180708661417
21
-0.5331367322834646
0
LINE
8
BLACK
6
CONTINUOUS
10
-0.3457180708661417
20
-0.5331367322834646
11
-0.3513779527559055
21
-0.5372488976377953
0
LINE
8
BLACK
6
CONTINUOUS
10
-0.3513779527559055
20
-0.5372488976377953
11
-0.3577691338582677
21
-0.5400944094488189
0
LINE
8
BLACK
6
CONTINUOUS
10
-0.3577691338582677
20
-0.5400944094488189
11
-0.3646122440944882
21
-0.5415489763779527
0
LINE
8
BLACK
6
CONTINUOUS
10
-0.3646122440944882
20
-0.5415489763779527
11
-0.3716082283464567
21
-0.5415489763779527
0
LINE
8
BLACK
6
CONTINUOUS
10
-0.3716082283464567
20
-0.5415489763779527
11
-0.3784513385826772
21
-0.5400944094488189
0
LINE
8
BLACK
6
CONTINUOUS
10
-0.3784513385826772
20
-0.5400944094488189
11
-0.3848425196850394
21
-0.5372488976377953
0
LINE
8
BLACK
6
CONTINUOUS
10
-0.3848425196850394
20
-0.5372488976377953
11
-0.3905024015748031
21
-0.5331367322834646
0
LINE
8
BLACK
6
CONTINUOUS
10
-0.3905024015748031
20
-0.5331367322834646
11
-0.3951836220472441
21
-0.5279376771653543
0
LINE
8
BLACK
6
CONTINUOUS
10
-0.3951836220472441
20
-0.5279376771653543
11
-0.3986816535433071
21
-0.5218789763779528
0
LINE
8
BLACK
6
CONTINUOUS
10
-0.3986816535433071
20
-0.5218789763779528
11
-0.3999061811023622
21
-0.5181102362204725
0
LINE
8
BLACK
6
CONTINUOUS
10
-0.3999061811023622
20
-0.5181102362204725
11
-0.4204974803149606
21
-0.5181102362204725
0
LINE
8
BLACK
6
CONTINUOUS
10
-0.4204974803149606
20
-0.5181102362204725
11
-0.4182453937007874
21
-0.5265151968503937
0
LINE
8
BLACK
6
CONTINUOUS
10
-0.4182453937007874
20
-0.5265151968503937
11
-0.4182452755905512
21
-0.5265154330708661
0
LINE
8
BLACK
6
CONTINUOUS
10
-0.4182452755905512
20
-0.5265154330708661
11
-0.414315
21
-0.5349440157480315
0
LINE
8
BLACK
6
CONTINUOUS
10
-0.414315
20
-0.5349440157480315
11
-0.4089805511811023
21
-0.5425622834645669
0
LINE
8
BLACK
6
CONTINUOUS
10
-0.4089805511811023
20
-0.5425622834645669
11
-0.4024048425196851
21
-0.5491379921259842
0
LINE
8
BLACK
6
CONTINUOUS
10
-0.4024048425196851
20
-0.5491379921259842
11
-0.3947865748031496
21
-0.5544724409448819
0
LINE
8
BLACK
6
CONTINUOUS
10
-0.3947865748031496
20
-0.5544724409448819
11
-0.3863579921259843
21
-0.5584027165354331
0
LINE
8
BLACK
6
CONTINUOUS
10
-0.3863579921259843
20
-0.5584027165354331
11
-0.3863576377952756
21
-0.5584028740157481
0
LINE
8
BLACK
6
CONTINUOUS
10
-0.3863576377952756
20
-0.5584028740157481
11
-0.3845515748031496
21
-0.558886811023622
0
LINE
8
BLACK
6
CONTINUOUS
10
-0.3845515748031496
20
-0.558886811023622
11
-0.3822027165354331
21
-0.5603185039370079
0
LINE
8
BLACK
6
CONTINUOUS
10
-0.3822027165354331
20
-0.5603185039370079
11
-0.3810007874015748
21
-0.5627927952755906
0
LINE
8
BLACK
6
CONTINUOUS
10
-0.3810007874015748
20
-0.5627927952755906
11
-0.3813273622047244
21
-0.565524094488189
0
LINE
8
BLACK
6
CONTINUOUS
10
-0.3813273622047244
20
-0.565524094488189
11
-0.3830787401574803
21
-0.5676452755905511
0
LINE
8
BLACK
6
CONTINUOUS
10
-0.3830787401574803
20
-0.5676452755905511
11
-0.3856988976377952
21
-0.568482874015748
0
LINE
8
BLACK
6
CONTINUOUS
10
-0.3856988976377952
20
-0.568482874015748
11
-0.3858150787401575
21
-0.5684842519685039
0
LINE
8
BLACK
6
CONTINUOUS
10
-0.3858150787401575
20
-0.5684842519685039
11
-0.7675393700787402
21
-0.5684842519685039
0
LINE
8
BLACK
6
CONTINUOUS
10
-0.7675393700787402
20
-0.5684842519685039
11
-0.7701787007874016
21
-0.567709251968504
0
LINE
8
BLACK
6
CONTINUOUS
10
-0.7701787007874016
20
-0.567709251968504
11
-0.7719800787401575
21
-0.5656303543307086
0
LINE
8
BLACK
6
CONTINUOUS
10
-0.7719800787401575
20
-0.5656303543307086
11
-0.7724212598425196
21
-0.5636023622047244
0
LINE
8
BLACK
6
CONTINUOUS
10
-0.7724212598425196
20
-0.5636023622047244
11
-0.7724212598425196
21
0.3763781102362205
0
LINE
8
BLACK
6
CONTINUOUS
10
-0.7724212598425196
20
0.3763781102362205
11
-0.7724212598425196
21
0.4677166929133858
0
LINE
8
BLACK
6
CONTINUOUS
10
-0.7724212598425196
20
0.4677166929133858
11
-0.7724212598425196
21
0.6862204724409449
0
LINE
8
BLACK
6
CONTINUOUS
10
-0.7724212598425196
20
0.6862204724409449
11
-0.7724212598425196
21
0.9675393700787401
0
LINE
8
BLACK
6
CONTINUOUS
10
-0.7724212598425196
20
0.9675393700787401
11
-0.7716462598425197
21
0.9701787007874015
0
LINE
8
BLACK
6
CONTINUOUS
10
-0.7716462598425197
20
0.9701787007874015
11
-0.7695673622047244
21
0.9719800787401575
0
LINE
8
BLACK
6
CONTINUOUS
10
-0.7695673622047244
20
0.9719800787401575
11
-0.7675393700787402
21
0.9724212598425197
0
LINE
8
BLACK
6
CONTINUOUS
10
-0.7675393700787402
20
0.9724212598425197
11
0.7636023622047244
21
0.9724212598425197
0
LINE
8
BLACK
6
CONTINUOUS
10
0.7636023622047244
20
0.9724212598425197
11
0.7662416929133858
21
0.9716462598425196
0
LINE
8
BLACK
6
CONTINUOUS
10
0.4202755905511811
20
-0.5358267716535433
11
0.3966535433070866
21
-0.5358267716535433
0
LINE
8
BLACK
6
CONTINUOUS
10
0.3966535433070866
20
-0.5358267716535433
11
0.3966535433070866
21
-0.555511811023622
0
LINE
8
BLACK
6
CONTINUOUS
10
0.3966535433070866
20
-0.555511811023622
11
0.4221585826771653
21
-0.555511811023622
0
LINE
8
BLACK
6
CONTINUOUS
10
0.4221585826771653
20
-0.555511811023622
11
0.4221592125984252
21
-0.5555117716535433
0
LINE
8
BLACK
6
CONTINUOUS
10
0.4221592125984252
20
-0.5555117716535433
11
0.4245028346456693
21
-0.5552597637795276
0
LINE
8
BLACK
6
CONTINUOUS
10
0.4245028346456693
20
-0.5552597637795276
11
0.4245031102362204
21
-0.5552596850393701
0
LINE
8
BLACK
6
CONTINUOUS
10
0.4245031102362204
20
-0.5552596850393701
11
0.4298065354330708
21
-0.5532816535433071
0
LINE
8
BLACK
6
CONTINUOUS
10
0.4298065354330708
20
-0.5532816535433071
11
0.4298068110236221
21
-0.5532814960629922
0
LINE
8
BLACK
6
CONTINUOUS
10
0.4298068110236221
20
-0.5532814960629922
11
0.4343380708661417
21
-0.5498893700787402
0
LINE
8
BLACK
6
CONTINUOUS
10
0.4343380708661417
20
-0.5498893700787402
11
0.4343381889763779
21
-0.5498892519685039
0
LINE
8
BLACK
6
CONTINUOUS
10
0.4343381889763779
20
-0.5498892519685039
11
0.4377303149606299
21
-0.5453579921259842
0
LINE
8
BLACK
6
CONTINUOUS
10
0.4377303149606299
20
-0.5453579921259842
11
0.4377304724409449
21
-0.5453577165354331
0
LINE
8
BLACK
6
CONTINUOUS
10
0.4377304724409449
20
-0.5453577165354331
11
0.4397085039370079
21
-0.5400542913385826
0
LINE
8
BLACK
6
CONTINUOUS
10
0.4397085039370079
20
-0.5400542913385826
11
0.4397085826771653
21
-0.5400540157480315
0
LINE
8
BLACK
6
CONTINUOUS
10
0.4397085826771653
20
-0.5400540157480315
11
0.4399605905511811
21
-0.5377103937007874
0
LINE
8
BLACK
6
CONTINUOUS
10
0.4399605905511811
20
-0.5377103937007874
11
0.4399606299212598
21
-0.5377097244094488
0
LINE
8
BLACK
6
CONTINUOUS
10
0.4399606299212598
20
-0.5377097244094488
11
0.4399606299212598
21
-0.5122047244094488
0
LINE
8
BLACK
6
CONTINUOUS
10
0.4399606299212598
20
-0.5122047244094488
11
0.4202755905511811
21
-0.5122047244094488
0
LINE
8
BLACK
6
CONTINUOUS
10
0.4202755905511811
20
-0.5122047244094488
11
0.4202755905511811
21
-0.5358267716535433
0
LINE
8
BLACK
6
CONTINUOUS
10
0.0653543307086614
20
-0.4417322834645669
11
0.0417322834645669
21
-0.4417322834645669
0
LINE
8
BLACK
6
CONTINUOUS
10
0.0417322834645669
20
-0.4417322834645669
11
0.0417322834645669
21
-0.4763350393700787
0
LINE
8
BLACK
6
CONTINUOUS
10
0.0417322834645669
20
-0.4763350393700787
11
0.0422308661417323
21
-0.4764410236220472
0
LINE
8
BLACK
6
CONTINUOUS
10
0.0422308661417323
20
-0.4764410236220472
11
0.0486220472440945
21
-0.4792865354330709
0
LINE
8
BLACK
6
CONTINUOUS
10
0.0486220472440945
20
-0.4792865354330709
11
0.0542819291338583
21
-0.4833987007874015
0
LINE
8
BLACK
6
CONTINUOUS
10
0.0542819291338583
20
-0.4833987007874015
11
0.0589631496062992
21
-0.4885977559055118
0
LINE
8
BLACK
6
CONTINUOUS
10
0.0589631496062992
20
-0.4885977559055118
11
0.0624611811023622
21
-0.4946564566929134
0
LINE
8
BLACK
6
CONTINUOUS
10
0.0624611811023622
20
-0.4946564566929134
11
0.0636857086614173
21
-0.4984251968503937
0
LINE
8
BLACK
6
CONTINUOUS
10
0.0636857086614173
20
-0.4984251968503937
11
0.0842770078740157
21
-0.4984251968503937
0
LINE
8
BLACK
6
CONTINUOUS
10
0.0842770078740157
20
-0.4984251968503937
11
0.084276968503937
21
-0.498425157480315
0
LINE
8
BLACK
6
CONTINUOUS
10
0.084276968503937
20
-0.498425157480315
11
0.0820248818897638
21
-0.4900201968503937
0
LINE
8
BLACK
6
CONTINUOUS
10
0.0820248818897638
20
-0.4900201968503937
11
0.0820247637795276
21
-0.4900199606299213
0
LINE
8
BLACK
6
CONTINUOUS
10
0.0820247637795276
20
-0.4900199606299213
11
0.0780944881889764
21
-0.4815914173228346
0
LINE
8
BLACK
6
CONTINUOUS
10
0.0780944881889764
20
-0.4815914173228346
11
0.0780944488188976
21
-0.4815913385826772
0
LINE
8
BLACK
6
CONTINUOUS
10
0.0780944488188976
20
-0.4815913385826772
11
0.0727603543307087
21
-0.4739734645669291
0
LINE
8
BLACK
6
CONTINUOUS
10
0.0727603543307087
20
-0.4739734645669291
11
0.072760157480315
21
-0.4739732283464567
0
LINE
8
BLACK
6
CONTINUOUS
10
0.072760157480315
20
-0.4739732283464567
11
0.0679395669291339
21
-0.4691526377952756
0
LINE
8
BLACK
6
CONTINUOUS
10
0.0679395669291339
20
-0.4691526377952756
11
0.0666212598425197
21
-0.4667383464566929
0
LINE
8
BLACK
6
CONTINUOUS
10
0.0666212598425197
20
-0.4667383464566929
11
0.0668174803149606
21
-0.4639945669291338
0
LINE
8
BLACK
6
CONTINUOUS
10
0.0668174803149606
20
-0.4639945669291338
11
0.0684659842519685
21
-0.4617924803149606
0
LINE
8
BLACK
6
CONTINUOUS
10
0.0684659842519685
20
-0.4617924803149606
11
0.0696855511811024
21
-0.4611265354330709
0
LINE
8
BLACK
6
CONTINUOUS
10
0.0696855511811024
20
-0.4611265354330709
11
0.0748852755905512
21
-0.4591871653543307
0
LINE
8
BLACK
6
CONTINUOUS
10
0.0748852755905512
20
-0.4591871653543307
11
0.0748855511811024
21
-0.4591870078740157
0
LINE
8
BLACK
6
CONTINUOUS
10
0.0748855511811024
20
-0.4591870078740157
11
0.079416811023622
21
-0.4557948818897637
0
LINE
8
BLACK
6
CONTINUOUS
10
0.079416811023622
20
-0.4557948818897637
11
0.0794169291338583
21
-0.4557947637795275
0
LINE
8
BLACK
6
CONTINUOUS
10
0.0794169291338583
20
-0.4557947637795275
11
0.0828090551181102
21
-0.4512635039370079
0
LINE
8
BLACK
6
CONTINUOUS
10
0.0828090551181102
20
-0.4512635039370079
11
0.0828092125984252
21
-0.4512632283464567
0
LINE
8
BLACK
6
CONTINUOUS
10
0.0828092125984252
20
-0.4512632283464567
11
0.0847872440944882
21
-0.4459598031496063
0
LINE
8
BLACK
6
CONTINUOUS
10
0.0847872440944882
20
-0.4459598031496063
11
0.0847873228346457
21
-0.4459595275590551
0
LINE
8
BLACK
6
CONTINUOUS
10
0.0847873228346457
20
-0.4459595275590551
11
0.0850393307086614
21
-0.443615905511811
0
LINE
8
BLACK
6
CONTINUOUS
10
0.0850393307086614
20
-0.443615905511811
11
0.0850393700787402
21
-0.4436152362204724
0
LINE
8
BLACK
6
CONTINUOUS
10
0.0850393700787402
20
-0.4436152362204724
11
0.0850393700787402
21
-0.4181102362204724
0
LINE
8
BLACK
6
CONTINUOUS
10
0.0850393700787402
20
-0.4181102362204724
11
0.0653543307086614
21
-0.4181102362204724
0
LINE
8
BLACK
6
CONTINUOUS
10
0.0653543307086614
20
-0.4181102362204724
11
0.0653543307086614
21
-0.4417322834645669
0
LINE
8
BLACK
6
CONTINUOUS
10
-0.4204974803149606
20
-0.4181102362204724
11
-0.4182453937007874
21
-0.4265151968503937
0
LINE
8
BLACK
6
CONTINUOUS
10
-0.4182453937007874
20
-0.4265151968503937
11
-0.4182452755905512
21
-0.4265154330708661
0
LINE
8
BLACK
6
CONTINUOUS
10
-0.4182452755905512
20
-0.4265154330708661
11
-0.414315
21
-0.4349440157480315
0
LINE
8
BLACK
6
CONTINUOUS
10
-0.414315
20
-0.4349440157480315
11
-0.4089805511811023
21
-0.4425622834645669
0
LINE
8
BLACK
6
CONTINUOUS
10
-0.4089805511811023
20
-0.4425622834645669
11
-0.4024048425196851
21
-0.4491379921259843
0
LINE
8
BLACK
6
CONTINUOUS
10
-0.4024048425196851
20
-0.4491379921259843
11
-0.3950775196850393
21
-0.4542687007874016
0
LINE
8
BLACK
6
CONTINUOUS
10
-0.3950775196850393
20
-0.4542687007874016
11
-0.39336
21
-0.4564174409448819
0
LINE
8
BLACK
6
CONTINUOUS
10
-0.39336
20
-0.4564174409448819
11
-0.3930768503937008
21
-0.4591535826771653
0
LINE
8
BLACK
6
CONTINUOUS
10
-0.3930768503937008
20
-0.4591535826771653
11
-0.394317874015748
21
-0.4616085039370079
0
LINE
8
BLACK
6
CONTINUOUS
10
-0.394317874015748
20
-0.4616085039370079
11
-0.3950775196850393
21
-0.4622667322834645
0
LINE
8
BLACK
6
CONTINUOUS
10
-0.3950775196850393
20
-0.4622667322834645
11
-0.4024046456692913
21
-0.4673972440944882
0
LINE
8
BLACK
6
CONTINUOUS
10
-0.4024046456692913
20
-0.4673972440944882
11
-0.4024047244094488
21
-0.4673972834645669
0
LINE
8
BLACK
6
CONTINUOUS
10
-0.4024047244094488
20
-0.4673972834645669
11
-0.4089806692913386
21
-0.4739732283464567
0
LINE
8
BLACK
6
CONTINUOUS
10
-0.4089806692913386
20
-0.4739732283464567
11
-0.4089808661417323
21
-0.4739734645669291
0
LINE
8
BLACK
6
CONTINUOUS
10
-0.4089808661417323
20
-0.4739734645669291
11
-0.4143149606299212
21
-0.4815913385826772
0
LINE
8
BLACK
6
CONTINUOUS
10
-0.4143149606299212
20
-0.4815913385826772
11
-0.414315
21
-0.4815914173228346
0
LINE
8
BLACK
6
CONTINUOUS
10
-0.414315
20
-0.4815914173228346
11
-0.4182452755905512
21
-0.4900199606299213
0
LINE
8
BLACK
6
CONTINUOUS
10
-0.4182452755905512
20
-0.4900199606299213
11
-0.4182453937007874
21
-0.4900201968503937
0
LINE
8
BLACK
6
CONTINUOUS
10
-0.4182453937007874
20
-0.4900201968503937
11
-0.4204974803149606
21
-0.498425157480315
0
LINE
8
BLACK
6
CONTINUOUS
10
-0.4204974803149606
20
-0.498425157480315
11
-0.4204974803149606
21
-0.4984251968503937
0
LINE
8
BLACK
6
CONTINUOUS
10
-0.4204974803149606
20
-0.4984251968503937
11
-0.3999061811023622
21
-0.4984251968503937
0
LINE
8
BLACK
6
CONTINUOUS
10
-0.3999061811023622
20
-0.4984251968503937
11
-0.3986816535433071
21
-0.4946564566929134
0
LINE
8
BLACK
6
CONTINUOUS
10
-0.3986816535433071
20
-0.4946564566929134
11
-0.3951836220472441
21
-0.4885977559055118
0
LINE
8
BLACK
6
CONTINUOUS
10
-0.3951836220472441
20
-0.4885977559055118
11
-0.3905024015748031
21
-0.4833987007874015
0
LINE
8
BLACK
6
CONTINUOUS
10
-0.3905024015748031
20
-0.4833987007874015
11
-0.3848425196850394
21
-0.4792865354330709
0
LINE
8
BLACK
6
CONTINUOUS
10
-0.3848425196850394
20
-0.4792865354330709
11
-0.3784513385826772
21
-0.4764410236220472
0
LINE
8
BLACK
6
CONTINUOUS
10
-0.3784513385826772
20
-0.4764410236220472
11
-0.3779527559055118
21
-0.4763350393700787
0
LINE
8
BLACK
6
CONTINUOUS
10
-0.3779527559055118
20
-0.4763350393700787
11
-0.3779527559055118
21
-0.4402003543307086
0
LINE
8
BLACK
6
CONTINUOUS
10
-0.3779527559055118
20
-0.4402003543307086
11
-0.3784513385826772
21
-0.4400944094488189
0
LINE
8
BLACK
6
CONTINUOUS
10
-0.3784513385826772
20
-0.4400944094488189
11
-0.3848425196850394
21
-0.4372488976377953
0
LINE
8
BLACK
6
CONTINUOUS
10
-0.3848425196850394
20
-0.4372488976377953
11
-0.3905024015748031
21
-0.4331367322834646
0
LINE
8
BLACK
6
CONTINUOUS
10
-0.3905024015748031
20
-0.4331367322834646
11
-0.3951836220472441
21
-0.4279376771653543
0
LINE
8
BLACK
6
CONTINUOUS
10
-0.3951836220472441
20
-0.4279376771653543
11
-0.3986816535433071
21
-0.4218789763779527
0
LINE
8
BLACK
6
CONTINUOUS
10
-0.3986816535433071
20
-0.4218789763779527
11
-0.3999061811023622
21
-0.4181102362204724
0
LINE
8
BLACK
6
CONTINUOUS
10
-0.3999061811023622
20
-0.4181102362204724
11
-0.4204974803149606
21
-0.4181102362204724
0
LINE
8
BLACK
6
CONTINUOUS
10
0.3966535433070866
20
-0.4688976377952756
11
0.4202755905511811
21
-0.4688976377952756
0
LINE
8
BLACK
6
CONTINUOUS
10
0.4202755905511811
20
-0.4688976377952756
11
0.4202755905511811
21
-0.49251968503937
0
LINE
8
BLACK
6
CONTINUOUS
10
0.4202755905511811
20
-0.49251968503937
11
0.4399606299212598
21
-0.49251968503937
0
LINE
8
BLACK
6
CONTINUOUS
10
0.4399606299212598
20
-0.49251968503937
11
0.4399606299212598
21
-0.4670146456692914
0
LINE
8
BLACK
6
CONTINUOUS
10
0.4399606299212598
20
-0.4670146456692914
11
0.4399605905511811
21
-0.4670139763779527
0
LINE
8
BLACK
6
CONTINUOUS
10
0.4399605905511811
20
-0.4670139763779527
11
0.4397085826771653
21
-0.4646703543307086
0
LINE
8
BLACK
6
CONTINUOUS
10
0.4397085826771653
20
-0.4646703543307086
11
0.4397085039370079
21
-0.4646700787401575
0
LINE
8
BLACK
6
CONTINUOUS
10
0.4397085039370079
20
-0.4646700787401575
11
0.4377304724409449
21
-0.4593666535433071
0
LINE
8
BLACK
6
CONTINUOUS
10
0.4377304724409449
20
-0.4593666535433071
11
0.4377303149606299
21
-0.4593663779527559
0
LINE
8
BLACK
6
CONTINUOUS
10
0.4377303149606299
20
-0.4593663779527559
11
0.4343381889763779
21
-0.4548351181102362
0
LINE
8
BLACK
6
CONTINUOUS
10
0.4343381889763779
20
-0.4548351181102362
11
0.4343380708661417
21
-0.454835
0
LINE
8
BLACK
6
CONTINUOUS
10
0.4343380708661417
20
-0.454835
11
0.4298068110236221
21
-0.451442874015748
0
LINE
8
BLACK
6
CONTINUOUS
10
0.4298068110236221
20
-0.451442874015748
11
0.4298065354330708
21
-0.4514427165354331
0
LINE
8
BLACK
6
CONTINUOUS
10
0.4298065354330708
20
-0.4514427165354331
11
0.4245031102362204
21
-0.4494646850393701
0
LINE
8
BLACK
6
CONTINUOUS
10
0.4245031102362204
20
-0.4494646850393701
11
0.4245028346456693
21
-0.4494646062992126
0
LINE
8
BLACK
6
CONTINUOUS
10
0.4245028346456693
20
-0.4494646062992126
11
0.4221592125984252
21
-0.4492125984251968
0
LINE
8
BLACK
6
CONTINUOUS
10
0.4221592125984252
20
-0.4492125984251968
11
0.3966535433070866
21
-0.4492125984251968
0
LINE
8
BLACK
6
CONTINUOUS
10
0.3966535433070866
20
-0.4492125984251968
11
0.3966535433070866
21
-0.4688976377952756
0
LINE
8
BLACK
6
CONTINUOUS
10
-0.3863577559055118
20
-0.3581325590551181
11
-0.3863579921259843
21
-0.3581326771653543
0
LINE
8
BLACK
6
CONTINUOUS
10
-0.3863579921259843
20
-0.3581326771653543
11
-0.3947865354330709
21
-0.3620629527559055
0
LINE
8
BLACK
6
CONTINUOUS
10
-0.3947865354330709
20
-0.3620629527559055
11
-0.3947866141732284
21
-0.3620629921259843
0
LINE
8
BLACK
6
CONTINUOUS
10
-0.3947866141732284
20
-0.3620629921259843
11
-0.4024044881889764
21
-0.3673970866141732
0
LINE
8
BLACK
6
CONTINUOUS
10
-0.4024044881889764
20
-0.3673970866141732
11
-0.4024047244094488
21
-0.3673972834645669
0
LINE
8
BLACK
6
CONTINUOUS
10
-0.4024047244094488
20
-0.3673972834645669
11
-0.4089806692913386
21
-0.3739732283464567
0
LINE
8
BLACK
6
CONTINUOUS
10
-0.4089806692913386
20
-0.3739732283464567
11
-0.4089808661417323
21
-0.3739734645669291
0
LINE
8
BLACK
6
CONTINUOUS
10
-0.4089808661417323
20
-0.3739734645669291
11
-0.4143149606299212
21
-0.3815913385826771
0
LINE
8
BLACK
6
CONTINUOUS
10
-0.4143149606299212
20
-0.3815913385826771
11
-0.414315
21
-0.3815914173228346
0
LINE
8
BLACK
6
CONTINUOUS
10
-0.414315
20
-0.3815914173228346
11
-0.4182452755905512
21
-0.3900199606299212
0
LINE
8
BLACK
6
CONTINUOUS
10
-0.4182452755905512
20
-0.3900199606299212
11
-0.4182453937007874
21
-0.3900201968503937
0
LINE
8
BLACK
6
CONTINUOUS
10
-0.4182453937007874
20
-0.3900201968503937
11
-0.4204974803149606
21
-0.3984251574803149
0
LINE
8
BLACK
6
CONTINUOUS
10
-0.4204974803149606
20
-0.3984251574803149
11
-0.4204974803149606
21
-0.3984251968503937
0
LINE
8
BLACK
6
CONTINUOUS
10
-0.4204974803149606
20
-0.3984251968503937
11
-0.3999061811023622
21
-0.3984251968503937
0
LINE
8
BLACK
6
CONTINUOUS
10
-0.3999061811023622
20
-0.3984251968503937
11
-0.3986816535433071
21
-0.3946564566929134
0
LINE
8
BLACK
6
CONTINUOUS
10
-0.3986816535433071
20
-0.3946564566929134
11
-0.3951836220472441
21
-0.3885977559055118
0
LINE
8
BLACK
6
CONTINUOUS
10
-0.3951836220472441
20
-0.3885977559055118
11
-0.3905024015748031
21
-0.3833987007874016
0
LINE
8
BLACK
6
CONTINUOUS
10
-0.3905024015748031
20
-0.3833987007874016
11
-0.3848425196850394
21
-0.3792865354330708
0
LINE
8
BLACK
6
CONTINUOUS
10
-0.3848425196850394
20
-0.3792865354330708
11
-0.3784513385826772
21
-0.3764410236220472
0
LINE
8
BLACK
6
CONTINUOUS
10
-0.3784513385826772
20
-0.3764410236220472
11
-0.3779527559055118
21
-0.3763350393700787
0
LINE
8
BLACK
6
CONTINUOUS
10
-0.3779527559055118
20
-0.3763350393700787
11
-0.3779527559055118
21
-0.3558804724409449
0
LINE
8
BLACK
6
CONTINUOUS
10
-0.3779527559055118
20
-0.3558804724409449
11
-0.3779527952755906
21
-0.3558804724409449
0
LINE
8
BLACK
6
CONTINUOUS
10
-0.3779527952755906
20
-0.3558804724409449
11
-0.3863577559055118
21
-0.3581325590551181
0
LINE
8
BLACK
6
CONTINUOUS
10
-0.0199041338582677
20
0.3763778346456693
11
-0.0191090551181102
21
0.369320905511811
0
LINE
8
BLACK
6
CONTINUOUS
10
-0.0191090551181102
20
0.369320905511811
11
-0.0191090157480315
21
0.3693207086614173
0
LINE
8
BLACK
6
CONTINUOUS
10
-0.0191090157480315
20
0.3693207086614173
11
-0.0167633464566929
21
0.3626172047244094
0
LINE
8
BLACK
6
CONTINUOUS
10
-0.0167633464566929
20
0.3626172047244094
11
-0.0129848818897638
21
0.3566038582677165
0
LINE
8
BLACK
6
CONTINUOUS
10
-0.0129848818897638
20
0.3566038582677165
11
-0.0079630708661417
21
0.3515820472440945
0
LINE
8
BLACK
6
CONTINUOUS
10
-0.0079630708661417
20
0.3515820472440945
11
-0.0019496850393701
21
0.3478035826771653
0
LINE
8
BLACK
6
CONTINUOUS
10
-0.0019496850393701
20
0.3478035826771653
11
0.0047535039370079
21
0.345458031496063
0
LINE
8
BLACK
6
CONTINUOUS
10
0.0047535039370079
20
0.345458031496063
11
0.0047537401574803
21
0.3454579527559055
0
LINE
8
BLACK
6
CONTINUOUS
10
0.0047537401574803
20
0.3454579527559055
11
0.004753937007874
21
0.3454579133858268
0
LINE
8
BLACK
6
CONTINUOUS
10
0.004753937007874
20
0.3454579133858268
11
0.0118108661417323
21
0.3446627952755905
0
LINE
8
BLACK
6
CONTINUOUS
10
0.0118108661417323
20
0.3446627952755905
11
0.0118110236220472
21
0.3446627952755905
0
LINE
8
BLACK
6
CONTINUOUS
10
0.0118110236220472
20
0.3446627952755905
11
0.0118111811023622
21
0.3446627952755905
0
LINE
8
BLACK
6
CONTINUOUS
10
0.0118111811023622
20
0.3446627952755905
11
0.0188680708661417
21
0.3454579133858268
0
LINE
8
BLACK
6
CONTINUOUS
10
0.0188680708661417
20
0.3454579133858268
11
0.0188681496062992
21
0.3454579527559055
0
LINE
8
BLACK
6
CONTINUOUS
10
0.0188681496062992
20
0.3454579527559055
11
0.0188683070866142
21
0.3454579527559055
0
LINE
8
BLACK
6
CONTINUOUS
10
0.0188683070866142
20
0.3454579527559055
11
0.0188684251968504
21
0.345458031496063
0
LINE
8
BLACK
6
CONTINUOUS
10
0.0188684251968504
20
0.345458031496063
11
0.0188685826771654
21
0.345458031496063
0
LINE
8
BLACK
6
CONTINUOUS
10
0.0188685826771654
20
0.345458031496063
11
0.0224164173228346
21
0.3466995275590551
0
LINE
8
BLACK
6
CONTINUOUS
10
0.0224164173228346
20
0.3466995275590551
11
0.0255717322834646
21
0.3478035826771653
0
LINE
8
BLACK
6
CONTINUOUS
10
0.0255717322834646
20
0.3478035826771653
11
0.0290982677165354
21
0.3500194881889764
0
LINE
8
BLACK
6
CONTINUOUS
10
0.0290982677165354
20
0.3500194881889764
11
0.0316955905511811
21
0.350767716535433
0
LINE
8
BLACK
6
CONTINUOUS
10
0.0316955905511811
20
0.350767716535433
11
0.1877634645669291
21
0.350767716535433
0
LINE
8
BLACK
6
CONTINUOUS
10
0.1877634645669291
20
0.350767716535433
11
0.1904027952755905
21
0.3499927165354331
0
LINE
8
BLACK
6
CONTINUOUS
10
0.1904027952755905
20
0.3499927165354331
11
0.1912154724409449
21
0.3493378346456693
0
LINE
8
BLACK
6
CONTINUOUS
10
0.1912154724409449
20
0.3493378346456693
11
0.2041452362204724
21
0.3364080708661417
0
LINE
8
BLACK
6
CONTINUOUS
10
0.2041452362204724
20
0.3364080708661417
11
0.2065110236220472
21
0.3383932283464567
0
LINE
8
BLACK
6
CONTINUOUS
10
0.2065110236220472
20
0.3383932283464567
11
0.2103655905511811
21
0.3397961417322835
0
LINE
8
BLACK
6
CONTINUOUS
10
0.2103655905511811
20
0.3397961417322835
11
0.2144674803149606
21
0.3397961417322835
0
LINE
8
BLACK
6
CONTINUOUS
10
0.2144674803149606
20
0.3397961417322835
11
0.2183220472440945
21
0.3383932283464567
0
LINE
8
BLACK
6
CONTINUOUS
10
0.2183220472440945
20
0.3383932283464567
11
0.2214642913385827
21
0.3357565354330709
0
LINE
8
BLACK
6
CONTINUOUS
10
0.2214642913385827
20
0.3357565354330709
11
0.2235152755905512
21
0.3322041732283464
0
LINE
8
BLACK
6
CONTINUOUS
10
0.2235152755905512
20
0.3322041732283464
11
0.2242275590551181
21
0.3281645669291339
0
LINE
8
BLACK
6
CONTINUOUS
10
0.2242275590551181
20
0.3281645669291339
11
0.2235152755905512
21
0.3241249606299212
0
LINE
8
BLACK
6
CONTINUOUS
10
0.2235152755905512
20
0.3241249606299212
11
0.2214642913385827
21
0.3205725984251969
0
LINE
8
BLACK
6
CONTINUOUS
10
0.2214642913385827
20
0.3205725984251969
11
0.2206575984251968
21
0.3198957086614173
0
LINE
8
BLACK
6
CONTINUOUS
10
0.2206575984251968
20
0.3198957086614173
11
0.2587866535433071
21
0.2817666535433071
0
LINE
8
BLACK
6
CONTINUOUS
10
0.2587866535433071
20
0.2817666535433071
11
0.2601049606299213
21
0.2793523622047244
0
LINE
8
BLACK
6
CONTINUOUS
10
0.2601049606299213
20
0.2793523622047244
11
0.2602165354330709
21
0.2783146456692913
0
LINE
8
BLACK
6
CONTINUOUS
10
0.2602165354330709
20
0.2783146456692913
11
0.2602165354330709
21
0.1655538976377953
0
LINE
8
BLACK
6
CONTINUOUS
10
0.2602165354330709
20
0.1655538976377953
11
0.2594682677165354
21
0.1629565748031496
0
LINE
8
BLACK
6
CONTINUOUS
10
0.2594682677165354
20
0.1629565748031496
11
0.2572524015748032
21
0.1594300393700787
0
LINE
8
BLACK
6
CONTINUOUS
10
0.2572524015748032
20
0.1594300393700787
11
0.2572523228346457
21
0.1594298818897638
0
LINE
8
BLACK
6
CONTINUOUS
10
0.2572523228346457
20
0.1594298818897638
11
0.2549068110236221
21
0.1527268897637795
0
LINE
8
BLACK
6
CONTINUOUS
10
0.2549068110236221
20
0.1527268897637795
11
0.2549066929133858
21
0.1527263779527559
0
LINE
8
BLACK
6
CONTINUOUS
10
0.2549066929133858
20
0.1527263779527559
11
0.2541116141732284
21
0.1456694488188976
0
LINE
8
BLACK
6
CONTINUOUS
10
0.2541116141732284
20
0.1456694488188976
11
0.2541116141732284
21
0.1456691732283465
0
LINE
8
BLACK
6
CONTINUOUS
10
0.2541116141732284
20
0.1456691732283465
11
0.2549066929133858
21
0.1386122440944882
0
LINE
8
BLACK
6
CONTINUOUS
10
0.2549066929133858
20
0.1386122440944882
11
0.2549067322834646
21
0.1386120472440945
0
LINE
8
BLACK
6
CONTINUOUS
10
0.2549067322834646
20
0.1386120472440945
11
0.2572524015748032
21
0.1319085433070866
0
LINE
8
BLACK
6
CONTINUOUS
10
0.2572524015748032
20
0.1319085433070866
11
0.2610308661417323
21
0.1258951968503937
0
LINE
8
BLACK
6
CONTINUOUS
10
0.2610308661417323
20
0.1258951968503937
11
0.2660526771653543
21
0.1208733858267717
0
LINE
8
BLACK
6
CONTINUOUS
10
0.2660526771653543
20
0.1208733858267717
11
0.272066062992126
21
0.1170949212598425
0
LINE
8
BLACK
6
CONTINUOUS
10
0.272066062992126
20
0.1170949212598425
11
0.2787694881889763
21
0.1147492913385827
0
LINE
8
BLACK
6
CONTINUOUS
10
0.2787694881889763
20
0.1147492913385827
11
0.2787696850393701
21
0.1147492519685039
0
LINE
8
BLACK
6
CONTINUOUS
10
0.2787696850393701
20
0.1147492519685039
11
0.2858266141732284
21
0.1139541338582677
0
LINE
8
BLACK
6
CONTINUOUS
10
0.2858266141732284
20
0.1139541338582677
11
0.2858267716535433
21
0.1139541338582677
0
LINE
8
BLACK
6
CONTINUOUS
10
0.2858267716535433
20
0.1139541338582677
11
0.2858269291338583
21
0.1139541338582677
0
LINE
8
BLACK
6
CONTINUOUS
10
0.2858269291338583
20
0.1139541338582677
11
0.2928838188976378
21
0.1147492519685039
0
LINE
8
BLACK
6
CONTINUOUS
10
0.2928838188976378
20
0.1147492519685039
11
0.292883937007874
21
0.1147492913385827
0
LINE
8
BLACK
6
CONTINUOUS
10
0.292883937007874
20
0.1147492913385827
11
0.2928840551181102
21
0.1147492913385827
0
LINE
8
BLACK
6
CONTINUOUS
10
0.2928840551181102
20
0.1147492913385827
11
0.2995874803149606
21
0.1170949212598425
0
LINE
8
BLACK
6
CONTINUOUS
10
0.2995874803149606
20
0.1170949212598425
11
0.3056008661417323
21
0.1208733858267717
0
LINE
8
BLACK
6
CONTINUOUS
10
0.3056008661417323
20
0.1208733858267717
11
0.3106226771653543
21
0.1258951968503937
0
LINE
8
BLACK
6
CONTINUOUS
10
0.3106226771653543
20
0.1258951968503937
11
0.3144011417322835
21
0.1319085826771653
0
LINE
8
BLACK
6
CONTINUOUS
10
0.3144011417322835
20
0.1319085826771653
11
0.3167467716535433
21
0.1386120078740158
0
LINE
8
BLACK
6
CONTINUOUS
10
0.3167467716535433
20
0.1386120078740158
11
0.3175419291338583
21
0.1456692913385827
0
LINE
8
BLACK
6
CONTINUOUS
10
0.3175419291338583
20
0.1456692913385827
11
0.3167467716535433
21
0.1527265748031496
0
LINE
8
BLACK
6
CONTINUOUS
10
0.3167467716535433
20
0.1527265748031496
11
0.3167467322834646
21
0.1527266535433071
0
LINE
8
BLACK
6
CONTINUOUS
10
0.3167467322834646
20
0.1527266535433071
11
0.3167466929133858
21
0.1527268897637795
0
LINE
8
BLACK
6
CONTINUOUS
10
0.3167466929133858
20
0.1527268897637795
11
0.3144011811023622
21
0.1594298818897638
0
LINE
8
BLACK
6
CONTINUOUS
10
0.3144011811023622
20
0.1594298818897638
11
0.3144011417322835
21
0.15943
0
LINE
8
BLACK
6
CONTINUOUS
10
0.3144011417322835
20
0.15943
11
0.3135436220472441
21
0.1607947244094488
0
LINE
8
BLACK
6
CONTINUOUS
10
0.3135436220472441
20
0.1607947244094488
11
0.3121852755905511
21
0.1629565748031496
0
LINE
8
BLACK
6
CONTINUOUS
10
0.3121852755905511
20
0.1629565748031496
11
0.3114370078740157
21
0.1655538976377953
0
LINE
8
BLACK
6
CONTINUOUS
10
0.3114370078740157
20
0.1655538976377953
11
0.3114370078740157
21
0.2934674015748032
0
LINE
8
BLACK
6
CONTINUOUS
10
0.3114370078740157
20
0.2934674015748032
11
0.3104528346456693
21
0.2984149212598425
0
LINE
8
BLACK
6
CONTINUOUS
10
0.3104528346456693
20
0.2984149212598425
11
0.3104527952755906
21
0.2984149606299212
0
LINE
8
BLACK
6
CONTINUOUS
10
0.3104527952755906
20
0.2984149606299212
11
0.3104527952755906
21
0.2984151181102362
0
LINE
8
BLACK
6
CONTINUOUS
10
0.3104527952755906
20
0.2984151181102362
11
0.3085222440944882
21
0.3030758661417323
0
LINE
8
BLACK
6
CONTINUOUS
10
0.3085222440944882
20
0.3030758661417323
11
0.3071625196850394
21
0.3051108661417323
0
LINE
8
BLACK
6
CONTINUOUS
10
0.3071625196850394
20
0.3051108661417323
11
0.3071625196850394
21
0.305110905511811
0
LINE
8
BLACK
6
CONTINUOUS
10
0.3071625196850394
20
0.305110905511811
11
0.3057196456692913
21
0.3072703149606299
0
LINE
8
BLACK
6
CONTINUOUS
10
0.3057196456692913
20
0.3072703149606299
11
0.3057194094488189
21
0.3072706299212598
0
LINE
8
BLACK
6
CONTINUOUS
10
0.3057194094488189
20
0.3072706299212598
11
0.2167194094488189
21
0.3962706299212598
0
LINE
8
BLACK
6
CONTINUOUS
10
0.2167194094488189
20
0.3962706299212598
11
0.2167192519685039
21
0.396270748031496
0
LINE
8
BLACK
6
CONTINUOUS
10
0.2167192519685039
20
0.396270748031496
11
0.2125246850393701
21
0.3990734251968504
0
LINE
8
BLACK
6
CONTINUOUS
10
0.2125246850393701
20
0.3990734251968504
11
0.207863937007874
21
0.4010039763779528
0
LINE
8
BLACK
6
CONTINUOUS
10
0.207863937007874
20
0.4010039763779528
11
0.2078637007874016
21
0.4010040551181102
0
LINE
8
BLACK
6
CONTINUOUS
10
0.2078637007874016
20
0.4010040551181102
11
0.2029161811023622
21
0.4019881889763779
0
LINE
8
BLACK
6
CONTINUOUS
10
0.2029161811023622
20
0.4019881889763779
11
0.2029161023622047
21
0.4019881889763779
0
LINE
8
BLACK
6
CONTINUOUS
10
0.2029161023622047
20
0.4019881889763779
11
0.0316955905511811
21
0.4019881889763779
0
LINE
8
BLACK
6
CONTINUOUS
10
0.0316955905511811
20
0.4019881889763779
11
0.0290982677165354
21
0.4027364566929134
0
LINE
8
BLACK
6
CONTINUOUS
10
0.0290982677165354
20
0.4027364566929134
11
0.0255717322834646
21
0.4049523622047244
0
LINE
8
BLACK
6
CONTINUOUS
10
0.0255717322834646
20
0.4049523622047244
11
0.0255715748031496
21
0.4049524015748032
0
LINE
8
BLACK
6
CONTINUOUS
10
0.0255715748031496
20
0.4049524015748032
11
0.0188685826771654
21
0.4072979133858268
0
LINE
8
BLACK
6
CONTINUOUS
10
0.0188685826771654
20
0.4072979133858268
11
0.0188680708661417
21
0.407298031496063
0
LINE
8
BLACK
6
CONTINUOUS
10
0.0188680708661417
20
0.407298031496063
11
0.0118111811023622
21
0.4080931102362205
0
LINE
8
BLACK
6
CONTINUOUS
10
0.0118111811023622
20
0.4080931102362205
11
0.0118108661417323
21
0.4080931102362205
0
LINE
8
BLACK
6
CONTINUOUS
10
0.0118108661417323
20
0.4080931102362205
11
0.004753937007874
21
0.407298031496063
0
LINE
8
BLACK
6
CONTINUOUS
10
0.004753937007874
20
0.407298031496063
11
0.0047537401574803
21
0.4072979921259842
0
LINE
8
BLACK
6
CONTINUOUS
10
0.0047537401574803
20
0.4072979921259842
11
-0.0019497637795276
21
0.4049523228346457
0
LINE
8
BLACK
6
CONTINUOUS
10
-0.0019497637795276
20
0.4049523228346457
11
-0.0079631102362205
21
0.4011738582677165
0
LINE
8
BLACK
6
CONTINUOUS
10
-0.0079631102362205
20
0.4011738582677165
11
-0.0129848818897638
21
0.3961520866141732
0
LINE
8
BLACK
6
CONTINUOUS
10
-0.0129848818897638
20
0.3961520866141732
11
-0.0167633464566929
21
0.3901387401574803
0
LINE
8
BLACK
6
CONTINUOUS
10
-0.0167633464566929
20
0.3901387401574803
11
-0.0191090157480315
21
0.3834352362204724
0
LINE
8
BLACK
6
CONTINUOUS
10
-0.0191090157480315
20
0.3834352362204724
11
-0.0191090551181102
21
0.3834350393700787
0
LINE
8
BLACK
6
CONTINUOUS
10
-0.0191090551181102
20
0.3834350393700787
11
-0.0199041338582677
21
0.3763781102362205
0
LINE
8
BLACK
6
CONTINUOUS
10
-0.0199041338582677
20
0.3763781102362205
11
-0.0199041338582677
21
0.3763778346456693
0
LINE
8
BLACK
6
CONTINUOUS
10
0.0076549212598425
20
0.4677164173228346
11
0.00845
21
0.4606594881889763
0
LINE
8
BLACK
6
CONTINUOUS
10
0.00845
20
0.4606594881889763
11
0.0084500393700787
21
0.4606592913385827
0
LINE
8
BLACK
6
CONTINUOUS
10
0.0084500393700787
20
0.4606592913385827
11
0.0107957086614173
21
0.4539557874015748
0
LINE
8
BLACK
6
CONTINUOUS
10
0.0107957086614173
20
0.4539557874015748
11
0.0145741732283465
21
0.4479424409448819
0
LINE
8
BLACK
6
CONTINUOUS
10
0.0145741732283465
20
0.4479424409448819
11
0.0195959842519685
21
0.4429206299212599
0
LINE
8
BLACK
6
CONTINUOUS
10
0.0195959842519685
20
0.4429206299212599
11
0.0256093700787402
21
0.4391421653543307
0
LINE
8
BLACK
6
CONTINUOUS
10
0.0256093700787402
20
0.4391421653543307
11
0.0323127952755905
21
0.4367965354330708
0
LINE
8
BLACK
6
CONTINUOUS
10
0.0323127952755905
20
0.4367965354330708
11
0.0325974015748031
21
0.4367644881889763
0
LINE
8
BLACK
6
CONTINUOUS
10
0.0325974015748031
20
0.4367644881889763
11
0.0351333858267717
21
0.4356989763779527
0
LINE
8
BLACK
6
CONTINUOUS
10
0.0351333858267717
20
0.4356989763779527
11
0.0355029921259842
21
0.4353652755905512
0
LINE
8
BLACK
6
CONTINUOUS
10
0.0355029921259842
20
0.4353652755905512
11
0.0430993700787402
21
0.427768937007874
0
LINE
8
BLACK
6
CONTINUOUS
10
0.0430993700787402
20
0.427768937007874
11
0.0466665748031496
21
0.4242017322834646
0
LINE
8
BLACK
6
CONTINUOUS
10
0.0466665748031496
20
0.4242017322834646
11
0.0466666141732283
21
0.4242016929133858
0
LINE
8
BLACK
6
CONTINUOUS
10
0.0466666141732283
20
0.4242016929133858
11
0.0508608661417323
21
0.4213991732283465
0
LINE
8
BLACK
6
CONTINUOUS
10
0.0508608661417323
20
0.4213991732283465
11
0.0508611023622047
21
0.4213990551181102
0
LINE
8
BLACK
6
CONTINUOUS
10
0.0508611023622047
20
0.4213990551181102
11
0.0508611417322835
21
0.4213990157480315
0
LINE
8
BLACK
6
CONTINUOUS
10
0.0508611417322835
20
0.4213990157480315
11
0.0555218897637795
21
0.4194684645669291
0
LINE
8
BLACK
6
CONTINUOUS
10
0.0555218897637795
20
0.4194684645669291
11
0.0555220472440945
21
0.4194684645669291
0
LINE
8
BLACK
6
CONTINUOUS
10
0.0555220472440945
20
0.4194684645669291
11
0.0555220866141732
21
0.4194684251968504
0
LINE
8
BLACK
6
CONTINUOUS
10
0.0555220866141732
20
0.4194684251968504
11
0.0604696062992126
21
0.4184842519685039
0
LINE
8
BLACK
6
CONTINUOUS
10
0.0604696062992126
20
0.4184842519685039
11
0.0604697244094488
21
0.4184842519685039
0
LINE
8
BLACK
6
CONTINUOUS
10
0.0604697244094488
20
0.4184842519685039
11
0.283728031496063
21
0.4184842519685039
0
LINE
8
BLACK
6
CONTINUOUS
10
0.283728031496063
20
0.4184842519685039
11
0.2863673622047244
21
0.4177092519685039
0
LINE
8
BLACK
6
CONTINUOUS
10
0.2863673622047244
20
0.4177092519685039
11
0.2871800393700787
21
0.4170543700787401
0
LINE
8
BLACK
6
CONTINUOUS
10
0.2871800393700787
20
0.4170543700787401
11
0.4278849212598425
21
0.2763494881889764
0
LINE
8
BLACK
6
CONTINUOUS
10
0.4278849212598425
20
0.2763494881889764
11
0.4292032283464567
21
0.2739351968503937
0
LINE
8
BLACK
6
CONTINUOUS
10
0.4292032283464567
20
0.2739351968503937
11
0.4292840551181102
21
0.2734444094488189
0
LINE
8
BLACK
6
CONTINUOUS
10
0.4292840551181102
20
0.2734444094488189
11
0.4293161417322834
21
0.2731596062992126
0
LINE
8
BLACK
6
CONTINUOUS
10
0.4293161417322834
20
0.2731596062992126
11
0.4293162204724409
21
0.2731592519685039
0
LINE
8
BLACK
6
CONTINUOUS
10
0.4293162204724409
20
0.2731592519685039
11
0.4316618110236221
21
0.2664558661417323
0
LINE
8
BLACK
6
CONTINUOUS
10
0.4316618110236221
20
0.2664558661417323
11
0.4353784645669291
21
0.2605408661417323
0
LINE
8
BLACK
6
CONTINUOUS
10
0.4353784645669291
20
0.2605408661417323
11
0.4354403149606299
21
0.2604424409448819
0
LINE
8
BLACK
6
CONTINUOUS
10
0.4354403149606299
20
0.2604424409448819
11
0.4404621259842519
21
0.2554206299212599
0
LINE
8
BLACK
6
CONTINUOUS
10
0.4404621259842519
20
0.2554206299212599
11
0.4464755118110236
21
0.2516421653543307
0
LINE
8
BLACK
6
CONTINUOUS
10
0.4464755118110236
20
0.2516421653543307
11
0.4528976377952756
21
0.2493949606299213
0
LINE
8
BLACK
6
CONTINUOUS
10
0.4528976377952756
20
0.2493949606299213
11
0.453178937007874
21
0.2492965354330709
0
LINE
8
BLACK
6
CONTINUOUS
10
0.453178937007874
20
0.2492965354330709
11
0.4531791338582677
21
0.2492964960629921
0
LINE
8
BLACK
6
CONTINUOUS
10
0.4531791338582677
20
0.2492964960629921
11
0.460236062992126
21
0.2485013779527559
0
LINE
8
BLACK
6
CONTINUOUS
10
0.460236062992126
20
0.2485013779527559
11
0.4602362204724409
21
0.2485013779527559
0
LINE
8
BLACK
6
CONTINUOUS
10
0.4602362204724409
20
0.2485013779527559
11
0.4602363779527559
21
0.2485013779527559
0
LINE
8
BLACK
6
CONTINUOUS
10
0.4602363779527559
20
0.2485013779527559
11
0.4672932677165354
21
0.2492964960629921
0
LINE
8
BLACK
6
CONTINUOUS
10
0.4672932677165354
20
0.2492964960629921
11
0.4672933858267717
21
0.2492965354330709
0
LINE
8
BLACK
6
CONTINUOUS
10
0.4672933858267717
20
0.2492965354330709
11
0.4672935039370079
21
0.2492965354330709
0
LINE
8
BLACK
6
CONTINUOUS
10
0.4672935039370079
20
0.2492965354330709
11
0.4739969291338583
21
0.2516421653543307
0
LINE
8
BLACK
6
CONTINUOUS
10
0.4739969291338583
20
0.2516421653543307
11
0.4800103149606299
21
0.2554206299212599
0
LINE
8
BLACK
6
CONTINUOUS
10
0.4800103149606299
20
0.2554206299212599
11
0.4850321259842519
21
0.2604424409448819
0
LINE
8
BLACK
6
CONTINUOUS
10
0.4850321259842519
20
0.2604424409448819
11
0.4888105905511811
21
0.2664558267716535
0
LINE
8
BLACK
6
CONTINUOUS
10
0.4888105905511811
20
0.2664558267716535
11
0.491156220472441
21
0.2731592519685039
0
LINE
8
BLACK
6
CONTINUOUS
10
0.491156220472441
20
0.2731592519685039
11
0.4911673228346456
21
0.2732577165354331
0
LINE
8
BLACK
6
CONTINUOUS
10
0.4911673228346456
20
0.2732577165354331
11
0.4919513779527559
21
0.2802164173228346
0
LINE
8
BLACK
6
CONTINUOUS
10
0.4919513779527559
20
0.2802164173228346
11
0.4919513779527559
21
0.2802166929133858
0
LINE
8
BLACK
6
CONTINUOUS
10
0.4919513779527559
20
0.2802166929133858
11
0.4911562598425196
21
0.2872736220472441
0
LINE
8
BLACK
6
CONTINUOUS
10
0.4911562598425196
20
0.2872736220472441
11
0.491156220472441
21
0.2872738188976378
0
LINE
8
BLACK
6
CONTINUOUS
10
0.491156220472441
20
0.2872738188976378
11
0.4888105511811023
21
0.2939773228346457
0
LINE
8
BLACK
6
CONTINUOUS
10
0.4888105511811023
20
0.2939773228346457
11
0.4850320866141732
21
0.2999906692913386
0
LINE
8
BLACK
6
CONTINUOUS
10
0.4850320866141732
20
0.2999906692913386
11
0.4800103149606299
21
0.3050124409448819
0
LINE
8
BLACK
6
CONTINUOUS
10
0.4800103149606299
20
0.3050124409448819
11
0.4739968897637795
21
0.3087909448818897
0
LINE
8
BLACK
6
CONTINUOUS
10
0.4739968897637795
20
0.3087909448818897
11
0.4672935039370079
21
0.3111365354330708
0
LINE
8
BLACK
6
CONTINUOUS
10
0.4672935039370079
20
0.3111365354330708
11
0.4672931496062992
21
0.3111366141732284
0
LINE
8
BLACK
6
CONTINUOUS
10
0.4672931496062992
20
0.3111366141732284
11
0.4670083464566929
21
0.3111687007874016
0
LINE
8
BLACK
6
CONTINUOUS
10
0.4670083464566929
20
0.3111687007874016
11
0.4644724409448819
21
0.3122344881889764
0
LINE
8
BLACK
6
CONTINUOUS
10
0.4644724409448819
20
0.3122344881889764
11
0.4641032677165354
21
0.3125678346456693
0
LINE
8
BLACK
6
CONTINUOUS
10
0.4641032677165354
20
0.3125678346456693
11
0.3126840157480315
21
0.463987125984252
0
LINE
8
BLACK
6
CONTINUOUS
10
0.3126840157480315
20
0.463987125984252
11
0.3126839763779528
21
0.4639871653543307
0
LINE
8
BLACK
6
CONTINUOUS
10
0.3126839763779528
20
0.4639871653543307
11
0.3126838188976378
21
0.4639872834645669
0
LINE
8
BLACK
6
CONTINUOUS
10
0.3126838188976378
20
0.4639872834645669
11
0.3084892519685039
21
0.4667899606299212
0
LINE
8
BLACK
6
CONTINUOUS
10
0.3084892519685039
20
0.4667899606299212
11
0.3038285039370079
21
0.4687205118110236
0
LINE
8
BLACK
6
CONTINUOUS
10
0.3038285039370079
20
0.4687205118110236
11
0.3038282677165354
21
0.4687205905511811
0
LINE
8
BLACK
6
CONTINUOUS
10
0.3038282677165354
20
0.4687205905511811
11
0.2988807480314961
21
0.4697047244094488
0
LINE
8
BLACK
6
CONTINUOUS
10
0.2988807480314961
20
0.4697047244094488
11
0.2988806692913386
21
0.4697047244094488
0
LINE
8
BLACK
6
CONTINUOUS
10
0.2988806692913386
20
0.4697047244094488
11
0.0756223622047244
21
0.4697047244094488
0
LINE
8
BLACK
6
CONTINUOUS
10
0.0756223622047244
20
0.4697047244094488
11
0.072983031496063
21
0.4704797244094488
0
LINE
8
BLACK
6
CONTINUOUS
10
0.072983031496063
20
0.4704797244094488
11
0.0721701968503937
21
0.4711347637795276
0
LINE
8
BLACK
6
CONTINUOUS
10
0.0721701968503937
20
0.4711347637795276
11
0.0717211811023622
21
0.4715838188976378
0
LINE
8
BLACK
6
CONTINUOUS
10
0.0717211811023622
20
0.4715838188976378
11
0.0704029921259842
21
0.4739981496062992
0
LINE
8
BLACK
6
CONTINUOUS
10
0.0704029921259842
20
0.4739981496062992
11
0.070322125984252
21
0.4744892519685039
0
LINE
8
BLACK
6
CONTINUOUS
10
0.070322125984252
20
0.4744892519685039
11
0.0702900787401575
21
0.4747738188976378
0
LINE
8
BLACK
6
CONTINUOUS
10
0.0702900787401575
20
0.4747738188976378
11
0.0679444488188976
21
0.4814772440944882
0
LINE
8
BLACK
6
CONTINUOUS
10
0.0679444488188976
20
0.4814772440944882
11
0.0655934645669291
21
0.4852188188976378
0
LINE
8
BLACK
6
CONTINUOUS
10
0.0655934645669291
20
0.4852188188976378
11
0.0652718897637795
21
0.4852188188976378
0
LINE
8
BLACK
6
CONTINUOUS
10
0.0652718897637795
20
0.4852188188976378
11
0.0614173228346457
21
0.4866217322834646
0
LINE
8
BLACK
6
CONTINUOUS
10
0.0614173228346457
20
0.4866217322834646
11
0.0582750787401575
21
0.4892584251968504
0
LINE
8
BLACK
6
CONTINUOUS
10
0.0582750787401575
20
0.4892584251968504
11
0.056224094488189
21
0.4928107874015748
0
LINE
8
BLACK
6
CONTINUOUS
10
0.056224094488189
20
0.4928107874015748
11
0.0559194094488189
21
0.4945387401574803
0
LINE
8
BLACK
6
CONTINUOUS
10
0.0559194094488189
20
0.4945387401574803
11
0.0531308267716535
21
0.496290905511811
0
LINE
8
BLACK
6
CONTINUOUS
10
0.0531308267716535
20
0.496290905511811
11
0.0464273228346457
21
0.4986365748031496
0
LINE
8
BLACK
6
CONTINUOUS
10
0.0464273228346457
20
0.4986365748031496
11
0.046427125984252
21
0.4986366141732284
0
LINE
8
BLACK
6
CONTINUOUS
10
0.046427125984252
20
0.4986366141732284
11
0.0393702362204724
21
0.4994316929133858
0
LINE
8
BLACK
6
CONTINUOUS
10
0.0393702362204724
20
0.4994316929133858
11
0.0393699212598425
21
0.4994316929133858
0
LINE
8
BLACK
6
CONTINUOUS
10
0.0393699212598425
20
0.4994316929133858
11
0.0323129921259842
21
0.4986366141732284
0
LINE
8
BLACK
6
CONTINUOUS
10
0.0323129921259842
20
0.4986366141732284
11
0.0323127952755905
21
0.4986365748031496
0
LINE
8
BLACK
6
CONTINUOUS
10
0.0323127952755905
20
0.4986365748031496
11
0.0256092913385827
21
0.496290905511811
0
LINE
8
BLACK
6
CONTINUOUS
10
0.0256092913385827
20
0.496290905511811
11
0.0195959448818898
21
0.4925124409448819
0
LINE
8
BLACK
6
CONTINUOUS
10
0.0195959448818898
20
0.4925124409448819
11
0.0145741732283465
21
0.4874906692913386
0
LINE
8
BLACK
6
CONTINUOUS
10
0.0145741732283465
20
0.4874906692913386
11
0.0107957086614173
21
0.4814773228346457
0
LINE
8
BLACK
6
CONTINUOUS
10
0.0107957086614173
20
0.4814773228346457
11
0.0084500393700787
21
0.4747738188976378
0
LINE
8
BLACK
6
CONTINUOUS
10
0.0084500393700787
20
0.4747738188976378
11
0.00845
21
0.4747736220472441
0
LINE
8
BLACK
6
CONTINUOUS
10
0.00845
20
0.4747736220472441
11
0.0076549212598425
21
0.4677166929133858
0
LINE
8
BLACK
6
CONTINUOUS
10
0.0076549212598425
20
0.4677166929133858
11
0.0076549212598425
21
0.4677164173228346
0
LINE
8
BLACK
6
CONTINUOUS
10
-0.3924395669291338
20
0.763513188976378
11
-0.3924398031496063
21
0.7635131496062992
0
LINE
8
BLACK
6
CONTINUOUS
10
-0.3924398031496063
20
0.7635131496062992
11
-0.4028147244094488
21
0.760606220472441
0
LINE
8
BLACK
6
CONTINUOUS
10
-0.4028147244094488
20
0.760606220472441
11
-0.4126972440944882
21
0.7563136614173228
0
LINE
8
BLACK
6
CONTINUOUS
10
-0.4126972440944882
20
0.7563136614173228
11
-0.4219032283464567
21
0.7507153937007874
0
LINE
8
BLACK
6
CONTINUOUS
10
-0.4219032283464567
20
0.7507153937007874
11
-0.4302612204724409
21
0.7439156692913386
0
LINE
8
BLACK
6
CONTINUOUS
10
-0.4302612204724409
20
0.7439156692913386
11
-0.4376157480314961
21
0.7360409448818898
0
LINE
8
BLACK
6
CONTINUOUS
10
-0.4376157480314961
20
0.7360409448818898
11
-0.4438289763779528
21
0.727238779527559
0
LINE
8
BLACK
6
CONTINUOUS
10
-0.4438289763779528
20
0.727238779527559
11
-0.4438291338582677
21
0.7272385433070866
0
LINE
8
BLACK
6
CONTINUOUS
10
-0.4438291338582677
20
0.7272385433070866
11
-0.4487862598425197
21
0.7176716929133858
0
LINE
8
BLACK
6
CONTINUOUS
10
-0.4487862598425197
20
0.7176716929133858
11
-0.4523943700787402
21
0.7075195275590551
0
LINE
8
BLACK
6
CONTINUOUS
10
-0.4523943700787402
20
0.7075195275590551
11
-0.4523945669291338
21
0.7075188976377953
0
LINE
8
BLACK
6
CONTINUOUS
10
-0.4523945669291338
20
0.7075188976377953
11
-0.4545865748031496
21
0.6969701181102362
0
LINE
8
BLACK
6
CONTINUOUS
10
-0.4545865748031496
20
0.6969701181102362
11
-0.4545866141732283
21
0.6969700393700787
0
LINE
8
BLACK
6
CONTINUOUS
10
-0.4545866141732283
20
0.6969700393700787
11
-0.4553218503937008
21
0.6862204724409449
0
LINE
8
BLACK
6
CONTINUOUS
10
-0.4553218503937008
20
0.6862204724409449
11
-0.4545866141732283
21
0.6754709448818897
0
LINE
8
BLACK
6
CONTINUOUS
10
-0.4545866141732283
20
0.6754709448818897
11
-0.4545865748031496
21
0.6754708661417322
0
LINE
8
BLACK
6
CONTINUOUS
10
-0.4545865748031496
20
0.6754708661417322
11
-0.4523945669291338
21
0.6649220866141732
0
LINE
8
BLACK
6
CONTINUOUS
10
-0.4523945669291338
20
0.6649220866141732
11
-0.4523943700787402
21
0.6649214566929134
0
LINE
8
BLACK
6
CONTINUOUS
10
-0.4523943700787402
20
0.6649214566929134
11
-0.4487862598425197
21
0.6547692913385826
0
LINE
8
BLACK
6
CONTINUOUS
10
-0.4487862598425197
20
0.6547692913385826
11
-0.4487862992125984
21
0.6547692913385826
0
LINE
8
BLACK
6
CONTINUOUS
10
-0.4487862992125984
20
0.6547692913385826
11
-0.4438291338582677
21
0.6452024409448819
0
LINE
8
BLACK
6
CONTINUOUS
10
-0.4438291338582677
20
0.6452024409448819
11
-0.4438289763779528
21
0.6452022047244095
0
LINE
8
BLACK
6
CONTINUOUS
10
-0.4438289763779528
20
0.6452022047244095
11
-0.4376157480314961
21
0.6364000393700787
0
LINE
8
BLACK
6
CONTINUOUS
10
-0.4376157480314961
20
0.6364000393700787
11
-0.4302612204724409
21
0.6285253149606299
0
LINE
8
BLACK
6
CONTINUOUS
10
-0.4302612204724409
20
0.6285253149606299
11
-0.4255865354330708
21
0.6247222047244094
0
LINE
8
BLACK
6
CONTINUOUS
10
-0.4255865354330708
20
0.6247222047244094
11
-0.4219033464566929
21
0.6217256692913385
0
LINE
8
BLACK
6
CONTINUOUS
10
-0.4219033464566929
20
0.6217256692913385
11
-0.4219032677165354
21
0.6217256299212598
0
LINE
8
BLACK
6
CONTINUOUS
10
-0.4219032677165354
20
0.6217256299212598
11
-0.4219032283464567
21
0.621725590551181
0
LINE
8
BLACK
6
CONTINUOUS
10
-0.4219032283464567
20
0.621725590551181
11
-0.4126972440944882
21
0.6161273228346457
0
LINE
8
BLACK
6
CONTINUOUS
10
-0.4126972440944882
20
0.6161273228346457
11
-0.4046762992125984
21
0.6126433858267717
0
LINE
8
BLACK
6
CONTINUOUS
10
-0.4046762992125984
20
0.6126433858267717
11
-0.4028146456692913
21
0.6118347244094489
0
LINE
8
BLACK
6
CONTINUOUS
10
-0.4028146456692913
20
0.6118347244094489
11
-0.3924395669291338
21
0.6089277559055118
0
LINE
8
BLACK
6
CONTINUOUS
10
-0.3924395669291338
20
0.6089277559055118
11
-0.3830551574803149
21
0.6076379527559055
0
LINE
8
BLACK
6
CONTINUOUS
10
-0.3830551574803149
20
0.6076379527559055
11
-0.3817653149606299
21
0.6074606299212598
0
LINE
8
BLACK
6
CONTINUOUS
10
-0.3817653149606299
20
0.6074606299212598
11
-0.3817652755905512
21
0.6074606299212598
0
LINE
8
BLACK
6
CONTINUOUS
10
-0.3817652755905512
20
0.6074606299212598
11
0.377040905511811
21
0.6074606299212598
0
LINE
8
BLACK
6
CONTINUOUS
10
0.377040905511811
20
0.6074606299212598
11
0.3781916535433071
21
0.6076188188976378
0
LINE
8
BLACK
6
CONTINUOUS
10
0.3781916535433071
20
0.6076188188976378
11
0.3877151574803149
21
0.6089277559055118
0
LINE
8
BLACK
6
CONTINUOUS
10
0.3877151574803149
20
0.6089277559055118
11
0.3980902362204724
21
0.6118347244094489
0
LINE
8
BLACK
6
CONTINUOUS
10
0.3980902362204724
20
0.6118347244094489
11
0.407972874015748
21
0.6161273622047244
0
LINE
8
BLACK
6
CONTINUOUS
10
0.407972874015748
20
0.6161273622047244
11
0.417178937007874
21
0.6217256692913385
0
LINE
8
BLACK
6
CONTINUOUS
10
0.417178937007874
20
0.6217256692913385
11
0.4255369291338583
21
0.6285254330708662
0
LINE
8
BLACK
6
CONTINUOUS
10
0.4255369291338583
20
0.6285254330708662
11
0.4328912204724409
21
0.6363999212598425
0
LINE
8
BLACK
6
CONTINUOUS
10
0.4328912204724409
20
0.6363999212598425
11
0.4391047244094488
21
0.6452024803149606
0
LINE
8
BLACK
6
CONTINUOUS
10
0.4391047244094488
20
0.6452024803149606
11
0.4440617716535433
21
0.6547691338582677
0
LINE
8
BLACK
6
CONTINUOUS
10
0.4440617716535433
20
0.6547691338582677
11
0.44767
21
0.6649216535433071
0
LINE
8
BLACK
6
CONTINUOUS
10
0.44767
20
0.6649216535433071
11
0.44767
21
0.6649218503937008
0
LINE
8
BLACK
6
CONTINUOUS
10
0.44767
20
0.6649218503937008
11
0.4476701181102362
21
0.6649220866141732
0
LINE
8
BLACK
6
CONTINUOUS
10
0.4476701181102362
20
0.6649220866141732
11
0.4488756299212598
21
0.6707236220472441
0
LINE
8
BLACK
6
CONTINUOUS
10
0.4488756299212598
20
0.6707236220472441
11
0.4498621653543307
21
0.6754709448818897
0
LINE
8
BLACK
6
CONTINUOUS
10
0.4498621653543307
20
0.6754709448818897
11
0.4505974409448819
21
0.6862204724409449
0
LINE
8
BLACK
6
CONTINUOUS
10
0.4505974409448819
20
0.6862204724409449
11
0.4498621653543307
21
0.69697
0
LINE
8
BLACK
6
CONTINUOUS
10
0.4498621653543307
20
0.69697
11
0.4484511023622047
21
0.7037604330708661
0
LINE
8
BLACK
6
CONTINUOUS
10
0.4484511023622047
20
0.7037604330708661
11
0.4476701181102362
21
0.7075188976377953
0
LINE
8
BLACK
6
CONTINUOUS
10
0.4476701181102362
20
0.7075188976377953
11
0.4476699212598425
21
0.7075195275590551
0
LINE
8
BLACK
6
CONTINUOUS
10
0.4476699212598425
20
0.7075195275590551
11
0.444061811023622
21
0.7176716929133858
0
LINE
8
BLACK
6
CONTINUOUS
10
0.444061811023622
20
0.7176716929133858
11
0.4440618503937008
21
0.7176716929133858
0
LINE
8
BLACK
6
CONTINUOUS
10
0.4440618503937008
20
0.7176716929133858
11
0.4391046850393701
21
0.7272385433070866
0
LINE
8
BLACK
6
CONTINUOUS
10
0.4391046850393701
20
0.7272385433070866
11
0.4391045275590551
21
0.727238779527559
0
LINE
8
BLACK
6
CONTINUOUS
10
0.4391045275590551
20
0.727238779527559
11
0.4328912992125984
21
0.7360409448818898
0
LINE
8
BLACK
6
CONTINUOUS
10
0.4328912992125984
20
0.7360409448818898
11
0.4255367716535433
21
0.7439156692913386
0
LINE
8
BLACK
6
CONTINUOUS
10
0.4255367716535433
20
0.7439156692913386
11
0.4171787795275591
21
0.7507153937007874
0
LINE
8
BLACK
6
CONTINUOUS
10
0.4171787795275591
20
0.7507153937007874
11
0.4079727952755905
21
0.7563136614173228
0
LINE
8
BLACK
6
CONTINUOUS
10
0.4079727952755905
20
0.7563136614173228
11
0.3980902755905512
21
0.760606220472441
0
LINE
8
BLACK
6
CONTINUOUS
10
0.3980902755905512
20
0.760606220472441
11
0.3877153543307086
21
0.7635131496062992
0
LINE
8
BLACK
6
CONTINUOUS
10
0.3877153543307086
20
0.7635131496062992
11
0.3877151968503937
21
0.763513188976378
0
LINE
8
BLACK
6
CONTINUOUS
10
0.3877151968503937
20
0.763513188976378
11
0.3877151574803149
21
0.763513188976378
0
LINE
8
BLACK
6
CONTINUOUS
10
0.3877151574803149
20
0.763513188976378
11
0.3823779921259842
21
0.7642467716535433
0
LINE
8
BLACK
6
CONTINUOUS
10
0.3823779921259842
20
0.7642467716535433
11
0.377040905511811
21
0.7649803149606299
0
LINE
8
BLACK
6
CONTINUOUS
10
0.377040905511811
20
0.7649803149606299
11
0.3770408661417323
21
0.7649803149606299
0
LINE
8
BLACK
6
CONTINUOUS
10
0.3770408661417323
20
0.7649803149606299
11
0.374247716535433
21
0.7649803149606299
0
LINE
8
BLACK
6
CONTINUOUS
10
0.374247716535433
20
0.7649803149606299
11
-0.373783779527559
21
0.7649803149606299
0
LINE
8
BLACK
6
CONTINUOUS
10
-0.373783779527559
20
0.7649803149606299
11
-0.3763779527559055
21
0.7649803149606299
0
LINE
8
BLACK
6
CONTINUOUS
10
-0.3763779527559055
20
0.7649803149606299
11
-0.3817652755905512
21
0.7649803149606299
0
LINE
8
BLACK
6
CONTINUOUS
10
-0.3817652755905512
20
0.7649803149606299
11
-0.3817653149606299
21
0.7649803149606299
0
LINE
8
BLACK
6
CONTINUOUS
10
-0.3817653149606299
20
0.7649803149606299
11
-0.3924395669291338
21
0.763513188976378
0
LINE
8
BLACK
6
CONTINUOUS
10
-0.2577691338582677
20
-0.4764410236220472
11
-0.2513779527559055
21
-0.4792865354330709
0
LINE
8
BLACK
6
CONTINUOUS
10
-0.2513779527559055
20
-0.4792865354330709
11
-0.2457180708661417
21
-0.4833987007874015
0
LINE
8
BLACK
6
CONTINUOUS
10
-0.2457180708661417
20
-0.4833987007874015
11
-0.2410368503937008
21
-0.4885977559055118
0
LINE
8
BLACK
6
CONTINUOUS
10
-0.2410368503937008
20
-0.4885977559055118
11
-0.2375388188976378
21
-0.4946564566929134
0
LINE
8
BLACK
6
CONTINUOUS
10
-0.2375388188976378
20
-0.4946564566929134
11
-0.235376968503937
21
-0.5013100393700787
0
LINE
8
BLACK
6
CONTINUOUS
10
-0.235376968503937
20
-0.5013100393700787
11
-0.2346456692913386
21
-0.508267716535433
0
LINE
8
BLACK
6
CONTINUOUS
10
-0.2346456692913386
20
-0.508267716535433
11
-0.235376968503937
21
-0.5152253937007873
0
LINE
8
BLACK
6
CONTINUOUS
10
-0.235376968503937
20
-0.5152253937007873
11
-0.2375388188976378
21
-0.5218789763779528
0
LINE
8
BLACK
6
CONTINUOUS
10
-0.2375388188976378
20
-0.5218789763779528
11
-0.2410368503937008
21
-0.5279376771653543
0
LINE
8
BLACK
6
CONTINUOUS
10
-0.2410368503937008
20
-0.5279376771653543
11
-0.2457180708661417
21
-0.5331367322834646
0
LINE
8
BLACK
6
CONTINUOUS
10
-0.2457180708661417
20
-0.5331367322834646
11
-0.2513779527559055
21
-0.5372488976377953
0
LINE
8
BLACK
6
CONTINUOUS
10
-0.2513779527559055
20
-0.5372488976377953
11
-0.2577691338582677
21
-0.5400944094488189
0
LINE
8
BLACK
6
CONTINUOUS
10
-0.2577691338582677
20
-0.5400944094488189
11
-0.2646122440944882
21
-0.5415489763779527
0
LINE
8
BLACK
6
CONTINUOUS
10
-0.2646122440944882
20
-0.5415489763779527
11
-0.2716082283464567
21
-0.5415489763779527
0
LINE
8
BLACK
6
CONTINUOUS
10
-0.2716082283464567
20
-0.5415489763779527
11
-0.2784513385826772
21
-0.5400944094488189
0
LINE
8
BLACK
6
CONTINUOUS
10
-0.2784513385826772
20
-0.5400944094488189
11
-0.2848425196850394
21
-0.5372488976377953
0
LINE
8
BLACK
6
CONTINUOUS
10
-0.2848425196850394
20
-0.5372488976377953
11
-0.2905024015748032
21
-0.5331367322834646
0
LINE
8
BLACK
6
CONTINUOUS
10
-0.2905024015748032
20
-0.5331367322834646
11
-0.2951836220472441
21
-0.5279376771653543
0
LINE
8
BLACK
6
CONTINUOUS
10
-0.2951836220472441
20
-0.5279376771653543
11
-0.2986816535433071
21
-0.5218789763779528
0
LINE
8
BLACK
6
CONTINUOUS
10
-0.2986816535433071
20
-0.5218789763779528
11
-0.3008435039370079
21
-0.5152253937007873
0
LINE
8
BLACK
6
CONTINUOUS
10
-0.3008435039370079
20
-0.5152253937007873
11
-0.3015748031496063
21
-0.508267716535433
0
LINE
8
BLACK
6
CONTINUOUS
10
-0.3015748031496063
20
-0.508267716535433
11
-0.3008435039370079
21
-0.5013100393700787
0
LINE
8
BLACK
6
CONTINUOUS
10
-0.3008435039370079
20
-0.5013100393700787
11
-0.2986816535433071
21
-0.4946564566929134
0
LINE
8
BLACK
6
CONTINUOUS
10
-0.2986816535433071
20
-0.4946564566929134
11
-0.2951836220472441
21
-0.4885977559055118
0
LINE
8
BLACK
6
CONTINUOUS
10
-0.2951836220472441
20
-0.4885977559055118
11
-0.2905024015748032
21
-0.4833987007874015
0
LINE
8
BLACK
6
CONTINUOUS
10
-0.2905024015748032
20
-0.4833987007874015
11
-0.2848425196850394
21
-0.4792865354330709
0
LINE
8
BLACK
6
CONTINUOUS
10
-0.2848425196850394
20
-0.4792865354330709
11
-0.2784513385826772
21
-0.4764410236220472
0
LINE
8
BLACK
6
CONTINUOUS
10
-0.2784513385826772
20
-0.4764410236220472
11
-0.2716082283464567
21
-0.4749864566929134
0
LINE
8
BLACK
6
CONTINUOUS
10
-0.2716082283464567
20
-0.4749864566929134
11
-0.2646122440944882
21
-0.4749864566929134
0
LINE
8
BLACK
6
CONTINUOUS
10
-0.2646122440944882
20
-0.4749864566929134
11
-0.2577691338582677
21
-0.4764410236220472
0
LINE
8
BLACK
6
CONTINUOUS
10
0.1299212598425197
20
0.2905436220472441
11
0.1330635039370079
21
0.2879069291338582
0
LINE
8
BLACK
6
CONTINUOUS
10
0.1330635039370079
20
0.2879069291338582
11
0.1351144881889764
21
0.2843545669291339
0
LINE
8
BLACK
6
CONTINUOUS
10
0.1351144881889764
20
0.2843545669291339
11
0.1358267716535433
21
0.2803149606299212
0
LINE
8
BLACK
6
CONTINUOUS
10
0.1358267716535433
20
0.2803149606299212
11
0.1351144881889764
21
0.2762753543307087
0
LINE
8
BLACK
6
CONTINUOUS
10
0.1351144881889764
20
0.2762753543307087
11
0.1330635039370079
21
0.2727229921259842
0
LINE
8
BLACK
6
CONTINUOUS
10
0.1330635039370079
20
0.2727229921259842
11
0.1299212598425197
21
0.2700862992125984
0
LINE
8
BLACK
6
CONTINUOUS
10
0.1299212598425197
20
0.2700862992125984
11
0.1260666929133858
21
0.2686833858267716
0
LINE
8
BLACK
6
CONTINUOUS
10
0.1260666929133858
20
0.2686833858267716
11
0.1219648031496063
21
0.2686833858267716
0
LINE
8
BLACK
6
CONTINUOUS
10
0.1219648031496063
20
0.2686833858267716
11
0.121372874015748
21
0.2688988188976378
0
LINE
8
BLACK
6
CONTINUOUS
10
0.121372874015748
20
0.2688988188976378
11
-0.1602362204724409
21
-0.0127103149606299
0
LINE
8
BLACK
6
CONTINUOUS
10
-0.1602362204724409
20
-0.0127103149606299
11
-0.1602362204724409
21
-0.3125984251968504
0
LINE
8
BLACK
6
CONTINUOUS
10
-0.1602362204724409
20
-0.3125984251968504
11
0.1232283464566929
21
-0.3125984251968504
0
LINE
8
BLACK
6
CONTINUOUS
10
0.1232283464566929
20
-0.3125984251968504
11
0.1247644881889764
21
-0.3127497244094488
0
LINE
8
BLACK
6
CONTINUOUS
10
0.1247644881889764
20
-0.3127497244094488
11
0.1276029133858268
21
-0.3139254330708661
0
LINE
8
BLACK
6
CONTINUOUS
10
0.1276029133858268
20
-0.3139254330708661
11
0.1287961023622047
21
-0.3149046850393701
0
LINE
8
BLACK
6
CONTINUOUS
10
0.1287961023622047
20
-0.3149046850393701
11
0.1923787795275591
21
-0.3784873622047244
0
LINE
8
BLACK
6
CONTINUOUS
10
0.1923787795275591
20
-0.3784873622047244
11
0.193358031496063
21
-0.3796805511811023
0
LINE
8
BLACK
6
CONTINUOUS
10
0.193358031496063
20
-0.3796805511811023
11
0.1945337401574803
21
-0.3825189763779527
0
LINE
8
BLACK
6
CONTINUOUS
10
0.1945337401574803
20
-0.3825189763779527
11
0.1946850393700787
21
-0.3840551181102362
0
LINE
8
BLACK
6
CONTINUOUS
10
0.1946850393700787
20
-0.3840551181102362
11
0.1946850393700787
21
-0.4700111023622047
0
LINE
8
BLACK
6
CONTINUOUS
10
0.1946850393700787
20
-0.4700111023622047
11
0.197152125984252
21
-0.4705355118110236
0
LINE
8
BLACK
6
CONTINUOUS
10
0.197152125984252
20
-0.4705355118110236
11
0.2035433070866142
21
-0.4733810236220473
0
LINE
8
BLACK
6
CONTINUOUS
10
0.2035433070866142
20
-0.4733810236220473
11
0.2092031889763779
21
-0.4774931889763779
0
LINE
8
BLACK
6
CONTINUOUS
10
0.2092031889763779
20
-0.4774931889763779
11
0.2138844094488189
21
-0.4826922440944882
0
LINE
8
BLACK
6
CONTINUOUS
10
0.2138844094488189
20
-0.4826922440944882
11
0.2173824409448819
21
-0.4887509448818897
0
LINE
8
BLACK
6
CONTINUOUS
10
0.2173824409448819
20
-0.4887509448818897
11
0.2195442913385827
21
-0.4954045275590551
0
LINE
8
BLACK
6
CONTINUOUS
10
0.2195442913385827
20
-0.4954045275590551
11
0.2202755905511811
21
-0.5023622047244094
0
LINE
8
BLACK
6
CONTINUOUS
10
0.2202755905511811
20
-0.5023622047244094
11
0.2195442913385827
21
-0.5093198818897637
0
LINE
8
BLACK
6
CONTINUOUS
10
0.2195442913385827
20
-0.5093198818897637
11
0.2173824409448819
21
-0.5159734645669292
0
LINE
8
BLACK
6
CONTINUOUS
10
0.2173824409448819
20
-0.5159734645669292
11
0.2138844094488189
21
-0.5220321653543307
0
LINE
8
BLACK
6
CONTINUOUS
10
0.2138844094488189
20
-0.5220321653543307
11
0.2092031889763779
21
-0.527231220472441
0
LINE
8
BLACK
6
CONTINUOUS
10
0.2092031889763779
20
-0.527231220472441
11
0.2035433070866142
21
-0.5313433858267717
0
LINE
8
BLACK
6
CONTINUOUS
10
0.2035433070866142
20
-0.5313433858267717
11
0.197152125984252
21
-0.5341888976377953
0
LINE
8
BLACK
6
CONTINUOUS
10
0.197152125984252
20
-0.5341888976377953
11
0.1903090157480315
21
-0.5356434645669291
0
LINE
8
BLACK
6
CONTINUOUS
10
0.1903090157480315
20
-0.5356434645669291
11
0.183313031496063
21
-0.5356434645669291
0
LINE
8
BLACK
6
CONTINUOUS
10
0.183313031496063
20
-0.5356434645669291
11
0.1764699212598425
21
-0.5341888976377953
0
LINE
8
BLACK
6
CONTINUOUS
10
0.1764699212598425
20
-0.5341888976377953
11
0.1700787401574803
21
-0.5313433858267717
0
LINE
8
BLACK
6
CONTINUOUS
10
0.1700787401574803
20
-0.5313433858267717
11
0.1644188582677165
21
-0.527231220472441
0
LINE
8
BLACK
6
CONTINUOUS
10
0.1644188582677165
20
-0.527231220472441
11
0.1597376377952756
21
-0.5220321653543307
0
LINE
8
BLACK
6
CONTINUOUS
10
0.1597376377952756
20
-0.5220321653543307
11
0.1562396062992126
21
-0.5159734645669292
0
LINE
8
BLACK
6
CONTINUOUS
10
0.1562396062992126
20
-0.5159734645669292
11
0.1540777559055118
21
-0.5093198818897637
0
LINE
8
BLACK
6
CONTINUOUS
10
0.1540777559055118
20
-0.5093198818897637
11
0.1533464566929134
21
-0.5023622047244094
0
LINE
8
BLACK
6
CONTINUOUS
10
0.1533464566929134
20
-0.5023622047244094
11
0.1540777559055118
21
-0.4954045275590551
0
LINE
8
BLACK
6
CONTINUOUS
10
0.1540777559055118
20
-0.4954045275590551
11
0.1562396062992126
21
-0.4887509448818897
0
LINE
8
BLACK
6
CONTINUOUS
10
0.1562396062992126
20
-0.4887509448818897
11
0.1597376377952756
21
-0.4826922440944882
0
LINE
8
BLACK
6
CONTINUOUS
10
0.1597376377952756
20
-0.4826922440944882
11
0.1644188582677165
21
-0.4774931889763779
0
LINE
8
BLACK
6
CONTINUOUS
10
0.1644188582677165
20
-0.4774931889763779
11
0.1700787401574803
21
-0.4733810236220473
0
LINE
8
BLACK
6
CONTINUOUS
10
0.1700787401574803
20
-0.4733810236220473
11
0.1764699212598425
21
-0.4705355118110236
0
LINE
8
BLACK
6
CONTINUOUS
10
0.1764699212598425
20
-0.4705355118110236
11
0.1789370078740158
21
-0.4700111023622047
0
LINE
8
BLACK
6
CONTINUOUS
10
0.1789370078740158
20
-0.4700111023622047
11
0.1789370078740158
21
-0.3873166141732283
0
LINE
8
BLACK
6
CONTINUOUS
10
0.1789370078740158
20
-0.3873166141732283
11
0.1199668503937008
21
-0.3283464566929134
0
LINE
8
BLACK
6
CONTINUOUS
10
0.1199668503937008
20
-0.3283464566929134
11
-0.1602362204724409
21
-0.3283464566929134
0
LINE
8
BLACK
6
CONTINUOUS
10
-0.1602362204724409
20
-0.3283464566929134
11
-0.1602362204724409
21
-0.3759166141732284
0
LINE
8
BLACK
6
CONTINUOUS
10
-0.1602362204724409
20
-0.3759166141732284
11
-0.1577691338582677
21
-0.3764410236220472
0
LINE
8
BLACK
6
CONTINUOUS
10
-0.1577691338582677
20
-0.3764410236220472
11
-0.1513779527559055
21
-0.3792865354330708
0
LINE
8
BLACK
6
CONTINUOUS
10
-0.1513779527559055
20
-0.3792865354330708
11
-0.1457180708661417
21
-0.3833987007874016
0
LINE
8
BLACK
6
CONTINUOUS
10
-0.1457180708661417
20
-0.3833987007874016
11
-0.1410368503937008
21
-0.3885977559055118
0
LINE
8
BLACK
6
CONTINUOUS
10
-0.1410368503937008
20
-0.3885977559055118
11
-0.1375388188976378
21
-0.3946564566929134
0
LINE
8
BLACK
6
CONTINUOUS
10
-0.1375388188976378
20
-0.3946564566929134
11
-0.135376968503937
21
-0.4013100393700788
0
LINE
8
BLACK
6
CONTINUOUS
10
-0.135376968503937
20
-0.4013100393700788
11
-0.1346456692913386
21
-0.408267716535433
0
LINE
8
BLACK
6
CONTINUOUS
10
-0.1346456692913386
20
-0.408267716535433
11
-0.135376968503937
21
-0.4152253937007874
0
LINE
8
BLACK
6
CONTINUOUS
10
-0.135376968503937
20
-0.4152253937007874
11
-0.1375388188976378
21
-0.4218789763779527
0
LINE
8
BLACK
6
CONTINUOUS
10
-0.1375388188976378
20
-0.4218789763779527
11
-0.1410368503937008
21
-0.4279376771653543
0
LINE
8
BLACK
6
CONTINUOUS
10
-0.1410368503937008
20
-0.4279376771653543
11
-0.1457180708661417
21
-0.4331367322834646
0
LINE
8
BLACK
6
CONTINUOUS
10
-0.1457180708661417
20
-0.4331367322834646
11
-0.1513779527559055
21
-0.4372488976377953
0
LINE
8
BLACK
6
CONTINUOUS
10
-0.1513779527559055
20
-0.4372488976377953
11
-0.1577691338582677
21
-0.4400944094488189
0
LINE
8
BLACK
6
CONTINUOUS
10
-0.1577691338582677
20
-0.4400944094488189
11
-0.1602362204724409
21
-0.4406187795275591
0
LINE
8
BLACK
6
CONTINUOUS
10
-0.1602362204724409
20
-0.4406187795275591
11
-0.1602362204724409
21
-0.4759166141732283
0
LINE
8
BLACK
6
CONTINUOUS
10
-0.1602362204724409
20
-0.4759166141732283
11
-0.1577691338582677
21
-0.4764410236220472
0
LINE
8
BLACK
6
CONTINUOUS
10
-0.1577691338582677
20
-0.4764410236220472
11
-0.1513779527559055
21
-0.4792865354330709
0
LINE
8
BLACK
6
CONTINUOUS
10
-0.1513779527559055
20
-0.4792865354330709
11
-0.1457180708661417
21
-0.4833987007874015
0
LINE
8
BLACK
6
CONTINUOUS
10
-0.1457180708661417
20
-0.4833987007874015
11
-0.1410368503937008
21
-0.4885977559055118
0
LINE
8
BLACK
6
CONTINUOUS
10
-0.1410368503937008
20
-0.4885977559055118
11
-0.1375388188976378
21
-0.4946564566929134
0
LINE
8
BLACK
6
CONTINUOUS
10
-0.1375388188976378
20
-0.4946564566929134
11
-0.135376968503937
21
-0.5013100393700787
0
LINE
8
BLACK
6
CONTINUOUS
10
-0.135376968503937
20
-0.5013100393700787
11
-0.1346456692913386
21
-0.508267716535433
0
LINE
8
BLACK
6
CONTINUOUS
10
-0.1346456692913386
20
-0.508267716535433
11
-0.135376968503937
21
-0.5152253937007873
0
LINE
8
BLACK
6
CONTINUOUS
10
-0.135376968503937
20
-0.5152253937007873
11
-0.1375388188976378
21
-0.5218789763779528
0
LINE
8
BLACK
6
CONTINUOUS
10
-0.1375388188976378
20
-0.5218789763779528
11
-0.1410368503937008
21
-0.5279376771653543
0
LINE
8
BLACK
6
CONTINUOUS
10
-0.1410368503937008
20
-0.5279376771653543
11
-0.1457180708661417
21
-0.5331367322834646
0
LINE
8
BLACK
6
CONTINUOUS
10
-0.1457180708661417
20
-0.5331367322834646
11
-0.1513779527559055
21
-0.5372488976377953
0
LINE
8
BLACK
6
CONTINUOUS
10
-0.1513779527559055
20
-0.5372488976377953
11
-0.1577691338582677
21
-0.5400944094488189
0
LINE
8
BLACK
6
CONTINUOUS
10
-0.1577691338582677
20
-0.5400944094488189
11
-0.1646122440944882
21
-0.5415489763779527
0
LINE
8
BLACK
6
CONTINUOUS
10
-0.1646122440944882
20
-0.5415489763779527
11
-0.1716082283464567
21
-0.5415489763779527
0
LINE
8
BLACK
6
CONTINUOUS
10
-0.1716082283464567
20
-0.5415489763779527
11
-0.1784513385826772
21
-0.5400944094488189
0
LINE
8
BLACK
6
CONTINUOUS
10
-0.1784513385826772
20
-0.5400944094488189
11
-0.1848425196850394
21
-0.5372488976377953
0
LINE
8
BLACK
6
CONTINUOUS
10
-0.1848425196850394
20
-0.5372488976377953
11
-0.1905024015748031
21
-0.5331367322834646
0
LINE
8
BLACK
6
CONTINUOUS
10
-0.1905024015748031
20
-0.5331367322834646
11
-0.1951836220472441
21
-0.5279376771653543
0
LINE
8
BLACK
6
CONTINUOUS
10
-0.1951836220472441
20
-0.5279376771653543
11
-0.1986816535433071
21
-0.5218789763779528
0
LINE
8
BLACK
6
CONTINUOUS
10
-0.1986816535433071
20
-0.5218789763779528
11
-0.2008435039370079
21
-0.5152253937007873
0
LINE
8
BLACK
6
CONTINUOUS
10
-0.2008435039370079
20
-0.5152253937007873
11
-0.2015748031496063
21
-0.508267716535433
0
LINE
8
BLACK
6
CONTINUOUS
10
-0.2015748031496063
20
-0.508267716535433
11
-0.2008435039370079
21
-0.5013100393700787
0
LINE
8
BLACK
6
CONTINUOUS
10
-0.2008435039370079
20
-0.5013100393700787
11
-0.1986816535433071
21
-0.4946564566929134
0
LINE
8
BLACK
6
CONTINUOUS
10
-0.1986816535433071
20
-0.4946564566929134
11
-0.1951836220472441
21
-0.4885977559055118
0
LINE
8
BLACK
6
CONTINUOUS
10
-0.1951836220472441
20
-0.4885977559055118
11
-0.1905024015748031
21
-0.4833987007874015
0
LINE
8
BLACK
6
CONTINUOUS
10
-0.1905024015748031
20
-0.4833987007874015
11
-0.1848425196850394
21
-0.4792865354330709
0
LINE
8
BLACK
6
CONTINUOUS
10
-0.1848425196850394
20
-0.4792865354330709
11
-0.1784513385826772
21
-0.4764410236220472
0
LINE
8
BLACK
6
CONTINUOUS
10
-0.1784513385826772
20
-0.4764410236220472
11
-0.1759842519685039
21
-0.4759166141732283
0
LINE
8
BLACK
6
CONTINUOUS
10
-0.1759842519685039
20
-0.4759166141732283
11
-0.1759842519685039
21
-0.4406187795275591
0
LINE
8
BLACK
6
CONTINUOUS
10
-0.1759842519685039
20
-0.4406187795275591
11
-0.1784513385826772
21
-0.4400944094488189
0
LINE
8
BLACK
6
CONTINUOUS
10
-0.1784513385826772
20
-0.4400944094488189
11
-0.1848425196850394
21
-0.4372488976377953
0
LINE
8
BLACK
6
CONTINUOUS
10
-0.1848425196850394
20
-0.4372488976377953
11
-0.1905024015748031
21
-0.4331367322834646
0
LINE
8
BLACK
6
CONTINUOUS
10
-0.1905024015748031
20
-0.4331367322834646
11
-0.1951836220472441
21
-0.4279376771653543
0
LINE
8
BLACK
6
CONTINUOUS
10
-0.1951836220472441
20
-0.4279376771653543
11
-0.1986816535433071
21
-0.4218789763779527
0
LINE
8
BLACK
6
CONTINUOUS
10
-0.1986816535433071
20
-0.4218789763779527
11
-0.2008435039370079
21
-0.4152253937007874
0
LINE
8
BLACK
6
CONTINUOUS
10
-0.2008435039370079
20
-0.4152253937007874
11
-0.2015748031496063
21
-0.408267716535433
0
LINE
8
BLACK
6
CONTINUOUS
10
-0.2015748031496063
20
-0.408267716535433
11
-0.2008435039370079
21
-0.4013100393700788
0
LINE
8
BLACK
6
CONTINUOUS
10
-0.2008435039370079
20
-0.4013100393700788
11
-0.1986816535433071
21
-0.3946564566929134
0
LINE
8
BLACK
6
CONTINUOUS
10
-0.1986816535433071
20
-0.3946564566929134
11
-0.1951836220472441
21
-0.3885977559055118
0
LINE
8
BLACK
6
CONTINUOUS
10
-0.1951836220472441
20
-0.3885977559055118
11
-0.1905024015748031
21
-0.3833987007874016
0
LINE
8
BLACK
6
CONTINUOUS
10
-0.1905024015748031
20
-0.3833987007874016
11
-0.1848425196850394
21
-0.3792865354330708
0
LINE
8
BLACK
6
CONTINUOUS
10
-0.1848425196850394
20
-0.3792865354330708
11
-0.1784513385826772
21
-0.3764410236220472
0
LINE
8
BLACK
6
CONTINUOUS
10
-0.1784513385826772
20
-0.3764410236220472
11
-0.1759842519685039
21
-0.3759166141732284
0
LINE
8
BLACK
6
CONTINUOUS
10
-0.1759842519685039
20
-0.3759166141732284
11
-0.1759842519685039
21
-0.3204724409448819
0
LINE
8
BLACK
6
CONTINUOUS
10
-0.1759842519685039
20
-0.3204724409448819
11
-0.1759842519685039
21
-0.0094488188976378
0
LINE
8
BLACK
6
CONTINUOUS
10
-0.1759842519685039
20
-0.0094488188976378
11
-0.1758329527559055
21
-0.0079126771653543
0
LINE
8
BLACK
6
CONTINUOUS
10
-0.1758329527559055
20
-0.0079126771653543
11
-0.1746572440944882
21
-0.0050742519685039
0
LINE
8
BLACK
6
CONTINUOUS
10
-0.1746572440944882
20
-0.0050742519685039
11
-0.1736779921259843
21
-0.003881062992126
0
LINE
8
BLACK
6
CONTINUOUS
10
-0.1736779921259843
20
-0.003881062992126
11
0.1125657874015748
21
0.2823627559055118
0
LINE
8
BLACK
6
CONTINUOUS
10
0.1125657874015748
20
0.2823627559055118
11
0.1129170078740157
21
0.2843545669291339
0
LINE
8
BLACK
6
CONTINUOUS
10
0.1129170078740157
20
0.2843545669291339
11
0.1149679921259843
21
0.2879069291338582
0
LINE
8
BLACK
6
CONTINUOUS
10
0.1149679921259843
20
0.2879069291338582
11
0.1181102362204724
21
0.2905436220472441
0
LINE
8
BLACK
6
CONTINUOUS
10
0.1181102362204724
20
0.2905436220472441
11
0.1219648031496063
21
0.2919465354330709
0
LINE
8
BLACK
6
CONTINUOUS
10
0.1219648031496063
20
0.2919465354330709
11
0.1260666929133858
21
0.2919465354330709
0
LINE
8
BLACK
6
CONTINUOUS
10
0.1260666929133858
20
0.2919465354330709
11
0.1299212598425197
21
0.2905436220472441
0
LINE
8
BLACK
6
CONTINUOUS
10
-0.0577691338582677
20
-0.4764410236220472
11
-0.0513779527559055
21
-0.4792865354330709
0
LINE
8
BLACK
6
CONTINUOUS
10
-0.0513779527559055
20
-0.4792865354330709
11
-0.0457180708661417
21
-0.4833987007874015
0
LINE
8
BLACK
6
CONTINUOUS
10
-0.0457180708661417
20
-0.4833987007874015
11
-0.0410368503937008
21
-0.4885977559055118
0
LINE
8
BLACK
6
CONTINUOUS
10
-0.0410368503937008
20
-0.4885977559055118
11
-0.0375388188976378
21
-0.4946564566929134
0
LINE
8
BLACK
6
CONTINUOUS
10
-0.0375388188976378
20
-0.4946564566929134
11
-0.035376968503937
21
-0.5013100393700787
0
LINE
8
BLACK
6
CONTINUOUS
10
-0.035376968503937
20
-0.5013100393700787
11
-0.0346456692913386
21
-0.508267716535433
0
LINE
8
BLACK
6
CONTINUOUS
10
-0.0346456692913386
20
-0.508267716535433
11
-0.035376968503937
21
-0.5152253937007873
0
LINE
8
BLACK
6
CONTINUOUS
10
-0.035376968503937
20
-0.5152253937007873
11
-0.0375388188976378
21
-0.5218789763779528
0
LINE
8
BLACK
6
CONTINUOUS
10
-0.0375388188976378
20
-0.5218789763779528
11
-0.0410368503937008
21
-0.5279376771653543
0
LINE
8
BLACK
6
CONTINUOUS
10
-0.0410368503937008
20
-0.5279376771653543
11
-0.0457180708661417
21
-0.5331367322834646
0
LINE
8
BLACK
6
CONTINUOUS
10
-0.0457180708661417
20
-0.5331367322834646
11
-0.0513779527559055
21
-0.5372488976377953
0
LINE
8
BLACK
6
CONTINUOUS
10
-0.0513779527559055
20
-0.5372488976377953
11
-0.0577691338582677
21
-0.5400944094488189
0
LINE
8
BLACK
6
CONTINUOUS
10
-0.0577691338582677
20
-0.5400944094488189
11
-0.0646122440944882
21
-0.5415489763779527
0
LINE
8
BLACK
6
CONTINUOUS
10
-0.0646122440944882
20
-0.5415489763779527
11
-0.0716082283464567
21
-0.5415489763779527
0
LINE
8
BLACK
6
CONTINUOUS
10
-0.0716082283464567
20
-0.5415489763779527
11
-0.0784513385826772
21
-0.5400944094488189
0
LINE
8
BLACK
6
CONTINUOUS
10
-0.0784513385826772
20
-0.5400944094488189
11
-0.0848425196850394
21
-0.5372488976377953
0
LINE
8
BLACK
6
CONTINUOUS
10
-0.0848425196850394
20
-0.5372488976377953
11
-0.0905024015748031
21
-0.5331367322834646
0
LINE
8
BLACK
6
CONTINUOUS
10
-0.0905024015748031
20
-0.5331367322834646
11
-0.0951836220472441
21
-0.5279376771653543
0
LINE
8
BLACK
6
CONTINUOUS
10
-0.0951836220472441
20
-0.5279376771653543
11
-0.0986816535433071
21
-0.5218789763779528
0
LINE
8
BLACK
6
CONTINUOUS
10
-0.0986816535433071
20
-0.5218789763779528
11
-0.1008435039370079
21
-0.5152253937007873
0
LINE
8
BLACK
6
CONTINUOUS
10
-0.1008435039370079
20
-0.5152253937007873
11
-0.1015748031496063
21
-0.508267716535433
0
LINE
8
BLACK
6
CONTINUOUS
10
-0.1015748031496063
20
-0.508267716535433
11
-0.1008435039370079
21
-0.5013100393700787
0
LINE
8
BLACK
6
CONTINUOUS
10
-0.1008435039370079
20
-0.5013100393700787
11
-0.0986816535433071
21
-0.4946564566929134
0
LINE
8
BLACK
6
CONTINUOUS
10
-0.0986816535433071
20
-0.4946564566929134
11
-0.0951836220472441
21
-0.4885977559055118
0
LINE
8
BLACK
6
CONTINUOUS
10
-0.0951836220472441
20
-0.4885977559055118
11
-0.0905024015748031
21
-0.4833987007874015
0
LINE
8
BLACK
6
CONTINUOUS
10
-0.0905024015748031
20
-0.4833987007874015
11
-0.0848425196850394
21
-0.4792865354330709
0
LINE
8
BLACK
6
CONTINUOUS
10
-0.0848425196850394
20
-0.4792865354330709
11
-0.0784513385826772
21
-0.4764410236220472
0
LINE
8
BLACK
6
CONTINUOUS
10
-0.0784513385826772
20
-0.4764410236220472
11
-0.0716082283464567
21
-0.4749864566929134
0
LINE
8
BLACK
6
CONTINUOUS
10
-0.0716082283464567
20
-0.4749864566929134
11
-0.0646122440944882
21
-0.4749864566929134
0
LINE
8
BLACK
6
CONTINUOUS
10
-0.0646122440944882
20
-0.4749864566929134
11
-0.0577691338582677
21
-0.4764410236220472
0
LINE
8
BLACK
6
CONTINUOUS
10
0.2971521259842519
20
-0.4705355118110236
11
0.3035433070866141
21
-0.4733810236220473
0
LINE
8
BLACK
6
CONTINUOUS
10
0.3035433070866141
20
-0.4733810236220473
11
0.3092031889763779
21
-0.4774931889763779
0
LINE
8
BLACK
6
CONTINUOUS
10
0.3092031889763779
20
-0.4774931889763779
11
0.3138844094488189
21
-0.4826922440944882
0
LINE
8
BLACK
6
CONTINUOUS
10
0.3138844094488189
20
-0.4826922440944882
11
0.3173824409448819
21
-0.4887509448818897
0
LINE
8
BLACK
6
CONTINUOUS
10
0.3173824409448819
20
-0.4887509448818897
11
0.3195442913385826
21
-0.4954045275590551
0
LINE
8
BLACK
6
CONTINUOUS
10
0.3195442913385826
20
-0.4954045275590551
11
0.3202755905511811
21
-0.5023622047244094
0
LINE
8
BLACK
6
CONTINUOUS
10
0.3202755905511811
20
-0.5023622047244094
11
0.3195442913385826
21
-0.5093198818897637
0
LINE
8
BLACK
6
CONTINUOUS
10
0.3195442913385826
20
-0.5093198818897637
11
0.3173824409448819
21
-0.5159734645669292
0
LINE
8
BLACK
6
CONTINUOUS
10
0.3173824409448819
20
-0.5159734645669292
11
0.3138844094488189
21
-0.5220321653543307
0
LINE
8
BLACK
6
CONTINUOUS
10
0.3138844094488189
20
-0.5220321653543307
11
0.3092031889763779
21
-0.527231220472441
0
LINE
8
BLACK
6
CONTINUOUS
10
0.3092031889763779
20
-0.527231220472441
11
0.3035433070866141
21
-0.5313433858267717
0
LINE
8
BLACK
6
CONTINUOUS
10
0.3035433070866141
20
-0.5313433858267717
11
0.2971521259842519
21
-0.5341888976377953
0
LINE
8
BLACK
6
CONTINUOUS
10
0.2971521259842519
20
-0.5341888976377953
11
0.2903090157480315
21
-0.5356434645669291
0
LINE
8
BLACK
6
CONTINUOUS
10
0.2903090157480315
20
-0.5356434645669291
11
0.283313031496063
21
-0.5356434645669291
0
LINE
8
BLACK
6
CONTINUOUS
10
0.283313031496063
20
-0.5356434645669291
11
0.2764699212598425
21
-0.5341888976377953
0
LINE
8
BLACK
6
CONTINUOUS
10
0.2764699212598425
20
-0.5341888976377953
11
0.2700787401574803
21
-0.5313433858267717
0
LINE
8
BLACK
6
CONTINUOUS
10
0.2700787401574803
20
-0.5313433858267717
11
0.2644188582677165
21
-0.527231220472441
0
LINE
8
BLACK
6
CONTINUOUS
10
0.2644188582677165
20
-0.527231220472441
11
0.2597376377952756
21
-0.5220321653543307
0
LINE
8
BLACK
6
CONTINUOUS
10
0.2597376377952756
20
-0.5220321653543307
11
0.2562396062992126
21
-0.5159734645669292
0
LINE
8
BLACK
6
CONTINUOUS
10
0.2562396062992126
20
-0.5159734645669292
11
0.2540777559055118
21
-0.5093198818897637
0
LINE
8
BLACK
6
CONTINUOUS
10
0.2540777559055118
20
-0.5093198818897637
11
0.2533464566929134
21
-0.5023622047244094
0
LINE
8
BLACK
6
CONTINUOUS
10
0.2533464566929134
20
-0.5023622047244094
11
0.2540777559055118
21
-0.4954045275590551
0
LINE
8
BLACK
6
CONTINUOUS
10
0.2540777559055118
20
-0.4954045275590551
11
0.2562396062992126
21
-0.4887509448818897
0
LINE
8
BLACK
6
CONTINUOUS
10
0.2562396062992126
20
-0.4887509448818897
11
0.2597376377952756
21
-0.4826922440944882
0
LINE
8
BLACK
6
CONTINUOUS
10
0.2597376377952756
20
-0.4826922440944882
11
0.2644188582677165
21
-0.4774931889763779
0
LINE
8
BLACK
6
CONTINUOUS
10
0.2644188582677165
20
-0.4774931889763779
11
0.2700787401574803
21
-0.4733810236220473
0
LINE
8
BLACK
6
CONTINUOUS
10
0.2700787401574803
20
-0.4733810236220473
11
0.2764699212598425
21
-0.4705355118110236
0
LINE
8
BLACK
6
CONTINUOUS
10
0.2764699212598425
20
-0.4705355118110236
11
0.283313031496063
21
-0.4690809448818897
0
LINE
8
BLACK
6
CONTINUOUS
10
0.283313031496063
20
-0.4690809448818897
11
0.2903090157480315
21
-0.4690809448818897
0
LINE
8
BLACK
6
CONTINUOUS
10
0.2903090157480315
20
-0.4690809448818897
11
0.2971521259842519
21
-0.4705355118110236
0
LINE
8
BLACK
6
CONTINUOUS
10
-0.2577691338582677
20
-0.3764410236220472
11
-0.2513779527559055
21
-0.3792865354330708
0
LINE
8
BLACK
6
CONTINUOUS
10
-0.2513779527559055
20
-0.3792865354330708
11
-0.2457180708661417
21
-0.3833987007874016
0
LINE
8
BLACK
6
CONTINUOUS
10
-0.2457180708661417
20
-0.3833987007874016
11
-0.2410368503937008
21
-0.3885977559055118
0
LINE
8
BLACK
6
CONTINUOUS
10
-0.2410368503937008
20
-0.3885977559055118
11
-0.2375388188976378
21
-0.3946564566929134
0
LINE
8
BLACK
6
CONTINUOUS
10
-0.2375388188976378
20
-0.3946564566929134
11
-0.235376968503937
21
-0.4013100393700788
0
LINE
8
BLACK
6
CONTINUOUS
10
-0.235376968503937
20
-0.4013100393700788
11
-0.2346456692913386
21
-0.408267716535433
0
LINE
8
BLACK
6
CONTINUOUS
10
-0.2346456692913386
20
-0.408267716535433
11
-0.235376968503937
21
-0.4152253937007874
0
LINE
8
BLACK
6
CONTINUOUS
10
-0.235376968503937
20
-0.4152253937007874
11
-0.2375388188976378
21
-0.4218789763779527
0
LINE
8
BLACK
6
CONTINUOUS
10
-0.2375388188976378
20
-0.4218789763779527
11
-0.2410368503937008
21
-0.4279376771653543
0
LINE
8
BLACK
6
CONTINUOUS
10
-0.2410368503937008
20
-0.4279376771653543
11
-0.2457180708661417
21
-0.4331367322834646
0
LINE
8
BLACK
6
CONTINUOUS
10
-0.2457180708661417
20
-0.4331367322834646
11
-0.2513779527559055
21
-0.4372488976377953
0
LINE
8
BLACK
6
CONTINUOUS
10
-0.2513779527559055
20
-0.4372488976377953
11
-0.2577691338582677
21
-0.4400944094488189
0
LINE
8
BLACK
6
CONTINUOUS
10
-0.2577691338582677
20
-0.4400944094488189
11
-0.2646122440944882
21
-0.4415489763779528
0
LINE
8
BLACK
6
CONTINUOUS
10
-0.2646122440944882
20
-0.4415489763779528
11
-0.2716082283464567
21
-0.4415489763779528
0
LINE
8
BLACK
6
CONTINUOUS
10
-0.2716082283464567
20
-0.4415489763779528
11
-0.2784513385826772
21
-0.4400944094488189
0
LINE
8
BLACK
6
CONTINUOUS
10
-0.2784513385826772
20
-0.4400944094488189
11
-0.2848425196850394
21
-0.4372488976377953
0
LINE
8
BLACK
6
CONTINUOUS
10
-0.2848425196850394
20
-0.4372488976377953
11
-0.2905024015748032
21
-0.4331367322834646
0
LINE
8
BLACK
6
CONTINUOUS
10
-0.2905024015748032
20
-0.4331367322834646
11
-0.2951836220472441
21
-0.4279376771653543
0
LINE
8
BLACK
6
CONTINUOUS
10
-0.2951836220472441
20
-0.4279376771653543
11
-0.2986816535433071
21
-0.4218789763779527
0
LINE
8
BLACK
6
CONTINUOUS
10
-0.2986816535433071
20
-0.4218789763779527
11
-0.3008435039370079
21
-0.4152253937007874
0
LINE
8
BLACK
6
CONTINUOUS
10
-0.3008435039370079
20
-0.4152253937007874
11
-0.3015748031496063
21
-0.408267716535433
0
LINE
8
BLACK
6
CONTINUOUS
10
-0.3015748031496063
20
-0.408267716535433
11
-0.3008435039370079
21
-0.4013100393700788
0
LINE
8
BLACK
6
CONTINUOUS
10
-0.3008435039370079
20
-0.4013100393700788
11
-0.2986816535433071
21
-0.3946564566929134
0
LINE
8
BLACK
6
CONTINUOUS
10
-0.2986816535433071
20
-0.3946564566929134
11
-0.2951836220472441
21
-0.3885977559055118
0
LINE
8
BLACK
6
CONTINUOUS
10
-0.2951836220472441
20
-0.3885977559055118
11
-0.2905024015748032
21
-0.3833987007874016
0
LINE
8
BLACK
6
CONTINUOUS
10
-0.2905024015748032
20
-0.3833987007874016
11
-0.2848425196850394
21
-0.3792865354330708
0
LINE
8
BLACK
6
CONTINUOUS
10
-0.2848425196850394
20
-0.3792865354330708
11
-0.2784513385826772
21
-0.3764410236220472
0
LINE
8
BLACK
6
CONTINUOUS
10
-0.2784513385826772
20
-0.3764410236220472
11
-0.2716082283464567
21
-0.3749864566929134
0
LINE
8
BLACK
6
CONTINUOUS
10
-0.2716082283464567
20
-0.3749864566929134
11
-0.2646122440944882
21
-0.3749864566929134
0
LINE
8
BLACK
6
CONTINUOUS
10
-0.2646122440944882
20
-0.3749864566929134
11
-0.2577691338582677
21
-0.3764410236220472
0
LINE
8
BLACK
6
CONTINUOUS
10
-0.0577691338582677
20
-0.3764410236220472
11
-0.0513779527559055
21
-0.3792865354330708
0
LINE
8
BLACK
6
CONTINUOUS
10
-0.0513779527559055
20
-0.3792865354330708
11
-0.0457180708661417
21
-0.3833987007874016
0
LINE
8
BLACK
6
CONTINUOUS
10
-0.0457180708661417
20
-0.3833987007874016
11
-0.0410368503937008
21
-0.3885977559055118
0
LINE
8
BLACK
6
CONTINUOUS
10
-0.0410368503937008
20
-0.3885977559055118
11
-0.0375388188976378
21
-0.3946564566929134
0
LINE
8
BLACK
6
CONTINUOUS
10
-0.0375388188976378
20
-0.3946564566929134
11
-0.035376968503937
21
-0.4013100393700788
0
LINE
8
BLACK
6
CONTINUOUS
10
-0.035376968503937
20
-0.4013100393700788
11
-0.0346456692913386
21
-0.408267716535433
0
LINE
8
BLACK
6
CONTINUOUS
10
-0.0346456692913386
20
-0.408267716535433
11
-0.035376968503937
21
-0.4152253937007874
0
LINE
8
BLACK
6
CONTINUOUS
10
-0.035376968503937
20
-0.4152253937007874
11
-0.0375388188976378
21
-0.4218789763779527
0
LINE
8
BLACK
6
CONTINUOUS
10
-0.0375388188976378
20
-0.4218789763779527
11
-0.0410368503937008
21
-0.4279376771653543
0
LINE
8
BLACK
6
CONTINUOUS
10
-0.0410368503937008
20
-0.4279376771653543
11
-0.0457180708661417
21
-0.4331367322834646
0
LINE
8
BLACK
6
CONTINUOUS
10
-0.0457180708661417
20
-0.4331367322834646
11
-0.0513779527559055
21
-0.4372488976377953
0
LINE
8
BLACK
6
CONTINUOUS
10
-0.0513779527559055
20
-0.4372488976377953
11
-0.0577691338582677
21
-0.4400944094488189
0
LINE
8
BLACK
6
CONTINUOUS
10
-0.0577691338582677
20
-0.4400944094488189
11
-0.0646122440944882
21
-0.4415489763779528
0
LINE
8
BLACK
6
CONTINUOUS
10
-0.0646122440944882
20
-0.4415489763779528
11
-0.0716082283464567
21
-0.4415489763779528
0
LINE
8
BLACK
6
CONTINUOUS
10
-0.0716082283464567
20
-0.4415489763779528
11
-0.0784513385826772
21
-0.4400944094488189
0
LINE
8
BLACK
6
CONTINUOUS
10
-0.0784513385826772
20
-0.4400944094488189
11
-0.0848425196850394
21
-0.4372488976377953
0
LINE
8
BLACK
6
CONTINUOUS
10
-0.0848425196850394
20
-0.4372488976377953
11
-0.0905024015748031
21
-0.4331367322834646
0
LINE
8
BLACK
6
CONTINUOUS
10
-0.0905024015748031
20
-0.4331367322834646
11
-0.0951836220472441
21
-0.4279376771653543
0
LINE
8
BLACK
6
CONTINUOUS
10
-0.0951836220472441
20
-0.4279376771653543
11
-0.0986816535433071
21
-0.4218789763779527
0
LINE
8
BLACK
6
CONTINUOUS
10
-0.0986816535433071
20
-0.4218789763779527
11
-0.1008435039370079
21
-0.4152253937007874
0
LINE
8
BLACK
6
CONTINUOUS
10
-0.1008435039370079
20
-0.4152253937007874
11
-0.1015748031496063
21
-0.408267716535433
0
LINE
8
BLACK
6
CONTINUOUS
10
-0.1015748031496063
20
-0.408267716535433
11
-0.1008435039370079
21
-0.4013100393700788
0
LINE
8
BLACK
6
CONTINUOUS
10
-0.1008435039370079
20
-0.4013100393700788
11
-0.0986816535433071
21
-0.3946564566929134
0
LINE
8
BLACK
6
CONTINUOUS
10
-0.0986816535433071
20
-0.3946564566929134
11
-0.0951836220472441
21
-0.3885977559055118
0
LINE
8
BLACK
6
CONTINUOUS
10
-0.0951836220472441
20
-0.3885977559055118
11
-0.0905024015748031
21
-0.3833987007874016
0
LINE
8
BLACK
6
CONTINUOUS
10
-0.0905024015748031
20
-0.3833987007874016
11
-0.0848425196850394
21
-0.3792865354330708
0
LINE
8
BLACK
6
CONTINUOUS
10
-0.0848425196850394
20
-0.3792865354330708
11
-0.0784513385826772
21
-0.3764410236220472
0
LINE
8
BLACK
6
CONTINUOUS
10
-0.0784513385826772
20
-0.3764410236220472
11
-0.0716082283464567
21
-0.3749864566929134
0
LINE
8
BLACK
6
CONTINUOUS
10
-0.0716082283464567
20
-0.3749864566929134
11
-0.0646122440944882
21
-0.3749864566929134
0
LINE
8
BLACK
6
CONTINUOUS
10
-0.0646122440944882
20
-0.3749864566929134
11
-0.0577691338582677
21
-0.3764410236220472
0
CIRCLE
8
BLACK
10
0.3868110236220472
20
-0.5023622047244094
40
0.0068897637795276
0
CIRCLE
8
BLACK
10
0.2868110236220472
20
-0.5023622047244094
40
0.0068897637795276
0
CIRCLE
8
BLACK
10
0.1868110236220472
20
-0.5023622047244094
40
0.0068897637795276
0
CIRCLE
8
BLACK
10
0.5980314960629921
20
-0.3980314960629921
40
0.0068897637795276
0
CIRCLE
8
BLACK
10
-0.6019685039370078
20
-0.3980314960629921
40
0.0068897637795276
0
CIRCLE
8
BLACK
10
0.5980314960629921
20
0.8019685039370078
40
0.0068897637795276
0
CIRCLE
8
BLACK
10
0.0318897637795276
20
-0.408267716535433
40
0.0068897637795276
0
CIRCLE
8
BLACK
10
0.0318897637795276
20
-0.508267716535433
40
0.0068897637795276
0
CIRCLE
8
BLACK
10
-0.0681102362204724
20
-0.408267716535433
40
0.0068897637795276
0
CIRCLE
8
BLACK
10
-0.0681102362204724
20
-0.508267716535433
40
0.0068897637795276
0
CIRCLE
8
BLACK
10
-0.1681102362204724
20
-0.408267716535433
40
0.0068897637795276
0
CIRCLE
8
BLACK
10
-0.1681102362204724
20
-0.508267716535433
40
0.0068897637795276
0
CIRCLE
8
BLACK
10
-0.2681102362204724
20
-0.408267716535433
40
0.0068897637795276
0
CIRCLE
8
BLACK
10
-0.2681102362204724
20
-0.508267716535433
40
0.0068897637795276
0
CIRCLE
8
BLACK
10
-0.3681102362204725
20
-0.408267716535433
40
0.0068897637795276
0
CIRCLE
8
BLACK
10
-0.3681102362204725
20
-0.508267716535433
40
0.0068897637795276
0
CIRCLE
8
BLACK
10
-0.6019685039370078
20
0.8019685039370078
40
0.0068897637795276
0
CIRCLE
8
BLACK
10
-0.078740157480315
20
-0.0173228346456693
40
0.0059055118110236
0
CIRCLE
8
BLACK
10
0.5161417322834646
20
0.621259842519685
40
0.0059055118110236
0
CIRCLE
8
BLACK
10
-0.2578740157480315
20
0.0106299212598425
40
0.0059055118110236
0
CIRCLE
8
BLACK
10
0.0275590551181102
20
-0.2263779527559055
40
0.0059055118110236
0
CIRCLE
8
BLACK
10
-0.2590551181102362
20
0.1433070866141732
40
0.0059055118110236
0
CIRCLE
8
BLACK
10
0.052755905511811
20
0.018503937007874
40
0.0059055118110236
0
CIRCLE
8
BLACK
10
0.1480314960629921
20
0.508267716535433
40
0.0059055118110236
0
CIRCLE
8
BLACK
10
0.2350393700787402
20
-0.2326771653543307
40
0.0059055118110236
0
CIRCLE
8
BLACK
10
-0.3220472440944882
20
-0.2299212598425197
40
0.0059055118110236
0
CIRCLE
8
BLACK
10
0.0673228346456693
20
0.4968503937007874
40
0.0059055118110236
0
CIRCLE
8
BLACK
10
-0.4480314960629921
20
0.2007874015748032
40
0.0059055118110236
0
CIRCLE
8
BLACK
10
0.2145669291338583
20
0.4937007874015748
40
0.0059055118110236
0
CIRCLE
8
BLACK
10
0.2124165354330709
20
0.3281645669291339
40
0.0059055118110236
0
CIRCLE
8
BLACK
10
-0.3881889763779527
20
0.4960629921259843
40
0.0059055118110236
0
CIRCLE
8
BLACK
10
0.4755905511811023
20
0.431496062992126
40
0.0059055118110236
0
CIRCLE
8
BLACK
10
0.0539370078740157
20
-0.0968503937007874
40
0.0059055118110236
0
CIRCLE
8
BLACK
10
0.5519685039370079
20
0.4129921259842519
40
0.0059055118110236
0
CIRCLE
8
BLACK
10
0.1484251968503937
20
0.3236220472440945
40
0.0059055118110236
0
CIRCLE
8
BLACK
10
0.1059055118110236
20
-0.4594488188976378
40
0.0059055118110236
0
CIRCLE
8
BLACK
10
0.1291338582677165
20
0.152755905511811
40
0.0059055118110236
0
CIRCLE
8
BLACK
10
-0.1952755905511811
20
0.2988188976377953
40
0.0059055118110236
0
CIRCLE
8
BLACK
10
-0.2208661417322835
20
-0.2413385826771653
40
0.0059055118110236
0
CIRCLE
8
BLACK
10
0.2102362204724409
20
0.1484251968503937
40
0.0059055118110236
0
CIRCLE
8
BLACK
10
-0.2578740157480315
20
-0.0901574803149606
40
0.0059055118110236
0
CIRCLE
8
BLACK
10
-0.421259842519685
20
0.0106299212598425
40
0.0059055118110236
0
CIRCLE
8
BLACK
10
-0.4937007874015748
20
0.3429133858267717
40
0.0059055118110236
0
CIRCLE
8
BLACK
10
0.1893700787401575
20
-0.2318897637795276
40
0.0059055118110236
0
CIRCLE
8
BLACK
10
0.2586614173228347
20
0.5791338582677166
40
0.0059055118110236
0
CIRCLE
8
BLACK
10
0.6023622047244095
20
0.0145669291338583
40
0.0059055118110236
0
CIRCLE
8
BLACK
10
-0.3523622047244094
20
0.1409448818897638
40
0.0059055118110236
0
CIRCLE
8
BLACK
10
0.1173228346456693
20
-0.3944881889763779
40
0.0059055118110236
0
CIRCLE
8
BLACK
10
-0.021259842519685
20
0.4964566929133858
40
0.0059055118110236
0
CIRCLE
8
BLACK
10
0.1366141732283465
20
-0.2318897637795276
40
0.0059055118110236
0
CIRCLE
8
BLACK
10
-0.2090551181102362
20
0.3507874015748031
40
0.0059055118110236
0
CIRCLE
8
BLACK
10
-0.221259842519685
20
0.4948818897637795
40
0.0059055118110236
0
CIRCLE
8
BLACK
10
0.0181102362204724
20
0.321259842519685
40
0.0059055118110236
0
CIRCLE
8
BLACK
10
0.4854330708661417
20
0.0122047244094488
40
0.0059055118110236
0
CIRCLE
8
BLACK
10
-0.0291338582677165
20
0.3551181102362205
40
0.0059055118110236
0
CIRCLE
8
BLACK
10
-0.1098425196850394
20
-0.189763779527559
40
0.0059055118110236
0
CIRCLE
8
BLACK
10
0.6023622047244095
20
0.6106299212598425
40
0.0059055118110236
0
CIRCLE
8
BLACK
10
0.0807086614173228
20
0.3240157480314961
40
0.0059055118110236
0
CIRCLE
8
BLACK
10
-0.078740157480315
20
-0.1377952755905512
40
0.0059055118110236
0
CIRCLE
8
BLACK
10
0.1240157480314961
20
0.2803149606299212
40
0.0059055118110236
0
CIRCLE
8
BLACK
10
0.0118110236220472
20
0.3763779527559055
40
0.0059055118110236
0
CIRCLE
8
BLACK
10
0.2858267716535433
20
0.1456692913385827
40
0.0059055118110236
0
CIRCLE
8
BLACK
10
0.0393700787401575
20
0.4677165354330708
40
0.0059055118110236
0
CIRCLE
8
BLACK
10
0.4602362204724409
20
0.2802165354330708
40
0.0059055118110236
  0
ENDSEC
  0
EOF
