M48
; DRILL file {KiCad 8.0.8+1} date 2025-02-22T15:22:44+0000
; FORMAT={3:3/ absolute / metric / suppress leading zeros}
; #@! TF.CreationDate,2025-02-22T15:22:44+00:00
; #@! TF.GenerationSoftware,Kicad,Pcbnew,8.0.8+1
; #@! TF.FileFunction,Plated,1,2,PTH
FMAT,2
METRIC,TZ
; #@! TA.AperFunction,Plated,PTH,ViaDrill
T1C0.300
; #@! TA.AperFunction,Plated,PTH,ComponentDrill
T2C1.000
; #@! TA.AperFunction,Plated,PTH,ComponentDrill
T3C3.000
%
G90
G05
T1
X-12540Y8710
X-11380Y5100
X-10700Y270
X-9860Y12600
X-8950Y3580
X-8180Y-5840
X-6580Y3640
X-6550Y270
X-6550Y-2290
X-5620Y12570
X-5610Y-6130
X-5310Y8910
X-4960Y7590
X-2790Y-4820
X-2000Y-440
X-2000Y-3500
X-740Y9020
X-540Y12610
X300Y9560
X460Y8160
X700Y-5750
X1000Y11880
X1340Y470
X1370Y-2460
X1710Y12620
X2050Y8230
X2690Y-11670
X2980Y-10020
X3150Y7120
X3280Y3880
X3470Y-5890
X3760Y12910
X3770Y8220
X4810Y-5890
X5340Y3770
X5395Y8335
X5450Y12540
X5970Y-5910
X6570Y14710
X7260Y3700
X11690Y7118
X12080Y10960
X12330Y310
X13110Y15780
X14020Y10490
X15300Y15510
X15300Y370
T2
X-9350Y-10370
X-9350Y-12910
X-6810Y-10370
X-6810Y-12910
X-4270Y-10370
X-4270Y-12910
X-1730Y-10370
X-1730Y-12910
X810Y-10370
X810Y-12910
X4745Y-12760
X7285Y-12760
X9825Y-12760
T3
X-15290Y20370
X-15290Y-10110
X15190Y20370
X15190Y-10110
M30
