%TF.GenerationSoftware,KiCad,Pcbnew,8.0.8+1*%
%TF.CreationDate,2025-02-25T21:56:48+00:00*%
%TF.ProjectId,OLED02,4f4c4544-3032-42e6-9b69-6361645f7063,rev?*%
%TF.SameCoordinates,Original*%
%TF.FileFunction,Legend,Top*%
%TF.FilePolarity,Positive*%
%FSLAX46Y46*%
G04 Gerber Fmt 4.6, Leading zero omitted, Abs format (unit mm)*
G04 Created by KiCad (PCBNEW 8.0.8+1) date 2025-02-25 21:56:48*
%MOMM*%
%LPD*%
G01*
G04 APERTURE LIST*
%ADD10C,0.100000*%
%ADD11C,0.150000*%
%ADD12C,0.200000*%
%ADD13C,0.120000*%
G04 APERTURE END LIST*
D10*
X-17250000Y16590000D02*
X16750000Y16590000D01*
X16750000Y-6410000D01*
X-17250000Y-6410000D01*
X-17250000Y16590000D01*
X1834687Y-8039961D02*
X1910877Y-8087580D01*
X1910877Y-8087580D02*
X2025163Y-8087580D01*
X2025163Y-8087580D02*
X2139449Y-8039961D01*
X2139449Y-8039961D02*
X2215639Y-7944723D01*
X2215639Y-7944723D02*
X2253734Y-7849485D01*
X2253734Y-7849485D02*
X2291830Y-7659009D01*
X2291830Y-7659009D02*
X2291830Y-7516152D01*
X2291830Y-7516152D02*
X2253734Y-7325676D01*
X2253734Y-7325676D02*
X2215639Y-7230438D01*
X2215639Y-7230438D02*
X2139449Y-7135200D01*
X2139449Y-7135200D02*
X2025163Y-7087580D01*
X2025163Y-7087580D02*
X1948972Y-7087580D01*
X1948972Y-7087580D02*
X1834687Y-7135200D01*
X1834687Y-7135200D02*
X1796591Y-7182819D01*
X1796591Y-7182819D02*
X1796591Y-7516152D01*
X1796591Y-7516152D02*
X1948972Y-7516152D01*
X1453734Y-7087580D02*
X1453734Y-8087580D01*
X1453734Y-8087580D02*
X996591Y-7087580D01*
X996591Y-7087580D02*
X996591Y-8087580D01*
X615639Y-7087580D02*
X615639Y-8087580D01*
X615639Y-8087580D02*
X425163Y-8087580D01*
X425163Y-8087580D02*
X310877Y-8039961D01*
X310877Y-8039961D02*
X234687Y-7944723D01*
X234687Y-7944723D02*
X196592Y-7849485D01*
X196592Y-7849485D02*
X158496Y-7659009D01*
X158496Y-7659009D02*
X158496Y-7516152D01*
X158496Y-7516152D02*
X196592Y-7325676D01*
X196592Y-7325676D02*
X234687Y-7230438D01*
X234687Y-7230438D02*
X310877Y-7135200D01*
X310877Y-7135200D02*
X425163Y-7087580D01*
X425163Y-7087580D02*
X615639Y-7087580D01*
X-755789Y-7135200D02*
X-870075Y-7087580D01*
X-870075Y-7087580D02*
X-1060551Y-7087580D01*
X-1060551Y-7087580D02*
X-1136742Y-7135200D01*
X-1136742Y-7135200D02*
X-1174837Y-7182819D01*
X-1174837Y-7182819D02*
X-1212932Y-7278057D01*
X-1212932Y-7278057D02*
X-1212932Y-7373295D01*
X-1212932Y-7373295D02*
X-1174837Y-7468533D01*
X-1174837Y-7468533D02*
X-1136742Y-7516152D01*
X-1136742Y-7516152D02*
X-1060551Y-7563771D01*
X-1060551Y-7563771D02*
X-908170Y-7611390D01*
X-908170Y-7611390D02*
X-831980Y-7659009D01*
X-831980Y-7659009D02*
X-793885Y-7706628D01*
X-793885Y-7706628D02*
X-755789Y-7801866D01*
X-755789Y-7801866D02*
X-755789Y-7897104D01*
X-755789Y-7897104D02*
X-793885Y-7992342D01*
X-793885Y-7992342D02*
X-831980Y-8039961D01*
X-831980Y-8039961D02*
X-908170Y-8087580D01*
X-908170Y-8087580D02*
X-1098647Y-8087580D01*
X-1098647Y-8087580D02*
X-1212932Y-8039961D01*
X-2012933Y-7182819D02*
X-1974837Y-7135200D01*
X-1974837Y-7135200D02*
X-1860552Y-7087580D01*
X-1860552Y-7087580D02*
X-1784361Y-7087580D01*
X-1784361Y-7087580D02*
X-1670075Y-7135200D01*
X-1670075Y-7135200D02*
X-1593885Y-7230438D01*
X-1593885Y-7230438D02*
X-1555790Y-7325676D01*
X-1555790Y-7325676D02*
X-1517694Y-7516152D01*
X-1517694Y-7516152D02*
X-1517694Y-7659009D01*
X-1517694Y-7659009D02*
X-1555790Y-7849485D01*
X-1555790Y-7849485D02*
X-1593885Y-7944723D01*
X-1593885Y-7944723D02*
X-1670075Y-8039961D01*
X-1670075Y-8039961D02*
X-1784361Y-8087580D01*
X-1784361Y-8087580D02*
X-1860552Y-8087580D01*
X-1860552Y-8087580D02*
X-1974837Y-8039961D01*
X-1974837Y-8039961D02*
X-2012933Y-7992342D01*
X-2736742Y-7087580D02*
X-2355790Y-7087580D01*
X-2355790Y-7087580D02*
X-2355790Y-8087580D01*
X-3536742Y-8087580D02*
X-4031980Y-8087580D01*
X-4031980Y-8087580D02*
X-3765314Y-7706628D01*
X-3765314Y-7706628D02*
X-3879599Y-7706628D01*
X-3879599Y-7706628D02*
X-3955790Y-7659009D01*
X-3955790Y-7659009D02*
X-3993885Y-7611390D01*
X-3993885Y-7611390D02*
X-4031980Y-7516152D01*
X-4031980Y-7516152D02*
X-4031980Y-7278057D01*
X-4031980Y-7278057D02*
X-3993885Y-7182819D01*
X-3993885Y-7182819D02*
X-3955790Y-7135200D01*
X-3955790Y-7135200D02*
X-3879599Y-7087580D01*
X-3879599Y-7087580D02*
X-3651028Y-7087580D01*
X-3651028Y-7087580D02*
X-3574837Y-7135200D01*
X-3574837Y-7135200D02*
X-3536742Y-7182819D01*
X-4298647Y-7754247D02*
X-4489123Y-7087580D01*
X-4489123Y-7087580D02*
X-4679600Y-7754247D01*
X-4908171Y-8087580D02*
X-5403409Y-8087580D01*
X-5403409Y-8087580D02*
X-5136743Y-7706628D01*
X-5136743Y-7706628D02*
X-5251028Y-7706628D01*
X-5251028Y-7706628D02*
X-5327219Y-7659009D01*
X-5327219Y-7659009D02*
X-5365314Y-7611390D01*
X-5365314Y-7611390D02*
X-5403409Y-7516152D01*
X-5403409Y-7516152D02*
X-5403409Y-7278057D01*
X-5403409Y-7278057D02*
X-5365314Y-7182819D01*
X-5365314Y-7182819D02*
X-5327219Y-7135200D01*
X-5327219Y-7135200D02*
X-5251028Y-7087580D01*
X-5251028Y-7087580D02*
X-5022457Y-7087580D01*
X-5022457Y-7087580D02*
X-4946266Y-7135200D01*
X-4946266Y-7135200D02*
X-4908171Y-7182819D01*
X-6317695Y-7135200D02*
X-6431981Y-7087580D01*
X-6431981Y-7087580D02*
X-6622457Y-7087580D01*
X-6622457Y-7087580D02*
X-6698648Y-7135200D01*
X-6698648Y-7135200D02*
X-6736743Y-7182819D01*
X-6736743Y-7182819D02*
X-6774838Y-7278057D01*
X-6774838Y-7278057D02*
X-6774838Y-7373295D01*
X-6774838Y-7373295D02*
X-6736743Y-7468533D01*
X-6736743Y-7468533D02*
X-6698648Y-7516152D01*
X-6698648Y-7516152D02*
X-6622457Y-7563771D01*
X-6622457Y-7563771D02*
X-6470076Y-7611390D01*
X-6470076Y-7611390D02*
X-6393886Y-7659009D01*
X-6393886Y-7659009D02*
X-6355791Y-7706628D01*
X-6355791Y-7706628D02*
X-6317695Y-7801866D01*
X-6317695Y-7801866D02*
X-6317695Y-7897104D01*
X-6317695Y-7897104D02*
X-6355791Y-7992342D01*
X-6355791Y-7992342D02*
X-6393886Y-8039961D01*
X-6393886Y-8039961D02*
X-6470076Y-8087580D01*
X-6470076Y-8087580D02*
X-6660553Y-8087580D01*
X-6660553Y-8087580D02*
X-6774838Y-8039961D01*
X-7117696Y-7087580D02*
X-7117696Y-8087580D01*
X-7117696Y-8087580D02*
X-7308172Y-8087580D01*
X-7308172Y-8087580D02*
X-7422458Y-8039961D01*
X-7422458Y-8039961D02*
X-7498648Y-7944723D01*
X-7498648Y-7944723D02*
X-7536743Y-7849485D01*
X-7536743Y-7849485D02*
X-7574839Y-7659009D01*
X-7574839Y-7659009D02*
X-7574839Y-7516152D01*
X-7574839Y-7516152D02*
X-7536743Y-7325676D01*
X-7536743Y-7325676D02*
X-7498648Y-7230438D01*
X-7498648Y-7230438D02*
X-7422458Y-7135200D01*
X-7422458Y-7135200D02*
X-7308172Y-7087580D01*
X-7308172Y-7087580D02*
X-7117696Y-7087580D01*
X-7879600Y-7373295D02*
X-8260553Y-7373295D01*
X-7803410Y-7087580D02*
X-8070077Y-8087580D01*
X-8070077Y-8087580D02*
X-8336743Y-7087580D01*
X-9631981Y-8039961D02*
X-9555791Y-8087580D01*
X-9555791Y-8087580D02*
X-9441505Y-8087580D01*
X-9441505Y-8087580D02*
X-9327219Y-8039961D01*
X-9327219Y-8039961D02*
X-9251029Y-7944723D01*
X-9251029Y-7944723D02*
X-9212934Y-7849485D01*
X-9212934Y-7849485D02*
X-9174838Y-7659009D01*
X-9174838Y-7659009D02*
X-9174838Y-7516152D01*
X-9174838Y-7516152D02*
X-9212934Y-7325676D01*
X-9212934Y-7325676D02*
X-9251029Y-7230438D01*
X-9251029Y-7230438D02*
X-9327219Y-7135200D01*
X-9327219Y-7135200D02*
X-9441505Y-7087580D01*
X-9441505Y-7087580D02*
X-9517696Y-7087580D01*
X-9517696Y-7087580D02*
X-9631981Y-7135200D01*
X-9631981Y-7135200D02*
X-9670077Y-7182819D01*
X-9670077Y-7182819D02*
X-9670077Y-7516152D01*
X-9670077Y-7516152D02*
X-9517696Y-7516152D01*
X-10012934Y-7087580D02*
X-10012934Y-8087580D01*
X-10012934Y-8087580D02*
X-10470077Y-7087580D01*
X-10470077Y-7087580D02*
X-10470077Y-8087580D01*
X-10851029Y-7087580D02*
X-10851029Y-8087580D01*
X-10851029Y-8087580D02*
X-11041505Y-8087580D01*
X-11041505Y-8087580D02*
X-11155791Y-8039961D01*
X-11155791Y-8039961D02*
X-11231981Y-7944723D01*
X-11231981Y-7944723D02*
X-11270076Y-7849485D01*
X-11270076Y-7849485D02*
X-11308172Y-7659009D01*
X-11308172Y-7659009D02*
X-11308172Y-7516152D01*
X-11308172Y-7516152D02*
X-11270076Y-7325676D01*
X-11270076Y-7325676D02*
X-11231981Y-7230438D01*
X-11231981Y-7230438D02*
X-11155791Y-7135200D01*
X-11155791Y-7135200D02*
X-11041505Y-7087580D01*
X-11041505Y-7087580D02*
X-10851029Y-7087580D01*
X10401353Y-10817580D02*
X10325163Y-10817580D01*
X10325163Y-10817580D02*
X10248972Y-10769961D01*
X10248972Y-10769961D02*
X10210877Y-10722342D01*
X10210877Y-10722342D02*
X10172782Y-10627104D01*
X10172782Y-10627104D02*
X10134687Y-10436628D01*
X10134687Y-10436628D02*
X10134687Y-10198533D01*
X10134687Y-10198533D02*
X10172782Y-10008057D01*
X10172782Y-10008057D02*
X10210877Y-9912819D01*
X10210877Y-9912819D02*
X10248972Y-9865200D01*
X10248972Y-9865200D02*
X10325163Y-9817580D01*
X10325163Y-9817580D02*
X10401353Y-9817580D01*
X10401353Y-9817580D02*
X10477544Y-9865200D01*
X10477544Y-9865200D02*
X10515639Y-9912819D01*
X10515639Y-9912819D02*
X10553734Y-10008057D01*
X10553734Y-10008057D02*
X10591830Y-10198533D01*
X10591830Y-10198533D02*
X10591830Y-10436628D01*
X10591830Y-10436628D02*
X10553734Y-10627104D01*
X10553734Y-10627104D02*
X10515639Y-10722342D01*
X10515639Y-10722342D02*
X10477544Y-10769961D01*
X10477544Y-10769961D02*
X10401353Y-10817580D01*
X9868020Y-9817580D02*
X9448972Y-10484247D01*
X9868020Y-10484247D02*
X9448972Y-9817580D01*
X9220401Y-10817580D02*
X8687067Y-10817580D01*
X8687067Y-10817580D02*
X9029925Y-9817580D01*
X8458496Y-10817580D02*
X7925162Y-10817580D01*
X7925162Y-10817580D02*
X8268020Y-9817580D01*
X7048972Y-10865200D02*
X7734686Y-9579485D01*
X6629924Y-10817580D02*
X6553734Y-10817580D01*
X6553734Y-10817580D02*
X6477543Y-10769961D01*
X6477543Y-10769961D02*
X6439448Y-10722342D01*
X6439448Y-10722342D02*
X6401353Y-10627104D01*
X6401353Y-10627104D02*
X6363258Y-10436628D01*
X6363258Y-10436628D02*
X6363258Y-10198533D01*
X6363258Y-10198533D02*
X6401353Y-10008057D01*
X6401353Y-10008057D02*
X6439448Y-9912819D01*
X6439448Y-9912819D02*
X6477543Y-9865200D01*
X6477543Y-9865200D02*
X6553734Y-9817580D01*
X6553734Y-9817580D02*
X6629924Y-9817580D01*
X6629924Y-9817580D02*
X6706115Y-9865200D01*
X6706115Y-9865200D02*
X6744210Y-9912819D01*
X6744210Y-9912819D02*
X6782305Y-10008057D01*
X6782305Y-10008057D02*
X6820401Y-10198533D01*
X6820401Y-10198533D02*
X6820401Y-10436628D01*
X6820401Y-10436628D02*
X6782305Y-10627104D01*
X6782305Y-10627104D02*
X6744210Y-10722342D01*
X6744210Y-10722342D02*
X6706115Y-10769961D01*
X6706115Y-10769961D02*
X6629924Y-10817580D01*
X6096591Y-9817580D02*
X5677543Y-10484247D01*
X6096591Y-10484247D02*
X5677543Y-9817580D01*
X5448972Y-10817580D02*
X4915638Y-10817580D01*
X4915638Y-10817580D02*
X5258496Y-9817580D01*
X4496591Y-10389009D02*
X4572781Y-10436628D01*
X4572781Y-10436628D02*
X4610876Y-10484247D01*
X4610876Y-10484247D02*
X4648972Y-10579485D01*
X4648972Y-10579485D02*
X4648972Y-10627104D01*
X4648972Y-10627104D02*
X4610876Y-10722342D01*
X4610876Y-10722342D02*
X4572781Y-10769961D01*
X4572781Y-10769961D02*
X4496591Y-10817580D01*
X4496591Y-10817580D02*
X4344210Y-10817580D01*
X4344210Y-10817580D02*
X4268019Y-10769961D01*
X4268019Y-10769961D02*
X4229924Y-10722342D01*
X4229924Y-10722342D02*
X4191829Y-10627104D01*
X4191829Y-10627104D02*
X4191829Y-10579485D01*
X4191829Y-10579485D02*
X4229924Y-10484247D01*
X4229924Y-10484247D02*
X4268019Y-10436628D01*
X4268019Y-10436628D02*
X4344210Y-10389009D01*
X4344210Y-10389009D02*
X4496591Y-10389009D01*
X4496591Y-10389009D02*
X4572781Y-10341390D01*
X4572781Y-10341390D02*
X4610876Y-10293771D01*
X4610876Y-10293771D02*
X4648972Y-10198533D01*
X4648972Y-10198533D02*
X4648972Y-10008057D01*
X4648972Y-10008057D02*
X4610876Y-9912819D01*
X4610876Y-9912819D02*
X4572781Y-9865200D01*
X4572781Y-9865200D02*
X4496591Y-9817580D01*
X4496591Y-9817580D02*
X4344210Y-9817580D01*
X4344210Y-9817580D02*
X4268019Y-9865200D01*
X4268019Y-9865200D02*
X4229924Y-9912819D01*
X4229924Y-9912819D02*
X4191829Y-10008057D01*
X4191829Y-10008057D02*
X4191829Y-10198533D01*
X4191829Y-10198533D02*
X4229924Y-10293771D01*
X4229924Y-10293771D02*
X4268019Y-10341390D01*
X4268019Y-10341390D02*
X4344210Y-10389009D01*
D11*
X10414173Y21203310D02*
X10204649Y21936643D01*
X10204649Y21936643D02*
X9995125Y21412834D01*
X9995125Y21412834D02*
X9785601Y21936643D01*
X9785601Y21936643D02*
X9576077Y21203310D01*
X9261792Y21203310D02*
X9052268Y21936643D01*
X9052268Y21936643D02*
X8842744Y21412834D01*
X8842744Y21412834D02*
X8633220Y21936643D01*
X8633220Y21936643D02*
X8423696Y21203310D01*
X8109411Y21203310D02*
X7899887Y21936643D01*
X7899887Y21936643D02*
X7690363Y21412834D01*
X7690363Y21412834D02*
X7480839Y21936643D01*
X7480839Y21936643D02*
X7271315Y21203310D01*
X6852268Y21831882D02*
X6799887Y21884262D01*
X6799887Y21884262D02*
X6852268Y21936643D01*
X6852268Y21936643D02*
X6904649Y21884262D01*
X6904649Y21884262D02*
X6852268Y21831882D01*
X6852268Y21831882D02*
X6852268Y21936643D01*
X6328458Y21936643D02*
X6328458Y21203310D01*
X6328458Y21308072D02*
X6276077Y21255691D01*
X6276077Y21255691D02*
X6171315Y21203310D01*
X6171315Y21203310D02*
X6014172Y21203310D01*
X6014172Y21203310D02*
X5909410Y21255691D01*
X5909410Y21255691D02*
X5857029Y21360453D01*
X5857029Y21360453D02*
X5857029Y21936643D01*
X5857029Y21360453D02*
X5804648Y21255691D01*
X5804648Y21255691D02*
X5699886Y21203310D01*
X5699886Y21203310D02*
X5542743Y21203310D01*
X5542743Y21203310D02*
X5437982Y21255691D01*
X5437982Y21255691D02*
X5385601Y21360453D01*
X5385601Y21360453D02*
X5385601Y21936643D01*
X4704648Y21936643D02*
X4809410Y21884262D01*
X4809410Y21884262D02*
X4861791Y21779501D01*
X4861791Y21779501D02*
X4861791Y20836643D01*
X3814172Y21936643D02*
X3814172Y21360453D01*
X3814172Y21360453D02*
X3866553Y21255691D01*
X3866553Y21255691D02*
X3971315Y21203310D01*
X3971315Y21203310D02*
X4180839Y21203310D01*
X4180839Y21203310D02*
X4285601Y21255691D01*
X3814172Y21884262D02*
X3918934Y21936643D01*
X3918934Y21936643D02*
X4180839Y21936643D01*
X4180839Y21936643D02*
X4285601Y21884262D01*
X4285601Y21884262D02*
X4337982Y21779501D01*
X4337982Y21779501D02*
X4337982Y21674739D01*
X4337982Y21674739D02*
X4285601Y21569977D01*
X4285601Y21569977D02*
X4180839Y21517596D01*
X4180839Y21517596D02*
X3918934Y21517596D01*
X3918934Y21517596D02*
X3814172Y21465215D01*
X3290363Y21936643D02*
X3290363Y20836643D01*
X3290363Y21255691D02*
X3185601Y21203310D01*
X3185601Y21203310D02*
X2976077Y21203310D01*
X2976077Y21203310D02*
X2871315Y21255691D01*
X2871315Y21255691D02*
X2818934Y21308072D01*
X2818934Y21308072D02*
X2766553Y21412834D01*
X2766553Y21412834D02*
X2766553Y21727120D01*
X2766553Y21727120D02*
X2818934Y21831882D01*
X2818934Y21831882D02*
X2871315Y21884262D01*
X2871315Y21884262D02*
X2976077Y21936643D01*
X2976077Y21936643D02*
X3185601Y21936643D01*
X3185601Y21936643D02*
X3290363Y21884262D01*
X2295125Y21831882D02*
X2242744Y21884262D01*
X2242744Y21884262D02*
X2295125Y21936643D01*
X2295125Y21936643D02*
X2347506Y21884262D01*
X2347506Y21884262D02*
X2295125Y21831882D01*
X2295125Y21831882D02*
X2295125Y21936643D01*
X1299886Y21884262D02*
X1404648Y21936643D01*
X1404648Y21936643D02*
X1614172Y21936643D01*
X1614172Y21936643D02*
X1718934Y21884262D01*
X1718934Y21884262D02*
X1771315Y21831882D01*
X1771315Y21831882D02*
X1823696Y21727120D01*
X1823696Y21727120D02*
X1823696Y21412834D01*
X1823696Y21412834D02*
X1771315Y21308072D01*
X1771315Y21308072D02*
X1718934Y21255691D01*
X1718934Y21255691D02*
X1614172Y21203310D01*
X1614172Y21203310D02*
X1404648Y21203310D01*
X1404648Y21203310D02*
X1299886Y21255691D01*
X933220Y21203310D02*
X357029Y21203310D01*
X357029Y21203310D02*
X933220Y21936643D01*
X933220Y21936643D02*
X357029Y21936643D01*
X-4462017Y20836643D02*
X-4671541Y20836643D01*
X-4671541Y20836643D02*
X-4776303Y20889024D01*
X-4776303Y20889024D02*
X-4881065Y20993786D01*
X-4881065Y20993786D02*
X-4933446Y21203310D01*
X-4933446Y21203310D02*
X-4933446Y21569977D01*
X-4933446Y21569977D02*
X-4881065Y21779501D01*
X-4881065Y21779501D02*
X-4776303Y21884262D01*
X-4776303Y21884262D02*
X-4671541Y21936643D01*
X-4671541Y21936643D02*
X-4462017Y21936643D01*
X-4462017Y21936643D02*
X-4357255Y21884262D01*
X-4357255Y21884262D02*
X-4252493Y21779501D01*
X-4252493Y21779501D02*
X-4200112Y21569977D01*
X-4200112Y21569977D02*
X-4200112Y21203310D01*
X-4200112Y21203310D02*
X-4252493Y20993786D01*
X-4252493Y20993786D02*
X-4357255Y20889024D01*
X-4357255Y20889024D02*
X-4462017Y20836643D01*
X-5928684Y21936643D02*
X-5404874Y21936643D01*
X-5404874Y21936643D02*
X-5404874Y20836643D01*
X-6295350Y21360453D02*
X-6662017Y21360453D01*
X-6819160Y21936643D02*
X-6295350Y21936643D01*
X-6295350Y21936643D02*
X-6295350Y20836643D01*
X-6295350Y20836643D02*
X-6819160Y20836643D01*
X-7290588Y21936643D02*
X-7290588Y20836643D01*
X-7290588Y20836643D02*
X-7552493Y20836643D01*
X-7552493Y20836643D02*
X-7709636Y20889024D01*
X-7709636Y20889024D02*
X-7814398Y20993786D01*
X-7814398Y20993786D02*
X-7866779Y21098548D01*
X-7866779Y21098548D02*
X-7919160Y21308072D01*
X-7919160Y21308072D02*
X-7919160Y21465215D01*
X-7919160Y21465215D02*
X-7866779Y21674739D01*
X-7866779Y21674739D02*
X-7814398Y21779501D01*
X-7814398Y21779501D02*
X-7709636Y21884262D01*
X-7709636Y21884262D02*
X-7552493Y21936643D01*
X-7552493Y21936643D02*
X-7290588Y21936643D01*
X-8600112Y20836643D02*
X-8704874Y20836643D01*
X-8704874Y20836643D02*
X-8809636Y20889024D01*
X-8809636Y20889024D02*
X-8862017Y20941405D01*
X-8862017Y20941405D02*
X-8914398Y21046167D01*
X-8914398Y21046167D02*
X-8966779Y21255691D01*
X-8966779Y21255691D02*
X-8966779Y21517596D01*
X-8966779Y21517596D02*
X-8914398Y21727120D01*
X-8914398Y21727120D02*
X-8862017Y21831882D01*
X-8862017Y21831882D02*
X-8809636Y21884262D01*
X-8809636Y21884262D02*
X-8704874Y21936643D01*
X-8704874Y21936643D02*
X-8600112Y21936643D01*
X-8600112Y21936643D02*
X-8495350Y21884262D01*
X-8495350Y21884262D02*
X-8442969Y21831882D01*
X-8442969Y21831882D02*
X-8390588Y21727120D01*
X-8390588Y21727120D02*
X-8338207Y21517596D01*
X-8338207Y21517596D02*
X-8338207Y21255691D01*
X-8338207Y21255691D02*
X-8390588Y21046167D01*
X-8390588Y21046167D02*
X-8442969Y20941405D01*
X-8442969Y20941405D02*
X-8495350Y20889024D01*
X-8495350Y20889024D02*
X-8600112Y20836643D01*
X-9385826Y20941405D02*
X-9438207Y20889024D01*
X-9438207Y20889024D02*
X-9542969Y20836643D01*
X-9542969Y20836643D02*
X-9804874Y20836643D01*
X-9804874Y20836643D02*
X-9909636Y20889024D01*
X-9909636Y20889024D02*
X-9962017Y20941405D01*
X-9962017Y20941405D02*
X-10014398Y21046167D01*
X-10014398Y21046167D02*
X-10014398Y21150929D01*
X-10014398Y21150929D02*
X-9962017Y21308072D01*
X-9962017Y21308072D02*
X-9333445Y21936643D01*
X-9333445Y21936643D02*
X-10014398Y21936643D01*
X-10433445Y21622358D02*
X-10957255Y21622358D01*
X-10328683Y21936643D02*
X-10695350Y20836643D01*
X-10695350Y20836643D02*
X-11062017Y21936643D01*
X10309411Y23707581D02*
X10309411Y22974248D01*
X10309411Y23183772D02*
X10257030Y23079010D01*
X10257030Y23079010D02*
X10204649Y23026629D01*
X10204649Y23026629D02*
X10099887Y22974248D01*
X10099887Y22974248D02*
X9995125Y22974248D01*
X9471316Y23707581D02*
X9576078Y23655200D01*
X9576078Y23655200D02*
X9628459Y23602820D01*
X9628459Y23602820D02*
X9680840Y23498058D01*
X9680840Y23498058D02*
X9680840Y23183772D01*
X9680840Y23183772D02*
X9628459Y23079010D01*
X9628459Y23079010D02*
X9576078Y23026629D01*
X9576078Y23026629D02*
X9471316Y22974248D01*
X9471316Y22974248D02*
X9314173Y22974248D01*
X9314173Y22974248D02*
X9209411Y23026629D01*
X9209411Y23026629D02*
X9157030Y23079010D01*
X9157030Y23079010D02*
X9104649Y23183772D01*
X9104649Y23183772D02*
X9104649Y23498058D01*
X9104649Y23498058D02*
X9157030Y23602820D01*
X9157030Y23602820D02*
X9209411Y23655200D01*
X9209411Y23655200D02*
X9314173Y23707581D01*
X9314173Y23707581D02*
X9471316Y23707581D01*
X8633221Y23707581D02*
X8633221Y22974248D01*
X8633221Y23079010D02*
X8580840Y23026629D01*
X8580840Y23026629D02*
X8476078Y22974248D01*
X8476078Y22974248D02*
X8318935Y22974248D01*
X8318935Y22974248D02*
X8214173Y23026629D01*
X8214173Y23026629D02*
X8161792Y23131391D01*
X8161792Y23131391D02*
X8161792Y23707581D01*
X8161792Y23131391D02*
X8109411Y23026629D01*
X8109411Y23026629D02*
X8004649Y22974248D01*
X8004649Y22974248D02*
X7847506Y22974248D01*
X7847506Y22974248D02*
X7742745Y23026629D01*
X7742745Y23026629D02*
X7690364Y23131391D01*
X7690364Y23131391D02*
X7690364Y23707581D01*
X6695125Y23707581D02*
X6695125Y23131391D01*
X6695125Y23131391D02*
X6747506Y23026629D01*
X6747506Y23026629D02*
X6852268Y22974248D01*
X6852268Y22974248D02*
X7061792Y22974248D01*
X7061792Y22974248D02*
X7166554Y23026629D01*
X6695125Y23655200D02*
X6799887Y23707581D01*
X6799887Y23707581D02*
X7061792Y23707581D01*
X7061792Y23707581D02*
X7166554Y23655200D01*
X7166554Y23655200D02*
X7218935Y23550439D01*
X7218935Y23550439D02*
X7218935Y23445677D01*
X7218935Y23445677D02*
X7166554Y23340915D01*
X7166554Y23340915D02*
X7061792Y23288534D01*
X7061792Y23288534D02*
X6799887Y23288534D01*
X6799887Y23288534D02*
X6695125Y23236153D01*
X6171316Y22974248D02*
X6171316Y23707581D01*
X6171316Y23079010D02*
X6118935Y23026629D01*
X6118935Y23026629D02*
X6014173Y22974248D01*
X6014173Y22974248D02*
X5857030Y22974248D01*
X5857030Y22974248D02*
X5752268Y23026629D01*
X5752268Y23026629D02*
X5699887Y23131391D01*
X5699887Y23131391D02*
X5699887Y23707581D01*
X5176078Y23288534D02*
X4337983Y23288534D01*
X3342744Y23707581D02*
X3342744Y22607581D01*
X3342744Y23655200D02*
X3447506Y23707581D01*
X3447506Y23707581D02*
X3657030Y23707581D01*
X3657030Y23707581D02*
X3761792Y23655200D01*
X3761792Y23655200D02*
X3814173Y23602820D01*
X3814173Y23602820D02*
X3866554Y23498058D01*
X3866554Y23498058D02*
X3866554Y23183772D01*
X3866554Y23183772D02*
X3814173Y23079010D01*
X3814173Y23079010D02*
X3761792Y23026629D01*
X3761792Y23026629D02*
X3657030Y22974248D01*
X3657030Y22974248D02*
X3447506Y22974248D01*
X3447506Y22974248D02*
X3342744Y23026629D01*
X2923697Y22974248D02*
X2661792Y23707581D01*
X2661792Y23707581D02*
X2399887Y22974248D01*
X1823697Y23707581D02*
X1928459Y23655200D01*
X1928459Y23655200D02*
X1980840Y23602820D01*
X1980840Y23602820D02*
X2033221Y23498058D01*
X2033221Y23498058D02*
X2033221Y23183772D01*
X2033221Y23183772D02*
X1980840Y23079010D01*
X1980840Y23079010D02*
X1928459Y23026629D01*
X1928459Y23026629D02*
X1823697Y22974248D01*
X1823697Y22974248D02*
X1666554Y22974248D01*
X1666554Y22974248D02*
X1561792Y23026629D01*
X1561792Y23026629D02*
X1509411Y23079010D01*
X1509411Y23079010D02*
X1457030Y23183772D01*
X1457030Y23183772D02*
X1457030Y23498058D01*
X1457030Y23498058D02*
X1509411Y23602820D01*
X1509411Y23602820D02*
X1561792Y23655200D01*
X1561792Y23655200D02*
X1666554Y23707581D01*
X1666554Y23707581D02*
X1823697Y23707581D01*
X985602Y23707581D02*
X985602Y22974248D01*
X985602Y23183772D02*
X933221Y23079010D01*
X933221Y23079010D02*
X880840Y23026629D01*
X880840Y23026629D02*
X776078Y22974248D01*
X776078Y22974248D02*
X671316Y22974248D01*
X-166779Y23707581D02*
X-166779Y23131391D01*
X-166779Y23131391D02*
X-114398Y23026629D01*
X-114398Y23026629D02*
X-9636Y22974248D01*
X-9636Y22974248D02*
X199888Y22974248D01*
X199888Y22974248D02*
X304650Y23026629D01*
X-166779Y23655200D02*
X-62017Y23707581D01*
X-62017Y23707581D02*
X199888Y23707581D01*
X199888Y23707581D02*
X304650Y23655200D01*
X304650Y23655200D02*
X357031Y23550439D01*
X357031Y23550439D02*
X357031Y23445677D01*
X357031Y23445677D02*
X304650Y23340915D01*
X304650Y23340915D02*
X199888Y23288534D01*
X199888Y23288534D02*
X-62017Y23288534D01*
X-62017Y23288534D02*
X-166779Y23236153D01*
X-690588Y23707581D02*
X-690588Y22607581D01*
X-795350Y23288534D02*
X-1109636Y23707581D01*
X-1109636Y22974248D02*
X-690588Y23393296D01*
X-7395348Y22712343D02*
X-7447729Y22659962D01*
X-7447729Y22659962D02*
X-7552491Y22607581D01*
X-7552491Y22607581D02*
X-7814396Y22607581D01*
X-7814396Y22607581D02*
X-7919158Y22659962D01*
X-7919158Y22659962D02*
X-7971539Y22712343D01*
X-7971539Y22712343D02*
X-8023920Y22817105D01*
X-8023920Y22817105D02*
X-8023920Y22921867D01*
X-8023920Y22921867D02*
X-7971539Y23079010D01*
X-7971539Y23079010D02*
X-7342967Y23707581D01*
X-7342967Y23707581D02*
X-8023920Y23707581D01*
X-8704872Y22607581D02*
X-8809634Y22607581D01*
X-8809634Y22607581D02*
X-8914396Y22659962D01*
X-8914396Y22659962D02*
X-8966777Y22712343D01*
X-8966777Y22712343D02*
X-9019158Y22817105D01*
X-9019158Y22817105D02*
X-9071539Y23026629D01*
X-9071539Y23026629D02*
X-9071539Y23288534D01*
X-9071539Y23288534D02*
X-9019158Y23498058D01*
X-9019158Y23498058D02*
X-8966777Y23602820D01*
X-8966777Y23602820D02*
X-8914396Y23655200D01*
X-8914396Y23655200D02*
X-8809634Y23707581D01*
X-8809634Y23707581D02*
X-8704872Y23707581D01*
X-8704872Y23707581D02*
X-8600110Y23655200D01*
X-8600110Y23655200D02*
X-8547729Y23602820D01*
X-8547729Y23602820D02*
X-8495348Y23498058D01*
X-8495348Y23498058D02*
X-8442967Y23288534D01*
X-8442967Y23288534D02*
X-8442967Y23026629D01*
X-8442967Y23026629D02*
X-8495348Y22817105D01*
X-8495348Y22817105D02*
X-8547729Y22712343D01*
X-8547729Y22712343D02*
X-8600110Y22659962D01*
X-8600110Y22659962D02*
X-8704872Y22607581D01*
X-9490586Y22712343D02*
X-9542967Y22659962D01*
X-9542967Y22659962D02*
X-9647729Y22607581D01*
X-9647729Y22607581D02*
X-9909634Y22607581D01*
X-9909634Y22607581D02*
X-10014396Y22659962D01*
X-10014396Y22659962D02*
X-10066777Y22712343D01*
X-10066777Y22712343D02*
X-10119158Y22817105D01*
X-10119158Y22817105D02*
X-10119158Y22921867D01*
X-10119158Y22921867D02*
X-10066777Y23079010D01*
X-10066777Y23079010D02*
X-9438205Y23707581D01*
X-9438205Y23707581D02*
X-10119158Y23707581D01*
X-11114396Y22607581D02*
X-10590586Y22607581D01*
X-10590586Y22607581D02*
X-10538205Y23131391D01*
X-10538205Y23131391D02*
X-10590586Y23079010D01*
X-10590586Y23079010D02*
X-10695348Y23026629D01*
X-10695348Y23026629D02*
X-10957253Y23026629D01*
X-10957253Y23026629D02*
X-11062015Y23079010D01*
X-11062015Y23079010D02*
X-11114396Y23131391D01*
X-11114396Y23131391D02*
X-11166777Y23236153D01*
X-11166777Y23236153D02*
X-11166777Y23498058D01*
X-11166777Y23498058D02*
X-11114396Y23602820D01*
X-11114396Y23602820D02*
X-11062015Y23655200D01*
X-11062015Y23655200D02*
X-10957253Y23707581D01*
X-10957253Y23707581D02*
X-10695348Y23707581D01*
X-10695348Y23707581D02*
X-10590586Y23655200D01*
X-10590586Y23655200D02*
X-10538205Y23602820D01*
D12*
X9435564Y-8172780D02*
X8816517Y-8172780D01*
X8816517Y-8172780D02*
X9149850Y-7791828D01*
X9149850Y-7791828D02*
X9006993Y-7791828D01*
X9006993Y-7791828D02*
X8911755Y-7744209D01*
X8911755Y-7744209D02*
X8864136Y-7696590D01*
X8864136Y-7696590D02*
X8816517Y-7601352D01*
X8816517Y-7601352D02*
X8816517Y-7363257D01*
X8816517Y-7363257D02*
X8864136Y-7268019D01*
X8864136Y-7268019D02*
X8911755Y-7220400D01*
X8911755Y-7220400D02*
X9006993Y-7172780D01*
X9006993Y-7172780D02*
X9292707Y-7172780D01*
X9292707Y-7172780D02*
X9387945Y-7220400D01*
X9387945Y-7220400D02*
X9435564Y-7268019D01*
X8483183Y-7839447D02*
X8245088Y-7172780D01*
X8245088Y-7172780D02*
X8006993Y-7839447D01*
X7721278Y-8172780D02*
X7102231Y-8172780D01*
X7102231Y-8172780D02*
X7435564Y-7791828D01*
X7435564Y-7791828D02*
X7292707Y-7791828D01*
X7292707Y-7791828D02*
X7197469Y-7744209D01*
X7197469Y-7744209D02*
X7149850Y-7696590D01*
X7149850Y-7696590D02*
X7102231Y-7601352D01*
X7102231Y-7601352D02*
X7102231Y-7363257D01*
X7102231Y-7363257D02*
X7149850Y-7268019D01*
X7149850Y-7268019D02*
X7197469Y-7220400D01*
X7197469Y-7220400D02*
X7292707Y-7172780D01*
X7292707Y-7172780D02*
X7578421Y-7172780D01*
X7578421Y-7172780D02*
X7673659Y-7220400D01*
X7673659Y-7220400D02*
X7721278Y-7268019D01*
X5911754Y-7172780D02*
X5911754Y-7839447D01*
X5911754Y-7744209D02*
X5864135Y-7791828D01*
X5864135Y-7791828D02*
X5768897Y-7839447D01*
X5768897Y-7839447D02*
X5626040Y-7839447D01*
X5626040Y-7839447D02*
X5530802Y-7791828D01*
X5530802Y-7791828D02*
X5483183Y-7696590D01*
X5483183Y-7696590D02*
X5483183Y-7172780D01*
X5483183Y-7696590D02*
X5435564Y-7791828D01*
X5435564Y-7791828D02*
X5340326Y-7839447D01*
X5340326Y-7839447D02*
X5197469Y-7839447D01*
X5197469Y-7839447D02*
X5102230Y-7791828D01*
X5102230Y-7791828D02*
X5054611Y-7696590D01*
X5054611Y-7696590D02*
X5054611Y-7172780D01*
X4149850Y-7172780D02*
X4149850Y-7696590D01*
X4149850Y-7696590D02*
X4197469Y-7791828D01*
X4197469Y-7791828D02*
X4292707Y-7839447D01*
X4292707Y-7839447D02*
X4483183Y-7839447D01*
X4483183Y-7839447D02*
X4578421Y-7791828D01*
X4149850Y-7220400D02*
X4245088Y-7172780D01*
X4245088Y-7172780D02*
X4483183Y-7172780D01*
X4483183Y-7172780D02*
X4578421Y-7220400D01*
X4578421Y-7220400D02*
X4626040Y-7315638D01*
X4626040Y-7315638D02*
X4626040Y-7410876D01*
X4626040Y-7410876D02*
X4578421Y-7506114D01*
X4578421Y-7506114D02*
X4483183Y-7553733D01*
X4483183Y-7553733D02*
X4245088Y-7553733D01*
X4245088Y-7553733D02*
X4149850Y-7601352D01*
X3768897Y-7172780D02*
X3245088Y-7839447D01*
X3768897Y-7839447D02*
X3245088Y-7172780D01*
D10*
X1631428Y2662476D02*
X2202856Y2662476D01*
X1917142Y2662476D02*
X1917142Y1662476D01*
X1917142Y1662476D02*
X2012380Y1805333D01*
X2012380Y1805333D02*
X2107618Y1900571D01*
X2107618Y1900571D02*
X2202856Y1948190D01*
X1202856Y2567237D02*
X1155237Y2614856D01*
X1155237Y2614856D02*
X1202856Y2662476D01*
X1202856Y2662476D02*
X1250475Y2614856D01*
X1250475Y2614856D02*
X1202856Y2567237D01*
X1202856Y2567237D02*
X1202856Y2662476D01*
X821904Y1662476D02*
X202857Y1662476D01*
X202857Y1662476D02*
X536190Y2043428D01*
X536190Y2043428D02*
X393333Y2043428D01*
X393333Y2043428D02*
X298095Y2091047D01*
X298095Y2091047D02*
X250476Y2138666D01*
X250476Y2138666D02*
X202857Y2233904D01*
X202857Y2233904D02*
X202857Y2471999D01*
X202857Y2471999D02*
X250476Y2567237D01*
X250476Y2567237D02*
X298095Y2614856D01*
X298095Y2614856D02*
X393333Y2662476D01*
X393333Y2662476D02*
X679047Y2662476D01*
X679047Y2662476D02*
X774285Y2614856D01*
X774285Y2614856D02*
X821904Y2567237D01*
X-178096Y1662476D02*
X-178096Y1852952D01*
X-559048Y1662476D02*
X-559048Y1852952D01*
X-1940001Y1662476D02*
X-2130477Y1662476D01*
X-2130477Y1662476D02*
X-2225715Y1710095D01*
X-2225715Y1710095D02*
X-2320953Y1805333D01*
X-2320953Y1805333D02*
X-2368572Y1995809D01*
X-2368572Y1995809D02*
X-2368572Y2329142D01*
X-2368572Y2329142D02*
X-2320953Y2519618D01*
X-2320953Y2519618D02*
X-2225715Y2614856D01*
X-2225715Y2614856D02*
X-2130477Y2662476D01*
X-2130477Y2662476D02*
X-1940001Y2662476D01*
X-1940001Y2662476D02*
X-1844763Y2614856D01*
X-1844763Y2614856D02*
X-1749525Y2519618D01*
X-1749525Y2519618D02*
X-1701906Y2329142D01*
X-1701906Y2329142D02*
X-1701906Y1995809D01*
X-1701906Y1995809D02*
X-1749525Y1805333D01*
X-1749525Y1805333D02*
X-1844763Y1710095D01*
X-1844763Y1710095D02*
X-1940001Y1662476D01*
X-3273334Y2662476D02*
X-2797144Y2662476D01*
X-2797144Y2662476D02*
X-2797144Y1662476D01*
X-3606668Y2138666D02*
X-3940001Y2138666D01*
X-4082858Y2662476D02*
X-3606668Y2662476D01*
X-3606668Y2662476D02*
X-3606668Y1662476D01*
X-3606668Y1662476D02*
X-4082858Y1662476D01*
X-4511430Y2662476D02*
X-4511430Y1662476D01*
X-4511430Y1662476D02*
X-4749525Y1662476D01*
X-4749525Y1662476D02*
X-4892382Y1710095D01*
X-4892382Y1710095D02*
X-4987620Y1805333D01*
X-4987620Y1805333D02*
X-5035239Y1900571D01*
X-5035239Y1900571D02*
X-5082858Y2091047D01*
X-5082858Y2091047D02*
X-5082858Y2233904D01*
X-5082858Y2233904D02*
X-5035239Y2424380D01*
X-5035239Y2424380D02*
X-4987620Y2519618D01*
X-4987620Y2519618D02*
X-4892382Y2614856D01*
X-4892382Y2614856D02*
X-4749525Y2662476D01*
X-4749525Y2662476D02*
X-4511430Y2662476D01*
X1726667Y4272420D02*
X2298095Y4272420D01*
X2012381Y4272420D02*
X2012381Y3272420D01*
X2012381Y3272420D02*
X2107619Y3415277D01*
X2107619Y3415277D02*
X2202857Y3510515D01*
X2202857Y3510515D02*
X2298095Y3558134D01*
X1345714Y3367658D02*
X1298095Y3320039D01*
X1298095Y3320039D02*
X1202857Y3272420D01*
X1202857Y3272420D02*
X964762Y3272420D01*
X964762Y3272420D02*
X869524Y3320039D01*
X869524Y3320039D02*
X821905Y3367658D01*
X821905Y3367658D02*
X774286Y3462896D01*
X774286Y3462896D02*
X774286Y3558134D01*
X774286Y3558134D02*
X821905Y3700991D01*
X821905Y3700991D02*
X1393333Y4272420D01*
X1393333Y4272420D02*
X774286Y4272420D01*
X202857Y3700991D02*
X298095Y3653372D01*
X298095Y3653372D02*
X345714Y3605753D01*
X345714Y3605753D02*
X393333Y3510515D01*
X393333Y3510515D02*
X393333Y3462896D01*
X393333Y3462896D02*
X345714Y3367658D01*
X345714Y3367658D02*
X298095Y3320039D01*
X298095Y3320039D02*
X202857Y3272420D01*
X202857Y3272420D02*
X12381Y3272420D01*
X12381Y3272420D02*
X-82857Y3320039D01*
X-82857Y3320039D02*
X-130476Y3367658D01*
X-130476Y3367658D02*
X-178095Y3462896D01*
X-178095Y3462896D02*
X-178095Y3510515D01*
X-178095Y3510515D02*
X-130476Y3605753D01*
X-130476Y3605753D02*
X-82857Y3653372D01*
X-82857Y3653372D02*
X12381Y3700991D01*
X12381Y3700991D02*
X202857Y3700991D01*
X202857Y3700991D02*
X298095Y3748610D01*
X298095Y3748610D02*
X345714Y3796229D01*
X345714Y3796229D02*
X393333Y3891467D01*
X393333Y3891467D02*
X393333Y4081943D01*
X393333Y4081943D02*
X345714Y4177181D01*
X345714Y4177181D02*
X298095Y4224800D01*
X298095Y4224800D02*
X202857Y4272420D01*
X202857Y4272420D02*
X12381Y4272420D01*
X12381Y4272420D02*
X-82857Y4224800D01*
X-82857Y4224800D02*
X-130476Y4177181D01*
X-130476Y4177181D02*
X-178095Y4081943D01*
X-178095Y4081943D02*
X-178095Y3891467D01*
X-178095Y3891467D02*
X-130476Y3796229D01*
X-130476Y3796229D02*
X-82857Y3748610D01*
X-82857Y3748610D02*
X12381Y3700991D01*
X-1273334Y4272420D02*
X-1797143Y3605753D01*
X-1273334Y3605753D02*
X-1797143Y4272420D01*
X-3368572Y3272420D02*
X-3178096Y3272420D01*
X-3178096Y3272420D02*
X-3082858Y3320039D01*
X-3082858Y3320039D02*
X-3035239Y3367658D01*
X-3035239Y3367658D02*
X-2940001Y3510515D01*
X-2940001Y3510515D02*
X-2892382Y3700991D01*
X-2892382Y3700991D02*
X-2892382Y4081943D01*
X-2892382Y4081943D02*
X-2940001Y4177181D01*
X-2940001Y4177181D02*
X-2987620Y4224800D01*
X-2987620Y4224800D02*
X-3082858Y4272420D01*
X-3082858Y4272420D02*
X-3273334Y4272420D01*
X-3273334Y4272420D02*
X-3368572Y4224800D01*
X-3368572Y4224800D02*
X-3416191Y4177181D01*
X-3416191Y4177181D02*
X-3463810Y4081943D01*
X-3463810Y4081943D02*
X-3463810Y3843848D01*
X-3463810Y3843848D02*
X-3416191Y3748610D01*
X-3416191Y3748610D02*
X-3368572Y3700991D01*
X-3368572Y3700991D02*
X-3273334Y3653372D01*
X-3273334Y3653372D02*
X-3082858Y3653372D01*
X-3082858Y3653372D02*
X-2987620Y3700991D01*
X-2987620Y3700991D02*
X-2940001Y3748610D01*
X-2940001Y3748610D02*
X-2892382Y3843848D01*
X-4320953Y3605753D02*
X-4320953Y4272420D01*
X-4082858Y3224800D02*
X-3844763Y3939086D01*
X-3844763Y3939086D02*
X-4463810Y3939086D01*
D11*
X-1274286Y14335181D02*
X-1274286Y15335181D01*
X-1274286Y15335181D02*
X-1036191Y15335181D01*
X-1036191Y15335181D02*
X-893334Y15287562D01*
X-893334Y15287562D02*
X-798096Y15192324D01*
X-798096Y15192324D02*
X-750477Y15097086D01*
X-750477Y15097086D02*
X-702858Y14906610D01*
X-702858Y14906610D02*
X-702858Y14763753D01*
X-702858Y14763753D02*
X-750477Y14573277D01*
X-750477Y14573277D02*
X-798096Y14478039D01*
X-798096Y14478039D02*
X-893334Y14382800D01*
X-893334Y14382800D02*
X-1036191Y14335181D01*
X-1036191Y14335181D02*
X-1274286Y14335181D01*
X-321905Y14382800D02*
X-179048Y14335181D01*
X-179048Y14335181D02*
X59047Y14335181D01*
X59047Y14335181D02*
X154285Y14382800D01*
X154285Y14382800D02*
X201904Y14430420D01*
X201904Y14430420D02*
X249523Y14525658D01*
X249523Y14525658D02*
X249523Y14620896D01*
X249523Y14620896D02*
X201904Y14716134D01*
X201904Y14716134D02*
X154285Y14763753D01*
X154285Y14763753D02*
X59047Y14811372D01*
X59047Y14811372D02*
X-131429Y14858991D01*
X-131429Y14858991D02*
X-226667Y14906610D01*
X-226667Y14906610D02*
X-274286Y14954229D01*
X-274286Y14954229D02*
X-321905Y15049467D01*
X-321905Y15049467D02*
X-321905Y15144705D01*
X-321905Y15144705D02*
X-274286Y15239943D01*
X-274286Y15239943D02*
X-226667Y15287562D01*
X-226667Y15287562D02*
X-131429Y15335181D01*
X-131429Y15335181D02*
X106666Y15335181D01*
X106666Y15335181D02*
X249523Y15287562D01*
X1201904Y14335181D02*
X630476Y14335181D01*
X916190Y14335181D02*
X916190Y15335181D01*
X916190Y15335181D02*
X820952Y15192324D01*
X820952Y15192324D02*
X725714Y15097086D01*
X725714Y15097086D02*
X630476Y15049467D01*
D13*
%TO.C,JP1*%
X3415000Y-11430000D02*
X3415000Y-14090000D01*
X8555000Y-11430000D02*
X3415000Y-11430000D01*
X8555000Y-11430000D02*
X8555000Y-14090000D01*
X8555000Y-14090000D02*
X3415000Y-14090000D01*
X9825000Y-11430000D02*
X11155000Y-11430000D01*
X11155000Y-11430000D02*
X11155000Y-12760000D01*
%TO.C,J2*%
X-10680000Y-9040000D02*
X-10680000Y-14240000D01*
X-460000Y-9040000D02*
X-10680000Y-9040000D01*
X-460000Y-9040000D02*
X-460000Y-11640000D01*
X-460000Y-11640000D02*
X2140000Y-11640000D01*
X810000Y-9040000D02*
X2140000Y-9040000D01*
X2140000Y-9040000D02*
X2140000Y-10370000D01*
X2140000Y-11640000D02*
X2140000Y-14240000D01*
X2140000Y-14240000D02*
X-10680000Y-14240000D01*
%TD*%
M02*
