%TF.GenerationSoftware,KiCad,Pcbnew,9.0.0*%
%TF.CreationDate,2025-03-13T10:40:51+00:00*%
%TF.ProjectId,OLED02,4f4c4544-3032-42e6-9b69-6361645f7063,rev?*%
%TF.SameCoordinates,Original*%
%TF.FileFunction,Soldermask,Bot*%
%TF.FilePolarity,Negative*%
%FSLAX46Y46*%
G04 Gerber Fmt 4.6, Leading zero omitted, Abs format (unit mm)*
G04 Created by KiCad (PCBNEW 9.0.0) date 2025-03-13 10:40:51*
%MOMM*%
%LPD*%
G01*
G04 APERTURE LIST*
G04 Aperture macros list*
%AMRoundRect*
0 Rectangle with rounded corners*
0 $1 Rounding radius*
0 $2 $3 $4 $5 $6 $7 $8 $9 X,Y pos of 4 corners*
0 Add a 4 corners polygon primitive as box body*
4,1,4,$2,$3,$4,$5,$6,$7,$8,$9,$2,$3,0*
0 Add four circle primitives for the rounded corners*
1,1,$1+$1,$2,$3*
1,1,$1+$1,$4,$5*
1,1,$1+$1,$6,$7*
1,1,$1+$1,$8,$9*
0 Add four rect primitives between the rounded corners*
20,1,$1+$1,$2,$3,$4,$5,0*
20,1,$1+$1,$4,$5,$6,$7,0*
20,1,$1+$1,$6,$7,$8,$9,0*
20,1,$1+$1,$8,$9,$2,$3,0*%
G04 Aperture macros list end*
%ADD10R,1.700000X1.700000*%
%ADD11O,1.700000X1.700000*%
%ADD12C,6.000000*%
%ADD13RoundRect,0.243750X0.456250X-0.243750X0.456250X0.243750X-0.456250X0.243750X-0.456250X-0.243750X0*%
%ADD14RoundRect,0.250000X-0.475000X0.250000X-0.475000X-0.250000X0.475000X-0.250000X0.475000X0.250000X0*%
%ADD15RoundRect,0.250000X-0.450000X0.262500X-0.450000X-0.262500X0.450000X-0.262500X0.450000X0.262500X0*%
%ADD16RoundRect,0.250000X0.262500X0.450000X-0.262500X0.450000X-0.262500X-0.450000X0.262500X-0.450000X0*%
%ADD17RoundRect,0.250000X0.250000X0.475000X-0.250000X0.475000X-0.250000X-0.475000X0.250000X-0.475000X0*%
%ADD18RoundRect,0.250000X0.450000X-0.262500X0.450000X0.262500X-0.450000X0.262500X-0.450000X-0.262500X0*%
%ADD19RoundRect,0.250000X-0.300000X-0.300000X0.300000X-0.300000X0.300000X0.300000X-0.300000X0.300000X0*%
%ADD20R,0.400000X2.000000*%
%ADD21RoundRect,0.250000X0.475000X-0.250000X0.475000X0.250000X-0.475000X0.250000X-0.475000X-0.250000X0*%
%ADD22RoundRect,0.250000X-0.262500X-0.450000X0.262500X-0.450000X0.262500X0.450000X-0.262500X0.450000X0*%
G04 APERTURE END LIST*
D10*
%TO.C,JP1*%
X9825000Y-12760000D03*
D11*
X7285000Y-12760000D03*
X4745000Y-12760000D03*
%TD*%
D12*
%TO.C,M4*%
X15190000Y-10110000D03*
%TD*%
%TO.C,M3*%
X-15290000Y-10110000D03*
%TD*%
%TO.C,M2*%
X15190000Y20370000D03*
%TD*%
D10*
%TO.C,J2*%
X810000Y-10370000D03*
D11*
X810000Y-12910000D03*
X-1730000Y-10370000D03*
X-1730000Y-12910000D03*
X-4270000Y-10370000D03*
X-4270000Y-12910000D03*
X-6810000Y-10370000D03*
X-6810000Y-12910000D03*
X-9350000Y-10370000D03*
X-9350000Y-12910000D03*
%TD*%
D12*
%TO.C,M1*%
X-15290000Y20370000D03*
%TD*%
D13*
%TO.C,D1*%
X15810000Y5222500D03*
X15810000Y7097500D03*
%TD*%
D14*
%TO.C,C4*%
X-8740000Y7090000D03*
X-8740000Y5190000D03*
%TD*%
%TO.C,C9*%
X-10720000Y7090000D03*
X-10720000Y5190000D03*
%TD*%
%TO.C,C8*%
X3150000Y7090000D03*
X3150000Y5190000D03*
%TD*%
D15*
%TO.C,R1*%
X-6800000Y7062500D03*
X-6800000Y5237500D03*
%TD*%
D16*
%TO.C,R3*%
X162500Y6600000D03*
X-1662500Y6600000D03*
%TD*%
D17*
%TO.C,C7*%
X-12830000Y14090000D03*
X-14730000Y14090000D03*
%TD*%
D14*
%TO.C,C3*%
X11760000Y7090000D03*
X11760000Y5190000D03*
%TD*%
D18*
%TO.C,R5*%
X13777500Y5227500D03*
X13777500Y7052500D03*
%TD*%
D14*
%TO.C,C5*%
X5190000Y7090000D03*
X5190000Y5190000D03*
%TD*%
%TO.C,C2*%
X7400000Y7090000D03*
X7400000Y5190000D03*
%TD*%
D19*
%TO.C,D2*%
X-2187500Y-4300000D03*
X612500Y-4300000D03*
%TD*%
D20*
%TO.C,DS1*%
X10100000Y10785000D03*
X9400000Y10785000D03*
X8700000Y10785000D03*
X8000000Y10785000D03*
X7300000Y10785000D03*
X6600000Y10785000D03*
X5900000Y10785000D03*
X5200000Y10785000D03*
X4500000Y10785000D03*
X3800000Y10785000D03*
X3100000Y10785000D03*
X2400000Y10785000D03*
X1700000Y10785000D03*
X1000000Y10785000D03*
X300000Y10785000D03*
X-400000Y10785000D03*
X-1100000Y10785000D03*
X-1800000Y10785000D03*
X-2500000Y10785000D03*
X-3200000Y10785000D03*
X-3900000Y10785000D03*
X-4600000Y10785000D03*
X-5300000Y10785000D03*
X-6000000Y10785000D03*
X-6700000Y10785000D03*
X-7400000Y10785000D03*
X-8100000Y10785000D03*
X-8800000Y10785000D03*
X-9500000Y10785000D03*
X-10200000Y10785000D03*
%TD*%
D17*
%TO.C,C6*%
X-12820000Y12020000D03*
X-14720000Y12020000D03*
%TD*%
D16*
%TO.C,R2*%
X152500Y4550000D03*
X-1672500Y4550000D03*
%TD*%
D18*
%TO.C,R4*%
X7390000Y1697500D03*
X7390000Y3522500D03*
%TD*%
D21*
%TO.C,C1*%
X9370000Y5190000D03*
X9370000Y7090000D03*
%TD*%
D22*
%TO.C,R6*%
X5487500Y-8030000D03*
X7312500Y-8030000D03*
%TD*%
M02*
