%TF.GenerationSoftware,KiCad,Pcbnew,8.0.8+1*%
%TF.CreationDate,2025-02-22T15:22:44+00:00*%
%TF.ProjectId,OLED02,4f4c4544-3032-42e6-9b69-6361645f7063,rev?*%
%TF.SameCoordinates,Original*%
%TF.FileFunction,Copper,L2,Bot*%
%TF.FilePolarity,Positive*%
%FSLAX46Y46*%
G04 Gerber Fmt 4.6, Leading zero omitted, Abs format (unit mm)*
G04 Created by KiCad (PCBNEW 8.0.8+1) date 2025-02-22 15:22:44*
%MOMM*%
%LPD*%
G01*
G04 APERTURE LIST*
G04 Aperture macros list*
%AMRoundRect*
0 Rectangle with rounded corners*
0 $1 Rounding radius*
0 $2 $3 $4 $5 $6 $7 $8 $9 X,Y pos of 4 corners*
0 Add a 4 corners polygon primitive as box body*
4,1,4,$2,$3,$4,$5,$6,$7,$8,$9,$2,$3,0*
0 Add four circle primitives for the rounded corners*
1,1,$1+$1,$2,$3*
1,1,$1+$1,$4,$5*
1,1,$1+$1,$6,$7*
1,1,$1+$1,$8,$9*
0 Add four rect primitives between the rounded corners*
20,1,$1+$1,$2,$3,$4,$5,0*
20,1,$1+$1,$4,$5,$6,$7,0*
20,1,$1+$1,$6,$7,$8,$9,0*
20,1,$1+$1,$8,$9,$2,$3,0*%
G04 Aperture macros list end*
%TA.AperFunction,ComponentPad*%
%ADD10R,1.700000X1.700000*%
%TD*%
%TA.AperFunction,ComponentPad*%
%ADD11O,1.700000X1.700000*%
%TD*%
%TA.AperFunction,ComponentPad*%
%ADD12C,6.000000*%
%TD*%
%TA.AperFunction,SMDPad,CuDef*%
%ADD13RoundRect,0.243750X0.456250X-0.243750X0.456250X0.243750X-0.456250X0.243750X-0.456250X-0.243750X0*%
%TD*%
%TA.AperFunction,SMDPad,CuDef*%
%ADD14RoundRect,0.250000X-0.475000X0.250000X-0.475000X-0.250000X0.475000X-0.250000X0.475000X0.250000X0*%
%TD*%
%TA.AperFunction,SMDPad,CuDef*%
%ADD15RoundRect,0.250000X-0.450000X0.262500X-0.450000X-0.262500X0.450000X-0.262500X0.450000X0.262500X0*%
%TD*%
%TA.AperFunction,SMDPad,CuDef*%
%ADD16RoundRect,0.250000X0.262500X0.450000X-0.262500X0.450000X-0.262500X-0.450000X0.262500X-0.450000X0*%
%TD*%
%TA.AperFunction,SMDPad,CuDef*%
%ADD17RoundRect,0.250000X0.250000X0.475000X-0.250000X0.475000X-0.250000X-0.475000X0.250000X-0.475000X0*%
%TD*%
%TA.AperFunction,SMDPad,CuDef*%
%ADD18RoundRect,0.250000X0.450000X-0.262500X0.450000X0.262500X-0.450000X0.262500X-0.450000X-0.262500X0*%
%TD*%
%TA.AperFunction,SMDPad,CuDef*%
%ADD19RoundRect,0.250000X-0.300000X-0.300000X0.300000X-0.300000X0.300000X0.300000X-0.300000X0.300000X0*%
%TD*%
%TA.AperFunction,SMDPad,CuDef*%
%ADD20R,0.400000X2.000000*%
%TD*%
%TA.AperFunction,SMDPad,CuDef*%
%ADD21RoundRect,0.250000X0.475000X-0.250000X0.475000X0.250000X-0.475000X0.250000X-0.475000X-0.250000X0*%
%TD*%
%TA.AperFunction,SMDPad,CuDef*%
%ADD22RoundRect,0.250000X-0.262500X-0.450000X0.262500X-0.450000X0.262500X0.450000X-0.262500X0.450000X0*%
%TD*%
%TA.AperFunction,ViaPad*%
%ADD23C,0.600000*%
%TD*%
%TA.AperFunction,Conductor*%
%ADD24C,0.300000*%
%TD*%
%TA.AperFunction,Conductor*%
%ADD25C,0.400000*%
%TD*%
G04 APERTURE END LIST*
D10*
%TO.P,JP1,1,A*%
%TO.N,GND*%
X9825000Y-12760000D03*
D11*
%TO.P,JP1,2,C*%
%TO.N,Net-(JP1-C)*%
X7285000Y-12760000D03*
%TO.P,JP1,3,B*%
%TO.N,+3.3V*%
X4745000Y-12760000D03*
%TD*%
D12*
%TO.P,M4,1*%
%TO.N,GND*%
X15190000Y-10110000D03*
%TD*%
%TO.P,M3,1*%
%TO.N,GND*%
X-15290000Y-10110000D03*
%TD*%
%TO.P,M2,1*%
%TO.N,GND*%
X15190000Y20370000D03*
%TD*%
D10*
%TO.P,J2,1*%
%TO.N,GND*%
X810000Y-10370000D03*
D11*
%TO.P,J2,2*%
X810000Y-12910000D03*
%TO.P,J2,3*%
%TO.N,/SCL*%
X-1730000Y-10370000D03*
%TO.P,J2,4*%
X-1730000Y-12910000D03*
%TO.P,J2,5*%
%TO.N,+3.3V*%
X-4270000Y-10370000D03*
%TO.P,J2,6*%
X-4270000Y-12910000D03*
%TO.P,J2,7*%
%TO.N,/SDA*%
X-6810000Y-10370000D03*
%TO.P,J2,8*%
X-6810000Y-12910000D03*
%TO.P,J2,9*%
%TO.N,GND*%
X-9350000Y-10370000D03*
%TO.P,J2,10*%
X-9350000Y-12910000D03*
%TD*%
D12*
%TO.P,M1,1*%
%TO.N,GND*%
X-15290000Y20370000D03*
%TD*%
D13*
%TO.P,D1,1,K*%
%TO.N,+3.3V*%
X15810000Y5222500D03*
%TO.P,D1,2,A*%
%TO.N,/RES*%
X15810000Y7097500D03*
%TD*%
D14*
%TO.P,C4,1*%
%TO.N,Net-(DS1-VCOMH)*%
X-8740000Y7090000D03*
%TO.P,C4,2*%
%TO.N,GND*%
X-8740000Y5190000D03*
%TD*%
%TO.P,C8,1*%
%TO.N,+3.3V*%
X3150000Y7090000D03*
%TO.P,C8,2*%
%TO.N,GND*%
X3150000Y5190000D03*
%TD*%
D15*
%TO.P,R1,1*%
%TO.N,Net-(DS1-IREF)*%
X-6730000Y7052500D03*
%TO.P,R1,2*%
%TO.N,GND*%
X-6730000Y5227500D03*
%TD*%
D16*
%TO.P,R3,1*%
%TO.N,+3.3V*%
X162500Y6600000D03*
%TO.P,R3,2*%
%TO.N,/SDA*%
X-1662500Y6600000D03*
%TD*%
D17*
%TO.P,C7,1*%
%TO.N,+3.3V*%
X-12830000Y14090000D03*
%TO.P,C7,2*%
%TO.N,GND*%
X-14730000Y14090000D03*
%TD*%
D14*
%TO.P,C3,1*%
%TO.N,/RES*%
X11760000Y7090000D03*
%TO.P,C3,2*%
%TO.N,GND*%
X11760000Y5190000D03*
%TD*%
D18*
%TO.P,R5,1*%
%TO.N,+3.3V*%
X13777500Y5227500D03*
%TO.P,R5,2*%
%TO.N,/RES*%
X13777500Y7052500D03*
%TD*%
D14*
%TO.P,C5,1*%
%TO.N,+3.3V*%
X5190000Y7090000D03*
%TO.P,C5,2*%
%TO.N,GND*%
X5190000Y5190000D03*
%TD*%
%TO.P,C2,1*%
%TO.N,Net-(DS1-C1P)*%
X7400000Y7090000D03*
%TO.P,C2,2*%
%TO.N,Net-(DS1-C1N)*%
X7400000Y5190000D03*
%TD*%
D19*
%TO.P,D2,1,K*%
%TO.N,+3.3V*%
X-2177500Y-7280000D03*
%TO.P,D2,2,A*%
%TO.N,GND*%
X622500Y-7280000D03*
%TD*%
D20*
%TO.P,DS1,1,GND*%
%TO.N,GND*%
X10100000Y10785000D03*
%TO.P,DS1,2,C2N*%
%TO.N,Net-(DS1-C2N)*%
X9400000Y10785000D03*
%TO.P,DS1,3,C2P*%
%TO.N,Net-(DS1-C2P)*%
X8700000Y10785000D03*
%TO.P,DS1,4,C1P*%
%TO.N,Net-(DS1-C1P)*%
X8000000Y10785000D03*
%TO.P,DS1,5,C1N*%
%TO.N,Net-(DS1-C1N)*%
X7300000Y10785000D03*
%TO.P,DS1,6,VBAT*%
%TO.N,+3.3V*%
X6600000Y10785000D03*
%TO.P,DS1,7,NC*%
%TO.N,unconnected-(DS1-NC-Pad7)*%
X5900000Y10785000D03*
%TO.P,DS1,8,VSS*%
%TO.N,GND*%
X5200000Y10785000D03*
%TO.P,DS1,9,VDD*%
%TO.N,+3.3V*%
X4500000Y10785000D03*
%TO.P,DS1,10,BS0*%
%TO.N,GND*%
X3800000Y10785000D03*
%TO.P,DS1,11,BS1*%
%TO.N,+3.3V*%
X3100000Y10785000D03*
%TO.P,DS1,12,BS2*%
%TO.N,unconnected-(DS1-BS2-Pad12)*%
X2400000Y10785000D03*
%TO.P,DS1,13,~{CS}*%
%TO.N,GND*%
X1700000Y10785000D03*
%TO.P,DS1,14,~{RES}*%
%TO.N,/RES*%
X1000000Y10785000D03*
%TO.P,DS1,15,D/~{C}*%
%TO.N,/ADDR*%
X300000Y10785000D03*
%TO.P,DS1,16,R/~{W}*%
%TO.N,unconnected-(DS1-R{slash}~{W}-Pad16)*%
X-400000Y10785000D03*
%TO.P,DS1,17,E/~{RD}*%
%TO.N,unconnected-(DS1-E{slash}~{RD}-Pad17)*%
X-1100000Y10785000D03*
%TO.P,DS1,18,D0*%
%TO.N,/SCL*%
X-1800000Y10785000D03*
%TO.P,DS1,19,D1*%
%TO.N,/SDA*%
X-2500000Y10785000D03*
%TO.P,DS1,20,D2*%
X-3200000Y10785000D03*
%TO.P,DS1,21,D3*%
%TO.N,unconnected-(DS1-D3-Pad21)*%
X-3900000Y10785000D03*
%TO.P,DS1,22,D4*%
%TO.N,unconnected-(DS1-D4-Pad22)*%
X-4600000Y10785000D03*
%TO.P,DS1,23,D5*%
%TO.N,unconnected-(DS1-D5-Pad23)*%
X-5300000Y10785000D03*
%TO.P,DS1,24,D6*%
%TO.N,unconnected-(DS1-D6-Pad24)*%
X-6000000Y10785000D03*
%TO.P,DS1,25,D7*%
%TO.N,unconnected-(DS1-D7-Pad25)*%
X-6700000Y10785000D03*
%TO.P,DS1,26,IREF*%
%TO.N,Net-(DS1-IREF)*%
X-7400000Y10785000D03*
%TO.P,DS1,27,VCOMH*%
%TO.N,Net-(DS1-VCOMH)*%
X-8100000Y10785000D03*
%TO.P,DS1,28,VCC*%
%TO.N,+3.3V*%
X-8800000Y10785000D03*
%TO.P,DS1,29,VLSS*%
%TO.N,GND*%
X-9500000Y10785000D03*
%TO.P,DS1,30,GND*%
X-10200000Y10785000D03*
%TD*%
D17*
%TO.P,C6,1*%
%TO.N,+3.3V*%
X-12820000Y12020000D03*
%TO.P,C6,2*%
%TO.N,GND*%
X-14720000Y12020000D03*
%TD*%
D16*
%TO.P,R2,1*%
%TO.N,+3.3V*%
X152500Y4550000D03*
%TO.P,R2,2*%
%TO.N,/SCL*%
X-1672500Y4550000D03*
%TD*%
D18*
%TO.P,R4,1*%
%TO.N,Net-(JP1-C)*%
X7390000Y1697500D03*
%TO.P,R4,2*%
%TO.N,/ADDR*%
X7390000Y3522500D03*
%TD*%
D21*
%TO.P,C1,1*%
%TO.N,Net-(DS1-C2N)*%
X9370000Y5190000D03*
%TO.P,C1,2*%
%TO.N,Net-(DS1-C2P)*%
X9370000Y7090000D03*
%TD*%
D22*
%TO.P,R6,1*%
%TO.N,GND*%
X5487500Y-8030000D03*
%TO.P,R6,2*%
%TO.N,Net-(JP1-C)*%
X7312500Y-8030000D03*
%TD*%
D23*
%TO.N,GND*%
X-2000000Y-440000D03*
X13110000Y15780000D03*
X-6550000Y270000D03*
X700000Y-5750000D03*
X-6580000Y3640000D03*
X1340000Y470000D03*
X3760000Y12910000D03*
X5970000Y-5910000D03*
X-8180000Y-5840000D03*
X1710000Y12620000D03*
X-11380000Y5100000D03*
X5450000Y12540000D03*
X5395380Y8335380D03*
X-9860000Y12600000D03*
X12080000Y10960000D03*
X1370000Y-2460000D03*
X14020000Y10490000D03*
X3770000Y8220000D03*
X2690000Y-11670000D03*
X3280000Y3880000D03*
X-4960000Y7590000D03*
X-5610000Y-6130000D03*
X5340000Y3770000D03*
X-6550000Y-2290000D03*
X-10700000Y270000D03*
X-12540000Y8710000D03*
X4810000Y-5890000D03*
X6570000Y14710000D03*
X15300000Y370000D03*
X-8950000Y3580000D03*
X2980000Y-10020000D03*
X-540000Y12610000D03*
X3470000Y-5890000D03*
X-5310000Y8910000D03*
X-5620000Y12570000D03*
X460000Y8160000D03*
X12330000Y310000D03*
X-740000Y9020000D03*
X-2790000Y-4820000D03*
X15300000Y15510000D03*
X2050000Y8230000D03*
X-2000000Y-3500000D03*
%TO.N,+3.3V*%
X3150000Y7120000D03*
%TO.N,/ADDR*%
X300000Y9560000D03*
X7260000Y3700000D03*
%TO.N,/RES*%
X1000000Y11880000D03*
X11690000Y7117500D03*
%TD*%
D24*
%TO.N,Net-(DS1-C2P)*%
X8700000Y10785000D02*
X8700000Y7810000D01*
X8700000Y7810000D02*
X9400000Y7110000D01*
%TO.N,Net-(DS1-C2N)*%
X9400000Y5210000D02*
X9600000Y5210000D01*
X9600000Y5210000D02*
X10475000Y6085000D01*
X9400000Y8740000D02*
X9400000Y10785000D01*
X10475000Y6085000D02*
X10475000Y7665000D01*
X10475000Y7665000D02*
X9400000Y8740000D01*
%TO.N,Net-(DS1-C1P)*%
X8000000Y10785000D02*
X8000000Y7750000D01*
X8000000Y7750000D02*
X7360000Y7110000D01*
%TO.N,Net-(DS1-C1N)*%
X7360000Y5210000D02*
X7110000Y5210000D01*
X7110000Y5210000D02*
X6285000Y6035000D01*
X7300000Y8720000D02*
X7300000Y10785000D01*
X6285000Y6035000D02*
X6285000Y7705000D01*
X6285000Y7705000D02*
X7300000Y8720000D01*
%TO.N,GND*%
X-9500000Y8870000D02*
X-9500000Y12630000D01*
X1710000Y8570000D02*
X1710000Y12620000D01*
X3770000Y8220000D02*
X3790000Y8240000D01*
X-9500000Y10785000D02*
X-10765000Y10785000D01*
X5395380Y8335380D02*
X5190000Y8540760D01*
X5450000Y12540000D02*
X5320761Y12540000D01*
X3790000Y12880000D02*
X3760000Y12910000D01*
X-530000Y12620000D02*
X-540000Y12610000D01*
X1790000Y12750000D02*
X-450000Y12750000D01*
X5190000Y8540760D02*
X5190000Y12670761D01*
X3790000Y8240000D02*
X3790000Y12880000D01*
X-10765000Y10785000D02*
X-10770000Y10790000D01*
X-10210000Y8870000D02*
X-10210000Y12630000D01*
X5190000Y12670761D02*
X5190000Y12630000D01*
X10110000Y8950000D02*
X10110000Y12710000D01*
X2050000Y8230000D02*
X1710000Y8570000D01*
%TO.N,Net-(DS1-VCOMH)*%
X-8100000Y8720000D02*
X-8740000Y8080000D01*
X-8100000Y10785000D02*
X-8100000Y8720000D01*
X-8740000Y8080000D02*
X-8740000Y7170000D01*
%TO.N,/SDA*%
X-2500000Y10785000D02*
X-3200000Y10785000D01*
X-3200000Y-1460000D02*
X-6810000Y-5070000D01*
X-1662500Y6600000D02*
X-3200000Y6600000D01*
X-6810000Y-5070000D02*
X-6810000Y-10370000D01*
X-1800000Y6737500D02*
X-1662500Y6600000D01*
X-3200000Y6600000D02*
X-3200000Y-1460000D01*
X-3200000Y10785000D02*
X-3200000Y6600000D01*
D25*
X-6855000Y-12825000D02*
X-6855000Y-10285000D01*
D24*
%TO.N,Net-(DS1-IREF)*%
X-6730000Y7990000D02*
X-6730000Y7142500D01*
X-7400000Y10785000D02*
X-7400000Y8660000D01*
X-7400000Y8660000D02*
X-6730000Y7990000D01*
%TO.N,/SCL*%
X-780000Y7285456D02*
X-780000Y4540000D01*
X-960000Y4540000D02*
X-970000Y4550000D01*
X-780000Y4540000D02*
X-780000Y-9420000D01*
D25*
X-1775000Y-12825000D02*
X-1775000Y-10285000D01*
D24*
X-780000Y-9420000D02*
X-1730000Y-10370000D01*
X-780000Y4540000D02*
X-960000Y4540000D01*
X-1800000Y8305456D02*
X-780000Y7285456D01*
X-1800000Y10785000D02*
X-1800000Y8305456D01*
X-970000Y4550000D02*
X-1672500Y4550000D01*
%TO.N,+3.3V*%
X-8800000Y13560000D02*
X2980000Y13560000D01*
X3100000Y7170000D02*
X3150000Y7120000D01*
X4500000Y10785000D02*
X4500000Y13470000D01*
X3100000Y10785000D02*
X3100000Y7170000D01*
D25*
X-12820000Y12020000D02*
X-12820000Y13200000D01*
X-4270000Y-9372500D02*
X-4270000Y-12910000D01*
D24*
X15140000Y13560000D02*
X18070000Y10630000D01*
D25*
X-4315000Y-12825000D02*
X-4315000Y-10285000D01*
D24*
X17012500Y5242500D02*
X15810000Y5242500D01*
X4500000Y7810000D02*
X5190000Y7120000D01*
X2650000Y6960000D02*
X530000Y6960000D01*
X-12300000Y13560000D02*
X-12460000Y13560000D01*
X5190000Y7120000D02*
X3150000Y7120000D01*
D25*
X-12820000Y13200000D02*
X-12820000Y14080000D01*
D24*
X-8800000Y10785000D02*
X-8800000Y13560000D01*
X4410000Y13560000D02*
X15140000Y13560000D01*
X152500Y6872500D02*
X152500Y4550000D01*
D25*
X-12820000Y14080000D02*
X-12830000Y14090000D01*
X15810000Y5242500D02*
X13815000Y5242500D01*
D24*
X3100000Y13440000D02*
X2980000Y13560000D01*
D25*
X-2177500Y-7280000D02*
X-4270000Y-9372500D01*
D24*
X3100000Y10785000D02*
X3100000Y13440000D01*
D25*
X13815000Y5242500D02*
X13790000Y5267500D01*
D24*
X4500000Y10785000D02*
X4500000Y7810000D01*
X-8800000Y13560000D02*
X-12300000Y13560000D01*
X18070000Y6300000D02*
X17012500Y5242500D01*
X-12460000Y13560000D02*
X-12820000Y13200000D01*
X18070000Y10630000D02*
X18070000Y6300000D01*
X6600000Y10785000D02*
X6600000Y13560000D01*
X4500000Y13470000D02*
X4410000Y13560000D01*
X2980000Y13560000D02*
X4410000Y13560000D01*
%TO.N,/ADDR*%
X300000Y10785000D02*
X300000Y9560000D01*
%TO.N,Net-(JP1-C)*%
X7390000Y-12655000D02*
X7285000Y-12760000D01*
X7390000Y1697500D02*
X7390000Y-12655000D01*
D25*
%TO.N,/RES*%
X11690000Y7117500D02*
X11717500Y7090000D01*
X11717500Y7090000D02*
X11760000Y7090000D01*
D24*
X1000000Y11880000D02*
X1000000Y10785000D01*
X11690000Y7117500D02*
X13765000Y7117500D01*
X13765000Y7117500D02*
X13790000Y7092500D01*
D25*
X15810000Y7117500D02*
X11690000Y7117500D01*
%TD*%
%TA.AperFunction,Conductor*%
%TO.N,GND*%
G36*
X19462539Y24679815D02*
G01*
X19508294Y24627011D01*
X19519500Y24575500D01*
X19519500Y-14315500D01*
X19499815Y-14382539D01*
X19447011Y-14428294D01*
X19395500Y-14439500D01*
X1259703Y-14439500D01*
X1192664Y-14419815D01*
X1146909Y-14367011D01*
X1136965Y-14297853D01*
X1165990Y-14234297D01*
X1224768Y-14196523D01*
X1227610Y-14195725D01*
X1273483Y-14183433D01*
X1273492Y-14183429D01*
X1487578Y-14083600D01*
X1681082Y-13948105D01*
X1848105Y-13781082D01*
X1983600Y-13587578D01*
X2083429Y-13373492D01*
X2083432Y-13373486D01*
X2140636Y-13160000D01*
X1243012Y-13160000D01*
X1275925Y-13102993D01*
X1310000Y-12975826D01*
X1310000Y-12844174D01*
X1275925Y-12717007D01*
X1243012Y-12660000D01*
X2140636Y-12660000D01*
X2140635Y-12659999D01*
X2083432Y-12446513D01*
X2083429Y-12446507D01*
X1983600Y-12232422D01*
X1983599Y-12232420D01*
X1848113Y-12038926D01*
X1848108Y-12038920D01*
X1725665Y-11916477D01*
X1692180Y-11855154D01*
X1697164Y-11785462D01*
X1739036Y-11729529D01*
X1770013Y-11712614D01*
X1902086Y-11663354D01*
X1902093Y-11663350D01*
X2017187Y-11577190D01*
X2017190Y-11577187D01*
X2103350Y-11462093D01*
X2103354Y-11462086D01*
X2153596Y-11327379D01*
X2153598Y-11327372D01*
X2159999Y-11267844D01*
X2160000Y-11267827D01*
X2160000Y-10620000D01*
X1243012Y-10620000D01*
X1275925Y-10562993D01*
X1310000Y-10435826D01*
X1310000Y-10304174D01*
X1275925Y-10177007D01*
X1243012Y-10120000D01*
X2160000Y-10120000D01*
X2160000Y-9472172D01*
X2159999Y-9472155D01*
X2153598Y-9412627D01*
X2153596Y-9412620D01*
X2103354Y-9277913D01*
X2103350Y-9277906D01*
X2017190Y-9162812D01*
X2017187Y-9162809D01*
X1902093Y-9076649D01*
X1902086Y-9076645D01*
X1767379Y-9026403D01*
X1767372Y-9026401D01*
X1707844Y-9020000D01*
X1060000Y-9020000D01*
X1060000Y-9936988D01*
X1002993Y-9904075D01*
X875826Y-9870000D01*
X744174Y-9870000D01*
X617007Y-9904075D01*
X560000Y-9936988D01*
X560000Y-9020000D01*
X-5500Y-9020000D01*
X-72539Y-9000315D01*
X-118294Y-8947511D01*
X-129500Y-8896000D01*
X-129500Y-8529986D01*
X4475001Y-8529986D01*
X4485494Y-8632697D01*
X4540641Y-8799119D01*
X4540643Y-8799124D01*
X4632684Y-8948345D01*
X4756654Y-9072315D01*
X4905875Y-9164356D01*
X4905880Y-9164358D01*
X5072302Y-9219505D01*
X5072309Y-9219506D01*
X5175019Y-9229999D01*
X5237499Y-9229998D01*
X5237500Y-9229998D01*
X5237500Y-8280000D01*
X4475001Y-8280000D01*
X4475001Y-8529986D01*
X-129500Y-8529986D01*
X-129500Y-8392046D01*
X-109815Y-8325007D01*
X-57011Y-8279252D01*
X12147Y-8269308D01*
X33504Y-8274340D01*
X169802Y-8319505D01*
X169809Y-8319506D01*
X272519Y-8329999D01*
X872500Y-8329999D01*
X972472Y-8329999D01*
X972486Y-8329998D01*
X1075197Y-8319505D01*
X1241619Y-8264358D01*
X1241624Y-8264356D01*
X1390845Y-8172315D01*
X1514815Y-8048345D01*
X1606856Y-7899124D01*
X1606858Y-7899119D01*
X1662005Y-7732697D01*
X1662006Y-7732690D01*
X1672499Y-7629986D01*
X1672500Y-7629973D01*
X1672500Y-7530013D01*
X4475000Y-7530013D01*
X4475000Y-7780000D01*
X5237500Y-7780000D01*
X5237500Y-6830000D01*
X5237499Y-6829999D01*
X5175028Y-6830000D01*
X5175011Y-6830001D01*
X5072302Y-6840494D01*
X4905880Y-6895641D01*
X4905875Y-6895643D01*
X4756654Y-6987684D01*
X4632684Y-7111654D01*
X4540643Y-7260875D01*
X4540641Y-7260880D01*
X4485494Y-7427302D01*
X4485493Y-7427309D01*
X4475000Y-7530013D01*
X1672500Y-7530013D01*
X1672500Y-7530000D01*
X872500Y-7530000D01*
X872500Y-8329999D01*
X272519Y-8329999D01*
X372500Y-8329998D01*
X372500Y-7030000D01*
X872500Y-7030000D01*
X1672499Y-7030000D01*
X1672499Y-6930028D01*
X1672498Y-6930013D01*
X1662005Y-6827302D01*
X1606858Y-6660880D01*
X1606856Y-6660875D01*
X1514815Y-6511654D01*
X1390845Y-6387684D01*
X1241624Y-6295643D01*
X1241619Y-6295641D01*
X1075197Y-6240494D01*
X1075190Y-6240493D01*
X972486Y-6230000D01*
X872500Y-6230000D01*
X872500Y-7030000D01*
X372500Y-7030000D01*
X372500Y-6229999D01*
X272528Y-6230000D01*
X272512Y-6230001D01*
X169802Y-6240494D01*
X33504Y-6285659D01*
X-36325Y-6288061D01*
X-96366Y-6252329D01*
X-127559Y-6189809D01*
X-129500Y-6167953D01*
X-129500Y3225501D01*
X-109815Y3292540D01*
X-57011Y3338295D01*
X-5500Y3349501D01*
X465002Y3349501D01*
X465008Y3349501D01*
X567797Y3360001D01*
X734334Y3415186D01*
X883656Y3507288D01*
X1007712Y3631344D01*
X1099814Y3780666D01*
X1154999Y3947203D01*
X1165500Y4049991D01*
X1165499Y4890014D01*
X1925001Y4890014D01*
X1935494Y4787303D01*
X1990641Y4620881D01*
X1990643Y4620876D01*
X2082684Y4471655D01*
X2206654Y4347685D01*
X2355875Y4255644D01*
X2355880Y4255642D01*
X2522302Y4200495D01*
X2522309Y4200494D01*
X2625019Y4190001D01*
X2899999Y4190001D01*
X3400000Y4190001D01*
X3674972Y4190001D01*
X3674986Y4190002D01*
X3777697Y4200495D01*
X3944119Y4255642D01*
X3944124Y4255644D01*
X4099491Y4351475D01*
X4100188Y4350345D01*
X4157876Y4373622D01*
X4226519Y4360586D01*
X4245156Y4348609D01*
X4395875Y4255644D01*
X4395880Y4255642D01*
X4562302Y4200495D01*
X4562309Y4200494D01*
X4665019Y4190001D01*
X4939999Y4190001D01*
X4940000Y4190002D01*
X4940000Y4940000D01*
X3400000Y4940000D01*
X3400000Y4190001D01*
X2899999Y4190001D01*
X2900000Y4190002D01*
X2900000Y4940000D01*
X1925001Y4940000D01*
X1925001Y4890014D01*
X1165499Y4890014D01*
X1165499Y5050008D01*
X1163865Y5066000D01*
X1154999Y5152797D01*
X1154998Y5152800D01*
X1142671Y5190000D01*
X1099814Y5319334D01*
X1007712Y5468656D01*
X994049Y5482319D01*
X960564Y5543642D01*
X965548Y5613334D01*
X994049Y5657681D01*
X1017712Y5681344D01*
X1109814Y5830666D01*
X1164999Y5997203D01*
X1175500Y6099991D01*
X1175500Y6185500D01*
X1195185Y6252539D01*
X1247989Y6298294D01*
X1299500Y6309500D01*
X2092770Y6309500D01*
X2159809Y6289815D01*
X2180451Y6273181D01*
X2206344Y6247288D01*
X2209628Y6245263D01*
X2209653Y6245247D01*
X2211445Y6243254D01*
X2212011Y6242807D01*
X2211934Y6242711D01*
X2256379Y6193301D01*
X2267603Y6124339D01*
X2239761Y6060256D01*
X2209665Y6034174D01*
X2206660Y6032321D01*
X2206655Y6032317D01*
X2082684Y5908346D01*
X1990643Y5759125D01*
X1990641Y5759120D01*
X1935494Y5592698D01*
X1935493Y5592691D01*
X1925000Y5489987D01*
X1925000Y5440000D01*
X5066000Y5440000D01*
X5133039Y5420315D01*
X5178794Y5367511D01*
X5190000Y5316000D01*
X5190000Y5190000D01*
X5316000Y5190000D01*
X5383039Y5170315D01*
X5428794Y5117511D01*
X5440000Y5066000D01*
X5440000Y4190001D01*
X5714972Y4190001D01*
X5714986Y4190002D01*
X5817697Y4200495D01*
X5984119Y4255642D01*
X5984130Y4255647D01*
X6126978Y4343757D01*
X6194370Y4362198D01*
X6261034Y4341276D01*
X6305803Y4287634D01*
X6314465Y4218303D01*
X6297614Y4173124D01*
X6255192Y4104346D01*
X6255186Y4104334D01*
X6200001Y3937797D01*
X6200001Y3937796D01*
X6200000Y3937796D01*
X6189500Y3835017D01*
X6189500Y3209999D01*
X6189501Y3209981D01*
X6200000Y3107204D01*
X6200001Y3107201D01*
X6255185Y2940669D01*
X6255187Y2940664D01*
X6347289Y2791343D01*
X6440951Y2697681D01*
X6474436Y2636358D01*
X6469452Y2566666D01*
X6440951Y2522319D01*
X6347289Y2428658D01*
X6255187Y2279337D01*
X6255186Y2279334D01*
X6200001Y2112797D01*
X6200001Y2112796D01*
X6200000Y2112796D01*
X6189500Y2010017D01*
X6189500Y1384999D01*
X6189501Y1384981D01*
X6200000Y1282204D01*
X6200001Y1282201D01*
X6255185Y1115669D01*
X6255186Y1115666D01*
X6347288Y966344D01*
X6471344Y842288D01*
X6620666Y750186D01*
X6654500Y738975D01*
X6711947Y699204D01*
X6738772Y634689D01*
X6739500Y621268D01*
X6739500Y-6820529D01*
X6719815Y-6887568D01*
X6680597Y-6926067D01*
X6581347Y-6987285D01*
X6487327Y-7081305D01*
X6426003Y-7114789D01*
X6356312Y-7109805D01*
X6311965Y-7081304D01*
X6218345Y-6987684D01*
X6069124Y-6895643D01*
X6069119Y-6895641D01*
X5902697Y-6840494D01*
X5902690Y-6840493D01*
X5799986Y-6830000D01*
X5737500Y-6830000D01*
X5737500Y-9229999D01*
X5799972Y-9229999D01*
X5799986Y-9229998D01*
X5902697Y-9219505D01*
X6069119Y-9164358D01*
X6069124Y-9164356D01*
X6218342Y-9072317D01*
X6311964Y-8978695D01*
X6373287Y-8945210D01*
X6442979Y-8950194D01*
X6487327Y-8978695D01*
X6581344Y-9072712D01*
X6680597Y-9133931D01*
X6727321Y-9185879D01*
X6739500Y-9239470D01*
X6739500Y-11445261D01*
X6719815Y-11512300D01*
X6667906Y-11557642D01*
X6607176Y-11585961D01*
X6607169Y-11585965D01*
X6413597Y-11721505D01*
X6246505Y-11888597D01*
X6116575Y-12074158D01*
X6061998Y-12117783D01*
X5992500Y-12124977D01*
X5930145Y-12093454D01*
X5913425Y-12074158D01*
X5783494Y-11888597D01*
X5616402Y-11721506D01*
X5616395Y-11721501D01*
X5612533Y-11718797D01*
X5532135Y-11662501D01*
X5422834Y-11585967D01*
X5422830Y-11585965D01*
X5404012Y-11577190D01*
X5208663Y-11486097D01*
X5208659Y-11486096D01*
X5208655Y-11486094D01*
X4980413Y-11424938D01*
X4980403Y-11424936D01*
X4745001Y-11404341D01*
X4744999Y-11404341D01*
X4509596Y-11424936D01*
X4509586Y-11424938D01*
X4281344Y-11486094D01*
X4281335Y-11486098D01*
X4067171Y-11585964D01*
X4067169Y-11585965D01*
X3873597Y-11721505D01*
X3706505Y-11888597D01*
X3570965Y-12082169D01*
X3570964Y-12082171D01*
X3471098Y-12296335D01*
X3471094Y-12296344D01*
X3409938Y-12524586D01*
X3409936Y-12524596D01*
X3389341Y-12759999D01*
X3389341Y-12760000D01*
X3409936Y-12995403D01*
X3409938Y-12995413D01*
X3471094Y-13223655D01*
X3471096Y-13223659D01*
X3471097Y-13223663D01*
X3542098Y-13375925D01*
X3570965Y-13437830D01*
X3570967Y-13437834D01*
X3645717Y-13544587D01*
X3706505Y-13631401D01*
X3873599Y-13798495D01*
X3950135Y-13852086D01*
X4067165Y-13934032D01*
X4067167Y-13934033D01*
X4067170Y-13934035D01*
X4281337Y-14033903D01*
X4509592Y-14095063D01*
X4680319Y-14110000D01*
X4744999Y-14115659D01*
X4745000Y-14115659D01*
X4745001Y-14115659D01*
X4809681Y-14110000D01*
X4980408Y-14095063D01*
X5208663Y-14033903D01*
X5422830Y-13934035D01*
X5616401Y-13798495D01*
X5783495Y-13631401D01*
X5913425Y-13445842D01*
X5968002Y-13402217D01*
X6037500Y-13395023D01*
X6099855Y-13426546D01*
X6116575Y-13445842D01*
X6246500Y-13631395D01*
X6246505Y-13631401D01*
X6413599Y-13798495D01*
X6490135Y-13852086D01*
X6607165Y-13934032D01*
X6607167Y-13934033D01*
X6607170Y-13934035D01*
X6821337Y-14033903D01*
X7049592Y-14095063D01*
X7220319Y-14110000D01*
X7284999Y-14115659D01*
X7285000Y-14115659D01*
X7285001Y-14115659D01*
X7349681Y-14110000D01*
X7520408Y-14095063D01*
X7748663Y-14033903D01*
X7962830Y-13934035D01*
X8156401Y-13798495D01*
X8278717Y-13676178D01*
X8340036Y-13642696D01*
X8409728Y-13647680D01*
X8465662Y-13689551D01*
X8482577Y-13720528D01*
X8531646Y-13852088D01*
X8531649Y-13852093D01*
X8617809Y-13967187D01*
X8617812Y-13967190D01*
X8732906Y-14053350D01*
X8732913Y-14053354D01*
X8867620Y-14103596D01*
X8867627Y-14103598D01*
X8927155Y-14109999D01*
X8927172Y-14110000D01*
X9575000Y-14110000D01*
X9575000Y-13193012D01*
X9632007Y-13225925D01*
X9759174Y-13260000D01*
X9890826Y-13260000D01*
X10017993Y-13225925D01*
X10075000Y-13193012D01*
X10075000Y-14110000D01*
X10722828Y-14110000D01*
X10722844Y-14109999D01*
X10782372Y-14103598D01*
X10782379Y-14103596D01*
X10917086Y-14053354D01*
X10917093Y-14053350D01*
X11032187Y-13967190D01*
X11032190Y-13967187D01*
X11118350Y-13852093D01*
X11118354Y-13852086D01*
X11168596Y-13717379D01*
X11168598Y-13717372D01*
X11174999Y-13657844D01*
X11175000Y-13657827D01*
X11175000Y-13010000D01*
X10258012Y-13010000D01*
X10290925Y-12952993D01*
X10325000Y-12825826D01*
X10325000Y-12694174D01*
X10290925Y-12567007D01*
X10258012Y-12510000D01*
X11175000Y-12510000D01*
X11175000Y-11862172D01*
X11174999Y-11862155D01*
X11168598Y-11802627D01*
X11168596Y-11802620D01*
X11118354Y-11667913D01*
X11118350Y-11667906D01*
X11032190Y-11552812D01*
X11032187Y-11552809D01*
X10917093Y-11466649D01*
X10917086Y-11466645D01*
X10782379Y-11416403D01*
X10782372Y-11416401D01*
X10722844Y-11410000D01*
X10075000Y-11410000D01*
X10075000Y-12326988D01*
X10017993Y-12294075D01*
X9890826Y-12260000D01*
X9759174Y-12260000D01*
X9632007Y-12294075D01*
X9575000Y-12326988D01*
X9575000Y-11410000D01*
X8927155Y-11410000D01*
X8867627Y-11416401D01*
X8867620Y-11416403D01*
X8732913Y-11466645D01*
X8732906Y-11466649D01*
X8617812Y-11552809D01*
X8617809Y-11552812D01*
X8531649Y-11667906D01*
X8531645Y-11667913D01*
X8482578Y-11799470D01*
X8440707Y-11855404D01*
X8375242Y-11879821D01*
X8306969Y-11864969D01*
X8278715Y-11843819D01*
X8218244Y-11783348D01*
X8156401Y-11721505D01*
X8107120Y-11686998D01*
X8093375Y-11677373D01*
X8049751Y-11622795D01*
X8040500Y-11575799D01*
X8040500Y-9127230D01*
X8060185Y-9060191D01*
X8076819Y-9039549D01*
X8116053Y-9000315D01*
X8167712Y-8948656D01*
X8259814Y-8799334D01*
X8314999Y-8632797D01*
X8325500Y-8530009D01*
X8325499Y-7529992D01*
X8314999Y-7427203D01*
X8259814Y-7260666D01*
X8167712Y-7111344D01*
X8076819Y-7020451D01*
X8043334Y-6959128D01*
X8040500Y-6932770D01*
X8040500Y621268D01*
X8060185Y688307D01*
X8112989Y734062D01*
X8125495Y738974D01*
X8159334Y750186D01*
X8308656Y842288D01*
X8432712Y966344D01*
X8524814Y1115666D01*
X8579999Y1282203D01*
X8590500Y1384991D01*
X8590499Y2010008D01*
X8579999Y2112797D01*
X8524814Y2279334D01*
X8432712Y2428656D01*
X8339049Y2522319D01*
X8305564Y2583642D01*
X8310548Y2653334D01*
X8339049Y2697681D01*
X8432712Y2791344D01*
X8524814Y2940666D01*
X8579999Y3107203D01*
X8590500Y3209991D01*
X8590499Y3835008D01*
X8579999Y3937797D01*
X8540050Y4058353D01*
X8537649Y4128178D01*
X8573380Y4188220D01*
X8635901Y4219413D01*
X8696756Y4215061D01*
X8742203Y4200001D01*
X8844991Y4189500D01*
X9895008Y4189501D01*
X9895016Y4189502D01*
X9895019Y4189502D01*
X9951302Y4195252D01*
X9997797Y4200001D01*
X10164334Y4255186D01*
X10313656Y4347288D01*
X10437712Y4471344D01*
X10459755Y4507083D01*
X10511701Y4553806D01*
X10580663Y4565029D01*
X10644745Y4537186D01*
X10670831Y4507083D01*
X10692682Y4471657D01*
X10816654Y4347685D01*
X10965875Y4255644D01*
X10965880Y4255642D01*
X11132302Y4200495D01*
X11132309Y4200494D01*
X11235019Y4190001D01*
X11509999Y4190001D01*
X11510000Y4190002D01*
X11510000Y5066000D01*
X11529685Y5133039D01*
X11582489Y5178794D01*
X11634000Y5190000D01*
X11886000Y5190000D01*
X11953039Y5170315D01*
X11998794Y5117511D01*
X12010000Y5066000D01*
X12010000Y4190001D01*
X12284972Y4190001D01*
X12284986Y4190002D01*
X12387697Y4200495D01*
X12554119Y4255642D01*
X12554124Y4255644D01*
X12703346Y4347686D01*
X12708552Y4352891D01*
X12769873Y4386379D01*
X12839565Y4381398D01*
X12861327Y4370757D01*
X13008166Y4280186D01*
X13174703Y4225001D01*
X13277491Y4214500D01*
X14277508Y4214501D01*
X14277516Y4214502D01*
X14277519Y4214502D01*
X14333802Y4220252D01*
X14380297Y4225001D01*
X14546834Y4280186D01*
X14696156Y4372288D01*
X14714235Y4390368D01*
X14775556Y4423855D01*
X14845248Y4418874D01*
X14882781Y4394754D01*
X14883334Y4395452D01*
X14889000Y4390972D01*
X15037066Y4299643D01*
X15037069Y4299642D01*
X15037075Y4299638D01*
X15202225Y4244913D01*
X15304152Y4234500D01*
X15304157Y4234500D01*
X16315843Y4234500D01*
X16315848Y4234500D01*
X16417775Y4244913D01*
X16582925Y4299638D01*
X16731003Y4390974D01*
X16854026Y4513997D01*
X16865806Y4533097D01*
X16917753Y4579821D01*
X16971345Y4592000D01*
X17076571Y4592000D01*
X17161115Y4608818D01*
X17202244Y4616999D01*
X17320627Y4666035D01*
X17369044Y4698386D01*
X17369044Y4698387D01*
X17369046Y4698387D01*
X17398106Y4717805D01*
X17427169Y4737223D01*
X18575277Y5885331D01*
X18646465Y5991873D01*
X18695501Y6110256D01*
X18702484Y6145362D01*
X18720500Y6235931D01*
X18720500Y10694069D01*
X18720500Y10694072D01*
X18695502Y10819739D01*
X18695501Y10819740D01*
X18695501Y10819744D01*
X18646465Y10938127D01*
X18637003Y10952288D01*
X18637002Y10952290D01*
X18637002Y10952291D01*
X18575278Y11044668D01*
X18575272Y11044675D01*
X15554673Y14065274D01*
X15554669Y14065277D01*
X15448127Y14136465D01*
X15329744Y14185501D01*
X15329738Y14185503D01*
X15204071Y14210500D01*
X15204069Y14210500D01*
X4474069Y14210500D01*
X3044069Y14210500D01*
X-8735931Y14210500D01*
X-11705501Y14210500D01*
X-11772540Y14230185D01*
X-11818295Y14282989D01*
X-11829501Y14334500D01*
X-11829501Y14615002D01*
X-11829502Y14615019D01*
X-11840001Y14717797D01*
X-11840002Y14717800D01*
X-11895186Y14884334D01*
X-11987288Y15033656D01*
X-12111344Y15157712D01*
X-12260666Y15249814D01*
X-12427203Y15304999D01*
X-12427205Y15305000D01*
X-12529990Y15315500D01*
X-13130002Y15315500D01*
X-13130020Y15315499D01*
X-13232797Y15305000D01*
X-13232800Y15304999D01*
X-13399332Y15249815D01*
X-13399337Y15249813D01*
X-13548658Y15157711D01*
X-13672712Y15033657D01*
X-13672717Y15033651D01*
X-13674759Y15030339D01*
X-13676753Y15028547D01*
X-13677193Y15027989D01*
X-13677289Y15028065D01*
X-13726709Y14983617D01*
X-13795672Y14972398D01*
X-13859753Y15000245D01*
X-13885832Y15030344D01*
X-13887681Y15033341D01*
X-13887684Y15033345D01*
X-14011655Y15157316D01*
X-14160876Y15249357D01*
X-14160881Y15249359D01*
X-14327303Y15304506D01*
X-14327310Y15304507D01*
X-14430014Y15315000D01*
X-14480000Y15315000D01*
X-14480000Y13353120D01*
X-14472834Y13339996D01*
X-14470000Y13313638D01*
X-14470000Y10795001D01*
X-14420028Y10795001D01*
X-14420014Y10795002D01*
X-14317303Y10805495D01*
X-14150881Y10860642D01*
X-14150876Y10860644D01*
X-14001655Y10952685D01*
X-13877682Y11076658D01*
X-13875835Y11079652D01*
X-13874031Y11081276D01*
X-13873202Y11082323D01*
X-13873024Y11082182D01*
X-13823890Y11126379D01*
X-13754927Y11137604D01*
X-13690844Y11109764D01*
X-13664757Y11079659D01*
X-13662712Y11076344D01*
X-13538656Y10952288D01*
X-13389334Y10860186D01*
X-13222797Y10805001D01*
X-13120009Y10794500D01*
X-12519992Y10794501D01*
X-12519984Y10794502D01*
X-12519981Y10794502D01*
X-12463698Y10800252D01*
X-12417203Y10805001D01*
X-12250666Y10860186D01*
X-12101344Y10952288D01*
X-11977288Y11076344D01*
X-11885186Y11225666D01*
X-11830001Y11392203D01*
X-11819500Y11494991D01*
X-11819500Y11832845D01*
X-10900000Y11832845D01*
X-10900000Y10985000D01*
X-10400000Y10985000D01*
X-10400000Y12285000D01*
X-10447845Y12285000D01*
X-10507373Y12278599D01*
X-10507380Y12278597D01*
X-10642087Y12228355D01*
X-10642094Y12228351D01*
X-10757188Y12142191D01*
X-10757191Y12142188D01*
X-10843351Y12027094D01*
X-10843355Y12027087D01*
X-10893597Y11892380D01*
X-10893599Y11892373D01*
X-10900000Y11832845D01*
X-11819500Y11832845D01*
X-11819501Y12545008D01*
X-11830001Y12647797D01*
X-11862708Y12746498D01*
X-11865109Y12816324D01*
X-11829378Y12876366D01*
X-11766857Y12907559D01*
X-11745001Y12909500D01*
X-9574500Y12909500D01*
X-9507461Y12889815D01*
X-9461706Y12837011D01*
X-9450500Y12785500D01*
X-9450500Y12031729D01*
X-9458321Y11988389D01*
X-9459821Y11984368D01*
X-9501695Y11928437D01*
X-9567161Y11904023D01*
X-9635433Y11918879D01*
X-9684835Y11968287D01*
X-9700000Y12027708D01*
X-9700000Y12285000D01*
X-9747845Y12285000D01*
X-9807376Y12278599D01*
X-9814927Y12276814D01*
X-9815266Y12278246D01*
X-9876370Y12273881D01*
X-9891650Y12278368D01*
X-9892625Y12278599D01*
X-9952156Y12285000D01*
X-10000000Y12285000D01*
X-10000000Y9285000D01*
X-9952172Y9285000D01*
X-9952156Y9285001D01*
X-9892623Y9291403D01*
X-9885067Y9293187D01*
X-9884728Y9291750D01*
X-9823658Y9296126D01*
X-9808367Y9291636D01*
X-9807378Y9291403D01*
X-9747845Y9285001D01*
X-9747828Y9285000D01*
X-9700000Y9285000D01*
X-9700000Y9542293D01*
X-9680315Y9609332D01*
X-9627511Y9655087D01*
X-9558353Y9665031D01*
X-9494797Y9636006D01*
X-9459818Y9585625D01*
X-9443799Y9542674D01*
X-9443797Y9542671D01*
X-9443796Y9542669D01*
X-9440504Y9538272D01*
X-9357548Y9427456D01*
X-9357546Y9427454D01*
X-9349692Y9421575D01*
X-9307820Y9365644D01*
X-9300000Y9322306D01*
X-9300000Y9285000D01*
X-9252172Y9285000D01*
X-9252156Y9285001D01*
X-9192625Y9291402D01*
X-9185074Y9293186D01*
X-9184685Y9291538D01*
X-9124376Y9295860D01*
X-9107613Y9290940D01*
X-9107489Y9290912D01*
X-9107483Y9290909D01*
X-9047873Y9284500D01*
X-8874500Y9284501D01*
X-8807461Y9264817D01*
X-8761706Y9212013D01*
X-8750500Y9160501D01*
X-8750500Y9040809D01*
X-8770185Y8973770D01*
X-8786819Y8953128D01*
X-9245273Y8494675D01*
X-9245274Y8494674D01*
X-9245277Y8494669D01*
X-9305408Y8404674D01*
X-9305411Y8404670D01*
X-9305413Y8404667D01*
X-9316464Y8388130D01*
X-9316467Y8388125D01*
X-9365501Y8269745D01*
X-9365503Y8269740D01*
X-9391663Y8138229D01*
X-9424049Y8076319D01*
X-9474274Y8044717D01*
X-9534328Y8024816D01*
X-9534337Y8024813D01*
X-9683658Y7932711D01*
X-9807711Y7808658D01*
X-9899813Y7659337D01*
X-9899814Y7659334D01*
X-9954999Y7492797D01*
X-9954999Y7492796D01*
X-9955000Y7492796D01*
X-9965500Y7390017D01*
X-9965500Y6789999D01*
X-9965499Y6789981D01*
X-9955000Y6687204D01*
X-9954999Y6687201D01*
X-9915978Y6569446D01*
X-9899814Y6520666D01*
X-9807712Y6371344D01*
X-9683656Y6247288D01*
X-9680372Y6245263D01*
X-9680347Y6245247D01*
X-9678555Y6243254D01*
X-9677989Y6242807D01*
X-9678066Y6242711D01*
X-9633621Y6193301D01*
X-9622397Y6124339D01*
X-9650239Y6060256D01*
X-9680335Y6034174D01*
X-9683340Y6032321D01*
X-9683345Y6032317D01*
X-9807316Y5908346D01*
X-9899357Y5759125D01*
X-9899359Y5759120D01*
X-9954506Y5592698D01*
X-9954507Y5592691D01*
X-9965000Y5489987D01*
X-9965000Y5440000D01*
X-8060000Y5440000D01*
X-8058819Y5441181D01*
X-7997496Y5474666D01*
X-7971138Y5477500D01*
X-5530001Y5477500D01*
X-5530001Y5539972D01*
X-5530002Y5539987D01*
X-5540495Y5642698D01*
X-5595642Y5809120D01*
X-5595644Y5809125D01*
X-5687685Y5958346D01*
X-5781305Y6051966D01*
X-5814790Y6113289D01*
X-5809806Y6182981D01*
X-5781309Y6227324D01*
X-5687288Y6321344D01*
X-5595186Y6470666D01*
X-5540001Y6637203D01*
X-5529500Y6739991D01*
X-5529501Y7365008D01*
X-5532141Y7390848D01*
X-5540001Y7467797D01*
X-5540002Y7467800D01*
X-5556854Y7518656D01*
X-5595186Y7634334D01*
X-5687288Y7783656D01*
X-5811344Y7907712D01*
X-5960666Y7999814D01*
X-5960672Y7999816D01*
X-6007805Y8015435D01*
X-6065249Y8055208D01*
X-6090416Y8108948D01*
X-6104498Y8179739D01*
X-6104499Y8179740D01*
X-6104499Y8179744D01*
X-6153535Y8298127D01*
X-6224723Y8404669D01*
X-6224725Y8404671D01*
X-6224727Y8404674D01*
X-6713181Y8893128D01*
X-6746666Y8954451D01*
X-6749500Y8980809D01*
X-6749500Y9160501D01*
X-6729815Y9227540D01*
X-6677011Y9273295D01*
X-6625500Y9284501D01*
X-6452129Y9284501D01*
X-6452128Y9284501D01*
X-6392517Y9290909D01*
X-6392515Y9290910D01*
X-6392513Y9290910D01*
X-6384969Y9292692D01*
X-6384623Y9291225D01*
X-6323658Y9295592D01*
X-6308622Y9291178D01*
X-6307489Y9290911D01*
X-6307483Y9290909D01*
X-6247873Y9284500D01*
X-5752128Y9284501D01*
X-5692517Y9290909D01*
X-5692515Y9290910D01*
X-5692513Y9290910D01*
X-5684969Y9292692D01*
X-5684623Y9291225D01*
X-5623658Y9295592D01*
X-5608622Y9291178D01*
X-5607489Y9290911D01*
X-5607483Y9290909D01*
X-5547873Y9284500D01*
X-5052128Y9284501D01*
X-4992517Y9290909D01*
X-4992515Y9290910D01*
X-4992513Y9290910D01*
X-4984969Y9292692D01*
X-4984623Y9291225D01*
X-4923658Y9295592D01*
X-4908622Y9291178D01*
X-4907489Y9290911D01*
X-4907483Y9290909D01*
X-4847873Y9284500D01*
X-4352128Y9284501D01*
X-4292517Y9290909D01*
X-4292515Y9290910D01*
X-4292513Y9290910D01*
X-4284969Y9292692D01*
X-4284623Y9291225D01*
X-4223658Y9295592D01*
X-4208622Y9291178D01*
X-4207489Y9290911D01*
X-4207483Y9290909D01*
X-4147873Y9284500D01*
X-3974500Y9284501D01*
X-3907461Y9264817D01*
X-3861706Y9212013D01*
X-3850500Y9160501D01*
X-3850500Y-1139191D01*
X-3870185Y-1206230D01*
X-3886819Y-1226872D01*
X-7315273Y-4655325D01*
X-7315274Y-4655326D01*
X-7386466Y-4761874D01*
X-7435501Y-4880255D01*
X-7435503Y-4880261D01*
X-7460500Y-5005928D01*
X-7460500Y-9112278D01*
X-7480185Y-9179317D01*
X-7513377Y-9213853D01*
X-7681403Y-9331505D01*
X-7848492Y-9498594D01*
X-7978731Y-9684595D01*
X-8033308Y-9728219D01*
X-8102807Y-9735412D01*
X-8165161Y-9703890D01*
X-8181881Y-9684594D01*
X-8311887Y-9498926D01*
X-8311892Y-9498920D01*
X-8478918Y-9331894D01*
X-8672422Y-9196399D01*
X-8886508Y-9096570D01*
X-8886514Y-9096567D01*
X-9100000Y-9039364D01*
X-9100000Y-9936988D01*
X-9157007Y-9904075D01*
X-9284174Y-9870000D01*
X-9415826Y-9870000D01*
X-9542993Y-9904075D01*
X-9600000Y-9936988D01*
X-9600000Y-9039364D01*
X-9600001Y-9039364D01*
X-9813487Y-9096567D01*
X-9813493Y-9096570D01*
X-10027578Y-9196399D01*
X-10027580Y-9196400D01*
X-10221074Y-9331886D01*
X-10221080Y-9331891D01*
X-10388109Y-9498920D01*
X-10388114Y-9498926D01*
X-10523600Y-9692420D01*
X-10523601Y-9692422D01*
X-10623430Y-9906507D01*
X-10623433Y-9906513D01*
X-10680636Y-10119999D01*
X-10680636Y-10120000D01*
X-9783012Y-10120000D01*
X-9815925Y-10177007D01*
X-9850000Y-10304174D01*
X-9850000Y-10435826D01*
X-9815925Y-10562993D01*
X-9783012Y-10620000D01*
X-10680636Y-10620000D01*
X-10623433Y-10833486D01*
X-10623430Y-10833492D01*
X-10523601Y-11047578D01*
X-10388106Y-11241082D01*
X-10221083Y-11408105D01*
X-10034969Y-11538425D01*
X-9991344Y-11593003D01*
X-9984152Y-11662501D01*
X-10015674Y-11724856D01*
X-10034969Y-11741575D01*
X-10221078Y-11871890D01*
X-10221080Y-11871891D01*
X-10388109Y-12038920D01*
X-10388114Y-12038926D01*
X-10523600Y-12232420D01*
X-10523601Y-12232422D01*
X-10623430Y-12446507D01*
X-10623433Y-12446513D01*
X-10680636Y-12659999D01*
X-10680636Y-12660000D01*
X-9783012Y-12660000D01*
X-9815925Y-12717007D01*
X-9850000Y-12844174D01*
X-9850000Y-12975826D01*
X-9815925Y-13102993D01*
X-9783012Y-13160000D01*
X-10680636Y-13160000D01*
X-10623433Y-13373486D01*
X-10623430Y-13373492D01*
X-10523601Y-13587578D01*
X-10388106Y-13781082D01*
X-10221083Y-13948105D01*
X-10027579Y-14083600D01*
X-9813493Y-14183429D01*
X-9813484Y-14183433D01*
X-9767610Y-14195725D01*
X-9707949Y-14232090D01*
X-9677420Y-14294937D01*
X-9685715Y-14364312D01*
X-9730200Y-14418190D01*
X-9796752Y-14439465D01*
X-9799703Y-14439500D01*
X-19495500Y-14439500D01*
X-19562539Y-14419815D01*
X-19608294Y-14367011D01*
X-19619500Y-14315500D01*
X-19619500Y4890014D01*
X-9964999Y4890014D01*
X-9954506Y4787303D01*
X-9899359Y4620881D01*
X-9899357Y4620876D01*
X-9807316Y4471655D01*
X-9683346Y4347685D01*
X-9534125Y4255644D01*
X-9534120Y4255642D01*
X-9367698Y4200495D01*
X-9367691Y4200494D01*
X-9264981Y4190001D01*
X-8990001Y4190001D01*
X-8990000Y4190002D01*
X-8990000Y4940000D01*
X-8490000Y4940000D01*
X-8490000Y4190001D01*
X-8215028Y4190001D01*
X-8215014Y4190002D01*
X-8112303Y4200495D01*
X-7945881Y4255642D01*
X-7945876Y4255644D01*
X-7796660Y4347682D01*
X-7793949Y4350392D01*
X-7791626Y4351662D01*
X-7790993Y4352161D01*
X-7790908Y4352053D01*
X-7732628Y4383881D01*
X-7662936Y4378901D01*
X-7641165Y4368255D01*
X-7499125Y4280644D01*
X-7499120Y4280642D01*
X-7332698Y4225495D01*
X-7332691Y4225494D01*
X-7229981Y4215001D01*
X-6980001Y4215001D01*
X-6480000Y4215001D01*
X-6230028Y4215001D01*
X-6230014Y4215002D01*
X-6127303Y4225495D01*
X-5960881Y4280642D01*
X-5960876Y4280644D01*
X-5811655Y4372685D01*
X-5687685Y4496655D01*
X-5595644Y4645876D01*
X-5595642Y4645881D01*
X-5540495Y4812303D01*
X-5540494Y4812310D01*
X-5530001Y4915014D01*
X-5530000Y4915027D01*
X-5530000Y4977500D01*
X-6480000Y4977500D01*
X-6480000Y4215001D01*
X-6980001Y4215001D01*
X-6980000Y4215002D01*
X-6980000Y4977500D01*
X-7385000Y4977500D01*
X-7386181Y4976319D01*
X-7447504Y4942834D01*
X-7473862Y4940000D01*
X-8490000Y4940000D01*
X-8990000Y4940000D01*
X-9964999Y4940000D01*
X-9964999Y4890014D01*
X-19619500Y4890014D01*
X-19619500Y9737156D01*
X-10900000Y9737156D01*
X-10893599Y9677628D01*
X-10893597Y9677621D01*
X-10843355Y9542914D01*
X-10843351Y9542907D01*
X-10757191Y9427813D01*
X-10757188Y9427810D01*
X-10642094Y9341650D01*
X-10642087Y9341646D01*
X-10507380Y9291404D01*
X-10507373Y9291402D01*
X-10447845Y9285001D01*
X-10447828Y9285000D01*
X-10400000Y9285000D01*
X-10400000Y10585000D01*
X-10900000Y10585000D01*
X-10900000Y9737156D01*
X-19619500Y9737156D01*
X-19619500Y11495014D01*
X-15719999Y11495014D01*
X-15709506Y11392303D01*
X-15654359Y11225881D01*
X-15654357Y11225876D01*
X-15562316Y11076655D01*
X-15438346Y10952685D01*
X-15289125Y10860644D01*
X-15289120Y10860642D01*
X-15122698Y10805495D01*
X-15122691Y10805494D01*
X-15019981Y10795001D01*
X-14970001Y10795002D01*
X-14970000Y10795002D01*
X-14970000Y11770000D01*
X-15719999Y11770000D01*
X-15719999Y11495014D01*
X-19619500Y11495014D01*
X-19619500Y13565014D01*
X-15729999Y13565014D01*
X-15719506Y13462303D01*
X-15664359Y13295881D01*
X-15664357Y13295876D01*
X-15572316Y13146655D01*
X-15563342Y13137681D01*
X-15529857Y13076358D01*
X-15534841Y13006666D01*
X-15558638Y12969639D01*
X-15557839Y12969007D01*
X-15562316Y12963347D01*
X-15654357Y12814125D01*
X-15654359Y12814120D01*
X-15709506Y12647698D01*
X-15709507Y12647691D01*
X-15720000Y12544987D01*
X-15720000Y12270000D01*
X-14970000Y12270000D01*
X-14970000Y12756881D01*
X-14977166Y12770004D01*
X-14980000Y12796362D01*
X-14980000Y13840000D01*
X-15729999Y13840000D01*
X-15729999Y13565014D01*
X-19619500Y13565014D01*
X-19619500Y14614987D01*
X-15730000Y14614987D01*
X-15730000Y14340000D01*
X-14980000Y14340000D01*
X-14980000Y15315000D01*
X-14980001Y15315001D01*
X-15029971Y15315000D01*
X-15029989Y15314999D01*
X-15132698Y15304506D01*
X-15299120Y15249359D01*
X-15299125Y15249357D01*
X-15448346Y15157316D01*
X-15572316Y15033346D01*
X-15664357Y14884125D01*
X-15664359Y14884120D01*
X-15719506Y14717698D01*
X-15719507Y14717691D01*
X-15730000Y14614987D01*
X-19619500Y14614987D01*
X-19619500Y17430000D01*
X-11565175Y17430000D01*
X-11546500Y17156962D01*
X-11546499Y17156960D01*
X-11490822Y16889021D01*
X-11490817Y16889005D01*
X-11399171Y16631140D01*
X-11399172Y16631140D01*
X-11273260Y16388142D01*
X-11273256Y16388136D01*
X-11115440Y16164561D01*
X-10928635Y15964543D01*
X-10809898Y15867944D01*
X-10716345Y15791832D01*
X-10716343Y15791831D01*
X-10716342Y15791830D01*
X-10482510Y15649634D01*
X-10278778Y15561142D01*
X-10231492Y15540602D01*
X-9967965Y15466765D01*
X-9729601Y15434004D01*
X-9696839Y15429500D01*
X-9696838Y15429500D01*
X9576839Y15429500D01*
X9606068Y15433518D01*
X9847965Y15466765D01*
X10111492Y15540602D01*
X10362511Y15649635D01*
X10596345Y15791832D01*
X10808638Y15964546D01*
X10995437Y16164558D01*
X11153260Y16388143D01*
X11279169Y16631136D01*
X11370818Y16889010D01*
X11370818Y16889015D01*
X11370821Y16889021D01*
X11401441Y17036380D01*
X11426499Y17156962D01*
X11445175Y17430000D01*
X11426499Y17703038D01*
X11390658Y17875515D01*
X11370821Y17970980D01*
X11370816Y17970996D01*
X11279170Y18228861D01*
X11279171Y18228861D01*
X11153259Y18471859D01*
X11153255Y18471865D01*
X10995439Y18695440D01*
X10808634Y18895458D01*
X10596341Y19068171D01*
X10362509Y19210367D01*
X10111493Y19319398D01*
X9847970Y19393234D01*
X9847966Y19393235D01*
X9847965Y19393235D01*
X9712401Y19411868D01*
X9576839Y19430500D01*
X9576838Y19430500D01*
X9505892Y19430500D01*
X-9494108Y19430500D01*
X-9560000Y19430500D01*
X-9696838Y19430500D01*
X-9696839Y19430500D01*
X-9967965Y19393235D01*
X-9967971Y19393234D01*
X-10231494Y19319398D01*
X-10482510Y19210367D01*
X-10716342Y19068171D01*
X-10928635Y18895458D01*
X-11115440Y18695440D01*
X-11273256Y18471865D01*
X-11273260Y18471859D01*
X-11399171Y18228861D01*
X-11490817Y17970996D01*
X-11490822Y17970980D01*
X-11546499Y17703041D01*
X-11546500Y17703039D01*
X-11565175Y17430000D01*
X-19619500Y17430000D01*
X-19619500Y24575500D01*
X-19599815Y24642539D01*
X-19547011Y24688294D01*
X-19495500Y24699500D01*
X19395500Y24699500D01*
X19462539Y24679815D01*
G37*
%TD.AperFunction*%
%TA.AperFunction,Conductor*%
G36*
X-9100000Y-12476988D02*
G01*
X-9157007Y-12444075D01*
X-9284174Y-12410000D01*
X-9415826Y-12410000D01*
X-9542993Y-12444075D01*
X-9600000Y-12476988D01*
X-9600000Y-10803012D01*
X-9542993Y-10835925D01*
X-9415826Y-10870000D01*
X-9284174Y-10870000D01*
X-9157007Y-10835925D01*
X-9100000Y-10803012D01*
X-9100000Y-12476988D01*
G37*
%TD.AperFunction*%
%TA.AperFunction,Conductor*%
G36*
X1060000Y-12476988D02*
G01*
X1002993Y-12444075D01*
X875826Y-12410000D01*
X744174Y-12410000D01*
X617007Y-12444075D01*
X560000Y-12476988D01*
X560000Y-10803012D01*
X617007Y-10835925D01*
X744174Y-10870000D01*
X875826Y-10870000D01*
X1002993Y-10835925D01*
X1060000Y-10803012D01*
X1060000Y-12476988D01*
G37*
%TD.AperFunction*%
%TA.AperFunction,Conductor*%
G36*
X-2360405Y3480611D02*
G01*
X-2309665Y3449314D01*
X-2254343Y3415191D01*
X-2254340Y3415190D01*
X-2254334Y3415186D01*
X-2087797Y3360001D01*
X-1985009Y3349500D01*
X-1554500Y3349501D01*
X-1487461Y3329817D01*
X-1441706Y3277013D01*
X-1430500Y3225501D01*
X-1430500Y-6165770D01*
X-1450185Y-6232809D01*
X-1502989Y-6278564D01*
X-1572147Y-6288508D01*
X-1593504Y-6283476D01*
X-1687500Y-6252329D01*
X-1724703Y-6240001D01*
X-1724705Y-6240000D01*
X-1827490Y-6229500D01*
X-2527502Y-6229500D01*
X-2527520Y-6229501D01*
X-2630297Y-6240000D01*
X-2630300Y-6240001D01*
X-2796832Y-6295185D01*
X-2796837Y-6295187D01*
X-2946158Y-6387289D01*
X-3070211Y-6511342D01*
X-3162313Y-6660663D01*
X-3162315Y-6660668D01*
X-3162385Y-6660880D01*
X-3217499Y-6827203D01*
X-3217499Y-6827204D01*
X-3217500Y-6827204D01*
X-3228000Y-6929983D01*
X-3228000Y-7288480D01*
X-3247685Y-7355519D01*
X-3264319Y-7376161D01*
X-4814112Y-8925953D01*
X-4814113Y-8925954D01*
X-4829281Y-8948656D01*
X-4873170Y-9014341D01*
X-4876125Y-9018763D01*
X-4890776Y-9040688D01*
X-4944228Y-9169735D01*
X-4987665Y-9223856D01*
X-5141402Y-9331505D01*
X-5308495Y-9498597D01*
X-5438425Y-9684158D01*
X-5493002Y-9727783D01*
X-5562500Y-9734977D01*
X-5624855Y-9703454D01*
X-5641575Y-9684158D01*
X-5771506Y-9498597D01*
X-5938598Y-9331506D01*
X-5938599Y-9331505D01*
X-6083564Y-9229999D01*
X-6106624Y-9213852D01*
X-6150249Y-9159275D01*
X-6159500Y-9112277D01*
X-6159500Y-5390808D01*
X-6139815Y-5323769D01*
X-6123181Y-5303127D01*
X-2694727Y-1874673D01*
X-2694723Y-1874669D01*
X-2623535Y-1768127D01*
X-2574499Y-1649744D01*
X-2549500Y-1524069D01*
X-2549500Y3375072D01*
X-2529815Y3442111D01*
X-2477011Y3487866D01*
X-2407853Y3497810D01*
X-2360405Y3480611D01*
G37*
%TD.AperFunction*%
%TA.AperFunction,Conductor*%
G36*
X14886231Y12889815D02*
G01*
X14906873Y12873181D01*
X17383181Y10396873D01*
X17416666Y10335550D01*
X17419500Y10309192D01*
X17419500Y6620809D01*
X17399815Y6553770D01*
X17383181Y6533128D01*
X16905222Y6055169D01*
X16843899Y6021684D01*
X16774207Y6026668D01*
X16737319Y6050375D01*
X16736666Y6049548D01*
X16731006Y6054024D01*
X16731003Y6054026D01*
X16730301Y6054459D01*
X16729921Y6054882D01*
X16725336Y6058507D01*
X16725955Y6059291D01*
X16683575Y6106402D01*
X16672349Y6175364D01*
X16700188Y6239448D01*
X16725455Y6261343D01*
X16725336Y6261493D01*
X16728687Y6264144D01*
X16730299Y6265541D01*
X16731003Y6265974D01*
X16854026Y6388997D01*
X16945362Y6537075D01*
X17000087Y6702225D01*
X17010500Y6804152D01*
X17010500Y7390848D01*
X17000087Y7492775D01*
X16945362Y7657925D01*
X16945358Y7657931D01*
X16945357Y7657934D01*
X16854028Y7806000D01*
X16854025Y7806004D01*
X16731003Y7929026D01*
X16730999Y7929029D01*
X16582933Y8020358D01*
X16582927Y8020361D01*
X16582925Y8020362D01*
X16569484Y8024816D01*
X16417776Y8075087D01*
X16315855Y8085500D01*
X16315848Y8085500D01*
X15304152Y8085500D01*
X15304144Y8085500D01*
X15202223Y8075087D01*
X15037077Y8020363D01*
X15037066Y8020358D01*
X14889000Y7929029D01*
X14888995Y7929025D01*
X14869598Y7909628D01*
X14808275Y7876144D01*
X14738583Y7881130D01*
X14702617Y7904245D01*
X14701819Y7903234D01*
X14696158Y7907710D01*
X14696156Y7907712D01*
X14546834Y7999814D01*
X14380297Y8054999D01*
X14380295Y8055000D01*
X14277510Y8065500D01*
X13277498Y8065500D01*
X13277480Y8065499D01*
X13174703Y8055000D01*
X13174700Y8054999D01*
X13008168Y7999815D01*
X13008159Y7999811D01*
X12861770Y7909517D01*
X12794378Y7891077D01*
X12727715Y7912000D01*
X12708993Y7927375D01*
X12703657Y7932711D01*
X12703656Y7932712D01*
X12594864Y7999815D01*
X12554336Y8024813D01*
X12554331Y8024815D01*
X12530671Y8032655D01*
X12387797Y8079999D01*
X12387795Y8080000D01*
X12285010Y8090500D01*
X11234998Y8090500D01*
X11234980Y8090499D01*
X11132203Y8080000D01*
X11132196Y8079998D01*
X11090443Y8066162D01*
X11020615Y8063760D01*
X10963759Y8096187D01*
X10086819Y8973127D01*
X10053334Y9034450D01*
X10050500Y9060808D01*
X10050500Y9538272D01*
X10058317Y9581602D01*
X10059817Y9585624D01*
X10101687Y9641559D01*
X10167150Y9665978D01*
X10235424Y9651128D01*
X10284831Y9601724D01*
X10300000Y9542294D01*
X10300000Y9285000D01*
X10347828Y9285000D01*
X10347844Y9285001D01*
X10407372Y9291402D01*
X10407379Y9291404D01*
X10542086Y9341646D01*
X10542093Y9341650D01*
X10657187Y9427810D01*
X10657190Y9427813D01*
X10743350Y9542907D01*
X10743354Y9542914D01*
X10793596Y9677621D01*
X10793598Y9677628D01*
X10799999Y9737156D01*
X10800000Y9737173D01*
X10800000Y10585000D01*
X10289873Y10585000D01*
X10250855Y10563695D01*
X10181163Y10568681D01*
X10125230Y10610554D01*
X10100815Y10676019D01*
X10100499Y10684847D01*
X10100499Y10885141D01*
X10120184Y10952178D01*
X10172988Y10997933D01*
X10242146Y11007877D01*
X10292240Y10985000D01*
X10800000Y10985000D01*
X10800000Y11832828D01*
X10799999Y11832845D01*
X10793598Y11892373D01*
X10793596Y11892380D01*
X10743354Y12027087D01*
X10743350Y12027094D01*
X10657190Y12142188D01*
X10657187Y12142191D01*
X10542093Y12228351D01*
X10542086Y12228355D01*
X10407379Y12278597D01*
X10407372Y12278599D01*
X10347844Y12285000D01*
X10300000Y12285000D01*
X10300000Y12027708D01*
X10280315Y11960669D01*
X10227511Y11914914D01*
X10158353Y11904970D01*
X10094797Y11933995D01*
X10059818Y11984375D01*
X10043797Y12027329D01*
X10043793Y12027336D01*
X9957547Y12142545D01*
X9957546Y12142546D01*
X9949685Y12148431D01*
X9907816Y12204367D01*
X9900000Y12247695D01*
X9900000Y12285000D01*
X9852155Y12285000D01*
X9792624Y12278599D01*
X9785073Y12276814D01*
X9784684Y12278458D01*
X9724348Y12274147D01*
X9707614Y12279061D01*
X9707491Y12279090D01*
X9707483Y12279091D01*
X9647873Y12285500D01*
X9647863Y12285500D01*
X9152129Y12285500D01*
X9152123Y12285499D01*
X9092520Y12279092D01*
X9084974Y12277308D01*
X9084628Y12278770D01*
X9023622Y12274416D01*
X9008600Y12278828D01*
X9007482Y12279092D01*
X8947882Y12285499D01*
X8947873Y12285500D01*
X8947863Y12285500D01*
X8452129Y12285500D01*
X8452123Y12285499D01*
X8392520Y12279092D01*
X8384974Y12277308D01*
X8384628Y12278770D01*
X8323622Y12274416D01*
X8308600Y12278828D01*
X8307482Y12279092D01*
X8247882Y12285499D01*
X8247873Y12285500D01*
X8247863Y12285500D01*
X7752129Y12285500D01*
X7752123Y12285499D01*
X7692520Y12279092D01*
X7684974Y12277308D01*
X7684628Y12278770D01*
X7623622Y12274416D01*
X7608600Y12278828D01*
X7607482Y12279092D01*
X7547883Y12285499D01*
X7547881Y12285500D01*
X7547873Y12285500D01*
X7547865Y12285500D01*
X7374500Y12285500D01*
X7307461Y12305185D01*
X7261706Y12357989D01*
X7250500Y12409500D01*
X7250500Y12785500D01*
X7270185Y12852539D01*
X7322989Y12898294D01*
X7374500Y12909500D01*
X14819192Y12909500D01*
X14886231Y12889815D01*
G37*
%TD.AperFunction*%
%TA.AperFunction,Conductor*%
G36*
X1787681Y9498515D02*
G01*
X1799267Y9485144D01*
X1842451Y9427456D01*
X1842454Y9427454D01*
X1850308Y9421575D01*
X1892180Y9365644D01*
X1900000Y9322306D01*
X1900000Y9285000D01*
X1947828Y9285000D01*
X1947844Y9285001D01*
X2007375Y9291402D01*
X2014926Y9293186D01*
X2015315Y9291538D01*
X2075624Y9295860D01*
X2092387Y9290940D01*
X2092511Y9290912D01*
X2092517Y9290909D01*
X2152127Y9284500D01*
X2325500Y9284501D01*
X2392539Y9264817D01*
X2438294Y9212013D01*
X2449500Y9160501D01*
X2449500Y8145449D01*
X2429815Y8078410D01*
X2377011Y8032655D01*
X2364507Y8027744D01*
X2355667Y8024815D01*
X2206342Y7932711D01*
X2082289Y7808658D01*
X1996397Y7669403D01*
X1944449Y7622679D01*
X1890858Y7610500D01*
X977230Y7610500D01*
X910191Y7630185D01*
X899662Y7638669D01*
X899319Y7638234D01*
X893658Y7642710D01*
X893656Y7642712D01*
X744334Y7734814D01*
X577797Y7789999D01*
X577795Y7790000D01*
X475010Y7800500D01*
X-150002Y7800500D01*
X-150020Y7800499D01*
X-252797Y7790000D01*
X-252800Y7789999D01*
X-264169Y7786231D01*
X-333998Y7783829D01*
X-390854Y7816256D01*
X-1113181Y8538583D01*
X-1146666Y8599906D01*
X-1149500Y8626264D01*
X-1149500Y9160501D01*
X-1129815Y9227540D01*
X-1077011Y9273295D01*
X-1025500Y9284501D01*
X-852129Y9284501D01*
X-852128Y9284501D01*
X-792517Y9290909D01*
X-792515Y9290910D01*
X-792513Y9290910D01*
X-784969Y9292692D01*
X-784623Y9291225D01*
X-723658Y9295592D01*
X-708622Y9291178D01*
X-707489Y9290911D01*
X-707483Y9290909D01*
X-647873Y9284500D01*
X-539351Y9284501D01*
X-472312Y9264817D01*
X-427629Y9214299D01*
X-425789Y9210477D01*
X-331745Y9060808D01*
X-329816Y9057738D01*
X-202262Y8930184D01*
X-49522Y8834211D01*
X120745Y8774632D01*
X120750Y8774631D01*
X299996Y8754435D01*
X300000Y8754435D01*
X300004Y8754435D01*
X479249Y8774631D01*
X479252Y8774632D01*
X479255Y8774632D01*
X649522Y8834211D01*
X802262Y8930184D01*
X929816Y9057738D01*
X1025789Y9210478D01*
X1025791Y9210486D01*
X1027631Y9214303D01*
X1029476Y9216347D01*
X1029494Y9216375D01*
X1029498Y9216372D01*
X1074454Y9266163D01*
X1139351Y9284501D01*
X1247871Y9284501D01*
X1247872Y9284501D01*
X1307483Y9290909D01*
X1307489Y9290912D01*
X1315025Y9292692D01*
X1315321Y9291439D01*
X1377063Y9295858D01*
X1390655Y9291868D01*
X1392627Y9291402D01*
X1452155Y9285001D01*
X1452172Y9285000D01*
X1500000Y9285000D01*
X1500000Y9322306D01*
X1519685Y9389345D01*
X1549690Y9421574D01*
X1557546Y9427454D01*
X1557546Y9427456D01*
X1557548Y9427456D01*
X1600733Y9485144D01*
X1656667Y9527016D01*
X1726358Y9532000D01*
X1787681Y9498515D01*
G37*
%TD.AperFunction*%
%TA.AperFunction,Conductor*%
G36*
X5348815Y9422692D02*
G01*
X5350315Y9421569D01*
X5392184Y9365634D01*
X5400000Y9322306D01*
X5400000Y9285000D01*
X5447828Y9285000D01*
X5447844Y9285001D01*
X5507375Y9291402D01*
X5514926Y9293186D01*
X5515315Y9291538D01*
X5575624Y9295860D01*
X5592387Y9290940D01*
X5592511Y9290912D01*
X5592517Y9290909D01*
X5652127Y9284500D01*
X6147872Y9284501D01*
X6207483Y9290909D01*
X6207485Y9290910D01*
X6207487Y9290910D01*
X6215031Y9292692D01*
X6215377Y9291225D01*
X6276342Y9295592D01*
X6291378Y9291178D01*
X6292511Y9290911D01*
X6292517Y9290909D01*
X6352127Y9284500D01*
X6525500Y9284501D01*
X6592539Y9264817D01*
X6638294Y9212013D01*
X6649500Y9160501D01*
X6649500Y9040808D01*
X6629815Y8973769D01*
X6613181Y8953127D01*
X5786873Y8126819D01*
X5725550Y8093334D01*
X5699192Y8090500D01*
X5274500Y8090500D01*
X5207461Y8110185D01*
X5161706Y8162989D01*
X5150500Y8214500D01*
X5150500Y9323429D01*
X5170185Y9390468D01*
X5222989Y9436223D01*
X5292147Y9446167D01*
X5348815Y9422692D01*
G37*
%TD.AperFunction*%
%TA.AperFunction,Conductor*%
G36*
X5892539Y12889815D02*
G01*
X5938294Y12837011D01*
X5949500Y12785500D01*
X5949500Y12409500D01*
X5929815Y12342461D01*
X5877011Y12296706D01*
X5825501Y12285500D01*
X5652130Y12285500D01*
X5652123Y12285499D01*
X5592515Y12279091D01*
X5584971Y12277308D01*
X5584675Y12278561D01*
X5522926Y12274145D01*
X5509357Y12278130D01*
X5507372Y12278599D01*
X5447844Y12285000D01*
X5400000Y12285000D01*
X5400000Y12247695D01*
X5380315Y12180656D01*
X5350315Y12148432D01*
X5348815Y12147309D01*
X5283352Y12122888D01*
X5215078Y12137737D01*
X5165671Y12187140D01*
X5150500Y12246572D01*
X5150500Y12785500D01*
X5170185Y12852539D01*
X5222989Y12898294D01*
X5274500Y12909500D01*
X5825500Y12909500D01*
X5892539Y12889815D01*
G37*
%TD.AperFunction*%
%TA.AperFunction,Conductor*%
G36*
X2392539Y12889815D02*
G01*
X2438294Y12837011D01*
X2449500Y12785500D01*
X2449500Y12409500D01*
X2429815Y12342461D01*
X2377011Y12296706D01*
X2325501Y12285500D01*
X2152130Y12285500D01*
X2152123Y12285499D01*
X2092515Y12279091D01*
X2084971Y12277308D01*
X2084675Y12278561D01*
X2022926Y12274145D01*
X2009357Y12278130D01*
X2007372Y12278599D01*
X1947844Y12285000D01*
X1899999Y12285000D01*
X1881553Y12266554D01*
X1820230Y12233070D01*
X1750538Y12238055D01*
X1694605Y12279926D01*
X1688879Y12288264D01*
X1678174Y12305301D01*
X1629816Y12382262D01*
X1502262Y12509816D01*
X1446264Y12545002D01*
X1349523Y12605789D01*
X1172682Y12667668D01*
X1173407Y12669743D01*
X1121608Y12698713D01*
X1088747Y12760373D01*
X1094439Y12830011D01*
X1136876Y12885516D01*
X1202585Y12909267D01*
X1210175Y12909500D01*
X2325500Y12909500D01*
X2392539Y12889815D01*
G37*
%TD.AperFunction*%
%TA.AperFunction,Conductor*%
G36*
X856864Y12889815D02*
G01*
X902619Y12837011D01*
X912563Y12767853D01*
X883538Y12704297D01*
X827175Y12668076D01*
X827318Y12667668D01*
X825613Y12667072D01*
X824760Y12666523D01*
X821961Y12665794D01*
X650476Y12605789D01*
X497737Y12509816D01*
X370182Y12382261D01*
X370181Y12382259D01*
X345844Y12343527D01*
X293509Y12297236D01*
X240852Y12285500D01*
X52130Y12285500D01*
X52123Y12285499D01*
X-7480Y12279092D01*
X-15026Y12277308D01*
X-15372Y12278770D01*
X-76378Y12274416D01*
X-91400Y12278828D01*
X-92518Y12279092D01*
X-152118Y12285499D01*
X-152127Y12285500D01*
X-152137Y12285500D01*
X-647871Y12285500D01*
X-647877Y12285499D01*
X-707480Y12279092D01*
X-715026Y12277308D01*
X-715372Y12278770D01*
X-776378Y12274416D01*
X-791400Y12278828D01*
X-792518Y12279092D01*
X-852118Y12285499D01*
X-852127Y12285500D01*
X-852137Y12285500D01*
X-1347871Y12285500D01*
X-1347877Y12285499D01*
X-1407480Y12279092D01*
X-1415026Y12277308D01*
X-1415372Y12278770D01*
X-1476378Y12274416D01*
X-1491400Y12278828D01*
X-1492518Y12279092D01*
X-1552118Y12285499D01*
X-1552127Y12285500D01*
X-1552137Y12285500D01*
X-2047871Y12285500D01*
X-2047877Y12285499D01*
X-2107480Y12279092D01*
X-2115026Y12277308D01*
X-2115372Y12278770D01*
X-2176378Y12274416D01*
X-2191400Y12278828D01*
X-2192518Y12279092D01*
X-2252118Y12285499D01*
X-2252127Y12285500D01*
X-2252137Y12285500D01*
X-2747871Y12285500D01*
X-2747877Y12285499D01*
X-2807480Y12279092D01*
X-2815026Y12277308D01*
X-2815372Y12278770D01*
X-2876378Y12274416D01*
X-2891400Y12278828D01*
X-2892518Y12279092D01*
X-2952118Y12285499D01*
X-2952127Y12285500D01*
X-2952137Y12285500D01*
X-3447871Y12285500D01*
X-3447877Y12285499D01*
X-3507480Y12279092D01*
X-3515026Y12277308D01*
X-3515372Y12278770D01*
X-3576378Y12274416D01*
X-3591400Y12278828D01*
X-3592518Y12279092D01*
X-3652118Y12285499D01*
X-3652127Y12285500D01*
X-3652137Y12285500D01*
X-4147871Y12285500D01*
X-4147877Y12285499D01*
X-4207480Y12279092D01*
X-4215026Y12277308D01*
X-4215372Y12278770D01*
X-4276378Y12274416D01*
X-4291400Y12278828D01*
X-4292518Y12279092D01*
X-4352118Y12285499D01*
X-4352127Y12285500D01*
X-4352137Y12285500D01*
X-4847871Y12285500D01*
X-4847877Y12285499D01*
X-4907480Y12279092D01*
X-4915026Y12277308D01*
X-4915372Y12278770D01*
X-4976378Y12274416D01*
X-4991400Y12278828D01*
X-4992518Y12279092D01*
X-5052118Y12285499D01*
X-5052127Y12285500D01*
X-5052137Y12285500D01*
X-5547871Y12285500D01*
X-5547877Y12285499D01*
X-5607480Y12279092D01*
X-5615026Y12277308D01*
X-5615372Y12278770D01*
X-5676378Y12274416D01*
X-5691400Y12278828D01*
X-5692518Y12279092D01*
X-5752118Y12285499D01*
X-5752127Y12285500D01*
X-5752137Y12285500D01*
X-6247871Y12285500D01*
X-6247877Y12285499D01*
X-6307480Y12279092D01*
X-6315026Y12277308D01*
X-6315372Y12278770D01*
X-6376378Y12274416D01*
X-6391400Y12278828D01*
X-6392518Y12279092D01*
X-6452118Y12285499D01*
X-6452127Y12285500D01*
X-6452137Y12285500D01*
X-6947871Y12285500D01*
X-6947877Y12285499D01*
X-7007480Y12279092D01*
X-7015026Y12277308D01*
X-7015372Y12278770D01*
X-7076378Y12274416D01*
X-7091400Y12278828D01*
X-7092518Y12279092D01*
X-7152118Y12285499D01*
X-7152127Y12285500D01*
X-7152137Y12285500D01*
X-7647871Y12285500D01*
X-7647877Y12285499D01*
X-7707480Y12279092D01*
X-7715026Y12277308D01*
X-7715372Y12278770D01*
X-7776378Y12274416D01*
X-7791400Y12278828D01*
X-7792518Y12279092D01*
X-7852117Y12285499D01*
X-7852119Y12285500D01*
X-7852127Y12285500D01*
X-7852135Y12285500D01*
X-8025500Y12285500D01*
X-8092539Y12305185D01*
X-8138294Y12357989D01*
X-8149500Y12409500D01*
X-8149500Y12785500D01*
X-8129815Y12852539D01*
X-8077011Y12898294D01*
X-8025500Y12909500D01*
X789825Y12909500D01*
X856864Y12889815D01*
G37*
%TD.AperFunction*%
%TD*%
M02*
