%TF.GenerationSoftware,KiCad,Pcbnew,8.0.8+1*%
%TF.CreationDate,2025-02-25T21:56:48+00:00*%
%TF.ProjectId,OLED02,4f4c4544-3032-42e6-9b69-6361645f7063,rev?*%
%TF.SameCoordinates,Original*%
%TF.FileFunction,Copper,L1,Top*%
%TF.FilePolarity,Positive*%
%FSLAX46Y46*%
G04 Gerber Fmt 4.6, Leading zero omitted, Abs format (unit mm)*
G04 Created by KiCad (PCBNEW 8.0.8+1) date 2025-02-25 21:56:48*
%MOMM*%
%LPD*%
G01*
G04 APERTURE LIST*
%TA.AperFunction,ComponentPad*%
%ADD10R,1.700000X1.700000*%
%TD*%
%TA.AperFunction,ComponentPad*%
%ADD11O,1.700000X1.700000*%
%TD*%
%TA.AperFunction,ComponentPad*%
%ADD12C,6.000000*%
%TD*%
%TA.AperFunction,ViaPad*%
%ADD13C,0.600000*%
%TD*%
%TA.AperFunction,Conductor*%
%ADD14C,0.400000*%
%TD*%
%TA.AperFunction,Conductor*%
%ADD15C,0.300000*%
%TD*%
G04 APERTURE END LIST*
D10*
%TO.P,JP1,1,A*%
%TO.N,GND*%
X9825000Y-12760000D03*
D11*
%TO.P,JP1,2,C*%
%TO.N,Net-(JP1-C)*%
X7285000Y-12760000D03*
%TO.P,JP1,3,B*%
%TO.N,+3.3V*%
X4745000Y-12760000D03*
%TD*%
D12*
%TO.P,M4,1*%
%TO.N,GND*%
X15190000Y-10110000D03*
%TD*%
%TO.P,M3,1*%
%TO.N,GND*%
X-15290000Y-10110000D03*
%TD*%
%TO.P,M2,1*%
%TO.N,GND*%
X15190000Y20370000D03*
%TD*%
D10*
%TO.P,J2,1*%
%TO.N,GND*%
X810000Y-10370000D03*
D11*
%TO.P,J2,2*%
X810000Y-12910000D03*
%TO.P,J2,3*%
%TO.N,/SCL*%
X-1730000Y-10370000D03*
%TO.P,J2,4*%
X-1730000Y-12910000D03*
%TO.P,J2,5*%
%TO.N,+3.3V*%
X-4270000Y-10370000D03*
%TO.P,J2,6*%
X-4270000Y-12910000D03*
%TO.P,J2,7*%
%TO.N,/SDA*%
X-6810000Y-10370000D03*
%TO.P,J2,8*%
X-6810000Y-12910000D03*
%TO.P,J2,9*%
%TO.N,GND*%
X-9350000Y-10370000D03*
%TO.P,J2,10*%
X-9350000Y-12910000D03*
%TD*%
D12*
%TO.P,M1,1*%
%TO.N,GND*%
X-15290000Y20370000D03*
%TD*%
D13*
%TO.N,GND*%
X-2000000Y-440000D03*
X13110000Y15780000D03*
X-6550000Y270000D03*
X700000Y-5750000D03*
X-6580000Y3640000D03*
X1340000Y470000D03*
X3760000Y12910000D03*
X5970000Y-5910000D03*
X-8180000Y-5840000D03*
X1710000Y12620000D03*
X-11380000Y5100000D03*
X5450000Y12540000D03*
X5395380Y8335380D03*
X-9860000Y12600000D03*
X12080000Y10960000D03*
X1370000Y-2460000D03*
X14020000Y10490000D03*
X3770000Y8220000D03*
X2690000Y-11670000D03*
X3280000Y3880000D03*
X-4960000Y7590000D03*
X-5610000Y-6130000D03*
X5340000Y3770000D03*
X-6550000Y-2290000D03*
X-10700000Y270000D03*
X-12540000Y8710000D03*
X4810000Y-5890000D03*
X6570000Y14710000D03*
X15300000Y370000D03*
X-8950000Y3580000D03*
X2980000Y-10020000D03*
X-540000Y12610000D03*
X3470000Y-5890000D03*
X-5310000Y8910000D03*
X-5620000Y12570000D03*
X460000Y8160000D03*
X12330000Y310000D03*
X-740000Y9020000D03*
X-2790000Y-4820000D03*
X15300000Y15510000D03*
X2050000Y8230000D03*
X-2000000Y-3500000D03*
%TO.N,+3.3V*%
X3150000Y7120000D03*
%TO.N,/ADDR*%
X300000Y9560000D03*
X7260000Y3700000D03*
%TO.N,/RES*%
X1000000Y11880000D03*
X11690000Y7117500D03*
%TD*%
D14*
%TO.N,+3.3V*%
X-4270000Y-8140000D02*
X3130000Y-8140000D01*
X3150000Y7120000D02*
X3090000Y7120000D01*
X-4270000Y-12910000D02*
X-4270000Y-8140000D01*
X-4270000Y-240000D02*
X-4270000Y-8140000D01*
X4745000Y-9755000D02*
X4745000Y-12760000D01*
X3090000Y7120000D02*
X-4270000Y-240000D01*
X3130000Y-8140000D02*
X4745000Y-9755000D01*
D15*
%TO.N,/ADDR*%
X300000Y9560000D02*
X5090000Y9560000D01*
X7260000Y7390000D02*
X7260000Y3700000D01*
X5090000Y9560000D02*
X7260000Y7390000D01*
%TO.N,/RES*%
X11690000Y7117500D02*
X7527500Y11280000D01*
X7527500Y11280000D02*
X1600000Y11280000D01*
X1600000Y11280000D02*
X1000000Y11880000D01*
%TD*%
%TA.AperFunction,Conductor*%
%TO.N,GND*%
G36*
X19462539Y24679815D02*
G01*
X19508294Y24627011D01*
X19519500Y24575500D01*
X19519500Y-14315500D01*
X19499815Y-14382539D01*
X19447011Y-14428294D01*
X19395500Y-14439500D01*
X1259703Y-14439500D01*
X1192664Y-14419815D01*
X1146909Y-14367011D01*
X1136965Y-14297853D01*
X1165990Y-14234297D01*
X1224768Y-14196523D01*
X1227610Y-14195725D01*
X1273483Y-14183433D01*
X1273492Y-14183429D01*
X1487578Y-14083600D01*
X1681082Y-13948105D01*
X1848105Y-13781082D01*
X1983600Y-13587578D01*
X2083429Y-13373492D01*
X2083432Y-13373486D01*
X2140636Y-13160000D01*
X1243012Y-13160000D01*
X1275925Y-13102993D01*
X1310000Y-12975826D01*
X1310000Y-12844174D01*
X1275925Y-12717007D01*
X1243012Y-12660000D01*
X2140636Y-12660000D01*
X2140635Y-12659999D01*
X2083432Y-12446513D01*
X2083429Y-12446507D01*
X1983600Y-12232422D01*
X1983599Y-12232420D01*
X1848113Y-12038926D01*
X1848108Y-12038920D01*
X1725665Y-11916477D01*
X1692180Y-11855154D01*
X1697164Y-11785462D01*
X1739036Y-11729529D01*
X1770013Y-11712614D01*
X1902086Y-11663354D01*
X1902093Y-11663350D01*
X2017187Y-11577190D01*
X2017190Y-11577187D01*
X2103350Y-11462093D01*
X2103354Y-11462086D01*
X2153596Y-11327379D01*
X2153598Y-11327372D01*
X2159999Y-11267844D01*
X2160000Y-11267827D01*
X2160000Y-10620000D01*
X1243012Y-10620000D01*
X1275925Y-10562993D01*
X1310000Y-10435826D01*
X1310000Y-10304174D01*
X1275925Y-10177007D01*
X1243012Y-10120000D01*
X2160000Y-10120000D01*
X2160000Y-9472172D01*
X2159999Y-9472155D01*
X2153598Y-9412627D01*
X2153596Y-9412620D01*
X2103354Y-9277913D01*
X2103350Y-9277906D01*
X2017190Y-9162812D01*
X2017187Y-9162809D01*
X1902093Y-9076649D01*
X1896018Y-9073332D01*
X1846613Y-9023926D01*
X1831762Y-8955653D01*
X1856179Y-8890189D01*
X1912113Y-8848318D01*
X1955446Y-8840500D01*
X2788481Y-8840500D01*
X2855520Y-8860185D01*
X2876162Y-8876819D01*
X4008181Y-10008838D01*
X4041666Y-10070161D01*
X4044500Y-10096519D01*
X4044500Y-11537288D01*
X4024815Y-11604327D01*
X3991624Y-11638863D01*
X3873594Y-11721508D01*
X3706505Y-11888597D01*
X3570965Y-12082169D01*
X3570964Y-12082171D01*
X3471098Y-12296335D01*
X3471094Y-12296344D01*
X3409938Y-12524586D01*
X3409936Y-12524596D01*
X3389341Y-12759999D01*
X3389341Y-12760000D01*
X3409936Y-12995403D01*
X3409938Y-12995413D01*
X3471094Y-13223655D01*
X3471096Y-13223659D01*
X3471097Y-13223663D01*
X3542098Y-13375925D01*
X3570965Y-13437830D01*
X3570967Y-13437834D01*
X3645717Y-13544587D01*
X3706505Y-13631401D01*
X3873599Y-13798495D01*
X3950135Y-13852086D01*
X4067165Y-13934032D01*
X4067167Y-13934033D01*
X4067170Y-13934035D01*
X4281337Y-14033903D01*
X4509592Y-14095063D01*
X4680319Y-14110000D01*
X4744999Y-14115659D01*
X4745000Y-14115659D01*
X4745001Y-14115659D01*
X4809681Y-14110000D01*
X4980408Y-14095063D01*
X5208663Y-14033903D01*
X5422830Y-13934035D01*
X5616401Y-13798495D01*
X5783495Y-13631401D01*
X5913425Y-13445842D01*
X5968002Y-13402217D01*
X6037500Y-13395023D01*
X6099855Y-13426546D01*
X6116575Y-13445842D01*
X6246500Y-13631395D01*
X6246505Y-13631401D01*
X6413599Y-13798495D01*
X6490135Y-13852086D01*
X6607165Y-13934032D01*
X6607167Y-13934033D01*
X6607170Y-13934035D01*
X6821337Y-14033903D01*
X7049592Y-14095063D01*
X7220319Y-14110000D01*
X7284999Y-14115659D01*
X7285000Y-14115659D01*
X7285001Y-14115659D01*
X7349681Y-14110000D01*
X7520408Y-14095063D01*
X7748663Y-14033903D01*
X7962830Y-13934035D01*
X8156401Y-13798495D01*
X8278717Y-13676178D01*
X8340036Y-13642696D01*
X8409728Y-13647680D01*
X8465662Y-13689551D01*
X8482577Y-13720528D01*
X8531646Y-13852088D01*
X8531649Y-13852093D01*
X8617809Y-13967187D01*
X8617812Y-13967190D01*
X8732906Y-14053350D01*
X8732913Y-14053354D01*
X8867620Y-14103596D01*
X8867627Y-14103598D01*
X8927155Y-14109999D01*
X8927172Y-14110000D01*
X9575000Y-14110000D01*
X9575000Y-13193012D01*
X9632007Y-13225925D01*
X9759174Y-13260000D01*
X9890826Y-13260000D01*
X10017993Y-13225925D01*
X10075000Y-13193012D01*
X10075000Y-14110000D01*
X10722828Y-14110000D01*
X10722844Y-14109999D01*
X10782372Y-14103598D01*
X10782379Y-14103596D01*
X10917086Y-14053354D01*
X10917093Y-14053350D01*
X11032187Y-13967190D01*
X11032190Y-13967187D01*
X11118350Y-13852093D01*
X11118354Y-13852086D01*
X11168596Y-13717379D01*
X11168598Y-13717372D01*
X11174999Y-13657844D01*
X11175000Y-13657827D01*
X11175000Y-13010000D01*
X10258012Y-13010000D01*
X10290925Y-12952993D01*
X10325000Y-12825826D01*
X10325000Y-12694174D01*
X10290925Y-12567007D01*
X10258012Y-12510000D01*
X11175000Y-12510000D01*
X11175000Y-11862172D01*
X11174999Y-11862155D01*
X11168598Y-11802627D01*
X11168596Y-11802620D01*
X11118354Y-11667913D01*
X11118350Y-11667906D01*
X11032190Y-11552812D01*
X11032187Y-11552809D01*
X10917093Y-11466649D01*
X10917086Y-11466645D01*
X10782379Y-11416403D01*
X10782372Y-11416401D01*
X10722844Y-11410000D01*
X10075000Y-11410000D01*
X10075000Y-12326988D01*
X10017993Y-12294075D01*
X9890826Y-12260000D01*
X9759174Y-12260000D01*
X9632007Y-12294075D01*
X9575000Y-12326988D01*
X9575000Y-11410000D01*
X8927155Y-11410000D01*
X8867627Y-11416401D01*
X8867620Y-11416403D01*
X8732913Y-11466645D01*
X8732906Y-11466649D01*
X8617812Y-11552809D01*
X8617809Y-11552812D01*
X8531649Y-11667906D01*
X8531645Y-11667913D01*
X8482578Y-11799470D01*
X8440707Y-11855404D01*
X8375242Y-11879821D01*
X8306969Y-11864969D01*
X8278715Y-11843819D01*
X8220358Y-11785462D01*
X8156401Y-11721505D01*
X8156397Y-11721502D01*
X8156396Y-11721501D01*
X7962834Y-11585967D01*
X7962830Y-11585965D01*
X7944012Y-11577190D01*
X7748663Y-11486097D01*
X7748659Y-11486096D01*
X7748655Y-11486094D01*
X7520413Y-11424938D01*
X7520403Y-11424936D01*
X7285001Y-11404341D01*
X7284999Y-11404341D01*
X7049596Y-11424936D01*
X7049586Y-11424938D01*
X6821344Y-11486094D01*
X6821335Y-11486098D01*
X6607171Y-11585964D01*
X6607169Y-11585965D01*
X6413597Y-11721505D01*
X6246505Y-11888597D01*
X6116575Y-12074158D01*
X6061998Y-12117783D01*
X5992500Y-12124977D01*
X5930145Y-12093454D01*
X5913425Y-12074158D01*
X5783494Y-11888597D01*
X5616404Y-11721508D01*
X5616401Y-11721505D01*
X5616396Y-11721501D01*
X5616393Y-11721499D01*
X5498376Y-11638861D01*
X5454751Y-11584284D01*
X5445500Y-11537287D01*
X5445500Y-9686004D01*
X5418581Y-9550677D01*
X5418580Y-9550676D01*
X5418580Y-9550672D01*
X5365775Y-9423189D01*
X5304514Y-9331505D01*
X5289114Y-9308457D01*
X5289109Y-9308451D01*
X3576545Y-7595887D01*
X3461807Y-7519222D01*
X3334332Y-7466421D01*
X3334322Y-7466418D01*
X3198996Y-7439500D01*
X3198994Y-7439500D01*
X3198993Y-7439500D01*
X-3445500Y-7439500D01*
X-3512539Y-7419815D01*
X-3558294Y-7367011D01*
X-3569500Y-7315500D01*
X-3569500Y-581518D01*
X-3549815Y-514479D01*
X-3533186Y-493842D01*
X3260295Y6299640D01*
X3321616Y6333123D01*
X3325297Y6333729D01*
X3329251Y6334632D01*
X3329255Y6334632D01*
X3499522Y6394211D01*
X3652262Y6490184D01*
X3779816Y6617738D01*
X3875789Y6770478D01*
X3935368Y6940745D01*
X3935369Y6940751D01*
X3955565Y7119997D01*
X3955565Y7120004D01*
X3935369Y7299250D01*
X3935368Y7299255D01*
X3875789Y7469522D01*
X3779816Y7622262D01*
X3652262Y7749816D01*
X3564969Y7804666D01*
X3499523Y7845789D01*
X3329254Y7905369D01*
X3329249Y7905370D01*
X3150004Y7925565D01*
X3149996Y7925565D01*
X2970750Y7905370D01*
X2970745Y7905369D01*
X2800476Y7845789D01*
X2647737Y7749816D01*
X2520184Y7622263D01*
X2424211Y7469522D01*
X2424206Y7469512D01*
X2420285Y7458306D01*
X2390927Y7411586D01*
X-4814113Y206546D01*
X-4890778Y91808D01*
X-4943579Y-35667D01*
X-4943582Y-35677D01*
X-4970500Y-171004D01*
X-4970500Y-9147288D01*
X-4990185Y-9214327D01*
X-5023376Y-9248863D01*
X-5141406Y-9331508D01*
X-5308495Y-9498597D01*
X-5438425Y-9684158D01*
X-5493002Y-9727783D01*
X-5562500Y-9734977D01*
X-5624855Y-9703454D01*
X-5641575Y-9684158D01*
X-5771506Y-9498597D01*
X-5938598Y-9331506D01*
X-5938604Y-9331502D01*
X-6015146Y-9277906D01*
X-6132166Y-9195967D01*
X-6132170Y-9195965D01*
X-6236558Y-9147288D01*
X-6346337Y-9096097D01*
X-6346341Y-9096096D01*
X-6346345Y-9096094D01*
X-6574587Y-9034938D01*
X-6574597Y-9034936D01*
X-6809999Y-9014341D01*
X-6810001Y-9014341D01*
X-7045404Y-9034936D01*
X-7045414Y-9034938D01*
X-7273656Y-9096094D01*
X-7273665Y-9096098D01*
X-7487829Y-9195964D01*
X-7487831Y-9195965D01*
X-7681403Y-9331505D01*
X-7848492Y-9498594D01*
X-7978731Y-9684595D01*
X-8033308Y-9728219D01*
X-8102807Y-9735412D01*
X-8165161Y-9703890D01*
X-8181881Y-9684594D01*
X-8311887Y-9498926D01*
X-8311892Y-9498920D01*
X-8478918Y-9331894D01*
X-8672422Y-9196399D01*
X-8886508Y-9096570D01*
X-8886514Y-9096567D01*
X-9100000Y-9039364D01*
X-9100000Y-9936988D01*
X-9157007Y-9904075D01*
X-9284174Y-9870000D01*
X-9415826Y-9870000D01*
X-9542993Y-9904075D01*
X-9600000Y-9936988D01*
X-9600000Y-9039364D01*
X-9600001Y-9039364D01*
X-9813487Y-9096567D01*
X-9813493Y-9096570D01*
X-10027578Y-9196399D01*
X-10027580Y-9196400D01*
X-10221074Y-9331886D01*
X-10221080Y-9331891D01*
X-10388109Y-9498920D01*
X-10388114Y-9498926D01*
X-10523600Y-9692420D01*
X-10523601Y-9692422D01*
X-10623430Y-9906507D01*
X-10623433Y-9906513D01*
X-10680636Y-10119999D01*
X-10680636Y-10120000D01*
X-9783012Y-10120000D01*
X-9815925Y-10177007D01*
X-9850000Y-10304174D01*
X-9850000Y-10435826D01*
X-9815925Y-10562993D01*
X-9783012Y-10620000D01*
X-10680636Y-10620000D01*
X-10623433Y-10833486D01*
X-10623430Y-10833492D01*
X-10523601Y-11047578D01*
X-10388106Y-11241082D01*
X-10221083Y-11408105D01*
X-10034969Y-11538425D01*
X-9991344Y-11593003D01*
X-9984152Y-11662501D01*
X-10015674Y-11724856D01*
X-10034969Y-11741575D01*
X-10221078Y-11871890D01*
X-10221080Y-11871891D01*
X-10388109Y-12038920D01*
X-10388114Y-12038926D01*
X-10523600Y-12232420D01*
X-10523601Y-12232422D01*
X-10623430Y-12446507D01*
X-10623433Y-12446513D01*
X-10680636Y-12659999D01*
X-10680636Y-12660000D01*
X-9783012Y-12660000D01*
X-9815925Y-12717007D01*
X-9850000Y-12844174D01*
X-9850000Y-12975826D01*
X-9815925Y-13102993D01*
X-9783012Y-13160000D01*
X-10680636Y-13160000D01*
X-10623433Y-13373486D01*
X-10623430Y-13373492D01*
X-10523601Y-13587578D01*
X-10388106Y-13781082D01*
X-10221083Y-13948105D01*
X-10027579Y-14083600D01*
X-9813493Y-14183429D01*
X-9813484Y-14183433D01*
X-9767610Y-14195725D01*
X-9707949Y-14232090D01*
X-9677420Y-14294937D01*
X-9685715Y-14364312D01*
X-9730200Y-14418190D01*
X-9796752Y-14439465D01*
X-9799703Y-14439500D01*
X-19495500Y-14439500D01*
X-19562539Y-14419815D01*
X-19608294Y-14367011D01*
X-19619500Y-14315500D01*
X-19619500Y9560004D01*
X-505565Y9560004D01*
X-505565Y9559997D01*
X-485370Y9380751D01*
X-485369Y9380746D01*
X-425789Y9210477D01*
X-329816Y9057738D01*
X-202262Y8930184D01*
X-49522Y8834211D01*
X120739Y8774634D01*
X120745Y8774632D01*
X120750Y8774631D01*
X299996Y8754435D01*
X300000Y8754435D01*
X300004Y8754435D01*
X479249Y8774631D01*
X479251Y8774632D01*
X479255Y8774632D01*
X479258Y8774634D01*
X479262Y8774634D01*
X569377Y8806168D01*
X649522Y8834211D01*
X739096Y8890495D01*
X805068Y8909500D01*
X4769192Y8909500D01*
X4836231Y8889815D01*
X4856873Y8873181D01*
X6573181Y7156873D01*
X6606666Y7095550D01*
X6609500Y7069192D01*
X6609500Y4205069D01*
X6590494Y4139097D01*
X6534211Y4049523D01*
X6534209Y4049519D01*
X6474633Y3879263D01*
X6474630Y3879250D01*
X6454435Y3700004D01*
X6454435Y3699997D01*
X6474630Y3520751D01*
X6474631Y3520746D01*
X6534211Y3350477D01*
X6630184Y3197738D01*
X6757738Y3070184D01*
X6910478Y2974211D01*
X7080745Y2914632D01*
X7080750Y2914631D01*
X7259996Y2894435D01*
X7260000Y2894435D01*
X7260004Y2894435D01*
X7439249Y2914631D01*
X7439252Y2914632D01*
X7439255Y2914632D01*
X7609522Y2974211D01*
X7762262Y3070184D01*
X7889816Y3197738D01*
X7985789Y3350478D01*
X8045368Y3520745D01*
X8065565Y3700000D01*
X8045368Y3879255D01*
X8045367Y3879257D01*
X8045366Y3879263D01*
X7985790Y4049519D01*
X7985789Y4049522D01*
X7964008Y4084186D01*
X7929506Y4139097D01*
X7910500Y4205069D01*
X7910500Y7454072D01*
X7885502Y7579739D01*
X7885501Y7579740D01*
X7885501Y7579744D01*
X7836465Y7698127D01*
X7801928Y7749816D01*
X7801928Y7749817D01*
X7765279Y7804666D01*
X7765273Y7804674D01*
X5504673Y10065274D01*
X5504669Y10065277D01*
X5398127Y10136465D01*
X5279744Y10185501D01*
X5279738Y10185503D01*
X5154071Y10210500D01*
X5154069Y10210500D01*
X805068Y10210500D01*
X739096Y10229506D01*
X649522Y10285790D01*
X649518Y10285791D01*
X479262Y10345367D01*
X479249Y10345370D01*
X300004Y10365565D01*
X299996Y10365565D01*
X120750Y10345370D01*
X120745Y10345369D01*
X-49524Y10285789D01*
X-202263Y10189816D01*
X-329816Y10062263D01*
X-425789Y9909524D01*
X-485369Y9739255D01*
X-485370Y9739250D01*
X-505565Y9560004D01*
X-19619500Y9560004D01*
X-19619500Y11880004D01*
X194435Y11880004D01*
X194435Y11879997D01*
X214630Y11700751D01*
X214631Y11700746D01*
X274211Y11530477D01*
X370184Y11377738D01*
X497738Y11250184D01*
X650478Y11154211D01*
X820745Y11094632D01*
X827974Y11093818D01*
X892388Y11066754D01*
X901776Y11058278D01*
X1094724Y10865331D01*
X1185331Y10774724D01*
X1185332Y10774723D01*
X1291866Y10703539D01*
X1291872Y10703536D01*
X1291873Y10703535D01*
X1410256Y10654499D01*
X1410260Y10654499D01*
X1410261Y10654498D01*
X1535928Y10629500D01*
X1535931Y10629500D01*
X7206692Y10629500D01*
X7273731Y10609815D01*
X7294373Y10593181D01*
X10868277Y7019277D01*
X10901762Y6957954D01*
X10903815Y6945488D01*
X10904630Y6938254D01*
X10904632Y6938245D01*
X10964210Y6767979D01*
X11058613Y6617738D01*
X11060184Y6615238D01*
X11187738Y6487684D01*
X11340478Y6391711D01*
X11503600Y6334632D01*
X11510745Y6332132D01*
X11510750Y6332131D01*
X11689996Y6311935D01*
X11690000Y6311935D01*
X11690004Y6311935D01*
X11869249Y6332131D01*
X11869252Y6332132D01*
X11869255Y6332132D01*
X12039522Y6391711D01*
X12192262Y6487684D01*
X12319816Y6615238D01*
X12415789Y6767978D01*
X12475368Y6938245D01*
X12475650Y6940746D01*
X12495565Y7117497D01*
X12495565Y7117504D01*
X12475369Y7296750D01*
X12475368Y7296755D01*
X12415788Y7467024D01*
X12319815Y7619763D01*
X12192262Y7747316D01*
X12039521Y7843290D01*
X11869255Y7902868D01*
X11869246Y7902870D01*
X11862012Y7903685D01*
X11797600Y7930756D01*
X11788223Y7939223D01*
X7942174Y11785273D01*
X7942173Y11785274D01*
X7942169Y11785277D01*
X7835627Y11856465D01*
X7717244Y11905501D01*
X7717238Y11905503D01*
X7591571Y11930500D01*
X7591569Y11930500D01*
X1920808Y11930500D01*
X1853769Y11950185D01*
X1833123Y11966823D01*
X1821718Y11978229D01*
X1788236Y12039553D01*
X1786182Y12052027D01*
X1785368Y12059255D01*
X1725789Y12229522D01*
X1629816Y12382262D01*
X1502262Y12509816D01*
X1349523Y12605789D01*
X1179254Y12665369D01*
X1179249Y12665370D01*
X1000004Y12685565D01*
X999996Y12685565D01*
X820750Y12665370D01*
X820745Y12665369D01*
X650476Y12605789D01*
X497737Y12509816D01*
X370184Y12382263D01*
X274211Y12229524D01*
X214631Y12059255D01*
X214630Y12059250D01*
X194435Y11880004D01*
X-19619500Y11880004D01*
X-19619500Y17430000D01*
X-11565175Y17430000D01*
X-11546500Y17156962D01*
X-11546499Y17156960D01*
X-11490822Y16889021D01*
X-11490817Y16889005D01*
X-11399171Y16631140D01*
X-11399172Y16631140D01*
X-11273260Y16388142D01*
X-11273256Y16388136D01*
X-11115440Y16164561D01*
X-10928635Y15964543D01*
X-10809898Y15867944D01*
X-10716345Y15791832D01*
X-10716343Y15791831D01*
X-10716342Y15791830D01*
X-10482510Y15649634D01*
X-10278778Y15561142D01*
X-10231492Y15540602D01*
X-9967965Y15466765D01*
X-9729601Y15434004D01*
X-9696839Y15429500D01*
X-9696838Y15429500D01*
X9576839Y15429500D01*
X9606068Y15433518D01*
X9847965Y15466765D01*
X10111492Y15540602D01*
X10362511Y15649635D01*
X10596345Y15791832D01*
X10808638Y15964546D01*
X10995437Y16164558D01*
X11153260Y16388143D01*
X11279169Y16631136D01*
X11370818Y16889010D01*
X11370818Y16889015D01*
X11370821Y16889021D01*
X11401441Y17036380D01*
X11426499Y17156962D01*
X11445175Y17430000D01*
X11426499Y17703038D01*
X11390658Y17875515D01*
X11370821Y17970980D01*
X11370816Y17970996D01*
X11279170Y18228861D01*
X11279171Y18228861D01*
X11153259Y18471859D01*
X11153255Y18471865D01*
X10995439Y18695440D01*
X10808634Y18895458D01*
X10596341Y19068171D01*
X10362509Y19210367D01*
X10111493Y19319398D01*
X9847970Y19393234D01*
X9847966Y19393235D01*
X9847965Y19393235D01*
X9712401Y19411868D01*
X9576839Y19430500D01*
X9576838Y19430500D01*
X9505892Y19430500D01*
X-9494108Y19430500D01*
X-9560000Y19430500D01*
X-9696838Y19430500D01*
X-9696839Y19430500D01*
X-9967965Y19393235D01*
X-9967971Y19393234D01*
X-10231494Y19319398D01*
X-10482510Y19210367D01*
X-10716342Y19068171D01*
X-10928635Y18895458D01*
X-11115440Y18695440D01*
X-11273256Y18471865D01*
X-11273260Y18471859D01*
X-11399171Y18228861D01*
X-11490817Y17970996D01*
X-11490822Y17970980D01*
X-11546499Y17703041D01*
X-11546500Y17703039D01*
X-11565175Y17430000D01*
X-19619500Y17430000D01*
X-19619500Y24575500D01*
X-19599815Y24642539D01*
X-19547011Y24688294D01*
X-19495500Y24699500D01*
X19395500Y24699500D01*
X19462539Y24679815D01*
G37*
%TD.AperFunction*%
%TA.AperFunction,Conductor*%
G36*
X-9100000Y-12476988D02*
G01*
X-9157007Y-12444075D01*
X-9284174Y-12410000D01*
X-9415826Y-12410000D01*
X-9542993Y-12444075D01*
X-9600000Y-12476988D01*
X-9600000Y-10803012D01*
X-9542993Y-10835925D01*
X-9415826Y-10870000D01*
X-9284174Y-10870000D01*
X-9157007Y-10835925D01*
X-9100000Y-10803012D01*
X-9100000Y-12476988D01*
G37*
%TD.AperFunction*%
%TA.AperFunction,Conductor*%
G36*
X1060000Y-12476988D02*
G01*
X1002993Y-12444075D01*
X875826Y-12410000D01*
X744174Y-12410000D01*
X617007Y-12444075D01*
X560000Y-12476988D01*
X560000Y-10803012D01*
X617007Y-10835925D01*
X744174Y-10870000D01*
X875826Y-10870000D01*
X1002993Y-10835925D01*
X1060000Y-10803012D01*
X1060000Y-12476988D01*
G37*
%TD.AperFunction*%
%TD*%
M02*
