%TF.GenerationSoftware,KiCad,Pcbnew,9.0.0*%
%TF.CreationDate,2025-03-13T10:40:51+00:00*%
%TF.ProjectId,OLED02,4f4c4544-3032-42e6-9b69-6361645f7063,rev?*%
%TF.SameCoordinates,Original*%
%TF.FileFunction,Copper,L1,Top*%
%TF.FilePolarity,Positive*%
%FSLAX46Y46*%
G04 Gerber Fmt 4.6, Leading zero omitted, Abs format (unit mm)*
G04 Created by KiCad (PCBNEW 9.0.0) date 2025-03-13 10:40:51*
%MOMM*%
%LPD*%
G01*
G04 APERTURE LIST*
%TA.AperFunction,ComponentPad*%
%ADD10R,1.700000X1.700000*%
%TD*%
%TA.AperFunction,ComponentPad*%
%ADD11O,1.700000X1.700000*%
%TD*%
%TA.AperFunction,ComponentPad*%
%ADD12C,6.000000*%
%TD*%
%TA.AperFunction,ViaPad*%
%ADD13C,0.600000*%
%TD*%
%TA.AperFunction,Conductor*%
%ADD14C,0.400000*%
%TD*%
%TA.AperFunction,Conductor*%
%ADD15C,0.300000*%
%TD*%
G04 APERTURE END LIST*
D10*
%TO.P,JP1,1,A*%
%TO.N,GND*%
X9825000Y-12760000D03*
D11*
%TO.P,JP1,2,C*%
%TO.N,Net-(JP1-C)*%
X7285000Y-12760000D03*
%TO.P,JP1,3,B*%
%TO.N,+3.3V*%
X4745000Y-12760000D03*
%TD*%
D12*
%TO.P,M4,1*%
%TO.N,GND*%
X15190000Y-10110000D03*
%TD*%
%TO.P,M3,1*%
%TO.N,GND*%
X-15290000Y-10110000D03*
%TD*%
%TO.P,M2,1*%
%TO.N,GND*%
X15190000Y20370000D03*
%TD*%
D10*
%TO.P,J2,1*%
%TO.N,GND*%
X810000Y-10370000D03*
D11*
%TO.P,J2,2*%
X810000Y-12910000D03*
%TO.P,J2,3*%
%TO.N,/SCL*%
X-1730000Y-10370000D03*
%TO.P,J2,4*%
X-1730000Y-12910000D03*
%TO.P,J2,5*%
%TO.N,+3.3V*%
X-4270000Y-10370000D03*
%TO.P,J2,6*%
X-4270000Y-12910000D03*
%TO.P,J2,7*%
%TO.N,/SDA*%
X-6810000Y-10370000D03*
%TO.P,J2,8*%
X-6810000Y-12910000D03*
%TO.P,J2,9*%
%TO.N,GND*%
X-9350000Y-10370000D03*
%TO.P,J2,10*%
X-9350000Y-12910000D03*
%TD*%
D12*
%TO.P,M1,1*%
%TO.N,GND*%
X-15290000Y20370000D03*
%TD*%
D13*
%TO.N,GND*%
X-2000000Y-440000D03*
X13110000Y15780000D03*
X-6550000Y270000D03*
X700000Y-5750000D03*
X-6580000Y3640000D03*
X1340000Y470000D03*
X11100000Y11770000D03*
X3760000Y12910000D03*
X5970000Y-5910000D03*
X-8180000Y-5840000D03*
X1710000Y12620000D03*
X-11380000Y5100000D03*
X5450000Y12540000D03*
X5395380Y8335380D03*
X7590000Y12610000D03*
X-9860000Y12600000D03*
X12080000Y10960000D03*
X1370000Y-2460000D03*
X14020000Y10490000D03*
X3770000Y8220000D03*
X2690000Y-11670000D03*
X3280000Y3880000D03*
X-4960000Y7590000D03*
X-5610000Y-6130000D03*
X5340000Y3770000D03*
X-6550000Y-2290000D03*
X-10700000Y270000D03*
X11140000Y9920000D03*
X-12540000Y8710000D03*
X4810000Y-5890000D03*
X6570000Y14710000D03*
X15300000Y370000D03*
X-8950000Y3580000D03*
X2980000Y-10020000D03*
X-540000Y12610000D03*
X3470000Y-5890000D03*
X-5310000Y8910000D03*
X-5620000Y12570000D03*
X8440000Y12610000D03*
X460000Y8160000D03*
X12330000Y310000D03*
X-740000Y9020000D03*
X15300000Y15510000D03*
X2050000Y8230000D03*
X-2210000Y-2350000D03*
%TO.N,+3.3V*%
X3150000Y7120000D03*
%TO.N,/ADDR*%
X300000Y9560000D03*
X7260000Y3700000D03*
%TO.N,/RES*%
X1000000Y11880000D03*
X11690000Y7117500D03*
%TD*%
D14*
%TO.N,+3.3V*%
X4745000Y-9755000D02*
X4745000Y-12760000D01*
X3150000Y7120000D02*
X3090000Y7120000D01*
X2280000Y-7290000D02*
X4745000Y-9755000D01*
X-4270000Y-12910000D02*
X-4270000Y-8140000D01*
X-4270000Y-240000D02*
X-4270000Y-8140000D01*
X-4270000Y-7290000D02*
X2280000Y-7290000D01*
X3090000Y7120000D02*
X-4270000Y-240000D01*
D15*
%TO.N,/ADDR*%
X300000Y9560000D02*
X5650000Y9560000D01*
X7260000Y7950000D02*
X7260000Y3700000D01*
X5650000Y9560000D02*
X7260000Y7950000D01*
%TO.N,/RES*%
X11690000Y7117500D02*
X7527500Y11280000D01*
X7527500Y11280000D02*
X1600000Y11280000D01*
X1600000Y11280000D02*
X1000000Y11880000D01*
%TD*%
%TA.AperFunction,Conductor*%
%TO.N,GND*%
G36*
X19462539Y24679815D02*
G01*
X19508294Y24627011D01*
X19519500Y24575500D01*
X19519500Y-14315500D01*
X19499815Y-14382539D01*
X19447011Y-14428294D01*
X19395500Y-14439500D01*
X1254281Y-14439500D01*
X1187242Y-14419815D01*
X1141487Y-14367011D01*
X1131543Y-14297853D01*
X1160568Y-14234297D01*
X1215963Y-14197569D01*
X1328217Y-14161095D01*
X1517557Y-14064620D01*
X1689459Y-13939727D01*
X1689464Y-13939723D01*
X1839723Y-13789464D01*
X1839727Y-13789459D01*
X1964620Y-13617557D01*
X2061095Y-13428217D01*
X2126757Y-13226129D01*
X2126757Y-13226126D01*
X2137231Y-13160000D01*
X1243012Y-13160000D01*
X1275925Y-13102993D01*
X1310000Y-12975826D01*
X1310000Y-12844174D01*
X1275925Y-12717007D01*
X1243012Y-12660000D01*
X2137231Y-12660000D01*
X2126757Y-12593873D01*
X2126757Y-12593870D01*
X2061095Y-12391782D01*
X1964620Y-12202442D01*
X1839727Y-12030540D01*
X1839723Y-12030535D01*
X1725665Y-11916477D01*
X1692180Y-11855154D01*
X1697164Y-11785462D01*
X1739036Y-11729529D01*
X1770013Y-11712614D01*
X1902086Y-11663354D01*
X1902093Y-11663350D01*
X2017187Y-11577190D01*
X2017190Y-11577187D01*
X2103350Y-11462093D01*
X2103354Y-11462086D01*
X2153596Y-11327379D01*
X2153598Y-11327372D01*
X2159999Y-11267844D01*
X2160000Y-11267827D01*
X2160000Y-10620000D01*
X1243012Y-10620000D01*
X1275925Y-10562993D01*
X1310000Y-10435826D01*
X1310000Y-10304174D01*
X1275925Y-10177007D01*
X1243012Y-10120000D01*
X2160000Y-10120000D01*
X2160000Y-9472172D01*
X2159999Y-9472155D01*
X2153598Y-9412627D01*
X2153596Y-9412620D01*
X2103354Y-9277913D01*
X2103350Y-9277906D01*
X2017190Y-9162812D01*
X2017187Y-9162809D01*
X1902093Y-9076649D01*
X1902086Y-9076645D01*
X1767379Y-9026403D01*
X1767372Y-9026401D01*
X1707844Y-9020000D01*
X1060000Y-9020000D01*
X1060000Y-9936988D01*
X1002993Y-9904075D01*
X875826Y-9870000D01*
X744174Y-9870000D01*
X617007Y-9904075D01*
X560000Y-9936988D01*
X560000Y-9020000D01*
X-87845Y-9020000D01*
X-147373Y-9026401D01*
X-147380Y-9026403D01*
X-282087Y-9076645D01*
X-282094Y-9076649D01*
X-397188Y-9162809D01*
X-397191Y-9162812D01*
X-483351Y-9277906D01*
X-483354Y-9277912D01*
X-532423Y-9409471D01*
X-574295Y-9465404D01*
X-639759Y-9489821D01*
X-708032Y-9474969D01*
X-736286Y-9453818D01*
X-850214Y-9339890D01*
X-1022180Y-9214951D01*
X-1211586Y-9118444D01*
X-1211587Y-9118443D01*
X-1211588Y-9118443D01*
X-1413757Y-9052754D01*
X-1413759Y-9052753D01*
X-1413760Y-9052753D01*
X-1575043Y-9027208D01*
X-1623713Y-9019500D01*
X-1836287Y-9019500D01*
X-1884958Y-9027208D01*
X-2046240Y-9052753D01*
X-2248415Y-9118444D01*
X-2437821Y-9214951D01*
X-2609787Y-9339890D01*
X-2760110Y-9490213D01*
X-2885051Y-9662182D01*
X-2889516Y-9670946D01*
X-2937491Y-9721742D01*
X-3005312Y-9738536D01*
X-3071447Y-9715998D01*
X-3110484Y-9670946D01*
X-3114950Y-9662182D01*
X-3239891Y-9490213D01*
X-3390214Y-9339890D01*
X-3518385Y-9246770D01*
X-3561051Y-9191441D01*
X-3569500Y-9146452D01*
X-3569500Y-8114500D01*
X-3549815Y-8047461D01*
X-3497011Y-8001706D01*
X-3445500Y-7990500D01*
X1938481Y-7990500D01*
X2005520Y-8010185D01*
X2026162Y-8026819D01*
X4008181Y-10008837D01*
X4041666Y-10070160D01*
X4044500Y-10096518D01*
X4044500Y-11536452D01*
X4024815Y-11603491D01*
X3993385Y-11636770D01*
X3865213Y-11729890D01*
X3714890Y-11880213D01*
X3589951Y-12052179D01*
X3493444Y-12241585D01*
X3427753Y-12443760D01*
X3417262Y-12510000D01*
X3394500Y-12653713D01*
X3394500Y-12866287D01*
X3427754Y-13076243D01*
X3476492Y-13226243D01*
X3493444Y-13278414D01*
X3589951Y-13467820D01*
X3714890Y-13639786D01*
X3865213Y-13790109D01*
X4037179Y-13915048D01*
X4037181Y-13915049D01*
X4037184Y-13915051D01*
X4226588Y-14011557D01*
X4428757Y-14077246D01*
X4638713Y-14110500D01*
X4638714Y-14110500D01*
X4851286Y-14110500D01*
X4851287Y-14110500D01*
X5061243Y-14077246D01*
X5263412Y-14011557D01*
X5452816Y-13915051D01*
X5539478Y-13852088D01*
X5624786Y-13790109D01*
X5624788Y-13790106D01*
X5624792Y-13790104D01*
X5775104Y-13639792D01*
X5775106Y-13639788D01*
X5775109Y-13639786D01*
X5900048Y-13467820D01*
X5900047Y-13467820D01*
X5900051Y-13467816D01*
X5904514Y-13459054D01*
X5952488Y-13408259D01*
X6020308Y-13391463D01*
X6086444Y-13413999D01*
X6125486Y-13459056D01*
X6129951Y-13467820D01*
X6254890Y-13639786D01*
X6405213Y-13790109D01*
X6577179Y-13915048D01*
X6577181Y-13915049D01*
X6577184Y-13915051D01*
X6766588Y-14011557D01*
X6968757Y-14077246D01*
X7178713Y-14110500D01*
X7178714Y-14110500D01*
X7391286Y-14110500D01*
X7391287Y-14110500D01*
X7601243Y-14077246D01*
X7803412Y-14011557D01*
X7992816Y-13915051D01*
X8079478Y-13852088D01*
X8164784Y-13790110D01*
X8164784Y-13790109D01*
X8164792Y-13790104D01*
X8278717Y-13676178D01*
X8340036Y-13642696D01*
X8409728Y-13647680D01*
X8465662Y-13689551D01*
X8482577Y-13720528D01*
X8531646Y-13852088D01*
X8531649Y-13852093D01*
X8617809Y-13967187D01*
X8617812Y-13967190D01*
X8732906Y-14053350D01*
X8732913Y-14053354D01*
X8867620Y-14103596D01*
X8867627Y-14103598D01*
X8927155Y-14109999D01*
X8927172Y-14110000D01*
X9575000Y-14110000D01*
X9575000Y-13193012D01*
X9632007Y-13225925D01*
X9759174Y-13260000D01*
X9890826Y-13260000D01*
X10017993Y-13225925D01*
X10075000Y-13193012D01*
X10075000Y-14110000D01*
X10722828Y-14110000D01*
X10722844Y-14109999D01*
X10782372Y-14103598D01*
X10782379Y-14103596D01*
X10917086Y-14053354D01*
X10917093Y-14053350D01*
X11032187Y-13967190D01*
X11032190Y-13967187D01*
X11118350Y-13852093D01*
X11118354Y-13852086D01*
X11168596Y-13717379D01*
X11168598Y-13717372D01*
X11174999Y-13657844D01*
X11175000Y-13657827D01*
X11175000Y-13010000D01*
X10258012Y-13010000D01*
X10290925Y-12952993D01*
X10325000Y-12825826D01*
X10325000Y-12694174D01*
X10290925Y-12567007D01*
X10258012Y-12510000D01*
X11175000Y-12510000D01*
X11175000Y-11862172D01*
X11174999Y-11862155D01*
X11168598Y-11802627D01*
X11168596Y-11802620D01*
X11118354Y-11667913D01*
X11118350Y-11667906D01*
X11032190Y-11552812D01*
X11032187Y-11552809D01*
X10917093Y-11466649D01*
X10917086Y-11466645D01*
X10782379Y-11416403D01*
X10782372Y-11416401D01*
X10722844Y-11410000D01*
X10075000Y-11410000D01*
X10075000Y-12326988D01*
X10017993Y-12294075D01*
X9890826Y-12260000D01*
X9759174Y-12260000D01*
X9632007Y-12294075D01*
X9575000Y-12326988D01*
X9575000Y-11410000D01*
X8927155Y-11410000D01*
X8867627Y-11416401D01*
X8867620Y-11416403D01*
X8732913Y-11466645D01*
X8732906Y-11466649D01*
X8617812Y-11552809D01*
X8617809Y-11552812D01*
X8531649Y-11667906D01*
X8531646Y-11667912D01*
X8482577Y-11799471D01*
X8440705Y-11855404D01*
X8375241Y-11879821D01*
X8306968Y-11864969D01*
X8278714Y-11843818D01*
X8164786Y-11729890D01*
X7992820Y-11604951D01*
X7803414Y-11508444D01*
X7803413Y-11508443D01*
X7803412Y-11508443D01*
X7601243Y-11442754D01*
X7601241Y-11442753D01*
X7601240Y-11442753D01*
X7439957Y-11417208D01*
X7391287Y-11409500D01*
X7178713Y-11409500D01*
X7130042Y-11417208D01*
X6968760Y-11442753D01*
X6766585Y-11508444D01*
X6577179Y-11604951D01*
X6405213Y-11729890D01*
X6254890Y-11880213D01*
X6129949Y-12052182D01*
X6125484Y-12060946D01*
X6077509Y-12111742D01*
X6009688Y-12128536D01*
X5943553Y-12105998D01*
X5904516Y-12060946D01*
X5900050Y-12052182D01*
X5775109Y-11880213D01*
X5624786Y-11729890D01*
X5496615Y-11636770D01*
X5453949Y-11581441D01*
X5445500Y-11536452D01*
X5445500Y-9686004D01*
X5418581Y-9550677D01*
X5418580Y-9550676D01*
X5418580Y-9550672D01*
X5387223Y-9474969D01*
X5365778Y-9423195D01*
X5365771Y-9423182D01*
X5289115Y-9308459D01*
X5258562Y-9277906D01*
X5191542Y-9210886D01*
X5000156Y-9019500D01*
X2726546Y-6745888D01*
X2726545Y-6745887D01*
X2611807Y-6669222D01*
X2484332Y-6616421D01*
X2484322Y-6616418D01*
X2348996Y-6589500D01*
X2348994Y-6589500D01*
X2348993Y-6589500D01*
X-3445500Y-6589500D01*
X-3512539Y-6569815D01*
X-3558294Y-6517011D01*
X-3569500Y-6465500D01*
X-3569500Y-581518D01*
X-3549815Y-514479D01*
X-3533186Y-493842D01*
X3266301Y6305646D01*
X3327622Y6339129D01*
X3329703Y6339563D01*
X3383497Y6350263D01*
X3523136Y6408103D01*
X3529172Y6410603D01*
X3529172Y6410604D01*
X3529179Y6410606D01*
X3660289Y6498211D01*
X3771789Y6609711D01*
X3859394Y6740821D01*
X3919737Y6886503D01*
X3950500Y7041158D01*
X3950500Y7198842D01*
X3950500Y7198845D01*
X3950499Y7198847D01*
X3919737Y7353497D01*
X3919735Y7353502D01*
X3859397Y7499173D01*
X3859390Y7499186D01*
X3771789Y7630289D01*
X3771786Y7630293D01*
X3660292Y7741787D01*
X3660288Y7741790D01*
X3529185Y7829391D01*
X3529172Y7829398D01*
X3383501Y7889736D01*
X3383489Y7889739D01*
X3228845Y7920500D01*
X3228842Y7920500D01*
X3071158Y7920500D01*
X3071155Y7920500D01*
X2916510Y7889739D01*
X2916498Y7889736D01*
X2770827Y7829398D01*
X2770814Y7829391D01*
X2639711Y7741790D01*
X2639707Y7741787D01*
X2528213Y7630293D01*
X2528207Y7630285D01*
X2440607Y7499182D01*
X2440604Y7499176D01*
X2423232Y7457238D01*
X2396353Y7417012D01*
X-4814113Y206546D01*
X-4890778Y91808D01*
X-4943579Y-35667D01*
X-4943582Y-35677D01*
X-4970500Y-171004D01*
X-4970500Y-9146452D01*
X-4990185Y-9213491D01*
X-5021615Y-9246770D01*
X-5149787Y-9339890D01*
X-5300110Y-9490213D01*
X-5425051Y-9662182D01*
X-5429516Y-9670946D01*
X-5477491Y-9721742D01*
X-5545312Y-9738536D01*
X-5611447Y-9715998D01*
X-5650484Y-9670946D01*
X-5654950Y-9662182D01*
X-5779891Y-9490213D01*
X-5930214Y-9339890D01*
X-6102180Y-9214951D01*
X-6291586Y-9118444D01*
X-6291587Y-9118443D01*
X-6291588Y-9118443D01*
X-6493757Y-9052754D01*
X-6493759Y-9052753D01*
X-6493760Y-9052753D01*
X-6655043Y-9027208D01*
X-6703713Y-9019500D01*
X-6916287Y-9019500D01*
X-6964958Y-9027208D01*
X-7126240Y-9052753D01*
X-7328415Y-9118444D01*
X-7517821Y-9214951D01*
X-7689787Y-9339890D01*
X-7840110Y-9490213D01*
X-7965051Y-9662182D01*
X-7969798Y-9671499D01*
X-8017773Y-9722293D01*
X-8085595Y-9739087D01*
X-8151729Y-9716548D01*
X-8190766Y-9671495D01*
X-8195378Y-9662444D01*
X-8320273Y-9490540D01*
X-8320277Y-9490535D01*
X-8470536Y-9340276D01*
X-8470541Y-9340272D01*
X-8642443Y-9215379D01*
X-8831785Y-9118903D01*
X-9033876Y-9053241D01*
X-9100000Y-9042768D01*
X-9100000Y-9936988D01*
X-9157007Y-9904075D01*
X-9284174Y-9870000D01*
X-9415826Y-9870000D01*
X-9542993Y-9904075D01*
X-9600000Y-9936988D01*
X-9600000Y-9042768D01*
X-9600001Y-9042768D01*
X-9666125Y-9053241D01*
X-9868216Y-9118903D01*
X-10057558Y-9215379D01*
X-10229460Y-9340272D01*
X-10229465Y-9340276D01*
X-10379724Y-9490535D01*
X-10379728Y-9490540D01*
X-10504621Y-9662442D01*
X-10601096Y-9851782D01*
X-10666758Y-10053870D01*
X-10666758Y-10053873D01*
X-10677231Y-10120000D01*
X-9783012Y-10120000D01*
X-9815925Y-10177007D01*
X-9850000Y-10304174D01*
X-9850000Y-10435826D01*
X-9815925Y-10562993D01*
X-9783012Y-10620000D01*
X-10677231Y-10620000D01*
X-10666758Y-10686126D01*
X-10666758Y-10686129D01*
X-10601096Y-10888217D01*
X-10504621Y-11077557D01*
X-10379728Y-11249459D01*
X-10379724Y-11249464D01*
X-10229465Y-11399723D01*
X-10229460Y-11399727D01*
X-10057556Y-11524622D01*
X-10047952Y-11529516D01*
X-9997156Y-11577491D01*
X-9980362Y-11645312D01*
X-10002900Y-11711447D01*
X-10047952Y-11750484D01*
X-10057556Y-11755377D01*
X-10229460Y-11880272D01*
X-10229465Y-11880276D01*
X-10379724Y-12030535D01*
X-10379728Y-12030540D01*
X-10504621Y-12202442D01*
X-10601096Y-12391782D01*
X-10666758Y-12593870D01*
X-10666758Y-12593873D01*
X-10677231Y-12660000D01*
X-9783012Y-12660000D01*
X-9815925Y-12717007D01*
X-9850000Y-12844174D01*
X-9850000Y-12975826D01*
X-9815925Y-13102993D01*
X-9783012Y-13160000D01*
X-10677231Y-13160000D01*
X-10666758Y-13226126D01*
X-10666758Y-13226129D01*
X-10601096Y-13428217D01*
X-10504621Y-13617557D01*
X-10379728Y-13789459D01*
X-10379724Y-13789464D01*
X-10229465Y-13939723D01*
X-10229460Y-13939727D01*
X-10057558Y-14064620D01*
X-9868218Y-14161095D01*
X-9755963Y-14197569D01*
X-9698288Y-14237006D01*
X-9671089Y-14301365D01*
X-9683004Y-14370211D01*
X-9730248Y-14421687D01*
X-9794281Y-14439500D01*
X-19495500Y-14439500D01*
X-19562539Y-14419815D01*
X-19608294Y-14367011D01*
X-19619500Y-14315500D01*
X-19619500Y9638847D01*
X-500500Y9638847D01*
X-500500Y9481154D01*
X-469739Y9326511D01*
X-469736Y9326499D01*
X-409398Y9180828D01*
X-409391Y9180815D01*
X-321790Y9049712D01*
X-321787Y9049708D01*
X-210293Y8938214D01*
X-210289Y8938211D01*
X-79186Y8850610D01*
X-79173Y8850603D01*
X66498Y8790265D01*
X66503Y8790263D01*
X221153Y8759501D01*
X221156Y8759500D01*
X221158Y8759500D01*
X378844Y8759500D01*
X378845Y8759501D01*
X533497Y8790263D01*
X679179Y8850606D01*
X736044Y8888603D01*
X802721Y8909480D01*
X804935Y8909500D01*
X5329192Y8909500D01*
X5396231Y8889815D01*
X5416873Y8873181D01*
X6573181Y7716873D01*
X6606666Y7655550D01*
X6609500Y7629192D01*
X6609500Y4204936D01*
X6589815Y4137897D01*
X6588603Y4136046D01*
X6550608Y4079183D01*
X6550602Y4079172D01*
X6490264Y3933502D01*
X6490261Y3933490D01*
X6459500Y3778847D01*
X6459500Y3621154D01*
X6490261Y3466511D01*
X6490264Y3466499D01*
X6550602Y3320828D01*
X6550609Y3320815D01*
X6638210Y3189712D01*
X6638213Y3189708D01*
X6749707Y3078214D01*
X6749711Y3078211D01*
X6880814Y2990610D01*
X6880827Y2990603D01*
X7026498Y2930265D01*
X7026503Y2930263D01*
X7181153Y2899501D01*
X7181156Y2899500D01*
X7181158Y2899500D01*
X7338844Y2899500D01*
X7338845Y2899501D01*
X7493497Y2930263D01*
X7639179Y2990606D01*
X7770289Y3078211D01*
X7881789Y3189711D01*
X7969394Y3320821D01*
X8029737Y3466503D01*
X8060500Y3621158D01*
X8060500Y3778842D01*
X8060500Y3778845D01*
X8060499Y3778847D01*
X8029738Y3933490D01*
X8029737Y3933497D01*
X7969394Y4079179D01*
X7931396Y4136047D01*
X7910520Y4202724D01*
X7910500Y4204936D01*
X7910500Y8014072D01*
X7885502Y8139739D01*
X7885501Y8139740D01*
X7885501Y8139744D01*
X7836465Y8258127D01*
X7765277Y8364669D01*
X7765275Y8364671D01*
X7765273Y8364674D01*
X6064673Y10065274D01*
X6064669Y10065277D01*
X5958127Y10136465D01*
X5839744Y10185501D01*
X5839738Y10185503D01*
X5714071Y10210500D01*
X5714069Y10210500D01*
X804935Y10210500D01*
X737896Y10230185D01*
X736090Y10231367D01*
X679179Y10269394D01*
X679172Y10269398D01*
X533501Y10329736D01*
X533489Y10329739D01*
X378845Y10360500D01*
X378842Y10360500D01*
X221158Y10360500D01*
X221155Y10360500D01*
X66510Y10329739D01*
X66498Y10329736D01*
X-79173Y10269398D01*
X-79186Y10269391D01*
X-210289Y10181790D01*
X-210293Y10181787D01*
X-321787Y10070293D01*
X-321790Y10070289D01*
X-409391Y9939186D01*
X-409398Y9939173D01*
X-469736Y9793502D01*
X-469739Y9793490D01*
X-500500Y9638847D01*
X-19619500Y9638847D01*
X-19619500Y11958847D01*
X199500Y11958847D01*
X199500Y11801154D01*
X230261Y11646511D01*
X230264Y11646499D01*
X290602Y11500828D01*
X290609Y11500815D01*
X378210Y11369712D01*
X378213Y11369708D01*
X489707Y11258214D01*
X489711Y11258211D01*
X620814Y11170610D01*
X620827Y11170603D01*
X708230Y11134401D01*
X766503Y11110263D01*
X833581Y11096921D01*
X895490Y11064537D01*
X897070Y11062985D01*
X1094724Y10865331D01*
X1185331Y10774724D01*
X1185332Y10774723D01*
X1291866Y10703539D01*
X1291872Y10703536D01*
X1291873Y10703535D01*
X1410256Y10654499D01*
X1410260Y10654499D01*
X1410261Y10654498D01*
X1535928Y10629500D01*
X1535931Y10629500D01*
X7206692Y10629500D01*
X7273731Y10609815D01*
X7294373Y10593181D01*
X10872984Y7014570D01*
X10906469Y6953247D01*
X10906920Y6951080D01*
X10920261Y6884011D01*
X10920264Y6883999D01*
X10980602Y6738328D01*
X10980609Y6738315D01*
X11068210Y6607212D01*
X11068213Y6607208D01*
X11179707Y6495714D01*
X11179711Y6495711D01*
X11310814Y6408110D01*
X11310827Y6408103D01*
X11450465Y6350264D01*
X11456503Y6347763D01*
X11611153Y6317001D01*
X11611156Y6317000D01*
X11611158Y6317000D01*
X11768844Y6317000D01*
X11768845Y6317001D01*
X11923497Y6347763D01*
X12069179Y6408106D01*
X12200289Y6495711D01*
X12311789Y6607211D01*
X12399394Y6738321D01*
X12400433Y6740828D01*
X12459735Y6883999D01*
X12459737Y6884003D01*
X12490500Y7038658D01*
X12490500Y7196342D01*
X12490500Y7196345D01*
X12490499Y7196347D01*
X12459738Y7350990D01*
X12459737Y7350997D01*
X12458704Y7353490D01*
X12399397Y7496673D01*
X12399390Y7496686D01*
X12311789Y7627789D01*
X12311786Y7627793D01*
X12200292Y7739287D01*
X12200288Y7739290D01*
X12069185Y7826891D01*
X12069172Y7826898D01*
X11923501Y7887236D01*
X11923489Y7887239D01*
X11856420Y7900580D01*
X11794509Y7932965D01*
X11792930Y7934516D01*
X7942174Y11785273D01*
X7942173Y11785274D01*
X7918401Y11801158D01*
X7835627Y11856465D01*
X7717244Y11905501D01*
X7717238Y11905503D01*
X7591571Y11930500D01*
X7591569Y11930500D01*
X1920807Y11930500D01*
X1891366Y11939145D01*
X1861380Y11945668D01*
X1856364Y11949423D01*
X1853768Y11950185D01*
X1833126Y11966819D01*
X1817015Y11982930D01*
X1783530Y12044253D01*
X1783095Y12046340D01*
X1769737Y12113497D01*
X1745599Y12171770D01*
X1709397Y12259173D01*
X1709390Y12259186D01*
X1621789Y12390289D01*
X1621786Y12390293D01*
X1510292Y12501787D01*
X1510288Y12501790D01*
X1379185Y12589391D01*
X1379172Y12589398D01*
X1233501Y12649736D01*
X1233489Y12649739D01*
X1078845Y12680500D01*
X1078842Y12680500D01*
X921158Y12680500D01*
X921155Y12680500D01*
X766510Y12649739D01*
X766498Y12649736D01*
X620827Y12589398D01*
X620814Y12589391D01*
X489711Y12501790D01*
X489707Y12501787D01*
X378213Y12390293D01*
X378210Y12390289D01*
X290609Y12259186D01*
X290602Y12259173D01*
X230264Y12113502D01*
X230261Y12113490D01*
X199500Y11958847D01*
X-19619500Y11958847D01*
X-19619500Y17430000D01*
X-11565175Y17430000D01*
X-11546500Y17156962D01*
X-11546499Y17156960D01*
X-11490822Y16889021D01*
X-11490817Y16889005D01*
X-11399171Y16631140D01*
X-11399172Y16631140D01*
X-11273260Y16388142D01*
X-11273256Y16388136D01*
X-11115440Y16164561D01*
X-10928635Y15964543D01*
X-10809898Y15867944D01*
X-10716345Y15791832D01*
X-10716343Y15791831D01*
X-10716342Y15791830D01*
X-10482510Y15649634D01*
X-10278778Y15561142D01*
X-10231492Y15540602D01*
X-9967965Y15466765D01*
X-9729601Y15434004D01*
X-9696839Y15429500D01*
X-9696838Y15429500D01*
X9576839Y15429500D01*
X9606068Y15433518D01*
X9847965Y15466765D01*
X10111492Y15540602D01*
X10362511Y15649635D01*
X10596345Y15791832D01*
X10808638Y15964546D01*
X10995437Y16164558D01*
X11153260Y16388143D01*
X11279169Y16631136D01*
X11370818Y16889010D01*
X11370818Y16889015D01*
X11370821Y16889021D01*
X11401441Y17036380D01*
X11426499Y17156962D01*
X11445175Y17430000D01*
X11426499Y17703038D01*
X11390658Y17875515D01*
X11370821Y17970980D01*
X11370816Y17970996D01*
X11279170Y18228861D01*
X11279171Y18228861D01*
X11153259Y18471859D01*
X11153255Y18471865D01*
X10995439Y18695440D01*
X10808634Y18895458D01*
X10596341Y19068171D01*
X10362509Y19210367D01*
X10111493Y19319398D01*
X9847970Y19393234D01*
X9847966Y19393235D01*
X9847965Y19393235D01*
X9712401Y19411868D01*
X9576839Y19430500D01*
X9576838Y19430500D01*
X9505892Y19430500D01*
X-9494108Y19430500D01*
X-9560000Y19430500D01*
X-9696838Y19430500D01*
X-9696839Y19430500D01*
X-9967965Y19393235D01*
X-9967971Y19393234D01*
X-10231494Y19319398D01*
X-10482510Y19210367D01*
X-10716342Y19068171D01*
X-10928635Y18895458D01*
X-11115440Y18695440D01*
X-11273256Y18471865D01*
X-11273260Y18471859D01*
X-11399171Y18228861D01*
X-11490817Y17970996D01*
X-11490822Y17970980D01*
X-11546499Y17703041D01*
X-11546500Y17703039D01*
X-11565175Y17430000D01*
X-19619500Y17430000D01*
X-19619500Y24575500D01*
X-19599815Y24642539D01*
X-19547011Y24688294D01*
X-19495500Y24699500D01*
X19395500Y24699500D01*
X19462539Y24679815D01*
G37*
%TD.AperFunction*%
%TA.AperFunction,Conductor*%
G36*
X-9100000Y-12476988D02*
G01*
X-9157007Y-12444075D01*
X-9284174Y-12410000D01*
X-9415826Y-12410000D01*
X-9542993Y-12444075D01*
X-9600000Y-12476988D01*
X-9600000Y-10803012D01*
X-9542993Y-10835925D01*
X-9415826Y-10870000D01*
X-9284174Y-10870000D01*
X-9157007Y-10835925D01*
X-9100000Y-10803012D01*
X-9100000Y-12476988D01*
G37*
%TD.AperFunction*%
%TA.AperFunction,Conductor*%
G36*
X1060000Y-12476988D02*
G01*
X1002993Y-12444075D01*
X875826Y-12410000D01*
X744174Y-12410000D01*
X617007Y-12444075D01*
X560000Y-12476988D01*
X560000Y-10803012D01*
X617007Y-10835925D01*
X744174Y-10870000D01*
X875826Y-10870000D01*
X1002993Y-10835925D01*
X1060000Y-10803012D01*
X1060000Y-12476988D01*
G37*
%TD.AperFunction*%
%TD*%
M02*
